<?xml version="1.0" encoding="utf-8"?>
<!-- Generator: Adobe Illustrator 21.0.2, SVG Export Plug-In . SVG Version: 6.00 Build 0)  -->
<svg version="1.1" id="BACKGROUND_1_1_" xmlns="http://www.w3.org/2000/svg" xmlns:xlink="http://www.w3.org/1999/xlink" x="0px"
	 y="0px" viewBox="0 0 348 324" style="enable-background:new 0 0 348 324;" xml:space="preserve">
<style type="text/css">
	.st0{clip-path:url(#SVGID_2_);}
	.st1{fill:#E6D4B2;}
	.st2{fill:#363F44;}
	.st3{fill:#64798B;}
	.st4{fill:#4B5860;}
	.st5{fill:#FF6600;}
	.st6{fill:#FFFFFF;}
	.st7{fill:url(#SVGID_3_);}
	.st8{fill:#D1B38B;}
	.st9{fill:#DDC6A2;}
	.st10{fill:#D1D3D4;}
	.st11{enable-background:new    ;}
	.st12{fill:#FCBF5C;}
	.st13{fill:#EEAE55;}
	.st14{fill:#FFCF8A;}
	.st15{fill:#83DCFF;}
	.st16{fill:#28A0DE;}
	.st17{fill:#CCC2C1;}
	.st18{fill:#E4E2E5;}
	.st19{fill:#D35443;}
	.st20{fill:#D0D2D3;}
	.st21{fill:url(#SVGID_4_);}
	.st22{fill:url(#SVGID_5_);}
	.st23{fill:url(#SVGID_6_);}
	.st24{fill:url(#SVGID_7_);}
	.st25{fill:url(#SVGID_8_);}
	.st26{fill:url(#SVGID_9_);}
	.st27{fill:#C6C6C6;}
	.st28{fill:#EBF0F4;}
	.st29{fill:#D4D7D9;}
	.st30{fill-rule:evenodd;clip-rule:evenodd;fill:#D4D7D9;}
	.st31{fill-rule:evenodd;clip-rule:evenodd;fill:#FA5D58;}
	.st32{clip-path:url(#SVGID_2_);fill:#D35443;}
</style>
<g>
	<g>
		<defs>
			<rect id="SVGID_1_" x="-152" y="-176" width="500" height="500"/>
		</defs>
		<clipPath id="SVGID_2_">
			<use xlink:href="#SVGID_1_"  style="overflow:visible;"/>
		</clipPath>
		<g class="st0">
			<g>
				<path class="st1" d="M63.9,83.8c0,0-12.2-18.2-3.9-24.1c8.3-5.8,18.9,0.5,23.6,6.4c4.7,5.8,11.9,17.7,11.9,17.7H63.9z"/>
			</g>
			<g>
				<path class="st1" d="M150.7,76.7c4.7,2.7,6.3,7.3,5.7,10.7c-0.6,3.4-2.6,8.8-3.7,11.5l0.6,0.4l-24.4-14.1l0.6,0.4
					c0.9-2.2,3.4-7.1,7.7-9.6c2-1.2,4.1-1.6,6.4-1.4C146.5,74.9,148.8,75.7,150.7,76.7z"/>
			</g>
			<g>
				<path class="st1" d="M186.9,93.3c4.5,2.6,7.7,6.3,7.8,8.7c0.1,4.1-1.3,15.2-1.9,19.7l0.7,0.4l-25.6-14.8l0.7,0.4
					c0.4-1.1,0.8-2.6,0.6-3.6c0-0.2-0.1-0.5-0.3-0.8C168,101,166,95.5,172,92c0.4-0.2,0.8-0.4,1.3-0.7c2.4-1.1,5.2-1.1,8.4-0.3
					C183.5,91.6,185.3,92.4,186.9,93.3z"/>
			</g>
			<g>
				<path class="st1" d="M223.1,119.5c2,1.2,3.5,2.6,3.7,2.9c0.1,0.3,0.6,1.1,1.6,2.7c1.9,2.9,4.6,7.2,5.1,9.1
					c0.4,1.8-1.3,6.7-2.1,9.7l-22-12.8l0.7,0.4c0.2-0.5,0.1-1.1-0.1-1.9c-0.5-1.9-1.2-5,2.3-9.1c1.8-2.1,4-3,6.6-2.6
					C220.3,118.1,221.8,118.7,223.1,119.5z"/>
			</g>
			<g>
				<g>
					<g>
						<path class="st2" d="M303.4,180.9h-15.3L115.8,82.1c-8.7-5-22.1-5.6-29.6-1.2l-61.8,35.7H7.6v14.4h0c0.1,3.3,2.5,6.8,7.2,9.5
							l180.4,103.5c8.7,5,22.1,5.6,29.6,1.2l73.5-42.4c3.6-2.1,5.3-4.9,5.1-7.9h0V180.9z"/>
						<path class="st3" d="M296.2,171.7c8.7,5,9.7,12.7,2.1,17.1l-73.5,42.4c-7.6,4.4-20.9,3.8-29.6-1.2L14.8,126.5
							c-8.7-5-9.7-12.7-2.1-17.1l73.5-42.4c7.6-4.4,20.9-3.8,29.6,1.2L296.2,171.7z"/>
						<path class="st2" d="M222.5,229.8c-6.4,3.7-17.7,3.3-25.2-1L16.8,125.3c-7.4-4.3-8.2-10.8-1.8-14.5l73.5-42.4
							c6.5-3.7,17.7-3.3,25.2,1l180.4,103.5c7.4,4.3,8.3,10.8,1.8,14.5L222.5,229.8z"/>
						<polygon class="st4" points="273.3,165.4 184.3,216.7 38.2,133 127.1,81.7 						"/>
					</g>
				</g>
				<g>
					<g>
						<path class="st5" d="M220.9,146.3c9.4,5.4,9.4,14.2,0.1,19.6l-29.2,17c-9.3,5.4-24.4,5.4-33.8,0c-9.4-5.4-9.4-14.2-0.1-19.6
							l29.2-17C196.4,140.9,211.5,140.9,220.9,146.3z"/>
					</g>
					<g>
						<g>
							<path class="st6" d="M189.4,171.6c3.6,2.1,3.6,4.3,0,6.4l-5.7,3.3l-23.2-13.4l5.5-3.2c3.7-2.2,7.1-2.1,10.7-0.1l0.8,0.5
								c2.4,1.4,3.2,2.7,2.3,4.1c2.7-0.7,5.2-0.1,7.7,1.3L189.4,171.6z M184,177.3l2.1-1.2c1.2-0.7,1.3-1.4-0.4-2.4l-2-1.2
								c-2.1-1.2-3.5-1.2-5.1-0.3l-1.6,0.9L184,177.3 M173.6,171.3l1.4-0.8c1.4-0.8,1.6-1.6-0.3-2.7l-1.3-0.7c-1.7-1-3-1-4.2-0.3
								l-1.7,1L173.6,171.3"/>
						</g>
						<g>
							<polygon class="st6" points="198.6,145.8 209.5,157.4 217.2,161.9 213.5,164 205.9,159.5 185.8,153.3 189.6,151.1 
								202.9,155.5 195.1,147.8 							"/>
						</g>
						<g>
							<path class="st6" d="M202.1,164.2c3.7,2.1,4,4.4,0.4,6.5c-3.5,2.1-7.5,1.9-11.2-0.2l-17.6-10.2l3.6-2.1l17.9,10.3
								c1.6,0.9,2.9,0.9,4.1,0.2c1.2-0.7,1.3-1.4-0.4-2.4L181.1,156l3.4-2L202.1,164.2z"/>
						</g>
					</g>
				</g>
			</g>
			<path class="st1" d="M250.1,251.3c0.1-0.6,0.1-1.2,0.2-1.9c0.2-2.1,0.4-4.2,1-6.3c1-4,8.2-16.9,11.7-20.1l-8.5,4.9
				c-0.4,0.2-3,1.7-3.4,1.9c-10,5.8-22,12.9-31.9,15.5c-3.9,0.8-7.5,0.6-11.9,0.4c-6.3-0.3-7.7-2.1-12.9-4.4
				c-12.3-5.5-24.9-12.2-35.8-18.5c-5.7-3.3-11.2-6.6-16.7-9.9l-4.6-2.7c-5.3-3.1-10.6-6.3-15.9-9.4c-10-5.8-20.2-11.9-30.1-18
				c-0.7-0.5-1.4-0.9-2.2-1.3c-2.6-1.6-5.2-3.2-7.5-5c-2.4-1.9-5.3-1.9-7.3-3.8l-1-1c-2.7-2.6-5.6-5.4-9.5-7.6
				c-1.5-0.9-3.2-1.7-5-2.3c-3.3-1.1-7-1.7-11-1.6c-1.6,0-4.2,0-6.1,0.8c-0.5,0.3-0.6,0.5-0.5,1c0,0.2,0.2,0.8,0.4,1.2
				c0.1,0.3,0.6,0.9,1,1.3c1.6,2,3.8,3.9,5.8,5.8c0.6,0.5,1.1,1,2.1,1.9c2.4,2.2,4.9,4.5,6.2,7.1c0.7,1.5,0.9,3,1,4.5
				c0.2,2,0.4,3.9,1.9,5.7c1.7,2,4.5,3.7,7.2,5.3l0.8,0.5c1.6,1,3.2,1.9,4.8,2.8c2.3,1.3,4.5,2.6,6.7,3.8c3.6,2,6.9,3.9,10.2,5.8
				c4.4,2.5,8.5,5,12.5,7.7c6.5,4.3,12.7,8.8,18.8,13.2l1.5,1.1c7,5,13.6,9.6,20.3,13.9c3,1.9,6.1,4,8.4,6.4
				c2.2,2.3,3.6,4.9,3.9,7.7c1.1,8.1-1.9,15.6,0.8,23.7c5,15,2.9,28.3,1.1,43.7c-1,8.7-3,24.2,0.8,32.2c0.4,0.8,0.7,1.2,1.2,1.5
				c0.7,0.4,1.6,0.5,3.6,0.8c2.5,0.3,18-2.7,21.8-3.6c7-1.8,14.1-4.1,20.5-6.7c2.5-1,5.5-2.2,8.7-3.4c10-3.9,22.5-8.7,31.1-13.6
				c2.7-1.6,4.9-3.1,6.5-4.6c2.5-2.3,2.4-4.5,2.2-7.1c-0.7-8.8,3.9-17.1,2.6-25.9c-1.8-12.3-7.1-21.9-6.4-34.7
				C249.5,257.2,249.8,254.3,250.1,251.3z"/>
			<linearGradient id="SVGID_3_" gradientUnits="userSpaceOnUse" x1="255.2265" y1="212.7101" x2="319.464" y2="212.7101">
				<stop  offset="0" style="stop-color:#F1DCAE"/>
				<stop  offset="1" style="stop-color:#E0AA2E"/>
			</linearGradient>
			<polygon class="st7" points="299.8,225.3 338.3,234.9 347,200.2 308.5,190.6 			"/>
			
				<rect x="305.5" y="192.9" transform="matrix(0.2421 -0.9703 0.9703 0.2421 38.7431 475.0169)" class="st8" width="35.8" height="39.7"/>
			<path class="st9" d="M325.5,193.9c0,0-12.1,8.3-15,13.4c-2.9,5.2-17.4-4.3-17.4-4.3l-1.6-15.6l6.3-10.6l17.1,2.1L325.5,193.9z"/>
			<path class="st10" d="M311.5,204.9c-0.9-1.1-2.4-2.1-3.6-2.6c-2.8-1.3-6-1.5-8.9-2.3c-0.1-2.7,1-5.4-1.2-7.6c1-1.5,3.2-2.3,4.8-3
				c1.6-0.7,2.9-1.6,4.2-2.9c2.4-2.5,4.8-4.6,6.1-7.7l-15.1-1.9l-6.3,10.6l1.6,15.6c0,0,14.4,9.5,17.4,4.3c0.3-0.6,0.8-1.3,1.4-2
				C311.8,205.2,311.6,205,311.5,204.9z"/>
			<path class="st9" d="M268.2,175.8c0,0-0.5,24.2,4.8,29.7c5.2,5.5,35.2,19.2,39.4,18.3c4.3-0.8,10.5-14.8-0.9-18.6
				c-11.4-3.8-15-3.7-15-3.7s3.7-4.8-1-9.5c0,0,10.7-7.1,8.1-10.3C301,178.6,268.2,175.8,268.2,175.8z"/>
			<path class="st10" d="M312.4,223.9c4.3-0.8,4.1,0,1.1-3.1c-1.7-0.9-3.5-1.1-5.4-1.7c-1.7-0.5-3.2-1.5-5-2.1
				c-2.1-0.7-3.5-1.1-4.7-3.1c-0.9-1.6-2-3.1-3.2-4.4c-3.1-3.3-7.8-5.6-12-7.2c-3.5-1.3-7.4-2.1-11.1-2.3c-0.6,0-1.1,0-1.7-0.1
				c0.7,2.5,1.5,4.5,2.6,5.7C278.2,211.1,308.1,224.7,312.4,223.9z"/>
			<path class="st1" d="M436.4,313.9c0,0-27.6-14.2-37.4-15.3c-9.8-1-21.5,1.4-38.5-5c-17-6.4-38.9-17.6-52-31.2
				c-13.1-13.6-21.1-21.7-31.2-24.2c-10.1-2.5-11.2-9.8-15.1-16.4c-4-6.6-3.2-12.1,0.9-15.6c4.1-3.5,16.9-5.4,25.5,1
				c8.6,6.4,10.2,9.5,10.2,9.5s14.5,5.5,22.5,7.8c8,2.3,8.8-11.5,6.1-17c-2.7-5.5-17.4-12.9-24.8-21.2c-7.3-8.3-17.9-0.2-37.1-9.3
				c0,0-25.3-3.1-32.7-4.4c0,0-39.3,6.9-32-13.9c0,0,22.3-6.5,49.9-7.4c27.6-0.9,22.6-1.1,32.7,1.4c10.1,2.5,20.7,4.3,31.1,6.4
				c10.5,2.1,30.8-7.3,40.4,1.7c9.5,9.1,54.9,53.2,68.1,61.6c13.2,8.4,111.5,91.4,111.5,91.4H436.4z"/>
		</g>
		<g class="st0">
			<g>
				<g>
					<g class="st11">
						<g>
							<polygon class="st12" points="190.7,120.7 190.6,130.3 121.3,170.5 121.4,161 							"/>
						</g>
						<g>
							<polygon class="st13" points="121.4,161 121.3,170.5 51.6,130.3 51.7,120.7 							"/>
						</g>
						<g>
							<polygon class="st14" points="190.7,120.7 121.4,161 51.7,120.7 121,80.5 							"/>
						</g>
					</g>
				</g>
				<g>
					<g class="st11">
						<g>
							<polygon class="st15" points="181.1,69.6 181,120.4 121.9,154.7 122,104 							"/>
						</g>
						<g>
							<polygon class="st16" points="122,104 121.9,154.7 62.4,120.4 62.5,69.6 							"/>
						</g>
						<g>
							<polygon class="st16" points="181.1,69.6 122,104 62.5,69.6 121.6,35.3 							"/>
						</g>
					</g>
				</g>
				<g>
					<g class="st11">
						<g>
							<g>
								<polygon class="st17" points="61.5,70.3 61.5,71.8 120.4,105.7 120.4,104.2 								"/>
							</g>
						</g>
						<g>
							<polygon class="st18" points="120.4,104.2 120.4,105.7 121.9,104.8 121.9,103.3 							"/>
						</g>
						<g>
							<polygon class="st6" points="61.5,70.3 120.4,104.2 121.9,103.3 63.1,69.4 							"/>
						</g>
					</g>
				</g>
				<g>
					<g>
						<polygon class="st19" points="57,70.4 124.4,31.3 155.8,15.6 88.4,54.7 						"/>
					</g>
					<g>
						<g>
							<polygon class="st12" points="119.6,106.5 187,67.4 186.9,73.7 119.6,112.8 							"/>
						</g>
						<g>
							<polygon class="st19" points="88.4,54.7 155.8,15.6 187,67.4 119.6,106.5 							"/>
						</g>
						<g>
							<polygon class="st13" points="88.4,54.7 119.6,106.5 119.6,112.8 88.4,61 57,76.7 57,70.4 							"/>
						</g>
					</g>
				</g>
				<g>
					<path class="st14" d="M157.8,17.7c0,0,0-0.1,0-0.1c0,0,0,0,0,0c0,0,0,0,0,0c0,0,0,0,0,0c0,0,0-0.1,0-0.1c0,0,0-0.1,0-0.1
						c0,0,0,0,0,0c0,0,0,0,0,0c0,0,0-0.1,0-0.1c0,0,0-0.1,0-0.1c0,0,0,0,0,0c0,0,0,0,0,0c0,0,0,0,0-0.1c0,0,0-0.1,0-0.1
						c0,0,0-0.1,0-0.1c0,0,0,0,0,0c0,0,0,0,0,0c0,0,0-0.1,0-0.1c0,0,0-0.1,0-0.1c0,0,0,0,0,0c0,0,0,0,0,0c0,0,0,0,0-0.1
						c0,0,0-0.1,0-0.1c0,0,0-0.1,0-0.1c0,0,0,0,0,0c0,0,0,0,0,0c0,0,0-0.1,0-0.1c0,0,0-0.1-0.1-0.1c0,0,0,0,0,0c0,0,0,0,0,0
						c0,0,0-0.1,0-0.1c0,0,0-0.1-0.1-0.1c0,0,0,0,0-0.1c0,0,0,0,0,0c0,0,0-0.1-0.1-0.1c0,0-0.1-0.1-0.1-0.1c0,0,0,0,0,0
						c0-0.1-0.1-0.1-0.1-0.2l0,0v0c0,0-0.1-0.1-0.1-0.1c0,0-0.1-0.1-0.1-0.1l0,0l0,0c0,0-0.1-0.1-0.1-0.1c0,0-0.1-0.1-0.1-0.1
						c0,0,0,0,0,0c0,0,0,0,0,0c0,0,0,0-0.1-0.1c0,0-0.1-0.1-0.1-0.1c0,0,0,0,0,0c0,0,0,0,0,0c0,0,0,0,0,0c0,0-0.1-0.1-0.1-0.1
						c0,0,0,0,0,0c0,0,0,0,0,0c0,0,0,0,0,0c0,0-0.1-0.1-0.1-0.1c0,0,0,0-0.1-0.1c0,0,0,0,0,0c0,0,0,0,0,0c0,0-0.1,0-0.1-0.1
						c0,0-0.1,0-0.1-0.1c0,0,0,0,0,0c0,0,0,0-0.1,0c0,0-0.1,0-0.1,0c0,0,0,0-0.1,0c0,0,0,0,0,0c0,0,0,0,0,0c0,0-0.1,0-0.1,0
						c0,0-0.1,0-0.1,0c0,0,0,0,0,0c0,0,0,0,0,0c0,0,0,0-0.1,0c0,0-0.1,0-0.1,0c0,0,0,0,0,0c0,0,0,0,0,0c0,0,0,0,0,0c0,0-0.1,0-0.1,0
						c0,0,0,0-0.1,0c0,0,0,0,0,0c0,0,0,0,0,0c0,0-0.1,0-0.1,0c0,0,0,0,0,0c0,0,0,0,0,0c0,0,0,0,0,0c0,0-0.1,0-0.1,0c0,0,0,0,0,0
						c0,0,0,0,0,0c0,0-0.1,0-0.1,0c0,0,0,0,0,0c-0.1,0-0.1,0-0.2,0.1L86.9,53.2c0.1,0,0.1-0.1,0.2-0.1c0,0,0.1,0,0.1,0c0,0,0,0,0,0
						c0.1,0,0.1,0,0.2,0c0,0,0,0,0,0c0.1,0,0.1,0,0.2,0c0,0,0,0,0,0c0.1,0,0.1,0,0.2,0c0,0,0,0,0,0c0.1,0,0.1,0,0.2,0.1c0,0,0,0,0,0
						c0.1,0,0.1,0.1,0.2,0.1c0,0,0,0,0,0c0.1,0,0.1,0.1,0.2,0.1c0.1,0,0.2,0.1,0.2,0.1c0,0,0,0,0,0c0.1,0,0.1,0.1,0.2,0.2
						c0,0,0,0,0,0c0.1,0.1,0.1,0.1,0.2,0.2c0,0,0,0,0,0c0.1,0.1,0.1,0.1,0.2,0.2c0,0,0,0,0,0c0.1,0.1,0.1,0.1,0.2,0.2c0,0,0,0,0,0
						c0.1,0.1,0.1,0.2,0.2,0.2l0,0c0.1,0.1,0.1,0.1,0.2,0.2c0,0,0.1,0.1,0.1,0.1c0,0,0.1,0.1,0.1,0.1c0,0,0,0,0,0.1
						c0,0.1,0.1,0.1,0.1,0.2c0,0,0,0,0,0c0,0.1,0.1,0.2,0.1,0.3c0,0,0,0,0,0c0,0.1,0.1,0.2,0.1,0.3c0,0,0,0,0,0
						c0,0.1,0.1,0.2,0.1,0.3c0,0,0,0,0,0c0,0.1,0,0.2,0.1,0.3c0,0,0,0,0,0c0,0.1,0,0.2,0.1,0.3c0,0,0,0,0,0c0,0.1,0,0.2,0,0.3
						c0,0,0,0,0,0c0,0.1,0,0.2,0,0.3l0,1.3l67.1-39.3l0-1.3C157.8,17.8,157.8,17.8,157.8,17.7z"/>
					<g>
						<path class="st13" d="M88.5,53.3c1.2,0.7,2.2,2.5,2.2,3.9l0,1.3l-4.5-2.6l0-1.3C86.3,53.2,87.3,52.6,88.5,53.3z"/>
					</g>
				</g>
				<g>
					<polygon class="st20" points="121.9,133.9 181,99.6 181,100.3 121.9,134.6 					"/>
					<polygon class="st20" points="121.9,140.6 181,106.4 181,107.1 121.9,141.4 					"/>
					<polygon class="st20" points="121.9,147.4 181,113.1 181,113.9 121.9,148.1 					"/>
					<polygon class="st20" points="121.9,127.1 181,92.8 181,93.6 121.9,127.9 					"/>
					<polygon class="st20" points="121.9,120.3 181,86.1 181,86.8 121.9,121.1 					"/>
					<polygon class="st20" points="122,113.6 181.1,79.3 181.1,80 122,114.3 					"/>
				</g>
				<g>
					<polygon class="st20" points="62.4,99.4 121.9,133.9 121.9,134.6 62.4,100.1 					"/>
					<polygon class="st20" points="62.4,106.1 121.9,140.6 121.9,141.4 62.4,106.9 					"/>
					<polygon class="st20" points="62.4,112.9 121.9,147.4 121.9,148.1 62.4,113.6 					"/>
					<polygon class="st20" points="62.4,92.7 121.9,127.2 121.9,127.9 62.4,93.4 					"/>
					<polygon class="st20" points="62.5,85.9 121.9,120.4 121.9,121.1 62.5,86.6 					"/>
					<polygon class="st20" points="62.5,79.2 122,113.7 122,114.4 62.5,79.9 					"/>
				</g>
				<g>
					<g>
						<polygon class="st4" points="151.2,100.1 151.2,110.1 129.8,122.6 129.8,112.6 						"/>
					</g>
					<g>
						<polygon class="st4" points="151.2,111.4 151.3,121.4 129.9,133.9 129.8,123.9 						"/>
					</g>
					
						<linearGradient id="SVGID_4_" gradientUnits="userSpaceOnUse" x1="1161.1188" y1="118.4955" x2="1141.8049" y2="107.7025" gradientTransform="matrix(1 0 0 1 -1007.8357 0)">
						<stop  offset="0" style="stop-color:#FFFFFF"/>
						<stop  offset="1" style="stop-color:#FFFFFF;stop-opacity:0"/>
					</linearGradient>
					<polygon class="st21" points="150.3,101.7 130.8,121 130.7,113.2 					"/>
					
						<linearGradient id="SVGID_5_" gradientUnits="userSpaceOnUse" x1="1161.0999" y1="129.8372" x2="1141.9772" y2="119.0452" gradientTransform="matrix(1 0 0 1 -1007.8357 0)">
						<stop  offset="0" style="stop-color:#FFFFFF"/>
						<stop  offset="1" style="stop-color:#FFFFFF;stop-opacity:0"/>
					</linearGradient>
					<polygon class="st22" points="150.3,113 130.8,132.3 130.8,124.5 					"/>
					<g>
						<polygon class="st14" points="130.8,134.5 128.9,133.4 150.3,120.9 152.2,121.9 						"/>
					</g>
					<g>
						<polygon class="st13" points="152.2,121.9 150.3,120.9 150.3,110.9 152.2,111.9 						"/>
					</g>
					<g>
						<polygon class="st14" points="130.7,123.2 128.9,122.1 150.3,109.5 152.2,110.6 						"/>
					</g>
					<g>
						<polygon class="st13" points="152.2,110.6 150.3,109.5 150.3,99.6 152.1,100.6 						"/>
					</g>
					<g>
						<polygon class="st14" points="129.5,112.5 127.7,111.4 151.4,97.6 153.3,98.6 						"/>
					</g>
					<g>
						<polygon class="st13" points="129.6,136.5 127.8,135.4 127.7,111.4 129.5,112.5 						"/>
					</g>
					<path class="st12" d="M153.3,98.6l-23.7,13.9l0.1,24l23.7-13.9L153.3,98.6z M130.7,113.2l21.4-12.5l0,10l-21.4,12.5
						L130.7,113.2z M130.8,134.5l0-10l21.4-12.5l0,10L130.8,134.5z"/>
				</g>
				<g>
					<g>
						<polygon class="st4" points="72,88.1 71.9,98.1 108,119 108.1,109 						"/>
					</g>
					<g>
						<polygon class="st4" points="71.9,99.4 71.9,109.4 108,130.3 108,120.3 						"/>
					</g>
					
						<linearGradient id="SVGID_6_" gradientUnits="userSpaceOnUse" x1="579.0301" y1="116.8273" x2="545.0036" y2="97.8125" gradientTransform="matrix(-1 0 0 1 645.2505 0)">
						<stop  offset="0" style="stop-color:#FFFFFF"/>
						<stop  offset="1" style="stop-color:#FFFFFF;stop-opacity:0"/>
					</linearGradient>
					<polygon class="st23" points="72.9,89.7 107.1,117.4 107.1,109.5 					"/>
					
						<linearGradient id="SVGID_7_" gradientUnits="userSpaceOnUse" x1="578.9802" y1="128.2124" x2="545.288" y2="109.198" gradientTransform="matrix(-1 0 0 1 645.2505 0)">
						<stop  offset="0" style="stop-color:#FFFFFF"/>
						<stop  offset="1" style="stop-color:#FFFFFF;stop-opacity:0"/>
					</linearGradient>
					<polygon class="st24" points="72.9,101 107.1,128.7 107.1,120.8 					"/>
					<g>
						<polygon class="st14" points="107.1,130.8 108.9,129.7 72.8,108.8 71,109.9 						"/>
					</g>
					<g>
						<polygon class="st12" points="71,109.9 72.8,108.8 72.9,98.9 71,99.9 						"/>
					</g>
					<g>
						<polygon class="st14" points="107.1,119.5 109,118.4 72.9,97.5 71,98.6 						"/>
					</g>
					<g>
						<polygon class="st12" points="71,98.6 72.9,97.5 72.9,87.6 71,88.6 						"/>
					</g>
					<g>
						<polygon class="st14" points="108.3,108.9 110.2,107.8 71.8,85.5 69.9,86.6 						"/>
					</g>
					<g>
						<polygon class="st12" points="108.2,132.8 110.1,131.8 110.2,107.8 108.3,108.9 						"/>
					</g>
					<path class="st13" d="M69.8,110.6l38.4,22.2l0.1-24L69.9,86.6L69.8,110.6z M107.1,119.5L71,98.6l0-10l36.1,20.9L107.1,119.5z
						 M71,109.9l0-10l36.1,20.9l0,10L71,109.9z"/>
				</g>
				<g>
					<path class="st15" d="M81.3,72.4c0,0.1,0,0.1,0,0.2c0,0,0,0.1,0,0.1c0,0,0,0,0,0c0,0,0,0.1,0,0.1c0,0.1,0,0.2,0,0.2
						c0,0.1,0,0.2,0,0.2c0,0,0,0,0,0c0,0,0,0,0,0c0,0.1,0,0.1,0,0.2c0,0.1,0,0.2,0,0.2c0,0,0,0.1,0,0.1c0,0,0,0,0,0.1
						c0,0,0,0.1,0,0.1c0,0.1,0,0.2,0.1,0.2c0,0.1,0,0.1,0.1,0.2c0,0,0,0,0,0c0,0,0,0,0,0c0,0.1,0.1,0.2,0.1,0.2
						c0,0.1,0.1,0.2,0.1,0.2c0,0,0,0,0,0c0,0,0,0,0,0c0,0,0,0.1,0.1,0.1c0,0.1,0.1,0.2,0.1,0.2c0,0.1,0,0.1,0.1,0.2c0,0,0,0,0,0
						c0,0,0,0,0,0c0,0.1,0.1,0.1,0.1,0.2c0,0.1,0.1,0.2,0.1,0.2c0,0,0,0,0,0c0,0,0,0,0,0c0,0.1,0.1,0.1,0.1,0.2
						c0,0.1,0.1,0.2,0.1,0.2c0,0,0,0.1,0.1,0.1c0,0,0,0,0,0c0,0.1,0.1,0.1,0.1,0.2c0.1,0.1,0.1,0.2,0.2,0.3c0,0,0,0,0,0
						c0.1,0.1,0.2,0.3,0.3,0.4c0,0,0,0,0,0c0,0,0,0,0,0c0.1,0.1,0.1,0.2,0.2,0.3c0.1,0.1,0.1,0.1,0.2,0.2c0,0,0,0,0,0c0,0,0,0,0,0
						c0.1,0.1,0.1,0.1,0.2,0.2c0.1,0.1,0.1,0.1,0.2,0.2c0,0,0,0,0,0c0,0,0,0,0,0c0,0,0.1,0.1,0.1,0.1c0.1,0.1,0.1,0.1,0.2,0.2
						c0,0,0,0,0.1,0.1c0,0,0,0,0,0c0,0,0.1,0.1,0.1,0.1c0.1,0.1,0.1,0.1,0.2,0.2c0,0,0.1,0,0.1,0.1c0,0,0,0,0,0c0,0,0,0,0.1,0.1
						c0.1,0.1,0.1,0.1,0.2,0.2c0,0,0.1,0.1,0.1,0.1c0,0,0,0,0,0c0,0,0,0,0,0c0.1,0,0.1,0.1,0.2,0.1c0.1,0,0.1,0.1,0.2,0.1
						c0,0,0,0,0,0c0,0,0.1,0.1,0.1,0.1c0,0,0,0,0.1,0c0,0,0.1,0,0.1,0c0,0,0,0,0.1,0c0,0,0.1,0,0.1,0c0,0,0,0,0.1,0c0,0,0,0,0,0
						c0.1,0,0.1,0.1,0.2,0.1h0l0,0c0.1,0,0.1,0,0.2,0.1c0,0,0,0,0,0c0,0,0,0,0.1,0c0,0,0.1,0,0.1,0c0,0,0,0,0,0c0,0,0.1,0,0.1,0
						c0,0,0,0,0.1,0c0,0,0,0,0.1,0c0,0,0.1,0,0.1,0c0,0,0,0,0,0c0,0,0.1,0,0.1,0c0,0,0.1,0,0.1,0c0,0,0,0,0,0c0,0,0.1,0,0.1,0
						c0,0,0.1,0,0.1,0c0,0,0,0,0,0c0,0,0,0,0.1,0c0,0,0.1,0,0.1,0c0,0,0,0,0,0c0,0,0,0,0,0c0,0,0.1,0,0.1,0c0,0,0,0,0,0c0,0,0,0,0,0
						c0.1,0,0.1,0,0.2,0c0,0,0,0,0,0c0,0,0,0,0,0c0.1,0,0.2,0,0.3-0.1c0,0,0,0,0,0c0,0,0,0,0,0c0,0,0.1,0,0.1-0.1c0,0,0,0,0.1,0
						c0.1,0,0.1-0.1,0.2-0.1l1.7-1c-0.1,0-0.1,0.1-0.2,0.1c0,0,0,0-0.1,0c0,0-0.1,0-0.1,0.1c0,0,0,0,0,0c-0.1,0-0.2,0.1-0.3,0.1
						c0,0,0,0,0,0c-0.1,0-0.1,0-0.2,0c0,0-0.1,0-0.1,0c0,0-0.1,0-0.1,0c0,0-0.1,0-0.1,0c0,0-0.1,0-0.1,0c0,0-0.1,0-0.1,0
						c0,0-0.1,0-0.1,0c0,0-0.1,0-0.1,0c0,0-0.1,0-0.1,0c0,0-0.1,0-0.1,0c0,0-0.1,0-0.1,0c0,0-0.1,0-0.1,0c0,0-0.1,0-0.1,0
						c0,0-0.1,0-0.1,0c0,0,0,0-0.1,0c-0.1,0-0.1,0-0.2-0.1l0,0c-0.1,0-0.1-0.1-0.2-0.1c0,0,0,0-0.1,0c-0.1,0-0.1,0-0.2-0.1
						c0,0-0.1,0-0.1,0c-0.1,0-0.1-0.1-0.2-0.1c-0.2-0.1-0.3-0.2-0.5-0.3c0,0,0,0,0,0c-0.1-0.1-0.3-0.2-0.4-0.3c0,0,0,0,0,0
						c-0.1-0.1-0.3-0.2-0.4-0.3c0,0,0,0,0,0c-0.1-0.1-0.3-0.3-0.4-0.4c0,0,0,0,0,0c-0.1-0.1-0.3-0.3-0.4-0.4c0,0,0,0,0,0
						c-0.1-0.2-0.3-0.3-0.4-0.5l0,0c-0.1-0.2-0.2-0.3-0.3-0.5c-0.1-0.1-0.1-0.2-0.2-0.3c-0.1-0.1-0.1-0.2-0.2-0.3c0,0,0-0.1-0.1-0.1
						c-0.1-0.1-0.2-0.3-0.2-0.4c0,0,0,0,0,0c-0.1-0.2-0.2-0.4-0.3-0.5c0,0,0,0,0,0c-0.1-0.2-0.1-0.4-0.2-0.5c0,0,0,0,0,0
						c-0.1-0.2-0.1-0.4-0.2-0.6c0,0,0,0,0,0c-0.1-0.2-0.1-0.4-0.1-0.5c0,0,0,0,0-0.1c0-0.2-0.1-0.4-0.1-0.5c0,0,0,0,0,0
						c0-0.2-0.1-0.4-0.1-0.5c0,0,0,0,0,0c0-0.2,0-0.4,0-0.5c0-0.2,0-0.3,0-0.5c0,0,0,0,0,0c0-0.1,0-0.3,0.1-0.4c0,0,0,0,0-0.1
						c0-0.1,0.1-0.3,0.1-0.4c0,0,0,0,0-0.1c0-0.1,0.1-0.2,0.1-0.3c0,0,0,0,0,0c0.1-0.1,0.1-0.2,0.2-0.3c0,0,0,0,0,0
						c0.1-0.1,0.1-0.2,0.2-0.2c0,0,0-0.1,0.1-0.1c0.1-0.1,0.1-0.1,0.2-0.2c0,0,0,0,0.1-0.1c0.1-0.1,0.2-0.1,0.3-0.2l0,0l0,0l-1.7,1
						c-0.1,0.1-0.2,0.1-0.3,0.2c0,0-0.1,0-0.1,0.1c-0.1,0.1-0.1,0.1-0.2,0.2c0,0,0,0.1-0.1,0.1C82,69.8,82,69.9,81.9,70c0,0,0,0,0,0
						c0,0,0,0,0,0c-0.1,0.1-0.1,0.2-0.2,0.3c0,0,0,0,0,0c0,0,0,0,0,0c0,0.1-0.1,0.1-0.1,0.2c0,0,0,0.1,0,0.1c0,0,0,0,0,0.1
						c0,0,0,0,0,0.1c0,0.1,0,0.2-0.1,0.2c0,0,0,0.1,0,0.1c0,0,0,0,0,0.1c0,0,0,0.1,0,0.1c0,0.1,0,0.1,0,0.2c0,0,0,0.1,0,0.1
						c0,0,0,0,0,0c0,0,0,0,0,0.1c0,0.1,0,0.1,0,0.2c0,0.1,0,0.1,0,0.2c0,0,0,0,0,0C81.3,72.3,81.3,72.4,81.3,72.4z"/>
					<g>
						<path class="st4" d="M87.6,79.3c-2.6-1.5-4.6-5.1-4.6-8c0-2.9,2.1-4.1,4.6-2.6c2.6,1.5,4.6,5.1,4.6,8
							C92.3,79.6,90.2,80.7,87.6,79.3z"/>
					</g>
					
						<linearGradient id="SVGID_8_" gradientUnits="userSpaceOnUse" x1="-1937.6549" y1="76.811" x2="-1929.9814" y2="71.6263" gradientTransform="matrix(1 0 0 1 2021.0411 0)">
						<stop  offset="0" style="stop-color:#FFFFFF"/>
						<stop  offset="1" style="stop-color:#FFFFFF;stop-opacity:0"/>
					</linearGradient>
					<path class="st25" d="M87.7,68.6c-1.5-0.9-2.8-0.8-3.7,0l7.2,10.7c0.6-0.5,1-1.5,1.1-2.7C92.3,73.7,90.2,70.1,87.7,68.6z"/>
				</g>
				<g>
					<polygon class="st4" points="177.1,89.4 160.9,99.5 160.3,130.6 163.2,129.7 178,120.5 178,89.4 					"/>
					
						<linearGradient id="SVGID_9_" gradientUnits="userSpaceOnUse" x1="926.9049" y1="118.8881" x2="946.2958" y2="101.4673" gradientTransform="matrix(-1 0 0 1 1106.0142 0)">
						<stop  offset="0" style="stop-color:#FFFFFF"/>
						<stop  offset="1" style="stop-color:#FFFFFF;stop-opacity:0"/>
					</linearGradient>
					<polygon class="st26" points="177.1,89.4 160.9,99.5 160.3,130.6 178,89.4 					"/>
					<polygon class="st14" points="167.3,126.2 167.3,126.2 177.2,120.5 179,121.6 169.6,127 169.6,127 161.2,131.8 159.5,130.8 
											"/>
					<polygon class="st13" points="179,121.6 178.9,101.2 178.9,101.2 178.9,90.4 177.1,89.4 177.1,100.8 177.2,100.8 177.2,120.5 
											"/>
					<g>
						<polygon class="st6" points="160.1,100 158.3,99 178.2,87.5 180,88.5 						"/>
					</g>
					<g>
						<polygon class="st13" points="160.1,132.4 158.4,131.4 158.3,99 160.1,100 						"/>
					</g>
					<g>
						<path class="st14" d="M160.4,98.9c0,0,0-0.1,0-0.1c0,0,0,0,0,0c0-0.1,0-0.1,0.1-0.2c0-0.1,0-0.1,0.1-0.2c0,0,0,0,0,0
							c0-0.1,0.1-0.1,0.1-0.2c0,0,0,0,0-0.1c0-0.1,0.1-0.1,0.1-0.2c0,0,0-0.1,0-0.1c0,0,0.1-0.1,0.1-0.1c0,0,0.1-0.1,0.1-0.2
							c0,0,0.1-0.1,0.1-0.1c0-0.1,0.1-0.2,0.2-0.2c0,0,0.1-0.1,0.1-0.1c0,0,0-0.1,0.1-0.1c0-0.1,0.1-0.1,0.1-0.2c0,0,0-0.1,0.1-0.1
							c0,0,0.1-0.1,0.1-0.1c0.1-0.1,0.1-0.1,0.2-0.2c0,0,0.1-0.1,0.1-0.1c0.1-0.1,0.1-0.1,0.2-0.2c0,0,0.1-0.1,0.1-0.1
							c0,0,0.1-0.1,0.1-0.1c0.1-0.1,0.1-0.1,0.2-0.2c0-0.1,0.1-0.1,0.1-0.2c0.1-0.1,0.1-0.1,0.2-0.2c0-0.1,0.1-0.1,0.1-0.2
							c0.1-0.1,0.1-0.1,0.2-0.2c0.1-0.1,0.1-0.1,0.2-0.2c0.1-0.1,0.1-0.1,0.2-0.2c0.1-0.1,0.1-0.1,0.2-0.2c0.1-0.1,0.1-0.1,0.2-0.2
							c0.1-0.1,0.1-0.1,0.2-0.2c0.1-0.1,0.1-0.1,0.2-0.2c0.1-0.1,0.1-0.1,0.2-0.2c0.1-0.1,0.1-0.1,0.2-0.2c0.1-0.1,0.1-0.1,0.2-0.2
							c0.1-0.1,0.1-0.1,0.2-0.2c0.1-0.1,0.1-0.1,0.2-0.2c0.1-0.1,0.1-0.1,0.2-0.2c0.1-0.1,0.1-0.1,0.2-0.2c0.1-0.1,0.1-0.1,0.2-0.2
							c0.1-0.1,0.1-0.1,0.2-0.2c0.1-0.1,0.2-0.1,0.2-0.2c0.1-0.1,0.1-0.1,0.2-0.2c0.1-0.1,0.2-0.1,0.2-0.2c0.1-0.1,0.1-0.1,0.2-0.2
							c0.1-0.1,0.2-0.1,0.2-0.2c0.1-0.1,0.1-0.1,0.2-0.2c0.1-0.1,0.2-0.1,0.3-0.2c0.1-0.1,0.1-0.1,0.2-0.2c0.1-0.1,0.2-0.1,0.3-0.2
							c0.1,0,0.1-0.1,0.2-0.1c0.1-0.1,0.2-0.1,0.3-0.2c0.1,0,0.1-0.1,0.2-0.1c0.1-0.1,0.2-0.1,0.3-0.2c0.1,0,0.1-0.1,0.2-0.1
							c0.1-0.1,0.2-0.1,0.3-0.2c0.1,0,0.1-0.1,0.2-0.1c0.2-0.1,0.3-0.2,0.5-0.3c0.1-0.1,0.3-0.2,0.4-0.2c0,0,0.1-0.1,0.1-0.1
							c0.1-0.1,0.2-0.1,0.3-0.2c0.1,0,0.1-0.1,0.2-0.1c0.1,0,0.2-0.1,0.3-0.1c0.1,0,0.1-0.1,0.2-0.1c0.1,0,0.2-0.1,0.2-0.1
							c0.1,0,0.1-0.1,0.2-0.1c0.1,0,0.2-0.1,0.2-0.1c0.1,0,0.1-0.1,0.2-0.1c0.1,0,0.1-0.1,0.2-0.1c0.1,0,0.1-0.1,0.2-0.1
							c0.1,0,0.1-0.1,0.2-0.1c0.1,0,0.1-0.1,0.2-0.1c0.1,0,0.1-0.1,0.2-0.1c0,0,0.1,0,0.1-0.1c0.2-0.1,0.4-0.1,0.5-0.2
							c0,0,0.1,0,0.1,0c0.2-0.1,0.3-0.1,0.5-0.2c0,0,0,0,0,0c0.2-0.1,0.3-0.1,0.5-0.2c0,0,0.1,0,0.1,0c0.2,0,0.3-0.1,0.5-0.1
							c0,0,0.1,0,0.1,0c0.1,0,0.1,0,0.2-0.1c0,0,0.1,0,0.1,0c0.1,0,0.1,0,0.2,0c0,0,0.1,0,0.1,0c0.1,0,0.1,0,0.2,0c0,0,0.1,0,0.1,0
							c0.1,0,0.1,0,0.2,0c0,0,0.1,0,0.1,0c0.1,0,0.3,0,0.4,0c0,0,0.1,0,0.1,0c0.1,0,0.2,0,0.4,0c0,0,0,0,0.1,0c0.1,0,0.1,0,0.2,0
							c0,0,0.1,0,0.1,0c0.1,0,0.1,0,0.2,0c0,0,0.1,0,0.1,0c0,0,0.1,0,0.1,0c0,0,0.1,0,0.1,0c0,0,0.1,0,0.1,0c0,0,0.1,0,0.1,0
							c0.1,0,0.2,0,0.2,0.1c0,0,0,0,0,0c0.1,0,0.1,0,0.1,0c0,0,0,0,0.1,0c0,0,0.1,0,0.1,0.1c0,0,0,0,0,0c-0.9-0.5,0.4,0.2-0.5-0.3
							c-0.5-0.3-1-0.7-1.6-0.9c-0.9-0.4-2-0.3-2.9-0.1c-2.6,0.6-5,1.7-7.3,3.1c-2.9,1.8-5.7,4-7.9,6.6c-0.6,0.7-1.1,1.4-1.3,2.3
							c-0.2,0.6-0.1,1.2-0.1,1.8l2.1,1.2l0-1.4C160.3,99,160.4,99,160.4,98.9C160.4,98.9,160.4,98.9,160.4,98.9z"/>
						<path class="st12" d="M180.4,87.5c0-1.9-4.5-1.4-10,1.8c-5.5,3.2-10,7.9-10,9.8l0,1.4l20-11.6L180.4,87.5z"/>
					</g>
					<polygon class="st12" points="180,88.5 180.1,120.9 179,121.6 179,120.3 178.9,101.2 178.9,100 178.9,90.4 170.6,95.2 
						169.5,95.9 161.2,100.6 161.2,119.7 161.2,121 161.2,130.5 161.2,131.8 160.1,132.4 160.1,100 					"/>
				</g>
				<g>
					<g>
						<path class="st27" d="M127.7,90C127.7,90,127.7,90,127.7,90C127.7,90,127.6,90.1,127.7,90c-0.2,0.1-0.3,0.1-0.4,0.1
							c0,0-0.1,0-0.2,0c0,0-0.1,0-0.1,0c0,0-0.1,0-0.1,0c-0.1,0-0.2,0-0.3,0.1c0,0-0.1,0-0.1,0c0,0,0,0-0.1,0c0,0-0.1,0-0.1,0
							c-0.1,0-0.2,0-0.3,0c0,0-0.1,0-0.1,0c0,0-0.1,0-0.1,0c0,0-0.1,0-0.1,0c-0.1,0-0.2,0-0.3,0c0,0,0,0,0,0c0,0-0.1,0-0.1,0
							c-0.1,0-0.2,0-0.3,0c0,0-0.1,0-0.1,0c-0.1,0-0.2,0-0.3-0.1c-0.1,0-0.1,0-0.2,0c0,0,0,0-0.1,0c-0.2-0.1-0.4-0.2-0.6-0.3
							c0,0,0,0,0,0c-0.1,0-0.1-0.1-0.1-0.1c-0.1-0.1-0.2-0.1-0.2-0.2c0,0,0,0,0,0c-0.1-0.1-0.1-0.1-0.2-0.2c0,0,0,0,0,0c0,0,0,0,0,0
							c0,0,0-0.1-0.1-0.1c0-0.1-0.1-0.1-0.1-0.2c0,0,0,0,0,0c0,0,0,0,0,0c0,0,0-0.1,0-0.1c0-0.1,0-0.1,0-0.2c0,0,0,0,0,0l-0.1-2
							c0,0.1,0,0.2,0.1,0.3c0,0,0,0,0,0c0,0.1,0.1,0.2,0.1,0.3c0,0,0,0,0,0c0.1,0.1,0.1,0.2,0.2,0.3c0.1,0.1,0.1,0.1,0.2,0.2
							c0.1,0,0.1,0.1,0.2,0.1c0.2,0.1,0.4,0.2,0.6,0.3c0.1,0,0.2,0,0.2,0.1c0.1,0,0.2,0.1,0.3,0.1c0.1,0,0.2,0,0.4,0.1
							c0,0,0.1,0,0.1,0c0.2,0,0.3,0,0.5,0c0,0,0.1,0,0.1,0c0.2,0,0.3,0,0.5,0c0,0,0.1,0,0.1,0c0.2,0,0.3,0,0.5-0.1c0,0,0.1,0,0.1,0
							c0.1,0,0.3-0.1,0.4-0.1c0,0,0.1,0,0.1,0c0.2-0.1,0.3-0.1,0.5-0.2c0.6-0.3,0.9-0.8,0.9-1.2l0.1,2c0,0.5-0.3,0.9-0.9,1.2
							C128,89.9,127.9,90,127.7,90z"/>
						<g>
							<path class="st6" d="M123.8,87.8c-1.2-0.7-1.2-1.8,0-2.5c1.2-0.7,3.1-0.7,4.3,0c1.2,0.7,1.2,1.8,0,2.5
								C126.9,88.5,124.9,88.5,123.8,87.8z"/>
						</g>
					</g>
					<g>
						<path class="st27" d="M127.4,87.6C127.4,87.6,127.4,87.6,127.4,87.6C127.4,87.6,127.3,87.6,127.4,87.6
							c-0.2,0.1-0.2,0.1-0.3,0.1c0,0-0.1,0-0.1,0c0,0,0,0-0.1,0c0,0,0,0-0.1,0c-0.1,0-0.2,0-0.2,0c0,0-0.1,0-0.1,0c0,0,0,0-0.1,0
							c0,0-0.1,0-0.1,0c-0.1,0-0.2,0-0.2,0c0,0-0.1,0-0.1,0c0,0,0,0-0.1,0c0,0-0.1,0-0.1,0c-0.1,0-0.2,0-0.3,0c0,0,0,0,0,0
							c0,0,0,0-0.1,0c-0.1,0-0.1,0-0.2,0c0,0-0.1,0-0.1,0c-0.1,0-0.2,0-0.2-0.1c0,0-0.1,0-0.1,0c0,0,0,0-0.1,0
							c-0.2-0.1-0.3-0.1-0.5-0.2c0,0,0,0,0,0c0,0-0.1-0.1-0.1-0.1c-0.1,0-0.1-0.1-0.2-0.1c0,0,0,0,0,0c-0.1-0.1-0.1-0.1-0.2-0.2
							c0,0,0,0,0,0c0,0,0,0,0,0c0,0,0,0,0-0.1c0,0,0-0.1-0.1-0.1c0,0,0,0,0,0c0,0,0,0,0,0c0,0,0-0.1,0-0.1c0,0,0-0.1,0-0.1
							c0,0,0,0,0,0l-0.1-10.8c0,0.1,0,0.2,0,0.3c0,0,0,0,0,0c0,0.1,0.1,0.2,0.1,0.2c0,0,0,0,0,0c0.1,0.1,0.1,0.1,0.2,0.2
							c0.1,0,0.1,0.1,0.2,0.1c0.1,0,0.1,0.1,0.2,0.1c0.1,0.1,0.3,0.2,0.5,0.2c0.1,0,0.1,0,0.2,0.1c0.1,0,0.2,0,0.2,0.1
							c0.1,0,0.2,0,0.3,0.1c0,0,0,0,0.1,0c0.1,0,0.3,0,0.4,0c0,0,0,0,0.1,0c0.1,0,0.3,0,0.4,0c0,0,0,0,0.1,0c0.1,0,0.3,0,0.4-0.1
							c0,0,0,0,0.1,0c0.1,0,0.2-0.1,0.3-0.1c0,0,0,0,0.1,0c0.1-0.1,0.3-0.1,0.4-0.2c0.5-0.3,0.7-0.7,0.7-1l0.1,10.8
							c0,0.4-0.2,0.7-0.7,1C127.7,87.5,127.5,87.5,127.4,87.6z"/>
						<g>
							<path class="st28" d="M124.2,76.6c-1-0.6-1-1.5,0-2c1-0.6,2.6-0.6,3.5,0c1,0.6,1,1.5,0,2C126.7,77.2,125.1,77.2,124.2,76.6z"
								/>
						</g>
					</g>
				</g>
				<g>
					<g>
						<path class="st27" d="M163.2,69.5C163.2,69.5,163.1,69.5,163.2,69.5C163.1,69.5,163.1,69.6,163.2,69.5
							c-0.2,0.1-0.3,0.1-0.4,0.1c0,0-0.1,0-0.2,0c0,0-0.1,0-0.1,0c0,0-0.1,0-0.1,0c-0.1,0-0.2,0-0.3,0.1c0,0-0.1,0-0.1,0
							c0,0,0,0-0.1,0c0,0-0.1,0-0.1,0c-0.1,0-0.2,0-0.3,0c0,0-0.1,0-0.1,0c0,0-0.1,0-0.1,0c0,0-0.1,0-0.1,0c-0.1,0-0.2,0-0.3,0
							c0,0,0,0,0,0c0,0-0.1,0-0.1,0c-0.1,0-0.2,0-0.3,0c0,0-0.1,0-0.1,0c-0.1,0-0.2,0-0.3-0.1c-0.1,0-0.1,0-0.2,0c0,0,0,0-0.1,0
							c-0.2-0.1-0.4-0.2-0.6-0.3c0,0,0,0,0,0c-0.1,0-0.1-0.1-0.1-0.1c-0.1-0.1-0.2-0.1-0.2-0.2c0,0,0,0,0,0
							c-0.1-0.1-0.1-0.1-0.2-0.2c0,0,0,0,0,0c0,0,0,0,0,0c0,0,0-0.1-0.1-0.1c0-0.1-0.1-0.1-0.1-0.2c0,0,0,0,0,0c0,0,0,0,0,0
							c0,0,0-0.1,0-0.1c0-0.1,0-0.1,0-0.2c0,0,0,0,0,0l-0.1-2c0,0.1,0,0.2,0.1,0.3c0,0,0,0,0,0c0,0.1,0.1,0.2,0.1,0.3c0,0,0,0,0,0
							c0.1,0.1,0.1,0.2,0.2,0.3c0.1,0.1,0.1,0.1,0.2,0.2c0.1,0,0.1,0.1,0.2,0.1c0.2,0.1,0.4,0.2,0.6,0.3c0.1,0,0.2,0,0.2,0.1
							c0.1,0,0.2,0.1,0.3,0.1c0.1,0,0.2,0,0.4,0.1c0,0,0.1,0,0.1,0c0.2,0,0.3,0,0.5,0c0,0,0.1,0,0.1,0c0.2,0,0.3,0,0.5,0
							c0,0,0,0,0.1,0c0.2,0,0.3,0,0.5-0.1c0,0,0.1,0,0.1,0c0.1,0,0.3-0.1,0.4-0.1c0,0,0.1,0,0.1,0c0.2-0.1,0.3-0.1,0.5-0.2
							c0.6-0.3,0.9-0.8,0.9-1.2l0.1,2c0,0.5-0.3,0.9-0.9,1.2C163.5,69.4,163.3,69.5,163.2,69.5z"/>
						<g>
							<path class="st6" d="M159.2,67.3c-1.2-0.7-1.2-1.8,0-2.5c1.2-0.7,3.1-0.7,4.3,0c1.2,0.7,1.2,1.8,0,2.5
								C162.3,68,160.4,68,159.2,67.3z"/>
						</g>
					</g>
					<g>
						<path class="st27" d="M162.9,67.1C162.9,67.1,162.8,67.1,162.9,67.1C162.8,67.1,162.8,67.1,162.9,67.1
							c-0.2,0.1-0.2,0.1-0.3,0.1c0,0-0.1,0-0.1,0c0,0,0,0-0.1,0c0,0,0,0-0.1,0c-0.1,0-0.2,0-0.2,0c0,0-0.1,0-0.1,0c0,0,0,0-0.1,0
							c0,0-0.1,0-0.1,0c-0.1,0-0.2,0-0.2,0c0,0-0.1,0-0.1,0c0,0,0,0-0.1,0c0,0-0.1,0-0.1,0c-0.1,0-0.2,0-0.3,0c0,0,0,0,0,0
							c0,0,0,0-0.1,0c-0.1,0-0.1,0-0.2,0c0,0-0.1,0-0.1,0c-0.1,0-0.2,0-0.2-0.1c0,0-0.1,0-0.1,0c0,0,0,0-0.1,0
							c-0.2-0.1-0.3-0.1-0.5-0.2c0,0,0,0,0,0c0,0-0.1-0.1-0.1-0.1c-0.1,0-0.1-0.1-0.2-0.1c0,0,0,0,0,0c-0.1-0.1-0.1-0.1-0.2-0.2
							c0,0,0,0,0,0c0,0,0,0,0,0c0,0,0,0,0-0.1c0,0,0-0.1-0.1-0.1c0,0,0,0,0,0c0,0,0,0,0,0c0,0,0-0.1,0-0.1c0,0,0-0.1,0-0.1
							c0,0,0,0,0,0l-0.1-10.8c0,0.1,0,0.2,0,0.3c0,0,0,0,0,0c0,0.1,0.1,0.2,0.1,0.2c0,0,0,0,0,0c0.1,0.1,0.1,0.1,0.2,0.2
							c0.1,0,0.1,0.1,0.2,0.1c0.1,0,0.1,0.1,0.2,0.1c0.1,0.1,0.3,0.2,0.5,0.2c0.1,0,0.1,0,0.2,0.1c0.1,0,0.2,0,0.2,0.1
							c0.1,0,0.2,0,0.3,0.1c0,0,0,0,0.1,0c0.1,0,0.3,0,0.4,0c0,0,0,0,0.1,0c0.1,0,0.3,0,0.4,0c0,0,0,0,0.1,0c0.1,0,0.3,0,0.4-0.1
							c0,0,0,0,0.1,0c0.1,0,0.2-0.1,0.3-0.1c0,0,0,0,0.1,0c0.1-0.1,0.3-0.1,0.4-0.2c0.5-0.3,0.7-0.7,0.7-1l0.1,10.8
							c0,0.4-0.2,0.7-0.7,1C163.1,67,163,67,162.9,67.1z"/>
						<g>
							<path class="st28" d="M159.6,56.1c-1-0.6-1-1.5,0-2c1-0.6,2.6-0.6,3.5,0c1,0.6,1,1.5,0,2C162.2,56.7,160.6,56.7,159.6,56.1z"
								/>
						</g>
					</g>
				</g>
				<g>
					<g class="st11">
						<g>
							<polygon class="st27" points="113.6,55.9 113.7,83.6 112.1,82.7 112.1,55 							"/>
						</g>
						<g>
							<polygon class="st28" points="112.1,55 169.1,22.1 170.7,23 113.6,55.9 							"/>
						</g>
						<g>
							<polygon class="st29" points="113.6,55.9 170.7,23 170.8,50.7 113.7,83.6 							"/>
						</g>
					</g>
				</g>
			</g>
			<g>
				<path class="st30" d="M148.9,118.3l-6.1,3.5c0,2,1.4,2.8,3.1,1.8C147.6,122.7,148.9,120.3,148.9,118.3L148.9,118.3z
					 M161.2,111.2l-6.1,3.5c0,2,1.4,2.8,3.1,1.8C159.8,115.6,161.2,113.2,161.2,111.2L161.2,111.2z M173.5,104.1l-6.1,3.5
					c0,2,1.4,2.8,3.1,1.8C172.1,108.5,173.5,106.1,173.5,104.1L173.5,104.1z M185.8,97.1l-6.1,3.5c0,2,1.4,2.8,3.1,1.8
					C184.4,101.4,185.8,99,185.8,97.1L185.8,97.1z M191.9,93.5c0,2,1.4,2.8,3.1,1.8c1.7-1,3.1-3.4,3.1-5.3L191.9,93.5z"/>
				<g>
					<path class="st19" d="M152,120.1c1.7-1,3.1-3.4,3.1-5.3l-6.1,3.5C148.9,120.3,150.3,121.1,152,120.1z"/>
					<path class="st19" d="M139.7,127.2c1.7-1,3.1-3.4,3.1-5.3l-6.1,3.5C136.6,127.4,138,128.2,139.7,127.2z"/>
					<path class="st19" d="M164.3,113c1.7-1,3.1-3.4,3.1-5.3l-6.1,3.5C161.2,113.2,162.6,114,164.3,113z"/>
					<path class="st19" d="M176.6,105.9c1.7-1,3.1-3.4,3.1-5.3l-6.1,3.5C173.5,106.1,174.9,106.9,176.6,105.9z"/>
					<path class="st19" d="M188.9,98.8c1.7-1,3.1-3.4,3.1-5.3l-6.1,3.5C185.8,99,187.2,99.8,188.9,98.8z"/>
					<path class="st19" d="M198.1,90c0,2,1.4,2.8,3.1,1.8c1.7-1,3.1-3.4,3.1-5.3L198.1,90z"/>
				</g>
				<g>
					<g>
						<polygon class="st28" points="138.1,95.8 155.1,114.8 161.2,111.2 144.2,92.2 						"/>
						<polygon class="st28" points="125.8,102.9 142.8,121.9 148.9,118.3 131.9,99.3 						"/>
						<polygon class="st28" points="150.3,88.7 167.4,107.7 173.5,104.1 156.5,85.1 						"/>
						<polygon class="st28" points="181.1,71 174.9,74.5 191.9,93.5 198.1,90 						"/>
						<polygon class="st28" points="162.6,81.6 179.6,100.6 185.8,97.1 168.8,78 						"/>
					</g>
					<g>
						<polygon class="st31" points="187.2,67.4 181.1,71 198.1,90 204.2,86.4 						"/>
						<polygon class="st31" points="144.2,92.2 161.2,111.2 167.4,107.7 150.3,88.7 						"/>
						<polygon class="st31" points="168.8,78 185.8,97.1 191.9,93.5 174.9,74.5 						"/>
						<polygon class="st31" points="131.9,99.3 148.9,118.3 155.1,114.8 138.1,95.8 						"/>
						<polygon class="st31" points="156.5,85.1 173.5,104.1 179.6,100.6 162.6,81.6 						"/>
						<polygon class="st31" points="119.6,106.4 136.6,125.4 142.8,121.9 125.8,102.9 						"/>
					</g>
				</g>
			</g>
		</g>
		<polygon class="st32" points="136.6,125.4 119.6,106.4 119.6,112.8 136.7,126 		"/>
		<g class="st0">
			<g>
				<path class="st2" d="M128.7,51.4c2.6-1.5,4-0.5,4,2.7l0,0.6l-2.6,1.5l0-0.8c0-1.4-0.5-1.7-1.4-1.2c-0.9,0.5-1.3,1.3-1.3,2.7
					c0,4.1,5.3,1.8,5.3,7.4c0,3.2-1.4,5.8-4,7.3c-2.7,1.5-4,0.5-4-2.6l0-1.2l2.6-1.5l0,1.4c0,1.4,0.5,1.6,1.4,1.1
					c0.9-0.5,1.4-1.3,1.4-2.7c0-4.1-5.3-1.8-5.3-7.4C124.7,55.5,126,52.9,128.7,51.4z"/>
			</g>
			<g>
				<polygon class="st2" points="142.7,43.5 142.8,63.2 140,64.8 140,56.4 136.9,58.1 137,66.6 134.3,68.2 134.2,48.4 136.9,46.9 
					136.9,55.3 140,53.6 140,45.1 				"/>
			</g>
			<g>
				<path class="st2" d="M148.6,39.9c2.6-1.5,4.1-0.6,4.1,2.6l0,10.3c0,3.2-1.4,5.8-4.1,7.3c-2.7,1.5-4.1,0.6-4.1-2.6l0-10.3
					C144.5,44.1,145.9,41.4,148.6,39.9z M150,54.5l0-10.7c0-1.4-0.5-1.6-1.4-1.1c-0.9,0.5-1.4,1.3-1.4,2.8l0,10.7
					c0,1.4,0.5,1.6,1.4,1.1C149.5,56.8,150,55.9,150,54.5"/>
			</g>
			<g>
				<path class="st2" d="M158.4,34.5c2.7-1.6,4-0.6,4,2.6l0,2.6c0,3.2-1.3,5.6-4,7.2l-1.3,0.7l0,7.4l-2.7,1.6l-0.1-19.7L158.4,34.5z
					 M159.7,41.3l0-3c0-1.4-0.5-1.6-1.3-1.1l-1.3,0.7l0,6.7l1.3-0.7C159.3,43.5,159.7,42.8,159.7,41.3"/>
			</g>
		</g>
	</g>
</g>
</svg>
