<?xml version="1.0" encoding="utf-8"?>
<!-- Generator: Adobe Illustrator 21.0.2, SVG Export Plug-In . SVG Version: 6.00 Build 0)  -->
<svg version="1.1" xmlns="http://www.w3.org/2000/svg" xmlns:xlink="http://www.w3.org/1999/xlink" x="0px" y="0px"
	 viewBox="0 0 102.5 116.2" style="enable-background:new 0 0 102.5 116.2;" xml:space="preserve">
<style type="text/css">
	.st0{fill:#FFFFFF;}
	.st1{fill:#A39195;}
	.st2{fill:#606362;}
	.st3{fill:#343C4A;}
	.st4{fill:#7A7A7A;}
	.st5{fill:#F9A21B;}
	.st6{fill:#7C807E;}
	.st7{fill:#8A1621;}
	.st8{fill:#FFE2CF;}
	.st9{fill:#3B414D;}
	.st10{fill:#F9B346;}
	.st11{fill:#FFD4B8;}
	.st12{fill:#FFC49E;}
	.st13{fill:#F5C86C;}
	.st14{fill:#4A4D4C;}
	.st15{fill:#E39419;}
	.st16{fill:#282F39;}
	.st17{fill:#979797;}
	.st18{fill:#DE9018;}
	.st19{fill:#C13831;}
	.st20{fill:#4B576B;}
	.st21{fill:#454D5A;}
	.st22{fill:#949997;}
	.st23{fill:#808080;}
	.st24{fill:#C47F15;}
	.st25{fill:#D68B17;}
	.st26{fill:#616161;}
	.st27{fill:#D73F36;}
	.st28{fill:#862722;}
	.st29{fill:#C98316;}
	.st30{fill:#231F20;}
	.st31{fill:#F6C96B;}
	.st32{fill:#FCA30B;}
	.st33{fill:#FA493F;}
	.st34{fill:#9A1503;}
	.st35{fill:#413833;}
	.st36{fill:#E4A549;}
	.st37{fill:#454E5B;}
	.st38{fill:#969595;}
	.st39{fill:#B2B9B5;}
	.st40{fill:#DADFDD;}
	.st41{fill:#A3AAA7;}
	.st42{fill:#EBF1EF;}
	.st43{fill:#868B89;}
	.st44{fill:#5B5E5E;}
	.st45{fill:#F5FAF8;}
	.st46{fill:#B9E5F8;}
	.st47{fill:#A1A5A4;}
	.st48{fill:#BDC6C2;}
	.st49{fill:#BBC2BF;}
	.st50{fill:#D7DDDB;}
	.st51{fill:#E2E8E6;}
	.st52{fill:#BFC3C1;}
	.st53{fill:#F05523;}
	.st54{fill:#CCD1CF;}
	.st55{fill:#AFAFB0;}
	.st56{fill:#12151A;}
	.st57{fill:#787B7C;}
	.st58{fill:#B22124;}
	.st59{fill:#CFD8D3;}
	.st60{fill:#D9B15E;}
	.st61{fill:#BE9B53;}
	.st62{fill:#BF9C53;}
	.st63{fill:#B07D2E;}
	.st64{fill:#15191F;}
	.st65{fill:#E4EAE8;}
	.st66{fill:#603913;}
	.st67{fill:#B4935E;}
	.st68{fill:#F6DAA0;}
	.st69{fill:#997C50;}
	.st70{fill:#262B36;}
	.st71{fill:#E3A44A;}
	.st72{fill:#B4B8B6;}
	.st73{fill:#C9CFCD;}
	.st74{fill:#FFB23A;}
	.st75{fill:#4E5250;}
	.st76{fill:#CFD4D3;}
	.st77{fill:#898F8C;}
	.st78{fill:#D2DBD7;}
	.st79{fill:#F1F7F5;}
	.st80{fill:#E3E8E6;}
	.st81{fill:#ECF2F0;}
	.st82{fill:#EB980A;}
	.st83{fill:#D98C09;}
	.st84{fill:#2B210D;}
	.st85{fill:#FFC03D;}
	.st86{fill:#404241;}
	.st87{fill:#573804;}
	.st88{fill:#B08038;}
	.st89{fill:#734A05;}
	.st90{fill:#B87708;}
	.st91{fill:#D48909;}
	.st92{fill:#FFA50B;}
	.st93{fill:#FFD887;}
	.st94{fill:#AFD9EB;}
	.st95{fill:#3E403F;}
	.st96{fill:#565958;}
	.st97{fill:#B0896D;}
	.st98{fill:#20252E;}
	.st99{fill:#353F4D;}
	.st100{fill:#6B1119;}
	.st101{fill:#E89410;}
	.st102{fill:#FFCC7D;}
	.st103{fill:#FFB036;}
	.st104{fill:#D1D6D4;}
	.st105{fill:#5B5E5D;}
	.st106{fill:#B0B0B0;}
	.st107{fill:#1E242B;}
	.st108{fill:#D4870F;}
	.st109{fill:#594A42;}
	.st110{fill:#8DAEBD;}
	.st111{fill:#A2C8D9;}
	.st112{fill:#AEB3B1;}
	.st113{fill:#CACFCD;}
	.st114{fill:#E0E6E4;}
	.st115{fill:#A6ABA9;}
	.st116{fill:#FFD47A;}
	.st117{fill:#947840;}
	.st118{fill:#967B41;}
	.st119{fill:#756033;}
	.st120{fill:#C29E54;}
	.st121{fill:#A88A49;}
	.st122{fill:#AD8D4C;}
	.st123{fill:#FFB543;}
	.st124{fill:#F6D99B;}
	.st125{fill:#61491A;}
	.st126{fill:#B57613;}
	.st127{fill:#C48015;}
	.st128{fill:#9E6711;}
	.st129{fill:#8A703C;}
	.st130{fill:#806843;}
	.st131{fill:#A68748;}
	.st132{fill:#A18346;}
	.st133{fill:#FFD782;}
</style>
<g id="Layer_24">
</g>
<g id="Layer_26">
</g>
<g id="Layer_26_copy">
</g>
<g id="Layer_5">
</g>
<g id="Layer_1">
</g>
<g id="Layer_1_copy">
</g>
<g id="Layer_8_copy_3">
</g>
<g id="Layer_3">
</g>
<g id="Layer_30">
</g>
<g id="Layer_30_copy">
</g>
<g id="Layer_3_copy">
</g>
<g id="Layer_2">
</g>
<g id="Layer_2_copy">
</g>
<g id="Layer_4">
</g>
<g id="Layer_4_copy">
</g>
<g id="Layer_5_copy">
</g>
<g id="Layer_6">
</g>
<g id="Layer_6_copy">
</g>
<g id="Layer_7">
</g>
<g id="Layer_7_copy">
</g>
<g id="Layer_8_copy">
</g>
<g id="Layer_27">
</g>
<g id="Layer_8_copy_4">
</g>
<g id="Layer_8_copy_9">
</g>
<g id="Layer_8_copy_8">
</g>
<g id="Layer_41">
</g>
<g id="Layer_41_copy">
</g>
<g id="Layer_42">
</g>
<g id="Layer_43">
</g>
<g id="Layer_8_copy_10">
</g>
<g id="Layer_8_copy_2">
</g>
<g id="Layer_8_copy_5">
</g>
<g id="Layer_8">
</g>
<g id="Layer_25">
</g>
<g id="Layer_25_copy">
	<g>
		<path class="st5" d="M11.6,44.7c0.3-0.1,0.5-0.2,0.8-0.3c0.5-0.2,0.9-0.5,1.3-0.7c0.1-0.1,0.2-0.1,0.3-0.1
			c-0.4-1.3-0.9-2.8-1.4-4.1c-0.4-1.1-0.9-2.1-1.5-3.1L11,36.3c0.9-0.5,1.8-0.9,2.7-1.3c0.3-0.1,0.5-0.2,0.8-0.3
			c1.2-0.5,2.4-0.9,3.6-1.5l0,0.1c2.8-0.6,1.1-5.4-0.5-5.4c0,0,0.1,0,0.1,0c-2,0.4-4.7,1.5-6.3,2.6c-1.6,0.9-4.3,2.7-5,4.3l-0.1,0
			c0,2.9,1.7,6.3,3.2,8.7c0.1,0.7,0.3,1.1,0.6,1.3C10.6,44.9,11,44.9,11.6,44.7z"/>
		<path class="st15" d="M9.9,83.4c0,0.7-0.1,1.3-0.2,2c0.5,0.5,1,1,1.5,1.5c0.4,0.4,0.8,0.7,1.3,1l0,0c0.6-0.9,1.2-1.6,2.1-1.7
			c-0.6-0.9-0.9-2.2-1.3-3.1c0-0.1,0-0.1-0.1-0.2c-0.2,0.1-0.5,0.2-0.8,0.3C11.7,83.5,10.7,83.6,9.9,83.4z"/>
		<path class="st5" d="M27,21.4C27,21.4,27,21.4,27,21.4c1.8-0.2,3.5,0,5.2-0.1c0,0,0,0,0.1,0c0,0,0,0,0.1,0c0.2-1.4-0.9-3.2-2-3.8
			c-0.9-0.5-1.5-0.9-2.5-0.9c-1.2,0-2.6,0.8-3.2,1.8c-0.4,0.7-0.7,1.5-0.7,1.5c0,0,0.1,0.1,0.1,0.1C24.7,20.6,26.3,21.1,27,21.4
			C27,21.4,27,21.4,27,21.4z"/>
		<path class="st25" d="M32.2,21.3c-1.7,0-3.5-0.1-5.2,0.1c0,0,0,0,0,0c0.2,0.2,0.3,0.3,0.5,0.4c1.1,0.9,2.4,1.7,3.8,2.3
			c0.2,0.1,0.5,0.2,0.7,0.2c2.8,0.8,2.9-2.1,0.3-3C32.3,21.3,32.3,21.3,32.2,21.3C32.3,21.3,32.3,21.3,32.2,21.3z"/>
		<path class="st63" d="M12.5,88c-0.4-0.3-0.8-0.7-1.3-1c-0.5-0.5-1-1-1.5-1.5c0,0-0.1-0.1-0.1-0.1c-0.3-0.4-1.2-1.2-1.4-1.8
			c-0.1,0.3,0,0.5,0.1,1.1c1.3,1.8,4.2,4.4,6.1,5c0.6-0.2,1.2-0.5,1.9-0.7c0-0.3,0-0.5,0-0.7c-0.3,0.1-0.6,0.2-0.8,0.3
			C14.1,89,13.3,88.6,12.5,88z"/>
		<path class="st12" d="M25.7,28.2c0.1,0,0.2,0.1,0.3,0.1c0.1,0,0.2,0,0.3,0.1c0.5,0.1,1,0,1.3-0.3c0.1-0.1,0.2-0.2,0.3-0.4
			c-0.4,0-0.8,0-1.1-0.1c-1-0.4-1.6-1.4-1.8-2.9c-0.2-0.1-0.4-0.3-0.5-0.5l-0.1,0.1c0,0.1-0.1,0.1-0.1,0.2l0,0
			c-0.3,0.7-0.6,1.4-0.9,2.1c0,0,0,0,0,0C23.3,26.8,24.5,27.8,25.7,28.2z"/>
		<path class="st6" d="M18.2,33.3L18.2,33.3c-1.3,0.5-2.5,0.9-3.6,1.4c-0.2,0.1-0.5,0.2-0.8,0.3c-0.5,1.4-0.9,2.9-1.2,4.5
			c0.5,1.4,1,2.8,1.4,4.1c-0.1,0-0.2,0.1-0.3,0.1c0.2,0.4,0.4,0.8,0.5,1.2c-0.1,0.1-0.2,0.2-0.3,0.2c0.1,0,0.2,0.1,0.4,0.1
			c0.7,0.2,1.4,0.3,2,0.4c1.1,0.1,3.1,0.4,4.8,0.3c0.5,0,1-0.1,1.4-0.2c0.1,0,0.1,0,0.2-0.1c0.1-0.1,0.1-0.2,0.2-0.3
			c0.3-0.4,0.5-0.7,0.8-1.1c1-1.3,1.9-2.7,2.8-4.1c1-1.5,1.7-3.1,2.3-4.7c0.5-1.3,0.9-2.5,1.5-3.8l-0.1,0c0.4-1.1,0.7-1.9,0.5-2.6
			c-0.2-0.7-0.7-1.3-1.9-1.8c-0.1,0.1-0.3,0.1-0.4,0.1c0.7,2.2-0.2,5-1.1,7.1c-0.6,0-1.3,0-1.9,0c-1.1,0-2.2,0.1-3.3,0.1
			c0.1-0.2,0.1-0.5,0.1-0.7c0.3-3.2,0.5-5.9-2-6.9c-0.9,0.2-1.8,0.5-2.5,0.9h0c0,0-0.1,0-0.1,0C19.3,27.9,20.9,32.8,18.2,33.3z"/>
		<path class="st5" d="M22.2,33.9c0,0.2-0.1,0.5-0.1,0.7c1.1-0.1,2.2-0.1,3.3-0.1c0.7-1.8,1-4.2,0.7-6.2l0-0.1c-0.1,0-0.2,0-0.3-0.1
			v0c-0.4,0.7-0.9,1.3-1.4,2c-0.7-1.2-1.9-2.1-2.1-3.5c-0.6,0.1-1.3,0.3-2,0.4C22.7,28,22.5,30.8,22.2,33.9z"/>
		<path class="st22" d="M16.3,45.8c-0.6-0.1-1.3-0.2-2-0.4c-0.1,0-0.2-0.1-0.4-0.1c0,0,0,0-0.1,0.1l0,0c0,0.6,0.1,1.2,0.1,1.8l0,0
			c0.1,0.4-0.1,0.8-0.3,1c1.2,0.3,2.6,0.4,3.9,0.4c0.8,0,1.6-0.1,2.3-0.2c0.6-0.1,1.1-0.2,1.6-0.4c0.5-0.2,1-0.4,1.4-0.6
			c-0.1-0.5-0.2-1-0.2-1.4c0-0.1,0-0.1,0-0.2c-0.4,0.1-0.9,0.2-1.4,0.2C19.4,46.2,17.4,45.9,16.3,45.8z"/>
		<path class="st5" d="M9.7,85.4c0.1-0.7,0.2-1.3,0.2-2c-0.6-0.1-1-0.3-1.4-0.6c-0.2,0.4-0.3,0.6-0.3,0.8C8.4,84.1,9.3,85,9.7,85.4
			C9.6,85.3,9.6,85.4,9.7,85.4z"/>
		<path class="st63" d="M27.8,80.5c-0.4-0.2-0.8-0.4-1.2-0.6c-0.5-0.2-0.9-0.5-1.4-0.8c-0.2-0.2-0.5-0.3-0.7-0.5
			c-0.5-0.4-1.1-0.6-1.6-1.1c0,0.2-0.1,0.4-0.1,0.6c0.6,0.6,1.5,1.2,2.4,1.8c1.5,0.9,3.1,1.7,4.2,1.8c0.6-0.3,1.1-0.7,1.8-1
			c-0.1-0.3-0.1-0.6-0.2-0.8c-0.2,0.1-0.3,0.2-0.5,0.3C29.4,81,28.7,80.9,27.8,80.5z"/>
		<path class="st10" d="M23.8,44.4L23.8,44.4c-0.3,0.3-0.6,0.7-0.9,1.1c0,0.1,0.1,0.1,0.1,0.2c0.3,0.5,0.6,0.6,1,0.5
			c0.4-0.1,0.9-0.5,1.3-0.8C24.8,45.3,24.4,45,23.8,44.4z"/>
		<path class="st2" d="M21.4,48c1.2,6.9,4.6,24.9,5.2,28.7c0.2-0.1,0.5-0.2,0.7-0.3c0-0.1,0-0.2,0-0.3c-0.6-4.8-2.9-18.8-4.4-27.6
			c-0.1-0.4-0.1-0.7-0.2-1.1C22.4,47.7,21.9,47.9,21.4,48z"/>
		<path class="st10" d="M13.9,45.3C13.9,45.3,13.9,45.3,13.9,45.3c0.2-0.1,0.3-0.2,0.3-0.3c-0.1-0.4-0.3-0.9-0.5-1.2
			c-0.4,0.2-0.9,0.5-1.3,0.7c-0.3,0.1-0.5,0.2-0.8,0.3c-0.5,0.1-1,0.2-1.4,0c0.1,0.4,0.3,0.8,0.5,1.1l0,0c0,0,0,0,0,0
			c0.2,0,0.4,0.1,0.7,0.1C12.2,45.9,13.2,45.8,13.9,45.3z"/>
		<path class="st11" d="M27.6,21.8c-0.2-0.1-0.4-0.3-0.5-0.4c0,0,0,0,0,0c0,0,0,0,0,0c0,0,0,0,0,0c0,0,0,0,0,0
			c-0.3,0.7-0.6,1.8-0.7,2.6c-0.3-0.2-0.6-0.3-0.9-0.5c0.1-0.3,0.1-0.7,0.2-1l0,0c0-0.3-0.1-0.4-0.4-0.4c-0.4,0.1-0.8,0.8-0.9,1.1
			c-0.1,0.3,0,0.5,0.2,0.8c0.1,0.2,0.3,0.4,0.5,0.5c0.2,1.4,0.8,2.5,1.8,2.9l0,0C25.7,26.4,26.7,22.8,27.6,21.8z"/>
		<path class="st5" d="M12.5,87.9L12.5,87.9c0.8,0.7,1.6,1.1,2.8,0.7c0.3-0.1,0.6-0.2,0.8-0.3c0-0.4-0.1-0.8-0.8-1.3c0,0,0,0,0,0
			c-0.3-0.2-0.5-0.5-0.7-0.8C13.7,86.4,13,87.1,12.5,87.9z"/>
		<path class="st8" d="M14,47.1L14,47.1c0-0.6-0.1-1.2-0.1-1.8l0,0c-0.7,0.5-1.6,0.6-2.5,0.6c-0.2,0-0.5,0-0.7-0.1
			c-0.1,0.4-0.1,1-0.1,1.5c-0.8,0-0.8,0.9-0.5,1.8c0.3,0,0.6,0,0.9,0c0.9-0.1,2-0.4,2.6-0.9C13.9,47.9,14,47.6,14,47.1z"/>
		<path class="st6" d="M12.5,83.3c0.3-2.5,4.1-28.4,5-34.7c-1.3,0-2.7-0.1-3.9-0.4c-0.5,0.5-1.6,0.8-2.6,0.9
			c-0.8,8-2.5,27.3-2.5,31.7c0,0.1-0.1,1.7-0.1,1.9c0,0,0,0.1,0,0.1c0.4,0.3,0.8,0.5,1.4,0.6C10.7,83.6,11.7,83.5,12.5,83.3z"/>
		<path class="st15" d="M27,29.8c-0.1-0.5-0.4-1.1-0.7-1.5c-0.1,0-0.2,0-0.3-0.1l0,0.1c0.3,1.9,0,4.4-0.7,6.2c0.6,0,1.3,0,1.9,0
			c0.9-2.1,1.8-4.9,1.1-7.1c-0.1,0-0.1,0-0.2,0C28.5,28.6,27.6,28.9,27,29.8z"/>
		<path class="st15" d="M30.1,31.7L30.1,31.7c-0.4,1.3-0.9,2.6-1.4,3.9l0.1,0c0.1,0.7,0.5,1.5,0.9,2.3c-1.1,0.2-2.6,1.4-3.3,2.3
			c-0.9,1.4-1.8,2.8-2.8,4.1l0.1,0.1c0.6,0.6,1.1,0.9,1.5,0.9c0.5,0,0.9-0.3,1.5-0.8c3.1-1.5,7.2-4.1,7.5-5.8
			c-0.7-2.4-2.3-7.6-3.5-9.7l-0.1,0C30.8,29.8,30.6,30.6,30.1,31.7z"/>
		<path class="st10" d="M28.2,27.5c-0.1,0-0.2,0-0.3,0c-0.1,0.2-0.2,0.3-0.3,0.4c-0.3,0.3-0.8,0.4-1.3,0.3c0.4,0.4,0.6,1,0.7,1.5
			C27.6,28.9,28.5,28.6,28.2,27.5z"/>
		<path class="st5" d="M27.8,80.5c0.9,0.4,1.7,0.5,2.8-0.3c0.2-0.1,0.3-0.2,0.5-0.3c-0.1-0.4-0.3-0.7-1-1c0,0,0,0,0,0
			c-0.2-0.1-0.4-0.1-0.6-0.2C28.6,79.1,27.9,79.7,27.8,80.5z"/>
		<path class="st10" d="M25.7,28.2L25.7,28.2c-1.2-0.4-2.5-1.3-2.4-1.7c0,0,0,0,0,0c-0.3,0-0.7,0.1-1.1,0.2c0.2,1.5,1.4,2.3,2.1,3.5
			C24.8,29.5,25.3,28.8,25.7,28.2z"/>
		<path class="st5" d="M24.5,78.7c0.2,0.2,0.5,0.3,0.7,0.5c0-0.6-0.1-1.3-0.2-1.9c-0.7,0.1-1.4,0.1-1.9-0.1c0,0.1-0.1,0.3-0.1,0.4
			C23.3,78,23.9,78.3,24.5,78.7z"/>
		<path class="st15" d="M25.8,77c-0.3,0.1-0.5,0.2-0.8,0.2c0.2,0.6,0.2,1.3,0.2,1.9c0.5,0.3,0.9,0.6,1.4,0.8
			c0.4,0.2,0.8,0.4,1.2,0.6c0.1-0.8,0.9-1.4,1.7-1.8c0,0,0.1,0,0.1-0.1c-0.8-0.6-1.5-1.5-2.1-2.3c0,0-0.1,0.1-0.1,0.1
			c-0.2,0.1-0.5,0.2-0.7,0.3C26.3,76.8,26,76.9,25.8,77z"/>
		<path class="st8" d="M26.7,27.4L26.7,27.4c0.3,0.1,0.7,0.2,1.1,0.1c0.1,0,0.2,0,0.3,0c0.1,0,0.1,0,0.2,0c0.1,0,0.3-0.1,0.4-0.1
			c0.1,0,0.2-0.1,0.4-0.2c1.3-0.6,1.9-1.8,2.3-3c-1.3-0.5-2.6-1.3-3.8-2.3C26.7,22.8,25.7,26.4,26.7,27.4z"/>
		<path class="st2" d="M17.5,48.6c-0.9,6.3-4.7,32.2-5,34.7c0.3-0.1,0.6-0.2,0.8-0.3c0,0,0.1,0,0.1-0.1c0.8-3.8,2.8-15.2,4.5-24.3
			c0.8-4.2,1.5-8,1.9-10.2C19.1,48.5,18.3,48.6,17.5,48.6z"/>
		<path class="st8" d="M23,45.7c0-0.1-0.1-0.1-0.1-0.2c-0.1,0.1-0.1,0.2-0.2,0.3c-0.1,0-0.1,0-0.2,0.1c0,0.1,0,0.1,0,0.2
			c0.1,0.4,0.1,0.9,0.2,1.4c0.1,0.3,0.1,0.7,0.2,1.1c0.3,0,0.6,0,0.8-0.2c0.4-0.3,0.5-1.6,0-1.2c0.1-0.3,0.1-0.6,0.3-0.8l0-0.1
			C23.6,46.2,23.3,46.1,23,45.7z"/>
		<path class="st11" d="M32.4,21.3C32.4,21.3,32.4,21.3,32.4,21.3C32.3,21.3,32.3,21.3,32.4,21.3C32.3,21.3,32.3,21.3,32.4,21.3z"/>
		<path class="st14" d="M25,77.2c0.3-0.1,0.6-0.1,0.8-0.2c0.2-0.1,0.5-0.2,0.8-0.3c-0.6-3.8-4-21.8-5.2-28.7c-0.5,0.2-1,0.3-1.6,0.4
			c-0.5,2.3-1.2,6-1.9,10.2c1.3,5.5,4.9,17.6,5,18.5l0,0c0,0,0,0,0.1,0C23.6,77.3,24.3,77.3,25,77.2z"/>
		<path class="st100" d="M24.4,24c-0.1-0.2-0.2-0.5-0.2-0.8c0.1-0.4,0.4-1,0.9-1.1c0.3,0,0.4,0.1,0.4,0.4l0,0c0,0.3-0.1,0.7-0.2,1
			c0.3,0.1,0.7,0.2,0.9,0.5c0.1-0.8,0.4-1.8,0.7-2.6c0,0,0,0,0,0c-0.7-0.3-2.3-0.8-2.9-1.3c-0.2,0.6-0.5,1.1-0.6,1.8
			c-0.1,0.8-0.2,2.1,0.4,2.7l0.1,0c0.1-0.1,0.1-0.2,0.2-0.3C24.2,24.2,24.2,24.1,24.4,24L24.4,24z"/>
	</g>
</g>
<g id="Layer_27_copy">
</g>
<g id="Layer_28">
</g>
<g id="Layer_28_copy">
</g>
<g id="Layer_29">
</g>
<g id="Layer_29_copy">
</g>
<g id="Layer_8_copy_6">
	<g>
		<g id="XMLID_69_">
			<g>
				<polygon class="st110" points="60.4,31.5 60.9,31.9 60.1,32.3 				"/>
				<polygon class="st46" points="60.9,31.9 63.7,24.2 74.9,30.7 72.5,37.6 72.5,36.7 70.4,36.7 69.3,36.7 				"/>
				<polygon class="st111" points="60.9,31.9 60.9,31.9 69.3,36.7 68.3,36.7 67.4,36.7 60,32.4 60.1,32.3 				"/>
				<path class="st112" d="M60.4,102.2c-0.7,0.4-1.7,0.7-2.6,0.7v-4.7c1,0,1.9,0.2,2.6,0.7c0.8,0.5,1.2,1.1,1.2,1.7
					C61.6,101.1,61.2,101.7,60.4,102.2z"/>
				<polygon class="st110" points="63,23.7 63.7,24.2 60.9,31.9 60.9,31.9 60.4,31.5 				"/>
				<polygon class="st13" points="66.1,37.7 57.5,32.7 61.5,21.1 64.2,22.7 64.2,22.8 64,23.2 63.3,22.8 60.3,31.5 60.4,31.5 
					60.1,32.3 60,32.4 67.4,36.7 66.1,36.7 				"/>
				<path class="st112" d="M61.6,101.9l-3.8,2.2v-1.3c1,0,1.9-0.2,2.6-0.7c0.8-0.5,1.2-1.1,1.2-1.7V101.9z"/>
				<path class="st112" d="M89.5,76.5v9.4l-2.2,1.2V86c0-0.6-0.4-1.2-1.2-1.7c-1.6-0.9-4.1-0.9-5.7,0c-0.8,0.5-1.2,1.1-1.2,1.7v5.8
					l-17.6,10.2v-1.4c0-0.6-0.4-1.2-1.2-1.7c-0.7-0.4-1.7-0.7-2.6-0.7v-3.4l23.1-13.3L89.5,76.5z"/>
				<polygon class="st113" points="89.5,75.9 89.5,76.5 89,76.2 				"/>
				<polygon class="st114" points="89.5,76.5 80.9,81.4 57.8,94.8 57.8,94.2 80.9,80.9 89,76.2 				"/>
				<path class="st114" d="M57.8,94.2l-32-18.5L17.6,71l31.2-18l17.3,10v1.8l-9.5-5.6c-4.1-2.4-10.7-2.5-14.8-0.1l-13.5,7.7
					c-4.3,2.4-4.3,6.4-0.1,8.9L49.6,88c4.2,2.4,10.9,2.4,15-0.2l12.8-8c3.9-2.4,3.7-6.3-0.3-8.7l-4.5-2.6v-1.9L89,76.2l-8.1,4.7
					L57.8,94.2z"/>
				<path class="st5" d="M87.3,87.1v6.1c0,0.6-0.4,1.2-1.2,1.7c-1.6,0.9-4.1,0.9-5.7,0c-0.8-0.5-1.2-1-1.2-1.7v-1.5L87.3,87.1z"/>
				<path class="st112" d="M87.3,86v1.1l-8.1,4.7V86c0,0.6,0.4,1.2,1.2,1.7c1.6,0.9,4.1,0.9,5.7,0C86.9,87.2,87.3,86.6,87.3,86z"/>
				<path class="st112" d="M86.2,84.3c0.8,0.5,1.2,1.1,1.2,1.7c0,0.6-0.4,1.2-1.2,1.7c-1.6,0.9-4.1,0.9-5.7,0
					c-0.8-0.5-1.2-1.1-1.2-1.7c0-0.6,0.4-1.2,1.2-1.7C82,83.4,84.6,83.4,86.2,84.3z"/>
				<polygon class="st6" points="83.4,29 75.5,39.8 78.7,30.3 77.8,30.4 78.2,29.2 				"/>
				<polygon class="st106" points="83.4,29 78.2,29.2 62.2,20 67.5,19.8 				"/>
				<polygon class="st18" points="78.7,30.3 75.5,39.8 74.8,42 73.5,42 77.4,30.4 64.2,22.7 61.5,21.1 61.9,21.1 77.8,30.4 				"/>
				<polygon class="st17" points="78.2,29.2 77.8,30.4 61.9,21.1 62.2,20 				"/>
				<path class="st104" d="M77,71.2c4,2.4,4.2,6.2,0.3,8.7l-12.8,8c-4.1,2.5-10.8,2.6-15,0.2L28.4,75.7c-4.3-2.5-4.2-6.5,0.1-8.9
					l13.5-7.7c4.1-2.3,10.7-2.3,14.8,0.1l9.5,5.6v10.3h2.1h2.1h2.1v-6.5L77,71.2z"/>
				<polygon class="st13" points="77.4,30.4 73.5,42 72.5,41.5 72.5,37.6 74.9,30.7 74.9,30.7 75.2,29.7 64,23.2 64.2,22.8 
					64.2,22.7 				"/>
				<polygon class="st46" points="75.2,29.7 74.9,30.7 63.7,24.2 64,23.2 				"/>
				<polygon class="st111" points="74.9,30.7 72.5,37.6 72.5,37.6 74.9,30.7 				"/>
				<polygon class="st104" points="72.5,68.6 72.5,75.1 70.4,75.1 70.4,67.3 				"/>
				<polygon class="st114" points="72.5,66.7 72.5,68.6 70.4,67.3 70.4,65.4 				"/>
				<polygon class="st6" points="72.5,41.5 72.5,66.7 70.4,65.4 70.4,40.2 				"/>
				<polygon class="st13" points="72.5,37.6 72.5,41.5 70.4,40.2 70.4,38.5 71.9,39.4 				"/>
				<polygon class="st111" points="72.5,37.6 72.5,37.6 71.9,39.4 70.4,38.5 70.4,37.4 72.2,38.4 				"/>
				<polygon class="st46" points="72.5,36.7 72.5,37.6 72.2,38.4 70.4,37.4 70.4,36.7 				"/>
				<polygon class="st104" points="70.4,67.3 70.4,75.1 68.3,75.1 68.3,66.1 				"/>
				<polygon class="st114" points="70.4,65.4 70.4,67.3 68.3,66.1 68.3,64.2 				"/>
				<polygon class="st115" points="70.4,40.2 70.4,65.4 68.3,64.2 68.3,39 				"/>
				<polygon class="st13" points="70.4,38.5 70.4,40.2 68.3,39 68.3,37.2 				"/>
				<polygon class="st111" points="70.4,37.4 70.4,38.5 68.3,37.2 68.3,36.7 69.3,36.7 				"/>
				<polygon class="st46" points="70.4,36.7 70.4,37.4 69.3,36.7 				"/>
				<polygon class="st104" points="68.3,66.1 68.3,75.1 66.1,75.1 66.1,64.8 				"/>
				<polygon class="st114" points="68.3,64.2 68.3,66.1 66.1,64.8 66.1,63 				"/>
				<polygon class="st115" points="68.3,39 68.3,64.2 66.1,63 66.1,37.7 				"/>
				<polygon class="st13" points="68.3,37.2 68.3,39 66.1,37.7 66.1,36.7 67.4,36.7 				"/>
				<polygon class="st111" points="68.3,36.7 68.3,37.2 67.4,36.7 				"/>
				<polygon class="st110" points="64,23.2 63.7,24.2 63,23.7 60.4,31.5 60.3,31.5 63.3,22.8 				"/>
				<path class="st5" d="M57.8,104.1l3.8-2.2v5.8c0,0.6-0.4,1.2-1.2,1.7c-1.6,0.9-4.1,0.9-5.7,0c-0.8-0.5-1.2-1-1.2-1.7v-6.1
					L57.8,104.1z"/>
				<path class="st113" d="M57.8,102.8v1.3l-4.3-2.5v-1.1c0,0.6,0.4,1.2,1.2,1.7C55.6,102.7,56.7,102.9,57.8,102.8z"/>
				<path class="st113" d="M57.8,98.2v4.7c-1.1,0-2.2-0.2-3.1-0.7c-0.8-0.5-1.2-1.1-1.2-1.7c0-0.6,0.4-1.2,1.2-1.7
					C55.6,98.4,56.7,98.1,57.8,98.2z"/>
				<path class="st113" d="M57.8,94.8v3.4c-1.1,0-2.2,0.2-3.1,0.7c-0.8,0.5-1.2,1.1-1.2,1.7v1.1L27.4,86.6v-5.8
					c0-0.6-0.4-1.2-1.2-1.7c-1.6-0.9-4.1-0.9-5.7,0c-0.8,0.5-1.2,1.1-1.2,1.7v1.2l-2.1-1.2H17v-9.9h0.1l0.5,0.3l-0.5,0.3l8.6,5
					L57.8,94.8z"/>
				<polygon class="st114" points="57.8,94.2 57.8,94.8 25.8,76.3 17.2,71.3 17.6,71 25.8,75.7 				"/>
				<path class="st5" d="M27.4,86.6v1.4c0,0.6-0.4,1.2-1.2,1.7c-1.6,0.9-4.1,0.9-5.7,0c-0.8-0.5-1.2-1-1.2-1.7v-6.1L27.4,86.6z"/>
				<path class="st113" d="M27.4,80.7v5.8l-8.1-4.7v-1.2c0,0.6,0.4,1.2,1.2,1.6c1.6,0.9,4.1,0.9,5.7,0C27,81.9,27.4,81.3,27.4,80.7z
					"/>
				<path class="st113" d="M26.2,79.1c0.8,0.5,1.2,1.1,1.2,1.7c0,0.6-0.4,1.2-1.2,1.6c-1.6,0.9-4.1,0.9-5.7,0
					c-0.8-0.5-1.2-1-1.2-1.6c0-0.6,0.4-1.2,1.2-1.7C22,78.1,24.6,78.1,26.2,79.1z"/>
			</g>
		</g>
		<g id="XMLID_68_">
			<g>
				<polygon class="st60" points="48.1,71.5 48.1,71.5 43.8,68.9 43.8,80.8 48.1,83.3 				"/>
				<path class="st31" d="M48.1,71.5L48.1,71.5c4.5-2.6,13.3-7.7,16-9.3l-4.4-2.5l-6.8,4l-1.6,0.9l-7.6,4.4L48.1,71.5z"/>
				<path class="st25" d="M50.7,72.9L50.7,72.9l-2.5-1.5c0,0,0,0,0,0v11.9l2.5,1.5V72.9z"/>
				<path class="st61" d="M48.1,71.5L48.1,71.5C48.1,71.5,48.2,71.5,48.1,71.5L48.1,71.5z"/>
				<path class="st5" d="M50.7,72.9L50.7,72.9c4.2-2.4,12.9-7.5,16-9.3l-2.5-1.4c-2.7,1.6-11.6,6.7-16,9.3L50.7,72.9z"/>
				<path class="st60" d="M50.7,72.9v11.9l4.7,2.7l0-11.9L50.7,72.9C50.7,72.9,50.7,72.9,50.7,72.9z"/>
				<path class="st61" d="M50.7,72.9L50.7,72.9C50.7,72.9,50.7,72.9,50.7,72.9L50.7,72.9z"/>
				<path class="st31" d="M50.7,72.9l4.7,2.7l7.6-4.4l0,0l1.6-0.9l0,0l6.8-3.9l-4.7-2.7C63.6,65.4,54.9,70.5,50.7,72.9z"/>
				<polygon class="st62" points="55.4,75.7 55.4,87.5 63,83.1 64.6,82.1 71.4,78.2 71.4,66.4 64.6,70.3 64.6,70.3 63,71.2 63,71.2 
									"/>
			</g>
		</g>
		<g id="XMLID_16_">
			<g>
				<polygon class="st60" points="45,60.3 45,60.3 40.8,57.8 40.7,69.4 45,71.8 				"/>
				<path class="st31" d="M45,60.3L45,60.3c4.3-2.5,12.9-7.5,15.6-9l-4.3-2.5l-6.6,3.9l-1.5,0.9l-7.4,4.3L45,60.3z"/>
				<path class="st25" d="M47.5,61.7L47.5,61.7L45,60.3c0,0,0,0,0,0v11.6l2.5,1.4V61.7z"/>
				<path class="st61" d="M45,60.3L45,60.3C45,60.3,45,60.3,45,60.3L45,60.3z"/>
				<path class="st5" d="M47.5,61.7L47.5,61.7c4.1-2.4,12.6-7.3,15.6-9l-2.4-1.4c-2.7,1.5-11.3,6.5-15.6,9L47.5,61.7z"/>
				<path class="st60" d="M47.5,61.7v11.6l4.6,2.6l0-11.6L47.5,61.7C47.5,61.7,47.5,61.7,47.5,61.7z"/>
				<path class="st61" d="M47.5,61.7L47.5,61.7C47.5,61.7,47.5,61.7,47.5,61.7L47.5,61.7z"/>
				<path class="st31" d="M47.5,61.7l4.6,2.6l7.4-4.3l0,0l1.5-0.9l0,0l6.6-3.8l-4.6-2.6C60.1,54.4,51.6,59.3,47.5,61.7z"/>
				<polygon class="st62" points="52.1,64.3 52,75.9 59.5,71.5 61,70.7 67.6,66.8 67.6,55.3 61,59.1 61,59.1 59.5,60 59.5,60 				
					"/>
			</g>
		</g>
	</g>
</g>
<g id="Layer_37">
</g>
<g id="Layer_39">
</g>
<g id="Layer_39_copy">
</g>
<g id="Layer_38">
</g>
<g id="Layer_38_copy">
</g>
</svg>
