<?xml version="1.0" encoding="utf-8"?>
<!-- Generator: Adobe Illustrator 21.0.2, SVG Export Plug-In . SVG Version: 6.00 Build 0)  -->
<svg version="1.1" xmlns="http://www.w3.org/2000/svg" xmlns:xlink="http://www.w3.org/1999/xlink" x="0px" y="0px"
	 viewBox="0 0 116 151.6" style="enable-background:new 0 0 116 151.6;" xml:space="preserve">
<style type="text/css">
	.st0{fill:#917900;}
	.st1{fill:#A78400;}
	.st2{fill:#B7952E;}
	.st3{fill:#F26922;}
	.st4{fill:#E81E25;}
	.st5{fill:#FAA827;}
	.st6{fill:#FB8B24;}
	.st7{fill:#F37230;}
	.st8{fill:#E76222;}
	.st9{fill:#FDCA9C;}
	.st10{fill:#8B1013;}
	.st11{fill:#A74236;}
	.st12{fill:#818F9B;}
	.st13{fill:#A01D24;}
	.st14{fill:#0F4C5C;}
	.st15{fill:#9A031E;}
	.st16{fill:#436271;}
	.st17{fill:#ABB3BC;}
	.st18{fill:#6A0509;}
	.st19{fill:#758693;}
	.st20{fill:#566F7D;}
	.st21{fill:#A63F35;}
	.st22{fill:#073642;}
	.st23{fill:#002933;}
	.st24{fill:#114553;}
	.st25{fill:#667D8A;}
	.st26{fill:#3B616F;}
	.st27{fill:#1B5362;}
	.st28{fill:#0D414F;}
	.st29{fill:#08414F;}
	.st30{fill:#003440;}
	.st31{fill:#195464;}
	.st32{fill:#708997;}
	.st33{fill:#426C7C;}
	.st34{fill:#1F5E6F;}
	.st35{fill:#155262;}
	.st36{fill:#FED3AC;}
	.st37{fill:#FCBC83;}
	.st38{fill:#5F0F40;}
	.st39{fill:#F34213;}
	.st40{fill:#F37029;}
	.st41{fill:#F04E23;}
	.st42{fill:#D0ECF4;}
	.st43{fill:#00BBD6;}
	.st44{fill:#FFFFFF;}
	.st45{fill:#D8BDAA;}
	.st46{fill:#FFF9F1;}
	.st47{fill:#9C887A;}
	.st48{fill:#FBB679;}
	.st49{fill:#DEBAB6;}
	.st50{fill:#E5C9C5;}
	.st51{fill:#E8E8F5;}
	.st52{fill:#C5C9E6;}
	.st53{fill:#7BC143;}
	.st54{fill:#BE7564;}
	.st55{fill:#5C9633;}
	.st56{fill:#E1C2B7;}
	.st57{fill:#88582C;}
	.st58{fill:#231F20;}
	.st59{fill:#A46E40;}
	.st60{fill:#FC9679;}
	.st61{fill:#F75444;}
	.st62{fill:#FFB79C;}
	.st63{fill:#D52D28;}
	.st64{fill:#EF4535;}
	.st65{fill:#BA0812;}
	.st66{fill:#EB4D3F;}
	.st67{fill:#F47864;}
	.st68{fill:#F3856C;}
	.st69{fill:#F8705F;}
	.st70{fill:#FFAA90;}
	.st71{fill:#E93B33;}
	.st72{fill:#F36151;}
	.st73{fill:#FF896E;}
	.st74{fill:#FB433A;}
	.st75{fill:#D31E22;}
	.st76{fill:#ED3429;}
	.st77{fill:#B8001A;}
	.st78{fill:#FE6255;}
	.st79{fill:#FE7961;}
	.st80{fill:#A26538;}
	.st81{fill:#DDA377;}
	.st82{fill:#7E4B20;}
	.st83{fill:#BE7747;}
	.st84{fill:#C6D8DF;}
	.st85{fill:#E5F2F8;}
	.st86{fill:#EDF5F6;}
	.st87{fill:#5B6977;}
	.st88{fill:#A3CBE5;}
	.st89{fill:#F89C69;}
	.st90{fill:#F9A873;}
	.st91{fill:#FBB686;}
	.st92{fill:#B9E5FB;}
	.st93{fill:#060115;}
	.st94{fill:#1B181A;}
	.st95{fill:#08041E;}
	.st96{fill:#020009;}
	.st97{fill:#0F0A2C;}
	.st98{fill:#15123A;}
	.st99{fill:#08051D;}
	.st100{fill:#2B254D;}
	.st101{fill:#3A0F00;}
	.st102{fill:#522915;}
	.st103{fill:#310B00;}
	.st104{fill:#431A00;}
	.st105{fill:#0C0825;}
	.st106{fill:#310A00;}
	.st107{fill:#110B14;}
	.st108{fill:#A97C50;}
	.st109{fill:#D4EFFC;}
	.st110{fill:#8B5E3C;}
	.st111{fill:#2B282F;}
	.st112{fill:#C7C6C1;}
	.st113{fill:#603913;}
	.st114{fill:#0F0C2C;}
	.st115{fill:#754C29;}
	.st116{fill:#E8F6FF;}
	.st117{fill:#252228;}
	.st118{fill:#13153F;}
	.st119{fill:#0F0B12;}
	.st120{fill:#07062B;}
	.st121{fill:#CCE6F3;}
	.st122{fill:#24284D;}
	.st123{fill:#373860;}
	.st124{fill:#282650;}
	.st125{fill:#3F3C6E;}
	.st126{fill:#242333;}
	.st127{fill:#01001D;}
	.st128{fill:#060428;}
	.st129{fill:#3A3764;}
	.st130{fill:#090931;}
	.st131{fill:#BC7227;}
	.st132{fill:#DE9943;}
	.st133{fill:#A3692B;}
	.st134{fill:#151945;}
	.st135{fill:#111338;}
	.st136{fill:#060629;}
	.st137{fill:#633803;}
	.st138{fill:#9EABC0;}
	.st139{fill:#AF321F;}
	.st140{fill:#FCBB81;}
	.st141{fill:#FDC99A;}
	.st142{fill:#D53D1F;}
	.st143{fill:#C23922;}
	.st144{fill:#770D12;}
	.st145{fill:#5E0203;}
	.st146{fill:#B3232B;}
	.st147{fill:#CD3A1D;}
	.st148{fill:#A02E1F;}
	.st149{fill:#BFA3A3;}
	.st150{fill:#AF9F8F;}
	.st151{fill:#F3B478;}
	.st152{fill:#F4BE8D;}
	.st153{fill:#F3AE70;}
	.st154{fill:#F4BB85;}
	.st155{fill:#90001A;}
	.st156{fill:#B299C9;}
	.st157{fill:#A34638;}
	.st158{fill:#D7C4A6;}
	.st159{fill:#F5DFB9;}
	.st160{fill:#F3D296;}
	.st161{fill:#8D7F6B;}
	.st162{fill:#002836;}
	.st163{fill:#003645;}
	.st164{fill:#6D7E8D;}
	.st165{fill:#87929F;}
	.st166{fill:#456373;}
	.st167{fill:#758492;}
	.st168{fill:#9DA5B0;}
	.st169{fill:#B9B6B3;}
	.st170{fill:#FDE8C2;}
	.st171{fill:#979189;}
	.st172{fill:#FDCFA3;}
	.st173{fill:#FED6B0;}
	.st174{fill:#E1DACF;}
	.st175{fill:#AD5042;}
	.st176{fill:#C9C9C9;}
	.st177{fill:#FFF6E7;}
	.st178{fill:#FEDAB9;}
	.st179{fill:#CAC0D3;}
	.st180{fill:#CA7E6C;}
	.st181{fill:#670307;}
	.st182{fill:#430000;}
	.st183{fill:#CC4D42;}
	.st184{fill:#AB2128;}
	.st185{fill:#E1E7E1;}
	.st186{fill:#5FC281;}
	.st187{fill:#AFD1B4;}
	.st188{fill:#727071;}
	.st189{fill:#F0D37A;}
	.st190{fill:#F3DC96;}
	.st191{fill:#F8EBC2;}
	.st192{fill:#B1B1C9;}
	.st193{fill:#8E98A7;}
	.st194{fill:#EECF6D;}
	.st195{fill:#F4F5F5;}
	.st196{fill:#939CAB;}
	.st197{fill:#F2DA8D;}
	.st198{fill:#FAF1D3;}
	.st199{fill:#8B8BAE;}
	.st200{fill:#00AEEF;}
	.st201{fill:#FAF0D0;}
	.st202{fill:#F7E9BD;}
	.st203{fill:#F9EECA;}
	.st204{fill:#ACDEE0;}
	.st205{fill:#083D77;}
	.st206{fill:#B5C5D6;}
	.st207{fill:#F3AC71;}
	.st208{fill:#F5E3A9;}
	.st209{fill:#1E4E83;}
	.st210{fill:#0B7A75;}
	.st211{fill:#6DAFAC;}
	.st212{fill:#7C98B7;}
	.st213{fill:#F0D47D;}
	.st214{fill:#B2D235;}
	.st215{fill:#F1D784;}
	.st216{fill:#C9E071;}
	.st217{fill:#FCF5E2;}
	.st218{fill:#F6E6B3;}
	.st219{fill:#ED7C31;}
	.st220{fill:#92D7E7;}
	.st221{fill:#DE9151;}
	.st222{fill:#2E2E3A;}
	.st223{fill:#56565F;}
	.st224{fill:#BBB8B2;}
	.st225{fill:#F8F7F7;}
	.st226{fill:#CC8460;}
	.st227{fill:#BC5D2E;}
	.st228{fill:#E7E5E3;}
	.st229{fill:#C57249;}
	.st230{fill:#C97D58;}
	.st231{fill:#D5D5D8;}
	.st232{fill:#001926;}
	.st233{fill:#AFB5BD;}
	.st234{fill:#053D4D;}
	.st235{fill:#FFEED3;}
	.st236{fill:#F1995B;}
	.st237{fill:#F9E0C7;}
	.st238{fill:#FDEBE7;}
	.st239{fill:#D19871;}
	.st240{fill:#FCF4EF;}
	.st241{fill:#FFBE9F;}
	.st242{fill:#FEA985;}
	.st243{fill:#8E7867;}
	.st244{fill:#C5AB97;}
	.st245{fill:#FFB18E;}
	.st246{fill:#5F7584;}
	.st247{fill:#B6BAC2;}
	.st248{fill:#ECF8FE;}
	.st249{fill:#D7E7EF;}
	.st250{fill:#A7C6D3;}
	.st251{fill:#D5E7F0;}
	.st252{fill:#FAAA65;}
	.st253{fill:#75643E;}
	.st254{fill:#C6CDC7;}
	.st255{fill:#CCECFC;}
	.st256{fill:#5B7FAD;}
	.st257{fill:#4D0032;}
	.st258{fill:#DBDADD;}
	.st259{fill:#9C9FA8;}
	.st260{fill:#ED1C29;}
	.st261{fill:#858184;}
	.st262{fill:#D31D23;}
	.st263{fill:#BEBDD9;}
	.st264{fill:#009BD6;}
	.st265{fill:#000E89;}
	.st266{fill:#5BC9E1;}
	.st267{fill:#A2DCEB;}
	.st268{fill:#FFC51B;}
	.st269{fill:#FFAB00;}
	.st270{fill:#FE9103;}
	.st271{fill:#8CD0F3;}
	.st272{fill:#30393A;}
	.st273{fill:#4A2431;}
	.st274{fill:#181D1E;}
	.st275{fill:#1A2425;}
	.st276{fill:#A5DEF9;}
	.st277{fill:#82D3F7;}
	.st278{fill:#D7EBF5;}
	.st279{fill:#242F30;}
	.st280{fill:#9ADBF9;}
	.st281{fill:#2A3334;}
	.st282{fill:#55323C;}
	.st283{fill:#24000E;}
	.st284{fill:#411E2C;}
	.st285{fill:#7CD0F5;}
	.st286{fill:#77ACCA;}
	.st287{fill:#E6C8AC;}
	.st288{fill:#E0BA98;}
	.st289{fill:#011A20;}
	.st290{fill:#263136;}
	.st291{fill:#1D282C;}
	.st292{fill:#41494E;}
	.st293{fill:#04091D;}
	.st294{fill:#071D39;}
	.st295{fill:#070D22;}
	.st296{fill:#0B1010;}
	.st297{fill:#071D38;}
	.st298{fill:#000322;}
	.st299{fill:#C3854E;}
	.st300{fill:#D8AA80;}
	.st301{fill:#F9A36D;}
	.st302{fill:#0B2A50;}
	.st303{fill:#E3C09F;}
	.st304{fill:#350000;}
	.st305{fill:#9E3A26;}
	.st306{fill:#AA5338;}
	.st307{fill:#641C05;}
	.st308{fill:#7A2914;}
	.st309{fill:#E7A477;}
	.st310{fill:#191919;}
	.st311{fill:#DD966A;}
	.st312{fill:#0D0D0D;}
	.st313{fill:#022237;}
	.st314{fill:#241303;}
	.st315{fill:#571803;}
	.st316{fill:#6D2310;}
	.st317{fill:#090909;}
	.st318{fill:#262262;}
	.st319{fill:#222222;}
	.st320{fill:#33261D;}
	.st321{fill:#121212;}
	.st322{fill:#070707;}
	.st323{fill:#191519;}
	.st324{fill:#101010;}
	.st325{fill:#F47D5A;}
	.st326{fill:#FAAA61;}
	.st327{fill:#FBB87B;}
	.st328{fill:#FCC18A;}
	.st329{fill:#4A4948;}
	.st330{fill:#373737;}
	.st331{fill:#555352;}
	.st332{fill:#4B6B7B;}
	.st333{fill:#7C0837;}
	.st334{fill:#C64040;}
	.st335{fill:#EAEAEC;}
	.st336{fill:#5FCCF5;}
	.st337{fill:#27AAE1;}
	.st338{fill:#1C75BC;}
	.st339{fill:#C91A20;}
	.st340{fill:#A9A19B;}
	.st341{fill:#716C64;}
	.st342{fill:#8D857E;}
	.st343{fill:#8E1618;}
	.st344{fill:#261721;}
	.st345{fill:#FFEBCB;}
	.st346{fill:#FFF2DF;}
	.st347{fill:#FEDA9C;}
	.st348{fill:#ED1C24;}
	.st349{fill:#222B2C;}
	.st350{fill:#FEE4B8;}
	.st351{fill:#374041;}
	.st352{fill:#6FCDF4;}
	.st353{fill:#3F4849;}
	.st354{fill:#99D5EF;}
	.st355{fill:#59A3C2;}
	.st356{fill:#91D7F7;}
	.st357{fill:#3D2A2F;}
	.st358{fill:#283031;}
	.st359{fill:#3B4546;}
	.st360{fill:#2F3839;}
	.st361{fill:#48373A;}
	.st362{fill:#10063A;}
	.st363{fill:#1C174A;}
	.st364{fill:#EADFD3;}
	.st365{fill:#150D43;}
	.st366{fill:#201A51;}
	.st367{fill:#211D51;}
	.st368{fill:#27235A;}
	.st369{fill:#F6874B;}
	.st370{fill:#DCC9B6;}
	.st371{fill:#9F2541;}
	.st372{fill:#0A012E;}
	.st373{fill:#6C0E26;}
	.st374{fill:#8A1C37;}
	.st375{fill:#811932;}
	.st376{fill:#494472;}
	.st377{fill:#2A275F;}
	.st378{fill:#A27449;}
	.st379{fill:#333333;}
	.st380{fill:#4D4D4D;}
	.st381{fill:#3B3A3A;}
	.st382{fill:#B3B3B3;}
	.st383{fill:#8D9091;}
	.st384{fill:#6D6B6A;}
	.st385{fill:#5A5A5A;}
	.st386{fill:#FF892E;}
	.st387{fill:#F0EEE8;}
	.st388{fill:#857E61;}
	.st389{fill:#8B0304;}
	.st390{fill:#6F0000;}
	.st391{fill:#246A7F;}
	.st392{fill:#D3D0BD;}
	.st393{fill:#31373A;}
	.st394{fill:#1D272B;}
	.st395{fill:#FEE3D5;}
	.st396{fill:#165364;}
	.st397{fill:#FCCEB8;}
	.st398{fill:#FAB99D;}
	.st399{fill:#216174;}
	.st400{fill:#E9E6ED;}
	.st401{fill:#B3B1B6;}
	.st402{fill:#F47B2B;}
	.st403{fill:#C3191C;}
</style>
<g id="Layer_32">
</g>
<g id="Layer_29">
</g>
<g id="Layer_21">
</g>
<g id="Layer_25">
</g>
<g id="Layer_19">
</g>
<g id="Layer_33">
</g>
<g id="Layer_23">
</g>
<g id="Layer_77">
</g>
<g id="Layer_76">
</g>
<g id="Layer_75">
</g>
<g id="Layer_74">
</g>
<g id="Layer_73">
</g>
<g id="Layer_72">
</g>
<g id="Layer_28">
</g>
<g id="Layer_71">
</g>
<g id="Layer_69">
</g>
<g id="Layer_12">
</g>
<g id="Layer_68">
</g>
<g id="Layer_67">
</g>
<g id="Layer_39">
</g>
<g id="Layer_16">
</g>
<g id="Layer_40">
	<g>
		<g>
			<g id="XMLID_68_">
				<g>
					<path class="st188" d="M69.4,12c-0.3-1.3-1.1-1.9-2.1-1.3l-0.3,0.2c-0.1-1.6-0.9-2.4-1.9-2.1c0.4-0.3,1-0.4,1.5-0.4
						c1.6,0,2.9,1.3,2.9,2.9C69.5,11.5,69.4,11.8,69.4,12z"/>
					<path class="st188" d="M66.9,10.9l-2.9,1.7c-0.2-0.4-0.3-0.9-0.3-1.4c0-1,0.5-1.9,1.4-2.4c0,0,0,0,0,0
						C66.1,8.5,66.8,9.3,66.9,10.9z"/>
					<path class="st188" d="M8.1,41.6L64.7,8.9c0.1-0.1,0.3-0.1,0.4-0.2c-0.8,0.5-1.4,1.4-1.4,2.4c0,0.5,0.1,1,0.3,1.4L10.6,43.4
						c-1.3,0.7-2.3,3-2.3,5v88.6C7,137.4,6,138.6,5.8,140c0-0.2,0-0.4,0-0.6V46.7C5.8,44.6,6.8,42.4,8.1,41.6z"/>
					<path d="M69.5,13.2c0-0.4,0-0.8-0.1-1.1c-0.3-1.3-1.1-1.9-2.1-1.3l-0.3,0.2l-2.9,1.7L10.6,43.4c-1.3,0.7-2.3,3-2.3,5v88.6v4.1
						c0,0.2,0,0.3,0,0.4c0.1,1.4,0.8,2.3,1.6,2.2c0.2,0,0.4-0.1,0.6-0.2l56.6-32.7c1.3-0.7,2.3-3,2.3-5L69.5,13.2z"/>
					<path class="st188" d="M5.8,140c0.2,1.6,1.1,2.4,2.2,1.8l0.3-0.2c0.1,1.4,0.8,2.3,1.6,2.2C9.7,143.9,9.4,144,9,144
						c-1.8,0-3.2-1.6-3.2-3.5C5.8,140.3,5.8,140.2,5.8,140z"/>
					<path class="st188" d="M8.1,141.8c-1.1,0.6-2-0.1-2.2-1.8c0.2-1.5,1.2-2.6,2.5-2.9v4.1c0,0.2,0,0.3,0,0.4L8.1,141.8z"/>
					<path class="st42" d="M67.3,17.6c0-0.4,0-0.7-0.1-1c-0.3-1.2-1.1-1.7-2-1.2L65,15.5l-2.7,1.5L12.5,45.8
						c-1.2,0.7-2.1,2.8-2.1,4.7v82.5v3.9c0,0.1,0,0.3,0,0.4c0.1,1.3,0.7,2.1,1.5,2c0.2,0,0.4-0.1,0.6-0.2l52.7-30.4
						c1.2-0.7,2.1-2.8,2.1-4.7L67.3,17.6z"/>
				</g>
			</g>
			<g>
				<g id="XMLID_64_">
					<g>
						<g id="XMLID_65_">
							<g>
								<path class="st189" d="M20.5,88.6l7.1,4.3l0.4-0.2l0,0L21,88.4C20.6,88.6,20.5,88.6,20.5,88.6z"/>
								<path class="st190" d="M21.1,80.5c-0.2,0.1-0.1,7.9-0.1,7.9l7.1,4.3c0,0,0.5-2.5-0.8-5.7c-0.1-0.3-0.2-0.5-0.4-0.8
									C25,82.6,21.1,80.5,21.1,80.5z"/>
								<path class="st191" d="M21.1,80.5c0,0,3.9,2.1,5.7,5.7c0.1,0.3,0.3,0.5,0.4,0.8l0.2-0.1l0-3.8c-1-1.1-2-2-2.9-2.7
									c-0.8-0.6-1.4-0.9-1.4-0.9C23.1,79.5,21.6,80.3,21.1,80.5C21.1,80.5,21.1,80.5,21.1,80.5L21.1,80.5z"/>
								<path class="st192" d="M27.4,78.9l2.7,1.6v-0.3l-1.8-1.1l-0.7-0.4C27.7,78.8,27.6,78.8,27.4,78.9z"/>
								<path class="st191" d="M27.4,83.1l0,3.8l2.6,1.5c-0.1-0.8-0.4-1.6-0.8-2.5c-0.1-0.2-0.2-0.4-0.3-0.6
									C28.5,84.4,28,83.7,27.4,83.1z"/>
								<path class="st191" d="M30.1,91.6c0.1-0.3,0.2-1.6-0.1-3.2l-2.6-1.5L27.2,87c1.4,3.2,0.8,5.7,0.8,5.7l0,0L30.1,91.6
									L30.1,91.6z"/>
								<path class="st193" d="M29.2,85.9c0.3-0.2,0.7-0.4,1-0.5l0-4.8l-2.7-1.6l0,4.1c0.5,0.6,1,1.4,1.4,2.2
									C29,85.4,29.1,85.6,29.2,85.9z"/>
								<path class="st193" d="M30.2,85.3c-0.3,0.2-0.7,0.4-1,0.5c0.4,0.9,0.6,1.8,0.8,2.5l2.4,1.4l0-3.2L30.2,85.3L30.2,85.3z"/>
								<path class="st194" d="M29.7,77.6c-2.1,1.2-4,2.1-5.2,2.8c0.8,0.6,1.9,1.5,2.9,2.7l0-4.1c0.1-0.1,0.3-0.1,0.3-0.1l0.7,0.4
									c0.3-0.1,0.5-0.1,0.7-0.2c0.3-0.2,0.5-0.3,0.6-0.4C29.7,77.9,29.7,77.6,29.7,77.6z"/>
								<path class="st192" d="M29.9,77.5c-0.1,0-0.1,0-0.2,0.1C29.8,77.6,29.9,77.5,29.9,77.5z"/>
								<path class="st192" d="M30.2,77.6L30,77.5c0,0,0,0-0.1,0c-0.1,0-0.1,0.1-0.2,0.1l0,0c0,0,0.2,0.1,0.5,0.3L30.2,77.6z"/>
								<path class="st195" d="M30.2,78.3L30,78.2c-0.1,0.1-0.2,0.2-0.3,0.3c-0.1,0.1-0.3,0.3-0.6,0.4c-0.2,0.1-0.5,0.2-0.7,0.2
									l1.8,1.1L30.2,78.3z"/>
								<path class="st196" d="M30,78.2l0.2,0.1l0-0.4c-0.3-0.2-0.5-0.3-0.5-0.3s0,0.3,0,0.9C29.9,78.4,29.9,78.3,30,78.2z"/>
								<path class="st193" d="M30.2,85.3c0.7-0.4,1.4-0.8,2.2-1.2l0-2.3l-2.2-1.3L30.2,85.3z"/>
								<path class="st193" d="M30.2,85.3L30.2,85.3l2.2,1.3l0-2.5C31.6,84.5,30.9,84.9,30.2,85.3z"/>
								<path class="st196" d="M30.2,78.3l3.7,2.1l0-0.3c-1-0.6-2.8-1.6-3.7-2.1L30.2,78.3z"/>
								<path class="st194" d="M31.9,77.4c0.3-0.2,0.5-0.3,0.6-0.4c0-0.5,0-0.8,0-0.9c-0.9,0.5-1.8,1-2.6,1.4c0.1,0,0.1,0,0.1,0
									l0.2,0.1l0-0.2c0.1-0.1,0.3-0.1,0.3-0.1l0.6,0.4C31.4,77.6,31.6,77.5,31.9,77.4z"/>
								<polygon class="st197" points="30.2,77.6 33.9,79.7 33.9,79.5 30.2,77.4 								"/>
								<path class="st198" d="M30.2,77.4l3.7,2.1l0-0.3l-2.8-1.6l-0.6-0.4C30.5,77.2,30.3,77.2,30.2,77.4z"/>
								<path class="st190" d="M32.5,76.1C32.5,76.1,32.5,76.1,32.5,76.1C32.5,76.1,32.5,76.1,32.5,76.1
									C32.5,76.1,32.5,76.1,32.5,76.1z"/>
								<path class="st198" d="M32.8,75.9c0,0-0.2,0-0.3,0.1c0,0,0,0,0,0C32.6,76,32.7,76,32.8,75.9z"/>
								<path class="st199" d="M32.4,84.1l0,2.5l2.4,1.4c0-0.8,0-2.4,0.1-4l-0.9-0.5l0-0.2C33.4,83.5,32.9,83.8,32.4,84.1z"/>
								<path class="st195" d="M33.9,80.3l-3.7-2.1l0,2l2.3,1.3l0,0c0.3-0.1,0.6-0.2,1-0.4c0.1-0.1,0.3-0.2,0.4-0.3L33.9,80.3z"/>
								<path class="st198" d="M32.8,75.9c-0.1,0.1-0.2,0.1-0.3,0.1c0.1,0.1,0.7,0.4,1.4,0.8l0-0.3L32.8,75.9z"/>
								<path class="st195" d="M33.9,79.2l0-2l-1.1-0.6c-0.1,0.1-0.2,0.2-0.3,0.3c-0.1,0.1-0.3,0.3-0.6,0.4
									c-0.2,0.1-0.5,0.2-0.7,0.2L33.9,79.2z"/>
								<path class="st192" d="M32.7,81.6l-0.2-0.1l-2.3-1.3v0.3l2.2,1.3C32.4,81.8,32.5,81.8,32.7,81.6L32.7,81.6z"/>
								<path class="st192" d="M30.2,77.9c0.9,0.5,2.7,1.5,3.7,2.1v-0.3l-3.7-2.1L30.2,77.9z"/>
								<path class="st190" d="M33.9,77.2l0-0.4c-0.7-0.4-1.3-0.7-1.4-0.8c0,0,0,0,0,0c0,0.1,0,0.4,0,0.9c0.1-0.1,0.2-0.2,0.3-0.3
									L33.9,77.2z"/>
								<path class="st199" d="M33.9,83.3l0-2.1c-0.1,0-0.1,0.1-0.2,0.1c-0.4,0.3-0.8,0.4-1,0.4c-0.2,0-0.3,0-0.3,0l0,2.3
									C32.9,83.8,33.4,83.5,33.9,83.3z"/>
								<path class="st195" d="M33.9,80.3l0,0.5c0.1-0.1,0.2-0.2,0.3-0.3L33.9,80.3z"/>
								<path class="st192" d="M33.9,80.8c-0.1,0.1-0.3,0.2-0.4,0.3c-0.4,0.2-0.7,0.4-1,0.4l0,0l0.2,0.1l0,0.1
									c0.3-0.1,0.7-0.2,1-0.4c0.1,0,0.1-0.1,0.2-0.1L33.9,80.8z"/>
								<path class="st199" d="M33.9,83.3l0,0.2l0.9,0.5c0-0.4,0-0.9,0-1.3C34.5,82.9,34.2,83.1,33.9,83.3z"/>
								<path class="st199" d="M32.3,86.6l0,3.2c0,0,0.8,0,1.5-0.3c0.7-0.4,0.9-0.9,0.9-0.9s0-0.2,0-0.6L32.3,86.6z"/>
								<path class="st196" d="M34.2,80.5c0.1-0.1,0.1-0.2,0.2-0.2c-0.1-0.1-0.3-0.2-0.5-0.3l0,0.3L34.2,80.5z"/>
								<polygon class="st200" points="37.1,77.3 33.9,75.5 33.9,76.6 37.1,78.4 								"/>
								<path class="st201" d="M33.9,75.5l3.1,1.8l0-0.3l-2.2-1.3l-0.7-0.4C34.2,75.4,34.1,75.4,33.9,75.5z"/>
								<path class="st199" d="M33.9,81.2l0,2.1c0.3-0.2,0.6-0.3,0.9-0.5c0-1.4,0-2.5,0-2.5h0C34.8,80.2,34.4,80.7,33.9,81.2z"/>
								<path class="st192" d="M33.9,79.7V80c0.2,0.1,0.3,0.2,0.5,0.3c0,0.1-0.1,0.1-0.2,0.2c-0.1,0.1-0.2,0.2-0.3,0.3l0,0.4
									c0.5-0.4,0.9-0.9,0.9-0.9h0l0,0L33.9,79.7z"/>
								<path class="st197" d="M35.1,82.6c-0.1,0.1-0.2,0.1-0.3,0.2c0,0.4,0,0.8,0,1.3l0.3,0.2L35.1,82.6z"/>
								<path class="st197" d="M35.1,84.2L34.8,84c0,1.5-0.1,3.2-0.1,4l0.4,0.2L35.1,84.2z"/>
								<path class="st197" d="M33.9,79.7l0.9,0.5l0,0c0.1,0,0.1,1.1,0,2.5c0.1-0.1,0.2-0.1,0.3-0.2l0-2.3l-1.2-0.7L33.9,79.7z"/>
								<path class="st202" d="M36.6,87.9c0.7-0.4,0.9-0.9,0.9-0.9s0-0.6,0-1.4l-2.4-1.4l0,4C35.1,88.2,35.9,88.3,36.6,87.9z"/>
								<path class="st195" d="M35.3,80c0.3-0.1,0.6-0.2,1-0.4c0.3-0.2,0.5-0.4,0.7-0.6l-3-1.7l0,2L35.3,80L35.3,80z"/>
								<path class="st198" d="M35.3,80l-1.4-0.8l0,0.3l1.2,0.7c0,0,0.1,0,0.3,0l0-0.1L35.3,80z"/>
								<path class="st201" d="M37.1,74.4l-0.6-0.3c0,0-0.2,0-0.3,0.1c0,0,0.4,0.2,0.9,0.5V74.4z"/>
								<path class="st195" d="M36.5,74.7c-0.1,0.1-0.1,0.2-0.3,0.3c-0.1,0.1-0.3,0.3-0.6,0.4c-0.2,0.1-0.5,0.2-0.7,0.2l2.2,1.3l0-2
									v0L36.5,74.7z"/>
								<path class="st202" d="M37.1,81.9l0-0.4c-0.6,0.4-1.3,0.7-1.9,1l0,1.6l2.4,1.4c0-0.9,0-2.2,0.1-3.4L37.1,81.9z"/>
								<path class="st200" d="M36.2,75.1c0.1-0.1,0.2-0.2,0.3-0.3l0.6,0.3l0-0.4c-0.5-0.3-0.9-0.5-0.9-0.5S36.2,74.5,36.2,75.1z"/>
								<path class="st202" d="M37.1,81.5l0-2.2c-0.1,0.2-0.3,0.3-0.6,0.5c-0.4,0.3-0.8,0.4-1.1,0.4c-0.2,0-0.3,0-0.3,0l0,2.3
									C35.8,82.2,36.4,81.9,37.1,81.5z"/>
								<path class="st198" d="M37.1,78.4l-3.1-1.8l0,0.3c1.1,0.6,2.5,1.4,3.2,1.8V78.4z"/>
								<path class="st190" d="M33.9,76.9l0,0.4l3,1.7c0,0,0.1-0.1,0.1-0.1l0-0.1C36.4,78.3,35,77.5,33.9,76.9z"/>
								<path class="st198" d="M37.1,79.3l0-0.5c0,0-0.1,0.1-0.1,0.1c-0.2,0.2-0.4,0.4-0.7,0.6c-0.3,0.2-0.7,0.4-1,0.4l0,0l0.2,0.1
									l0,0.1c0.3-0.1,0.7-0.2,1.1-0.4C36.7,79.6,36.9,79.4,37.1,79.3z"/>
								<path class="st190" d="M37.1,78.7C37.1,78.7,37.1,78.7,37.1,78.7L37.1,78.7C37.1,78.8,37.1,78.8,37.1,78.7z"/>
								<path class="st198" d="M37.1,78.8l0,0.5c0.3-0.3,0.5-0.6,0.5-0.6l0,0l-0.5-0.3v0.3C37.1,78.7,37.1,78.7,37.1,78.8
									C37.1,78.8,37.1,78.8,37.1,78.8z"/>
								<path class="st202" d="M37.1,81.5l0,0.4l0.5,0.3l0-1C37.4,81.3,37.2,81.4,37.1,81.5z"/>
								<path class="st200" d="M37.1,75.1l2.8,1.5l0-0.3c-0.9-0.5-2-1.2-2.8-1.6L37.1,75.1L37.1,75.1z"/>
								<path class="st202" d="M37.6,81.2l0-2.5c0,0-0.2,0.3-0.5,0.6l0,2.2C37.2,81.4,37.4,81.3,37.6,81.2z"/>
								<path class="st200" d="M38.8,83l0-2.5c-0.4,0.2-0.8,0.5-1.3,0.7l0,1L38.8,83z"/>
								<path class="st200" d="M38.8,83l-1.3-0.7c0,1.2,0,2.4-0.1,3.4l1.3,0.8L38.8,83z"/>
								<polygon class="st3" points="37.1,74.4 39.9,76 39.9,75.6 37.1,74 								"/>
								<path class="st203" d="M37.1,74l2.7,1.6l0-0.3L38,74.2l-0.6-0.4C37.4,73.8,37.2,73.8,37.1,74z"/>
								<path class="st201" d="M37.1,74.7c0.8,0.4,1.9,1.1,2.8,1.6l0-0.3l-2.8-1.6V74.7z"/>
								<path class="st200" d="M38.8,80.5l0-2.2l-1.8-1l0,1.1l0.5,0.3l0,0l0,2.5C38,81,38.4,80.8,38.8,80.5z"/>
								<path class="st204" d="M39.8,80.4l0-0.4c-0.3,0.2-0.7,0.4-1,0.5l0,2.5l2.4,1.4c0-0.7,0-1.9,0.1-3.1L39.8,80.4z"/>
								<path class="st195" d="M39.9,76.6l-2.8-1.5l0,2l1.9,1.1l0,0c0.2,0,0.5-0.1,0.8-0.3L39.9,76.6z"/>
								<path class="st201" d="M39,78.1L37.1,77l0,0.3l1.8,1c0,0,0.1,0,0.3,0l0-0.1L39,78.1z"/>
								<path class="st204" d="M39.8,80l0-1.9c-0.3,0.1-0.5,0.2-0.7,0.2c-0.2,0-0.3,0-0.3,0l0,2.2C39.2,80.3,39.5,80.2,39.8,80z"/>
								<path class="st203" d="M39.9,72.6l-0.2-0.1c0,0-0.2,0-0.3,0.1c0,0,0.2,0.1,0.5,0.3L39.9,72.6z"/>
								<path class="st195" d="M39.7,73.2c-0.1,0.1-0.2,0.2-0.3,0.3c-0.1,0.1-0.3,0.3-0.6,0.4c-0.2,0.1-0.5,0.2-0.7,0.2l1.8,1.1l0-2
									L39.7,73.2z"/>
								<path class="st3" d="M39.4,73.6c0.1-0.1,0.2-0.2,0.3-0.3l0.2,0.1l0-0.4c-0.3-0.2-0.5-0.3-0.5-0.3S39.4,73,39.4,73.6z"/>
								<path class="st201" d="M39.2,78.3c0.2,0,0.4-0.1,0.7-0.2l0-0.3c-0.3,0.2-0.6,0.3-0.8,0.3l0,0L39.2,78.3L39.2,78.3z"/>
								<path class="st195" d="M39.9,76.6l0,1.2c0,0,0.1,0,0.1-0.1c0.3-0.2,0.5-0.4,0.7-0.6L39.9,76.6z"/>
								<path class="st204" d="M39.8,80l0,0.4l1.5,0.9c0-0.7,0-1.4,0-2.1C40.8,79.4,40.3,79.7,39.8,80z"/>
								<path class="st204" d="M41.2,85.2c0,0,0-0.3,0-0.8L38.8,83l0,3.4c0,0,0.8,0,1.5-0.3C40.9,85.7,41.2,85.2,41.2,85.2z"/>
								<path class="st3" d="M39.9,73.3l3.7,2.1v-0.3c-1-0.6-2.8-1.6-3.7-2.1L39.9,73.3z"/>
								<path class="st200" d="M40.7,77.1c0.1-0.1,0.1-0.1,0.2-0.2c-0.2-0.1-0.6-0.3-1-0.6l0,0.3L40.7,77.1z"/>
								<path class="st201" d="M40.9,76.9c-0.1,0.1-0.1,0.1-0.2,0.2c-0.2,0.2-0.4,0.4-0.7,0.6c0,0-0.1,0.1-0.1,0.1l0,0.3
									c0.1,0,0.3-0.1,0.4-0.2c0.6-0.4,1-1,1-1h0v0L39.9,76l0,0.3C40.3,76.5,40.6,76.7,40.9,76.9z"/>
								<path class="st204" d="M39.8,80c0.5-0.3,1-0.6,1.5-0.8c0-1.3,0-2.4,0-2.4h0c0,0-0.4,0.6-1,1C40.1,78,40,78,39.8,78.1
									L39.8,80z"/>
								<path class="st3" d="M42,81.7l0-2.9c-0.2,0.1-0.5,0.3-0.7,0.4c0,0.6,0,1.4,0,2.1L42,81.7z"/>
								<path class="st3" d="M42,81.7l-0.7-0.4c0,1.2,0,2.4-0.1,3.1l0.8,0.4L42,81.7z"/>
								<path class="st3" d="M42,76.8l-2.2-1.3l0,0.4l1.4,0.8v0c0,0,0.1,1,0,2.4c0.2-0.1,0.5-0.3,0.7-0.4L42,76.8z"/>
								<polygon class="st205" points="39.9,72.6 43.6,74.8 43.6,74.6 39.9,72.4 								"/>
								<path class="st206" d="M39.9,72.4l3.7,2.1v-0.3l-2.8-1.6l-0.6-0.4C40.2,72.3,40,72.3,39.9,72.4z"/>
								<path class="st206" d="M42.5,71c0,0-0.2,0-0.3,0.1c0,0,0.6,0.4,1.4,0.8l0-0.3L42.5,71z"/>
								<path class="st207" d="M44.1,84c0.2-0.2,0.3-0.4,0.3-0.4s0-0.2,0-0.6L42,81.7l0,3.1c0,0,0.3,0,0.7-0.1L44.1,84z"/>
								<path class="st195" d="M43.6,75.4l-3.7-2.1l0,2l2.3,1.3l0,0c0.3-0.1,0.6-0.2,1-0.4c0.1-0.1,0.3-0.2,0.4-0.3L43.6,75.4z"/>
								<path class="st189" d="M33.8,89.4c-0.7,0.4-1.4,0.4-1.4,0.4L30,88.4c0.3,1.3,0.3,2.6,0.1,3.3l12.6-6.9c-0.3,0-0.6,0-0.6,0
									l-0.8-0.4c0,0.5,0,0.8,0,0.8S41,85.6,40.4,86c-0.7,0.4-1.5,0.4-1.5,0.4l-1.4-0.8c0,0.9,0,1.4,0,1.4s-0.2,0.4-0.8,0.8
									c-0.7,0.4-1.5,0.4-1.5,0.4l-0.5-0.3c0,0.3,0,0.6,0,0.6S34.5,89,33.8,89.4z"/>
								<path class="st195" d="M43.6,74.3l0-2l-1.1-0.6c-0.1,0.1-0.2,0.2-0.3,0.3c-0.1,0.1-0.3,0.3-0.6,0.4
									c-0.2,0.1-0.5,0.2-0.7,0.2L43.6,74.3z"/>
								<path class="st203" d="M42,76.8c0,0,0.1,0,0.3,0l0-0.1l-0.2-0.1l-2.3-1.3l0,0.3L42,76.8z"/>
								<path class="st208" d="M44.1,84l-1.4,0.8c0.2,0,0.5-0.1,0.8-0.3C43.7,84.3,44,84.1,44.1,84z"/>
								<path class="st207" d="M43.5,77.9c-0.5,0.3-1,0.6-1.5,0.8l0,2.9l2.4,1.4c0-0.8,0-2.2,0.1-3.6c0-0.1,0-0.3,0-0.4l-0.9-0.5
									L43.5,77.9z"/>
								<path class="st203" d="M39.9,72.9c0.9,0.5,2.7,1.5,3.7,2.1l0-0.3l-3.7-2.1L39.9,72.9z"/>
								<path class="st209" d="M43.6,72.3l0-0.4c-0.8-0.5-1.4-0.8-1.4-0.8s0,0.3,0,0.9c0.1-0.1,0.2-0.2,0.3-0.3L43.6,72.3z"/>
								<path class="st207" d="M43.5,77.9l0-1.7c-0.1,0-0.1,0.1-0.2,0.1c-0.4,0.3-0.8,0.4-1.1,0.4c-0.2,0-0.3,0-0.3,0l0,1.9
									C42.5,78.5,43,78.2,43.5,77.9z"/>
								<path class="st209" d="M46.3,73.5c-0.7-0.4-1.8-1.1-2.7-1.6l0,0.4l2.7,1.5V73.5z"/>
								<path class="st195" d="M43.9,75.5l-0.3-0.2l0,0.5C43.7,75.7,43.8,75.6,43.9,75.5z"/>
								<path class="st203" d="M43.6,75.8c-0.1,0.1-0.3,0.2-0.4,0.3c-0.4,0.2-0.7,0.4-1,0.4l0,0l0.2,0.1l0,0.1
									c0.3-0.1,0.7-0.2,1.1-0.4c0.1,0,0.1-0.1,0.2-0.1L43.6,75.8z"/>
								<path class="st207" d="M43.5,77.9l0,0.6l0.9,0.5c0-0.6,0-1.1,0-1.7C44.2,77.6,43.9,77.8,43.5,77.9z"/>
								<path class="st3" d="M43.9,75.5c0.1-0.1,0.1-0.1,0.2-0.2c-0.1-0.1-0.3-0.2-0.5-0.3v0.3L43.9,75.5z"/>
								<path class="st206" d="M43.6,71.9c0.9,0.5,2,1.1,2.7,1.6l0-0.3l-2.7-1.6L43.6,71.9z"/>
								<path class="st203" d="M43.6,76.2c0.5-0.4,0.9-0.9,0.9-0.9l0,0l-0.9-0.5l0,0.3c0.2,0.1,0.3,0.2,0.5,0.3
									c0,0.1-0.1,0.1-0.2,0.2c-0.1,0.1-0.2,0.2-0.3,0.3L43.6,76.2z"/>
								<polygon class="st210" points="43.6,71.6 46.3,73.2 46.3,72.1 43.6,70.5 								"/>
								<path class="st211" d="M43.6,70.5l2.7,1.6v-0.3l-1.8-1l-0.6-0.4C43.9,70.4,43.7,70.4,43.6,70.5z"/>
								<path class="st207" d="M44.4,75.3c0,0-0.3,0.5-0.9,0.9l0,1.7c0.3-0.2,0.6-0.4,0.9-0.5L44.4,75.3z"/>
								<path class="st205" d="M44.8,75.3l-1.2-0.7l0,0.2l0.9,0.5l0,0l0.1,2.1c0.1-0.1,0.2-0.1,0.3-0.2L44.8,75.3z"/>
								<path class="st205" d="M44.8,77.2c-0.1,0.1-0.2,0.1-0.3,0.2c0,0.5,0,1.1,0,1.7l0.3,0.2L44.8,77.2z"/>
								<path class="st205" d="M44.5,79.5c0,1.4,0,2.8-0.1,3.6l0.4,0.2l0-4l-0.3-0.2C44.5,79.2,44.5,79.3,44.5,79.5z"/>
								<path class="st212" d="M46.8,82.5c0.2-0.2,0.3-0.4,0.3-0.4s0-0.6,0-1.4l-2.4-1.4l0,4c0,0,0.3,0,0.8-0.1L46.8,82.5
									C46.8,82.5,46.8,82.5,46.8,82.5z"/>
								<path class="st189" d="M45.6,83.2c-0.4,0.1-0.8,0.1-0.8,0.1l-0.5-0.2c0,0.3,0,0.6,0,0.6s-0.1,0.2-0.3,0.4L45.6,83.2z"/>
								<path class="st195" d="M44.9,75c0.3-0.1,0.6-0.2,1-0.4c0.1-0.1,0.2-0.2,0.3-0.3l0-0.6l-2.7-1.5l0,2L44.9,75L44.9,75z"/>
								<path class="st206" d="M43.6,74.6l1.2,0.7c0,0,0.1,0,0.3,0l0-0.1l-0.2-0.1l-1.4-0.8V74.6z"/>
								<path class="st212" d="M46.3,77l0-0.6c-0.5,0.3-1,0.5-1.5,0.8l0,2l2.4,1.4c0-0.8,0-1.8,0.1-2.7c0-0.1,0-0.2,0-0.4L46.3,77z"
									/>
								<path class="st212" d="M46.8,82.5l-1.3,0.7c0.2,0,0.5-0.1,0.7-0.3C46.5,82.8,46.7,82.7,46.8,82.5z"/>
								<path class="st206" d="M45.1,75.2c0.3-0.1,0.7-0.2,1.1-0.4c0,0,0.1,0,0.1-0.1l0-0.4c-0.1,0.1-0.2,0.2-0.3,0.3
									c-0.3,0.2-0.7,0.4-1,0.4l0,0L45.1,75.2L45.1,75.2z"/>
								<path class="st211" d="M46.3,69.2l-0.1-0.1c0,0-0.2,0-0.3,0.1c0,0,0.2,0.1,0.4,0.2V69.2z"/>
								<path class="st195" d="M46.2,69.8c-0.1,0.1-0.1,0.2-0.3,0.3c-0.1,0.1-0.3,0.3-0.6,0.4c-0.2,0.1-0.5,0.2-0.7,0.2l1.8,1l0-1.9
									L46.2,69.8z"/>
								<path class="st213" d="M46.3,69.5c-0.3-0.1-0.4-0.2-0.4-0.2s0,0.3,0,0.9c0.1-0.1,0.2-0.2,0.3-0.3l0.1,0.1L46.3,69.5z"/>
								<path class="st212" d="M46.2,74.8c-0.4,0.3-0.8,0.4-1.1,0.4c-0.2,0-0.3,0-0.3,0l0,2c0.5-0.3,1-0.5,1.5-0.8L46.2,74.8
									C46.2,74.8,46.2,74.8,46.2,74.8z"/>
								<path class="st195" d="M46.3,73.8l0,0.6c0.1-0.1,0.3-0.2,0.4-0.4L46.3,73.8z"/>
								<path class="st212" d="M46.3,76.4l0,0.6l1,0.6c0-0.6,0-1.2,0-1.7C46.9,76.1,46.6,76.2,46.3,76.4z"/>
								<path class="st209" d="M46.6,74c0.1-0.1,0.1-0.1,0.2-0.2c-0.1-0.1-0.3-0.2-0.5-0.3v0.3L46.6,74z"/>
								<path class="st206" d="M46.3,74.7c0.6-0.4,0.9-1,0.9-1l0,0l-0.9-0.5l0,0.3c0.2,0.1,0.4,0.2,0.5,0.3c0,0.1-0.1,0.1-0.2,0.2
									c-0.1,0.1-0.2,0.2-0.4,0.4L46.3,74.7z"/>
								<path class="st210" d="M46.3,69.9l2.8,1.5v-0.3c-1-0.6-2.2-1.2-2.8-1.6L46.3,69.9z"/>
								<path class="st212" d="M47.3,75.9l-0.1-2.1c0,0-0.3,0.5-0.9,1l0,1.7C46.6,76.2,46.9,76.1,47.3,75.9z"/>
								<path class="st210" d="M48.5,81.4l0-3.1l-1.2-0.7c0,0.1,0,0.2,0,0.4c0,1,0,2-0.1,2.7L48.5,81.4z"/>
								<path class="st211" d="M46.3,69.5c0.6,0.4,1.8,1,2.8,1.6v-0.3l-2.8-1.6V69.5z"/>
								<polygon class="st214" points="46.3,69.2 49.1,70.8 49.1,70.6 46.3,69 								"/>
								<path class="st203" d="M46.3,69l2.8,1.6v-0.3l-1.8-1.1l-0.6-0.4C46.6,68.9,46.4,68.9,46.3,69z"/>
								<path class="st210" d="M48.5,78.3l0-3.1c-0.4,0.2-0.8,0.5-1.2,0.7c0,0.5,0,1.1,0,1.7L48.5,78.3z"/>
								<path class="st203" d="M49.1,68l0-0.3l-0.2-0.1c0,0-0.2,0-0.3,0.1C48.6,67.7,48.8,67.8,49.1,68z"/>
								<path class="st210" d="M48.5,73.4l-2.2-1.3l0,1.1l0.9,0.5l0,0l0.1,2.1c0.4-0.2,0.8-0.5,1.2-0.7L48.5,73.4z"/>
								<path class="st210" d="M49,75.4l0-0.5c-0.2,0.1-0.3,0.2-0.5,0.3l0,3.1l2.4,1.4c0-0.7,0-1.9,0.1-3.1L49,75.4z"/>
								<path class="st210" d="M48.5,78.3l0,3.1c0,0,0.2,0,0.4,0l1.9-1c0.1-0.1,0.1-0.1,0.1-0.1s0-0.2,0-0.5L48.5,78.3z"/>
								<path class="st195" d="M49,73.1l0-1.7l-2.8-1.5l0,1.9l2.4,1.4l0,0C48.8,73.1,48.9,73.1,49,73.1z"/>
								<path class="st189" d="M48.9,81.4c-0.2,0-0.4,0-0.4,0l-1.4-0.8c0,0.8,0,1.4,0,1.4s-0.2,0.2-0.3,0.4L48.9,81.4z"/>
								<path class="st195" d="M49.1,68.4l-0.2-0.1c-0.1,0.1-0.2,0.2-0.3,0.3c-0.1,0.1-0.3,0.3-0.6,0.4c-0.2,0.1-0.5,0.2-0.7,0.2
									l1.8,1.1L49.1,68.4z"/>
								<path class="st211" d="M48.5,73.4c0,0,0.1,0,0.3,0l0-0.1l-0.2-0.1l-2.4-1.4v0.3L48.5,73.4z"/>
								<path class="st210" d="M48.8,73.4c-0.2,0-0.3,0-0.3,0l0,1.8c0.2-0.1,0.3-0.2,0.5-0.3l0-1.6C49,73.3,48.9,73.4,48.8,73.4z"/>
								<path class="st211" d="M48.6,73.2l0.2,0.1l0,0.1c0.1,0,0.1,0,0.2-0.1l0-0.3C48.9,73.1,48.8,73.1,48.6,73.2L48.6,73.2z"/>
								<path class="st215" d="M48.9,68.3l0.2,0.1l0-0.4c-0.3-0.2-0.5-0.3-0.5-0.3s0,0.3,0,0.9C48.7,68.5,48.8,68.4,48.9,68.3z"/>
								<path class="st195" d="M50.3,72.1l-1.3-0.7l0,1.7c0.2-0.1,0.4-0.2,0.6-0.3C49.9,72.6,50.2,72.3,50.3,72.1z"/>
								<path class="st210" d="M50.8,80.4l-1.9,1c0.3,0,0.7-0.1,1.1-0.3C50.4,80.8,50.6,80.5,50.8,80.4z"/>
								<path class="st210" d="M49,74.9l0,0.5l1.9,1.1c0-0.9,0-1.9,0-2.7C50.3,74.2,49.7,74.5,49,74.9z"/>
								<path class="st215" d="M52.8,70.1c-1-0.6-2.8-1.6-3.7-2.1l0,0.4l3.7,2.1V70.1z"/>
								<path class="st210" d="M50.3,72.1c0.1-0.1,0.1-0.1,0.2-0.2c-0.3-0.2-0.9-0.5-1.5-0.8v0.3L50.3,72.1z"/>
								<polygon class="st205" points="52.8,69.6 49.1,67.5 49.1,67.7 52.8,69.8 								"/>
								<path class="st206" d="M49.1,67.5l3.7,2.1v-0.3L50,67.7l-0.6-0.4C49.4,67.4,49.2,67.3,49.1,67.5z"/>
								<path class="st210" d="M51,73.8c0-1.1,0-1.9,0-1.9h0c0,0-0.4,0.6-1,1c-0.3,0.2-0.6,0.3-0.8,0.4l0,1.6
									C49.7,74.5,50.3,74.2,51,73.8z"/>
								<path class="st211" d="M49.9,72.9c0.6-0.4,1-1,1-1h0l0,0l-1.9-1.1v0.3c0.6,0.3,1.1,0.7,1.5,0.8c-0.1,0.1-0.1,0.1-0.2,0.2
									c-0.2,0.2-0.4,0.4-0.7,0.6c-0.2,0.1-0.4,0.2-0.6,0.3l0,0.3C49.3,73.3,49.6,73.1,49.9,72.9z"/>
								<path class="st214" d="M51.2,73.7c-0.1,0-0.2,0.1-0.3,0.1c0,0.8,0,1.8,0,2.7l0.3,0.2L51.2,73.7z"/>
								<path class="st214" d="M51.2,76.7l-0.3-0.2c0,1.3,0,2.5-0.1,3.1l0.3,0.2L51.2,76.7z"/>
								<path class="st214" d="M50.9,71.9c0,0,0.1,0.8,0,1.9c0.1,0,0.2-0.1,0.3-0.1l0-1.8l-2.2-1.3l0,0.2L50.9,71.9L50.9,71.9z"/>
								<path class="st206" d="M51.4,66.2c0,0,0.6,0.4,1.4,0.8l0-0.3L51.7,66C51.7,66,51.5,66,51.4,66.2z"/>
								<path class="st216" d="M51.2,76.7l0,3.2c0,0,0.2,0,0.5,0l1.7-0.9c0.1-0.2,0.2-0.3,0.2-0.3s0-0.2,0-0.6L51.2,76.7z"/>
								<path class="st189" d="M50.8,80.4l1-0.5c-0.3,0-0.5,0-0.5,0l-0.4-0.2c0,0.3,0,0.5,0,0.5S50.9,80.3,50.8,80.4z"/>
								<path class="st195" d="M51.4,71.6c0.3-0.1,0.6-0.2,1-0.4c0.1-0.1,0.3-0.2,0.4-0.3l0-0.5l-3.7-2.1l0,2L51.4,71.6L51.4,71.6z"
									/>
								<path class="st195" d="M51.4,67.1c-0.1,0.1-0.3,0.3-0.6,0.4c-0.2,0.1-0.5,0.2-0.7,0.2l2.8,1.6l0-2l-1.1-0.6
									C51.6,66.8,51.5,66.9,51.4,67.1z"/>
								<path class="st203" d="M51.4,71.7l-2.3-1.3v0.3l2.2,1.3c0,0,0.1,0,0.3,0l0-0.1L51.4,71.7z"/>
								<path class="st216" d="M52.7,72.8c-0.5,0.3-1,0.5-1.5,0.8l0,3l2.4,1.4c0-0.8,0-2.2,0.1-3.6c0-0.1,0-0.3,0-0.4l-0.9-0.5
									L52.7,72.8z"/>
								<path class="st217" d="M53.4,78.9l-1.7,0.9c0.3,0,0.6-0.1,0.9-0.3C53,79.3,53.2,79.1,53.4,78.9z"/>
								<path class="st203" d="M49.1,68c0.8,0.5,2.7,1.5,3.7,2.1l0-0.3l-3.7-2.1L49.1,68z"/>
								<path class="st209" d="M51.4,67.1c0.1-0.1,0.2-0.2,0.3-0.3l1.1,0.6l0-0.4c-0.8-0.5-1.4-0.8-1.4-0.8S51.4,66.5,51.4,67.1z"/>
								<path class="st216" d="M52.6,71.4c-0.4,0.3-0.8,0.4-1,0.4c-0.2,0-0.3,0-0.3,0l0,1.8c0.5-0.3,1-0.6,1.5-0.8l0-1.6
									C52.7,71.3,52.6,71.3,52.6,71.4z"/>
								<path class="st195" d="M53.1,70.6l-0.3-0.2l0,0.5C52.9,70.8,53,70.7,53.1,70.6z"/>
								<path class="st203" d="M52.6,71.4c0.1,0,0.1-0.1,0.2-0.1l0-0.4c-0.1,0.1-0.3,0.2-0.4,0.3c-0.3,0.2-0.7,0.4-1,0.4l0,0
									l0.2,0.1l0,0.1C51.8,71.8,52.2,71.6,52.6,71.4z"/>
								<path class="st216" d="M52.7,72.8l0,0.7l0.9,0.5c0-0.6,0-1.2,0-1.8C53.4,72.5,53.1,72.7,52.7,72.8z"/>
								<path class="st215" d="M53.2,70.4c-0.1-0.1-0.3-0.2-0.5-0.3v0.3l0.3,0.2C53.1,70.5,53.2,70.4,53.2,70.4z"/>
								<path class="st203" d="M53.6,70.3l-0.9-0.5l0,0.3c0.2,0.1,0.3,0.2,0.5,0.3c0,0.1-0.1,0.1-0.2,0.2c-0.1,0.1-0.2,0.2-0.3,0.3
									l0,0.4C53.3,70.8,53.6,70.3,53.6,70.3L53.6,70.3z"/>
								<path class="st211" d="M52.8,65.6l3.3,1.9c0-0.1,0-0.2,0-0.3l-2.3-1.3l-0.6-0.4C53.1,65.5,52.9,65.5,52.8,65.6z"/>
								<path class="st216" d="M53.7,72.3l-0.1-2c0,0-0.3,0.5-0.9,0.9l0,1.6C53.1,72.7,53.4,72.5,53.7,72.3z"/>
								<path class="st205" d="M53.7,72.3c0,0.5,0,1.2,0,1.8l0.3,0.2l0-2.1C53.9,72.2,53.8,72.3,53.7,72.3z"/>
								<path class="st205" d="M53.7,74.5c0,1.4-0.1,2.8-0.1,3.6l0.4,0.2l0-4l-0.3-0.2C53.7,74.2,53.7,74.4,53.7,74.5z"/>
								<path class="st205" d="M52.8,69.8l0.9,0.5l0,0l0.1,2c0.1-0.1,0.2-0.1,0.3-0.2l0-1.8l-1.2-0.7L52.8,69.8z"/>
								<path class="st212" d="M56.1,77.5c0.2-0.2,0.2-0.3,0.2-0.3s0-0.6,0-1.4L54,74.3l0,4c0,0,0.3,0,0.6,0L56.1,77.5z"/>
								<path class="st189" d="M53.5,78.9l1.2-0.7c-0.4,0.1-0.6,0-0.6,0l-0.4-0.3c0,0.3,0,0.6,0,0.6S53.5,78.8,53.5,78.9z"/>
								<path class="st195" d="M52.8,69.3l1.4,0.8l0,0c0.3-0.1,0.6-0.2,1-0.4c0.3-0.2,0.5-0.4,0.7-0.6l-3-1.7L52.8,69.3z"/>
								<path class="st206" d="M52.8,69.6l1.2,0.7c0,0,0.1,0,0.3,0l0-0.1l-0.2-0.1l-1.4-0.8V69.6z"/>
								<path class="st218" d="M54.6,62.4L21.2,80.5c0.4-0.2,1.9-0.9,2-1c0,0,0.6,0.3,1.4,0.9c1.3-0.7,3.1-1.7,5.2-2.8l0,0
									c0.1-0.1,0.1-0.1,0.2-0.1c0.8-0.4,1.7-0.9,2.6-1.4c0,0,0,0,0,0c0.1-0.1,0.3-0.1,0.3-0.1c8.1-4.4,18.8-10.1,23.3-12.6
									c-0.6-0.5-1.1-0.8-1.4-0.9L54.6,62.4L54.6,62.4z"/>
								<path class="st212" d="M56.1,77.5l-1.5,0.8c0.3,0,0.5-0.1,0.8-0.3C55.7,77.8,56,77.6,56.1,77.5z"/>
								<path class="st211" d="M55.1,64.3c0,0,0.4,0.2,1,0.5c0-0.1,0-0.2,0-0.3l-0.7-0.4C55.4,64.2,55.2,64.2,55.1,64.3z"/>
								<path class="st195" d="M55.1,65.2c-0.1,0.1-0.3,0.3-0.6,0.4c-0.2,0.1-0.5,0.2-0.7,0.2l2.3,1.3c0-0.7,0-1.3,0-2l-0.7-0.4
									C55.3,64.9,55.2,65.1,55.1,65.2z"/>
								<path class="st194" d="M51.4,66.2c0.1-0.1,0.3-0.1,0.3-0.1l1.1,0.7l0-1.1c0.1-0.1,0.3-0.1,0.3-0.1l0.6,0.4
									c0.3-0.1,0.5-0.1,0.7-0.2c0.3-0.2,0.5-0.3,0.6-0.4c0-0.6,0-0.9,0-0.9c0.1-0.1,0.3-0.1,0.3-0.1l0.7,0.4c0-0.4,0-0.8,0-1.2
									c-4.5,2.4-15.2,8.2-23.3,12.6l1.1,0.7l0-1.1c0.1-0.1,0.3-0.1,0.3-0.1l0.7,0.4c0.3-0.1,0.5-0.1,0.7-0.2
									c0.3-0.2,0.5-0.3,0.6-0.4c0-0.6,0-0.9,0-0.9c0.1-0.1,0.3-0.1,0.3-0.1l0.6,0.3l0-0.4c0.1-0.1,0.3-0.1,0.3-0.1l0.6,0.4
									c0.3-0.1,0.5-0.1,0.7-0.2c0.3-0.2,0.5-0.3,0.6-0.4c0-0.6,0-0.9,0-0.9c0.1-0.1,0.3-0.1,0.3-0.1l0.2,0.1l0-0.2
									c0.1-0.1,0.3-0.1,0.3-0.1l0.6,0.4c0.3-0.1,0.5-0.1,0.7-0.2c0.3-0.2,0.5-0.3,0.6-0.4c0-0.6,0-0.9,0-0.9
									c0.1-0.1,0.3-0.1,0.3-0.1l1.1,0.7l0-1.1c0.1-0.1,0.3-0.1,0.3-0.1l0.6,0.4c0.3-0.1,0.5-0.1,0.7-0.2c0.3-0.2,0.5-0.3,0.6-0.4
									c0-0.6,0-0.9,0-0.9c0.1-0.1,0.3-0.1,0.3-0.1l0.1,0.1l0-0.2c0.1-0.1,0.3-0.1,0.3-0.1l0.6,0.4c0.3-0.1,0.5-0.1,0.7-0.2
									c0.3-0.2,0.5-0.3,0.6-0.4c0-0.6,0-0.9,0-0.9c0.1-0.1,0.3-0.1,0.3-0.1l0.2,0.1l0-0.2c0.1-0.1,0.3-0.1,0.3-0.1l0.6,0.4
									c0.3-0.1,0.5-0.1,0.7-0.2c0.3-0.2,0.5-0.3,0.6-0.4C51.4,66.5,51.4,66.2,51.4,66.2z"/>
								<path class="st212" d="M56.1,71c-0.6,0.3-1.3,0.7-2.1,1.2l0,2.1l2.4,1.4c0-1.2,0.1-3,0.1-4.5L56.1,71z"/>
								<path class="st209" d="M56,68.8c-0.6-0.4-2.1-1.2-3.2-1.9l0,0.4l3,1.7C55.9,69,56,68.9,56,68.8z"/>
								<path class="st219" d="M55.4,64.8l0.7,0.4c0-0.1,0-0.3,0-0.4c-0.6-0.3-1-0.5-1-0.5s0,0.3,0,0.9
									C55.2,65.1,55.3,64.9,55.4,64.8z"/>
								<path class="st219" d="M52.8,66.7l3.3,1.9c0-0.4,0-0.7,0-1.1l-3.3-1.9L52.8,66.7z"/>
								<path class="st212" d="M56.1,69.2c-0.2,0.2-0.4,0.4-0.7,0.6c-0.4,0.3-0.8,0.4-1.1,0.4c-0.2,0-0.3,0-0.3,0l0,1.8
									c0.8-0.4,1.5-0.8,2.1-1.2C56.1,71,56.1,70.3,56.1,69.2z"/>
								<path class="st206" d="M56.1,69.2c0-0.2,0-0.4,0-0.6l-3.3-1.9l0,0.3c1.1,0.6,2.6,1.5,3.2,1.9c0,0.1-0.1,0.1-0.2,0.2
									c-0.2,0.2-0.4,0.4-0.7,0.6c-0.4,0.2-0.7,0.4-1,0.4l0,0l0.2,0.1l0,0.1c0.3-0.1,0.7-0.2,1.1-0.4
									C55.7,69.7,55.9,69.4,56.1,69.2z"/>
								<path class="st206" d="M56.1,68.6c0,0.2,0,0.4,0,0.6c0.2-0.2,0.3-0.4,0.3-0.4h0l0,0L56.1,68.6z"/>
								<path class="st212" d="M56.5,71.2c0-1.4,0-2.4,0-2.4h0c0,0-0.1,0.2-0.3,0.4c0,1,0,1.8,0,1.8L56.5,71.2z"/>
								<path class="st219" d="M57.7,72.1l-1.2-0.8c0,1.4,0,3.2-0.1,4.5l1.3,0.8L57.7,72.1z"/>
								<path class="st219" d="M57.7,68.5l-1.7-1c0,0.4,0,0.7,0,1.1l0.4,0.2l0,0c0,0,0.1,1.1,0,2.4l1.2,0.8L57.7,68.5z"/>
								<path class="st189" d="M59.3,66.4c-1-1.3-2.3-2.4-3.2-3.1c0,0.3,0,0.7,0,1.2L59.3,66.4z"/>
								<path class="st211" d="M59.3,66.4L56,64.5c0,0.1,0,0.2,0,0.3c1.1,0.6,2.8,1.6,3.6,2.1C59.5,66.7,59.4,66.6,59.3,66.4z"/>
								<path class="st210" d="M57.7,72.1l0,4.4c0,0,0.1,0,0.3,0l2.1-1.1c0,0,0-0.1,0-0.1l0-1.6L57.7,72.1z"/>
								<path class="st189" d="M56.3,77.1c0,0,0,0.2-0.1,0.3l1.9-1c-0.2,0-0.3,0-0.3,0l-1.4-0.8C56.4,76.5,56.3,77.1,56.3,77.1z"/>
								<path class="st195" d="M56.1,67.2l1.8,1l0,0c0.3-0.1,0.6-0.2,1-0.4c0.3-0.2,0.5-0.4,0.7-0.6l-3.5-2
									C56,65.9,56,66.5,56.1,67.2z"/>
								<path class="st211" d="M58,68.3l-0.2-0.1l-1.8-1c0,0.1,0,0.2,0,0.3l1.7,1C57.7,68.5,57.8,68.4,58,68.3L58,68.3z"/>
								<path class="st210" d="M60,75.3L58,76.4c0.3,0,0.7-0.1,1.2-0.3C59.6,75.8,59.9,75.5,60,75.3z"/>
								<path class="st219" d="M59.6,66.9c-0.8-0.4-2.5-1.5-3.6-2.1c0,0.1,0,0.3,0,0.4l3.5,2C59.6,67.1,59.6,67.1,59.6,66.9
									C59.7,67,59.6,66.9,59.6,66.9z"/>
								<path class="st213" d="M59.6,66.9C59.6,66.9,59.7,67,59.6,66.9C59.7,67,59.7,67,59.6,66.9C59.7,67,59.7,66.9,59.6,66.9z"/>
								<path class="st210" d="M59.1,68c-0.4,0.3-0.8,0.4-1,0.4c-0.2,0-0.3,0-0.3,0l0,3.6l2.4,1.6c0.1-3.5,0.1-3.6,0.1-5.8
									c-0.1-0.2-0.2-0.4-0.3-0.5C59.7,67.5,59.4,67.7,59.1,68z"/>
								<path class="st211" d="M58.8,67.8c-0.3,0.2-0.7,0.4-1,0.4l0,0l0.2,0.1l0,0.1c0.3-0.1,0.7-0.2,1-0.4c0.3-0.2,0.6-0.5,0.8-0.7
									c-0.1-0.1-0.1-0.2-0.2-0.3c0,0.1-0.1,0.1-0.1,0.2C59.4,67.4,59.1,67.6,58.8,67.8z"/>
								<path class="st211" d="M59.7,67c0.1,0.1,0.1,0.2,0.2,0.3c0.2-0.2,0.3-0.3,0.3-0.3l0,0l-0.9-0.5C59.4,66.6,59.5,66.7,59.7,67
									C59.7,66.9,59.7,67,59.7,67C59.7,67,59.7,67,59.7,67z"/>
								<path class="st210" d="M60.2,67.8l0-0.9c0,0-0.1,0.1-0.3,0.3C60,67.4,60.1,67.6,60.2,67.8z"/>
								<path class="st189" d="M60.1,73.6l1.4,0.9c0,0,0.6-2.9-1.2-6.5c0-0.1-0.1-0.2-0.1-0.2C60.2,70,60.2,70.1,60.1,73.6z"/>
								<path class="st189" d="M61.5,74.5L61.5,74.5l-1.4-0.9l0,1.6c0,0,0,0,0,0.1L61.5,74.5z"/>
								<path class="st191" d="M61.5,74.5l2-1.1l0.1,0c0-0.1,0.1-0.4,0.1-0.7c0.1-1.1,0-3.3-1.3-5.7c-1.8-3.6-5.7-5.7-5.7-5.7l0,0
									c-0.2,0.1-1.5,0.9-1.9,1.1l0,0.1c0.2,0.1,0.7,0.4,1.4,0.9c1,0.7,2.2,1.7,3.2,3.1l0.9,0.5l0,0l0,0.9c0,0.1,0.1,0.1,0.1,0.2
									C62.1,71.6,61.5,74.5,61.5,74.5L61.5,74.5z"/>
								<path class="st217" d="M55.4,78c-0.3,0.2-0.6,0.2-0.8,0.3l-1.2,0.7c-0.1,0.2-0.4,0.4-0.8,0.6c-0.3,0.2-0.7,0.3-0.9,0.3
									l-1,0.5c-0.1,0.2-0.4,0.5-0.8,0.7c-0.4,0.2-0.8,0.3-1.1,0.3l-2,1.1c0,0,0,0,0,0c-0.1,0.1-0.3,0.3-0.6,0.4
									c-0.2,0.1-0.5,0.2-0.7,0.3L44.1,84c-0.1,0.2-0.4,0.3-0.7,0.5c-0.3,0.1-0.5,0.2-0.8,0.3l-12.6,6.9c0,0.1,0,0.1,0,0.1
									s0,0-0.1,0l-2,1.1L27.6,93l-7.1-4.3c0,0.9,0,2.2,0,2.2l7.1,4.3l36.5-19.9l0-2.2l-0.6,0.4c0,0.1,0,0.1,0,0.1s0,0-0.1,0
									l-2,1.1L60,75.3c-0.1,0.2-0.4,0.5-0.9,0.8c-0.4,0.2-0.9,0.3-1.2,0.3l-1.9,1C56,77.6,55.7,77.8,55.4,78z"/>
								<path class="st189" d="M64.1,73.1c0,0-0.2-0.1-0.6-0.3c0,0.3-0.1,0.6-0.1,0.7L64.1,73.1z"/>
							</g>
						</g>
					</g>
				</g>
			</g>
			<g id="XMLID_63_">
				<g>
					<polygon class="st220" points="66.9,43 21.2,69.4 15.3,65.9 13.5,64.9 13.5,67 21.2,71.5 68.7,44.1 68.7,42 					"/>
					<polygon class="st43" points="60.9,37.5 13.5,64.9 15.3,65.9 21.2,69.4 66.9,43 68.7,42 					"/>
				</g>
			</g>
			<g id="XMLID_62_">
				<g>
					<polygon class="st220" points="64.7,100.2 19.1,126.6 13.1,123.2 11.3,122.1 11.3,124.2 19.1,128.7 66.5,101.3 66.5,99.2 					
						"/>
					<polygon class="st43" points="58.8,94.7 11.3,122.1 13.1,123.2 19.1,126.6 64.7,100.2 66.5,99.2 					"/>
				</g>
			</g>
			<g>
				<g id="XMLID_61_">
					<g>
						<path class="st221" d="M23.8,60.9v-0.8l0.4,0.2l0,0C23.9,60.5,23.8,60.7,23.8,60.9z"/>
						<path class="st222" d="M23.8,60.1L23.8,60.1L23.8,60.1l0-15.4l4.2,2.4v10.5l-3.3,1.9c-0.3,0.2-0.5,0.5-0.4,0.7l-0.2,0.1
							L23.8,60.1z"/>
						<path class="st221" d="M42.2,61c0.1-0.2-0.1-0.5-0.4-0.7l-0.2-0.1c0.1-0.2,0-0.4-0.1-0.6c0.4,0.1,0.8,0.5,0.8,1
							C42.3,60.8,42.3,60.9,42.2,61z"/>
						<path class="st221" d="M41.8,60.4c0.3,0.2,0.5,0.4,0.4,0.7c0,0,0,0,0,0c-0.1,0.3-0.5,0.6-0.9,0.6c-0.4,0-0.7-0.2-0.8-0.6
							l0.8-0.4c0.2-0.1,0.3-0.2,0.4-0.4L41.8,60.4z"/>
						<path class="st223" d="M41.5,59.7c0.2,0.2,0.2,0.4,0.1,0.6l-0.7-0.4c0.1-0.1,0.3-0.1,0.5-0.1C41.4,59.7,41.5,59.7,41.5,59.7z"
							/>
						<path class="st223" d="M40.9,59.8l0.7,0.4c-0.1,0.1-0.2,0.3-0.4,0.4l-0.8,0.4c-0.1-0.1-0.1-0.3-0.1-0.4
							C40.4,60.3,40.6,60,40.9,59.8z"/>
						<path class="st223" d="M41.5,59.7c0,0-0.1,0-0.1,0c-0.2,0-0.3,0-0.5,0.1l-6.9-4c-0.5-0.3-1.4-0.3-2,0l-4,2.3v-0.5l4.1-2.4
							c0.5-0.3,1.4-0.3,1.9,0l7.4,4.2C41.4,59.6,41.5,59.7,41.5,59.7z"/>
						<path class="st223" d="M34,55.9l6.9,4c-0.3,0.2-0.5,0.5-0.5,0.8c0,0.1,0,0.3,0.1,0.4l-6.6,3.8c-0.5,0.3-1.4,0.3-1.9,0L28,62.5
							v-4.3l4-2.3C32.6,55.5,33.5,55.5,34,55.9z"/>
						<path class="st221" d="M24.2,60.4L24.2,60.4l3.8,2.2v0l4.1,2.4c0.5,0.3,1.4,0.3,1.9,0l6.6-3.8c0.1,0.3,0.5,0.6,0.8,0.6
							c0.4,0,0.7-0.2,0.9-0.6c0,0.2-0.2,0.3-0.4,0.5L34,66c-0.5,0.3-1.4,0.3-2,0l-7.8-4.5c-0.2-0.1-0.4-0.3-0.4-0.5v-0.1
							C23.8,60.7,23.9,60.5,24.2,60.4z"/>
						<path class="st222" d="M28,58.2v4.3l-3.3-1.9c-0.2-0.1-0.3-0.2-0.4-0.4L28,58.2z"/>
						<path class="st222" d="M28,57.7v0.5l-3.6,2.1c-0.1-0.3,0-0.5,0.4-0.7L28,57.7z"/>
						<path class="st222" d="M28,62.5l-3.8-2.2l0.2-0.1c0.1,0.1,0.2,0.3,0.4,0.4L28,62.5L28,62.5z"/>
						<path class="st221" d="M23.8,60.9V61c0,0,0,0,0,0v0L23.8,60.9C23.8,60.9,23.8,60.9,23.8,60.9z"/>
						<path class="st221" d="M23.8,61C23.8,61,23.8,60.9,23.8,61L23.8,61z"/>
					</g>
				</g>
				<polygon class="st224" points="37.2,57.2 28,62.5 28,47.2 37.2,41.9 				"/>
				<g>
					<path class="st225" d="M32.3,53.7c-0.2,0-0.3-0.1-0.3-0.3l0-1.9c0-0.2,0.1-0.3,0.3-0.3l0,0c0.2,0,0.3,0.1,0.3,0.3l0,1.9
						C32.6,53.5,32.4,53.7,32.3,53.7L32.3,53.7z"/>
				</g>
				<g>
					<path class="st226" d="M43.1,50.5C43.1,50.5,43.1,50.5,43.1,50.5l-7.9,0c-0.5,0-0.8-0.3-0.8-0.7c0-0.4,0.4-0.7,0.8-0.7
						c0,0,0,0,0,0l7.9,0c0.5,0,0.8,0.3,0.8,0.7C43.9,50.2,43.6,50.5,43.1,50.5z"/>
				</g>
				<g id="XMLID_60_">
					<g>
						<path class="st221" d="M36.8,49.2v1.1c0-0.2,0-0.4-0.1-0.5C36.8,49.6,36.8,49.4,36.8,49.2z"/>
						<path class="st221" d="M31.9,49.2c0,0.2,0,0.4,0.1,0.5c-0.1,0.2-0.1,0.3-0.1,0.5V49.2z"/>
						<path class="st221" d="M36.8,49.2c0,0.2,0,0.4-0.1,0.5c-0.3-0.7-1.2-1.2-2.3-1.2c-1.1,0-2,0.5-2.3,1.2
							c-0.1-0.2-0.1-0.3-0.1-0.5c0-0.9,1.1-1.7,2.5-1.7C35.7,47.6,36.8,48.3,36.8,49.2z"/>
						<path class="st221" d="M36.7,49.8c0.1,0.2,0.1,0.3,0.1,0.5c0,0.9-1.1,1.7-2.5,1.7c-1.4,0-2.5-0.8-2.5-1.7c0-0.2,0-0.4,0.1-0.5
							c0.3,0.7,1.2,1.2,2.3,1.2C35.4,50.9,36.4,50.5,36.7,49.8z"/>
						<path class="st221" d="M34.3,48.6c1.1,0,2,0.5,2.3,1.2c-0.3,0.7-1.2,1.2-2.3,1.2c-1.1,0-2-0.5-2.3-1.2
							C32.3,49.1,33.3,48.6,34.3,48.6z"/>
					</g>
				</g>
				<g id="XMLID_59_">
					<g>
						<path class="st221" d="M33.5,45.5c-0.5,0.3-0.9,1-0.9,1.6c0-0.6-0.4-1.3-0.9-1.6C32.2,45.8,33,45.8,33.5,45.5z"/>
						<path class="st221" d="M41.8,41.6c-0.1-0.5-0.5-0.6-0.9-0.4c0.5-0.3,0.5-0.7,0.1-1c0.5,0.2,0.9,0.6,0.9,1.2
							C41.8,41.5,41.8,41.5,41.8,41.6z"/>
						<path class="st221" d="M41,40.2c0.4,0.3,0.4,0.8-0.1,1L39.5,42c-0.1-0.2-0.2-0.4-0.2-0.6c0-0.7,0.6-1.3,1.3-1.3
							C40.7,40.1,40.8,40.2,41,40.2z"/>
						<path class="st39" d="M41.8,41.6c-0.1-0.5-0.5-0.6-0.9-0.4L39.5,42l-6,3.4c-0.5,0.3-0.9,1-0.9,1.6v2.3v1.7v0
							c0,0.4,0.2,0.7,0.5,0.7c0.1,0,0.3,0,0.4-0.1l7.4-4.2c0.5-0.3,0.9-1,0.9-1.6v-4C41.8,41.7,41.8,41.6,41.8,41.6z"/>
						<path class="st39" d="M32.6,51.1c0,0.4,0.2,0.7,0.5,0.7c-0.2,0.1-0.4,0.2-0.6,0.2c-0.2,0-0.5-0.1-0.7-0.2
							C32.3,51.9,32.6,51.6,32.6,51.1z"/>
						<path class="st223" d="M32.6,51.1L32.6,51.1c0,0.5-0.3,0.8-0.8,0.6c-0.3-0.2-0.6-0.6-0.6-1.1c0-0.7,0.6-1.3,1.3-1.3
							c0,0,0.1,0,0.1,0V51.1z"/>
						<path class="st223" d="M32.6,47.1v2.3c0,0-0.1,0-0.1,0c-0.7,0-1.3,0.6-1.3,1.3c0,0.4,0.2,0.8,0.6,1.1c-0.1,0-0.1,0-0.2-0.1
							l-7.4-4.2c-0.5-0.3-0.9-1-0.9-1.6v-4c0-0.1,0-0.1,0-0.2c0.1,0.6,0.6,1.1,1.2,1.1c0.5,0,0.9-0.2,1.1-0.6l6,3.4
							C32.2,45.8,32.6,46.5,32.6,47.1z"/>
						<path class="st221" d="M25.9,41.4c0,0.2-0.1,0.5-0.2,0.6l-1.4-0.8c-0.5-0.3-0.5-0.7-0.1-1c0.1,0,0.3-0.1,0.4-0.1
							C25.3,40.1,25.9,40.7,25.9,41.4z"/>
						<path class="st223" d="M24.3,41.2l1.4,0.8c-0.2,0.4-0.6,0.6-1.1,0.6c-0.6,0-1.1-0.5-1.2-1.1C23.5,41.1,23.8,41,24.3,41.2z"/>
						<path class="st221" d="M24.3,40.2l7.4-4.2c0.5-0.3,1.4-0.3,1.9,0l7.4,4.2c0,0,0,0,0.1,0c-0.1,0-0.3-0.1-0.4-0.1
							c-0.7,0-1.3,0.6-1.3,1.3c0,0.2,0.1,0.5,0.2,0.6l-6,3.4c-0.5,0.3-1.4,0.3-1.9,0l-6-3.4c0.1-0.2,0.2-0.4,0.2-0.6
							c0-0.7-0.6-1.3-1.3-1.3C24.5,40.1,24.3,40.2,24.3,40.2C24.3,40.2,24.3,40.2,24.3,40.2z"/>
						<path class="st221" d="M24.3,41.2c-0.5-0.3-0.8-0.1-0.9,0.4c0-0.1,0-0.1,0-0.2c0-0.6,0.4-1,0.9-1.2
							C23.8,40.5,23.8,41,24.3,41.2z"/>
					</g>
				</g>
				<g>
					<path class="st221" d="M32.3,54.7c-0.2,0-0.3-0.1-0.3-0.3v-1.6c0-0.2,0.1,0.1,0.3,0.1c0.2,0,0.3-0.3,0.3-0.1v1.6
						C32.6,54.6,32.4,54.7,32.3,54.7z"/>
				</g>
				<g id="XMLID_58_">
					<g>
						<path class="st227" d="M33.9,49L33.9,49C33.9,49,33.9,49,33.9,49C33.9,49,33.9,49,33.9,49z"/>
						<path class="st227" d="M34.8,47.4c-0.1,0-0.2,0-0.4,0.1c-0.4,0.2-0.6,0.7-0.6,1.1c0,0.2,0,0.3,0.1,0.4c0,0,0,0,0,0l-0.1,0
							c0,0,0,0,0,0c-0.1-0.1-0.1-0.2-0.1-0.4c0-0.4,0.3-0.9,0.6-1.1c0.2-0.1,0.3-0.1,0.4-0.1L34.8,47.4
							C34.8,47.4,34.8,47.4,34.8,47.4z"/>
						<path class="st39" d="M33.9,49L33.9,49C34,49,33.9,49,33.9,49z"/>
						<path class="st227" d="M33.8,48.9L33.8,48.9C33.8,49,33.8,48.9,33.8,48.9z"/>
						<path class="st227" d="M34.7,47.4l0.1,0.1C34.9,47.4,34.8,47.4,34.7,47.4C34.8,47.4,34.8,47.4,34.7,47.4z"/>
						<path class="st228" d="M34.9,47.5C34.9,47.4,34.8,47.4,34.9,47.5c-0.2-0.1-0.3,0-0.5,0c-0.4,0.2-0.6,0.7-0.6,1.1
							c0,0.2,0,0.3,0.1,0.4c0,0,0,0,0,0l0.1,0c0.1,0,0.3,0,0.4-0.1c0.4-0.2,0.6-0.7,0.6-1.1C35.1,47.7,35,47.5,34.9,47.5z"/>
						<path class="st227" d="M34.7,47.4L34.7,47.4C34.7,47.4,34.7,47.4,34.7,47.4z"/>
					</g>
				</g>
				<g id="XMLID_57_">
					<g>
						<path class="st227" d="M38.1,46.7L38.1,46.7C38.1,46.7,38.1,46.7,38.1,46.7C38.1,46.7,38.1,46.7,38.1,46.7z"/>
						<path class="st228" d="M38.1,46.7c0.1,0,0.2,0,0.3-0.1c0.3-0.2,0.5-0.6,0.5-0.9c0-0.1,0-0.2-0.1-0.3c0,0,0.1,0,0.1,0
							c0.1,0.1,0.1,0.2,0.1,0.3c0,0.3-0.2,0.7-0.5,0.9C38.4,46.8,38.3,46.8,38.1,46.7L38.1,46.7C38.1,46.7,38.1,46.7,38.1,46.7z"/>
						<path class="st227" d="M38.8,45.4c-0.1,0-0.2,0-0.3,0.1c-0.3,0.2-0.5,0.6-0.5,0.9c0,0.1,0,0.2,0.1,0.3c0,0,0,0,0,0l-0.1,0v0
							c-0.1-0.1-0.1-0.2-0.1-0.3c0-0.3,0.2-0.7,0.5-0.9C38.5,45.3,38.6,45.3,38.8,45.4L38.8,45.4C38.8,45.4,38.8,45.4,38.8,45.4z"/>
						<path class="st39" d="M38.1,46.7L38.1,46.7C38.1,46.7,38.1,46.7,38.1,46.7z"/>
						<path class="st227" d="M38,46.6L38,46.6C38,46.7,38,46.7,38,46.6z"/>
						<path class="st227" d="M38.8,45.4l0.1,0.1C38.9,45.5,38.8,45.4,38.8,45.4C38.8,45.4,38.8,45.4,38.8,45.4z"/>
						<path class="st228" d="M38.9,45.7c0,0.3-0.2,0.7-0.5,0.9c-0.1,0.1-0.2,0.1-0.3,0.1C38,46.6,38,46.5,38,46.4
							c0-0.3,0.2-0.7,0.5-0.9c0.1-0.1,0.2-0.1,0.3-0.1C38.9,45.5,38.9,45.6,38.9,45.7z"/>
						<path class="st227" d="M38.8,45.4L38.8,45.4C38.7,45.4,38.8,45.4,38.8,45.4z"/>
					</g>
				</g>
				<g id="XMLID_56_">
					<g>
						<path class="st227" d="M39.8,46L39.8,46C39.7,46,39.7,46,39.8,46C39.7,46,39.7,46,39.8,46z"/>
						<path class="st228" d="M39.9,45.6c0.1,0,0.2,0,0.3-0.1c0.3-0.2,0.5-0.6,0.5-0.9c0-0.1,0-0.2-0.1-0.3c0,0,0.1,0,0.1,0
							c0.1,0.1,0.1,0.2,0.1,0.3c0,0.3-0.2,0.7-0.5,0.9C40.2,45.7,40.1,45.7,39.9,45.6L39.9,45.6C39.9,45.6,39.9,45.6,39.9,45.6z"/>
						<path class="st227" d="M40.6,44.4c-0.1,0-0.2,0-0.3,0.1c-0.3,0.2-0.5,0.6-0.5,0.9c0,0.1,0,0.2,0.1,0.3c0,0,0,0,0,0l-0.1,0
							c0,0,0,0,0,0c-0.1-0.1-0.1-0.2-0.1-0.3c0-0.3,0.2-0.7,0.5-0.9C40.3,44.3,40.5,44.3,40.6,44.4L40.6,44.4
							C40.6,44.3,40.6,44.3,40.6,44.4z"/>
						<path class="st39" d="M39.8,46L39.8,46C39.8,46,39.8,46,39.8,46z"/>
						<path class="st227" d="M39.6,45.9L39.6,45.9C39.7,46,39.6,45.9,39.6,45.9z"/>
						<path class="st227" d="M40.4,44.7l0.1,0.1C40.5,44.7,40.5,44.7,40.4,44.7C40.4,44.7,40.4,44.7,40.4,44.7z"/>
						<path class="st228" d="M40.7,44.7c0,0.3-0.2,0.7-0.5,0.9c-0.1,0.1-0.2,0.1-0.3,0.1c-0.1-0.1-0.1-0.2-0.1-0.3
							c0-0.3,0.2-0.7,0.5-0.9c0.1-0.1,0.2-0.1,0.3-0.1C40.7,44.4,40.7,44.5,40.7,44.7z"/>
						<path class="st227" d="M40.4,44.7L40.4,44.7C40.4,44.7,40.4,44.7,40.4,44.7z"/>
					</g>
				</g>
				<path class="st229" d="M41.3,42.1c0,0.2-0.1,0.4-0.3,0.5c-0.2,0.1-0.3,0-0.3-0.2c0-0.2,0.1-0.4,0.3-0.5
					C41.1,41.8,41.3,41.9,41.3,42.1z"/>
				<g>
					<g>
						<path class="st230" d="M36.1,55.2c0.8,0.5,0.8,1.2,0,1.7c-0.8,0.5-2.1,0.5-2.9,0c-0.3-0.2-0.5-0.3-0.5-0.6
							c0-0.1-0.1-0.1-0.1-0.2c0-0.3,0.2-0.7,0.7-0.9C33.9,54.7,35.3,54.7,36.1,55.2z"/>
						<path class="st227" d="M36.1,55.2c0.8,0.5,0.8,1.2,0,1.7c-0.8,0.5-2.1,0.5-2.9,0c-0.3-0.2-0.5-0.3-0.5-0.6
							c0-0.1,0-0.1-0.1-0.2c0-0.3,0.2-0.7,0.6-0.9C33.9,54.8,35.2,54.8,36.1,55.2z"/>
						<path class="st221" d="M35.9,56c0.7,0.3,0.7,0.7,0,1c-0.7,0.3-1.6,0.4-2.5,0c-0.2-0.1-0.4-0.2-0.5-0.3c0,0,0-0.1,0-0.1
							c0-0.2,0.1-0.4,0.5-0.6C34,55.7,35.2,55.7,35.9,56z"/>
						<path class="st225" d="M36,61.1l0.6-4.9c0,0-0.2,1-2.1,1.1c-1.5,0-2.1-1.1-2.1-1.1l0.9,5h0c0,0,0,0,0,0.1
							c0.1,0.1,0.2,0.2,0.4,0.3c0.5,0.3,1.4,0.3,1.9,0c0.2-0.1,0.3-0.3,0.4-0.4h0l0,0C36,61.1,36,61.1,36,61.1z"/>
						<path class="st231" d="M36,61.1l0.6-4.9c0,0-0.2,1-2.1,1.1c-1.5,0-2.1-1.2-2.1-1.2l0.8,5.1h0c0,0,0,0,0,0.1
							c0.1,0.1,0.2,0.2,0.3,0.3c0.5,0.3,1.4,0.3,1.9,0c0.2-0.1,0.3-0.3,0.4-0.4h0l0,0C36,61.2,36,61.2,36,61.1z"/>
					</g>
					<g>
						<path class="st231" d="M36.4,57.7c0.1-0.3,0.5-0.3,0.6,0c0.1,0.3,0,0.5-0.2,0.7c-0.2,0.3-0.6,0.4-0.9,0.6
							c-0.5,0.5,0,1.1,0.5,1.2c0.3,0.1,0.4-0.4,0.1-0.5c-0.6-0.1-0.2-0.5,0-0.7c0.2-0.1,0.4-0.3,0.5-0.4c0.3-0.3,0.4-0.7,0.4-1
							c-0.1-0.8-1.2-1.1-1.6-0.3C35.9,57.8,36.3,58,36.4,57.7L36.4,57.7z"/>
					</g>
				</g>
			</g>
			<g>
				<polygon class="st205" points="67,101.8 46.8,113.4 46.8,102.8 67,91.1 				"/>
				<polygon class="st210" points="62.5,102.7 48.5,110.8 48.5,103.4 62.5,95.3 				"/>
				<polygon class="st199" points="36.8,96.9 56.9,85.3 67,91.1 46.8,102.8 				"/>
				<polygon class="st194" points="46.8,113.4 36.8,107.6 36.8,97 46.8,102.8 				"/>
			</g>
			<g>
				<g>
					<path class="st194" d="M51.4,43.1c-0.1,0-0.4-0.1-0.4-0.3l0.3-12.6c0-0.2,0.1-0.3,0.2-0.3c0.1,0,0.2,0.1,0.2,0.3l0.3,12.6
						C51.8,43,51.4,43.1,51.4,43.1z"/>
				</g>
				<g>
					<path class="st194" d="M56.1,40.6c-0.1,0-0.4-0.2-0.3-0.4L58.9,28c0-0.2,0.1-0.3,0.2-0.2c0.1,0,0.1,0.2,0.1,0.3l-2.5,12.3
						C56.6,40.6,56.2,40.6,56.1,40.6z"/>
				</g>
				<g>
					<path class="st194" d="M48.7,45.2c-0.1,0-0.4,0.1-0.5,0l-6.4-10.8c-0.1-0.1-0.1-0.3,0-0.3c0.1,0,0.2,0,0.3,0.2l6.9,10.5
						C49,44.9,48.7,45.2,48.7,45.2z"/>
				</g>
				<g id="XMLID_53_">
					<g>
						<path class="st210" d="M65.6,41.7c0.2-0.1,0.4-0.3,0.4-0.5v1C65.9,42,65.8,41.8,65.6,41.7L65.6,41.7L65.6,41.7z"/>
						<path class="st210" d="M45.1,47.3L45.1,47.3c-0.3,0.1-0.4,0.3-0.4,0.5v-1C44.7,47,44.8,47.2,45.1,47.3L45.1,47.3z"/>
						<path class="st193" d="M65.9,41.2c0,0.2-0.1,0.4-0.4,0.5l0,0L61,39.1c-0.5-0.3-1.2-0.3-1.7,0l-14.3,8.2l0,0
							c-0.2-0.1-0.4-0.3-0.4-0.5c0-0.2,0.1-0.4,0.4-0.5l14.3-8.3c0.5-0.3,1.2-0.3,1.7,0l4.6,2.6C65.8,40.8,65.9,41,65.9,41.2z"/>
						<path class="st210" d="M65.6,41.7c0.2,0.1,0.4,0.3,0.4,0.5c0,0.2-0.1,0.4-0.4,0.5l-14.3,8.2c-0.5,0.3-1.2,0.3-1.7,0L45,48.3
							c-0.2-0.1-0.4-0.3-0.4-0.5c0-0.2,0.1-0.4,0.4-0.5l0,0l4.5,2.6c0.5,0.3,1.2,0.3,1.7,0L65.6,41.7L65.6,41.7z"/>
						<path class="st193" d="M65.6,41.7l-14.3,8.2c-0.5,0.3-1.2,0.3-1.7,0l-4.5-2.6l14.3-8.2c0.5-0.3,1.2-0.3,1.7,0L65.6,41.7z"/>
					</g>
				</g>
				<path class="st205" d="M63.7,43.3c0,0.2-0.1,0.4-0.2,0.4c-0.1,0.1-0.2,0-0.2-0.1c0-0.2,0.1-0.4,0.2-0.4
					C63.6,43.1,63.7,43.2,63.7,43.3z"/>
				<path class="st205" d="M61.9,44.4c0,0.2-0.1,0.4-0.2,0.4c-0.1,0.1-0.2,0-0.2-0.1c0-0.2,0.1-0.4,0.2-0.4
					C61.8,44.1,61.9,44.2,61.9,44.4z"/>
				<path class="st205" d="M60,45.5c0,0.2-0.1,0.4-0.2,0.4c-0.1,0.1-0.2,0-0.2-0.1s0.1-0.4,0.2-0.4C59.9,45.2,60,45.3,60,45.5z"/>
				<path class="st205" d="M54,49c0,0.2-0.1,0.4-0.2,0.4c-0.1,0.1-0.2,0-0.2-0.1c0-0.2,0.1-0.4,0.2-0.4C53.9,48.7,54,48.8,54,49z"/>
			</g>
		</g>
	</g>
</g>
<g id="Layer_17">
</g>
<g id="Layer_17_copy">
</g>
<g id="Layer_66">
</g>
<g id="Layer_65">
</g>
<g id="Layer_34">
</g>
<g id="Layer_30">
</g>
<g id="Layer_63">
</g>
<g id="Layer_62">
</g>
<g id="Layer_61">
</g>
<g id="Layer_60">
	<g>
		<path class="st268" d="M94.4,106.2c-1.2,3.6-6.1,6.3-12,6.3c-5.9,0-10.8-2.7-12-6.3c-0.2-0.5-0.3-1-0.3-1.6v3.2
			c0,4.4,5.5,7.9,12.3,7.9c6.8,0,12.3-3.5,12.3-7.9v-3.3C94.6,105.1,94.6,105.6,94.4,106.2z"/>
		<path class="st269" d="M85.4,103.8c-0.6-0.1-1.2,0-1.8,0.2c0.2,0.1,0.4,0.2,0.6,0.4c0.3-0.1,0.7-0.1,1.1,0
			c0.4,0.1,1.5,0.5,1.7,1.1C87.5,104.5,86,103.9,85.4,103.8z"/>
		<path class="st269" d="M87.8,106.4c0.1,0,0.2,0.1,0.2,0.1c0.1-0.1,0.1-0.2,0.2-0.3c0.2-0.3,0.2-0.6,0.2-0.9c0,0.1-0.1,0.2-0.1,0.3
			C88.2,106,88,106.2,87.8,106.4z"/>
		<path class="st270" d="M85.3,104.3c-0.4-0.1-0.7-0.1-1.1,0c0.8,0.5,1.6,1,2.4,1.5c0.1-0.1,0.1-0.1,0.2-0.2c0-0.1,0.1-0.1,0.1-0.2
			C86.8,104.8,85.8,104.4,85.3,104.3z"/>
		<path class="st269" d="M82.3,104.6c-1.4,0.8-3,1.6-4.6,0.8c-0.9-0.5-1.7-1.4-1.6-2.3c-0.4,1.2,0.4,2.2,1.5,2.9
			c1.6,0.9,3.1,0,4.6-0.8c0.9,0.6,1.9,1.1,2.8,1.7c0.2-0.1,0.4-0.2,0.5-0.3C84.5,105.9,83.4,105.3,82.3,104.6z"/>
		<path class="st270" d="M82.4,111.1c2.1,0,4.1-0.4,5.7-1.1c2.7-1.2,4.5-3.2,4.5-5.5c0-3.7-4.6-6.6-10.2-6.6c-2.3,0-4.4,0.5-6.1,1.3
			c-2.5,1.2-4.1,3.1-4.1,5.3C72.2,108.2,76.7,111.1,82.4,111.1z M76.1,100.9v-0.1l0.9-0.6l0.2-0.2c0.3,0.2,0.6,0.4,1,0.6
			c0.5-0.2,1-0.5,1.5-0.6l1.4,0.8l0.1,0c0,0,0,0-0.1,0v0.4v0.1c-0.1,0-0.2,0.1-0.3,0.1c-0.2,0.1-0.5,0.2-0.7,0.3
			c0.8,0.5,1.6,1,2.4,1.4c1.3-0.6,2.6-1,4.1-0.4c1.1,0.4,2.4,1.4,2,2.7c0,0.3-0.1,0.6-0.2,0.9c0,0.1-0.1,0.2-0.2,0.3
			c0.2,0.1,0.4,0.2,0.6,0.4c0,0,0,0,0,0c0,0,0,0,0,0l0,0l0,0.5v0l-1.2,0.8c-0.2-0.1-0.5-0.3-0.7-0.4c-0.6,0.5-1.4,0.8-2.1,1.1
			l-1.5-0.8v-0.5v0c0.1,0,0.3-0.1,0.4-0.1c0.5-0.2,1-0.4,1.5-0.6c-0.9-0.6-1.9-1.1-2.8-1.7c-1.4,0.8-3,1.6-4.6,0.8
			c-1.1-0.6-1.9-1.7-1.5-2.9v0c0-0.4,0.1-0.7,0.4-1.1c0,0,0.1-0.1,0.1-0.1c-0.1-0.1-0.3-0.2-0.4-0.3c-0.1-0.1-0.1-0.1-0.1-0.1V100.9
			z"/>
		<path class="st269" d="M77.6,103.3c0.1-0.2,0.3-0.4,0.5-0.6c0.8,0.5,1.6,1,2.4,1.4c0.2-0.1,0.3-0.2,0.5-0.3c0,0,0,0,0,0
			c-0.9-0.6-1.9-1.1-2.8-1.7C77.8,102.5,77.5,102.9,77.6,103.3z"/>
		<path class="st269" d="M87.6,107.8c-0.2-0.1-0.5-0.3-0.7-0.4c-0.6,0.5-1.4,0.8-2.1,1.1l-1-0.5l-0.6-0.3v0.5l1.5,0.8
			c0.7-0.3,1.5-0.6,2.1-1.1c0.2,0.1,0.5,0.3,0.7,0.4l1.2-0.8v0l0-0.5l-0.4,0.3L87.6,107.8z"/>
		<path class="st270" d="M77.6,103.3c0,0.4,0.4,0.8,1.1,1c0.7,0.2,1.3,0.1,1.8-0.2c-0.8-0.5-1.6-1-2.4-1.4
			C77.9,102.9,77.7,103.1,77.6,103.3z"/>
		<path class="st269" d="M82.4,112.4c5.9,0,10.8-2.7,12-6.3c0.2-0.5,0.3-1.1,0.3-1.7c0-4.4-5.5-7.9-12.3-7.9
			c-6.8,0-12.3,3.5-12.3,7.9c0,0,0,0,0,0.1c0,0.5,0.1,1.1,0.3,1.6C71.6,109.7,76.5,112.4,82.4,112.4z M76.3,99.2
			c1.7-0.8,3.8-1.3,6.1-1.3c5.7,0,10.2,3,10.2,6.6c0,2.3-1.8,4.3-4.5,5.5c-1.6,0.7-3.6,1.1-5.7,1.1c-5.7,0-10.2-3-10.2-6.6
			C72.2,102.3,73.8,100.4,76.3,99.2z"/>
		<path class="st268" d="M76.5,101.1c0.2,0.1,0.4,0.2,0.5,0.3c-0.1,0.1-0.2,0.2-0.4,0.4c0,0-0.1,0.1-0.1,0.1
			c-0.3,0.4-0.4,0.8-0.4,1.1v0c0,0.9,0.7,1.8,1.6,2.3c1.6,0.9,3.1,0,4.6-0.8c1.1,0.7,2.2,1.3,3.3,2c-0.2,0.1-0.4,0.2-0.5,0.3
			c-0.5,0.2-1.1,0.4-1.5,0.6c-0.1,0-0.2,0.1-0.4,0.1v0l0.6,0.3l1,0.5c0.7-0.3,1.5-0.6,2.1-1.1c0.2,0.1,0.5,0.3,0.7,0.4l0.7-0.5
			l0.4-0.3l0,0c0,0,0,0,0,0c0,0,0,0,0,0c-0.2-0.1-0.4-0.2-0.6-0.4c-0.1,0-0.2-0.1-0.2-0.1c0.2-0.2,0.4-0.4,0.5-0.7
			c0.1-0.1,0.1-0.2,0.1-0.3c0.5-1.3-0.9-2.3-2-2.7c-1.5-0.6-2.8-0.3-4.1,0.4c-0.8-0.5-1.6-0.9-2.4-1.4c-0.2-0.1-0.3-0.2-0.5-0.3
			c0.3-0.2,0.7-0.3,1-0.4c0.1,0,0.2-0.1,0.3-0.1c0.1,0,0.1-0.1,0.2-0.1c0,0,0,0,0.1,0l-0.1,0l-1.4-0.8c-0.5,0.2-1,0.4-1.5,0.6
			c-0.3-0.2-0.6-0.4-1-0.6l-0.2,0.2l-0.9,0.6v0.1c0.1,0,0.2,0.1,0.2,0.1C76.3,101,76.4,101.1,76.5,101.1z M81,103.9
			c-0.2,0.1-0.3,0.2-0.5,0.3c-0.6,0.3-1.1,0.4-1.8,0.2c-0.7-0.2-1-0.6-1.1-1c0-0.4,0.2-0.9,0.6-1.2C79.1,102.7,80.1,103.3,81,103.9
			C81,103.9,81,103.9,81,103.9z M87,105.4c0,0.1-0.1,0.1-0.1,0.2c0,0.1-0.1,0.1-0.2,0.2c-0.8-0.5-1.6-1-2.4-1.5
			c-0.2-0.1-0.4-0.2-0.6-0.4c0.6-0.2,1.1-0.3,1.8-0.2C86,103.9,87.5,104.5,87,105.4z"/>
		<path class="st269" d="M76.2,101.5c0.1,0.1,0.3,0.2,0.4,0.3c0.1-0.1,0.2-0.3,0.4-0.4c-0.2-0.1-0.4-0.2-0.5-0.3
			c-0.1,0-0.1-0.1-0.2-0.1c-0.1,0-0.2-0.1-0.2-0.1v0.5C76.1,101.5,76.1,101.5,76.2,101.5z"/>
		<path class="st269" d="M80.5,101c-0.3,0.1-0.7,0.3-1,0.4c0.2,0.1,0.3,0.2,0.5,0.3c0.3-0.1,0.5-0.2,0.7-0.3c0.1,0,0.2-0.1,0.3-0.1
			v-0.1v-0.4c0,0-0.1,0.1-0.2,0.1C80.7,100.9,80.6,101,80.5,101z"/>
	</g>
</g>
<g id="Layer_59">
	<g>
		<path class="st268" d="M105.1,97.1c-1.2,3.6-6.1,6.3-12,6.3c-5.9,0-10.8-2.7-12-6.3c-0.2-0.5-0.3-1-0.3-1.6v3.2
			c0,4.4,5.5,7.9,12.3,7.9c6.8,0,12.3-3.5,12.3-7.9v-3.3C105.3,96,105.3,96.6,105.1,97.1z"/>
		<path class="st269" d="M96.1,94.7c-0.6-0.1-1.2,0-1.8,0.2c0.2,0.1,0.4,0.2,0.6,0.4c0.3-0.1,0.7-0.1,1.1,0c0.4,0.1,1.5,0.5,1.7,1.1
			C98.2,95.4,96.7,94.9,96.1,94.7z"/>
		<path class="st269" d="M98.5,97.4c0.1,0,0.2,0.1,0.2,0.1c0.1-0.1,0.1-0.2,0.2-0.3c0.2-0.3,0.2-0.6,0.2-0.9c0,0.1-0.1,0.2-0.1,0.3
			C98.9,97,98.7,97.2,98.5,97.4z"/>
		<path class="st270" d="M96,95.3c-0.4-0.1-0.7-0.1-1.1,0c0.8,0.5,1.6,1,2.4,1.5c0.1-0.1,0.1-0.1,0.2-0.2c0-0.1,0.1-0.1,0.1-0.2
			C97.5,95.8,96.5,95.4,96,95.3z"/>
		<path class="st269" d="M93,95.6c-1.4,0.8-3,1.6-4.6,0.8c-0.9-0.5-1.7-1.4-1.6-2.3c-0.4,1.2,0.4,2.2,1.5,2.9c1.6,0.9,3.1,0,4.6-0.8
			c0.9,0.6,1.9,1.1,2.8,1.7c0.2-0.1,0.4-0.2,0.5-0.3C95.2,96.9,94.1,96.2,93,95.6z"/>
		<path class="st270" d="M93.1,102.1c2.1,0,4.1-0.4,5.7-1.1c2.7-1.2,4.5-3.2,4.5-5.5c0-3.7-4.6-6.6-10.2-6.6c-2.3,0-4.4,0.5-6.1,1.3
			c-2.5,1.2-4.1,3.1-4.1,5.3C82.9,99.1,87.4,102.1,93.1,102.1z M86.8,91.9v-0.1l0.9-0.6l0.2-0.2c0.3,0.2,0.6,0.4,1,0.6
			c0.5-0.2,1-0.5,1.5-0.6l1.4,0.8l0.1,0c0,0,0,0-0.1,0v0.4v0.1c-0.1,0-0.2,0.1-0.3,0.1c-0.2,0.1-0.5,0.2-0.7,0.3
			c0.8,0.5,1.6,1,2.4,1.4c1.3-0.6,2.6-1,4.1-0.4c1.1,0.4,2.4,1.4,2,2.7c0,0.3-0.1,0.6-0.2,0.9c0,0.1-0.1,0.2-0.2,0.3
			c0.2,0.1,0.4,0.2,0.6,0.4c0,0,0,0,0,0c0,0,0,0,0,0l0,0l0,0.5v0l-1.2,0.8c-0.2-0.1-0.5-0.3-0.7-0.4c-0.6,0.5-1.4,0.8-2.1,1.1
			l-1.5-0.8v-0.5v0c0.1,0,0.3-0.1,0.4-0.1c0.5-0.2,1-0.4,1.5-0.6c-0.9-0.6-1.9-1.1-2.8-1.7c-1.4,0.8-3,1.6-4.6,0.8
			c-1.1-0.6-1.9-1.7-1.5-2.9v0c0-0.4,0.1-0.7,0.4-1.1c0,0,0.1-0.1,0.1-0.1c-0.1-0.1-0.3-0.2-0.4-0.3c-0.1-0.1-0.1-0.1-0.1-0.1V91.9z
			"/>
		<path class="st269" d="M88.3,94.3c0.1-0.2,0.3-0.4,0.5-0.6c0.8,0.5,1.6,1,2.4,1.4c0.2-0.1,0.3-0.2,0.5-0.3c0,0,0,0,0,0
			c-0.9-0.6-1.9-1.1-2.8-1.7C88.5,93.4,88.2,93.9,88.3,94.3z"/>
		<path class="st269" d="M98.3,98.7c-0.2-0.1-0.5-0.3-0.7-0.4c-0.6,0.5-1.4,0.8-2.1,1.1l-1-0.5l-0.6-0.3v0.5l1.5,0.8
			c0.7-0.3,1.5-0.6,2.1-1.1c0.2,0.1,0.5,0.3,0.7,0.4l1.2-0.8v0l0-0.5l-0.4,0.3L98.3,98.7z"/>
		<path class="st270" d="M88.3,94.3c0,0.4,0.4,0.8,1.1,1c0.7,0.2,1.3,0.1,1.8-0.2c-0.8-0.5-1.6-1-2.4-1.4
			C88.6,93.8,88.4,94.1,88.3,94.3z"/>
		<path class="st269" d="M93.1,103.4c5.9,0,10.8-2.7,12-6.3c0.2-0.5,0.3-1.1,0.3-1.7c0-4.4-5.5-7.9-12.3-7.9
			c-6.8,0-12.3,3.5-12.3,7.9c0,0,0,0,0,0.1c0,0.5,0.1,1.1,0.3,1.6C82.3,100.7,87.2,103.4,93.1,103.4z M87,90.2
			c1.7-0.8,3.8-1.3,6.1-1.3c5.7,0,10.2,3,10.2,6.6c0,2.3-1.8,4.3-4.5,5.5c-1.6,0.7-3.6,1.1-5.7,1.1c-5.7,0-10.2-3-10.2-6.6
			C82.9,93.3,84.5,91.4,87,90.2z"/>
		<path class="st268" d="M87.2,92c0.2,0.1,0.4,0.2,0.5,0.3c-0.1,0.1-0.2,0.2-0.4,0.4c0,0-0.1,0.1-0.1,0.1c-0.3,0.4-0.4,0.8-0.4,1.1
			v0c0,0.9,0.7,1.8,1.6,2.3c1.6,0.9,3.1,0,4.6-0.8c1.1,0.7,2.2,1.3,3.3,2c-0.2,0.1-0.4,0.2-0.5,0.3c-0.5,0.2-1.1,0.4-1.5,0.6
			c-0.1,0-0.2,0.1-0.4,0.1v0l0.6,0.3l1,0.5c0.7-0.3,1.5-0.6,2.1-1.1c0.2,0.1,0.5,0.3,0.7,0.4l0.7-0.5l0.4-0.3l0,0c0,0,0,0,0,0
			c0,0,0,0,0,0c-0.2-0.1-0.4-0.2-0.6-0.4c-0.1,0-0.2-0.1-0.2-0.1c0.2-0.2,0.4-0.4,0.5-0.7c0.1-0.1,0.1-0.2,0.1-0.3
			c0.5-1.3-0.9-2.3-2-2.7c-1.5-0.6-2.8-0.3-4.1,0.4c-0.8-0.5-1.6-0.9-2.4-1.4c-0.2-0.1-0.3-0.2-0.5-0.3c0.3-0.2,0.7-0.3,1-0.4
			c0.1,0,0.2-0.1,0.3-0.1c0.1,0,0.1-0.1,0.2-0.1c0,0,0,0,0.1,0l-0.1,0l-1.4-0.8c-0.5,0.2-1,0.4-1.5,0.6c-0.3-0.2-0.6-0.4-1-0.6
			l-0.2,0.2l-0.9,0.6v0.1c0.1,0,0.2,0.1,0.2,0.1C87,92,87.1,92,87.2,92z M91.7,94.8c-0.2,0.1-0.3,0.2-0.5,0.3
			c-0.6,0.3-1.1,0.4-1.8,0.2c-0.7-0.2-1-0.6-1.1-1c0-0.4,0.2-0.9,0.6-1.2C89.9,93.7,90.8,94.2,91.7,94.8
			C91.7,94.8,91.7,94.8,91.7,94.8z M97.7,96.4c0,0.1-0.1,0.1-0.1,0.2c0,0.1-0.1,0.1-0.2,0.2c-0.8-0.5-1.6-1-2.4-1.5
			c-0.2-0.1-0.4-0.2-0.6-0.4c0.6-0.2,1.1-0.3,1.8-0.2C96.7,94.9,98.2,95.4,97.7,96.4z"/>
		<path class="st269" d="M86.9,92.5c0.1,0.1,0.3,0.2,0.4,0.3c0.1-0.1,0.2-0.3,0.4-0.4c-0.2-0.1-0.4-0.2-0.5-0.3
			C87.1,92,87,92,87,91.9c-0.1,0-0.2-0.1-0.2-0.1v0.5C86.8,92.4,86.8,92.4,86.9,92.5z"/>
		<path class="st269" d="M91.2,92c-0.3,0.1-0.7,0.3-1,0.4c0.2,0.1,0.3,0.2,0.5,0.3c0.3-0.1,0.5-0.2,0.7-0.3c0.1,0,0.2-0.1,0.3-0.1
			v-0.1v-0.4c0,0-0.1,0.1-0.2,0.1C91.4,91.9,91.3,91.9,91.2,92z"/>
	</g>
</g>
<g id="Layer_58">
	<g>
		<path class="st268" d="M64.9,138.8c-1.2,3.6-6.1,6.3-12,6.3c-5.9,0-10.8-2.7-12-6.3c-0.2-0.5-0.3-1-0.3-1.6v3.2
			c0,4.4,5.5,7.9,12.3,7.9c6.8,0,12.3-3.5,12.3-7.9v-3.3C65.2,137.7,65.1,138.3,64.9,138.8z"/>
		<path class="st269" d="M56,136.4c-0.6-0.1-1.2,0-1.8,0.2c0.2,0.1,0.4,0.2,0.6,0.4c0.3-0.1,0.7-0.1,1.1,0c0.4,0.1,1.5,0.5,1.7,1.1
			C58.1,137.1,56.5,136.5,56,136.4z"/>
		<path class="st269" d="M58.4,139.1c0.1,0,0.2,0.1,0.2,0.1c0.1-0.1,0.1-0.2,0.2-0.3c0.2-0.3,0.2-0.6,0.2-0.9c0,0.1-0.1,0.2-0.1,0.3
			C58.7,138.7,58.6,138.9,58.4,139.1z"/>
		<path class="st270" d="M55.9,137c-0.4-0.1-0.7-0.1-1.1,0c0.8,0.5,1.6,1,2.4,1.5c0.1-0.1,0.1-0.1,0.2-0.2c0-0.1,0.1-0.1,0.1-0.2
			C57.4,137.4,56.3,137.1,55.9,137z"/>
		<path class="st269" d="M52.9,137.3c-1.4,0.8-3,1.6-4.6,0.8c-0.9-0.5-1.7-1.4-1.6-2.3c-0.4,1.2,0.4,2.2,1.5,2.9
			c1.6,0.9,3.1,0,4.6-0.8c0.9,0.6,1.9,1.1,2.8,1.7c0.2-0.1,0.4-0.2,0.5-0.3C55.1,138.6,54,137.9,52.9,137.3z"/>
		<path class="st270" d="M52.9,143.8c2.1,0,4.1-0.4,5.7-1.1c2.7-1.2,4.5-3.2,4.5-5.5c0-3.7-4.6-6.6-10.2-6.6c-2.3,0-4.4,0.5-6.1,1.3
			c-2.5,1.2-4.1,3.1-4.1,5.3C42.7,140.8,47.3,143.8,52.9,143.8z M46.6,133.5v-0.1l0.9-0.6l0.2-0.2c0.3,0.2,0.6,0.4,1,0.6
			c0.5-0.2,1-0.5,1.5-0.6l1.4,0.8l0.1,0c0,0,0,0-0.1,0v0.4v0.1c-0.1,0-0.2,0.1-0.3,0.1c-0.2,0.1-0.5,0.2-0.7,0.3
			c0.8,0.5,1.6,1,2.4,1.4c1.3-0.6,2.6-1,4.1-0.4c1.1,0.4,2.4,1.4,2,2.7c0,0.3-0.1,0.6-0.2,0.9c0,0.1-0.1,0.2-0.2,0.3
			c0.2,0.1,0.4,0.2,0.6,0.4c0,0,0,0,0,0c0,0,0,0,0,0l0,0l0,0.5v0l-1.2,0.8c-0.2-0.1-0.5-0.3-0.7-0.4c-0.6,0.5-1.4,0.8-2.1,1.1
			l-1.5-0.8v-0.5v0c0.1,0,0.3-0.1,0.4-0.1c0.5-0.2,1-0.4,1.5-0.6c-0.9-0.6-1.9-1.1-2.8-1.7c-1.4,0.8-3,1.6-4.6,0.8
			c-1.1-0.6-1.9-1.7-1.5-2.9v0c0-0.4,0.1-0.7,0.4-1.1c0,0,0.1-0.1,0.1-0.1c-0.1-0.1-0.3-0.2-0.4-0.3c-0.1-0.1-0.1-0.1-0.1-0.1V133.5
			z"/>
		<path class="st269" d="M48.1,136c0.1-0.2,0.3-0.4,0.5-0.6c0.8,0.5,1.6,1,2.4,1.4c0.2-0.1,0.3-0.2,0.5-0.3c0,0,0,0,0,0
			c-0.9-0.6-1.9-1.1-2.8-1.7C48.3,135.1,48.1,135.6,48.1,136z"/>
		<path class="st269" d="M58.1,140.4c-0.2-0.1-0.5-0.3-0.7-0.4c-0.6,0.5-1.4,0.8-2.1,1.1l-1-0.5l-0.6-0.3v0.5l1.5,0.8
			c0.7-0.3,1.5-0.6,2.1-1.1c0.2,0.1,0.5,0.3,0.7,0.4l1.2-0.8v0l0-0.5l-0.4,0.3L58.1,140.4z"/>
		<path class="st270" d="M48.1,136c0,0.4,0.4,0.8,1.1,1c0.7,0.2,1.3,0.1,1.8-0.2c-0.8-0.5-1.6-1-2.4-1.4
			C48.4,135.5,48.2,135.7,48.1,136z"/>
		<path class="st269" d="M52.9,145.1c5.9,0,10.8-2.7,12-6.3c0.2-0.5,0.3-1.1,0.3-1.7c0-4.4-5.5-7.9-12.3-7.9
			c-6.8,0-12.3,3.5-12.3,7.9c0,0,0,0,0,0.1c0,0.5,0.1,1.1,0.3,1.6C42.1,142.4,47,145.1,52.9,145.1z M46.8,131.8
			c1.7-0.8,3.8-1.3,6.1-1.3c5.7,0,10.2,3,10.2,6.6c0,2.3-1.8,4.3-4.5,5.5c-1.6,0.7-3.6,1.1-5.7,1.1c-5.7,0-10.2-3-10.2-6.6
			C42.7,135,44.3,133,46.8,131.8z"/>
		<path class="st268" d="M47,133.7c0.2,0.1,0.4,0.2,0.5,0.3c-0.1,0.1-0.2,0.2-0.4,0.4c0,0-0.1,0.1-0.1,0.1c-0.3,0.4-0.4,0.8-0.4,1.1
			v0c0,0.9,0.7,1.8,1.6,2.3c1.6,0.9,3.1,0,4.6-0.8c1.1,0.7,2.2,1.3,3.3,2c-0.2,0.1-0.4,0.2-0.5,0.3c-0.5,0.2-1.1,0.4-1.5,0.6
			c-0.1,0-0.2,0.1-0.4,0.1v0l0.6,0.3l1,0.5c0.7-0.3,1.5-0.6,2.1-1.1c0.2,0.1,0.5,0.3,0.7,0.4l0.7-0.5l0.4-0.3l0,0c0,0,0,0,0,0
			c0,0,0,0,0,0c-0.2-0.1-0.4-0.2-0.6-0.4c-0.1,0-0.2-0.1-0.2-0.1c0.2-0.2,0.4-0.4,0.5-0.7c0.1-0.1,0.1-0.2,0.1-0.3
			c0.5-1.3-0.9-2.3-2-2.7c-1.5-0.6-2.8-0.3-4.1,0.4c-0.8-0.5-1.6-0.9-2.4-1.4c-0.2-0.1-0.3-0.2-0.5-0.3c0.3-0.2,0.7-0.3,1-0.4
			c0.1,0,0.2-0.1,0.3-0.1c0.1,0,0.1-0.1,0.2-0.1c0,0,0,0,0.1,0l-0.1,0l-1.4-0.8c-0.5,0.2-1,0.4-1.5,0.6c-0.3-0.2-0.6-0.4-1-0.6
			l-0.2,0.2l-0.9,0.6v0.1c0.1,0,0.2,0.1,0.2,0.1C46.9,133.7,46.9,133.7,47,133.7z M51.6,136.5c-0.2,0.1-0.3,0.2-0.5,0.3
			c-0.6,0.3-1.1,0.4-1.8,0.2c-0.7-0.2-1-0.6-1.1-1c0-0.4,0.2-0.9,0.6-1.2C49.7,135.3,50.6,135.9,51.6,136.5
			C51.6,136.5,51.6,136.5,51.6,136.5z M57.5,138.1c0,0.1-0.1,0.1-0.1,0.2c0,0.1-0.1,0.1-0.2,0.2c-0.8-0.5-1.6-1-2.4-1.5
			c-0.2-0.1-0.4-0.2-0.6-0.4c0.6-0.2,1.1-0.3,1.8-0.2C56.5,136.5,58.1,137.1,57.5,138.1z"/>
		<path class="st269" d="M46.7,134.2c0.1,0.1,0.3,0.2,0.4,0.3c0.1-0.1,0.2-0.3,0.4-0.4c-0.2-0.1-0.4-0.2-0.5-0.3
			c-0.1,0-0.1-0.1-0.2-0.1c-0.1,0-0.2-0.1-0.2-0.1v0.5C46.6,134.1,46.6,134.1,46.7,134.2z"/>
		<path class="st269" d="M51.1,133.6c-0.3,0.1-0.7,0.3-1,0.4c0.2,0.1,0.3,0.2,0.5,0.3c0.3-0.1,0.5-0.2,0.7-0.3
			c0.1,0,0.2-0.1,0.3-0.1v-0.1v-0.4c0,0-0.1,0.1-0.2,0.1C51.3,133.6,51.2,133.6,51.1,133.6z"/>
	</g>
</g>
<g id="Layer_57">
</g>
<g id="Layer_56">
</g>
<g id="Layer_55">
	<g>
		<path class="st268" d="M97.6,89c-1.2,3.6-6.1,6.3-12,6.3c-5.9,0-10.8-2.7-12-6.3c-0.2-0.5-0.3-1-0.3-1.6v3.2
			c0,4.4,5.5,7.9,12.3,7.9c6.8,0,12.3-3.5,12.3-7.9v-3.3C97.8,88,97.7,88.5,97.6,89z"/>
		<path class="st269" d="M88.6,86.7c-0.6-0.1-1.2,0-1.8,0.2c0.2,0.1,0.4,0.2,0.6,0.4c0.3-0.1,0.7-0.1,1.1,0c0.4,0.1,1.5,0.5,1.7,1.1
			C90.7,87.3,89.2,86.8,88.6,86.7z"/>
		<path class="st269" d="M91,89.3c0.1,0,0.2,0.1,0.2,0.1c0.1-0.1,0.1-0.2,0.2-0.3c0.2-0.3,0.2-0.6,0.2-0.9c0,0.1-0.1,0.2-0.1,0.3
			C91.4,88.9,91.2,89.1,91,89.3z"/>
		<path class="st270" d="M88.5,87.2c-0.4-0.1-0.7-0.1-1.1,0c0.8,0.5,1.6,1,2.4,1.5c0.1-0.1,0.1-0.1,0.2-0.2c0-0.1,0.1-0.1,0.1-0.2
			C90,87.7,89,87.3,88.5,87.2z"/>
		<path class="st269" d="M85.5,87.5c-1.4,0.8-3,1.6-4.6,0.8c-0.9-0.5-1.7-1.4-1.6-2.3c-0.4,1.2,0.4,2.2,1.5,2.9
			c1.6,0.9,3.1,0,4.6-0.8c0.9,0.6,1.9,1.1,2.8,1.7c0.2-0.1,0.4-0.2,0.5-0.3C87.7,88.8,86.6,88.2,85.5,87.5z"/>
		<path class="st270" d="M85.6,94c2.1,0,4.1-0.4,5.7-1.1c2.7-1.2,4.5-3.2,4.5-5.5c0-3.7-4.6-6.6-10.2-6.6c-2.3,0-4.4,0.5-6.1,1.3
			c-2.5,1.2-4.1,3.1-4.1,5.3C75.3,91,79.9,94,85.6,94z M79.2,83.8v-0.1l0.9-0.6l0.2-0.2c0.3,0.2,0.6,0.4,1,0.6
			c0.5-0.2,1-0.5,1.5-0.6l1.4,0.8l0.1,0c0,0,0,0-0.1,0v0.4v0.1c-0.1,0-0.2,0.1-0.3,0.1c-0.2,0.1-0.5,0.2-0.7,0.3
			c0.8,0.5,1.6,1,2.4,1.4c1.3-0.6,2.6-1,4.1-0.4c1.1,0.4,2.4,1.4,2,2.7c0,0.3-0.1,0.6-0.2,0.9c0,0.1-0.1,0.2-0.2,0.3
			c0.2,0.1,0.4,0.2,0.6,0.4c0,0,0,0,0,0c0,0,0,0,0,0l0,0l0,0.5v0l-1.2,0.8c-0.2-0.1-0.5-0.3-0.7-0.4c-0.6,0.5-1.4,0.8-2.1,1.1
			l-1.5-0.8v-0.5v0c0.1,0,0.3-0.1,0.4-0.1c0.5-0.2,1-0.4,1.5-0.6c-0.9-0.6-1.9-1.1-2.8-1.7c-1.4,0.8-3,1.6-4.6,0.8
			c-1.1-0.6-1.9-1.7-1.5-2.9v0c0-0.4,0.1-0.7,0.4-1.1c0,0,0.1-0.1,0.1-0.1c-0.1-0.1-0.3-0.2-0.4-0.3c-0.1-0.1-0.1-0.1-0.1-0.1V83.8z
			"/>
		<path class="st269" d="M80.8,86.2c0.1-0.2,0.3-0.4,0.5-0.6c0.8,0.5,1.6,1,2.4,1.4c0.2-0.1,0.3-0.2,0.5-0.3c0,0,0,0,0,0
			c-0.9-0.6-1.9-1.1-2.8-1.7C80.9,85.4,80.7,85.8,80.8,86.2z"/>
		<path class="st269" d="M90.7,90.6c-0.2-0.1-0.5-0.3-0.7-0.4c-0.6,0.5-1.4,0.8-2.1,1.1l-1-0.5l-0.6-0.3v0.5l1.5,0.8
			c0.7-0.3,1.5-0.6,2.1-1.1c0.2,0.1,0.5,0.3,0.7,0.4l1.2-0.8v0l0-0.5l-0.4,0.3L90.7,90.6z"/>
		<path class="st270" d="M80.8,86.2c0,0.4,0.4,0.8,1.1,1c0.7,0.2,1.3,0.1,1.8-0.2c-0.8-0.5-1.6-1-2.4-1.4
			C81.1,85.8,80.9,86,80.8,86.2z"/>
		<path class="st269" d="M85.6,95.3c5.9,0,10.8-2.7,12-6.3c0.2-0.5,0.3-1.1,0.3-1.7c0-4.4-5.5-7.9-12.3-7.9
			c-6.8,0-12.3,3.5-12.3,7.9c0,0,0,0,0,0.1c0,0.5,0.1,1.1,0.3,1.6C74.8,92.6,79.7,95.3,85.6,95.3z M79.5,82.1
			c1.7-0.8,3.8-1.3,6.1-1.3c5.7,0,10.2,3,10.2,6.6c0,2.3-1.8,4.3-4.5,5.5c-1.6,0.7-3.6,1.1-5.7,1.1c-5.7,0-10.2-3-10.2-6.6
			C75.3,85.2,77,83.3,79.5,82.1z"/>
		<path class="st268" d="M79.6,84c0.2,0.1,0.4,0.2,0.5,0.3c-0.1,0.1-0.2,0.2-0.4,0.4c0,0-0.1,0.1-0.1,0.1c-0.3,0.4-0.4,0.8-0.4,1.1
			v0c0,0.9,0.7,1.8,1.6,2.3c1.6,0.9,3.1,0,4.6-0.8c1.1,0.7,2.2,1.3,3.3,2c-0.2,0.1-0.4,0.2-0.5,0.3c-0.5,0.2-1.1,0.4-1.5,0.6
			c-0.1,0-0.2,0.1-0.4,0.1v0l0.6,0.3l1,0.5c0.7-0.3,1.5-0.6,2.1-1.1c0.2,0.1,0.5,0.3,0.7,0.4l0.7-0.5l0.4-0.3l0,0c0,0,0,0,0,0
			c0,0,0,0,0,0c-0.2-0.1-0.4-0.2-0.6-0.4c-0.1,0-0.2-0.1-0.2-0.1c0.2-0.2,0.4-0.4,0.5-0.7c0.1-0.1,0.1-0.2,0.1-0.3
			c0.5-1.3-0.9-2.3-2-2.7c-1.5-0.6-2.8-0.3-4.1,0.4c-0.8-0.5-1.6-0.9-2.4-1.4c-0.2-0.1-0.3-0.2-0.5-0.3c0.3-0.2,0.7-0.3,1-0.4
			c0.1,0,0.2-0.1,0.3-0.1c0.1,0,0.1-0.1,0.2-0.1c0,0,0,0,0.1,0l-0.1,0l-1.4-0.8c-0.5,0.2-1,0.4-1.5,0.6c-0.3-0.2-0.6-0.4-1-0.6
			l-0.2,0.2l-0.9,0.6v0.1c0.1,0,0.2,0.1,0.2,0.1C79.5,83.9,79.6,83.9,79.6,84z M84.2,86.7c-0.2,0.1-0.3,0.2-0.5,0.3
			c-0.6,0.3-1.1,0.4-1.8,0.2c-0.7-0.2-1-0.6-1.1-1c0-0.4,0.2-0.9,0.6-1.2C82.3,85.6,83.3,86.2,84.2,86.7
			C84.2,86.7,84.2,86.7,84.2,86.7z M90.2,88.3c0,0.1-0.1,0.1-0.1,0.2c0,0.1-0.1,0.1-0.2,0.2c-0.8-0.5-1.6-1-2.4-1.5
			c-0.2-0.1-0.4-0.2-0.6-0.4c0.6-0.2,1.1-0.3,1.8-0.2C89.2,86.8,90.7,87.3,90.2,88.3z"/>
		<path class="st269" d="M79.4,84.4c0.1,0.1,0.3,0.2,0.4,0.3c0.1-0.1,0.2-0.3,0.4-0.4c-0.2-0.1-0.4-0.2-0.5-0.3
			c-0.1,0-0.1-0.1-0.2-0.1c-0.1,0-0.2-0.1-0.2-0.1v0.5C79.3,84.4,79.3,84.4,79.4,84.4z"/>
		<path class="st269" d="M83.7,83.9c-0.3,0.1-0.7,0.3-1,0.4c0.2,0.1,0.3,0.2,0.5,0.3c0.3-0.1,0.5-0.2,0.7-0.3c0.1,0,0.2-0.1,0.3-0.1
			v-0.1v-0.4c0,0-0.1,0.1-0.2,0.1C83.9,83.8,83.8,83.8,83.7,83.9z"/>
	</g>
</g>
<g id="Layer_54">
</g>
<g id="Layer_53">
</g>
<g id="Layer_52">
</g>
<g id="Layer_51">
</g>
<g id="Layer_50">
</g>
<g id="Layer_49">
</g>
<g id="Layer_48">
</g>
<g id="Layer_31">
</g>
<g id="Layer_47">
</g>
<g id="Layer_46">
</g>
<g id="Layer_45">
</g>
<g id="Layer_44">
</g>
<g id="Layer_43">
</g>
<g id="Layer_36">
</g>
<g id="Layer_38">
</g>
<g id="Layer_10">
</g>
</svg>
