<?xml version="1.0" encoding="utf-8"?>
<!-- Generator: Adobe Illustrator 21.0.2, SVG Export Plug-In . SVG Version: 6.00 Build 0)  -->
<svg version="1.1" xmlns="http://www.w3.org/2000/svg" xmlns:xlink="http://www.w3.org/1999/xlink" x="0px" y="0px"
	 viewBox="0 0 102.5 101.4" style="enable-background:new 0 0 102.5 101.4;" xml:space="preserve">
<style type="text/css">
	.st0{fill:#FFFFFF;}
	.st1{fill:#A39195;}
	.st2{fill:#606362;}
	.st3{fill:#343C4A;}
	.st4{fill:#7A7A7A;}
	.st5{fill:#F9A21B;}
	.st6{fill:#7C807E;}
	.st7{fill:#8A1621;}
	.st8{fill:#FFE2CF;}
	.st9{fill:#3B414D;}
	.st10{fill:#F9B346;}
	.st11{fill:#FFD4B8;}
	.st12{fill:#FFC49E;}
	.st13{fill:#F5C86C;}
	.st14{fill:#4A4D4C;}
	.st15{fill:#E39419;}
	.st16{fill:#282F39;}
	.st17{fill:#979797;}
	.st18{fill:#DE9018;}
	.st19{fill:#C13831;}
	.st20{fill:#4B576B;}
	.st21{fill:#454D5A;}
	.st22{fill:#949997;}
	.st23{fill:#808080;}
	.st24{fill:#C47F15;}
	.st25{fill:#D68B17;}
	.st26{fill:#616161;}
	.st27{fill:#D73F36;}
	.st28{fill:#862722;}
	.st29{fill:#C98316;}
	.st30{fill:#231F20;}
	.st31{fill:#F6C96B;}
	.st32{fill:#FCA30B;}
	.st33{fill:#FA493F;}
	.st34{fill:#9A1503;}
	.st35{fill:#413833;}
	.st36{fill:#E4A549;}
	.st37{fill:#454E5B;}
	.st38{fill:#969595;}
	.st39{fill:#B2B9B5;}
	.st40{fill:#DADFDD;}
	.st41{fill:#A3AAA7;}
	.st42{fill:#EBF1EF;}
	.st43{fill:#868B89;}
	.st44{fill:#5B5E5E;}
	.st45{fill:#F5FAF8;}
	.st46{fill:#B9E5F8;}
	.st47{fill:#A1A5A4;}
	.st48{fill:#BDC6C2;}
	.st49{fill:#BBC2BF;}
	.st50{fill:#D7DDDB;}
	.st51{fill:#E2E8E6;}
	.st52{fill:#BFC3C1;}
	.st53{fill:#F05523;}
	.st54{fill:#CCD1CF;}
	.st55{fill:#AFAFB0;}
	.st56{fill:#12151A;}
	.st57{fill:#787B7C;}
	.st58{fill:#B22124;}
	.st59{fill:#CFD8D3;}
	.st60{fill:#D9B15E;}
	.st61{fill:#BE9B53;}
	.st62{fill:#BF9C53;}
	.st63{fill:#B07D2E;}
	.st64{fill:#15191F;}
	.st65{fill:#E4EAE8;}
	.st66{fill:#603913;}
	.st67{fill:#B4935E;}
	.st68{fill:#F6DAA0;}
	.st69{fill:#997C50;}
	.st70{fill:#262B36;}
	.st71{fill:#E3A44A;}
	.st72{fill:#B4B8B6;}
	.st73{fill:#C9CFCD;}
	.st74{fill:#FFB23A;}
	.st75{fill:#4E5250;}
	.st76{fill:#CFD4D3;}
	.st77{fill:#898F8C;}
	.st78{fill:#D2DBD7;}
	.st79{fill:#F1F7F5;}
	.st80{fill:#E3E8E6;}
	.st81{fill:#ECF2F0;}
	.st82{fill:#EB980A;}
	.st83{fill:#D98C09;}
	.st84{fill:#2B210D;}
	.st85{fill:#FFC03D;}
	.st86{fill:#404241;}
	.st87{fill:#573804;}
	.st88{fill:#B08038;}
	.st89{fill:#734A05;}
	.st90{fill:#B87708;}
	.st91{fill:#D48909;}
	.st92{fill:#FFA50B;}
	.st93{fill:#FFD887;}
	.st94{fill:#AFD9EB;}
	.st95{fill:#3E403F;}
	.st96{fill:#565958;}
	.st97{fill:#B0896D;}
	.st98{fill:#20252E;}
	.st99{fill:#353F4D;}
	.st100{fill:#E89410;}
	.st101{fill:#FFCC7D;}
	.st102{fill:#FFB036;}
	.st103{fill:#D1D6D4;}
	.st104{fill:#5B5E5D;}
	.st105{fill:#B0B0B0;}
	.st106{fill:#1E242B;}
	.st107{fill:#D4870F;}
	.st108{fill:#6B1119;}
	.st109{fill:#594A42;}
	.st110{fill:#FFD47A;}
	.st111{fill:#947840;}
	.st112{fill:#967B41;}
	.st113{fill:#756033;}
	.st114{fill:#C29E54;}
	.st115{fill:#A88A49;}
	.st116{fill:#AD8D4C;}
	.st117{fill:#FFB543;}
	.st118{fill:#F6D99B;}
	.st119{fill:#61491A;}
	.st120{fill:#B57613;}
	.st121{fill:#C48015;}
	.st122{fill:#9E6711;}
	.st123{fill:#8A703C;}
	.st124{fill:#806843;}
	.st125{fill:#A68748;}
	.st126{fill:#A18346;}
	.st127{fill:#FFD782;}
</style>
<g id="Layer_24">
</g>
<g id="Layer_26">
</g>
<g id="Layer_26_copy">
</g>
<g id="Layer_5">
</g>
<g id="Layer_1">
</g>
<g id="Layer_1_copy">
</g>
<g id="Layer_8_copy_3">
</g>
<g id="Layer_3">
</g>
<g id="Layer_30">
</g>
<g id="Layer_30_copy">
</g>
<g id="Layer_3_copy">
</g>
<g id="Layer_2">
</g>
<g id="Layer_2_copy">
</g>
<g id="Layer_4">
</g>
<g id="Layer_4_copy">
</g>
<g id="Layer_5_copy">
</g>
<g id="Layer_6">
</g>
<g id="Layer_6_copy">
</g>
<g id="Layer_7">
</g>
<g id="Layer_7_copy">
	<g id="XMLID_32_">
		<g>
			<polygon class="st82" points="100.7,42.8 100.8,46.9 95.7,49.9 95.6,49.2 96.3,48.7 96.4,46.2 96,46 96,45.4 			"/>
			<polygon class="st31" points="100.7,42.8 96,45.4 96,44.8 99.2,42.9 99.2,42.7 99.2,41.8 			"/>
			<polygon class="st31" points="99.2,42.7 99.2,42.9 96,44.8 96,45.4 95.5,45.6 94.4,45.1 			"/>
			<path class="st47" d="M99.2,41.8l0,0.9l-4.8,2.4l0.2,4.3l0.4,0.2l-11.6,6.8v0l0.1-1.6l-1.4-1.9l-1.7,0.3l-2.2-1.3
				c-0.2-0.1-0.4-0.3-0.6-0.3h0c-0.7-0.3-1.5-0.3-2.4,0.1l24-13L99.2,41.8z"/>
			<path class="st13" d="M99.2,37.2v1.3l-24,13c-0.3,0.1-0.6,0.3-0.9,0.4c-0.2,0.1-0.4,0.2-0.6,0.4L64,57.6c-0.3,0.1-0.7,0.3-1,0.5
				c-0.2,0.1-0.5,0.3-0.7,0.4l-20,10.8l0-1.1l-0.1-0.1L99.2,37.2z"/>
			<path class="st47" d="M42.2,68.1l0.1,0.1l-1.7,1l-1.8,1l0,0l0-15.7l60.5-34.9l0,17.6L42.2,68.1z M94.7,34.6l2.9-1.6l0.1-2.7
				l-3,1.6l-1.2,0.7L89,35l-1.2,0.7l-4.4,2.3l-1.2,0.7l-4.1,2.2l-1.2,0.7L73,43.7l-1.2,0.7l-4.4,2.4l-1.2,0.7l-4.5,2.4l-1.2,0.7
				l-4.1,2.2l-1.2,0.7L51,55.6l-1.2,0.7l-1.1,0.6v-2l-5.2,6.7l5.2,0.2v-2.1l1.1-0.6l1.2-0.7l4.1-2.2l1.2-0.7l4.1-2.2l1.2-0.7
				l4.5-2.4l1.2-0.7l4.4-2.4l1.2-0.7l3.9-2.1l1.2-0.7l4.1-2.2l1.2-0.7l4.4-2.4l1.2-0.7l4.4-2.4L94.7,34.6z"/>
			<polygon class="st50" points="99.2,19.6 38.7,54.5 17.2,42 77.7,7.1 			"/>
			<polygon class="st13" points="97.7,30.4 97.6,33.1 94.7,34.6 94.7,32 			"/>
			<polygon class="st82" points="96.4,46.2 96.3,48.7 95.6,49.2 95.5,45.6 96,45.4 96,46 96,46.5 			"/>
			<polygon class="st82" points="96.4,46.2 96,46.5 96,46 			"/>
			<polygon class="st83" points="95.6,49.2 95.7,49.9 95.7,49.9 95,49.5 			"/>
			<polygon class="st83" points="95.5,45.6 95.6,49.2 95,49.5 94.7,49.3 94.4,45.1 			"/>
			<polygon class="st47" points="94.7,32 94.7,34.6 93.4,35.3 93.4,32.7 			"/>
			<polygon class="st13" points="93.4,32.7 93.4,35.3 89,37.7 89,35 			"/>
			<polygon class="st47" points="89,35 89,37.7 87.8,38.4 87.8,35.7 			"/>
			<polygon class="st13" points="87.8,35.7 87.8,38.4 83.4,40.7 83.4,38.1 			"/>
			<path class="st47" d="M82.1,52.8l1.4,1.9l-0.1,1.6c-0.2-0.6-0.5-1.1-1-1.4c0,0-0.1-0.1-0.1-0.1c-0.2-0.6-0.6-1-1.1-1.3l0,0
				L81,53.4l-0.5-0.3L82.1,52.8z"/>
			<polygon class="st47" points="83.4,38.1 83.4,40.7 82.2,41.4 82.2,38.7 			"/>
			<path class="st84" d="M83.4,56.4L83.4,56.4l-0.9-0.5c-0.1-0.4-0.1-0.7-0.3-1c0,0,0.1,0.1,0.1,0.1C82.8,55.3,83.2,55.8,83.4,56.4
				L83.4,56.4z"/>
			<path class="st35" d="M82.5,55.8c0,0.3,0.1,0.6,0.1,0.9c0,3.2-2.3,7.2-5.1,8.8c-1.3,0.7-2.4,0.9-3.3,0.5
				c-0.2-0.1-0.4-0.2-0.5-0.3c-0.4-0.3-0.8-0.8-1-1.4c-0.1-0.3-0.2-0.6-0.2-0.9c0.4-0.3,1.3-0.8,1.9-1.1c0,0.1,0,0.2,0.1,0.3
				c0.1,0.4,0.4,0.7,0.6,0.9c0.1,0.1,0.2,0.1,0.3,0.2c0.6,0.2,1.3,0.1,2.1-0.3c1.8-1,3.3-3.6,3.3-5.7c0-1-0.3-1.7-0.9-2.1l0,0
				l-0.1-0.1c-0.3-0.2-0.7-0.2-1.2-0.1c0,0,0,0,0,0c0.5-0.3,0.9-0.6,1.5-0.8c0.2-0.1,0.3-0.1,0.5-0.1L82.5,55.8z"/>
			<path class="st35" d="M82.5,55.8l-2-1.2c0.6-0.1,1.2-0.1,1.7,0.3C82.3,55.1,82.4,55.5,82.5,55.8z"/>
			<polygon class="st13" points="82.2,38.7 82.2,41.4 78.1,43.6 78.1,40.9 			"/>
			<path class="st47" d="M81.1,53.5c0.5,0.3,0.8,0.7,1.1,1.3c-0.5-0.3-1.1-0.4-1.7-0.3l-1.9-1.2l1.5-0.2c0.3,0,0.6,0.1,0.9,0.3
				L81.1,53.5L81.1,53.5z"/>
			<path class="st47" d="M80.4,53.1l0.5,0.3c-0.3-0.1-0.6-0.2-0.9-0.3L80.4,53.1z"/>
			<path class="st47" d="M78.6,53.4l1.9,1.2c-0.2,0-0.3,0.1-0.5,0.1c-0.5,0.2-1,0.5-1.5,0.8c-0.3,0.1-0.7,0.2-1.1,0.4
				c-1.8,1-3.3,3.6-3.3,5.7c0,0.3,0,0.6,0.1,0.8c-0.5,0.3-1.4,0.8-1.9,1.1c0-0.1,0-0.3,0-0.4l0.1-1.2l-0.1-0.1c0.3-3.1,2.5-6.5,5-8
				c0.6-0.3,1.2-0.5,1.7-0.6c0.3-0.1,0.6-0.1,0.9,0L78.6,53.4z"/>
			<path class="st47" d="M80.4,53.1l-0.3,0c-0.3,0-0.6,0-0.9,0c-0.5,0.1-1.1,0.3-1.7,0.6c-2.6,1.5-4.7,4.9-5,8L71,59.9l-0.7,0.1
				c-0.1-0.2-0.3-0.3-0.5-0.4l0,0l-0.2-0.1l-0.2-0.1c0.5-2.7,2.2-5.5,4.4-7.1l1.5-0.8c0.9-0.3,1.7-0.3,2.4-0.1h0
				c0.2,0.1,0.4,0.2,0.6,0.3L80.4,53.1z"/>
			<path class="st16" d="M79.8,55.7c0.6,0.4,0.9,1.1,0.9,2.1c0,2.1-1.5,4.6-3.3,5.7c-0.8,0.5-1.6,0.6-2.1,0.3
				c-0.1,0-0.2-0.1-0.3-0.2c-0.3-0.2-0.5-0.5-0.6-0.9c0-0.1-0.1-0.2-0.1-0.3c0.2-0.1,0.3-0.2,0.4-0.2c0.1,0,0.1-0.1,0.1-0.2
				c0.3-1.5,0.8-2.9,1.7-4.2c0.6-0.8,1.3-1.7,2.1-2.3c0,0,0,0,0,0c0.4-0.1,0.8,0,1.2,0.1L79.8,55.7L79.8,55.7z M78.9,58.8
				c0-0.4-0.2-0.8-0.4-0.9h0l0,0c-0.1-0.1-0.3-0.1-0.5-0.1c-0.2,0-0.3,0.1-0.5,0.2c-0.8,0.5-1.4,1.6-1.4,2.5c0,0.2,0,0.4,0.1,0.5
				c0.1,0.2,0.2,0.3,0.3,0.4c0,0,0.1,0.1,0.1,0.1c0.2,0.1,0.6,0.1,0.9-0.1C78.3,60.9,78.9,59.8,78.9,58.8z"/>
			<path class="st85" d="M78.5,57.9c0.2,0.2,0.4,0.5,0.4,0.9c0,0.9-0.6,2-1.4,2.5c-0.4,0.2-0.7,0.2-0.9,0.1c0,0-0.1,0-0.1-0.1
				c-0.1-0.1-0.2-0.2-0.3-0.4c0-0.1-0.1-0.3-0.1-0.5c0-0.9,0.6-2,1.4-2.5c0.2-0.1,0.3-0.2,0.5-0.2C78.1,57.8,78.3,57.8,78.5,57.9
				L78.5,57.9L78.5,57.9z"/>
			<polygon class="st47" points="78.1,40.9 78.1,43.6 76.9,44.3 76.9,41.6 			"/>
			<path class="st47" d="M77.5,55.9c0.4-0.2,0.7-0.3,1.1-0.4c-0.9,0.6-1.6,1.4-2.1,2.3C75.6,59,75,60.5,74.7,62c0,0.1,0,0.2-0.1,0.2
				c-0.1,0-0.2,0.1-0.4,0.2c-0.1-0.3-0.1-0.5-0.1-0.8C74.2,59.5,75.7,56.9,77.5,55.9z"/>
			<polygon class="st13" points="76.9,41.6 76.9,44.3 73,46.4 73,43.7 			"/>
			<path class="st47" d="M75.2,51.5l-1.5,0.8c0.2-0.1,0.4-0.2,0.6-0.4C74.6,51.8,74.9,51.7,75.2,51.5z"/>
			<path class="st47" d="M64,57.6l9.8-5.3c-2.2,1.5-3.9,4.4-4.4,7.1l-2.5-1.5c-0.2-0.1-0.4-0.3-0.6-0.3h0
				C65.6,57.3,64.9,57.3,64,57.6z"/>
			<path class="st21" d="M73.6,65.7l-2.5-1.5c0.1-0.5,0.1-0.9,0.1-1.4c0,0,0,0,0-0.1l1.2,0.7c0,0,0,0,0.1,0c0,0.3,0.1,0.6,0.2,0.9
				C72.9,65,73.2,65.4,73.6,65.7z"/>
			<polygon class="st47" points="73,43.7 73,46.4 71.8,47.1 71.8,44.4 			"/>
			<path class="st47" d="M72.4,61.8L72.4,61.8l0,1.3c0-0.1,0-0.3,0-0.5C72.4,62.3,72.4,62.1,72.4,61.8z"/>
			<path class="st47" d="M72.4,63.5C72.4,63.5,72.4,63.5,72.4,63.5l0-0.4C72.4,63.2,72.4,63.3,72.4,63.5z"/>
			<path class="st47" d="M71,59.9l1.4,1.8c0,0.3,0,0.6,0,0.8c0,0.2,0,0.3,0,0.5l0,0.5c-0.1-0.3-0.2-0.5-0.3-0.8
				c-0.2-0.6-0.6-1.1-1.1-1.4c-0.2-0.5-0.4-1-0.7-1.3L71,59.9z"/>
			<path class="st84" d="M72.4,63.5l-1.2-0.7c0-0.5-0.1-1-0.2-1.4c0.5,0.3,0.8,0.8,1.1,1.4C72.2,63,72.3,63.3,72.4,63.5z"/>
			<polygon class="st13" points="71.8,44.4 71.8,47.1 67.4,49.4 67.4,46.7 			"/>
			<path class="st35" d="M71.2,62.8C71.2,62.8,71.2,62.8,71.2,62.8c0,0.5,0,1-0.1,1.5l-0.3-0.1L70.7,64c-0.7-0.4-1.2-1.3-1.4-2.4
				L71.2,62.8z"/>
			<path class="st35" d="M71.2,62.8l-1.9-1.2c0-0.2,0-0.4,0-0.5c0.1,0,0.2,0,0.3-0.1c0.6-0.1,1,0.1,1.5,0.3
				C71.1,61.8,71.2,62.3,71.2,62.8z"/>
			<path class="st35" d="M70.8,64.1l0.3,0.1c-0.5,2.9-2.5,6-5,7.4c-1.3,0.7-2.4,0.9-3.3,0.5c-0.2-0.1-0.4-0.2-0.5-0.3
				c-0.4-0.3-0.8-0.8-1-1.4c-0.1-0.3-0.2-0.6-0.2-0.9c0.7-0.4,1.3-0.8,1.8-1.1c0,0.1,0.1,0.2,0.1,0.3c0.1,0.4,0.4,0.7,0.6,0.9
				c0.1,0.1,0.2,0.1,0.3,0.2c0.6,0.2,1.3,0.1,2.1-0.3c1.8-1,3.3-3.6,3.3-5.7c0-1-0.3-1.7-0.9-2.1l0,0l-0.1-0.1
				c-0.1-0.1-0.2-0.1-0.4-0.1c0.2-0.2,0.5-0.3,0.7-0.4l0.6,0.4c0.2,1.2,0.7,2,1.4,2.4L70.8,64.1z"/>
			<path class="st47" d="M70.3,60.1c0.3,0.3,0.5,0.8,0.7,1.3c-0.4-0.3-0.9-0.4-1.5-0.3c-0.1,0-0.2,0-0.3,0.1c0-0.1,0-0.2,0-0.3
				c0-0.2,0-0.4,0-0.6L70.3,60.1z"/>
			<path class="st47" d="M70.3,60.1l-1,0.2c0-0.3,0.1-0.5,0.1-0.8c0.1,0,0.1,0.1,0.2,0.1l0.2,0.1l0,0C70,59.7,70.2,59.9,70.3,60.1z"
				/>
			<path class="st47" d="M69.6,59.5c-0.1,0-0.1-0.1-0.2-0.1c0,0,0,0,0,0L69.6,59.5z"/>
			<path class="st47" d="M69.4,59.4C69.4,59.4,69.4,59.4,69.4,59.4c-0.5-0.2-1-0.2-1.6-0.1c-0.5,0.1-1.1,0.3-1.7,0.6
				c-2.8,1.6-5.1,5.6-5.1,8.8c0,0.3,0,0.6,0.1,0.8c-0.4,0.2-0.9,0.5-1.4,0.8l-0.2-0.1l-0.1-0.1c-0.9-0.5-1.4-1.7-1.4-3.3
				c0-3,1.9-6.5,4.4-8.4l1.7-0.9c0.9-0.3,1.6-0.3,2.3,0h0c0.2,0.1,0.4,0.2,0.6,0.3L69.4,59.4z"/>
			<path class="st47" d="M69.4,59.4c-0.1,0.3-0.1,0.5-0.1,0.8l-1.7,0.3l1.2,0.7c-0.3,0.1-0.5,0.2-0.7,0.4c-0.2-0.1-0.5-0.1-0.8,0
				c-0.3,0.1-0.7,0.2-1.1,0.4c-1.8,1-3.3,3.6-3.3,5.7c0,0.3,0,0.6,0.1,0.8c-0.5,0.3-1.1,0.7-1.8,1.1c0-0.3-0.1-0.5-0.1-0.8
				c0-3.2,2.3-7.2,5.1-8.8c0.6-0.3,1.2-0.6,1.7-0.6C68.4,59.2,68.9,59.2,69.4,59.4z"/>
			<path class="st35" d="M69.3,61.6l-0.6-0.4c0.2-0.1,0.4-0.1,0.5-0.2C69.3,61.3,69.3,61.4,69.3,61.6z"/>
			<path class="st47" d="M69.3,60.2c0,0.2,0,0.4,0,0.6c0,0.1,0,0.2,0,0.3c-0.2,0-0.4,0.1-0.5,0.2l-1.2-0.7L69.3,60.2z"/>
			<path class="st16" d="M68.5,61.8c0.6,0.4,0.9,1.1,0.9,2.1c0,2.1-1.5,4.6-3.3,5.7c-0.8,0.5-1.6,0.6-2.1,0.3
				c-0.1,0-0.2-0.1-0.3-0.2c-0.3-0.2-0.5-0.5-0.6-0.9c0-0.1-0.1-0.2-0.1-0.3c0.9-0.5,1.4-0.8,1.4-0.8c0.1-0.1,0.1-0.2,0.1-0.3
				c0.1-0.3,0.1-0.6,0.2-0.9c0,0.1,0,0.1,0,0.2c0,0.2,0,0.4,0.1,0.5c0.1,0.2,0.2,0.3,0.3,0.4c0,0,0.1,0.1,0.1,0.1
				c0.3,0.1,0.6,0.1,0.9-0.1c0.8-0.5,1.4-1.6,1.4-2.5c0-0.4-0.1-0.8-0.4-0.9l0,0l0,0C67,64,66.8,63.9,66.6,64
				c-0.1,0-0.3,0.1-0.5,0.2c-0.3,0.2-0.7,0.5-0.9,0.9c0.3-0.8,0.8-1.5,1.3-2.1c0.4-0.5,0.9-1,1.5-1.3c0.1,0,0.2,0.1,0.4,0.1
				L68.5,61.8L68.5,61.8z"/>
			<path class="st47" d="M67.2,61.6c0.3-0.1,0.6,0,0.8,0c-0.6,0.4-1.1,0.8-1.5,1.3c-0.5,0.6-1,1.3-1.3,2.1c-0.3,0.4-0.5,0.9-0.5,1.4
				c-0.1,0.3-0.2,0.6-0.2,0.9c0,0.1,0,0.3-0.1,0.3c0,0-0.5,0.3-1.4,0.8c-0.1-0.2-0.1-0.5-0.1-0.8c0-2.1,1.5-4.6,3.3-5.7
				C66.5,61.8,66.9,61.7,67.2,61.6z"/>
			<polygon class="st47" points="67.4,46.7 67.4,49.4 66.2,50.1 66.2,47.4 			"/>
			<path class="st85" d="M67.2,64.1c0.2,0.2,0.4,0.5,0.4,0.9c0,0.9-0.6,2-1.4,2.5c-0.4,0.2-0.7,0.2-0.9,0.1c0,0-0.1,0-0.1-0.1
				c-0.1-0.1-0.2-0.2-0.3-0.4c-0.1-0.1-0.1-0.3-0.1-0.5c0-0.1,0-0.1,0-0.2c0.1-0.5,0.3-0.9,0.5-1.4c0.2-0.4,0.6-0.7,0.9-0.9
				c0.2-0.1,0.3-0.2,0.5-0.2C66.8,63.9,67,64,67.2,64.1L67.2,64.1L67.2,64.1z"/>
			<polygon class="st13" points="66.2,47.4 66.2,50.1 61.7,52.5 61.7,49.8 			"/>
			<path class="st47" d="M65.2,65c-0.2,0.4-0.4,0.9-0.5,1.4C64.7,66,64.9,65.5,65.2,65z"/>
			<path class="st47" d="M64,57.6l-1.7,0.9c0.2-0.2,0.4-0.3,0.7-0.4C63.3,57.9,63.7,57.7,64,57.6z"/>
			<path class="st47" d="M42.3,69.4l20-10.8c-2.5,1.8-4.4,5.4-4.4,8.4c0,1.6,0.5,2.7,1.4,3.3l0.1,0.1l0.2,0.1
				c-0.7,0.4-1.5,0.9-2.3,1.3V67l-1.5,0.9l-13.5,7.5l-0.1-0.1L42.3,69.4z"/>
			<path class="st21" d="M62.3,71.9l-2.6-1.5c0.5-0.3,1-0.6,1.4-0.8c0,0.3,0.1,0.6,0.2,0.9C61.5,71.1,61.9,71.5,62.3,71.9z"/>
			<polygon class="st47" points="61.7,49.8 61.7,52.5 60.5,53.2 60.5,50.5 			"/>
			<polygon class="st13" points="60.5,50.5 60.5,53.2 56.3,55.4 56.3,52.7 			"/>
			<path class="st86" d="M57.4,67v4.7c-0.2,0.1-0.3,0.2-0.5,0.3v0v-3.6l-1-0.5L57.4,67z"/>
			<path class="st82" d="M56.9,72L56.9,72c-8,4.7-19.8,11.6-20.5,12l0-4.9l2.3-1.3l0-6.5l2.9-1.7l0.1,0.1l0,5.2l0,1.9l15.1-8.4V72z"
				/>
			<polygon class="st87" points="56.9,68.4 41.8,76.8 41.8,75 42.4,75.4 42.4,75.5 42.4,75.4 55.9,67.9 			"/>
			<polygon class="st47" points="56.3,52.7 56.3,55.4 55.1,56.1 55.1,53.4 			"/>
			<polygon class="st13" points="55.1,53.4 55.1,56.1 51,58.3 51,55.6 			"/>
			<polygon class="st47" points="51,55.6 51,58.3 49.7,59 49.7,56.3 			"/>
			<polygon class="st13" points="49.7,56.3 49.7,59 48.6,59.6 48.6,56.9 			"/>
			<polygon class="st13" points="48.6,59.6 48.6,61.7 43.4,61.5 48.6,54.8 48.6,56.9 48.3,57 48.3,59.7 			"/>
			<polygon class="st13" points="48.6,56.9 48.6,59.6 48.3,59.7 48.3,57 			"/>
			<polygon class="st47" points="42.4,75.4 42.4,75.5 42.4,75.4 			"/>
			<polygon class="st86" points="42.3,69.4 42.4,75.4 41.8,75 41.8,69.7 41.8,69.6 41.7,69.7 40.6,69.2 42.3,68.2 			"/>
			<polygon class="st88" points="41.8,69.6 41.8,69.7 41.7,69.7 			"/>
			<polygon class="st89" points="41.7,69.7 38.7,71.3 38.7,70.2 38.8,70.2 40.6,69.2 			"/>
			<polygon class="st90" points="38.7,71.3 38.8,77.8 35.3,75.8 35.6,75.6 36.7,75 36.7,72.7 36.6,70.1 			"/>
			<polygon class="st91" points="38.8,77.8 36.5,79.1 33,77.1 33.2,77 35.3,75.8 			"/>
			<polygon class="st89" points="38.7,70.2 38.7,71.3 36.6,70.1 36.6,69 			"/>
			<polygon class="st43" points="38.7,54.5 38.7,70.2 36.6,69 36.6,67.9 36.6,60.6 36.6,59.2 36.6,59.2 36,57.8 19.6,48.2 
				17.2,49.6 17.2,42 			"/>
			<path class="st85" d="M36.7,72.7l0,2.4l-1,0.6l-0.3,0.2l-0.2-0.1l1-0.6l0-2.2C36.3,72.8,36.5,72.7,36.7,72.7z"/>
			<path class="st82" d="M36.6,70.1l0,2.5c-0.2,0.1-0.4,0.2-0.6,0.3l0-4.7l0.6-0.3l0,1V70.1z"/>
			<polygon class="st82" points="36.6,60.6 36.6,67.9 36.1,68.2 36.1,60.9 			"/>
			<polygon class="st82" points="36.6,59.2 36.6,60.6 36.1,60.9 36.1,60.3 35.8,59.6 36.6,59.2 			"/>
			<polygon class="st92" points="36,57.8 36.6,59.2 35.8,59.6 35.5,58.9 34.8,58.5 			"/>
			<path class="st90" d="M36.5,79.1l0,4.9l-0.8-0.5c0-0.1,0-0.2,0-0.3c0-1.6-0.5-2.7-1.4-3.2l0,0l-0.2-0.1l-2.7-1.6
				c-0.1-0.1-0.1-0.1-0.2-0.1l1.8-1.1L36.5,79.1z"/>
			<path class="st85" d="M36.1,72.9l0,2.2l-1,0.6L32.8,77L31,78.1c-0.1,0-0.1-0.1-0.2-0.1h0c-0.9-0.4-2-0.2-3.3,0.5
				c-0.6,0.4-1.2,0.8-1.8,1.4l0,0c1.2-1.2,2.6-2.3,4.2-3.4C31.6,75.3,33.6,74.1,36.1,72.9z"/>
			<path class="st82" d="M36.1,68.2l0,4.7c-2.5,1.2-4.4,2.4-6.2,3.5c-1.6,1.1-3,2.2-4.2,3.4c-0.9,1-1.8,2-2.6,3.4
				c-1.1,1.9-1.8,4.6-2.2,6.9v-9l-2.3,1l0,0l0-2.4l0.4-2.2l1-0.6l1.4-0.8l4.3-2.3l0.8-0.4l7.4-4L36.1,68.2z"/>
			<polygon class="st82" points="36.1,60.9 36.1,68.2 33.9,69.4 33.9,62 			"/>
			<polygon class="st82" points="36.1,60.3 36.1,60.9 33.9,62 26.5,65.8 25.7,66.2 25.7,65.8 25.3,65.1 35.8,59.6 			"/>
			<polygon class="st31" points="36,57.8 34.8,58.5 33.4,57.7 33.7,57.5 19.7,49.4 17.2,50.9 17.2,49.6 19.6,48.2 			"/>
			<polygon class="st92" points="35.5,58.9 35.8,59.6 25.3,65.1 23.5,66 24.5,65.4 24.5,64.4 34.8,58.5 			"/>
			<path class="st35" d="M35.7,83.3c0,0.1,0,0.2,0,0.3l-5.4-3.1c0.1-0.1,0.2-0.1,0.3-0.2c0.6-0.3,1.2-0.6,1.7-0.6
				c0.7-0.1,1.3,0,1.8,0.2l0.2,0.1l0,0C35.2,80.6,35.7,81.7,35.7,83.3z"/>
			<path class="st35" d="M30.3,80.5l5.4,3.1c-0.1,3.2-2.4,6.9-5.1,8.5c-1.3,0.7-2.4,0.9-3.3,0.5c-0.2-0.1-0.4-0.2-0.5-0.3
				c-0.4-0.3-0.8-0.8-1-1.4c-0.2-0.5-0.3-1.1-0.3-1.8C25.5,86,27.6,82.2,30.3,80.5z M33.9,84.3c0-1-0.3-1.7-0.9-2.1l0,0l-0.1-0.1
				c-0.3-0.2-0.7-0.2-1.2-0.1c-0.3,0.1-0.7,0.2-1.1,0.4c-1.8,1-3.3,3.6-3.3,5.7c0,0.4,0.1,0.8,0.2,1.1c0.1,0.4,0.4,0.7,0.6,0.9
				c0.1,0.1,0.2,0.1,0.3,0.2c0.6,0.2,1.3,0.1,2.1-0.3C32.4,88.9,33.9,86.4,33.9,84.3z"/>
			<polygon class="st85" points="35.3,75.8 33.2,77 33,77.1 32.8,77 35.1,75.7 			"/>
			<polygon class="st31" points="34.8,58.5 24.5,64.4 8.2,54.8 16.6,50 17.2,49.6 17.2,50.9 10.5,54.8 24.7,62.9 33.4,57.7 			"/>
			<path class="st21" d="M31.4,78.3l2.7,1.6c-0.5-0.3-1.1-0.3-1.8-0.2c-0.5,0.1-1.1,0.3-1.7,0.6c-0.1,0.1-0.2,0.1-0.3,0.2L29,79.7
				c0.6-0.6,1.1-0.9,1.2-1l1-0.5C31.2,78.2,31.3,78.3,31.4,78.3z"/>
			<path class="st93" d="M33.9,62v7.4l-7.4,4v-7.6L33.9,62z M33.2,69v-5.9l-6.1,3.1l0.1,5.9L33.2,69z"/>
			<polygon class="st31" points="33.7,57.5 33.4,57.7 20,49.9 17.2,51.5 17.2,50.9 19.7,49.4 			"/>
			<polygon class="st85" points="33.4,57.7 24.7,62.9 10.5,54.8 17.2,50.9 17.2,51.5 20,49.9 			"/>
			<polygon class="st94" points="33.2,63.1 33.2,69 27.2,72.2 27.2,66.2 			"/>
			<path class="st16" d="M33,82.2c0.6,0.4,0.9,1.1,0.9,2.1c0,2.1-1.5,4.6-3.3,5.7c-0.8,0.5-1.5,0.6-2.1,0.3c-0.1,0-0.2-0.1-0.3-0.2
				c-0.3-0.2-0.5-0.5-0.6-0.9c-0.1-0.3-0.2-0.7-0.2-1.1c0-2.1,1.5-4.6,3.3-5.7c0.4-0.2,0.7-0.4,1.1-0.4c0.4-0.1,0.8,0,1.2,0.1
				L33,82.2L33,82.2z M32,85.4c0-0.4-0.1-0.8-0.4-0.9l0,0l0,0c-0.1-0.1-0.3-0.1-0.5-0.1c-0.1,0-0.3,0.1-0.5,0.2
				c-0.8,0.5-1.4,1.6-1.4,2.5c0,0.2,0,0.4,0.1,0.5c0.1,0.2,0.2,0.3,0.3,0.4c0,0,0.1,0.1,0.2,0.1c0.3,0.1,0.6,0.1,0.9-0.1
				C31.4,87.4,32,86.3,32,85.4z"/>
			<path class="st85" d="M33,77.1l-1.8,1.1c-0.1,0-0.1-0.1-0.2-0.1l1.8-1.1L33,77.1z"/>
			<path class="st85" d="M31.6,84.5c0.2,0.2,0.4,0.5,0.4,0.9c0,0.9-0.6,2-1.4,2.5c-0.4,0.2-0.7,0.2-0.9,0.1c-0.1,0-0.1,0-0.2-0.1
				c-0.1-0.1-0.2-0.2-0.3-0.4c0-0.1-0.1-0.3-0.1-0.5c0-0.9,0.6-2,1.4-2.5c0.2-0.1,0.3-0.2,0.5-0.2C31.3,84.3,31.4,84.4,31.6,84.5
				L31.6,84.5L31.6,84.5z"/>
			<path class="st85" d="M31.2,78.2l-1,0.5c-0.1,0-0.5,0.4-1.2,1l-0.2-0.1c0.6-0.6,1.1-0.9,1.2-1l1-0.6C31,78.1,31.1,78.2,31.2,78.2
				z"/>
			<path class="st85" d="M31,78.1l-1,0.6c-0.1,0-0.5,0.4-1.2,1l0.2,0.1c0,0,0,0-0.1,0.1c-0.9,0.8-2.7,2.4-3.5,4.1
				c-1.7,3.9-1.8,5.8-1.9,6l-0.3,0.2c-0.6-0.6-0.9-1.6-0.9-2.8c0-2.5,1.4-5.5,3.3-7.4c0.5-0.6,1.1-1,1.8-1.4
				c1.3-0.7,2.4-0.9,3.3-0.5h0C30.8,78,30.9,78.1,31,78.1z"/>
			<path class="st21" d="M29,79.7l1.3,0.8c-2.7,1.7-4.8,5.5-4.8,8.6c0,0.7,0.1,1.3,0.3,1.8c0.2,0.6,0.5,1.1,1,1.4l-2.8-1.6l-0.1-0.1
				c-0.2-0.1-0.4-0.3-0.5-0.4l0.3-0.2c0-0.2,0.2-2.2,1.9-6C26.3,82.2,28.1,80.6,29,79.7C29,79.8,29,79.8,29,79.7z"/>
			<polygon class="st32" points="26.5,65.8 26.5,73.4 25.7,73.8 25.7,66.2 			"/>
			<path class="st85" d="M25.7,79.8L25.7,79.8c-1.9,2-3.3,5-3.3,7.5c0,1.2,0.3,2.2,0.9,2.8l-2.4,1.4v-1.3v-0.1
				c0.4-2.3,1-4.9,2.2-6.9C23.9,81.9,24.7,80.8,25.7,79.8z"/>
			<path class="st93" d="M25.7,66.2v7.6l-4.3,2.3l2.5-9L25.7,66.2z M25,73.4l0.1-6l-0.7,0.3l-1.9,6.9L25,73.4z"/>
			<polygon class="st82" points="25.7,65.8 25.7,66.2 23.9,67.1 21.4,76.1 20,76.8 23.1,66.2 23.5,66 25.3,65.1 			"/>
			<polygon class="st94" points="25.1,67.4 25,73.4 22.5,74.7 24.4,67.7 			"/>
			<polygon class="st83" points="24.5,64.4 24.5,65.4 8.2,55.9 8.2,54.8 			"/>
			<polygon class="st32" points="24.5,65.4 23.5,66 23.1,66.2 6.7,56.7 8.2,55.9 			"/>
			<path class="st93" d="M23.1,66.2L20,76.8L3.6,67.3l3.1-10.6L23.1,66.2z M19.5,75.8l2.6-9.3l-7.6-4.5l-0.6-0.4l-6.6-3.8l-2.7,9.2
				l6.5,3.8l0.6,0.4L19.5,75.8z"/>
			<polygon class="st46" points="22.1,66.6 19.5,75.8 11.7,71.3 11.7,71.3 14.4,62.1 			"/>
			<polygon class="st82" points="20.9,90.2 20.9,91.5 18.7,92.8 18.6,92.8 18.6,91.4 18.6,91.2 20.9,90.2 			"/>
			<path class="st32" d="M20.9,90.1v0.1l0,0C20.9,90.2,20.9,90.1,20.9,90.1z"/>
			<path class="st41" d="M20.9,81.1v9c0,0.1,0,0.1,0,0.2l-2.3,1l0-3.6l0.1,0l1.3-0.7l0-1L19,86.4l-0.3,0.2l-0.1-0.1l0-4.4h0
				L20.9,81.1z"/>
			<polygon class="st91" points="20,76.8 19,77.4 2.6,67.9 3.6,67.3 			"/>
			<polygon class="st95" points="19.9,85.9 19.9,86.9 19,86.4 			"/>
			<polygon class="st96" points="19.9,86.9 18.6,87.6 18.6,87.6 18.6,86.4 18.7,86.5 19,86.4 			"/>
			<polygon class="st32" points="19,77.4 18.6,79.6 18.4,80.6 2,71.1 2.6,67.9 			"/>
			<polygon class="st32" points="18.6,91.4 18.6,92.8 2.3,83.3 2.3,82 18.4,91.3 			"/>
			<polygon class="st32" points="18.6,91.2 18.6,91.4 18.4,91.3 			"/>
			<path class="st43" d="M18.6,87.6l0,3.6l-0.2,0.1L2.3,82l0-3.9L18.6,87.6z M17.7,88.5c0-0.4-0.3-0.9-0.7-1.1l-1.3-0.8
				c-0.4-0.2-0.7-0.1-0.7,0.2l-0.1,1c0,0.4,0.3,0.9,0.7,1.1l1.3,0.8c0.4,0.2,0.7,0.1,0.7-0.2L17.7,88.5z M13.7,86.3
				c0.1,0.1,0.3,0,0.3-0.1c0-0.2-0.1-0.4-0.3-0.4l-7.6-4.4c0,0-0.1,0-0.1,0c-0.1,0-0.1,0.1-0.1,0.2c0,0.2,0.1,0.4,0.3,0.4L13.7,86.3
				z M13.5,87.4c0.1,0.1,0.3,0,0.3-0.1c0-0.2-0.1-0.4-0.3-0.4l-7.6-4.4c0,0-0.1,0-0.1,0c-0.1,0-0.1,0.1-0.1,0.2
				c0,0.2,0.1,0.4,0.3,0.4L13.5,87.4z M5.3,81.3c0-0.4-0.3-0.9-0.7-1.1l-1.3-0.8c-0.4-0.2-0.7-0.1-0.7,0.2l-0.1,1
				c0,0.4,0.3,0.9,0.7,1.1l1.3,0.8c0.4,0.2,0.7,0.1,0.7-0.2L5.3,81.3z"/>
			<polygon class="st96" points="18.6,86.4 18.6,87.6 2.3,78.1 3.2,77.5 			"/>
			<path class="st43" d="M18.6,82.1l0,4.4L3.2,77.5L2.4,77l-0.3-4.4L18.6,82.1L18.6,82.1z M17.7,82.7c0-0.2-0.2-0.5-0.4-0.7
				l-0.8-0.5c-0.3-0.1-0.5-0.1-0.5,0.2l0,0.7c0,0.2,0.2,0.5,0.4,0.7l0.8,0.5c0.3,0.1,0.5,0.1,0.5-0.2L17.7,82.7z M17.7,84.5
				c0-0.2-0.2-0.5-0.4-0.7l-0.8-0.5c-0.2-0.2-0.5-0.1-0.5,0.2l0,0.7c0,0.2,0.2,0.5,0.4,0.7l0.8,0.5c0.3,0.2,0.5,0.1,0.5-0.1
				L17.7,84.5z M14.3,81.6c0.1,0.1,0.3,0,0.3-0.1c0-0.2-0.1-0.4-0.3-0.4l-7.6-4.4c-0.1-0.1-0.3,0-0.3,0.1c0,0,0,0,0,0
				c0,0.2,0.1,0.4,0.3,0.4L14.3,81.6z M14.1,82.6c0.1,0.1,0.3,0,0.3-0.1c0-0.2-0.1-0.4-0.3-0.4l-7.6-4.4c-0.1-0.1-0.3,0-0.3,0.1
				c0,0,0,0,0,0c0,0.2,0.1,0.4,0.3,0.4L14.1,82.6z M4.5,74.9c0-0.2-0.2-0.5-0.4-0.7l-0.9-0.5c-0.3-0.1-0.5-0.1-0.5,0.2l0,0.7
				c0,0.2,0.2,0.5,0.4,0.7L4,75.7c0.3,0.1,0.5,0.1,0.5-0.2L4.5,74.9z M4.5,76.7c0-0.2-0.2-0.5-0.4-0.7l-0.9-0.5
				c-0.3-0.1-0.5-0.1-0.5,0.2l0,0.7c0,0.2,0.2,0.5,0.4,0.7L4,77.6c0.3,0.1,0.5,0.1,0.5-0.2L4.5,76.7z"/>
			<polygon class="st32" points="18.6,82.1 18.6,82.1 18.6,82.1 			"/>
			<polygon class="st91" points="18.6,79.6 18.6,82.1 2.1,72.6 2,71.1 18.4,80.6 			"/>
			<path class="st93" d="M17.3,82c0.3,0.1,0.4,0.5,0.4,0.7l0,0.7c0,0.2-0.2,0.3-0.5,0.2L16.4,83c-0.3-0.1-0.4-0.5-0.4-0.7l0-0.7
				c0-0.2,0.2-0.3,0.5-0.2L17.3,82z"/>
			<path class="st93" d="M17,87.4c0.4,0.2,0.7,0.7,0.7,1.1l-0.1,1c0,0.4-0.4,0.5-0.7,0.2L15.5,89c-0.4-0.2-0.7-0.7-0.7-1.1l0.1-1
				c0-0.4,0.4-0.5,0.7-0.2L17,87.4z"/>
			<path class="st93" d="M17.2,83.8c0.3,0.2,0.4,0.5,0.4,0.7l0,0.7c0,0.2-0.2,0.3-0.5,0.1l-0.8-0.5c-0.2-0.2-0.4-0.5-0.4-0.7l0-0.7
				c0-0.2,0.2-0.3,0.5-0.2L17.2,83.8z"/>
			<path class="st95" d="M14.6,81.5c0,0.2-0.1,0.2-0.3,0.1l-7.6-4.4c-0.1-0.1-0.3-0.3-0.3-0.4c0,0,0,0,0,0c0-0.2,0.1-0.2,0.3-0.1
				l7.6,4.4C14.4,81.1,14.6,81.3,14.6,81.5z"/>
			<polygon class="st93" points="14.4,62.1 11.7,71.3 11.7,71.3 11,70.9 11.1,70.8 13.8,61.7 			"/>
			<path class="st95" d="M14.4,82.5c0,0.2-0.1,0.2-0.3,0.1l-7.6-4.4c-0.1-0.1-0.3-0.3-0.3-0.4c0,0,0,0,0,0c0-0.2,0.1-0.2,0.3-0.1
				l7.6,4.4C14.3,82.1,14.4,82.3,14.4,82.5z"/>
			<path class="st95" d="M13.9,86.2c0,0.2-0.1,0.2-0.3,0.1l-7.6-4.4c-0.1-0.1-0.3-0.3-0.3-0.4c0-0.1,0.1-0.2,0.1-0.2
				c0,0,0.1,0,0.1,0l7.6,4.4C13.8,85.8,13.9,86,13.9,86.2z"/>
			<polygon class="st46" points="13.8,61.7 11.1,70.8 11,70.9 4.5,67.1 7.2,57.9 			"/>
			<path class="st95" d="M13.7,87.2c0,0.2-0.1,0.2-0.3,0.1L5.9,83c-0.1-0.1-0.3-0.3-0.3-0.4c0-0.1,0.1-0.2,0.1-0.2c0,0,0.1,0,0.1,0
				l7.6,4.4C13.6,86.9,13.7,87.1,13.7,87.2z"/>
			<path class="st93" d="M4.7,80.2c0.4,0.2,0.7,0.7,0.7,1.1l-0.1,1c0,0.4-0.4,0.5-0.7,0.2l-1.3-0.8c-0.4-0.2-0.7-0.7-0.7-1.1l0.1-1
				c0-0.4,0.4-0.5,0.7-0.2L4.7,80.2z"/>
			<path class="st93" d="M4.1,74.2c0.3,0.1,0.5,0.5,0.4,0.7l0,0.7c0,0.2-0.2,0.3-0.5,0.2l-0.9-0.5c-0.3-0.1-0.5-0.5-0.4-0.7l0-0.7
				c0-0.2,0.2-0.3,0.5-0.2L4.1,74.2z"/>
			<path class="st93" d="M4,76.1c0.3,0.1,0.5,0.5,0.4,0.7l0,0.7c0,0.2-0.2,0.3-0.5,0.2l-0.9-0.5c-0.3-0.1-0.4-0.5-0.4-0.7l0-0.7
				c0-0.2,0.2-0.3,0.5-0.2L4,76.1z"/>
		</g>
	</g>
</g>
<g id="Layer_8_copy">
</g>
<g id="Layer_27">
</g>
<g id="Layer_8_copy_4">
</g>
<g id="Layer_8_copy_9">
</g>
<g id="Layer_8_copy_8">
</g>
<g id="Layer_41">
</g>
<g id="Layer_41_copy">
</g>
<g id="Layer_42">
</g>
<g id="Layer_43">
</g>
<g id="Layer_8_copy_10">
</g>
<g id="Layer_8_copy_2">
</g>
<g id="Layer_8_copy_5">
</g>
<g id="Layer_8">
</g>
<g id="Layer_25">
</g>
<g id="Layer_25_copy">
</g>
<g id="Layer_27_copy">
</g>
<g id="Layer_28">
</g>
<g id="Layer_28_copy">
</g>
<g id="Layer_29">
</g>
<g id="Layer_29_copy">
</g>
<g id="Layer_8_copy_6">
</g>
<g id="Layer_37">
</g>
<g id="Layer_39">
</g>
<g id="Layer_39_copy">
	<g id="XMLID_46_">
		<g>
			<polygon class="st110" points="76.9,80.8 76.8,80.7 76.8,80.7 76.9,80.5 77,80.6 			"/>
			<polygon class="st60" points="83.7,76.8 85.7,79.5 83.6,80.8 79.1,83.4 77,80.6 76.9,80.5 77.6,80.1 80,78.7 83.5,76.6 			"/>
			<polygon class="st111" points="77,80.6 79.1,83.4 78.9,83.4 76.9,80.8 76.9,80.8 			"/>
			<polygon class="st110" points="76.9,80.8 76.9,80.8 76.9,80.8 76,83.9 75.9,83.9 76.8,80.7 			"/>
			<polygon class="st110" points="83.7,76.8 83.5,76.6 86.1,77.1 86.1,77.2 			"/>
			<polygon class="st112" points="79.9,78.5 80,78.6 77.4,80 76.9,79.7 76.9,73.1 			"/>
			<polygon class="st110" points="80,78.6 80,78.7 77.6,80.1 77.6,80.1 77.4,80 			"/>
			<polygon class="st113" points="77.4,80 76.9,80.3 76.4,80 76.9,79.7 			"/>
			<polygon class="st114" points="76.9,72.8 79.5,73.2 86.1,77.1 83.5,76.6 83.6,76.6 77,72.9 			"/>
			<polygon class="st110" points="77,72.9 83.6,76.6 83.5,76.6 80,78.7 80,78.6 83.3,76.6 77,73 			"/>
			<polygon class="st112" points="77,73 83.3,76.6 80,78.6 79.9,78.5 76.9,73.1 76.9,73 			"/>
			<polygon class="st115" points="76.9,73 76.9,73.1 76.9,79.7 76.4,80 70.5,76.6 76.9,72.9 77,73 			"/>
			<polygon class="st116" points="76.9,80.8 78.9,83.4 79.1,83.4 83.6,80.8 83.6,83.7 76.9,87.5 76.9,80.8 76.9,80.8 76.9,80.8 			
				"/>
			<polygon class="st62" points="76.9,80.8 76.9,87.5 70.2,83.6 70.2,80.7 70.2,80.7 75.9,83.9 76,83.9 76.9,80.8 			"/>
			<polygon class="st110" points="76.9,80.5 76.2,80.1 76.4,80 76.9,80.3 77.4,80 77.6,80.1 77.6,80.1 			"/>
			<polygon class="st31" points="76.8,80.7 75.9,83.9 70.2,80.7 69.2,80 70,77.7 70.3,76.7 76.2,80.1 76.9,80.5 76.8,80.7 			"/>
			<polygon class="st110" points="70.2,76.6 76.9,72.8 77,72.9 77,73 76.9,72.9 70.5,76.6 76.4,80 76.2,80.1 70.3,76.7 70.3,76.7 
				70.3,76.7 			"/>
			<polygon class="st111" points="70.3,76.7 70.3,76.7 70,77.7 68.7,78.4 			"/>
			<polygon class="st31" points="76.9,72.8 70.2,76.6 70.3,76.7 68.7,78.4 68.6,78.3 70.2,76.5 76.8,72.7 			"/>
		</g>
	</g>
</g>
<g id="Layer_38">
</g>
<g id="Layer_38_copy">
	<g id="XMLID_39_">
		<g>
			<polygon class="st60" points="101,66.5 102.3,70.5 100.8,71.3 95.2,74.5 94,70.6 94.1,70.5 101,66.5 			"/>
			<polygon class="st31" points="101,66.5 101,66.5 101,66.5 94.1,70.5 94,70.5 94,70.3 96.7,68.8 100.7,66.5 91.2,61 91.2,60.8 
				91.3,60.8 			"/>
			<polygon class="st116" points="100.8,71.3 100.8,72.8 94,76.8 94,76.8 94,70.9 95.1,74.5 95.2,74.5 			"/>
			<polygon class="st112" points="100.7,66.5 96.7,68.8 91.2,65.6 91.2,61 			"/>
			<polygon class="st113" points="91.2,65.6 96.7,68.8 94,70.3 88.5,67.2 			"/>
			<polygon class="st126" points="94,70.6 95.2,74.5 95.1,74.5 94,70.9 94,70.7 			"/>
			<polygon class="st60" points="94.1,70.5 94,70.6 94,70.5 			"/>
			<polygon class="st110" points="94,70.5 94,70.6 94,70.7 			"/>
			<polygon class="st62" points="94,70.9 94,76.8 84.4,71.2 84.3,69.6 92.6,74.5 92.8,74.6 94,70.8 			"/>
			<polygon class="st126" points="94,70.7 94,70.9 94,70.8 			"/>
			<polygon class="st110" points="94,70.5 94,70.7 94,70.8 93.9,70.6 93.9,70.5 93.9,70.5 93.8,70.4 			"/>
			<polygon class="st127" points="93.8,70.4 88.4,67.3 84.4,65 84.3,64.9 84.2,64.9 91.2,60.8 91.2,61 84.5,64.9 88.5,67.2 94,70.3 
				94,70.5 			"/>
			<polygon class="st110" points="93.9,70.6 94,70.8 92.8,74.6 92.6,74.5 			"/>
			<polygon class="st31" points="93.9,70.5 93.9,70.6 93.9,70.5 			"/>
			<polygon class="st31" points="84.1,65.2 84.2,64.9 84.3,64.9 84.4,65 93.9,70.5 93.9,70.6 92.6,74.5 84.3,69.6 83,68.8 83.5,67 
							"/>
			<polygon class="st127" points="93.8,70.4 93.9,70.5 84.4,65 88.4,67.3 			"/>
			<polygon class="st115" points="91.2,61 91.2,65.6 88.5,67.2 84.5,64.9 			"/>
			<polygon class="st31" points="84.2,64.9 84.1,65.2 81.7,68.1 81.6,68 			"/>
			<polygon class="st62" points="84.1,65.2 83.5,67 81.7,68.1 			"/>
		</g>
	</g>
</g>
</svg>
