<?xml version="1.0" encoding="utf-8"?>
<!-- Generator: Adobe Illustrator 21.0.2, SVG Export Plug-In . SVG Version: 6.00 Build 0)  -->
<svg version="1.1" id="Layer_1" xmlns="http://www.w3.org/2000/svg" xmlns:xlink="http://www.w3.org/1999/xlink" x="0px" y="0px"
	 viewBox="0 0 198 169.3" style="enable-background:new 0 0 198 169.3;" xml:space="preserve">
<style type="text/css">
	.st0{fill:url(#SVGID_1_);stroke:url(#SVGID_2_);stroke-miterlimit:10;}
	.st1{fill:url(#SVGID_3_);stroke:url(#SVGID_4_);stroke-miterlimit:10;}
	.st2{fill:url(#SVGID_5_);stroke:url(#SVGID_6_);stroke-miterlimit:10;}
	.st3{fill:#FFFFFF;stroke:url(#SVGID_7_);stroke-miterlimit:10;}
	.st4{fill:#FFFFFF;stroke:url(#SVGID_8_);stroke-miterlimit:10;}
	.st5{fill:#FFFFFF;stroke:url(#SVGID_9_);stroke-miterlimit:10;}
	.st6{fill:#FFD297;stroke:url(#SVGID_10_);stroke-width:0.75;stroke-miterlimit:10;}
	.st7{fill:#F89D89;stroke:url(#SVGID_11_);stroke-width:0.75;stroke-miterlimit:10;}
	.st8{fill:#FFD297;stroke:url(#SVGID_12_);stroke-width:0.75;stroke-miterlimit:10;}
	.st9{fill:#F89D89;stroke:url(#SVGID_13_);stroke-width:0.75;stroke-miterlimit:10;}
	.st10{fill:#FFD297;stroke:url(#SVGID_14_);stroke-width:0.75;stroke-miterlimit:10;}
	.st11{fill:#F89D89;stroke:url(#SVGID_15_);stroke-width:0.75;stroke-miterlimit:10;}
	.st12{fill:#FFD297;stroke:url(#SVGID_16_);stroke-width:0.75;stroke-miterlimit:10;}
	.st13{fill:#F89D89;stroke:url(#SVGID_17_);stroke-width:0.75;stroke-miterlimit:10;}
	.st14{fill:#FFD297;stroke:url(#SVGID_18_);stroke-width:0.75;stroke-miterlimit:10;}
	.st15{fill:url(#SVGID_19_);stroke:url(#SVGID_20_);stroke-miterlimit:10;}
	.st16{fill:none;stroke:url(#SVGID_21_);stroke-width:2;stroke-linecap:round;stroke-miterlimit:10;}
	.st17{fill:none;stroke:url(#SVGID_22_);stroke-width:2;stroke-linecap:round;stroke-miterlimit:10;}
	.st18{fill:none;stroke:url(#SVGID_23_);stroke-width:2;stroke-linecap:round;stroke-miterlimit:10;}
	.st19{fill:none;stroke:url(#SVGID_24_);stroke-width:2;stroke-linecap:round;stroke-miterlimit:10;}
	.st20{fill:url(#SVGID_25_);}
	.st21{fill:url(#SVGID_26_);}
	.st22{fill:none;stroke:url(#SVGID_27_);stroke-width:2;stroke-linecap:round;stroke-miterlimit:10;}
	.st23{fill:#76D39C;stroke:url(#SVGID_28_);stroke-miterlimit:10;}
	.st24{fill:#76D39C;stroke:url(#SVGID_29_);stroke-miterlimit:10;}
	.st25{fill:none;stroke:url(#SVGID_30_);stroke-width:2;stroke-linecap:round;stroke-miterlimit:10;}
	.st26{fill:#76D39C;stroke:url(#SVGID_31_);stroke-miterlimit:10;}
	.st27{fill:#76D39C;stroke:url(#SVGID_32_);stroke-miterlimit:10;}
	.st28{fill:url(#SVGID_33_);stroke:url(#SVGID_34_);stroke-miterlimit:10;}
	.st29{fill:none;stroke:url(#SVGID_35_);stroke-width:2;stroke-miterlimit:10;}
	.st30{fill:none;stroke:url(#SVGID_36_);stroke-width:2;stroke-miterlimit:10;}
	.st31{fill:url(#SVGID_37_);}
	.st32{fill:url(#SVGID_38_);}
	.st33{fill:url(#SVGID_39_);}
	.st34{fill:url(#SVGID_40_);}
	.st35{fill:url(#SVGID_41_);}
	.st36{fill:url(#SVGID_42_);stroke:url(#SVGID_43_);stroke-miterlimit:10;}
	.st37{fill:url(#SVGID_44_);stroke:url(#SVGID_45_);stroke-miterlimit:10;}
	.st38{fill:url(#SVGID_46_);stroke:url(#SVGID_47_);stroke-miterlimit:10;}
	.st39{fill:#FFFFFF;stroke:url(#SVGID_48_);stroke-miterlimit:10;}
	.st40{fill:#FFFFFF;stroke:url(#SVGID_49_);stroke-miterlimit:10;}
	.st41{fill:#FFFFFF;stroke:url(#SVGID_50_);stroke-miterlimit:10;}
	.st42{fill:#FFD297;stroke:url(#SVGID_51_);stroke-width:0.75;stroke-miterlimit:10;}
	.st43{fill:#F89D89;stroke:url(#SVGID_52_);stroke-width:0.75;stroke-miterlimit:10;}
	.st44{fill:#FFD297;stroke:url(#SVGID_53_);stroke-width:0.75;stroke-miterlimit:10;}
	.st45{fill:#F89D89;stroke:url(#SVGID_54_);stroke-width:0.75;stroke-miterlimit:10;}
	.st46{fill:#FFD297;stroke:url(#SVGID_55_);stroke-width:0.75;stroke-miterlimit:10;}
	.st47{fill:#F89D89;stroke:url(#SVGID_56_);stroke-width:0.75;stroke-miterlimit:10;}
	.st48{fill:#FFD297;stroke:url(#SVGID_57_);stroke-width:0.75;stroke-miterlimit:10;}
	.st49{fill:#F89D89;stroke:url(#SVGID_58_);stroke-width:0.75;stroke-miterlimit:10;}
	.st50{fill:#FFD297;stroke:url(#SVGID_59_);stroke-width:0.75;stroke-miterlimit:10;}
	.st51{fill:url(#SVGID_60_);stroke:url(#SVGID_61_);stroke-miterlimit:10;}
	.st52{fill:url(#SVGID_62_);stroke:url(#SVGID_63_);stroke-miterlimit:10;}
	.st53{fill:none;stroke:url(#SVGID_64_);stroke-width:2;stroke-linecap:round;stroke-miterlimit:10;}
	.st54{fill:none;stroke:url(#SVGID_65_);stroke-width:2;stroke-linecap:round;stroke-miterlimit:10;}
	.st55{fill:none;stroke:url(#SVGID_66_);stroke-width:2;stroke-linecap:round;stroke-miterlimit:10;}
	.st56{fill:none;stroke:url(#SVGID_67_);stroke-width:2;stroke-linecap:round;stroke-miterlimit:10;}
	.st57{fill:url(#SVGID_68_);}
	.st58{fill:url(#SVGID_69_);}
	.st59{fill:none;stroke:url(#SVGID_70_);stroke-width:2;stroke-linecap:round;stroke-miterlimit:10;}
	.st60{fill:#76D39C;stroke:url(#SVGID_71_);stroke-miterlimit:10;}
	.st61{fill:#76D39C;stroke:url(#SVGID_72_);stroke-miterlimit:10;}
	.st62{fill:url(#SVGID_73_);stroke:url(#SVGID_74_);stroke-miterlimit:10;}
	.st63{fill:none;stroke:url(#SVGID_75_);stroke-width:2;stroke-miterlimit:10;}
	.st64{fill:none;stroke:url(#SVGID_76_);stroke-width:2;stroke-miterlimit:10;}
	.st65{fill:url(#SVGID_77_);}
	.st66{fill:url(#SVGID_78_);}
	.st67{fill:url(#SVGID_79_);}
	.st68{fill:url(#SVGID_80_);}
	.st69{fill:url(#SVGID_81_);}
</style>
<g>
	<g>
		<linearGradient id="SVGID_1_" gradientUnits="userSpaceOnUse" x1="108.8281" y1="80.7742" x2="175.3462" y2="80.7742">
			<stop  offset="0" style="stop-color:#FFD297"/>
			<stop  offset="1" style="stop-color:#F89D89"/>
		</linearGradient>
		<linearGradient id="SVGID_2_" gradientUnits="userSpaceOnUse" x1="108.3281" y1="80.7742" x2="175.8462" y2="80.7742">
			<stop  offset="0" style="stop-color:#004794"/>
			<stop  offset="1" style="stop-color:#001355"/>
		</linearGradient>
		<rect x="108.8" y="77.6" class="st0" width="66.5" height="6.4"/>
		<linearGradient id="SVGID_3_" gradientUnits="userSpaceOnUse" x1="110.6501" y1="75.1819" x2="173.6848" y2="75.1819">
			<stop  offset="0" style="stop-color:#FFD297"/>
			<stop  offset="1" style="stop-color:#F89D89"/>
		</linearGradient>
		<linearGradient id="SVGID_4_" gradientUnits="userSpaceOnUse" x1="110.1501" y1="75.1819" x2="174.1848" y2="75.1819">
			<stop  offset="0" style="stop-color:#004794"/>
			<stop  offset="1" style="stop-color:#001355"/>
		</linearGradient>
		<rect x="110.7" y="72.8" class="st1" width="63" height="4.7"/>
		<linearGradient id="SVGID_5_" gradientUnits="userSpaceOnUse" x1="112.4944" y1="111.732" x2="171.418" y2="111.732">
			<stop  offset="0" style="stop-color:#FFD297"/>
			<stop  offset="1" style="stop-color:#F89D89"/>
		</linearGradient>
		<linearGradient id="SVGID_6_" gradientUnits="userSpaceOnUse" x1="111.9944" y1="111.732" x2="171.918" y2="111.732">
			<stop  offset="0" style="stop-color:#004794"/>
			<stop  offset="1" style="stop-color:#001355"/>
		</linearGradient>
		<rect x="112.5" y="84" class="st2" width="58.9" height="55.5"/>
		<linearGradient id="SVGID_7_" gradientUnits="userSpaceOnUse" x1="134.0441" y1="124.4333" x2="151.2808" y2="124.4333">
			<stop  offset="0" style="stop-color:#004794"/>
			<stop  offset="1" style="stop-color:#001355"/>
		</linearGradient>
		<rect x="134.5" y="109.4" class="st3" width="16.2" height="30.1"/>
		<linearGradient id="SVGID_8_" gradientUnits="userSpaceOnUse" x1="117.7558" y1="119.1957" x2="128.4455" y2="119.1957">
			<stop  offset="0" style="stop-color:#004794"/>
			<stop  offset="1" style="stop-color:#001355"/>
		</linearGradient>
		<rect x="118.3" y="111.7" class="st4" width="9.7" height="14.9"/>
		<linearGradient id="SVGID_9_" gradientUnits="userSpaceOnUse" x1="155.7288" y1="119.1957" x2="166.4184" y2="119.1957">
			<stop  offset="0" style="stop-color:#004794"/>
			<stop  offset="1" style="stop-color:#001355"/>
		</linearGradient>
		<rect x="156.2" y="111.7" class="st5" width="9.7" height="14.9"/>
		<g>
			<linearGradient id="SVGID_10_" gradientUnits="userSpaceOnUse" x1="113.0427" y1="89.4129" x2="119.7531" y2="89.4129">
				<stop  offset="0" style="stop-color:#004794"/>
				<stop  offset="1" style="stop-color:#001355"/>
			</linearGradient>
			<path class="st6" d="M119.4,84.1v7.2c0,1.6-1.3,3-3,3h0c-1.6,0-3-1.3-3-3v-7.2"/>
			<linearGradient id="SVGID_11_" gradientUnits="userSpaceOnUse" x1="119.4064" y1="89.4355" x2="126.1168" y2="89.4355">
				<stop  offset="0" style="stop-color:#004794"/>
				<stop  offset="1" style="stop-color:#001355"/>
			</linearGradient>
			<path class="st7" d="M125.7,84.1v7.2c0,1.6-1.3,3-3,3l0,0c-1.6,0-3-1.3-3-3v-7.2"/>
			<linearGradient id="SVGID_12_" gradientUnits="userSpaceOnUse" x1="125.7926" y1="89.4355" x2="132.503" y2="89.4355">
				<stop  offset="0" style="stop-color:#004794"/>
				<stop  offset="1" style="stop-color:#001355"/>
			</linearGradient>
			<path class="st8" d="M132.1,84.1v7.2c0,1.6-1.3,3-3,3l0,0c-1.6,0-3-1.3-3-3v-7.2"/>
			<g>
				<linearGradient id="SVGID_13_" gradientUnits="userSpaceOnUse" x1="132.1519" y1="89.4514" x2="138.8624" y2="89.4514">
					<stop  offset="0" style="stop-color:#004794"/>
					<stop  offset="1" style="stop-color:#001355"/>
				</linearGradient>
				<path class="st9" d="M138.5,84.2v7.2c0,1.6-1.3,3-3,3h0c-1.6,0-3-1.3-3-3v-7.2"/>
				<linearGradient id="SVGID_14_" gradientUnits="userSpaceOnUse" x1="138.5156" y1="89.474" x2="145.226" y2="89.474">
					<stop  offset="0" style="stop-color:#004794"/>
					<stop  offset="1" style="stop-color:#001355"/>
				</linearGradient>
				<path class="st10" d="M144.9,84.2v7.2c0,1.6-1.3,3-3,3l0,0c-1.6,0-3-1.3-3-3v-7.2"/>
				<linearGradient id="SVGID_15_" gradientUnits="userSpaceOnUse" x1="144.9018" y1="89.474" x2="151.6122" y2="89.474">
					<stop  offset="0" style="stop-color:#004794"/>
					<stop  offset="1" style="stop-color:#001355"/>
				</linearGradient>
				<path class="st11" d="M151.2,84.2v7.2c0,1.6-1.3,3-3,3l0,0c-1.6,0-3-1.3-3-3v-7.2"/>
			</g>
			<g>
				<linearGradient id="SVGID_16_" gradientUnits="userSpaceOnUse" x1="151.2197" y1="89.4514" x2="157.9301" y2="89.4514">
					<stop  offset="0" style="stop-color:#004794"/>
					<stop  offset="1" style="stop-color:#001355"/>
				</linearGradient>
				<path class="st12" d="M157.6,84.2v7.2c0,1.6-1.3,3-3,3h0c-1.6,0-3-1.3-3-3v-7.2"/>
				<linearGradient id="SVGID_17_" gradientUnits="userSpaceOnUse" x1="157.5833" y1="89.474" x2="164.2938" y2="89.474">
					<stop  offset="0" style="stop-color:#004794"/>
					<stop  offset="1" style="stop-color:#001355"/>
				</linearGradient>
				<path class="st13" d="M163.9,84.2v7.2c0,1.6-1.3,3-3,3l0,0c-1.6,0-3-1.3-3-3v-7.2"/>
				<linearGradient id="SVGID_18_" gradientUnits="userSpaceOnUse" x1="163.9695" y1="89.474" x2="170.68" y2="89.474">
					<stop  offset="0" style="stop-color:#004794"/>
					<stop  offset="1" style="stop-color:#001355"/>
				</linearGradient>
				<path class="st14" d="M170.3,84.2v7.2c0,1.6-1.3,3-3,3l0,0c-1.6,0-3-1.3-3-3v-7.2"/>
			</g>
		</g>
		<linearGradient id="SVGID_19_" gradientUnits="userSpaceOnUse" x1="161.4449" y1="46.412" x2="197.4537" y2="46.412">
			<stop  offset="0" style="stop-color:#FFD297"/>
			<stop  offset="1" style="stop-color:#F89D89"/>
		</linearGradient>
		<linearGradient id="SVGID_20_" gradientUnits="userSpaceOnUse" x1="160.9449" y1="46.412" x2="197.9537" y2="46.412">
			<stop  offset="0" style="stop-color:#004794"/>
			<stop  offset="1" style="stop-color:#001355"/>
		</linearGradient>
		<path class="st15" d="M195.6,46.2h-9.9c0.3-0.3,0.6-0.8,0.6-1.3c0-1-0.8-1.8-1.8-1.8h-21.2c-1,0-1.8,0.8-1.8,1.8
			c0,1,0.8,1.8,1.8,1.8h9.9c-0.3,0.3-0.6,0.8-0.6,1.3c0,1,0.8,1.8,1.8,1.8h21.2c1,0,1.8-0.8,1.8-1.8C197.5,47,196.6,46.2,195.6,46.2
			z"/>
		<g>
			<linearGradient id="SVGID_21_" gradientUnits="userSpaceOnUse" x1="102.9066" y1="144.7292" x2="108.4857" y2="144.7292">
				<stop  offset="0" style="stop-color:#004794"/>
				<stop  offset="1" style="stop-color:#001355"/>
			</linearGradient>
			<line class="st16" x1="103.9" y1="144.7" x2="107.5" y2="144.7"/>
			<linearGradient id="SVGID_22_" gradientUnits="userSpaceOnUse" x1="109.6501" y1="144.7292" x2="137.9038" y2="144.7292">
				<stop  offset="0" style="stop-color:#004794"/>
				<stop  offset="1" style="stop-color:#001355"/>
			</linearGradient>
			<line class="st17" x1="110.7" y1="144.7" x2="136.9" y2="144.7"/>
		</g>
		<g>
			<linearGradient id="SVGID_23_" gradientUnits="userSpaceOnUse" x1="149.0495" y1="149.9669" x2="154.6285" y2="149.9669">
				<stop  offset="0" style="stop-color:#004794"/>
				<stop  offset="1" style="stop-color:#001355"/>
			</linearGradient>
			<line class="st18" x1="150" y1="150" x2="153.6" y2="150"/>
			<linearGradient id="SVGID_24_" gradientUnits="userSpaceOnUse" x1="155.7929" y1="149.9669" x2="184.0466" y2="149.9669">
				<stop  offset="0" style="stop-color:#004794"/>
				<stop  offset="1" style="stop-color:#001355"/>
			</linearGradient>
			<line class="st19" x1="156.8" y1="150" x2="183" y2="150"/>
		</g>
		<linearGradient id="SVGID_25_" gradientUnits="userSpaceOnUse" x1="139.2064" y1="147.5444" x2="140.6468" y2="147.5444">
			<stop  offset="0" style="stop-color:#004794"/>
			<stop  offset="1" style="stop-color:#001355"/>
		</linearGradient>
		<circle class="st20" cx="139.9" cy="147.5" r="0.7"/>
		<linearGradient id="SVGID_26_" gradientUnits="userSpaceOnUse" x1="166.952" y1="143.2889" x2="168.3924" y2="143.2889">
			<stop  offset="0" style="stop-color:#004794"/>
			<stop  offset="1" style="stop-color:#001355"/>
		</linearGradient>
		<circle class="st21" cx="167.7" cy="143.3" r="0.7"/>
		<g>
			<linearGradient id="SVGID_27_" gradientUnits="userSpaceOnUse" x1="101.4723" y1="131.6997" x2="103.4723" y2="131.6997">
				<stop  offset="0" style="stop-color:#004794"/>
				<stop  offset="1" style="stop-color:#001355"/>
			</linearGradient>
			<line class="st22" x1="102.5" y1="124.4" x2="102.5" y2="139"/>
			<linearGradient id="SVGID_28_" gradientUnits="userSpaceOnUse" x1="97.7727" y1="108.667" x2="107.172" y2="108.667">
				<stop  offset="0" style="stop-color:#004794"/>
				<stop  offset="1" style="stop-color:#001355"/>
			</linearGradient>
			<circle class="st23" cx="102.5" cy="108.7" r="4.2"/>
			<linearGradient id="SVGID_29_" gradientUnits="userSpaceOnUse" x1="96.23" y1="118.6212" x2="108.7147" y2="118.6212">
				<stop  offset="0" style="stop-color:#004794"/>
				<stop  offset="1" style="stop-color:#001355"/>
			</linearGradient>
			<circle class="st24" cx="102.5" cy="118.6" r="5.7"/>
		</g>
		<g>
			<linearGradient id="SVGID_30_" gradientUnits="userSpaceOnUse" x1="180.5391" y1="131.6997" x2="182.5391" y2="131.6997">
				<stop  offset="0" style="stop-color:#004794"/>
				<stop  offset="1" style="stop-color:#001355"/>
			</linearGradient>
			<line class="st25" x1="181.5" y1="124.4" x2="181.5" y2="139"/>
			<linearGradient id="SVGID_31_" gradientUnits="userSpaceOnUse" x1="176.8395" y1="108.667" x2="186.2388" y2="108.667">
				<stop  offset="0" style="stop-color:#004794"/>
				<stop  offset="1" style="stop-color:#001355"/>
			</linearGradient>
			<circle class="st26" cx="181.5" cy="108.7" r="4.2"/>
			<linearGradient id="SVGID_32_" gradientUnits="userSpaceOnUse" x1="175.2967" y1="118.6212" x2="187.7815" y2="118.6212">
				<stop  offset="0" style="stop-color:#004794"/>
				<stop  offset="1" style="stop-color:#001355"/>
			</linearGradient>
			<circle class="st27" cx="181.5" cy="118.6" r="5.7"/>
		</g>
		<linearGradient id="SVGID_33_" gradientUnits="userSpaceOnUse" x1="123.7316" y1="62.2491" x2="160.6033" y2="62.2491">
			<stop  offset="0" style="stop-color:#FFD297"/>
			<stop  offset="1" style="stop-color:#F89D89"/>
		</linearGradient>
		<linearGradient id="SVGID_34_" gradientUnits="userSpaceOnUse" x1="123.0428" y1="62.2491" x2="161.2921" y2="62.2491">
			<stop  offset="0" style="stop-color:#004794"/>
			<stop  offset="1" style="stop-color:#001355"/>
		</linearGradient>
		<polygon class="st28" points="156.9,67.9 127.4,67.9 123.7,56.6 160.6,56.6 		"/>
		<linearGradient id="SVGID_35_" gradientUnits="userSpaceOnUse" x1="131.5269" y1="70.385" x2="133.5269" y2="70.385">
			<stop  offset="0" style="stop-color:#004794"/>
			<stop  offset="1" style="stop-color:#001355"/>
		</linearGradient>
		<line class="st29" x1="132.5" y1="67.9" x2="132.5" y2="72.8"/>
		<linearGradient id="SVGID_36_" gradientUnits="userSpaceOnUse" x1="150.5947" y1="70.385" x2="152.5947" y2="70.385">
			<stop  offset="0" style="stop-color:#004794"/>
			<stop  offset="1" style="stop-color:#001355"/>
		</linearGradient>
		<line class="st30" x1="151.6" y1="67.9" x2="151.6" y2="72.8"/>
		<g>
			<linearGradient id="SVGID_37_" gradientUnits="userSpaceOnUse" x1="131.8171" y1="62.3574" x2="135.4753" y2="62.3574">
				<stop  offset="0" style="stop-color:#004794"/>
				<stop  offset="1" style="stop-color:#001355"/>
			</linearGradient>
			<path class="st31" d="M131.8,63.1l0.9-0.1c0.1,0.3,0.2,0.5,0.3,0.7c0.2,0.1,0.4,0.2,0.7,0.2c0.3,0,0.5-0.1,0.7-0.2
				c0.1-0.1,0.2-0.3,0.2-0.4c0-0.1,0-0.2-0.1-0.3c-0.1-0.1-0.2-0.1-0.3-0.2c-0.1,0-0.3-0.1-0.7-0.2c-0.5-0.1-0.8-0.3-1-0.4
				c-0.3-0.2-0.4-0.5-0.4-0.9c0-0.2,0.1-0.4,0.2-0.6c0.1-0.2,0.3-0.4,0.6-0.5s0.5-0.2,0.9-0.2c0.6,0,1,0.1,1.3,0.4
				c0.3,0.2,0.4,0.6,0.4,1l-0.9,0c0-0.2-0.1-0.4-0.3-0.5c-0.1-0.1-0.3-0.2-0.6-0.2c-0.3,0-0.5,0.1-0.6,0.2c-0.1,0.1-0.1,0.2-0.1,0.3
				c0,0.1,0,0.2,0.1,0.3c0.1,0.1,0.4,0.2,0.8,0.3c0.4,0.1,0.8,0.2,1,0.3s0.4,0.3,0.5,0.5c0.1,0.2,0.2,0.4,0.2,0.7
				c0,0.3-0.1,0.5-0.2,0.7c-0.1,0.2-0.3,0.4-0.6,0.5c-0.3,0.1-0.6,0.2-1,0.2c-0.6,0-1-0.1-1.3-0.4C132.1,64,131.9,63.6,131.8,63.1z"
				/>
			<linearGradient id="SVGID_38_" gradientUnits="userSpaceOnUse" x1="135.9172" y1="62.3559" x2="139.4925" y2="62.3559">
				<stop  offset="0" style="stop-color:#004794"/>
				<stop  offset="1" style="stop-color:#001355"/>
			</linearGradient>
			<path class="st32" d="M137.3,64.6v-3.7h-1.3v-0.8h3.6v0.8h-1.3v3.7H137.3z"/>
			<linearGradient id="SVGID_39_" gradientUnits="userSpaceOnUse" x1="139.781" y1="62.3559" x2="144.145" y2="62.3559">
				<stop  offset="0" style="stop-color:#004794"/>
				<stop  offset="1" style="stop-color:#001355"/>
			</linearGradient>
			<path class="st33" d="M139.8,62.4c0-0.5,0.1-0.8,0.2-1.2c0.1-0.2,0.2-0.4,0.4-0.6c0.2-0.2,0.4-0.3,0.6-0.4c0.3-0.1,0.6-0.2,1-0.2
				c0.7,0,1.2,0.2,1.6,0.6c0.4,0.4,0.6,1,0.6,1.7c0,0.7-0.2,1.3-0.6,1.7c-0.4,0.4-0.9,0.6-1.6,0.6c-0.7,0-1.2-0.2-1.6-0.6
				C140,63.7,139.8,63.1,139.8,62.4z M140.7,62.4c0,0.5,0.1,0.9,0.4,1.2c0.2,0.3,0.5,0.4,0.9,0.4s0.7-0.1,0.9-0.4
				c0.2-0.3,0.3-0.7,0.3-1.2c0-0.5-0.1-0.9-0.3-1.2c-0.2-0.3-0.5-0.4-0.9-0.4s-0.7,0.1-0.9,0.4S140.7,61.8,140.7,62.4z"/>
			<linearGradient id="SVGID_40_" gradientUnits="userSpaceOnUse" x1="144.857" y1="62.3559" x2="148.9019" y2="62.3559">
				<stop  offset="0" style="stop-color:#004794"/>
				<stop  offset="1" style="stop-color:#001355"/>
			</linearGradient>
			<path class="st34" d="M144.9,64.6v-4.5h1.9c0.5,0,0.8,0,1,0.1s0.4,0.2,0.5,0.4c0.1,0.2,0.2,0.4,0.2,0.7c0,0.3-0.1,0.6-0.3,0.8
				s-0.5,0.4-0.9,0.4c0.2,0.1,0.4,0.2,0.5,0.4c0.1,0.1,0.3,0.4,0.5,0.7l0.5,0.9h-1.1l-0.7-1c-0.2-0.3-0.4-0.6-0.5-0.7
				c-0.1-0.1-0.2-0.2-0.3-0.2c-0.1,0-0.2-0.1-0.5-0.1h-0.2v1.9H144.9z M145.8,62h0.7c0.4,0,0.7,0,0.8-0.1c0.1,0,0.2-0.1,0.3-0.2
				c0.1-0.1,0.1-0.2,0.1-0.3c0-0.2,0-0.3-0.1-0.4c-0.1-0.1-0.2-0.2-0.3-0.2c-0.1,0-0.3,0-0.7,0h-0.7V62z"/>
			<linearGradient id="SVGID_41_" gradientUnits="userSpaceOnUse" x1="149.3929" y1="62.3559" x2="152.8147" y2="62.3559">
				<stop  offset="0" style="stop-color:#004794"/>
				<stop  offset="1" style="stop-color:#001355"/>
			</linearGradient>
			<path class="st35" d="M149.4,64.6v-4.5h3.3v0.8h-2.4v1h2.3v0.8h-2.3v1.2h2.5v0.8H149.4z"/>
		</g>
	</g>
	<g>
		<linearGradient id="SVGID_42_" gradientUnits="userSpaceOnUse" x1="26.9033" y1="59.761" x2="131.279" y2="59.761">
			<stop  offset="0" style="stop-color:#FFD297"/>
			<stop  offset="1" style="stop-color:#F89D89"/>
		</linearGradient>
		<linearGradient id="SVGID_43_" gradientUnits="userSpaceOnUse" x1="26.4033" y1="59.761" x2="131.779" y2="59.761">
			<stop  offset="0" style="stop-color:#004794"/>
			<stop  offset="1" style="stop-color:#001355"/>
		</linearGradient>
		<rect x="26.9" y="54.7" class="st36" width="104.4" height="10"/>
		<linearGradient id="SVGID_44_" gradientUnits="userSpaceOnUse" x1="29.7623" y1="50.9859" x2="128.6721" y2="50.9859">
			<stop  offset="0" style="stop-color:#FFD297"/>
			<stop  offset="1" style="stop-color:#F89D89"/>
		</linearGradient>
		<linearGradient id="SVGID_45_" gradientUnits="userSpaceOnUse" x1="29.2623" y1="50.9859" x2="129.1721" y2="50.9859">
			<stop  offset="0" style="stop-color:#004794"/>
			<stop  offset="1" style="stop-color:#001355"/>
		</linearGradient>
		<rect x="29.8" y="47.3" class="st37" width="98.9" height="7.4"/>
		<linearGradient id="SVGID_46_" gradientUnits="userSpaceOnUse" x1="32.6563" y1="108.3379" x2="125.1151" y2="108.3379">
			<stop  offset="0" style="stop-color:#FFD297"/>
			<stop  offset="1" style="stop-color:#F89D89"/>
		</linearGradient>
		<linearGradient id="SVGID_47_" gradientUnits="userSpaceOnUse" x1="32.1563" y1="108.3379" x2="125.6151" y2="108.3379">
			<stop  offset="0" style="stop-color:#004794"/>
			<stop  offset="1" style="stop-color:#001355"/>
		</linearGradient>
		<rect x="32.7" y="64.8" class="st38" width="92.5" height="87.1"/>
		<linearGradient id="SVGID_48_" gradientUnits="userSpaceOnUse" x1="66.7552" y1="128.2679" x2="93.2327" y2="128.2679">
			<stop  offset="0" style="stop-color:#004794"/>
			<stop  offset="1" style="stop-color:#001355"/>
		</linearGradient>
		<rect x="67.3" y="104.6" class="st39" width="25.5" height="47.3"/>
		<linearGradient id="SVGID_49_" gradientUnits="userSpaceOnUse" x1="41.1967" y1="120.0493" x2="57.4011" y2="120.0493">
			<stop  offset="0" style="stop-color:#004794"/>
			<stop  offset="1" style="stop-color:#001355"/>
		</linearGradient>
		<rect x="41.7" y="108.3" class="st40" width="15.2" height="23.4"/>
		<linearGradient id="SVGID_50_" gradientUnits="userSpaceOnUse" x1="100.7813" y1="120.0493" x2="116.9856" y2="120.0493">
			<stop  offset="0" style="stop-color:#004794"/>
			<stop  offset="1" style="stop-color:#001355"/>
		</linearGradient>
		<rect x="101.3" y="108.3" class="st41" width="15.2" height="23.4"/>
		<g>
			<linearGradient id="SVGID_51_" gradientUnits="userSpaceOnUse" x1="33.7301" y1="73.2095" x2="43.8328" y2="73.2095">
				<stop  offset="0" style="stop-color:#004794"/>
				<stop  offset="1" style="stop-color:#001355"/>
			</linearGradient>
			<path class="st42" d="M43.5,65v11.4c0,2.6-2.1,4.7-4.7,4.7h0c-2.6,0-4.7-2.1-4.7-4.7V65"/>
			<linearGradient id="SVGID_52_" gradientUnits="userSpaceOnUse" x1="43.7155" y1="73.245" x2="53.8182" y2="73.245">
				<stop  offset="0" style="stop-color:#004794"/>
				<stop  offset="1" style="stop-color:#001355"/>
			</linearGradient>
			<path class="st43" d="M53.4,65v11.4c0,2.6-2.1,4.7-4.7,4.7h0c-2.6,0-4.7-2.1-4.7-4.7V65"/>
			<linearGradient id="SVGID_53_" gradientUnits="userSpaceOnUse" x1="53.7363" y1="73.245" x2="63.839" y2="73.245">
				<stop  offset="0" style="stop-color:#004794"/>
				<stop  offset="1" style="stop-color:#001355"/>
			</linearGradient>
			<path class="st44" d="M63.5,65v11.4c0,2.6-2.1,4.7-4.7,4.7h0c-2.6,0-4.7-2.1-4.7-4.7V65"/>
			<g>
				<linearGradient id="SVGID_54_" gradientUnits="userSpaceOnUse" x1="63.715" y1="73.2699" x2="73.8177" y2="73.2699">
					<stop  offset="0" style="stop-color:#004794"/>
					<stop  offset="1" style="stop-color:#001355"/>
				</linearGradient>
				<path class="st45" d="M73.4,65.1v11.4c0,2.6-2.1,4.7-4.7,4.7h0c-2.6,0-4.7-2.1-4.7-4.7V65.1"/>
				<linearGradient id="SVGID_55_" gradientUnits="userSpaceOnUse" x1="73.7004" y1="73.3054" x2="83.8031" y2="73.3054">
					<stop  offset="0" style="stop-color:#004794"/>
					<stop  offset="1" style="stop-color:#001355"/>
				</linearGradient>
				<path class="st46" d="M83.4,65.1v11.4c0,2.6-2.1,4.7-4.7,4.7h0c-2.6,0-4.7-2.1-4.7-4.7V65.1"/>
				<linearGradient id="SVGID_56_" gradientUnits="userSpaceOnUse" x1="83.7212" y1="73.3054" x2="93.8239" y2="73.3054">
					<stop  offset="0" style="stop-color:#004794"/>
					<stop  offset="1" style="stop-color:#001355"/>
				</linearGradient>
				<path class="st47" d="M93.4,65.1v11.4c0,2.6-2.1,4.7-4.7,4.7h0c-2.6,0-4.7-2.1-4.7-4.7V65.1"/>
			</g>
			<g>
				<linearGradient id="SVGID_57_" gradientUnits="userSpaceOnUse" x1="93.6348" y1="73.2699" x2="103.7375" y2="73.2699">
					<stop  offset="0" style="stop-color:#004794"/>
					<stop  offset="1" style="stop-color:#001355"/>
				</linearGradient>
				<path class="st48" d="M103.4,65.1v11.4c0,2.6-2.1,4.7-4.7,4.7h0c-2.6,0-4.7-2.1-4.7-4.7V65.1"/>
				<linearGradient id="SVGID_58_" gradientUnits="userSpaceOnUse" x1="103.6202" y1="73.3054" x2="113.7229" y2="73.3054">
					<stop  offset="0" style="stop-color:#004794"/>
					<stop  offset="1" style="stop-color:#001355"/>
				</linearGradient>
				<path class="st49" d="M113.3,65.1v11.4c0,2.6-2.1,4.7-4.7,4.7h0c-2.6,0-4.7-2.1-4.7-4.7V65.1"/>
				<linearGradient id="SVGID_59_" gradientUnits="userSpaceOnUse" x1="113.641" y1="73.3054" x2="123.7437" y2="73.3054">
					<stop  offset="0" style="stop-color:#004794"/>
					<stop  offset="1" style="stop-color:#001355"/>
				</linearGradient>
				<path class="st50" d="M123.4,65.1v11.4c0,2.6-2.1,4.7-4.7,4.7h0c-2.6,0-4.7-2.1-4.7-4.7V65.1"/>
			</g>
		</g>
		<linearGradient id="SVGID_60_" gradientUnits="userSpaceOnUse" x1="0.5" y1="8.1491" x2="37.8618" y2="8.1491">
			<stop  offset="0" style="stop-color:#FFD297"/>
			<stop  offset="1" style="stop-color:#F89D89"/>
		</linearGradient>
		<linearGradient id="SVGID_61_" gradientUnits="userSpaceOnUse" x1="0" y1="8.1491" x2="38.3618" y2="8.1491">
			<stop  offset="0" style="stop-color:#004794"/>
			<stop  offset="1" style="stop-color:#001355"/>
		</linearGradient>
		<path class="st51" d="M36,7.9H25.7c0.4-0.3,0.6-0.8,0.6-1.4c0-1-0.9-1.9-1.9-1.9h-22c-1,0-1.9,0.9-1.9,1.9s0.9,1.9,1.9,1.9h10.2
			C12.3,8.8,12,9.2,12,9.8c0,1,0.9,1.9,1.9,1.9h22c1,0,1.9-0.9,1.9-1.9S37,7.9,36,7.9z"/>
		<linearGradient id="SVGID_62_" gradientUnits="userSpaceOnUse" x1="109.466" y1="5.8421" x2="165.9686" y2="5.8421">
			<stop  offset="0" style="stop-color:#FFD297"/>
			<stop  offset="1" style="stop-color:#F89D89"/>
		</linearGradient>
		<linearGradient id="SVGID_63_" gradientUnits="userSpaceOnUse" x1="108.966" y1="5.8421" x2="166.4686" y2="5.8421">
			<stop  offset="0" style="stop-color:#004794"/>
			<stop  offset="1" style="stop-color:#001355"/>
		</linearGradient>
		<path class="st52" d="M163.1,5.4h-15.5c0.5-0.5,0.9-1.3,0.9-2.1c0-1.6-1.3-2.9-2.9-2.9h-33.3c-1.6,0-2.9,1.3-2.9,2.9
			s1.3,2.9,2.9,2.9h15.5c-0.5,0.5-0.9,1.3-0.9,2.1c0,1.6,1.3,2.9,2.9,2.9h33.3c1.6,0,2.9-1.3,2.9-2.9S164.7,5.4,163.1,5.4z"/>
		<g>
			<linearGradient id="SVGID_64_" gradientUnits="userSpaceOnUse" x1="18.1809" y1="160.1148" x2="25.7969" y2="160.1148">
				<stop  offset="0" style="stop-color:#004794"/>
				<stop  offset="1" style="stop-color:#001355"/>
			</linearGradient>
			<line class="st53" x1="19.2" y1="160.1" x2="24.8" y2="160.1"/>
			<linearGradient id="SVGID_65_" gradientUnits="userSpaceOnUse" x1="28.7623" y1="160.1148" x2="71.9578" y2="160.1148">
				<stop  offset="0" style="stop-color:#004794"/>
				<stop  offset="1" style="stop-color:#001355"/>
			</linearGradient>
			<line class="st54" x1="29.8" y1="160.1" x2="71" y2="160.1"/>
		</g>
		<g>
			<linearGradient id="SVGID_66_" gradientUnits="userSpaceOnUse" x1="90.5851" y1="168.3333" x2="98.2011" y2="168.3333">
				<stop  offset="0" style="stop-color:#004794"/>
				<stop  offset="1" style="stop-color:#001355"/>
			</linearGradient>
			<line class="st55" x1="91.6" y1="168.3" x2="97.2" y2="168.3"/>
			<linearGradient id="SVGID_67_" gradientUnits="userSpaceOnUse" x1="101.1665" y1="168.3333" x2="148.5863" y2="168.3333">
				<stop  offset="0" style="stop-color:#004794"/>
				<stop  offset="1" style="stop-color:#001355"/>
			</linearGradient>
			<line class="st56" x1="102.2" y1="168.3" x2="147.6" y2="168.3"/>
		</g>
		<linearGradient id="SVGID_68_" gradientUnits="userSpaceOnUse" x1="74.571" y1="164.5323" x2="76.8311" y2="164.5323">
			<stop  offset="0" style="stop-color:#004794"/>
			<stop  offset="1" style="stop-color:#001355"/>
		</linearGradient>
		<circle class="st57" cx="75.7" cy="164.5" r="1.1"/>
		<linearGradient id="SVGID_69_" gradientUnits="userSpaceOnUse" x1="118.1075" y1="157.8547" x2="120.3676" y2="157.8547">
			<stop  offset="0" style="stop-color:#004794"/>
			<stop  offset="1" style="stop-color:#001355"/>
		</linearGradient>
		<circle class="st58" cx="119.2" cy="157.9" r="1.1"/>
		<g>
			<linearGradient id="SVGID_70_" gradientUnits="userSpaceOnUse" x1="15.9304" y1="139.6697" x2="17.9304" y2="139.6697">
				<stop  offset="0" style="stop-color:#004794"/>
				<stop  offset="1" style="stop-color:#001355"/>
			</linearGradient>
			<line class="st59" x1="16.9" y1="128.2" x2="16.9" y2="151.2"/>
			<linearGradient id="SVGID_71_" gradientUnits="userSpaceOnUse" x1="9.8406" y1="103.5284" x2="24.0202" y2="103.5284">
				<stop  offset="0" style="stop-color:#004794"/>
				<stop  offset="1" style="stop-color:#001355"/>
			</linearGradient>
			<circle class="st60" cx="16.9" cy="103.5" r="6.6"/>
			<linearGradient id="SVGID_72_" gradientUnits="userSpaceOnUse" x1="7.4198" y1="119.1478" x2="26.4409" y2="119.1478">
				<stop  offset="0" style="stop-color:#004794"/>
				<stop  offset="1" style="stop-color:#001355"/>
			</linearGradient>
			<circle class="st61" cx="16.9" cy="119.1" r="9"/>
		</g>
		<linearGradient id="SVGID_73_" gradientUnits="userSpaceOnUse" x1="50.289" y1="30.6927" x2="108.1455" y2="30.6927">
			<stop  offset="0" style="stop-color:#FFD297"/>
			<stop  offset="1" style="stop-color:#F89D89"/>
		</linearGradient>
		<linearGradient id="SVGID_74_" gradientUnits="userSpaceOnUse" x1="49.6002" y1="30.6927" x2="108.8343" y2="30.6927">
			<stop  offset="0" style="stop-color:#004794"/>
			<stop  offset="1" style="stop-color:#001355"/>
		</linearGradient>
		<polygon class="st62" points="102.3,39.6 56.1,39.6 50.3,21.8 108.1,21.8 		"/>
		<linearGradient id="SVGID_75_" gradientUnits="userSpaceOnUse" x1="63.09" y1="43.459" x2="65.09" y2="43.459">
			<stop  offset="0" style="stop-color:#004794"/>
			<stop  offset="1" style="stop-color:#001355"/>
		</linearGradient>
		<line class="st63" x1="64.1" y1="39.6" x2="64.1" y2="47.3"/>
		<linearGradient id="SVGID_76_" gradientUnits="userSpaceOnUse" x1="93.0098" y1="43.459" x2="95.0098" y2="43.459">
			<stop  offset="0" style="stop-color:#004794"/>
			<stop  offset="1" style="stop-color:#001355"/>
		</linearGradient>
		<line class="st64" x1="94" y1="39.6" x2="94" y2="47.3"/>
		<g>
			<linearGradient id="SVGID_77_" gradientUnits="userSpaceOnUse" x1="62.9762" y1="30.8626" x2="68.7163" y2="30.8626">
				<stop  offset="0" style="stop-color:#004794"/>
				<stop  offset="1" style="stop-color:#001355"/>
			</linearGradient>
			<path class="st65" d="M63,32.1l1.4-0.1c0.1,0.5,0.3,0.8,0.5,1c0.3,0.2,0.6,0.3,1,0.3c0.5,0,0.8-0.1,1-0.3
				c0.2-0.2,0.3-0.4,0.3-0.7c0-0.2,0-0.3-0.1-0.4c-0.1-0.1-0.3-0.2-0.5-0.3c-0.2-0.1-0.5-0.2-1.1-0.3c-0.8-0.2-1.3-0.4-1.6-0.7
				c-0.4-0.4-0.7-0.9-0.7-1.4c0-0.4,0.1-0.7,0.3-1c0.2-0.3,0.5-0.6,0.9-0.7c0.4-0.2,0.8-0.2,1.4-0.2c0.9,0,1.6,0.2,2,0.6
				c0.4,0.4,0.7,0.9,0.7,1.6l-1.4,0.1c-0.1-0.4-0.2-0.6-0.4-0.8c-0.2-0.2-0.5-0.2-0.9-0.2c-0.4,0-0.7,0.1-1,0.3
				c-0.2,0.1-0.2,0.3-0.2,0.4c0,0.2,0.1,0.3,0.2,0.4c0.2,0.2,0.6,0.3,1.3,0.5s1.2,0.3,1.5,0.5c0.3,0.2,0.6,0.4,0.8,0.7
				c0.2,0.3,0.3,0.7,0.3,1.1c0,0.4-0.1,0.8-0.3,1.1s-0.5,0.6-1,0.8c-0.4,0.2-0.9,0.3-1.5,0.3c-0.9,0-1.6-0.2-2.1-0.6
				C63.4,33.5,63.1,32.9,63,32.1z"/>
			<linearGradient id="SVGID_78_" gradientUnits="userSpaceOnUse" x1="69.4098" y1="30.8602" x2="75.0199" y2="30.8602">
				<stop  offset="0" style="stop-color:#004794"/>
				<stop  offset="1" style="stop-color:#001355"/>
			</linearGradient>
			<path class="st66" d="M71.5,34.4v-5.9h-2.1v-1.2H75v1.2h-2.1v5.9H71.5z"/>
			<linearGradient id="SVGID_79_" gradientUnits="userSpaceOnUse" x1="75.4725" y1="30.8602" x2="82.3203" y2="30.8602">
				<stop  offset="0" style="stop-color:#004794"/>
				<stop  offset="1" style="stop-color:#001355"/>
			</linearGradient>
			<path class="st67" d="M75.5,30.9c0-0.7,0.1-1.3,0.3-1.8c0.2-0.4,0.4-0.7,0.7-1c0.3-0.3,0.6-0.5,0.9-0.6c0.4-0.2,0.9-0.3,1.5-0.3
				c1,0,1.9,0.3,2.5,1s0.9,1.5,0.9,2.7c0,1.1-0.3,2-0.9,2.7c-0.6,0.6-1.4,1-2.5,1c-1,0-1.9-0.3-2.5-1C75.8,32.9,75.5,32,75.5,30.9z
				 M76.9,30.9c0,0.8,0.2,1.4,0.6,1.8c0.4,0.4,0.8,0.6,1.4,0.6s1-0.2,1.4-0.6c0.4-0.4,0.5-1,0.5-1.8c0-0.8-0.2-1.4-0.5-1.8
				s-0.8-0.6-1.4-0.6c-0.6,0-1.1,0.2-1.4,0.6C77.1,29.4,76.9,30,76.9,30.9z"/>
			<linearGradient id="SVGID_80_" gradientUnits="userSpaceOnUse" x1="83.4375" y1="30.8602" x2="89.7844" y2="30.8602">
				<stop  offset="0" style="stop-color:#004794"/>
				<stop  offset="1" style="stop-color:#001355"/>
			</linearGradient>
			<path class="st68" d="M83.4,34.4v-7.1h3c0.8,0,1.3,0.1,1.6,0.2s0.6,0.4,0.8,0.7c0.2,0.3,0.3,0.7,0.3,1.1c0,0.5-0.2,1-0.5,1.3
				c-0.3,0.3-0.8,0.6-1.4,0.7c0.3,0.2,0.6,0.4,0.8,0.6c0.2,0.2,0.5,0.6,0.8,1.1l0.9,1.4h-1.7l-1-1.5c-0.4-0.5-0.6-0.9-0.8-1
				c-0.1-0.1-0.3-0.2-0.4-0.3s-0.4-0.1-0.7-0.1h-0.3v2.9H83.4z M84.9,30.3h1.1c0.7,0,1.1,0,1.3-0.1c0.2-0.1,0.3-0.2,0.4-0.3
				s0.1-0.3,0.1-0.5c0-0.2-0.1-0.4-0.2-0.6c-0.1-0.1-0.3-0.2-0.5-0.3c-0.1,0-0.5,0-1,0h-1.1V30.3z"/>
			<linearGradient id="SVGID_81_" gradientUnits="userSpaceOnUse" x1="90.5549" y1="30.8602" x2="95.9242" y2="30.8602">
				<stop  offset="0" style="stop-color:#004794"/>
				<stop  offset="1" style="stop-color:#001355"/>
			</linearGradient>
			<path class="st69" d="M90.6,34.4v-7.1h5.2v1.2H92v1.6h3.5v1.2H92v1.9h3.9v1.2H90.6z"/>
		</g>
	</g>
</g>
</svg>
