<?xml version="1.0" encoding="utf-8"?>
<!-- Generator: Adobe Illustrator 21.0.2, SVG Export Plug-In . SVG Version: 6.00 Build 0)  -->
<svg version="1.1" id="Layer_1" xmlns="http://www.w3.org/2000/svg" xmlns:xlink="http://www.w3.org/1999/xlink" x="0px" y="0px"
	 viewBox="0 0 170.4 173.3" style="enable-background:new 0 0 170.4 173.3;" xml:space="preserve">
<style type="text/css">
	.st0{fill:url(#SVGID_1_);stroke:url(#SVGID_2_);stroke-miterlimit:10;}
	.st1{fill:url(#SVGID_3_);stroke:url(#SVGID_4_);stroke-miterlimit:10;}
	.st2{fill:url(#SVGID_5_);stroke:url(#SVGID_6_);stroke-miterlimit:10;}
	.st3{fill:#FFFFFF;stroke:url(#SVGID_7_);stroke-miterlimit:10;}
	.st4{fill:#FFFFFF;stroke:url(#SVGID_8_);stroke-miterlimit:10;}
	.st5{fill:#FFFFFF;stroke:url(#SVGID_9_);stroke-miterlimit:10;}
	.st6{fill:#FFD297;stroke:url(#SVGID_10_);stroke-width:0.75;stroke-miterlimit:10;}
	.st7{fill:#F89D89;stroke:url(#SVGID_11_);stroke-width:0.75;stroke-miterlimit:10;}
	.st8{fill:#FFD297;stroke:url(#SVGID_12_);stroke-width:0.75;stroke-miterlimit:10;}
	.st9{fill:#F89D89;stroke:url(#SVGID_13_);stroke-width:0.75;stroke-miterlimit:10;}
	.st10{fill:#FFD297;stroke:url(#SVGID_14_);stroke-width:0.75;stroke-miterlimit:10;}
	.st11{fill:#F89D89;stroke:url(#SVGID_15_);stroke-width:0.75;stroke-miterlimit:10;}
	.st12{fill:#FFD297;stroke:url(#SVGID_16_);stroke-width:0.75;stroke-miterlimit:10;}
	.st13{fill:#F89D89;stroke:url(#SVGID_17_);stroke-width:0.75;stroke-miterlimit:10;}
	.st14{fill:#FFD297;stroke:url(#SVGID_18_);stroke-width:0.75;stroke-miterlimit:10;}
	.st15{fill:url(#SVGID_19_);stroke:url(#SVGID_20_);stroke-miterlimit:10;}
	.st16{fill:url(#SVGID_21_);stroke:url(#SVGID_22_);stroke-miterlimit:10;}
	.st17{fill:none;stroke:url(#SVGID_23_);stroke-width:2;stroke-linecap:round;stroke-miterlimit:10;}
	.st18{fill:none;stroke:url(#SVGID_24_);stroke-width:2;stroke-linecap:round;stroke-miterlimit:10;}
	.st19{fill:none;stroke:url(#SVGID_25_);stroke-width:2;stroke-linecap:round;stroke-miterlimit:10;}
	.st20{fill:none;stroke:url(#SVGID_26_);stroke-width:2;stroke-linecap:round;stroke-miterlimit:10;}
	.st21{fill:url(#SVGID_27_);}
	.st22{fill:url(#SVGID_28_);}
	.st23{fill:none;stroke:url(#SVGID_29_);stroke-width:2;stroke-linecap:round;stroke-miterlimit:10;}
	.st24{fill:#76D39C;stroke:url(#SVGID_30_);stroke-miterlimit:10;}
	.st25{fill:#76D39C;stroke:url(#SVGID_31_);stroke-miterlimit:10;}
	.st26{fill:none;stroke:url(#SVGID_32_);stroke-width:2;stroke-linecap:round;stroke-miterlimit:10;}
	.st27{fill:#76D39C;stroke:url(#SVGID_33_);stroke-miterlimit:10;}
	.st28{fill:#76D39C;stroke:url(#SVGID_34_);stroke-miterlimit:10;}
	.st29{fill:url(#SVGID_35_);stroke:url(#SVGID_36_);stroke-miterlimit:10;}
	.st30{fill:none;stroke:url(#SVGID_37_);stroke-width:2;stroke-miterlimit:10;}
	.st31{fill:none;stroke:url(#SVGID_38_);stroke-width:2;stroke-miterlimit:10;}
	.st32{fill:url(#SVGID_39_);}
	.st33{fill:url(#SVGID_40_);}
	.st34{fill:url(#SVGID_41_);}
	.st35{fill:url(#SVGID_42_);}
	.st36{fill:url(#SVGID_43_);}
</style>
<g>
	<linearGradient id="SVGID_1_" gradientUnits="userSpaceOnUse" x1="27.5295" y1="61.1665" x2="134.3807" y2="61.1665">
		<stop  offset="0" style="stop-color:#FFD297"/>
		<stop  offset="1" style="stop-color:#F89D89"/>
	</linearGradient>
	<linearGradient id="SVGID_2_" gradientUnits="userSpaceOnUse" x1="27.0295" y1="61.1665" x2="134.8807" y2="61.1665">
		<stop  offset="0" style="stop-color:#004794"/>
		<stop  offset="1" style="stop-color:#001355"/>
	</linearGradient>
	<rect x="27.5" y="56" class="st0" width="106.9" height="10.3"/>
	<linearGradient id="SVGID_3_" gradientUnits="userSpaceOnUse" x1="30.4563" y1="52.1833" x2="131.712" y2="52.1833">
		<stop  offset="0" style="stop-color:#FFD297"/>
		<stop  offset="1" style="stop-color:#F89D89"/>
	</linearGradient>
	<linearGradient id="SVGID_4_" gradientUnits="userSpaceOnUse" x1="29.9563" y1="52.1833" x2="132.212" y2="52.1833">
		<stop  offset="0" style="stop-color:#004794"/>
		<stop  offset="1" style="stop-color:#001355"/>
	</linearGradient>
	<rect x="30.5" y="48.4" class="st1" width="101.3" height="7.6"/>
	<linearGradient id="SVGID_5_" gradientUnits="userSpaceOnUse" x1="33.419" y1="110.8954" x2="128.0706" y2="110.8954">
		<stop  offset="0" style="stop-color:#FFD297"/>
		<stop  offset="1" style="stop-color:#F89D89"/>
	</linearGradient>
	<linearGradient id="SVGID_6_" gradientUnits="userSpaceOnUse" x1="32.919" y1="110.8954" x2="128.5706" y2="110.8954">
		<stop  offset="0" style="stop-color:#004794"/>
		<stop  offset="1" style="stop-color:#001355"/>
	</linearGradient>
	<rect x="33.4" y="66.3" class="st2" width="94.7" height="89.2"/>
	<linearGradient id="SVGID_7_" gradientUnits="userSpaceOnUse" x1="68.3384" y1="131.2981" x2="95.4201" y2="131.2981">
		<stop  offset="0" style="stop-color:#004794"/>
		<stop  offset="1" style="stop-color:#001355"/>
	</linearGradient>
	<rect x="68.8" y="107.1" class="st3" width="26.1" height="48.4"/>
	<linearGradient id="SVGID_8_" gradientUnits="userSpaceOnUse" x1="42.1738" y1="122.8846" x2="58.7387" y2="122.8846">
		<stop  offset="0" style="stop-color:#004794"/>
		<stop  offset="1" style="stop-color:#001355"/>
	</linearGradient>
	<rect x="42.7" y="110.9" class="st4" width="15.6" height="24"/>
	<linearGradient id="SVGID_9_" gradientUnits="userSpaceOnUse" x1="103.1715" y1="122.8846" x2="119.7364" y2="122.8846">
		<stop  offset="0" style="stop-color:#004794"/>
		<stop  offset="1" style="stop-color:#001355"/>
	</linearGradient>
	<rect x="103.7" y="110.9" class="st5" width="15.6" height="24"/>
	<g>
		<linearGradient id="SVGID_10_" gradientUnits="userSpaceOnUse" x1="34.5271" y1="74.9295" x2="44.8516" y2="74.9295">
			<stop  offset="0" style="stop-color:#004794"/>
			<stop  offset="1" style="stop-color:#001355"/>
		</linearGradient>
		<path class="st6" d="M44.5,66.5v11.6c0,2.6-2.2,4.8-4.8,4.8h0c-2.6,0-4.8-2.2-4.8-4.8V66.5"/>
		<linearGradient id="SVGID_11_" gradientUnits="userSpaceOnUse" x1="44.7494" y1="74.9658" x2="55.0739" y2="74.9658">
			<stop  offset="0" style="stop-color:#004794"/>
			<stop  offset="1" style="stop-color:#001355"/>
		</linearGradient>
		<path class="st7" d="M54.7,66.6v11.6c0,2.6-2.2,4.8-4.8,4.8h0c-2.6,0-4.8-2.2-4.8-4.8V66.6"/>
		<linearGradient id="SVGID_12_" gradientUnits="userSpaceOnUse" x1="55.0078" y1="74.9658" x2="65.3323" y2="74.9658">
			<stop  offset="0" style="stop-color:#004794"/>
			<stop  offset="1" style="stop-color:#001355"/>
		</linearGradient>
		<path class="st8" d="M65,66.6v11.6c0,2.6-2.2,4.8-4.8,4.8h0c-2.6,0-4.8-2.2-4.8-4.8V66.6"/>
		<g>
			<linearGradient id="SVGID_13_" gradientUnits="userSpaceOnUse" x1="65.2231" y1="74.9913" x2="75.5476" y2="74.9913">
				<stop  offset="0" style="stop-color:#004794"/>
				<stop  offset="1" style="stop-color:#001355"/>
			</linearGradient>
			<path class="st9" d="M75.2,66.6v11.6c0,2.6-2.2,4.8-4.8,4.8h0c-2.6,0-4.8-2.2-4.8-4.8V66.6"/>
			<linearGradient id="SVGID_14_" gradientUnits="userSpaceOnUse" x1="75.4454" y1="75.0276" x2="85.7699" y2="75.0276">
				<stop  offset="0" style="stop-color:#004794"/>
				<stop  offset="1" style="stop-color:#001355"/>
			</linearGradient>
			<path class="st10" d="M85.4,66.6v11.6c0,2.6-2.2,4.8-4.8,4.8h0c-2.6,0-4.8-2.2-4.8-4.8V66.6"/>
			<linearGradient id="SVGID_15_" gradientUnits="userSpaceOnUse" x1="85.7038" y1="75.0276" x2="96.0283" y2="75.0276">
				<stop  offset="0" style="stop-color:#004794"/>
				<stop  offset="1" style="stop-color:#001355"/>
			</linearGradient>
			<path class="st11" d="M95.7,66.6v11.6c0,2.6-2.2,4.8-4.8,4.8h0c-2.6,0-4.8-2.2-4.8-4.8V66.6"/>
		</g>
		<g>
			<linearGradient id="SVGID_16_" gradientUnits="userSpaceOnUse" x1="95.8525" y1="74.9913" x2="106.177" y2="74.9913">
				<stop  offset="0" style="stop-color:#004794"/>
				<stop  offset="1" style="stop-color:#001355"/>
			</linearGradient>
			<path class="st12" d="M105.8,66.6v11.6c0,2.6-2.2,4.8-4.8,4.8h0c-2.6,0-4.8-2.2-4.8-4.8V66.6"/>
			<linearGradient id="SVGID_17_" gradientUnits="userSpaceOnUse" x1="106.0748" y1="75.0276" x2="116.3993" y2="75.0276">
				<stop  offset="0" style="stop-color:#004794"/>
				<stop  offset="1" style="stop-color:#001355"/>
			</linearGradient>
			<path class="st13" d="M116,66.6v11.6c0,2.6-2.2,4.8-4.8,4.8h0c-2.6,0-4.8-2.2-4.8-4.8V66.6"/>
			<linearGradient id="SVGID_18_" gradientUnits="userSpaceOnUse" x1="116.3332" y1="75.0276" x2="126.6577" y2="75.0276">
				<stop  offset="0" style="stop-color:#004794"/>
				<stop  offset="1" style="stop-color:#001355"/>
			</linearGradient>
			<path class="st14" d="M126.3,66.6v11.6c0,2.6-2.2,4.8-4.8,4.8h0c-2.6,0-4.8-2.2-4.8-4.8V66.6"/>
		</g>
	</g>
	<linearGradient id="SVGID_19_" gradientUnits="userSpaceOnUse" x1="0.5" y1="8.3305" x2="38.7479" y2="8.3305">
		<stop  offset="0" style="stop-color:#FFD297"/>
		<stop  offset="1" style="stop-color:#F89D89"/>
	</linearGradient>
	<linearGradient id="SVGID_20_" gradientUnits="userSpaceOnUse" x1="0" y1="8.3305" x2="39.2479" y2="8.3305">
		<stop  offset="0" style="stop-color:#004794"/>
		<stop  offset="1" style="stop-color:#001355"/>
	</linearGradient>
	<path class="st15" d="M36.8,8.1H26.3c0.4-0.4,0.6-0.8,0.6-1.4c0-1.1-0.9-1.9-1.9-1.9H2.4c-1.1,0-1.9,0.9-1.9,1.9s0.9,1.9,1.9,1.9
		h10.5C12.5,9,12.3,9.5,12.3,10c0,1.1,0.9,1.9,1.9,1.9h22.5c1.1,0,1.9-0.9,1.9-1.9S37.9,8.1,36.8,8.1z"/>
	<linearGradient id="SVGID_21_" gradientUnits="userSpaceOnUse" x1="112.0503" y1="5.9688" x2="169.893" y2="5.9688">
		<stop  offset="0" style="stop-color:#FFD297"/>
		<stop  offset="1" style="stop-color:#F89D89"/>
	</linearGradient>
	<linearGradient id="SVGID_22_" gradientUnits="userSpaceOnUse" x1="111.5503" y1="5.9688" x2="170.393" y2="5.9688">
		<stop  offset="0" style="stop-color:#004794"/>
		<stop  offset="1" style="stop-color:#001355"/>
	</linearGradient>
	<path class="st16" d="M166.9,5.5h-15.8c0.5-0.5,0.9-1.3,0.9-2.1c0-1.6-1.3-2.9-2.9-2.9H115c-1.6,0-2.9,1.3-2.9,2.9s1.3,2.9,2.9,2.9
		h15.8c-0.5,0.5-0.9,1.3-0.9,2.1c0,1.6,1.3,2.9,2.9,2.9h34.1c1.6,0,2.9-1.3,2.9-2.9S168.6,5.5,166.9,5.5z"/>
	<g>
		<linearGradient id="SVGID_23_" gradientUnits="userSpaceOnUse" x1="18.624" y1="163.9003" x2="26.3732" y2="163.9003">
			<stop  offset="0" style="stop-color:#004794"/>
			<stop  offset="1" style="stop-color:#001355"/>
		</linearGradient>
		<line class="st17" x1="19.6" y1="163.9" x2="25.4" y2="163.9"/>
		<linearGradient id="SVGID_24_" gradientUnits="userSpaceOnUse" x1="29.4563" y1="163.9003" x2="73.6289" y2="163.9003">
			<stop  offset="0" style="stop-color:#004794"/>
			<stop  offset="1" style="stop-color:#001355"/>
		</linearGradient>
		<line class="st18" x1="30.5" y1="163.9" x2="72.6" y2="163.9"/>
	</g>
	<g>
		<linearGradient id="SVGID_25_" gradientUnits="userSpaceOnUse" x1="92.7454" y1="172.3138" x2="100.4946" y2="172.3138">
			<stop  offset="0" style="stop-color:#004794"/>
			<stop  offset="1" style="stop-color:#001355"/>
		</linearGradient>
		<line class="st19" x1="93.7" y1="172.3" x2="99.5" y2="172.3"/>
		<linearGradient id="SVGID_26_" gradientUnits="userSpaceOnUse" x1="103.5777" y1="172.3138" x2="147.7502" y2="172.3138">
			<stop  offset="0" style="stop-color:#004794"/>
			<stop  offset="1" style="stop-color:#001355"/>
		</linearGradient>
		<line class="st20" x1="104.6" y1="172.3" x2="146.8" y2="172.3"/>
	</g>
	<linearGradient id="SVGID_27_" gradientUnits="userSpaceOnUse" x1="76.3277" y1="168.4225" x2="78.6414" y2="168.4225">
		<stop  offset="0" style="stop-color:#004794"/>
		<stop  offset="1" style="stop-color:#001355"/>
	</linearGradient>
	<circle class="st21" cx="77.5" cy="168.4" r="1.2"/>
	<linearGradient id="SVGID_28_" gradientUnits="userSpaceOnUse" x1="120.8968" y1="161.5866" x2="123.2105" y2="161.5866">
		<stop  offset="0" style="stop-color:#004794"/>
		<stop  offset="1" style="stop-color:#001355"/>
	</linearGradient>
	<circle class="st22" cx="122.1" cy="161.6" r="1.2"/>
	<g>
		<linearGradient id="SVGID_29_" gradientUnits="userSpaceOnUse" x1="16.32" y1="142.9704" x2="18.32" y2="142.9704">
			<stop  offset="0" style="stop-color:#004794"/>
			<stop  offset="1" style="stop-color:#001355"/>
		</linearGradient>
		<line class="st23" x1="17.3" y1="131.2" x2="17.3" y2="154.8"/>
		<linearGradient id="SVGID_30_" gradientUnits="userSpaceOnUse" x1="10.074" y1="105.9719" x2="24.5661" y2="105.9719">
			<stop  offset="0" style="stop-color:#004794"/>
			<stop  offset="1" style="stop-color:#001355"/>
		</linearGradient>
		<circle class="st24" cx="17.3" cy="106" r="6.7"/>
		<linearGradient id="SVGID_31_" gradientUnits="userSpaceOnUse" x1="7.5958" y1="121.9617" x2="27.0443" y2="121.9617">
			<stop  offset="0" style="stop-color:#004794"/>
			<stop  offset="1" style="stop-color:#001355"/>
		</linearGradient>
		<circle class="st25" cx="17.3" cy="122" r="9.2"/>
	</g>
	<g>
		<linearGradient id="SVGID_32_" gradientUnits="userSpaceOnUse" x1="143.3286" y1="142.9704" x2="145.3286" y2="142.9704">
			<stop  offset="0" style="stop-color:#004794"/>
			<stop  offset="1" style="stop-color:#001355"/>
		</linearGradient>
		<line class="st26" x1="144.3" y1="131.2" x2="144.3" y2="154.8"/>
		<linearGradient id="SVGID_33_" gradientUnits="userSpaceOnUse" x1="137.0826" y1="105.9719" x2="151.5747" y2="105.9719">
			<stop  offset="0" style="stop-color:#004794"/>
			<stop  offset="1" style="stop-color:#001355"/>
		</linearGradient>
		<circle class="st27" cx="144.3" cy="106" r="6.7"/>
		<linearGradient id="SVGID_34_" gradientUnits="userSpaceOnUse" x1="134.6044" y1="121.9617" x2="154.0529" y2="121.9617">
			<stop  offset="0" style="stop-color:#004794"/>
			<stop  offset="1" style="stop-color:#001355"/>
		</linearGradient>
		<circle class="st28" cx="144.3" cy="122" r="9.2"/>
	</g>
	<linearGradient id="SVGID_35_" gradientUnits="userSpaceOnUse" x1="51.4698" y1="31.4088" x2="110.6985" y2="31.4088">
		<stop  offset="0" style="stop-color:#FFD297"/>
		<stop  offset="1" style="stop-color:#F89D89"/>
	</linearGradient>
	<linearGradient id="SVGID_36_" gradientUnits="userSpaceOnUse" x1="50.781" y1="31.4088" x2="111.3872" y2="31.4088">
		<stop  offset="0" style="stop-color:#004794"/>
		<stop  offset="1" style="stop-color:#001355"/>
	</linearGradient>
	<polygon class="st29" points="104.7,40.6 57.4,40.6 51.5,22.3 110.7,22.3 	"/>
	<linearGradient id="SVGID_37_" gradientUnits="userSpaceOnUse" x1="64.5981" y1="44.4778" x2="66.5981" y2="44.4778">
		<stop  offset="0" style="stop-color:#004794"/>
		<stop  offset="1" style="stop-color:#001355"/>
	</linearGradient>
	<line class="st30" x1="65.6" y1="40.6" x2="65.6" y2="48.4"/>
	<linearGradient id="SVGID_38_" gradientUnits="userSpaceOnUse" x1="95.2275" y1="44.4778" x2="97.2275" y2="44.4778">
		<stop  offset="0" style="stop-color:#004794"/>
		<stop  offset="1" style="stop-color:#001355"/>
	</linearGradient>
	<line class="st31" x1="96.2" y1="40.6" x2="96.2" y2="48.4"/>
	<g>
		<linearGradient id="SVGID_39_" gradientUnits="userSpaceOnUse" x1="64.4579" y1="31.5827" x2="70.3342" y2="31.5827">
			<stop  offset="0" style="stop-color:#004794"/>
			<stop  offset="1" style="stop-color:#001355"/>
		</linearGradient>
		<path class="st32" d="M64.5,32.8l1.4-0.1c0.1,0.5,0.3,0.8,0.5,1.1c0.3,0.2,0.6,0.3,1.1,0.3c0.5,0,0.8-0.1,1.1-0.3s0.4-0.4,0.4-0.7
			c0-0.2-0.1-0.3-0.2-0.4c-0.1-0.1-0.3-0.2-0.5-0.3C68,32.3,67.6,32.2,67,32c-0.8-0.2-1.3-0.4-1.6-0.7c-0.4-0.4-0.7-0.9-0.7-1.5
			c0-0.4,0.1-0.7,0.3-1c0.2-0.3,0.5-0.6,0.9-0.7s0.9-0.3,1.4-0.3c0.9,0,1.6,0.2,2,0.6c0.5,0.4,0.7,0.9,0.7,1.6l-1.5,0.1
			c-0.1-0.4-0.2-0.6-0.4-0.8s-0.5-0.2-0.9-0.2c-0.4,0-0.8,0.1-1,0.3c-0.2,0.1-0.2,0.3-0.2,0.4c0,0.2,0.1,0.3,0.2,0.4
			c0.2,0.2,0.6,0.3,1.3,0.5c0.7,0.2,1.2,0.3,1.6,0.5s0.6,0.4,0.8,0.7s0.3,0.7,0.3,1.2c0,0.4-0.1,0.8-0.3,1.2s-0.6,0.6-1,0.8
			c-0.4,0.2-0.9,0.3-1.6,0.3c-0.9,0-1.6-0.2-2.1-0.6C64.8,34.3,64.6,33.7,64.5,32.8z"/>
		<linearGradient id="SVGID_40_" gradientUnits="userSpaceOnUse" x1="71.0441" y1="31.5802" x2="76.7872" y2="31.5802">
			<stop  offset="0" style="stop-color:#004794"/>
			<stop  offset="1" style="stop-color:#001355"/>
		</linearGradient>
		<path class="st33" d="M73.2,35.2v-6H71V28h5.7v1.2h-2.1v6H73.2z"/>
		<linearGradient id="SVGID_41_" gradientUnits="userSpaceOnUse" x1="77.2506" y1="31.5802" x2="84.2608" y2="31.5802">
			<stop  offset="0" style="stop-color:#004794"/>
			<stop  offset="1" style="stop-color:#001355"/>
		</linearGradient>
		<path class="st34" d="M77.3,31.6c0-0.7,0.1-1.4,0.3-1.9c0.2-0.4,0.4-0.7,0.7-1s0.6-0.5,0.9-0.7c0.5-0.2,1-0.3,1.6-0.3
			c1.1,0,1.9,0.3,2.6,1c0.6,0.7,1,1.6,1,2.8c0,1.2-0.3,2.1-1,2.7c-0.6,0.7-1.5,1-2.5,1c-1.1,0-1.9-0.3-2.6-1
			C77.6,33.7,77.3,32.8,77.3,31.6z M78.8,31.6c0,0.8,0.2,1.4,0.6,1.9c0.4,0.4,0.9,0.6,1.4,0.6s1.1-0.2,1.4-0.6
			c0.4-0.4,0.6-1,0.6-1.9c0-0.8-0.2-1.4-0.5-1.9s-0.8-0.6-1.4-0.6s-1.1,0.2-1.5,0.6C78.9,30.1,78.8,30.7,78.8,31.6z"/>
		<linearGradient id="SVGID_42_" gradientUnits="userSpaceOnUse" x1="85.4045" y1="31.5802" x2="91.9019" y2="31.5802">
			<stop  offset="0" style="stop-color:#004794"/>
			<stop  offset="1" style="stop-color:#001355"/>
		</linearGradient>
		<path class="st35" d="M85.4,35.2V28h3.1c0.8,0,1.3,0.1,1.7,0.2c0.4,0.1,0.6,0.4,0.8,0.7c0.2,0.3,0.3,0.7,0.3,1.1
			c0,0.5-0.2,1-0.5,1.3c-0.3,0.4-0.8,0.6-1.4,0.7c0.3,0.2,0.6,0.4,0.8,0.6s0.5,0.6,0.8,1.2l0.9,1.4h-1.7l-1.1-1.6
			c-0.4-0.6-0.6-0.9-0.8-1.1c-0.1-0.1-0.3-0.2-0.4-0.3c-0.2-0.1-0.4-0.1-0.7-0.1h-0.3v3H85.4z M86.9,31h1.1c0.7,0,1.1,0,1.3-0.1
			s0.3-0.2,0.4-0.3c0.1-0.1,0.1-0.3,0.1-0.5c0-0.2-0.1-0.4-0.2-0.6c-0.1-0.1-0.3-0.2-0.5-0.3c-0.1,0-0.5,0-1.1,0h-1.1V31z"/>
		<linearGradient id="SVGID_43_" gradientUnits="userSpaceOnUse" x1="92.6907" y1="31.5802" x2="98.1874" y2="31.5802">
			<stop  offset="0" style="stop-color:#004794"/>
			<stop  offset="1" style="stop-color:#001355"/>
		</linearGradient>
		<path class="st36" d="M92.7,35.2V28H98v1.2h-3.9v1.6h3.6V32h-3.6v2h4v1.2H92.7z"/>
	</g>
</g>
</svg>
