<?xml version="1.0" encoding="utf-8"?>
<!-- Generator: Adobe Illustrator 21.0.2, SVG Export Plug-In . SVG Version: 6.00 Build 0)  -->
<svg version="1.1" id="Layer_1" xmlns="http://www.w3.org/2000/svg" xmlns:xlink="http://www.w3.org/1999/xlink" x="0px" y="0px"
	 viewBox="0 0 242.2 173.3" style="enable-background:new 0 0 242.2 173.3;" xml:space="preserve">
<style type="text/css">
	.st0{fill:url(#SVGID_1_);stroke:url(#SVGID_2_);stroke-miterlimit:10;}
	.st1{fill:url(#SVGID_3_);stroke:url(#SVGID_4_);stroke-miterlimit:10;}
	.st2{fill:url(#SVGID_5_);stroke:url(#SVGID_6_);stroke-miterlimit:10;}
	.st3{fill:#FFFFFF;stroke:url(#SVGID_7_);stroke-miterlimit:10;}
	.st4{fill:#FFFFFF;stroke:url(#SVGID_8_);stroke-miterlimit:10;}
	.st5{fill:#FFFFFF;stroke:url(#SVGID_9_);stroke-miterlimit:10;}
	.st6{fill:#FFD297;stroke:url(#SVGID_10_);stroke-width:0.75;stroke-miterlimit:10;}
	.st7{fill:#F89D89;stroke:url(#SVGID_11_);stroke-width:0.75;stroke-miterlimit:10;}
	.st8{fill:#FFD297;stroke:url(#SVGID_12_);stroke-width:0.75;stroke-miterlimit:10;}
	.st9{fill:#F89D89;stroke:url(#SVGID_13_);stroke-width:0.75;stroke-miterlimit:10;}
	.st10{fill:#FFD297;stroke:url(#SVGID_14_);stroke-width:0.75;stroke-miterlimit:10;}
	.st11{fill:#F89D89;stroke:url(#SVGID_15_);stroke-width:0.75;stroke-miterlimit:10;}
	.st12{fill:#FFD297;stroke:url(#SVGID_16_);stroke-width:0.75;stroke-miterlimit:10;}
	.st13{fill:#F89D89;stroke:url(#SVGID_17_);stroke-width:0.75;stroke-miterlimit:10;}
	.st14{fill:#FFD297;stroke:url(#SVGID_18_);stroke-width:0.75;stroke-miterlimit:10;}
	.st15{fill:url(#SVGID_19_);stroke:url(#SVGID_20_);stroke-miterlimit:10;}
	.st16{fill:none;stroke:url(#SVGID_21_);stroke-width:2;stroke-linecap:round;stroke-miterlimit:10;}
	.st17{fill:none;stroke:url(#SVGID_22_);stroke-width:2;stroke-linecap:round;stroke-miterlimit:10;}
	.st18{fill:none;stroke:url(#SVGID_23_);stroke-width:2;stroke-linecap:round;stroke-miterlimit:10;}
	.st19{fill:none;stroke:url(#SVGID_24_);stroke-width:2;stroke-linecap:round;stroke-miterlimit:10;}
	.st20{fill:url(#SVGID_25_);}
	.st21{fill:url(#SVGID_26_);}
	.st22{fill:none;stroke:url(#SVGID_27_);stroke-width:2;stroke-linecap:round;stroke-miterlimit:10;}
	.st23{fill:#76D39C;stroke:url(#SVGID_28_);stroke-miterlimit:10;}
	.st24{fill:#76D39C;stroke:url(#SVGID_29_);stroke-miterlimit:10;}
	.st25{fill:none;stroke:url(#SVGID_30_);stroke-width:2;stroke-linecap:round;stroke-miterlimit:10;}
	.st26{fill:#76D39C;stroke:url(#SVGID_31_);stroke-miterlimit:10;}
	.st27{fill:#76D39C;stroke:url(#SVGID_32_);stroke-miterlimit:10;}
	.st28{fill:url(#SVGID_33_);stroke:url(#SVGID_34_);stroke-miterlimit:10;}
	.st29{fill:none;stroke:url(#SVGID_35_);stroke-width:2;stroke-miterlimit:10;}
	.st30{fill:none;stroke:url(#SVGID_36_);stroke-width:2;stroke-miterlimit:10;}
	.st31{fill:url(#SVGID_37_);}
	.st32{fill:url(#SVGID_38_);}
	.st33{fill:url(#SVGID_39_);}
	.st34{fill:url(#SVGID_40_);}
	.st35{fill:url(#SVGID_41_);}
	.st36{fill:url(#SVGID_42_);stroke:url(#SVGID_43_);stroke-miterlimit:10;}
	.st37{fill:url(#SVGID_44_);stroke:url(#SVGID_45_);stroke-miterlimit:10;}
	.st38{fill:url(#SVGID_46_);stroke:url(#SVGID_47_);stroke-miterlimit:10;}
	.st39{fill:#FFFFFF;stroke:url(#SVGID_48_);stroke-miterlimit:10;}
	.st40{fill:#FFFFFF;stroke:url(#SVGID_49_);stroke-miterlimit:10;}
	.st41{fill:#FFFFFF;stroke:url(#SVGID_50_);stroke-miterlimit:10;}
	.st42{fill:#FFD297;stroke:url(#SVGID_51_);stroke-width:0.75;stroke-miterlimit:10;}
	.st43{fill:#F89D89;stroke:url(#SVGID_52_);stroke-width:0.75;stroke-miterlimit:10;}
	.st44{fill:#FFD297;stroke:url(#SVGID_53_);stroke-width:0.75;stroke-miterlimit:10;}
	.st45{fill:#F89D89;stroke:url(#SVGID_54_);stroke-width:0.75;stroke-miterlimit:10;}
	.st46{fill:#FFD297;stroke:url(#SVGID_55_);stroke-width:0.75;stroke-miterlimit:10;}
	.st47{fill:#F89D89;stroke:url(#SVGID_56_);stroke-width:0.75;stroke-miterlimit:10;}
	.st48{fill:#FFD297;stroke:url(#SVGID_57_);stroke-width:0.75;stroke-miterlimit:10;}
	.st49{fill:#F89D89;stroke:url(#SVGID_58_);stroke-width:0.75;stroke-miterlimit:10;}
	.st50{fill:#FFD297;stroke:url(#SVGID_59_);stroke-width:0.75;stroke-miterlimit:10;}
	.st51{fill:none;stroke:url(#SVGID_60_);stroke-width:2;stroke-linecap:round;stroke-miterlimit:10;}
	.st52{fill:none;stroke:url(#SVGID_61_);stroke-width:2;stroke-linecap:round;stroke-miterlimit:10;}
	.st53{fill:none;stroke:url(#SVGID_62_);stroke-width:2;stroke-linecap:round;stroke-miterlimit:10;}
	.st54{fill:none;stroke:url(#SVGID_63_);stroke-width:2;stroke-linecap:round;stroke-miterlimit:10;}
	.st55{fill:url(#SVGID_64_);}
	.st56{fill:url(#SVGID_65_);}
	.st57{fill:none;stroke:url(#SVGID_66_);stroke-width:2;stroke-linecap:round;stroke-miterlimit:10;}
	.st58{fill:#76D39C;stroke:url(#SVGID_67_);stroke-miterlimit:10;}
	.st59{fill:#76D39C;stroke:url(#SVGID_68_);stroke-miterlimit:10;}
	.st60{fill:none;stroke:url(#SVGID_69_);stroke-width:2;stroke-linecap:round;stroke-miterlimit:10;}
	.st61{fill:#76D39C;stroke:url(#SVGID_70_);stroke-miterlimit:10;}
	.st62{fill:#76D39C;stroke:url(#SVGID_71_);stroke-miterlimit:10;}
	.st63{fill:url(#SVGID_72_);stroke:url(#SVGID_73_);stroke-miterlimit:10;}
	.st64{fill:none;stroke:url(#SVGID_74_);stroke-width:2;stroke-miterlimit:10;}
	.st65{fill:none;stroke:url(#SVGID_75_);stroke-width:2;stroke-miterlimit:10;}
	.st66{fill:url(#SVGID_76_);}
	.st67{fill:url(#SVGID_77_);}
	.st68{fill:url(#SVGID_78_);}
	.st69{fill:url(#SVGID_79_);}
	.st70{fill:url(#SVGID_80_);}
	.st71{fill:url(#SVGID_81_);stroke:url(#SVGID_82_);stroke-miterlimit:10;}
	.st72{fill:url(#SVGID_83_);stroke:url(#SVGID_84_);stroke-miterlimit:10;}
	.st73{fill:url(#SVGID_85_);stroke:url(#SVGID_86_);stroke-miterlimit:10;}
	.st74{fill:#FFFFFF;stroke:url(#SVGID_87_);stroke-miterlimit:10;}
	.st75{fill:#FFFFFF;stroke:url(#SVGID_88_);stroke-miterlimit:10;}
	.st76{fill:#FFFFFF;stroke:url(#SVGID_89_);stroke-miterlimit:10;}
	.st77{fill:#FFD297;stroke:url(#SVGID_90_);stroke-width:0.75;stroke-miterlimit:10;}
	.st78{fill:#F89D89;stroke:url(#SVGID_91_);stroke-width:0.75;stroke-miterlimit:10;}
	.st79{fill:#FFD297;stroke:url(#SVGID_92_);stroke-width:0.75;stroke-miterlimit:10;}
	.st80{fill:#F89D89;stroke:url(#SVGID_93_);stroke-width:0.75;stroke-miterlimit:10;}
	.st81{fill:#FFD297;stroke:url(#SVGID_94_);stroke-width:0.75;stroke-miterlimit:10;}
	.st82{fill:#F89D89;stroke:url(#SVGID_95_);stroke-width:0.75;stroke-miterlimit:10;}
	.st83{fill:#FFD297;stroke:url(#SVGID_96_);stroke-width:0.75;stroke-miterlimit:10;}
	.st84{fill:#F89D89;stroke:url(#SVGID_97_);stroke-width:0.75;stroke-miterlimit:10;}
	.st85{fill:#FFD297;stroke:url(#SVGID_98_);stroke-width:0.75;stroke-miterlimit:10;}
	.st86{fill:url(#SVGID_99_);stroke:url(#SVGID_100_);stroke-miterlimit:10;}
	.st87{fill:url(#SVGID_101_);stroke:url(#SVGID_102_);stroke-miterlimit:10;}
	.st88{fill:none;stroke:url(#SVGID_103_);stroke-width:2;stroke-linecap:round;stroke-miterlimit:10;}
	.st89{fill:none;stroke:url(#SVGID_104_);stroke-width:2;stroke-linecap:round;stroke-miterlimit:10;}
	.st90{fill:none;stroke:url(#SVGID_105_);stroke-width:2;stroke-linecap:round;stroke-miterlimit:10;}
	.st91{fill:none;stroke:url(#SVGID_106_);stroke-width:2;stroke-linecap:round;stroke-miterlimit:10;}
	.st92{fill:url(#SVGID_107_);}
	.st93{fill:url(#SVGID_108_);}
	.st94{fill:none;stroke:url(#SVGID_109_);stroke-width:2;stroke-linecap:round;stroke-miterlimit:10;}
	.st95{fill:url(#SVGID_110_);stroke:url(#SVGID_111_);stroke-miterlimit:10;}
	.st96{fill:none;stroke:url(#SVGID_112_);stroke-width:2;stroke-miterlimit:10;}
	.st97{fill:none;stroke:url(#SVGID_113_);stroke-width:2;stroke-miterlimit:10;}
	.st98{fill:url(#SVGID_114_);}
	.st99{fill:url(#SVGID_115_);}
	.st100{fill:url(#SVGID_116_);}
	.st101{fill:url(#SVGID_117_);}
	.st102{fill:url(#SVGID_118_);}
</style>
<g>
	<linearGradient id="SVGID_1_" gradientUnits="userSpaceOnUse" x1="24.0259" y1="79.5953" x2="84.9636" y2="79.5953">
		<stop  offset="0" style="stop-color:#FFD297"/>
		<stop  offset="1" style="stop-color:#F89D89"/>
	</linearGradient>
	<linearGradient id="SVGID_2_" gradientUnits="userSpaceOnUse" x1="23.5259" y1="79.5953" x2="85.4636" y2="79.5953">
		<stop  offset="0" style="stop-color:#004794"/>
		<stop  offset="1" style="stop-color:#001355"/>
	</linearGradient>
	<rect x="24" y="76.7" class="st0" width="60.9" height="5.9"/>
	<linearGradient id="SVGID_3_" gradientUnits="userSpaceOnUse" x1="25.695" y1="74.4721" x2="83.4416" y2="74.4721">
		<stop  offset="0" style="stop-color:#FFD297"/>
		<stop  offset="1" style="stop-color:#F89D89"/>
	</linearGradient>
	<linearGradient id="SVGID_4_" gradientUnits="userSpaceOnUse" x1="25.195" y1="74.4721" x2="83.9416" y2="74.4721">
		<stop  offset="0" style="stop-color:#004794"/>
		<stop  offset="1" style="stop-color:#001355"/>
	</linearGradient>
	<rect x="25.7" y="72.3" class="st1" width="57.7" height="4.3"/>
	<linearGradient id="SVGID_5_" gradientUnits="userSpaceOnUse" x1="27.3846" y1="107.956" x2="81.3649" y2="107.956">
		<stop  offset="0" style="stop-color:#FFD297"/>
		<stop  offset="1" style="stop-color:#F89D89"/>
	</linearGradient>
	<linearGradient id="SVGID_6_" gradientUnits="userSpaceOnUse" x1="26.8846" y1="107.956" x2="81.8649" y2="107.956">
		<stop  offset="0" style="stop-color:#004794"/>
		<stop  offset="1" style="stop-color:#001355"/>
	</linearGradient>
	<rect x="27.4" y="82.5" class="st2" width="54" height="50.9"/>
	<linearGradient id="SVGID_7_" gradientUnits="userSpaceOnUse" x1="47.0845" y1="119.5917" x2="62.9591" y2="119.5917">
		<stop  offset="0" style="stop-color:#004794"/>
		<stop  offset="1" style="stop-color:#001355"/>
	</linearGradient>
	<rect x="47.6" y="105.8" class="st3" width="14.9" height="27.6"/>
	<linearGradient id="SVGID_8_" gradientUnits="userSpaceOnUse" x1="32.1627" y1="114.7935" x2="42.0395" y2="114.7935">
		<stop  offset="0" style="stop-color:#004794"/>
		<stop  offset="1" style="stop-color:#001355"/>
	</linearGradient>
	<rect x="32.7" y="108" class="st4" width="8.9" height="13.7"/>
	<linearGradient id="SVGID_9_" gradientUnits="userSpaceOnUse" x1="66.95" y1="114.7935" x2="76.8268" y2="114.7935">
		<stop  offset="0" style="stop-color:#004794"/>
		<stop  offset="1" style="stop-color:#001355"/>
	</linearGradient>
	<rect x="67.5" y="108" class="st5" width="8.9" height="13.7"/>
	<g>
		<linearGradient id="SVGID_10_" gradientUnits="userSpaceOnUse" x1="27.8555" y1="87.525" x2="34.0659" y2="87.525">
			<stop  offset="0" style="stop-color:#004794"/>
			<stop  offset="1" style="stop-color:#001355"/>
		</linearGradient>
		<path class="st6" d="M33.7,82.7v6.6c0,1.5-1.2,2.7-2.7,2.7h0c-1.5,0-2.7-1.2-2.7-2.7v-6.6"/>
		<linearGradient id="SVGID_11_" gradientUnits="userSpaceOnUse" x1="33.6853" y1="87.5457" x2="39.8957" y2="87.5457">
			<stop  offset="0" style="stop-color:#004794"/>
			<stop  offset="1" style="stop-color:#001355"/>
		</linearGradient>
		<path class="st7" d="M39.5,82.7v6.6c0,1.5-1.2,2.7-2.7,2.7h0c-1.5,0-2.7-1.2-2.7-2.7v-6.6"/>
		<linearGradient id="SVGID_12_" gradientUnits="userSpaceOnUse" x1="39.5357" y1="87.5457" x2="45.7461" y2="87.5457">
			<stop  offset="0" style="stop-color:#004794"/>
			<stop  offset="1" style="stop-color:#001355"/>
		</linearGradient>
		<path class="st8" d="M45.4,82.7v6.6c0,1.5-1.2,2.7-2.7,2.7h0c-1.5,0-2.7-1.2-2.7-2.7v-6.6"/>
		<g>
			<linearGradient id="SVGID_13_" gradientUnits="userSpaceOnUse" x1="45.3616" y1="87.5602" x2="51.572" y2="87.5602">
				<stop  offset="0" style="stop-color:#004794"/>
				<stop  offset="1" style="stop-color:#001355"/>
			</linearGradient>
			<path class="st9" d="M51.2,82.7v6.6c0,1.5-1.2,2.7-2.7,2.7h0c-1.5,0-2.7-1.2-2.7-2.7v-6.6"/>
			<linearGradient id="SVGID_14_" gradientUnits="userSpaceOnUse" x1="51.1914" y1="87.581" x2="57.4018" y2="87.581">
				<stop  offset="0" style="stop-color:#004794"/>
				<stop  offset="1" style="stop-color:#001355"/>
			</linearGradient>
			<path class="st10" d="M57,82.7v6.6c0,1.5-1.2,2.7-2.7,2.7h0c-1.5,0-2.7-1.2-2.7-2.7v-6.6"/>
			<linearGradient id="SVGID_15_" gradientUnits="userSpaceOnUse" x1="57.0418" y1="87.581" x2="63.2522" y2="87.581">
				<stop  offset="0" style="stop-color:#004794"/>
				<stop  offset="1" style="stop-color:#001355"/>
			</linearGradient>
			<path class="st11" d="M62.9,82.7v6.6c0,1.5-1.2,2.7-2.7,2.7h0c-1.5,0-2.7-1.2-2.7-2.7v-6.6"/>
		</g>
		<g>
			<linearGradient id="SVGID_16_" gradientUnits="userSpaceOnUse" x1="62.8297" y1="87.5602" x2="69.0401" y2="87.5602">
				<stop  offset="0" style="stop-color:#004794"/>
				<stop  offset="1" style="stop-color:#001355"/>
			</linearGradient>
			<path class="st12" d="M68.7,82.7v6.6c0,1.5-1.2,2.7-2.7,2.7h0c-1.5,0-2.7-1.2-2.7-2.7v-6.6"/>
			<linearGradient id="SVGID_17_" gradientUnits="userSpaceOnUse" x1="68.6595" y1="87.581" x2="74.8699" y2="87.581">
				<stop  offset="0" style="stop-color:#004794"/>
				<stop  offset="1" style="stop-color:#001355"/>
			</linearGradient>
			<path class="st13" d="M74.5,82.7v6.6c0,1.5-1.2,2.7-2.7,2.7h0c-1.5,0-2.7-1.2-2.7-2.7v-6.6"/>
			<linearGradient id="SVGID_18_" gradientUnits="userSpaceOnUse" x1="74.5099" y1="87.581" x2="80.7203" y2="87.581">
				<stop  offset="0" style="stop-color:#004794"/>
				<stop  offset="1" style="stop-color:#001355"/>
			</linearGradient>
			<path class="st14" d="M80.3,82.7v6.6c0,1.5-1.2,2.7-2.7,2.7h0c-1.5,0-2.7-1.2-2.7-2.7v-6.6"/>
		</g>
	</g>
	<linearGradient id="SVGID_19_" gradientUnits="userSpaceOnUse" x1="8.6108" y1="49.4627" x2="30.4238" y2="49.4627">
		<stop  offset="0" style="stop-color:#FFD297"/>
		<stop  offset="1" style="stop-color:#F89D89"/>
	</linearGradient>
	<linearGradient id="SVGID_20_" gradientUnits="userSpaceOnUse" x1="8.1108" y1="49.4627" x2="30.9238" y2="49.4627">
		<stop  offset="0" style="stop-color:#004794"/>
		<stop  offset="1" style="stop-color:#001355"/>
	</linearGradient>
	<path class="st15" d="M29.3,49.3h-6c0.2-0.2,0.3-0.5,0.3-0.8c0-0.6-0.5-1.1-1.1-1.1H9.7c-0.6,0-1.1,0.5-1.1,1.1s0.5,1.1,1.1,1.1h6
		c-0.2,0.2-0.3,0.5-0.3,0.8c0,0.6,0.5,1.1,1.1,1.1h12.8c0.6,0,1.1-0.5,1.1-1.1S29.9,49.3,29.3,49.3z"/>
	<g>
		<linearGradient id="SVGID_21_" gradientUnits="userSpaceOnUse" x1="18.5173" y1="138.1849" x2="23.7961" y2="138.1849">
			<stop  offset="0" style="stop-color:#004794"/>
			<stop  offset="1" style="stop-color:#001355"/>
		</linearGradient>
		<line class="st16" x1="19.5" y1="138.2" x2="22.8" y2="138.2"/>
		<linearGradient id="SVGID_22_" gradientUnits="userSpaceOnUse" x1="24.695" y1="138.1849" x2="50.7462" y2="138.1849">
			<stop  offset="0" style="stop-color:#004794"/>
			<stop  offset="1" style="stop-color:#001355"/>
		</linearGradient>
		<line class="st17" x1="25.7" y1="138.2" x2="49.7" y2="138.2"/>
	</g>
	<g>
		<linearGradient id="SVGID_23_" gradientUnits="userSpaceOnUse" x1="60.7891" y1="142.9832" x2="66.0679" y2="142.9832">
			<stop  offset="0" style="stop-color:#004794"/>
			<stop  offset="1" style="stop-color:#001355"/>
		</linearGradient>
		<line class="st18" x1="61.8" y1="143" x2="65.1" y2="143"/>
		<linearGradient id="SVGID_24_" gradientUnits="userSpaceOnUse" x1="66.9668" y1="142.9832" x2="93.018" y2="142.9832">
			<stop  offset="0" style="stop-color:#004794"/>
			<stop  offset="1" style="stop-color:#001355"/>
		</linearGradient>
		<line class="st19" x1="68" y1="143" x2="92" y2="143"/>
	</g>
	<linearGradient id="SVGID_25_" gradientUnits="userSpaceOnUse" x1="51.8557" y1="140.764" x2="53.1752" y2="140.764">
		<stop  offset="0" style="stop-color:#004794"/>
		<stop  offset="1" style="stop-color:#001355"/>
	</linearGradient>
	<circle class="st20" cx="52.5" cy="140.8" r="0.7"/>
	<linearGradient id="SVGID_26_" gradientUnits="userSpaceOnUse" x1="77.2737" y1="136.8654" x2="78.5932" y2="136.8654">
		<stop  offset="0" style="stop-color:#004794"/>
		<stop  offset="1" style="stop-color:#001355"/>
	</linearGradient>
	<circle class="st21" cx="77.9" cy="136.9" r="0.7"/>
	<g>
		<linearGradient id="SVGID_27_" gradientUnits="userSpaceOnUse" x1="17.2033" y1="126.2485" x2="19.2033" y2="126.2485">
			<stop  offset="0" style="stop-color:#004794"/>
			<stop  offset="1" style="stop-color:#001355"/>
		</linearGradient>
		<line class="st22" x1="18.2" y1="119.5" x2="18.2" y2="133"/>
		<linearGradient id="SVGID_28_" gradientUnits="userSpaceOnUse" x1="13.856" y1="105.1481" x2="22.5507" y2="105.1481">
			<stop  offset="0" style="stop-color:#004794"/>
			<stop  offset="1" style="stop-color:#001355"/>
		</linearGradient>
		<circle class="st23" cx="18.2" cy="105.1" r="3.8"/>
		<linearGradient id="SVGID_29_" gradientUnits="userSpaceOnUse" x1="12.4427" y1="114.2672" x2="23.964" y2="114.2672">
			<stop  offset="0" style="stop-color:#004794"/>
			<stop  offset="1" style="stop-color:#001355"/>
		</linearGradient>
		<circle class="st24" cx="18.2" cy="114.3" r="5.3"/>
	</g>
	<g>
		<linearGradient id="SVGID_30_" gradientUnits="userSpaceOnUse" x1="89.637" y1="126.2485" x2="91.637" y2="126.2485">
			<stop  offset="0" style="stop-color:#004794"/>
			<stop  offset="1" style="stop-color:#001355"/>
		</linearGradient>
		<line class="st25" x1="90.6" y1="119.5" x2="90.6" y2="133"/>
		<linearGradient id="SVGID_31_" gradientUnits="userSpaceOnUse" x1="86.2897" y1="105.1481" x2="94.9843" y2="105.1481">
			<stop  offset="0" style="stop-color:#004794"/>
			<stop  offset="1" style="stop-color:#001355"/>
		</linearGradient>
		<circle class="st26" cx="90.6" cy="105.1" r="3.8"/>
		<linearGradient id="SVGID_32_" gradientUnits="userSpaceOnUse" x1="84.8764" y1="114.2672" x2="96.3976" y2="114.2672">
			<stop  offset="0" style="stop-color:#004794"/>
			<stop  offset="1" style="stop-color:#001355"/>
		</linearGradient>
		<circle class="st27" cx="90.6" cy="114.3" r="5.3"/>
	</g>
	<linearGradient id="SVGID_33_" gradientUnits="userSpaceOnUse" x1="37.6791" y1="62.6243" x2="71.4575" y2="62.6243">
		<stop  offset="0" style="stop-color:#FFD297"/>
		<stop  offset="1" style="stop-color:#F89D89"/>
	</linearGradient>
	<linearGradient id="SVGID_34_" gradientUnits="userSpaceOnUse" x1="36.9903" y1="62.6243" x2="72.1463" y2="62.6243">
		<stop  offset="0" style="stop-color:#004794"/>
		<stop  offset="1" style="stop-color:#001355"/>
	</linearGradient>
	<polygon class="st28" points="68.1,67.8 41.1,67.8 37.7,57.4 71.5,57.4 	"/>
	<linearGradient id="SVGID_35_" gradientUnits="userSpaceOnUse" x1="44.7366" y1="70.0777" x2="46.7366" y2="70.0777">
		<stop  offset="0" style="stop-color:#004794"/>
		<stop  offset="1" style="stop-color:#001355"/>
	</linearGradient>
	<line class="st29" x1="45.7" y1="67.8" x2="45.7" y2="72.3"/>
	<linearGradient id="SVGID_36_" gradientUnits="userSpaceOnUse" x1="62.2047" y1="70.0777" x2="64.2047" y2="70.0777">
		<stop  offset="0" style="stop-color:#004794"/>
		<stop  offset="1" style="stop-color:#001355"/>
	</linearGradient>
	<line class="st30" x1="63.2" y1="67.8" x2="63.2" y2="72.3"/>
	<g>
		<linearGradient id="SVGID_37_" gradientUnits="userSpaceOnUse" x1="45.0863" y1="62.7235" x2="48.4376" y2="62.7235">
			<stop  offset="0" style="stop-color:#004794"/>
			<stop  offset="1" style="stop-color:#001355"/>
		</linearGradient>
		<path class="st31" d="M45.1,63.4l0.8-0.1c0,0.3,0.1,0.5,0.3,0.6c0.1,0.1,0.4,0.2,0.6,0.2c0.3,0,0.5-0.1,0.6-0.2
			c0.1-0.1,0.2-0.2,0.2-0.4c0-0.1,0-0.2-0.1-0.2s-0.2-0.1-0.3-0.2c-0.1,0-0.3-0.1-0.7-0.2c-0.4-0.1-0.8-0.2-0.9-0.4
			c-0.3-0.2-0.4-0.5-0.4-0.8c0-0.2,0.1-0.4,0.2-0.6c0.1-0.2,0.3-0.3,0.5-0.4c0.2-0.1,0.5-0.1,0.8-0.1c0.5,0,0.9,0.1,1.2,0.3
			s0.4,0.5,0.4,0.9l-0.8,0c0-0.2-0.1-0.4-0.2-0.5c-0.1-0.1-0.3-0.1-0.5-0.1c-0.2,0-0.4,0-0.6,0.1c-0.1,0.1-0.1,0.1-0.1,0.3
			c0,0.1,0,0.2,0.1,0.3c0.1,0.1,0.4,0.2,0.8,0.3c0.4,0.1,0.7,0.2,0.9,0.3c0.2,0.1,0.3,0.2,0.5,0.4c0.1,0.2,0.2,0.4,0.2,0.7
			c0,0.2-0.1,0.5-0.2,0.7c-0.1,0.2-0.3,0.4-0.6,0.5c-0.2,0.1-0.5,0.2-0.9,0.2c-0.5,0-0.9-0.1-1.2-0.4C45.3,64.3,45.1,63.9,45.1,63.4
			z"/>
		<linearGradient id="SVGID_38_" gradientUnits="userSpaceOnUse" x1="48.8424" y1="62.7221" x2="52.1178" y2="62.7221">
			<stop  offset="0" style="stop-color:#004794"/>
			<stop  offset="1" style="stop-color:#001355"/>
		</linearGradient>
		<path class="st32" d="M50.1,64.8v-3.4h-1.2v-0.7h3.3v0.7h-1.2v3.4H50.1z"/>
		<linearGradient id="SVGID_39_" gradientUnits="userSpaceOnUse" x1="52.3821" y1="62.7221" x2="56.38" y2="62.7221">
			<stop  offset="0" style="stop-color:#004794"/>
			<stop  offset="1" style="stop-color:#001355"/>
		</linearGradient>
		<path class="st33" d="M52.4,62.7c0-0.4,0.1-0.8,0.2-1.1c0.1-0.2,0.2-0.4,0.4-0.6s0.3-0.3,0.5-0.4c0.3-0.1,0.6-0.2,0.9-0.2
			c0.6,0,1.1,0.2,1.5,0.6c0.4,0.4,0.5,0.9,0.5,1.6c0,0.7-0.2,1.2-0.5,1.6c-0.4,0.4-0.8,0.6-1.5,0.6c-0.6,0-1.1-0.2-1.5-0.6
			C52.6,63.9,52.4,63.4,52.4,62.7z M53.2,62.7c0,0.5,0.1,0.8,0.3,1.1c0.2,0.2,0.5,0.4,0.8,0.4s0.6-0.1,0.8-0.4
			c0.2-0.2,0.3-0.6,0.3-1.1c0-0.5-0.1-0.8-0.3-1.1s-0.5-0.3-0.8-0.3s-0.6,0.1-0.8,0.4C53.3,61.9,53.2,62.2,53.2,62.7z"/>
		<linearGradient id="SVGID_40_" gradientUnits="userSpaceOnUse" x1="57.0322" y1="62.7221" x2="60.7378" y2="62.7221">
			<stop  offset="0" style="stop-color:#004794"/>
			<stop  offset="1" style="stop-color:#001355"/>
		</linearGradient>
		<path class="st34" d="M57,64.8v-4.1h1.8c0.4,0,0.8,0,1,0.1s0.4,0.2,0.5,0.4c0.1,0.2,0.2,0.4,0.2,0.6c0,0.3-0.1,0.6-0.3,0.8
			s-0.5,0.3-0.8,0.4c0.2,0.1,0.3,0.2,0.4,0.3c0.1,0.1,0.3,0.3,0.5,0.7l0.5,0.8h-1l-0.6-0.9c-0.2-0.3-0.4-0.5-0.4-0.6
			c-0.1-0.1-0.2-0.1-0.3-0.2s-0.2,0-0.4,0h-0.2v1.7H57z M57.9,62.4h0.6c0.4,0,0.6,0,0.7-0.1s0.2-0.1,0.2-0.2
			c0.1-0.1,0.1-0.2,0.1-0.3c0-0.1,0-0.3-0.1-0.3s-0.2-0.1-0.3-0.2c-0.1,0-0.3,0-0.6,0h-0.6V62.4z"/>
		<linearGradient id="SVGID_41_" gradientUnits="userSpaceOnUse" x1="61.1876" y1="62.7221" x2="64.3224" y2="62.7221">
			<stop  offset="0" style="stop-color:#004794"/>
			<stop  offset="1" style="stop-color:#001355"/>
		</linearGradient>
		<path class="st35" d="M61.2,64.8v-4.1h3.1v0.7H62v0.9h2.1V63H62v1.1h2.3v0.7H61.2z"/>
	</g>
</g>
<g>
	<linearGradient id="SVGID_42_" gradientUnits="userSpaceOnUse" x1="148.1592" y1="80.1344" x2="209.0969" y2="80.1344">
		<stop  offset="0" style="stop-color:#FFD297"/>
		<stop  offset="1" style="stop-color:#F89D89"/>
	</linearGradient>
	<linearGradient id="SVGID_43_" gradientUnits="userSpaceOnUse" x1="147.6592" y1="80.1344" x2="209.5969" y2="80.1344">
		<stop  offset="0" style="stop-color:#004794"/>
		<stop  offset="1" style="stop-color:#001355"/>
	</linearGradient>
	<rect x="148.2" y="77.2" class="st36" width="60.9" height="5.9"/>
	<linearGradient id="SVGID_44_" gradientUnits="userSpaceOnUse" x1="149.8283" y1="75.0113" x2="207.575" y2="75.0113">
		<stop  offset="0" style="stop-color:#FFD297"/>
		<stop  offset="1" style="stop-color:#F89D89"/>
	</linearGradient>
	<linearGradient id="SVGID_45_" gradientUnits="userSpaceOnUse" x1="149.3283" y1="75.0113" x2="208.075" y2="75.0113">
		<stop  offset="0" style="stop-color:#004794"/>
		<stop  offset="1" style="stop-color:#001355"/>
	</linearGradient>
	<rect x="149.8" y="72.9" class="st37" width="57.7" height="4.3"/>
	<linearGradient id="SVGID_46_" gradientUnits="userSpaceOnUse" x1="151.518" y1="108.4951" x2="205.4982" y2="108.4951">
		<stop  offset="0" style="stop-color:#FFD297"/>
		<stop  offset="1" style="stop-color:#F89D89"/>
	</linearGradient>
	<linearGradient id="SVGID_47_" gradientUnits="userSpaceOnUse" x1="151.018" y1="108.4951" x2="205.9982" y2="108.4951">
		<stop  offset="0" style="stop-color:#004794"/>
		<stop  offset="1" style="stop-color:#001355"/>
	</linearGradient>
	<rect x="151.5" y="83.1" class="st38" width="54" height="50.9"/>
	<linearGradient id="SVGID_48_" gradientUnits="userSpaceOnUse" x1="171.2178" y1="120.1309" x2="187.0924" y2="120.1309">
		<stop  offset="0" style="stop-color:#004794"/>
		<stop  offset="1" style="stop-color:#001355"/>
	</linearGradient>
	<rect x="171.7" y="106.3" class="st39" width="14.9" height="27.6"/>
	<linearGradient id="SVGID_49_" gradientUnits="userSpaceOnUse" x1="156.296" y1="115.3326" x2="166.1728" y2="115.3326">
		<stop  offset="0" style="stop-color:#004794"/>
		<stop  offset="1" style="stop-color:#001355"/>
	</linearGradient>
	<rect x="156.8" y="108.5" class="st40" width="8.9" height="13.7"/>
	<linearGradient id="SVGID_50_" gradientUnits="userSpaceOnUse" x1="191.0833" y1="115.3326" x2="200.9601" y2="115.3326">
		<stop  offset="0" style="stop-color:#004794"/>
		<stop  offset="1" style="stop-color:#001355"/>
	</linearGradient>
	<rect x="191.6" y="108.5" class="st41" width="8.9" height="13.7"/>
	<g>
		<linearGradient id="SVGID_51_" gradientUnits="userSpaceOnUse" x1="151.9888" y1="88.0641" x2="158.1992" y2="88.0641">
			<stop  offset="0" style="stop-color:#004794"/>
			<stop  offset="1" style="stop-color:#001355"/>
		</linearGradient>
		<path class="st42" d="M157.8,83.2v6.6c0,1.5-1.2,2.7-2.7,2.7h0c-1.5,0-2.7-1.2-2.7-2.7v-6.6"/>
		<linearGradient id="SVGID_52_" gradientUnits="userSpaceOnUse" x1="157.8186" y1="88.0849" x2="164.029" y2="88.0849">
			<stop  offset="0" style="stop-color:#004794"/>
			<stop  offset="1" style="stop-color:#001355"/>
		</linearGradient>
		<path class="st43" d="M163.7,83.2v6.6c0,1.5-1.2,2.7-2.7,2.7l0,0c-1.5,0-2.7-1.2-2.7-2.7v-6.6"/>
		<linearGradient id="SVGID_53_" gradientUnits="userSpaceOnUse" x1="163.669" y1="88.0849" x2="169.8794" y2="88.0849">
			<stop  offset="0" style="stop-color:#004794"/>
			<stop  offset="1" style="stop-color:#001355"/>
		</linearGradient>
		<path class="st44" d="M169.5,83.2v6.6c0,1.5-1.2,2.7-2.7,2.7h0c-1.5,0-2.7-1.2-2.7-2.7v-6.6"/>
		<g>
			<linearGradient id="SVGID_54_" gradientUnits="userSpaceOnUse" x1="169.4949" y1="88.0994" x2="175.7053" y2="88.0994">
				<stop  offset="0" style="stop-color:#004794"/>
				<stop  offset="1" style="stop-color:#001355"/>
			</linearGradient>
			<path class="st45" d="M175.3,83.2v6.6c0,1.5-1.2,2.7-2.7,2.7l0,0c-1.5,0-2.7-1.2-2.7-2.7v-6.6"/>
			<linearGradient id="SVGID_55_" gradientUnits="userSpaceOnUse" x1="175.3247" y1="88.1201" x2="181.5351" y2="88.1201">
				<stop  offset="0" style="stop-color:#004794"/>
				<stop  offset="1" style="stop-color:#001355"/>
			</linearGradient>
			<path class="st46" d="M181.2,83.3v6.6c0,1.5-1.2,2.7-2.7,2.7l0,0c-1.5,0-2.7-1.2-2.7-2.7v-6.6"/>
			<linearGradient id="SVGID_56_" gradientUnits="userSpaceOnUse" x1="181.1751" y1="88.1201" x2="187.3855" y2="88.1201">
				<stop  offset="0" style="stop-color:#004794"/>
				<stop  offset="1" style="stop-color:#001355"/>
			</linearGradient>
			<path class="st47" d="M187,83.3v6.6c0,1.5-1.2,2.7-2.7,2.7l0,0c-1.5,0-2.7-1.2-2.7-2.7v-6.6"/>
		</g>
		<g>
			<linearGradient id="SVGID_57_" gradientUnits="userSpaceOnUse" x1="186.963" y1="88.0994" x2="193.1734" y2="88.0994">
				<stop  offset="0" style="stop-color:#004794"/>
				<stop  offset="1" style="stop-color:#001355"/>
			</linearGradient>
			<path class="st48" d="M192.8,83.2v6.6c0,1.5-1.2,2.7-2.7,2.7l0,0c-1.5,0-2.7-1.2-2.7-2.7v-6.6"/>
			<linearGradient id="SVGID_58_" gradientUnits="userSpaceOnUse" x1="192.7928" y1="88.1201" x2="199.0032" y2="88.1201">
				<stop  offset="0" style="stop-color:#004794"/>
				<stop  offset="1" style="stop-color:#001355"/>
			</linearGradient>
			<path class="st49" d="M198.6,83.3v6.6c0,1.5-1.2,2.7-2.7,2.7l0,0c-1.5,0-2.7-1.2-2.7-2.7v-6.6"/>
			<linearGradient id="SVGID_59_" gradientUnits="userSpaceOnUse" x1="198.6432" y1="88.1201" x2="204.8536" y2="88.1201">
				<stop  offset="0" style="stop-color:#004794"/>
				<stop  offset="1" style="stop-color:#001355"/>
			</linearGradient>
			<path class="st50" d="M204.5,83.3v6.6c0,1.5-1.2,2.7-2.7,2.7l0,0c-1.5,0-2.7-1.2-2.7-2.7v-6.6"/>
		</g>
	</g>
	<g>
		<linearGradient id="SVGID_60_" gradientUnits="userSpaceOnUse" x1="142.6506" y1="138.7241" x2="147.9294" y2="138.7241">
			<stop  offset="0" style="stop-color:#004794"/>
			<stop  offset="1" style="stop-color:#001355"/>
		</linearGradient>
		<line class="st51" x1="143.7" y1="138.7" x2="146.9" y2="138.7"/>
		<linearGradient id="SVGID_61_" gradientUnits="userSpaceOnUse" x1="148.8283" y1="138.7241" x2="174.8795" y2="138.7241">
			<stop  offset="0" style="stop-color:#004794"/>
			<stop  offset="1" style="stop-color:#001355"/>
		</linearGradient>
		<line class="st52" x1="149.8" y1="138.7" x2="173.9" y2="138.7"/>
	</g>
	<g>
		<linearGradient id="SVGID_62_" gradientUnits="userSpaceOnUse" x1="184.9224" y1="143.5223" x2="190.2012" y2="143.5223">
			<stop  offset="0" style="stop-color:#004794"/>
			<stop  offset="1" style="stop-color:#001355"/>
		</linearGradient>
		<line class="st53" x1="185.9" y1="143.5" x2="189.2" y2="143.5"/>
		<linearGradient id="SVGID_63_" gradientUnits="userSpaceOnUse" x1="191.1001" y1="143.5223" x2="217.1514" y2="143.5223">
			<stop  offset="0" style="stop-color:#004794"/>
			<stop  offset="1" style="stop-color:#001355"/>
		</linearGradient>
		<line class="st54" x1="192.1" y1="143.5" x2="216.2" y2="143.5"/>
	</g>
	<linearGradient id="SVGID_64_" gradientUnits="userSpaceOnUse" x1="175.989" y1="141.3031" x2="177.3085" y2="141.3031">
		<stop  offset="0" style="stop-color:#004794"/>
		<stop  offset="1" style="stop-color:#001355"/>
	</linearGradient>
	<circle class="st55" cx="176.6" cy="141.3" r="0.7"/>
	<linearGradient id="SVGID_65_" gradientUnits="userSpaceOnUse" x1="201.407" y1="137.4045" x2="202.7265" y2="137.4045">
		<stop  offset="0" style="stop-color:#004794"/>
		<stop  offset="1" style="stop-color:#001355"/>
	</linearGradient>
	<circle class="st56" cx="202.1" cy="137.4" r="0.7"/>
	<g>
		<linearGradient id="SVGID_66_" gradientUnits="userSpaceOnUse" x1="141.3367" y1="126.7876" x2="143.3367" y2="126.7876">
			<stop  offset="0" style="stop-color:#004794"/>
			<stop  offset="1" style="stop-color:#001355"/>
		</linearGradient>
		<line class="st57" x1="142.3" y1="120.1" x2="142.3" y2="133.5"/>
		<linearGradient id="SVGID_67_" gradientUnits="userSpaceOnUse" x1="137.9893" y1="105.6872" x2="146.684" y2="105.6872">
			<stop  offset="0" style="stop-color:#004794"/>
			<stop  offset="1" style="stop-color:#001355"/>
		</linearGradient>
		<circle class="st58" cx="142.3" cy="105.7" r="3.8"/>
		<linearGradient id="SVGID_68_" gradientUnits="userSpaceOnUse" x1="136.576" y1="114.8063" x2="148.0973" y2="114.8063">
			<stop  offset="0" style="stop-color:#004794"/>
			<stop  offset="1" style="stop-color:#001355"/>
		</linearGradient>
		<circle class="st59" cx="142.3" cy="114.8" r="5.3"/>
	</g>
	<g>
		<linearGradient id="SVGID_69_" gradientUnits="userSpaceOnUse" x1="213.7703" y1="126.7876" x2="215.7703" y2="126.7876">
			<stop  offset="0" style="stop-color:#004794"/>
			<stop  offset="1" style="stop-color:#001355"/>
		</linearGradient>
		<line class="st60" x1="214.8" y1="120.1" x2="214.8" y2="133.5"/>
		<linearGradient id="SVGID_70_" gradientUnits="userSpaceOnUse" x1="210.423" y1="105.6872" x2="219.1176" y2="105.6872">
			<stop  offset="0" style="stop-color:#004794"/>
			<stop  offset="1" style="stop-color:#001355"/>
		</linearGradient>
		<circle class="st61" cx="214.8" cy="105.7" r="3.8"/>
		<linearGradient id="SVGID_71_" gradientUnits="userSpaceOnUse" x1="209.0097" y1="114.8063" x2="220.5309" y2="114.8063">
			<stop  offset="0" style="stop-color:#004794"/>
			<stop  offset="1" style="stop-color:#001355"/>
		</linearGradient>
		<circle class="st62" cx="214.8" cy="114.8" r="5.3"/>
	</g>
	<linearGradient id="SVGID_72_" gradientUnits="userSpaceOnUse" x1="161.8124" y1="63.1635" x2="195.5908" y2="63.1635">
		<stop  offset="0" style="stop-color:#FFD297"/>
		<stop  offset="1" style="stop-color:#F89D89"/>
	</linearGradient>
	<linearGradient id="SVGID_73_" gradientUnits="userSpaceOnUse" x1="161.1237" y1="63.1635" x2="196.2796" y2="63.1635">
		<stop  offset="0" style="stop-color:#004794"/>
		<stop  offset="1" style="stop-color:#001355"/>
	</linearGradient>
	<polygon class="st63" points="192.2,68.4 165.2,68.4 161.8,57.9 195.6,57.9 	"/>
	<linearGradient id="SVGID_74_" gradientUnits="userSpaceOnUse" x1="168.8699" y1="70.6168" x2="170.8699" y2="70.6168">
		<stop  offset="0" style="stop-color:#004794"/>
		<stop  offset="1" style="stop-color:#001355"/>
	</linearGradient>
	<line class="st64" x1="169.9" y1="68.4" x2="169.9" y2="72.9"/>
	<linearGradient id="SVGID_75_" gradientUnits="userSpaceOnUse" x1="186.338" y1="70.6168" x2="188.338" y2="70.6168">
		<stop  offset="0" style="stop-color:#004794"/>
		<stop  offset="1" style="stop-color:#001355"/>
	</linearGradient>
	<line class="st65" x1="187.3" y1="68.4" x2="187.3" y2="72.9"/>
	<g>
		<linearGradient id="SVGID_76_" gradientUnits="userSpaceOnUse" x1="169.2196" y1="63.2626" x2="172.5709" y2="63.2626">
			<stop  offset="0" style="stop-color:#004794"/>
			<stop  offset="1" style="stop-color:#001355"/>
		</linearGradient>
		<path class="st66" d="M169.2,64l0.8-0.1c0,0.3,0.1,0.5,0.3,0.6c0.1,0.1,0.4,0.2,0.6,0.2c0.3,0,0.5-0.1,0.6-0.2
			c0.1-0.1,0.2-0.2,0.2-0.4c0-0.1,0-0.2-0.1-0.2c-0.1-0.1-0.2-0.1-0.3-0.2c-0.1,0-0.3-0.1-0.7-0.2c-0.4-0.1-0.8-0.2-0.9-0.4
			c-0.3-0.2-0.4-0.5-0.4-0.8c0-0.2,0.1-0.4,0.2-0.6c0.1-0.2,0.3-0.3,0.5-0.4c0.2-0.1,0.5-0.1,0.8-0.1c0.5,0,0.9,0.1,1.2,0.3
			c0.3,0.2,0.4,0.5,0.4,0.9l-0.8,0c0-0.2-0.1-0.4-0.2-0.5c-0.1-0.1-0.3-0.1-0.5-0.1c-0.2,0-0.4,0-0.6,0.1c-0.1,0.1-0.1,0.1-0.1,0.3
			c0,0.1,0,0.2,0.1,0.3c0.1,0.1,0.4,0.2,0.8,0.3c0.4,0.1,0.7,0.2,0.9,0.3c0.2,0.1,0.3,0.2,0.5,0.4c0.1,0.2,0.2,0.4,0.2,0.7
			c0,0.2-0.1,0.5-0.2,0.7c-0.1,0.2-0.3,0.4-0.6,0.5c-0.2,0.1-0.5,0.2-0.9,0.2c-0.5,0-0.9-0.1-1.2-0.4
			C169.4,64.8,169.3,64.4,169.2,64z"/>
		<linearGradient id="SVGID_77_" gradientUnits="userSpaceOnUse" x1="172.9757" y1="63.2612" x2="176.2511" y2="63.2612">
			<stop  offset="0" style="stop-color:#004794"/>
			<stop  offset="1" style="stop-color:#001355"/>
		</linearGradient>
		<path class="st67" d="M174.2,65.3v-3.4H173v-0.7h3.3v0.7H175v3.4H174.2z"/>
		<linearGradient id="SVGID_78_" gradientUnits="userSpaceOnUse" x1="176.5154" y1="63.2612" x2="180.5133" y2="63.2612">
			<stop  offset="0" style="stop-color:#004794"/>
			<stop  offset="1" style="stop-color:#001355"/>
		</linearGradient>
		<path class="st68" d="M176.5,63.3c0-0.4,0.1-0.8,0.2-1.1c0.1-0.2,0.2-0.4,0.4-0.6s0.3-0.3,0.5-0.4c0.3-0.1,0.6-0.2,0.9-0.2
			c0.6,0,1.1,0.2,1.5,0.6c0.4,0.4,0.5,0.9,0.5,1.6c0,0.7-0.2,1.2-0.5,1.6c-0.4,0.4-0.8,0.6-1.5,0.6c-0.6,0-1.1-0.2-1.5-0.6
			C176.7,64.5,176.5,63.9,176.5,63.3z M177.4,63.3c0,0.5,0.1,0.8,0.3,1.1s0.5,0.4,0.8,0.4s0.6-0.1,0.8-0.4s0.3-0.6,0.3-1.1
			c0-0.5-0.1-0.8-0.3-1.1s-0.5-0.3-0.8-0.3s-0.6,0.1-0.8,0.4C177.5,62.4,177.4,62.8,177.4,63.3z"/>
		<linearGradient id="SVGID_79_" gradientUnits="userSpaceOnUse" x1="181.1656" y1="63.2612" x2="184.8711" y2="63.2612">
			<stop  offset="0" style="stop-color:#004794"/>
			<stop  offset="1" style="stop-color:#001355"/>
		</linearGradient>
		<path class="st69" d="M181.2,65.3v-4.1h1.8c0.4,0,0.8,0,1,0.1c0.2,0.1,0.4,0.2,0.5,0.4c0.1,0.2,0.2,0.4,0.2,0.6
			c0,0.3-0.1,0.6-0.3,0.8s-0.5,0.3-0.8,0.4c0.2,0.1,0.3,0.2,0.4,0.3c0.1,0.1,0.3,0.3,0.5,0.7l0.5,0.8h-1l-0.6-0.9
			c-0.2-0.3-0.4-0.5-0.4-0.6c-0.1-0.1-0.2-0.1-0.3-0.2c-0.1,0-0.2,0-0.4,0H182v1.7H181.2z M182,62.9h0.6c0.4,0,0.6,0,0.7-0.1
			s0.2-0.1,0.2-0.2s0.1-0.2,0.1-0.3c0-0.1,0-0.3-0.1-0.3s-0.2-0.1-0.3-0.2c-0.1,0-0.3,0-0.6,0H182V62.9z"/>
		<linearGradient id="SVGID_80_" gradientUnits="userSpaceOnUse" x1="185.3209" y1="63.2612" x2="188.4557" y2="63.2612">
			<stop  offset="0" style="stop-color:#004794"/>
			<stop  offset="1" style="stop-color:#001355"/>
		</linearGradient>
		<path class="st70" d="M185.3,65.3v-4.1h3.1v0.7h-2.2v0.9h2.1v0.7h-2.1v1.1h2.3v0.7H185.3z"/>
	</g>
</g>
<g>
	<linearGradient id="SVGID_81_" gradientUnits="userSpaceOnUse" x1="63.4284" y1="61.133" x2="170.2795" y2="61.133">
		<stop  offset="0" style="stop-color:#FFD297"/>
		<stop  offset="1" style="stop-color:#F89D89"/>
	</linearGradient>
	<linearGradient id="SVGID_82_" gradientUnits="userSpaceOnUse" x1="62.9284" y1="61.133" x2="170.7795" y2="61.133">
		<stop  offset="0" style="stop-color:#004794"/>
		<stop  offset="1" style="stop-color:#001355"/>
	</linearGradient>
	<rect x="63.4" y="56" class="st71" width="106.9" height="10.3"/>
	<linearGradient id="SVGID_83_" gradientUnits="userSpaceOnUse" x1="66.3552" y1="52.1498" x2="167.6108" y2="52.1498">
		<stop  offset="0" style="stop-color:#FFD297"/>
		<stop  offset="1" style="stop-color:#F89D89"/>
	</linearGradient>
	<linearGradient id="SVGID_84_" gradientUnits="userSpaceOnUse" x1="65.8552" y1="52.1498" x2="168.1108" y2="52.1498">
		<stop  offset="0" style="stop-color:#004794"/>
		<stop  offset="1" style="stop-color:#001355"/>
	</linearGradient>
	<rect x="66.4" y="48.4" class="st72" width="101.3" height="7.6"/>
	<linearGradient id="SVGID_85_" gradientUnits="userSpaceOnUse" x1="69.3178" y1="110.8619" x2="163.9694" y2="110.8619">
		<stop  offset="0" style="stop-color:#FFD297"/>
		<stop  offset="1" style="stop-color:#F89D89"/>
	</linearGradient>
	<linearGradient id="SVGID_86_" gradientUnits="userSpaceOnUse" x1="68.8178" y1="110.8619" x2="164.4694" y2="110.8619">
		<stop  offset="0" style="stop-color:#004794"/>
		<stop  offset="1" style="stop-color:#001355"/>
	</linearGradient>
	<rect x="69.3" y="66.3" class="st73" width="94.7" height="89.2"/>
	<linearGradient id="SVGID_87_" gradientUnits="userSpaceOnUse" x1="104.2372" y1="131.2646" x2="131.319" y2="131.2646">
		<stop  offset="0" style="stop-color:#004794"/>
		<stop  offset="1" style="stop-color:#001355"/>
	</linearGradient>
	<rect x="104.7" y="107.1" class="st74" width="26.1" height="48.4"/>
	<linearGradient id="SVGID_88_" gradientUnits="userSpaceOnUse" x1="78.0726" y1="122.8511" x2="94.6376" y2="122.8511">
		<stop  offset="0" style="stop-color:#004794"/>
		<stop  offset="1" style="stop-color:#001355"/>
	</linearGradient>
	<rect x="78.6" y="110.9" class="st75" width="15.6" height="24"/>
	<linearGradient id="SVGID_89_" gradientUnits="userSpaceOnUse" x1="139.0703" y1="122.8511" x2="155.6353" y2="122.8511">
		<stop  offset="0" style="stop-color:#004794"/>
		<stop  offset="1" style="stop-color:#001355"/>
	</linearGradient>
	<rect x="139.6" y="110.9" class="st76" width="15.6" height="24"/>
	<g>
		<linearGradient id="SVGID_90_" gradientUnits="userSpaceOnUse" x1="70.4259" y1="74.896" x2="80.7505" y2="74.896">
			<stop  offset="0" style="stop-color:#004794"/>
			<stop  offset="1" style="stop-color:#001355"/>
		</linearGradient>
		<path class="st77" d="M80.4,66.5v11.6c0,2.6-2.2,4.8-4.8,4.8h0c-2.6,0-4.8-2.2-4.8-4.8V66.5"/>
		<linearGradient id="SVGID_91_" gradientUnits="userSpaceOnUse" x1="80.6482" y1="74.9324" x2="90.9727" y2="74.9324">
			<stop  offset="0" style="stop-color:#004794"/>
			<stop  offset="1" style="stop-color:#001355"/>
		</linearGradient>
		<path class="st78" d="M90.6,66.5v11.6c0,2.6-2.2,4.8-4.8,4.8h0c-2.6,0-4.8-2.2-4.8-4.8V66.5"/>
		<linearGradient id="SVGID_92_" gradientUnits="userSpaceOnUse" x1="90.9066" y1="74.9324" x2="101.2311" y2="74.9324">
			<stop  offset="0" style="stop-color:#004794"/>
			<stop  offset="1" style="stop-color:#001355"/>
		</linearGradient>
		<path class="st79" d="M100.9,66.5v11.6c0,2.6-2.2,4.8-4.8,4.8h0c-2.6,0-4.8-2.2-4.8-4.8V66.5"/>
		<g>
			<linearGradient id="SVGID_93_" gradientUnits="userSpaceOnUse" x1="101.122" y1="74.9578" x2="111.4465" y2="74.9578">
				<stop  offset="0" style="stop-color:#004794"/>
				<stop  offset="1" style="stop-color:#001355"/>
			</linearGradient>
			<path class="st80" d="M111.1,66.6v11.6c0,2.6-2.2,4.8-4.8,4.8h0c-2.6,0-4.8-2.2-4.8-4.8V66.6"/>
			<linearGradient id="SVGID_94_" gradientUnits="userSpaceOnUse" x1="111.3442" y1="74.9941" x2="121.6688" y2="74.9941">
				<stop  offset="0" style="stop-color:#004794"/>
				<stop  offset="1" style="stop-color:#001355"/>
			</linearGradient>
			<path class="st81" d="M121.3,66.6v11.6c0,2.6-2.2,4.8-4.8,4.8h0c-2.6,0-4.8-2.2-4.8-4.8V66.6"/>
			<linearGradient id="SVGID_95_" gradientUnits="userSpaceOnUse" x1="121.6027" y1="74.9941" x2="131.9272" y2="74.9941">
				<stop  offset="0" style="stop-color:#004794"/>
				<stop  offset="1" style="stop-color:#001355"/>
			</linearGradient>
			<path class="st82" d="M131.6,66.6v11.6c0,2.6-2.2,4.8-4.8,4.8h0c-2.6,0-4.8-2.2-4.8-4.8V66.6"/>
		</g>
		<g>
			<linearGradient id="SVGID_96_" gradientUnits="userSpaceOnUse" x1="131.7513" y1="74.9578" x2="142.0759" y2="74.9578">
				<stop  offset="0" style="stop-color:#004794"/>
				<stop  offset="1" style="stop-color:#001355"/>
			</linearGradient>
			<path class="st83" d="M141.7,66.6v11.6c0,2.6-2.2,4.8-4.8,4.8l0,0c-2.6,0-4.8-2.2-4.8-4.8V66.6"/>
			<linearGradient id="SVGID_97_" gradientUnits="userSpaceOnUse" x1="141.9736" y1="74.9941" x2="152.2981" y2="74.9941">
				<stop  offset="0" style="stop-color:#004794"/>
				<stop  offset="1" style="stop-color:#001355"/>
			</linearGradient>
			<path class="st84" d="M151.9,66.6v11.6c0,2.6-2.2,4.8-4.8,4.8l0,0c-2.6,0-4.8-2.2-4.8-4.8V66.6"/>
			<linearGradient id="SVGID_98_" gradientUnits="userSpaceOnUse" x1="152.232" y1="74.9941" x2="162.5565" y2="74.9941">
				<stop  offset="0" style="stop-color:#004794"/>
				<stop  offset="1" style="stop-color:#001355"/>
			</linearGradient>
			<path class="st85" d="M162.2,66.6v11.6c0,2.6-2.2,4.8-4.8,4.8h0c-2.6,0-4.8-2.2-4.8-4.8V66.6"/>
		</g>
	</g>
	<linearGradient id="SVGID_99_" gradientUnits="userSpaceOnUse" x1="36.3988" y1="8.297" x2="74.6468" y2="8.297">
		<stop  offset="0" style="stop-color:#FFD297"/>
		<stop  offset="1" style="stop-color:#F89D89"/>
	</linearGradient>
	<linearGradient id="SVGID_100_" gradientUnits="userSpaceOnUse" x1="35.8988" y1="8.297" x2="75.1468" y2="8.297">
		<stop  offset="0" style="stop-color:#004794"/>
		<stop  offset="1" style="stop-color:#001355"/>
	</linearGradient>
	<path class="st86" d="M72.7,8H62.2c0.4-0.4,0.6-0.8,0.6-1.4c0-1.1-0.9-1.9-1.9-1.9H38.3c-1.1,0-1.9,0.9-1.9,1.9s0.9,1.9,1.9,1.9
		h10.5c-0.4,0.4-0.6,0.8-0.6,1.4c0,1.1,0.9,1.9,1.9,1.9h22.5c1.1,0,1.9-0.9,1.9-1.9S73.8,8,72.7,8z"/>
	<linearGradient id="SVGID_101_" gradientUnits="userSpaceOnUse" x1="147.9492" y1="5.9353" x2="205.7918" y2="5.9353">
		<stop  offset="0" style="stop-color:#FFD297"/>
		<stop  offset="1" style="stop-color:#F89D89"/>
	</linearGradient>
	<linearGradient id="SVGID_102_" gradientUnits="userSpaceOnUse" x1="147.4492" y1="5.9353" x2="206.2918" y2="5.9353">
		<stop  offset="0" style="stop-color:#004794"/>
		<stop  offset="1" style="stop-color:#001355"/>
	</linearGradient>
	<path class="st87" d="M202.8,5.5H187c0.5-0.5,0.9-1.3,0.9-2.1c0-1.6-1.3-2.9-2.9-2.9h-34.1c-1.6,0-2.9,1.3-2.9,2.9s1.3,2.9,2.9,2.9
		h15.8c-0.5,0.5-0.9,1.3-0.9,2.1c0,1.6,1.3,2.9,2.9,2.9h34.1c1.6,0,2.9-1.3,2.9-2.9S204.5,5.5,202.8,5.5z"/>
	<g>
		<linearGradient id="SVGID_103_" gradientUnits="userSpaceOnUse" x1="54.5228" y1="163.8668" x2="62.272" y2="163.8668">
			<stop  offset="0" style="stop-color:#004794"/>
			<stop  offset="1" style="stop-color:#001355"/>
		</linearGradient>
		<line class="st88" x1="55.5" y1="163.9" x2="61.3" y2="163.9"/>
		<linearGradient id="SVGID_104_" gradientUnits="userSpaceOnUse" x1="65.3552" y1="163.8668" x2="109.5277" y2="163.8668">
			<stop  offset="0" style="stop-color:#004794"/>
			<stop  offset="1" style="stop-color:#001355"/>
		</linearGradient>
		<line class="st89" x1="66.4" y1="163.9" x2="108.5" y2="163.9"/>
	</g>
	<g>
		<linearGradient id="SVGID_105_" gradientUnits="userSpaceOnUse" x1="128.6442" y1="172.2803" x2="136.3934" y2="172.2803">
			<stop  offset="0" style="stop-color:#004794"/>
			<stop  offset="1" style="stop-color:#001355"/>
		</linearGradient>
		<line class="st90" x1="129.6" y1="172.3" x2="135.4" y2="172.3"/>
		<linearGradient id="SVGID_106_" gradientUnits="userSpaceOnUse" x1="139.4765" y1="172.2803" x2="183.6491" y2="172.2803">
			<stop  offset="0" style="stop-color:#004794"/>
			<stop  offset="1" style="stop-color:#001355"/>
		</linearGradient>
		<line class="st91" x1="140.5" y1="172.3" x2="182.6" y2="172.3"/>
	</g>
	<linearGradient id="SVGID_107_" gradientUnits="userSpaceOnUse" x1="112.2265" y1="168.3891" x2="114.5402" y2="168.3891">
		<stop  offset="0" style="stop-color:#004794"/>
		<stop  offset="1" style="stop-color:#001355"/>
	</linearGradient>
	<circle class="st92" cx="113.4" cy="168.4" r="1.2"/>
	<linearGradient id="SVGID_108_" gradientUnits="userSpaceOnUse" x1="156.7956" y1="161.5531" x2="159.1093" y2="161.5531">
		<stop  offset="0" style="stop-color:#004794"/>
		<stop  offset="1" style="stop-color:#001355"/>
	</linearGradient>
	<circle class="st93" cx="158" cy="161.6" r="1.2"/>
	<g>
		<linearGradient id="SVGID_109_" gradientUnits="userSpaceOnUse" x1="53.2189" y1="131.1525" x2="53.2189" y2="131.1525">
			<stop  offset="0" style="stop-color:#004794"/>
			<stop  offset="1" style="stop-color:#001355"/>
		</linearGradient>
		<path class="st94" d="M53.2,131.2"/>
	</g>
	<linearGradient id="SVGID_110_" gradientUnits="userSpaceOnUse" x1="87.3687" y1="31.3753" x2="146.5973" y2="31.3753">
		<stop  offset="0" style="stop-color:#FFD297"/>
		<stop  offset="1" style="stop-color:#F89D89"/>
	</linearGradient>
	<linearGradient id="SVGID_111_" gradientUnits="userSpaceOnUse" x1="86.6799" y1="31.3753" x2="147.2861" y2="31.3753">
		<stop  offset="0" style="stop-color:#004794"/>
		<stop  offset="1" style="stop-color:#001355"/>
	</linearGradient>
	<polygon class="st95" points="140.6,40.5 93.3,40.5 87.4,22.2 146.6,22.2 	"/>
	<linearGradient id="SVGID_112_" gradientUnits="userSpaceOnUse" x1="100.497" y1="44.4443" x2="102.497" y2="44.4443">
		<stop  offset="0" style="stop-color:#004794"/>
		<stop  offset="1" style="stop-color:#001355"/>
	</linearGradient>
	<line class="st96" x1="101.5" y1="40.5" x2="101.5" y2="48.4"/>
	<linearGradient id="SVGID_113_" gradientUnits="userSpaceOnUse" x1="131.1263" y1="44.4443" x2="133.1263" y2="44.4443">
		<stop  offset="0" style="stop-color:#004794"/>
		<stop  offset="1" style="stop-color:#001355"/>
	</linearGradient>
	<line class="st97" x1="132.1" y1="40.5" x2="132.1" y2="48.4"/>
	<g>
		<linearGradient id="SVGID_114_" gradientUnits="userSpaceOnUse" x1="100.3567" y1="31.5492" x2="106.233" y2="31.5492">
			<stop  offset="0" style="stop-color:#004794"/>
			<stop  offset="1" style="stop-color:#001355"/>
		</linearGradient>
		<path class="st98" d="M100.4,32.8l1.4-0.1c0.1,0.5,0.3,0.8,0.5,1.1s0.6,0.3,1.1,0.3c0.5,0,0.8-0.1,1.1-0.3
			c0.2-0.2,0.4-0.4,0.4-0.7c0-0.2-0.1-0.3-0.2-0.4c-0.1-0.1-0.3-0.2-0.5-0.3c-0.2-0.1-0.6-0.2-1.2-0.3c-0.8-0.2-1.3-0.4-1.6-0.7
			c-0.4-0.4-0.7-0.9-0.7-1.5c0-0.4,0.1-0.7,0.3-1s0.5-0.6,0.9-0.7s0.9-0.3,1.4-0.3c0.9,0,1.6,0.2,2,0.6c0.5,0.4,0.7,0.9,0.7,1.6
			l-1.5,0.1c-0.1-0.4-0.2-0.6-0.4-0.8c-0.2-0.2-0.5-0.2-0.9-0.2c-0.4,0-0.8,0.1-1,0.3c-0.2,0.1-0.2,0.3-0.2,0.4
			c0,0.2,0.1,0.3,0.2,0.4c0.2,0.2,0.6,0.3,1.3,0.5s1.2,0.3,1.6,0.5c0.3,0.2,0.6,0.4,0.8,0.7c0.2,0.3,0.3,0.7,0.3,1.2
			c0,0.4-0.1,0.8-0.3,1.2c-0.2,0.4-0.6,0.6-1,0.8c-0.4,0.2-0.9,0.3-1.6,0.3c-0.9,0-1.6-0.2-2.1-0.6
			C100.7,34.2,100.5,33.6,100.4,32.8z"/>
		<linearGradient id="SVGID_115_" gradientUnits="userSpaceOnUse" x1="106.9429" y1="31.5467" x2="112.6861" y2="31.5467">
			<stop  offset="0" style="stop-color:#004794"/>
			<stop  offset="1" style="stop-color:#001355"/>
		</linearGradient>
		<path class="st99" d="M109.1,35.2v-6h-2.1v-1.2h5.7v1.2h-2.1v6H109.1z"/>
		<linearGradient id="SVGID_116_" gradientUnits="userSpaceOnUse" x1="113.1495" y1="31.5467" x2="120.1596" y2="31.5467">
			<stop  offset="0" style="stop-color:#004794"/>
			<stop  offset="1" style="stop-color:#001355"/>
		</linearGradient>
		<path class="st100" d="M113.1,31.6c0-0.7,0.1-1.4,0.3-1.9c0.2-0.4,0.4-0.7,0.7-1c0.3-0.3,0.6-0.5,0.9-0.7c0.5-0.2,1-0.3,1.6-0.3
			c1.1,0,1.9,0.3,2.6,1s1,1.6,1,2.8c0,1.2-0.3,2.1-1,2.7c-0.6,0.7-1.5,1-2.5,1c-1.1,0-1.9-0.3-2.6-1
			C113.5,33.6,113.1,32.7,113.1,31.6z M114.7,31.5c0,0.8,0.2,1.4,0.6,1.9c0.4,0.4,0.9,0.6,1.4,0.6c0.6,0,1.1-0.2,1.4-0.6
			c0.4-0.4,0.6-1,0.6-1.9c0-0.8-0.2-1.4-0.5-1.9s-0.8-0.6-1.4-0.6s-1.1,0.2-1.5,0.6C114.8,30.1,114.7,30.7,114.7,31.5z"/>
		<linearGradient id="SVGID_117_" gradientUnits="userSpaceOnUse" x1="121.3033" y1="31.5467" x2="127.8008" y2="31.5467">
			<stop  offset="0" style="stop-color:#004794"/>
			<stop  offset="1" style="stop-color:#001355"/>
		</linearGradient>
		<path class="st101" d="M121.3,35.2v-7.2h3.1c0.8,0,1.3,0.1,1.7,0.2c0.4,0.1,0.6,0.4,0.8,0.7c0.2,0.3,0.3,0.7,0.3,1.1
			c0,0.5-0.2,1-0.5,1.3c-0.3,0.4-0.8,0.6-1.4,0.7c0.3,0.2,0.6,0.4,0.8,0.6s0.5,0.6,0.8,1.2l0.9,1.4h-1.7l-1.1-1.6
			c-0.4-0.6-0.6-0.9-0.8-1.1c-0.1-0.1-0.3-0.2-0.4-0.3c-0.2-0.1-0.4-0.1-0.7-0.1h-0.3v3H121.3z M122.8,31h1.1c0.7,0,1.1,0,1.3-0.1
			c0.2-0.1,0.3-0.2,0.4-0.3c0.1-0.1,0.1-0.3,0.1-0.5c0-0.2-0.1-0.4-0.2-0.6c-0.1-0.1-0.3-0.2-0.5-0.3c-0.1,0-0.5,0-1.1,0h-1.1V31z"
			/>
		<linearGradient id="SVGID_118_" gradientUnits="userSpaceOnUse" x1="128.5895" y1="31.5467" x2="134.0862" y2="31.5467">
			<stop  offset="0" style="stop-color:#004794"/>
			<stop  offset="1" style="stop-color:#001355"/>
		</linearGradient>
		<path class="st102" d="M128.6,35.2v-7.2h5.4v1.2H130v1.6h3.6V32H130v2h4v1.2H128.6z"/>
	</g>
</g>
</svg>
