<?xml version="1.0" encoding="utf-8"?>
<!-- Generator: Adobe Illustrator 21.0.2, SVG Export Plug-In . SVG Version: 6.00 Build 0)  -->
<svg version="1.1" id="Layer_1" xmlns="http://www.w3.org/2000/svg" xmlns:xlink="http://www.w3.org/1999/xlink" x="0px" y="0px"
	 viewBox="0 0 419.3 213.2" style="enable-background:new 0 0 419.3 213.2;" xml:space="preserve">
<style type="text/css">
	.st0{opacity:0.1;fill:#FF6600;}
	.st1{fill-rule:evenodd;clip-rule:evenodd;fill:#58453F;}
	.st2{fill-rule:evenodd;clip-rule:evenodd;fill:#DD9E73;}
	.st3{fill-rule:evenodd;clip-rule:evenodd;fill:url(#SVGID_1_);}
	.st4{fill-rule:evenodd;clip-rule:evenodd;fill:#1E5177;}
	.st5{fill-rule:evenodd;clip-rule:evenodd;fill:url(#SVGID_2_);}
	.st6{fill-rule:evenodd;clip-rule:evenodd;fill:#4D4D4D;}
	.st7{fill-rule:evenodd;clip-rule:evenodd;fill:url(#SVGID_3_);}
	.st8{fill-rule:evenodd;clip-rule:evenodd;fill:#594A42;}
	.st9{fill-rule:evenodd;clip-rule:evenodd;fill:url(#SVGID_4_);}
	.st10{fill-rule:evenodd;clip-rule:evenodd;fill:url(#SVGID_5_);}
	.st11{fill-rule:evenodd;clip-rule:evenodd;fill:url(#SVGID_6_);}
	.st12{fill-rule:evenodd;clip-rule:evenodd;fill:url(#SVGID_7_);}
	.st13{fill-rule:evenodd;clip-rule:evenodd;fill:url(#SVGID_8_);}
	.st14{fill-rule:evenodd;clip-rule:evenodd;fill:url(#SVGID_9_);}
	.st15{fill-rule:evenodd;clip-rule:evenodd;fill:url(#SVGID_10_);}
	.st16{fill-rule:evenodd;clip-rule:evenodd;fill:url(#SVGID_11_);}
	.st17{fill-rule:evenodd;clip-rule:evenodd;fill:url(#SVGID_12_);}
	.st18{fill-rule:evenodd;clip-rule:evenodd;fill:url(#SVGID_13_);}
	.st19{fill-rule:evenodd;clip-rule:evenodd;fill:#AB612F;}
	.st20{fill-rule:evenodd;clip-rule:evenodd;fill:url(#SVGID_14_);}
	.st21{fill-rule:evenodd;clip-rule:evenodd;fill:#996250;}
	.st22{fill-rule:evenodd;clip-rule:evenodd;fill:url(#SVGID_15_);}
	.st23{fill-rule:evenodd;clip-rule:evenodd;fill:#F1A932;}
	.st24{fill-rule:evenodd;clip-rule:evenodd;fill:url(#SVGID_16_);}
	.st25{fill-rule:evenodd;clip-rule:evenodd;fill:url(#SVGID_17_);}
	.st26{fill-rule:evenodd;clip-rule:evenodd;fill:url(#SVGID_18_);}
	.st27{fill-rule:evenodd;clip-rule:evenodd;fill:url(#SVGID_19_);}
	.st28{fill-rule:evenodd;clip-rule:evenodd;fill:url(#SVGID_20_);}
	.st29{fill:#FFDECC;}
	.st30{fill:#DD9E73;}
	.st31{fill-rule:evenodd;clip-rule:evenodd;fill:url(#SVGID_21_);}
	.st32{fill-rule:evenodd;clip-rule:evenodd;fill:url(#SVGID_22_);}
	.st33{fill-rule:evenodd;clip-rule:evenodd;fill:#E05530;}
	.st34{fill-rule:evenodd;clip-rule:evenodd;fill:url(#SVGID_23_);}
	.st35{fill-rule:evenodd;clip-rule:evenodd;fill:url(#SVGID_24_);}
	.st36{fill-rule:evenodd;clip-rule:evenodd;fill:url(#SVGID_25_);}
	.st37{fill-rule:evenodd;clip-rule:evenodd;fill:url(#SVGID_26_);}
	.st38{fill-rule:evenodd;clip-rule:evenodd;fill:url(#SVGID_27_);}
	.st39{fill-rule:evenodd;clip-rule:evenodd;fill:url(#SVGID_28_);}
	.st40{fill-rule:evenodd;clip-rule:evenodd;fill:url(#SVGID_29_);}
	.st41{fill-rule:evenodd;clip-rule:evenodd;fill:url(#SVGID_30_);}
	.st42{fill:#EA8E7F;}
	.st43{fill:#2EA32B;}
	.st44{fill:none;stroke:#2EA32B;stroke-width:0.25;stroke-linecap:round;stroke-miterlimit:10;}
	.st45{fill:#F89D89;}
	.st46{fill:url(#SVGID_31_);}
	.st47{fill:url(#SVGID_32_);}
	.st48{fill:#16405E;}
	.st49{fill:#089A8B;}
	.st50{fill:#E2E3E4;}
	.st51{fill:#D4811A;}
	.st52{fill:#BD365B;}
	.st53{fill:#E6E7E8;}
	.st54{fill:url(#SVGID_33_);}
	.st55{clip-path:url(#SVGID_35_);}
	.st56{fill:#E05530;}
	.st57{clip-path:url(#SVGID_37_);}
</style>
<g>
	<!-- <ellipse class="st0" cx="214.9" cy="180.2" rx="150.3" ry="33"/> -->
	<ellipse  class="st0" cx="214.9" cy="175.2" rx="151.3" ry="25"/>
	<g>
		<path class="st1" d="M198.8,81.7c-0.7-0.9-0.2-1.8,0.8-2.4c0-1.1-1.2-1-0.7-3c0.2-0.9-0.4-3.1-0.2-4.8c0.3-2.4,0.8-2.1,1.1-4.4
			c0.2-1.4,0.1-2.6,1.7-5.5c1-1.9,1.7-1.5,2.2-2.3c1.5-2.6,3.5-2.9,5.9-3.2c4.4,0.7,8.3-0.7,9.4,2.2c1.1,3.1,2.1,3.6,3.1,5.2
			c1.5,2.3,1.5,2.3,1.6,5c0.1,2.7,0.9,1.8,1.3,4.1c0.4,2.1-0.1,2.7-0.1,3.3c0.1,1.8,0.1,1.8-0.3,3c0.7,1.5,0.6,1.7,0.2,3
			C222.8,88.1,204.4,89.2,198.8,81.7z"/>
		<path class="st2" d="M155,89.3c-5-1.4-9.5,2.2-9.8,2.5c0,0,0,0,0,0c0.7-1.1,2.1-3.9,1.2-4.5c-0.7-0.4-1.7,1.1-2.5,2.5
			c-0.2,0.4-0.5,0.8-0.9,1.4c-1.1,1.8-2.9,2.9-4.3,3.5c-2.4,1.6-0.2,4.5,1.4,3.7c1.3-0.6,3.6-1.2,5.4-1.9
			C150.9,95.4,159.1,90.5,155,89.3z"/>
		<path class="st2" d="M126.2,67.8c0,2-0.5,4.1-1,5.1c-0.5,0.9-2.6,11.4-4.8,10.2c-1.4-0.7-4.1-1.7-5.1-0.4c-1,1.3-4,9.1-3.8,10.1
			c0,0-6.4-9.7-5.1-11.9c1.3-2.2,1.7-6.7,1.1-8.6c-0.6-1.9-1.2-9.8,3.6-11.9C115.8,58.3,126.1,59.9,126.2,67.8z"/>
		<linearGradient id="SVGID_1_" gradientUnits="userSpaceOnUse" x1="96.6341" y1="104.4418" x2="119.5329" y2="104.4418">
			<stop  offset="0" style="stop-color:#D1D1D1"/>
			<stop  offset="1" style="stop-color:#FFFFFF"/>
		</linearGradient>
		<path class="st3" d="M107.6,77.7c-14.3,18.2-11.6,38-8.3,47.8c3.3,9.8,16.8,6,15.4-5.6c-1.4-11.6-0.9-22.9-0.4-27.5
			c0.1-0.7-0.1-1.5-0.4-2.3C111.6,88.5,108.4,83.4,107.6,77.7z"/>
		<path class="st4" d="M121.9,171.1c-1.7,5.7-0.7,8.5,1.5,8.5h12.8c1.4,0,2-2.7-0.6-3.4c-2.6-0.7-7.5-2.9-9.2-5.3
			C124.7,168.5,121.2,167.4,121.9,171.1z"/>
		<path class="st4" d="M157.6,174.3c1.2,3.8,1.4,5.3,3.6,5.3h12.3c1.3,0,1.6-3-0.3-3.7c-1.9-0.7-9-2.6-10.7-5
			C160.9,168.5,156.9,170.6,157.6,174.3z"/>
		<linearGradient id="SVGID_2_" gradientUnits="userSpaceOnUse" x1="118.4179" y1="99.5661" x2="142.021" y2="99.5661">
			<stop  offset="0" style="stop-color:#D1D1D1"/>
			<stop  offset="1" style="stop-color:#FFFFFF"/>
		</linearGradient>
		<path class="st5" d="M118.4,103.1c-0.7-3.3,17.8-8.8,21.4-9.7l2.2,4.9C138.2,101,120,110.2,118.4,103.1z"/>
		<path class="st6" d="M133.8,173.3h-16.5v-11.7v-22.5h-3.8v22.5v11.7H98.1v2.1h0.3c-0.2,0.3-0.3,0.6-0.3,1v1.4c0,1,0.9,1.9,1.9,1.9
			h0c1,0,1.9-0.9,1.9-1.9v-1.4c0-0.4-0.1-0.7-0.3-1h12.1c-0.2,0.3-0.3,0.6-0.3,1v1.4c0,1,0.9,1.9,1.9,1.9h0c1,0,1.9-0.9,1.9-1.9
			v-1.4c0-0.4-0.1-0.7-0.3-1h13.3c-0.2,0.3-0.3,0.6-0.3,1v1.4c0,1,0.9,1.9,1.9,1.9h0c1,0,1.9-0.9,1.9-1.9v-1.4c0-0.4-0.1-0.7-0.3-1
			h0.3V173.3z"/>
		<linearGradient id="SVGID_3_" gradientUnits="userSpaceOnUse" x1="89.4926" y1="121.3095" x2="135.0711" y2="121.3095">
			<stop  offset="0" style="stop-color:#FFD297"/>
			<stop  offset="1" style="stop-color:#F89D89"/>
		</linearGradient>
		<path class="st7" d="M132.7,135.6H99.9l-5.6-31.8c-0.2-1.3-1.5-2.2-2.8-1.9c-1.3,0.2-2.2,1.5-1.9,2.8l6,34
			c0.2,1.3,1.5,2.2,2.8,1.9c0.3,0,0.5-0.1,0.7-0.3h33.7c1.3,0,2.4-1.1,2.4-2.4C135.1,136.7,134,135.6,132.7,135.6z"/>
		<path class="st2" d="M145.1,102.4c0,0,5.5-3,12.5,1s-13.6,2-13.6,2S143.4,103,145.1,102.4z"/>
		<path class="st8" d="M123.5,61.7c1.3,1.3,3.5,3.1,4.3,2.9c0.8-0.2,0.9,0.6-0.6,1.7c-1.5,1.1-3.5-0.8-5.7,0.2
			c-2.1,1-2.4,3.7-3.2,6.2c-0.8,2.5,0.1-3.1-1.3-3.5c-1.4-0.4-3.2,0.1-3.3,2.9c-0.1,2.9-4.8,5.1-6.3,4.9c0.9-2.2-0.3-3.2-0.7-5.9
			c-0.5-4.2,0.1-8.4,2.9-10.2C112.5,59,119.4,57.8,123.5,61.7z"/>
		<linearGradient id="SVGID_4_" gradientUnits="userSpaceOnUse" x1="98.4868" y1="147.2652" x2="163.5757" y2="147.2652">
			<stop  offset="0" style="stop-color:#001355"/>
			<stop  offset="1" style="stop-color:#004794"/>
		</linearGradient>
		<path class="st9" d="M163.6,170.9c-3-6.3-17.7-40.2-21.1-41.5c0,0,0,0,0,0c-0.3-0.3-0.7-0.6-1.2-0.8c-6.1-3.1-26.7-8.9-26.8-9
			c-4.9,2.6-10.1,4.1-16,3.1c0.7,4.5,2.8,10.9,11,12.3c5.4,0.9,13.4,1.4,19.2,1.8c-3.7,11.1-7,30.3-7.7,33.2l7.6,2.7
			c1.4-3.8,6.5-17,10-27.2c5.7,10.9,16.9,26.8,18.5,29.4L163.6,170.9z"/>
		<linearGradient id="SVGID_5_" gradientUnits="userSpaceOnUse" x1="105.2628" y1="98.0189" x2="145.9827" y2="98.0189">
			<stop  offset="0" style="stop-color:#D1D1D1"/>
			<stop  offset="1" style="stop-color:#FFFFFF"/>
		</linearGradient>
		<path class="st10" d="M146,106.5l-1.1-5.2c-2.4,0-11.6,0.6-17.6,1.9c-1.7-1.8-4.2-3.8-6.8-6c-2.6-2.1-5.7-6-8.1-8.4
			c-6.9-6.9-8.7,2.1-5.9,6.3c2.7,4,11.8,10.1,14.5,12.1c2,1.5,3.8,2.6,5.5,2.5C132.5,110.5,143,107.7,146,106.5z"/>
		<linearGradient id="SVGID_6_" gradientUnits="userSpaceOnUse" x1="140.5763" y1="108.7874" x2="168.5465" y2="108.7874">
			<stop  offset="0" style="stop-color:#F89D89"/>
			<stop  offset="1" style="stop-color:#FFD297"/>
		</linearGradient>
		<path class="st11" d="M140.6,107.8h28v1c0,0.6-0.5,1-1,1h-25.9c-0.6,0-1-0.5-1-1V107.8z"/>
		<linearGradient id="SVGID_7_" gradientUnits="userSpaceOnUse" x1="140.5763" y1="108.0887" x2="168.5465" y2="108.0887">
			<stop  offset="0" style="stop-color:#FFD297"/>
			<stop  offset="1" style="stop-color:#F89D89"/>
		</linearGradient>
		<rect x="140.6" y="107.8" class="st12" width="28" height="0.6"/>
		<linearGradient id="SVGID_8_" gradientUnits="userSpaceOnUse" x1="168.5465" y1="94.2583" x2="176.4148" y2="94.2583">
			<stop  offset="0" style="stop-color:#FFD297"/>
			<stop  offset="1" style="stop-color:#F89D89"/>
		</linearGradient>
		<path class="st13" d="M175.3,80.6l0.4,0.1c0.5,0.1,0.9,0.7,0.7,1.2l-6.2,25.2c-0.1,0.5-0.7,0.9-1.2,0.7l-0.4-0.1L175.3,80.6z"/>
		<linearGradient id="SVGID_9_" gradientUnits="userSpaceOnUse" x1="168.5465" y1="94.2435" x2="175.6439" y2="94.2435">
			<stop  offset="0" style="stop-color:#D1D1D1"/>
			<stop  offset="1" style="stop-color:#FFFFFF"/>
		</linearGradient>
		<polygon class="st14" points="168.5,107.8 175.3,80.6 175.6,80.7 168.9,107.9 		"/>
		<linearGradient id="SVGID_10_" gradientUnits="userSpaceOnUse" x1="156.8982" y1="109.0368" x2="163.7198" y2="109.0368">
			<stop  offset="0" style="stop-color:#D1D1D1"/>
			<stop  offset="1" style="stop-color:#FFFFFF"/>
		</linearGradient>
		<rect x="156.9" y="108.9" class="st15" width="6.8" height="0.4"/>
		<linearGradient id="SVGID_11_" gradientUnits="userSpaceOnUse" x1="164.7902" y1="109.0368" x2="166.2584" y2="109.0368">
			<stop  offset="0" style="stop-color:#D1D1D1"/>
			<stop  offset="1" style="stop-color:#FFFFFF"/>
		</linearGradient>
		<rect x="164.8" y="108.9" class="st16" width="1.5" height="0.4"/>
		<linearGradient id="SVGID_12_" gradientUnits="userSpaceOnUse" x1="154.635" y1="109.0368" x2="156.1036" y2="109.0368">
			<stop  offset="0" style="stop-color:#D1D1D1"/>
			<stop  offset="1" style="stop-color:#FFFFFF"/>
		</linearGradient>
		<rect x="154.6" y="108.9" class="st17" width="1.5" height="0.4"/>
		<path class="st2" d="M305.7,67.7c0,2,0.5,4.1,1,5.1c0.5,0.9,2.6,11.4,4.8,10.2c1.4-0.7,4.1-1.7,5.1-0.4c1,1.3,3.8,7.7,3.6,8.7
			c0,0,6.2-7.8,5.2-10.2c-0.9-2.3-1.6-7-1-8.9c0.6-1.9,1.2-9.8-3.6-11.9C316,58.2,305.8,59.8,305.7,67.7z"/>
		<linearGradient id="SVGID_13_" gradientUnits="userSpaceOnUse" x1="317.2455" y1="105.023" x2="335.5231" y2="105.023">
			<stop  offset="0" style="stop-color:#1E5177"/>
			<stop  offset="0.462" style="stop-color:#84A0B5"/>
			<stop  offset="1" style="stop-color:#FFFFFF"/>
		</linearGradient>
		<path class="st18" d="M324.9,78.8c14.3,18.2,11.2,36.9,7.8,46.7c-3.3,9.8-15.6,6.2-14.2-5.4c1.4-11.6-1.2-21.8-1.3-27.2
			c0-2,1.6-4.6,1-6.7C321.4,84.8,323.8,81.2,324.9,78.8z"/>
		<path class="st19" d="M294,171.1c1.7,5.7-0.4,8.4-2.6,8.4l-13.2,0.1c-0.9,0-2.1-2.7,0.5-3.4c2.6-0.7,9.1-2.7,10.3-5.9
			C290.4,167.1,294.7,167.4,294,171.1z"/>
		<path class="st2" d="M294.6,99c-3.5-3.1-7.6-5.7-10.3-5.9c-2.7-0.2-4.3,0.1-5.3,1c-2.6,2.3,0.4,3.8,2.1,3.3
			c1.5-0.4,2.4-0.9,3.8-0.8c1.9,0.2,5.3,2.7,7.4,4.3C294.3,102.4,296.2,100.1,294.6,99z"/>
		<linearGradient id="SVGID_14_" gradientUnits="userSpaceOnUse" x1="287.3849" y1="101.6103" x2="310.3751" y2="101.6103">
			<stop  offset="0" style="stop-color:#FFFFFF"/>
			<stop  offset="0.538" style="stop-color:#84A0B5"/>
			<stop  offset="1" style="stop-color:#1E5177"/>
		</linearGradient>
		<path class="st20" d="M310.3,106.4c1.1-3.2-16.8-10.7-20.2-11.9l-2.7,4.6C290.9,102.3,308.1,113.3,310.3,106.4z"/>
		<path class="st2" d="M292.7,103.9c-4.4-1.8-9-2.9-11.7-2.3c-2.6,0.6-4.1,1.5-4.7,2.6c-1.4,2.8,1.8,4.3,3,3
			c1.2-1.3,1.6-1.8,3.5-1.9c1.9,0,5.8,0.2,8.2,1C293.5,107.2,294.6,104.4,292.7,103.9z"/>
		<path class="st6" d="M333.9,173.3h-15.4v-11.7v-22.5h-3.8v22.5v11.7h-16.5v2.1h0.3c-0.2,0.3-0.3,0.6-0.3,1v1.4
			c0,1,0.9,1.9,1.9,1.9h0c1,0,1.9-0.9,1.9-1.9v-1.4c0-0.4-0.1-0.7-0.3-1H315c-0.2,0.3-0.3,0.6-0.3,1v1.4c0,1,0.9,1.9,1.9,1.9h0
			c1,0,1.9-0.9,1.9-1.9v-1.4c0-0.4-0.1-0.7-0.3-1h12.1c-0.2,0.3-0.3,0.6-0.3,1v1.4c0,1,0.9,1.9,1.9,1.9h0c1,0,1.9-0.9,1.9-1.9v-1.4
			c0-0.4-0.1-0.7-0.3-1h0.3V173.3z"/>
		<path class="st21" d="M313.7,73.7c0.3,1.4,1.5,1.1,1.2-0.1c-0.2-1-0.1-0.4-0.3-1.3c-1.1-5.2,3.1-4.4,3.1-0.3
			c-0.1,3.6,5.4,5.3,6.9,5.1c-0.4-2.4,0.2-3.4,0.5-6.1c0.5-4.2,0.4-8.5-2.4-10.3c-1.7-1.1-5.3-1.9-8.4-1.6c-3.7,0.3-9.2,2.4-9.9,9
			C309.1,73.5,311.6,72.1,313.7,73.7z"/>
		<path class="st19" d="M319.7,172.1c0.7,2.3,1.8,7.8-1.6,7.8l-14.4,0.1c-1.2-0.1-1.5-2.8,0.4-3.5c1.9-0.7,8.6-1,9.4-5.1
			C314.3,167.2,318.9,169.2,319.7,172.1z"/>
		<linearGradient id="SVGID_15_" gradientUnits="userSpaceOnUse" x1="296.9245" y1="121.3095" x2="342.5033" y2="121.3095">
			<stop  offset="0" style="stop-color:#FFD297"/>
			<stop  offset="1" style="stop-color:#F89D89"/>
		</linearGradient>
		<path class="st22" d="M340.5,101.9c-1.3-0.2-2.5,0.6-2.8,1.9l-5.6,31.8h-32.8c-1.3,0-2.4,1.1-2.4,2.4c0,1.3,1.1,2.4,2.4,2.4H333
			c0.2,0.1,0.4,0.2,0.7,0.3c1.3,0.2,2.5-0.6,2.8-1.9l6-34C342.7,103.4,341.8,102.2,340.5,101.9z"/>
		<path class="st23" d="M318.4,119.8c-0.1,0,1.8-0.7-0.2,0.1c-2,0.8-21.4,5.6-27.5,8.7c-1,0.5-1.6,1.1-1.9,1.8
			c-0.5,0.8-0.9,1.7-1,2.8c0,0.3,0.1,0.8,0.3,1.5c-1.3,7.3-1.4,32.1-1.6,37.9l8,0.3c0.3-2.1,2.4-11.6,3.8-20.9
			c5.8,8.8,12.1,17.8,14,20.8l8.1-1.2c-1.5-2.8-11.1-24.4-17.6-34.7c5.7-0.4,14.1-1,19.6-1.9c8.2-1.3,10.3-7.8,11-12.3L318.4,119.8z
			"/>
		<linearGradient id="SVGID_16_" gradientUnits="userSpaceOnUse" x1="286.0132" y1="97.9664" x2="326.4648" y2="97.9664">
			<stop  offset="0" style="stop-color:#FFFFFF"/>
			<stop  offset="0.538" style="stop-color:#84A0B5"/>
			<stop  offset="1" style="stop-color:#1E5177"/>
		</linearGradient>
		<path class="st24" d="M324.7,86.8c-2.7-3-10.6,5.5-15.1,10.3c-2,2.1-4.1,4.2-5.5,6c-6-1.3-14.7-1.8-17.1-1.8l-1.1,5.2
			c3.7,1.5,18.3,5.3,22.8,2.1c1.9-0.8,3.8-2.2,5.5-3.8C318.2,100.9,331.1,93.8,324.7,86.8z"/>
		<linearGradient id="SVGID_17_" gradientUnits="userSpaceOnUse" x1="263.4492" y1="108.7874" x2="291.4193" y2="108.7874">
			<stop  offset="0" style="stop-color:#FFD297"/>
			<stop  offset="1" style="stop-color:#F89D89"/>
		</linearGradient>
		<path class="st25" d="M291.4,107.8h-28v1c0,0.6,0.5,1,1,1h25.9c0.6,0,1-0.5,1-1V107.8z"/>
		<linearGradient id="SVGID_18_" gradientUnits="userSpaceOnUse" x1="263.4492" y1="108.0887" x2="291.4193" y2="108.0887">
			<stop  offset="0" style="stop-color:#F89D89"/>
			<stop  offset="1" style="stop-color:#FFD297"/>
		</linearGradient>
		<rect x="263.4" y="107.8" class="st26" width="28" height="0.6"/>
		<linearGradient id="SVGID_19_" gradientUnits="userSpaceOnUse" x1="268.2754" y1="109.0368" x2="275.0974" y2="109.0368">
			<stop  offset="0" style="stop-color:#D1D1D1"/>
			<stop  offset="1" style="stop-color:#FFFFFF"/>
		</linearGradient>
		<rect x="268.3" y="108.9" class="st27" width="6.8" height="0.4"/>
		<linearGradient id="SVGID_20_" gradientUnits="userSpaceOnUse" x1="275.8924" y1="109.0368" x2="277.3602" y2="109.0368">
			<stop  offset="0" style="stop-color:#D1D1D1"/>
			<stop  offset="1" style="stop-color:#FFFFFF"/>
		</linearGradient>
		<rect x="275.9" y="108.9" class="st28" width="1.5" height="0.4"/>
		<g>
			<path class="st29" d="M212.1,58.4c0.3,0,0.6,0-0.3,0C211.9,58.4,211.9,58.4,212.1,58.4C212,58.4,212.1,58.4,212.1,58.4z"/>
			<path class="st29" d="M211.8,58.4c-0.9,0-0.6,0-0.3,0c0,0,0.1,0,0.1,0C211.7,58.4,211.7,58.4,211.8,58.4z"/>
			<path class="st30" d="M219.2,66.8c0,0-0.5,0.1-0.7-3c2-5.7-4.5-5.4-6.4-5.4c-0.2,0-0.3,0-0.3,0c0,0-0.1,0-0.3,0
				c-1.9,0-8.4-0.3-6.4,5.4c-0.2,3.1-0.7,3-0.7,3s-1.7-0.1-1.3,1.7c0.4,1.8,1.8,2,1.8,2s0.3,1.5,1.2,2.7c0.5,0.6,1.4,1.8,2.4,2.8
				v9.5h6.1v-9.1c1.2-0.9,2.2-2.3,2.8-3.1c1-1.4,1.2-2.7,1.2-2.7s1.4-0.2,1.8-2C220.9,66.7,219.2,66.8,219.2,66.8z"/>
		</g>
		<path class="st1" d="M219.1,74.5c-1.7,3.1,6.7-7.9-0.5-15.1c-4.3-4.3-11.4-4-14.1,0.8c1.4,2.1,2.9,5.6,6.3,5.5
			c5.8-0.1,2-0.7,5.6,2.4c1.7,1.4,1.5,1.8,1.1,2.9C216.9,72.8,216.6,74.1,219.1,74.5z"/>
		<path class="st1" d="M207.7,60.3c-0.6,2.6,3.3,6.9-1.8,5c-2.7-1-1.5,2.1-1.7,4.3C202.7,67.6,202.2,58.9,207.7,60.3z"/>
		<linearGradient id="SVGID_21_" gradientUnits="userSpaceOnUse" x1="191.9593" y1="126.1278" x2="231.3196" y2="126.1278">
			<stop  offset="0" style="stop-color:#FFD297"/>
			<stop  offset="1" style="stop-color:#F89D89"/>
		</linearGradient>
		<path class="st31" d="M194.4,123.7h34.6c1.3,0,2.4,1.1,2.4,2.4l0,0c0,1.3-1.1,2.4-2.4,2.4h-34.6c-1.3,0-2.4-1.1-2.4-2.4l0,0
			C192,124.8,193,123.7,194.4,123.7z"/>
		<linearGradient id="SVGID_22_" gradientUnits="userSpaceOnUse" x1="171.3994" y1="98.9896" x2="222.3914" y2="98.9896">
			<stop  offset="0" style="stop-color:#FFFFFF"/>
			<stop  offset="1" style="stop-color:#FF6347"/>
		</linearGradient>
		<path class="st32" d="M225.1,118v-2.9C225.5,116,225.1,116.9,225.1,118L225.1,118L225.1,118z M225.1,108v-5.6l4.2-3.8l-4.2-5.7
			V81.7l11,15.1c1.9,2.6,0.5,6.2-1.5,6.8l0,0L225.1,108z M201.6,88.1l-2.8,3.9V80.9c1.3-0.8,4.3-0.6,8-0.9c1.6-0.1,4,1.5,4.9,3.8
			c1-2.7,3.5-3.8,4.9-3.8c4.1,0,7.3,0,8.2,1.3l0.4,0.5V93l-3.1-4.2c-0.8,5.3-1.6,12.4-0.7,17.1l3.7-3.4v5.6l-2.4,1.1
			c-0.1,0.1-0.2,0.1-0.3,0.1c1,2.7,2.1,4.3,2.7,5.9v2.9h-26.4v-4c0.7-1.3,1.7-2.4,2.8-4.5c-0.4-0.1-0.8-0.1-1.2-0.3l-1.7-0.8V103
			l4.2,3.7C204.6,101.7,202.9,94.2,201.6,88.1z M198.7,91.9l-4.9,6.7l4.9,4.3v5.4l-10.2-4.8l0,0c-2-0.6-3.4-4.2-1.5-6.8l11.4-15.6
			c0.1-0.1,0.2-0.2,0.4-0.3V91.9L198.7,91.9z M198.7,114v4h-0.9C197.8,116.2,198.2,115,198.7,114z"/>
		<g>
			<path class="st6" d="M230.1,161.4h-16.3l-0.3-27.6v-6.5h-3.8v6.5l-0.6,27.6h-14.8v2.1h0.3c-0.2,0.3-0.3,0.6-0.3,1v1.4
				c0,1,0.9,1.9,1.9,1.9h0c1,0,1.9-0.9,1.9-1.9v-1.4c0-0.4-0.1-0.7-0.3-1H210c-0.2,0.3-0.3,0.6-0.3,1v1.4c0,1,0.9,1.9,1.9,1.9h0
				c1,0,1.9-0.9,1.9-1.9v-1.4c0-0.4-0.1-0.7-0.3-1h13.3c-0.2,0.3-0.3,0.6-0.3,1v1.4c0,1,0.9,1.9,1.9,1.9h0c1,0,1.9-0.9,1.9-1.9v-1.4
				c0-0.4-0.1-0.7-0.3-1h0.3V161.4z"/>
			<path class="st2" d="M214.3,163.2c0.7,3.5,3.1,7.9,2.1,11.4c-1.1,3.5-3.7,3.5-5.3,0.9c-1.7-2.8-0.6-8.4-0.5-12
				C210.7,160.4,212.7,154.8,214.3,163.2z"/>
			<path class="st4" d="M215.8,168.4c0.8,2.1,1.3,4.3,0.7,6.2c-1.1,3.8-4,3.6-5.6,1c-0.8-1.2-1-2.8-0.9-5.1c0.6,2.5,1.6,4,3.3,3.8
				C215.5,173.9,216.1,171.5,215.8,168.4z"/>
			<path class="st2" d="M221.2,157.6c1.2,3.4,4.1,7.5,3.6,11c-0.6,3.6-3.2,4-5.2,1.6c-2.1-2.5-1.7-8.2-2.1-11.8
				C217.3,155.4,218.4,149.5,221.2,157.6z"/>
			<path class="st4" d="M223.4,162.6c1.1,2,1.8,4.1,1.5,6c-0.6,3.9-3.4,4.1-5.4,1.7c-0.9-1.1-1.4-2.7-1.6-4.9
				c0.9,2.4,2.1,3.8,3.7,3.3C223.7,168.1,224.1,165.6,223.4,162.6z"/>
			<path class="st33" d="M225.6,117.6c0-0.4,0-1.2-0.3-1.9l0,0c-0.4-1.6-1.3-2.8-2.2-4.8h-22.8c-1.5,2.3-2.6,3.3-2.6,6.7h0
				c0,0.4-0.1,0.7-0.1,1.1c0,2.8,1.3,5.4,3.4,7.4c0.1,0.1,0.2,0.2,0.3,0.2c0.2,0.2,0.5,0.4,0.8,0.6c1.5,1.4,1.3,3.1,1.5,4.3
				c0.9,8.2,5,24.7,5.9,30.4l5.3-0.5c-0.4-2.9-0.5-6.3-0.5-9.9c1,2.8,1.7,5.1,2.1,6.4l5.1-1.6c-2-7-2.5-17.9-4.2-27.5
				c4.8-2.4,8.1-7.1,8.1-9.8C225.4,118.3,225.6,117.6,225.6,117.6z"/>
		</g>
		<linearGradient id="SVGID_23_" gradientUnits="userSpaceOnUse" x1="193.7091" y1="96.4039" x2="229.5699" y2="96.4039">
			<stop  offset="0" style="stop-color:#FFD297"/>
			<stop  offset="1" style="stop-color:#F89D89"/>
		</linearGradient>
		<path class="st34" d="M197,85h29.3c2.6,0,3.6,0.7,3.2,3.4l-3.1,17.1c-0.2,1.3-1.7,2.2-3.1,2.2h-23.6c-1.7,0-2.8-0.5-3.1-2.2
			l-2.8-17.1C193.4,85.7,194.4,85,197,85z"/>
		<linearGradient id="SVGID_24_" gradientUnits="userSpaceOnUse" x1="128.1236" y1="111.7315" x2="309.9475" y2="111.7315">
			<stop  offset="0" style="stop-color:#FFD297"/>
			<stop  offset="1" style="stop-color:#F89D89"/>
		</linearGradient>
		<rect x="128.1" y="109.8" class="st35" width="181.8" height="3.9"/>
		<linearGradient id="SVGID_25_" gradientUnits="userSpaceOnUse" x1="197.6461" y1="108.7874" x2="225.616" y2="108.7874">
			<stop  offset="0" style="stop-color:#F89D89"/>
			<stop  offset="1" style="stop-color:#FFD297"/>
		</linearGradient>
		<path class="st36" d="M225.6,107.8h-28v1c0,0.6,0.5,1,1,1h25.9c0.6,0,1-0.5,1-1V107.8z"/>
		<linearGradient id="SVGID_26_" gradientUnits="userSpaceOnUse" x1="197.6461" y1="108.0887" x2="225.616" y2="108.0887">
			<stop  offset="0" style="stop-color:#FFD297"/>
			<stop  offset="1" style="stop-color:#F89D89"/>
		</linearGradient>
		<rect x="197.6" y="107.8" class="st37" width="28" height="0.6"/>
		<linearGradient id="SVGID_27_" gradientUnits="userSpaceOnUse" x1="255.5911" y1="94.2583" x2="263.4591" y2="94.2583">
			<stop  offset="0" style="stop-color:#FFD297"/>
			<stop  offset="1" style="stop-color:#F89D89"/>
		</linearGradient>
		<path class="st38" d="M256.7,80.6l-0.4,0.1c-0.5,0.1-0.9,0.7-0.7,1.2l6.2,25.2c0.1,0.5,0.7,0.9,1.2,0.7l0.4-0.1L256.7,80.6z"/>
		<linearGradient id="SVGID_28_" gradientUnits="userSpaceOnUse" x1="256.3616" y1="94.2435" x2="263.4591" y2="94.2435">
			<stop  offset="0" style="stop-color:#D1D1D1"/>
			<stop  offset="1" style="stop-color:#FFFFFF"/>
		</linearGradient>
		<polygon class="st39" points="263.5,107.8 256.7,80.6 256.4,80.7 263.1,107.9 		"/>
		<g>
			<linearGradient id="SVGID_29_" gradientUnits="userSpaceOnUse" x1="145.9259" y1="149.4317" x2="149.4144" y2="149.4317">
				<stop  offset="0" style="stop-color:#FFD297"/>
				<stop  offset="1" style="stop-color:#F89D89"/>
			</linearGradient>
			<rect x="145.9" y="113.7" class="st40" width="3.5" height="71.5"/>
			<linearGradient id="SVGID_30_" gradientUnits="userSpaceOnUse" x1="288.6567" y1="149.4317" x2="292.1456" y2="149.4317">
				<stop  offset="0" style="stop-color:#FFD297"/>
				<stop  offset="1" style="stop-color:#F89D89"/>
			</linearGradient>
			<rect x="288.7" y="113.7" class="st41" width="3.5" height="71.5"/>
		</g>
	</g>
	<ellipse class="st0" cx="18.5" cy="151.8" rx="18.5" ry="6"/>
	<g>
		<path class="st42" d="M249.8,102.3c-4.3-3.3-8.5,0-8.5,0C245.3,104.1,249.8,102.3,249.8,102.3z"/>
		<g>
			<path class="st43" d="M247.6,94.8c-0.4,0.2-0.9,0.5-1.4,1.1c-0.5,0.6-1.2,2-0.6,2.7c0.2,0.2,0.4,0.4,0.7,0.4
				c0-0.3,0.1-0.5,0.1-0.8c0.2-0.7,0.4-1.5,0.6-2.2c-0.2,0.7-0.3,1.5-0.5,2.2c-0.1,0.3-0.1,0.5-0.2,0.8c0.3,0,0.6,0,0.9-0.1
				C248.2,98.5,248.4,96.8,247.6,94.8z"/>
			<path class="st44" d="M246.4,99c0,0-1,2.9-0.4,4.4"/>
		</g>
		<g>
			<path class="st43" d="M240.9,94.3c0.5,0.1,1.3,0.4,2,1c0.8,0.7,2,2.2,1.4,3.3c-0.2,0.3-0.5,0.5-0.8,0.7c-0.1-0.3-0.2-0.6-0.3-0.9
				c-0.4-0.9-0.8-1.8-1.3-2.6c0.4,0.9,0.8,1.8,1.1,2.7c0.1,0.3,0.2,0.6,0.4,0.9c-0.4,0.1-0.8,0.2-1.1,0
				C241.1,99.1,240.4,97,240.9,94.3z"/>
			<path class="st44" d="M243.5,99.3c0,0,1.9,3.4,1.5,5.4"/>
		</g>
		<g>
			<path class="st43" d="M253.9,94.6c-0.5,0-1.3,0-2.2,0.3c-1,0.4-2.6,1.5-2.4,2.7c0.1,0.3,0.3,0.7,0.6,0.9c0.2-0.3,0.4-0.5,0.6-0.8
				c0.6-0.7,1.3-1.4,2.1-2.1c-0.6,0.7-1.3,1.4-1.9,2.2c-0.2,0.2-0.4,0.5-0.6,0.8c0.3,0.2,0.7,0.4,1.1,0.4
				C252.2,99,253.5,97.2,253.9,94.6z"/>
			<path class="st44" d="M249.9,98.5c-0.4,0.3-1,0.8-1.4,1.5c-0.9,1.5-0.9,2.9-0.9,3.6"/>
		</g>
		<path class="st45" d="M241.3,102.3v4.5c0,1.7,1.4,3.1,3.1,3.1h2.2c1.7,0,3.1-1.4,3.1-3.1v-4.5c-1,0.3-2.4,0.7-4.2,0.7
			C243.7,103,242.3,102.7,241.3,102.3z M249.8,104.6h-4.3v-0.6h4.3V104.6z"/>
	</g>
	<g>
		<path class="st42" d="M28.8,136.3c-10.5-8.1-21.1,0-21.1,0C17.7,140.7,28.8,136.3,28.8,136.3z"/>
		<path class="st43" d="M35.3,124.2c0-0.2-0.2-2.9-0.9-2.4c-0.8,0.6-3.4,1.6-4.9,2.3c-1.4,0.7-2.3,1.6-2.6,3.2
			c-0.4,1.9-1.8,1.7-3.6,2.5c-1.7,0.8-2,2.1-2.5,4.5c0,0,0,2.4,0.5,2.8c0.3,0.2,0.6,0.5,1.1,0.9c0.6-1.1,1.2-2.3,1.9-3.3
			c0.8-1.3,1.7-2.5,2.7-3.6c0.9-1.2,1.9-2.3,3-3.3c-1.8,2.4-3.5,4.8-5.2,7.2c-0.7,1.1-1.4,2.2-2,3.3c0.5,0.3,1.1,0.6,1.8,0.7
			c1.6,0.3,3.6-1.8,4.3-3c0.9-1.6,0.8-3.8,1.7-5.4c0.6-1,2.2-0.6,3.1-1.6C34.9,127.7,35.3,125.8,35.3,124.2z"/>
		<path class="st43" d="M0,121.3c0-0.3,0.1-3.6,1-2.9c1,0.8,4.1,2.1,5.9,3c1.7,0.9,2.8,2.1,3.3,4c0.6,2.3,2.2,2.2,4.3,3.2
			s2.5,2.7,3.1,5.6c0,0,0.1,2.9-0.5,3.4c-0.3,0.2-0.7,0.6-1.3,1c-0.7-1.4-1.5-2.8-2.4-4.2c-1-1.6-2.1-3.1-3.3-4.6
			c-1.2-1.5-2.4-2.9-3.7-4.2c2.2,3,4.4,6,6.4,9.1c0.9,1.3,1.7,2.7,2.5,4.1c-0.6,0.4-1.3,0.7-2.1,0.8c-1.8,0.3-4.4-2.3-5.2-3.9
			c-1.1-2-1-4.7-2.3-6.7c-0.8-1.3-2.7-0.8-3.7-2.1C0.6,125.6,0,123.3,0,121.3z"/>
		<path class="st45" d="M7.8,136.3v11.2c0,4.3,3.5,7.8,7.8,7.8h5.5c4.3,0,7.8-3.5,7.8-7.8v-11.2c-2.4,0.8-6,1.7-10.4,1.7
			C13.9,138.1,10.2,137.2,7.8,136.3z M28.8,141.9H18.3v-1.5h10.5V141.9z"/>
		<path class="st43" d="M25.9,104c-0.2-0.4-3-4.6-3.7-3c-0.7,1.7-4.2,5.7-5.9,8.2c-1.7,2.4-2.3,4.8-1.4,7.6c1,3.4-1.4,4.5-3.6,7.3
			c-2.1,2.9-1.3,5.3,0,9.6c0,0,2.1,3.9,3.4,4c0.6,0.1,1.5,0.3,2.6,0.4c-0.1-2.4-0.1-4.8,0-7.2c0.2-2.8,0.5-5.6,1-8.3
			c0.5-2.8,1.1-5.5,1.9-8.2c-0.8,5.5-1.5,11-1.8,16.6c-0.2,2.4-0.2,4.8-0.2,7.2c1.1,0,2.3,0,3.6-0.5c2.8-0.9,4.3-6.2,4.3-8.9
			c0-3.5-2.2-6.9-2-10.4c0.1-2.3,3.1-3,3.6-5.4C28.5,110.1,27.4,106.7,25.9,104z"/>
	</g>
	<g id="_x38_">
		<g>
			<linearGradient id="SVGID_31_" gradientUnits="userSpaceOnUse" x1="381.7912" y1="18.7522" x2="419.2955" y2="18.7522">
				<stop  offset="0" style="stop-color:#FFD297"/>
				<stop  offset="1" style="stop-color:#F89D89"/>
			</linearGradient>
			<circle class="st46" cx="400.5" cy="18.8" r="18.8"/>
			<linearGradient id="SVGID_32_" gradientUnits="userSpaceOnUse" x1="385.363" y1="18.7522" x2="415.7237" y2="18.7522">
				<stop  offset="0" style="stop-color:#D1D1D1"/>
				<stop  offset="1" style="stop-color:#FFFFFF"/>
			</linearGradient>
			<circle class="st47" cx="400.5" cy="18.8" r="15.2"/>
			<polygon class="st48" points="411.8,12.5 401.6,20 391.5,15.8 390.8,17.3 400.8,21.5 401,21.6 401.1,21.5 412.3,13.2 			"/>
		</g>
	</g>
	<g id="_x37__1_">
		<g>
			<g>
				<polygon class="st49" points="39.8,6.1 34.5,6.1 34.5,6.6 34.5,40.5 39.8,40.5 45,40.5 45,17.2 45,6.1 				"/>
				<polygon class="st50" points="39.8,7.6 35.6,7.6 35.6,7.7 35.6,31.3 39.8,31.3 43.9,31.3 43.9,16.1 43.9,7.6 				"/>
			</g>
			<g>
				<polygon class="st51" points="50.4,6.1 45,6.1 45,17.2 45,40.5 50.4,40.5 55.6,40.5 55.6,27.7 55.6,6.1 				"/>
				<polygon class="st50" points="50.4,7.6 46.1,7.6 46.1,18.3 46.1,31.3 50.4,31.3 54.5,31.3 54.5,26.6 54.5,7.6 				"/>
			</g>
			<g>
				<polygon class="st52" points="30.6,5.9 25.4,4.7 17.6,38.2 22.9,39.4 27.9,40.6 35.6,7 				"/>
				<polygon class="st53" points="30.2,7.3 26.1,6.4 20.8,29.5 24.9,30.4 28.9,31.4 34.2,8.3 				"/>
			</g>
		</g>
		<linearGradient id="SVGID_33_" gradientUnits="userSpaceOnUse" x1="13.0329" y1="42.6517" x2="60.8977" y2="42.6517">
			<stop  offset="0" style="stop-color:#FFD297"/>
			<stop  offset="1" style="stop-color:#F89D89"/>
		</linearGradient>
		<rect x="13" y="40.7" class="st54" width="47.9" height="3.9"/>
	</g>
	<g>
		<g>
			<g>
				<defs>
					<rect id="SVGID_34_" x="166.4" y="5.9" width="25.3" height="28.2"/>
				</defs>
				<clipPath id="SVGID_35_">
					<use xlink:href="#SVGID_34_"  style="overflow:visible;"/>
				</clipPath>
				<g class="st55">
					<path class="st56" d="M190.8,25.3c-0.2-0.1-0.4-0.3-0.5-0.5c-0.2-1.1-0.9-1.9-1.8-2.5c-0.3-0.2-0.5-0.5-0.8-0.7
						c-0.9-0.6-1.4-1.7-2.7-1.8c0-0.7,0.4-1.2,0.8-1.7c0.7-0.8,1-1.7,0.8-2.8c-0.2-0.8-0.8-1.1-1.6-0.6c-0.1,0.1-0.2,0.1-0.3,0.1
						c-0.1,0-0.1-0.2-0.1-0.3c0-0.3,0.1-0.5,0.1-0.8c-0.1-1-0.1-2-0.2-3c0-0.4-0.1-0.9-0.3-1.2c-1.5-2.5-3.7-3.7-6.5-3.6
						c-0.5,0-1,0.1-1.5,0.2c-1.7,0.4-2.9,1.5-3.9,2.9c-0.3,0.4-0.5,1-0.6,1.6c-0.1,1.1-0.1,2.2-0.2,3.3c0,0.3-0.2,0.7-0.3,1
						c-0.2,0-0.4-0.1-0.6-0.1c-0.5-0.2-0.9,0-0.9,0.5c-0.1,0.8,0.1,1.4,0.5,2.1c0.5,0.9,1.1,1.7,1.7,2.6c0.2,0.3,0.4,0.5,0.8,0.4
						c0.3-0.1,0.5,0.1,0.5,0.3c0,0.1-0.1,0.4-0.3,0.5c-0.3,0.2-0.6,0.3-0.8,0.5c-0.4,0.5-0.8,1-1.2,1.5c-0.6,0.8-0.8,1.9-1.8,2.4
						c-0.3,0.2-0.7,0.4-1,0.6c-0.4,0.2-0.6,0.5-0.7,0.9c-0.2,0.7-0.4,1.4-0.6,2.1c-0.1,0.2-0.2,0.5-0.3,0.5c-0.1,0-0.1,0.1-0.2,0.1
						c1,1,2.1,1.8,3.3,2.5c0.3-0.2,0.6-0.5,1-0.7c0.7-0.6,1.4-1.2,2.1-1.8c-0.7-0.2-1.5-0.4-2.2-0.6c0,0,0-0.1,0-0.1
						c0.1,0,0.3,0,0.4,0.1c1.2,0.3,2.3,0.2,3.3-0.4c0.5-0.3,1.1-0.5,1.6-0.8c0.5-0.3,0.5-0.5,0-0.8c-0.1-0.1-0.3-0.2-0.5-0.3h1.9
						c0,0,0,0.1-0.2,0.2c0.9-0.3,1.6-0.6,2.2-1c0.8-0.5,1.4-1.1,1.8-1.9c0.3-0.6,0.8-1,1.1-1.5c0.4-0.6,0.8-1.2,1.1-1.8
						c0.2-0.3,0.4-0.5,0.7-0.5c0.4,0,0.7,0.1,1.1,0.1c0.1,0,0.2,0.2,0.2,0.3c0,0.3,0,0.6-0.1,0.8c-0.7,1.3-1.8,2.2-3.2,3
						c0.5-0.8,0.9-1.5,1.3-2.2c-0.1,0-0.1-0.1-0.2-0.1c-0.6,0.7-1.1,1.5-1.7,2.2c-0.2,0.2-0.4,0.4-0.7,0.6c-1,0.9-2.1,1.5-3.3,2
						c-0.9,0.4-1.7,0.9-2.4,1.4c-0.3,0.2-0.4,0.6-0.7,0.9c-0.6,0.4-1.2,0.9-1.8,1.3c0,0-0.1-0.1-0.1-0.1c0.3-0.3,0.7-0.6,1-0.8
						c-0.5,0.2-1,0.3-1.4,0.7c-0.7,0.7-1.4,1.3-2.1,2c0.3,0.2,0.6,0.3,0.9,0.4c0.5-0.5,1.1-1.1,1.7-1.6c1.1-1,2.3-1.9,3.4-2.8
						c0.1-0.1,0.3-0.2,0.5-0.4c-0.4,0.5-0.7,1-1,1.4c-0.8,0.9-1.5,1.8-2.3,2.7c-0.4,0.4-0.7,0.8-1.1,1.2c0.4,0.1,0.7,0.2,1.1,0.3
						c0.3-0.4,0.7-0.8,1-1.2c1-1.3,2-2.6,3.1-3.7c1.5-1.7,3.5-2.8,5.4-4c1-0.6,2.1-1,2.9-1.9c0.4-0.4,0.8-0.4,1.3-0.3
						c0.2,0,0.4,0.1,0.7,0.2c1.1,0.3,1.8,1,1.8,2.3c-0.3-0.1-0.6-0.1-0.8-0.2c-1.5-0.6-2.8-0.2-3.9,0.8c-1.5,1.4-3.1,2.8-4.6,4.3
						c-0.7,0.7-1.2,1.4-1.8,2.2c0.2-0.2,0.3-0.3,0.5-0.5c0.1-0.1,0.3-0.2,0.4-0.3c0,0.1,0,0.2,0,0.3c-0.5,0.5-1,1-1.5,1.5
						c0,0-0.1,0-0.2,0.1c-0.4,0.3-0.8,0.7-1,1.2c0.4,0,0.8,0,1.2,0c0.1,0,0.2,0,0.3,0c0.1,0,0.1-0.1,0.2-0.1
						c0.3-0.2,0.6-0.3,0.6-0.7c0.2-1,0.5-1.8,1.3-2.4c0.2-0.2,0.4-0.4,0.6-0.7c0.1-0.1,0.1-0.2,0.2-0.3l-1.3,0.8
						c0.8-0.8,1.6-1.6,2.5-2.4c1.1-1,2.1-2,3.2-2.9c0.5-0.4,1.1-0.7,1.7-0.8c0.7-0.1,1.4,0.2,2.2,0.3c-0.2,0.3-0.4,0.5-0.5,0.7
						c-0.6,0.8-1.2,1.8-2,2.5c-0.6,0.6-0.8,1.3-1,2.1c0.2-0.5,0.5-1,0.7-1.6c0,0,0.1,0,0.1,0c-0.1,0.3-0.2,0.6-0.3,0.9
						c0,0,0.1,0,0.1,0.1c0.2-0.2,0.4-0.4,0.5-0.6c0.2-0.3,0.3-0.7,0.6-0.9c0.7-0.6,1.4-1.2,2.1-1.8c0.4-0.4,0.9-0.4,1.5-0.3
						c0.2,0,0.4,0.1,0.5,0.1c0-0.1,0.1-0.2,0.1-0.3C191.3,25.5,191,25.4,190.8,25.3L190.8,25.3z M172.6,17.2
						c-0.4-0.8-0.9-1.5-1.3-2.3c0.1,0,0.2,0,0.2,0c0.4,0.7,0.8,1.5,1.2,2.2C172.7,17.1,172.7,17.1,172.6,17.2L172.6,17.2z
						 M168.8,28.8c-0.4-0.6-0.7-1.2-0.6-2c0.1-0.4,0.3-0.4,0.6-0.2C168.4,27.3,168.8,28.1,168.8,28.8L168.8,28.8z M169.1,31
						c0.1-0.6,0.7-0.5,1-0.7c0,0,0.1,0.1,0.1,0.1C169.8,30.6,169.4,30.8,169.1,31L169.1,31z M171.7,27.3c-0.2-0.2-0.2-0.3,0.1-0.6
						c0.1-0.1,0.1-0.4,0.2-0.6c0.2,0.7,0.3,1.3,0.4,1.9C172.2,27.7,172,27.5,171.7,27.3L171.7,27.3z M174.9,13.8
						c0.2,0.1,0.6-0.1,0.9-0.1c0.5,0,1,0,1.5,0.1c0.1,0,0.3,0.2,0.4,0.3c-0.1-0.3-0.1-0.5-0.5-0.5c-0.7,0-1.4-0.1-2-0.1
						c-0.5,0-1.2-0.7-0.9-1.2c1.4,0.1,2.8,0.6,4.4,0.2c-1.3,0-2.6,0.2-3.6-0.8c0.2-0.1,0.3-0.2,0.5-0.3c-0.3-0.2-0.5-0.4-0.8-0.6
						l0.1-0.1c0.1,0,0.2,0.1,0.4,0.1c-0.1-0.2-0.2-0.3-0.3-0.4c0.5-0.6,1-1.2,1.4-1.8c0,0-0.1-0.1-0.1-0.1c-0.1,0.2-0.3,0.3-0.4,0.5
						l-0.1,0c0.1-0.1,0.1-0.2,0.2-0.3c0.4-0.4,0.8-0.9,1.2-1.3c0.3-0.2,0.5-0.4,0.9-0.3c0.2,0.1,0.6-0.1,0.9-0.1c1,0,2,0.1,3,0.7
						c-0.6-0.8-1.5-0.7-2.2-1.1c0.7,0,1.9,0.4,2.6,1.1c0.7,0.7,1.3,1.5,1.9,2.2c0.1,0.2,0.2,0.4,0.2,0.7c0.1,1.2,0.2,2.3,0.2,3.5
						c0,0.8-0.3,1.5-0.8,2.2c-0.1,0.2-0.3,0.3-0.5,0.1c-0.2-0.2-0.3-0.3-0.6-0.5h1.2c-0.1-0.1-0.2-0.2-0.2-0.2
						c0-0.2,0.1-0.4-0.2-0.2c0,0-0.2,0-0.2,0c0,0,0-0.2,0-0.2c0.4-0.4-0.1-0.6-0.2-0.8c-0.1-0.1-0.3-0.1-0.5-0.1
						c-0.7,0-1.3,0.1-1.9,0.5c-0.6,0.3-1.1,0.1-1.5-0.5c-0.1-0.1-0.2-0.1-0.3-0.1c-0.1,0.2-0.2,0.6,0,1.1c0.2,0.3,0.1,0.8,0.1,1.2
						c0,0.1,0,0.2,0.1,0.3c0.1-0.1,0.2-0.3,0.2-0.4c0.1,0,0.1,0,0.2,0.1c-0.1,0.2-0.2,0.4-0.2,0.6c0,0,0,0,0,0
						c-0.3-0.1-0.6-0.2-0.9-0.2c-0.2,0-0.4,0-0.7,0c0.1-0.6,0.1-1.1,0.2-1.6c-0.2-0.1-0.4-0.2-0.6-0.3c-0.1,0-0.1-0.1-0.2-0.1
						c-0.3,0-0.6,0-0.9,0c-0.4,0-0.7-0.1-1.1-0.1c-0.2,0-0.4-0.1-0.5-0.1v0.1c-0.3-0.1-0.7-0.1-1.1-0.2
						C173.9,13.8,174.3,13.6,174.9,13.8L174.9,13.8z M182.4,17.9c0.3,0.2,0.3,0.4,0,0.6c-0.4,0.4-1.1,0.5-1.6,0.2
						c-0.3-0.1-0.4-0.4-0.1-0.6c0.3-0.2,0.7-0.4,1-0.6c-0.4,0.1-0.7,0.2-1.1,0.3c-0.2,0.1-0.4,0.5-0.7,0.2c-0.2-0.3-0.6-0.5-0.3-1
						c0-0.1,0.1-0.1,0-0.2c0-0.8,0.5-1.5,1.3-1.6c0.8-0.1,1.9,0.4,2,1.1c0.1,0.4-0.1,0.9-0.1,1.3c-0.4-0.1-0.8-0.2-1.1-0.2
						C182,17.7,182.2,17.8,182.4,17.9L182.4,17.9z M177.8,18.8c-0.4-0.9-0.3-1.6,0.3-1.8c0.4-0.2,0.9,0.1,1,0.6c0.1,0,0.3,0,0.3,0.1
						c0.2,0.5,0.4,0.9,0.6,1.4c0.1,0.4,0,0.6-0.5,0.8c0-0.1,0.1-0.3,0.1-0.4c0-0.1,0-0.2,0-0.4c-0.1,0.3-0.2,0.6-0.3,0.8
						c-0.1,0.1-0.3,0.3-0.3,0.3c-0.3-0.2-0.9,0.2-0.9-0.6c-0.1,0.1-0.2,0.2-0.3,0.3c-0.3-0.5,0.1-0.8,0.4-1.2
						C177.9,18.7,177.9,18.8,177.8,18.8L177.8,18.8z M177.3,16.9c0.6-0.3,1.2-0.2,1.9-0.1c0,0-0.1,0.1-0.1,0.1
						C178.4,16.9,177.8,16.9,177.3,16.9L177.3,16.9z M178.9,20.8c0.5-0.1,1-0.3,1.6-0.2c0,0.1,0,0.1,0,0.2c-0.5,0.1-1.1,0.1-1.7,0.2
						C178.8,20.9,178.8,20.8,178.9,20.8L178.9,20.8z M180.1,19.9c0.1-0.2,0.1-0.5,0.2-0.9c0.8,0.5,1.3,1.3,1.3,1.8
						C181.1,20.5,180.6,20.2,180.1,19.9L180.1,19.9z M173.6,17.9c-0.2-0.5-0.2-1,0.1-1.5c0.2-0.5,0.6-0.8,1.2-0.8
						c0.7,0,1.2,0.3,1.6,0.9c0.3,0.4,0.2,1.3-0.1,1.7c-0.3,0.4-0.5,0-0.7-0.1c0.1,0.2,0.2,0.5,0.2,0.6c-0.1,0.2-0.4,0.2-0.6,0.3
						c-0.7,0.1-1.1-0.1-1.4-0.8c0.3-0.1,0.6-0.3,1-0.5C174.4,17.8,174,17.8,173.6,17.9L173.6,17.9z M173.9,24.4
						c0.6,0.5,1.2,1,1.7,1.5C174.6,25.9,174.2,25.5,173.9,24.4L173.9,24.4z M175.4,20.2c0,0.1-0.2,0.3-0.4,0.4
						c-0.1,0.1-0.2,0.2-0.5,0.4c0.2-0.9-0.5-1.4-0.8-2.2c0.9,0.5,1.7,0.6,2.5-0.1c0,0,0.1,0.1,0.1,0.1c-0.2,0.3-0.4,0.6-0.7,0.9
						C175.5,19.9,175.4,20,175.4,20.2L175.4,20.2z M183.4,20.3c0,0.1,0,0.2,0,0.3c-0.9,1.8-2.2,3.3-4.3,3.8c-0.4,0.1-0.8,0-1.2-0.1
						c0.4,0,0.8-0.1,1.2-0.1c0,0,0-0.1,0-0.1c-0.6,0.1-1.1,0.2-1.7,0.2c-0.4,0-0.7-0.3-1-0.5c0,0,0-0.1,0.1-0.1c0.3,0,0.6,0.1,1,0.1
						c-0.5-0.5-0.5-0.5-0.4-1.1c0.3,0,0.6,0,0.9,0c-0.1-0.1-0.2-0.2-0.3-0.4c0.4-0.1,0.8-0.1,1.1-0.2c0-0.1,0-0.1,0-0.2
						c-0.1,0-0.3,0-0.4,0c-0.3,0-0.6,0-0.9-0.1c-0.1,0-0.2-0.2-0.2-0.3c0.1-0.1,0.2-0.2,0.3-0.2c0.3,0.1,0.6,0.2,0.9,0.2
						c0.3,0,0.7-0.2,1-0.3c0.4-0.1,0.8-0.1,1.2-0.1c0,0,0,0.1,0,0.1c-0.4,0.2-0.7,0.4-1.1,0.6c0.5,0.2,0.8-0.6,1.3,0
						c0.3-0.2,0.6-0.4,1-0.4c0.4-0.1,0.4-0.3,0.3-0.5c-0.2-0.7-0.7-1.2-1.1-1.7c-0.1-0.1-0.2-0.2-0.5-0.4c0.7,0.2,1.3,0.4,1.9,0
						c0.3-0.2,0.7-0.6,0.8-0.9c0.1-0.7,0.9-1,1.1-1.7c0.2,0.7,0.1,1.4-0.3,2C183.5,18.9,183.4,19.6,183.4,20.3L183.4,20.3z
						 M183.8,19.8c0-0.2,0.1-0.3,0.1-0.5c0.4-1.1,0.6-2.2,0.7-3.3c0-0.5,0.3-0.9,0.7-1.3c0.4-0.3,1-0.1,1.1,0.4
						c0.3,0.8-0.1,1.5-0.4,2.2c-0.4,0.7-0.8,1.3-1.2,2C184.6,19.9,184.3,20,183.8,19.8L183.8,19.8z M183.8,19.8"/>
				</g>
			</g>
			<g>
				<path class="st56" d="M181.3,13.3c0.5-0.2,1-0.3,1.5,0c-0.4-0.6-0.4-0.6-1.2-0.5c0.2,0,0.3,0.1,0.5,0.1
					c-0.7,0.2-1.4,0.4-1.9,0.5C180.5,13.7,180.9,13.4,181.3,13.3L181.3,13.3z M181.3,13.3"/>
			</g>
			<g>
				<path d="M178.3,9.8h-0.4C178,9.8,178.2,9.8,178.3,9.8L178.3,9.8z M178.3,9.8"/>
			</g>
			<g>
				<path class="st56" d="M176.1,9.7c0,0,0,0.1,0,0.1h1.8C177.4,9.7,176.8,9.5,176.1,9.7L176.1,9.7z M176.1,9.7"/>
			</g>
			<g>
				<path class="st56" d="M177.8,7.5c0.5-0.1,1-0.1,1.5-0.2C178.8,7.2,178.3,7.2,177.8,7.5L177.8,7.5z M177.8,7.5"/>
			</g>
			<g>
				<path class="st56" d="M184.9,16.5C184.9,16.6,184.9,16.6,184.9,16.5c-0.1-0.1-0.1-0.3-0.1-0.5c0,0,0,0-0.1,0
					c0,0.7,0.1,1.4,0.1,2.1c0.3-0.3,0.8-0.6,0.6-1.2C185.4,16.8,185.1,16.7,184.9,16.5L184.9,16.5z M184.9,16.5"/>
			</g>
			<g>
				<path class="st56" d="M186.2,16.6c0.4-0.8,0-1.8-0.7-1.8C186.1,15.3,186.4,15.9,186.2,16.6L186.2,16.6z M186.2,16.6"/>
			</g>
		</g>
		<g>
			<g>
				<defs>
					<rect id="SVGID_36_" x="245.8" y="5.4" width="18.7" height="29.9"/>
				</defs>
				<clipPath id="SVGID_37_">
					<use xlink:href="#SVGID_36_"  style="overflow:visible;"/>
				</clipPath>
				<g class="st57">
					<path class="st56" d="M264.4,17.2c0-0.3,0-0.6,0-0.9c0-0.2,0-0.5-0.1-0.7c-0.1-0.4-0.1-0.9-0.2-1.3c-0.3-0.9-0.5-1.9-1-2.8
						c0-0.1-0.1-0.2,0-0.3c0.3,0.3,0.5,0.7,0.8,1c0-0.1,0-0.1,0-0.2c-0.1-0.2-0.2-0.4-0.3-0.6c-0.5-0.6-1-1.3-1.4-2
						c-0.2-0.4-0.4-0.7-0.6-1c-0.6-0.9-1.3-1.6-2.3-1.9c-0.1,0-0.2-0.1-0.3-0.2c0.4,0.1,0.7,0.2,1,0.3c0.2,0,0.4,0.2,0.6,0.3
						c0.3,0.3,0.6,0.5,0.8,0.9c0-0.1,0-0.1,0-0.2c-0.2-0.5-0.6-0.8-1-1c-0.3-0.1-0.5-0.3-0.8-0.4c-0.6-0.3-1.1-0.5-1.7-0.1
						c0,0,0,0-0.1,0c-0.3,0.1-0.7,0.1-1-0.1c-0.2-0.2-0.5-0.3-0.8-0.4c-1.3-0.4-2.5-0.4-3.8,0.1c-0.8,0.3-1.5,0.7-2.1,1.2
						c-0.4,0.4-0.9,0.6-1.2,1.1c-0.3,0.3-0.6,0.6-0.8,0.9c-0.3,0.3-0.5,0.6-0.6,1c-0.3,0.8-0.6,1.6-0.9,2.4
						c-0.2,0.6-0.5,1.2-0.6,1.9c-0.1,1-0.2,2-0.1,3c0,0.6,0.1,1.2,0.4,1.7c0,0.1,0.1,0.2,0.1,0.2c0.2,0,0.2,0.1,0.3,0.2
						c0.1,0.1,0.2,0.3,0.3,0.4c0.2,0.1,0.3,0.3,0.3,0.5c0.2,0.6,0.4,1.2,0.7,1.8c0.2,0.4,0,0.8-0.4,0.9c-0.1,0-0.3,0.1-0.5,0.1
						c0.2,0.1,0.3,0,0.5,0.1c-0.1,0.1-0.3,0.1-0.4,0.2c0.3-0.1,0.6,0,0.9-0.3c0.2-0.2,0.3-0.3,0.5-0.5c0,0,0.1-0.1,0.1-0.2
						c0-0.4,0-0.7-0.1-1.1c0-0.1-0.1-0.2-0.2-0.2c-0.1,0-0.2-0.1-0.2-0.2c0,0,0-0.1-0.1-0.1c-0.1,0-0.1,0.1-0.1,0.1
						c0,0.1,0,0.1,0,0.2c0,0.2,0.1,0.4,0,0.7c-0.2-0.3-0.3-0.6-0.4-0.9c0.1,0.1,0.1,0.3,0.2,0.4c0-0.2,0-0.5-0.2-0.7
						c-0.1,0,0,0.1-0.1,0.1c0,0-0.1,0-0.1-0.1c-0.1-0.3-0.2-0.6-0.3-0.9c0.2,0.2,0.2,0.3,0.3,0.5c0.1,0.1,0.2,0.3,0.4,0.3
						c0.2,0,0.3,0.1,0.4,0.2c0,0.1,0.1,0.1,0.1,0.2c-0.1-0.4-0.1-0.9-0.1-1.3c0-0.2,0-0.5,0.2-0.7c0.1-0.1,0.1-0.2,0.1-0.3
						c0.1-0.4,0.2-0.8,0.3-1.1c0-0.1,0-0.2,0.1-0.2c0.2,0,0.2-0.1,0.4-0.2c0.2-0.1,0.4-0.3,0.6-0.3c0.7-0.2,1.5,0,2.2,0.2
						c-0.4,0-0.8,0-1.1,0c-0.4,0-0.8,0.1-1.1,0.3c-0.1,0.1-0.2,0.1-0.2,0.2c0,0.1,0.1,0.2,0.3,0.2c0.2,0,0.4,0.1,0.7,0.1
						c0.1,0,0.2,0,0.3,0c0.1,0,0.2-0.1,0.2-0.2c0-0.3,0.1-0.3,0.3-0.1c0.2,0.2,0.4,0.3,0.7,0.3c0.2,0,0.4-0.1,0.5-0.2
						c0.1,0.3,0.1,0.3,0.4,0.3c0.1,0,0.2,0,0.3,0c0.3,0,0.5,0.1,0.5,0.4c0.1,0,0.1-0.1,0.2-0.2c0.2-0.3,0.2-0.7,0.1-1
						c0-0.2-0.1-0.2-0.2-0.3c-0.4-0.2-0.9-0.4-1.4-0.4c0,0-0.1,0-0.1,0c-0.1,0-0.3-0.1-0.3-0.3c0-0.2,0.1-0.3,0.2-0.4
						c0,0.1-0.1,0.2-0.1,0.3c0.1,0,0.2-0.1,0.2-0.1c0.1-0.1,0.3-0.3,0.4-0.4c0,0,0.1-0.1,0.1-0.1c0.1,0,0,0.1,0,0.2
						c-0.1,0.2-0.2,0.3-0.3,0.5c0.2,0,0.3-0.1,0.4-0.2c0.1-0.2,0.3-0.2,0.5-0.3c0.4-0.1,0.9-0.2,1.3-0.3c0.7-0.1,1.3-0.3,1.8-0.9
						c0.1-0.1,0.2-0.2,0.4-0.3c0.1,0,0.2,0,0.2,0.1c0.1,0.1,0,0.1,0,0.2c-0.1,0.1-0.2,0.2-0.3,0.2c-0.2,0.1-0.3,0.1-0.4,0.3
						c0.2,0,0.3,0,0.4,0c0.1,0,0.3,0,0.4,0.1c0.1,0.1,0.1,0.1,0.2,0.1c0.4-0.1,0.7-0.3,0.8-0.8c0,0,0,0,0.1-0.1
						c0.1,0.3,0,0.6-0.3,0.8c0.5-0.1,0.8-0.5,0.8-0.9c0-0.1,0-0.2,0-0.4c0-0.3,0-0.6-0.2-0.8c-0.1-0.1-0.1-0.2-0.1-0.3
						c0-0.7,0-1.3,0.1-2c0-0.2,0-0.4,0.1-0.6c0,0.4,0.1,0.8,0,1.2c-0.1,0.3,0,0.7,0,1c0,0.7,0.2,1.3,0.6,1.8c0,0.1,0.1,0.1,0.1,0.1
						c0,0,0,0,0,0c0,0,0,0,0,0c0.1,0.1,0.2,0.2,0.3,0.3c-0.2,0-0.2-0.2-0.3-0.3l0,0c0,0,0,0,0,0c0,0-0.1-0.1-0.1-0.1
						c0,0.1,0.1,0.1,0.1,0.2c0.3,0.4,0.6,0.7,0.8,1.1c0.1,0,0-0.1,0.1-0.1c0,0.1,0.1,0.2,0.1,0.4c0.1,0.2,0,0.3-0.2,0.2
						c-0.3-0.1-0.7-0.2-1-0.2c-0.1,0-0.2,0-0.3,0.1c0.1,0.1,0.3,0.1,0.4,0.2c-0.4,0.1-0.7,0.2-1.1,0.2c-0.4,0-0.7,0-1,0.1
						c-0.4,0.2-0.8,0.5-1.2,0.7c-0.1,0-0.1,0.1-0.1,0.2c0,0.3,0,0.5,0,0.8c0,0.3,0.3,0.4,0.5,0.5c0,0,0.1,0.1,0.1,0c0,0,0-0.1,0-0.1
						c0-0.1-0.1-0.1-0.1-0.1c0.1-0.1,0.1-0.3,0.3-0.3c0.3,0,0.6-0.1,0.9-0.1c0-0.1,0-0.1-0.1-0.2c0-0.1-0.1-0.1,0-0.2c0,0,0,0,0,0
						c0.2,0.2,0.4,0.3,0.6,0.4c0.3,0,0.5-0.1,0.7-0.3c0-0.1,0.1,0,0.2,0c0.3,0.1,0.4,0.4,0.5,0.6c0.1,0.1,0,0.2-0.1,0.3
						c-0.2,0.1-0.4,0.2-0.6,0.2c-0.2,0-0.4,0-0.6,0.1c0.8,0.1,1.6,0,2.2-0.7c0,0,0.1-0.1,0.1-0.1c0.2-0.1,0.3-0.1,0.5,0.1
						c0.1,0.1,0.2,0.3,0.2,0.5c0,0.1,0,0.2,0.1,0.3c0.2,0.3,0.2,0.5,0.1,0.8c0,0.1-0.1,0.2-0.1,0.3c-0.3,0.8-0.8,1.5-1.3,2.3
						c-0.1,0.1-0.2,0.1-0.2,0.3c0.1,0,0.1,0,0.2-0.1c0.2-0.1,0.3-0.2,0.3-0.4c0-0.1,0.1-0.2,0.2-0.1c0.1,0,0,0.1,0,0.2
						c-0.1,0.1-0.2,0.2-0.3,0.3c-0.1,0.1-0.3,0.2-0.4,0.3c0,0,0,0,0,0.1c0,0,0,0,0.1,0c0,0,0,0,0,0c0.1,0,0.1-0.1,0.2-0.1
						c0.1,0,0,0.1,0,0.2c-0.1,0.3-0.2,0.6-0.2,1c0,0.3,0,0.5-0.2,0.8c-0.3,0.5-0.6,1-1,1.4c-0.1,0.1-0.2,0.3-0.3,0.5
						c-0.1,0.3-0.3,0.7-0.4,1c0,0.1-0.1,0.3-0.2,0.2c-0.1,0-0.2-0.2-0.2-0.3c0,0,0-0.1,0-0.1c0-0.2,0-0.4,0.1-0.6
						c0-0.2,0-0.3-0.2-0.4c-0.4-0.2-0.9-0.1-1.2,0.4c0.1,0,0.1-0.1,0.2-0.1c0.2-0.1,0.4-0.3,0.6-0.2c0.3,0,0.4,0.2,0.4,0.5
						c0,0.2-0.1,0.4-0.1,0.6c-0.1,0.3-0.1,0.5-0.1,0.8c0.1,0.4,0.2,0.7,0.3,1.1c0.2,0.7,0.5,1.4,0.8,2.2c0.3,0.8,0.3,1.6,0.5,2.4
						c0.1,0.3,0.1,0.5,0.3,0.8c0.2,0.3,0.3,0.3,0.5,0c0.1-0.1,0.2-0.3,0.2-0.4c0.1-0.3,0.3-0.6,0.5-0.9c0.5-0.7,1.1-1.2,1.7-1.8
						c0.5-0.4,1-0.8,1.4-1.3c0.4-0.5,0.3-0.8-0.1-1.2c-0.2-0.1-0.4-0.2-0.5-0.4c-0.4-0.3-0.6-0.6-0.4-1.1c0.1-0.2,0.1-0.4,0-0.5
						c0-0.8-0.3-1.6-0.9-2.2c-0.1-0.1-0.3-0.2-0.4-0.3c-0.1-0.1-0.1-0.1-0.1-0.2c0.2-0.3,0.5-0.5,0.7-0.8c0,0.2-0.2,0.4-0.3,0.5
						c0,0-0.1,0,0,0.1c0,0,0.1,0,0.1,0c0.1-0.1,0.2-0.2,0.4-0.4c0,0.2-0.1,0.3-0.1,0.4c0.4-0.1,0.4-0.2,0.5-0.6c0-0.1,0-0.1,0.1-0.2
						c0.1,0,0.1,0.1,0.1,0.1c0.2,0.2,0.5,0.2,0.8,0.1c-0.6-0.2-0.7-0.3-0.7-0.5c0.4,0.3,0.6,0.4,0.9,0.3c-0.2-0.1-0.5-0.1-0.6-0.3
						l0,0c0.2,0.1,0.4,0.2,0.7,0.1c-0.2,0-0.3-0.1-0.4-0.1c0,0-0.1,0-0.1-0.1c0-0.1,0.1,0,0.1,0c0.2,0,0.3,0,0.5-0.1
						c-0.1-0.1-0.2-0.1-0.3-0.1c-0.4-0.1-0.5-0.4-0.3-0.7c0.1-0.2,0.2-0.2,0.3,0c0,0,0,0,0,0c0.1-0.3,0.1-0.7,0.4-0.9c0,0,0,0,0,0
						c0-0.3,0.2-0.6,0.2-0.9C264.3,19.2,264.5,18.2,264.4,17.2L264.4,17.2z M248.3,22.5c-0.1-0.3-0.1-0.6-0.1-0.9
						C248.4,21.8,248.5,22.2,248.3,22.5L248.3,22.5z M246.7,14.7c0-0.5,0.2-0.9,0.3-1.3C247.1,13.9,246.7,14.3,246.7,14.7
						L246.7,14.7z M246.7,12.8c0.1-0.6,0.5-1.1,0.7-1.7C247.3,11.7,246.9,12.2,246.7,12.8L246.7,12.8z M247.1,13.1
						c0-0.3,0.4-1.2,0.7-1.7C247.7,12,247.3,12.5,247.1,13.1L247.1,13.1z M252.2,14.4c-0.1,0.1-0.3,0.2-0.5,0.2
						C251.9,14.5,252,14.4,252.2,14.4L252.2,14.4z M249.5,8.2c0.6-0.6,1.4-0.8,2.2-0.9C250.9,7.4,250.2,7.9,249.5,8.2L249.5,8.2z
						 M251.3,15.8c0.1-0.1,0.3-0.2,0.4-0.4C251.6,15.6,251.4,15.8,251.3,15.8L251.3,15.8z M251.6,15.2
						C251.6,15.2,251.6,15.2,251.6,15.2C251.5,15.2,251.5,15.2,251.6,15.2c0.3-0.3,0.6-0.5,0.9-0.7c0,0,0,0,0,0.1
						C252.3,14.7,251.9,14.9,251.6,15.2L251.6,15.2z M259.2,12.6c-0.2-0.6,0-1.1,0.2-1.6C259.4,11.5,259.2,12,259.2,12.6L259.2,12.6
						z M259.5,12.9c0.1,0.5,0.2,0.9,0.4,1.4C259.6,13.9,259.4,13.4,259.5,12.9L259.5,12.9z M259.8,13.3
						C259.8,13.2,259.8,13.2,259.8,13.3C259.9,13.2,259.8,13.2,259.8,13.3c0.1,0.3,0.2,0.5,0.3,0.8
						C259.9,13.8,259.9,13.5,259.8,13.3L259.8,13.3z M261.3,8.4c-0.2-0.2-0.4-0.4-0.6-0.5c-0.1-0.1-0.2-0.1-0.3-0.3
						c-0.1-0.2-0.3-0.3-0.5-0.5c-0.1-0.1-0.1-0.1-0.2-0.2c0.4,0,1.5,1,1.8,1.7C261.4,8.6,261.3,8.5,261.3,8.4L261.3,8.4z
						 M259.4,26.7c-0.2,0.2-0.4,0.5-0.6,0.7c0,0-0.1,0.1-0.1,0c0.1-0.3,0.2-0.5,0.4-0.7c0.1-0.1,0.1-0.1,0.2-0.2
						c0.1,0,0.1,0,0.2,0.1C259.4,26.6,259.4,26.7,259.4,26.7L259.4,26.7z M262.6,12.6c-0.1-0.1-0.1-0.3-0.1-0.4
						c-0.1-0.5-0.2-1-0.5-1.4c0-0.1-0.1-0.1-0.1-0.2c0.5,0.8,0.7,1.6,1,2.4C262.7,12.9,262.7,12.8,262.6,12.6L262.6,12.6z M262,9.8
						c0.4,0.5,1.2,2.3,1.3,2.9C262.9,11.7,262.4,10.8,262,9.8L262,9.8z M262,9.8"/>
				</g>
				<g class="st57">
					<path class="st56" d="M250.6,29.4c-0.2-0.1-0.4-0.3-0.4-0.6c-0.2-0.6-0.3-1.2-0.4-1.8c0-0.3-0.1-0.6-0.2-0.9
						c-0.1-0.2-0.2-0.2-0.3,0c-0.2,0.3-0.4,0.7-0.6,1c-0.1,0.2-0.2,0.5-0.1,0.8c0.1,0.7,0.1,1.3,0.2,2c0,0.2,0,0.4-0.2,0.5
						c-0.5,0.5-1.1,0.8-1.8,1.1c-0.3,0.1-0.6,0.3-0.9,0.5c-0.1,0.1-0.2,0.2-0.1,0.3c0.1,0.2,0.3,0.3,0.5,0.3c0.2,0,0.3-0.1,0.4-0.2
						c0.1-0.2,0.2-0.3,0.3-0.5c0.3-0.4,0.8-0.5,1.2-0.3c0.2,0.1,0.4,0.3,0.6,0.4c-0.1-0.6,0.2-1,0.7-1.2c0.2-0.1,0.5-0.1,0.7-0.1
						c0.1,0,0.2,0,0.2-0.1c0.1-0.3,0.3-0.6,0.6-0.8c0.1-0.1,0.2-0.1,0.3-0.2c-0.2,0-0.3,0-0.5-0.1C250.8,29.5,250.7,29.4,250.6,29.4
						L250.6,29.4z M250.6,29.4"/>
				</g>
			</g>
			<g>
				<path class="st56" d="M256.3,22.1c-0.2,0.2-0.4,0.4-0.6,0.6c-0.2,0.2-0.5,0.2-0.8,0.3c0,0-0.1,0-0.1,0c-0.3-0.3-0.7-0.5-1.1-0.8
					c0.1,0.3,0.2,0.4,0.6,0.7c0.4,0.2,0.6,0.5,0.7,0.9c0,0.1,0.1,0.2,0.3,0.3c0.2,0.1,0.5,0,0.7,0c0.3,0,0.5-0.1,0.6-0.5
					c0.1-0.2,0.2-0.4,0.3-0.6c0.2-0.6,0.1-1.2,0-1.7c0-0.1-0.1-0.3-0.2-0.4c-0.1-0.1-0.2-0.1-0.3,0c-0.1,0.1,0,0.1,0,0.2
					c0,0.1,0.1,0.1,0.2,0.2c0.2,0.2,0.2,0.4,0.2,0.7c0,0,0,0.1-0.1,0.1c-0.1,0-0.1-0.1-0.1-0.1c0-0.1,0-0.2-0.1-0.3
					C256.7,21.8,256.5,21.9,256.3,22.1L256.3,22.1z M256.3,22.1"/>
			</g>
			<g>
				<path class="st56" d="M252.2,28.1c-0.4-0.4-0.7-0.8-1.1-1.2c-0.4-0.4-0.8-0.9-1.1-1.4c-0.2-0.2-0.4-0.4-0.6-0.6c0,0-0.1,0-0.1,0
					c-0.2,0.1-0.5,0.2-0.7,0.3c0.2,0,0.4,0.1,0.7,0.1c-0.1,0.1-0.2,0.1-0.3,0.2c0.1,0,0.3,0,0.4,0c0.2,0,0.4,0,0.5,0.2
					c0.6,1,1.3,1.9,2,2.9c0.2,0.3,0.2,0.5,0.1,0.8c0,0,0,0,0,0.1c0.2-0.1,0.2-0.5,0.5-0.6c0.2-0.1,0.5-0.2,0.7-0.4
					C252.7,28.5,252.4,28.4,252.2,28.1L252.2,28.1z M252.2,28.1"/>
			</g>
			<g>
				<path class="st56" d="M255.8,25c0.5,0,1-0.2,1.5-0.1c0.4,0,0.7-0.2,1-0.5c0.1-0.1,0.1-0.3-0.1-0.3c-0.2,0-0.4-0.1-0.6-0.1
					c-0.3,0-0.7,0-1,0c-0.1,0-0.2,0-0.3,0.1c0.4,0.2,0.9,0.1,1.3,0.1c0,0.1-0.1,0.2-0.2,0.3c-0.1,0-0.3,0-0.4,0
					c-0.5,0-0.9,0-1.4,0.3c-0.3,0.1-0.6,0.2-0.9,0.1c-0.7-0.1-1.4-0.1-2.1-0.2c-0.1,0-0.1,0-0.2,0c-0.1,0-0.2,0-0.2,0.1
					c0,0.1,0.1,0.1,0.2,0.1c0.5,0.1,1,0.1,1.4,0.1C254.6,25,255.2,25,255.8,25L255.8,25z M255.8,25"/>
			</g>
			<g>
				<path class="st56" d="M247.8,23.8c-0.2,0.2-0.5,0.2-0.8,0.2c-0.1,0-0.2,0-0.3,0c-0.1,0-0.2,0-0.3,0c0.5,0.1,1.1,0.2,1.6,0
					c-0.4,0.2-0.8,0.1-1.2,0.2c0.2,0,0.4,0,0.6,0c-0.2,0.1-0.3,0.1-0.5,0.2c0.2,0.1,0.4,0,0.6,0c0.3-0.1,0.6-0.2,0.9-0.2
					c0.3,0,0.5,0.1,0.8,0.2c-0.2-0.6-0.4-1.1-0.5-1.8c-0.2,0.2-0.4,0.4-0.6,0.5c0,0-0.1,0,0,0.1C248.2,23.6,248,23.7,247.8,23.8
					L247.8,23.8z M247.8,23.8"/>
			</g>
			<g>
				<path class="st56" d="M260.2,6.4c0.4,0.2,0.8,0.5,1.1,0.8c0.1,0.1,0.3,0.3,0.4,0.4c0.2,0.4,0.5,0.8,0.7,1.1
					c0.4,0.7,0.9,1.3,1.2,2.1c0.1,0.2,0.2,0.5,0.3,0.7c0-0.1,0-0.1,0-0.1c-0.1-0.6-0.3-1.1-0.7-1.6c-0.3-0.3-0.5-0.7-0.7-1.1
					c-0.4-0.8-0.9-1.4-1.5-1.9c-0.3-0.2-0.6-0.4-0.9-0.5C260.1,6.3,260.1,6.3,260.2,6.4L260.2,6.4z M260.2,6.4"/>
			</g>
			<g>
				<path class="st56" d="M256.7,26.2c0.3-0.2,0.5-0.6,0.8-0.8c-0.2,0-0.4,0.1-0.5,0.3c-0.2,0.2-0.4,0.3-0.7,0.2c0,0-0.1,0-0.1,0
					c-0.5-0.1-0.9,0-1.4,0c-0.1,0-0.2,0.1-0.3,0.1c0,0-0.1,0.1-0.1,0.1c0,0.1,0.1,0,0.1,0c0.2,0,0.4-0.1,0.7-0.1
					c0.3,0,0.7-0.1,0.9,0.1C256.4,26.3,256.6,26.3,256.7,26.2L256.7,26.2z M256.7,26.2"/>
			</g>
			<g>
				<path class="st56" d="M256.1,29.1c0,0.6,0.7,1.7,1.5,2.6c-0.2-0.5-0.6-0.8-0.8-1.3C256.5,30.1,256.4,29.5,256.1,29.1L256.1,29.1
					z M256.1,29.1"/>
			</g>
			<g>
				<path class="st56" d="M259,18.3c-0.4,0-0.9,0.1-1.3,0C258.2,18.4,258.6,18.6,259,18.3L259,18.3z M259,18.3"/>
			</g>
			<g>
				<path class="st56" d="M251.5,18.2c0.5,0.2,0.9,0.1,1.4,0C252.4,18.2,251.9,18.2,251.5,18.2L251.5,18.2z M251.5,18.2"/>
			</g>
			<g>
				<path class="st56" d="M255.2,28.3c0.2,0.2,0.3,0.3,0.5,0.4c0-0.2,0-0.4,0-0.7C255.7,28.4,255.4,28.3,255.2,28.3L255.2,28.3z
					 M255.2,28.3"/>
			</g>
			<g>
				<path class="st56" d="M262.4,9.2c-0.2-0.4-0.4-0.8-0.7-1.1C262,8.5,262.1,8.9,262.4,9.2L262.4,9.2z M262.4,9.2"/>
			</g>
			<g>
				<path class="st56" d="M249.5,24.8c-0.2-0.2-0.6-0.2-0.8,0C248.9,24.8,249.2,24.7,249.5,24.8L249.5,24.8z M249.5,24.8"/>
			</g>
			<g>
				<path d="M259.8,22.6C259.8,22.6,259.9,22.6,259.8,22.6C259.9,22.6,259.9,22.6,259.8,22.6C259.9,22.6,259.9,22.6,259.8,22.6
					C259.8,22.6,259.8,22.6,259.8,22.6L259.8,22.6z M259.8,22.6"/>
			</g>
			<g>
				<path d="M259.8,22.6C259.8,22.6,259.8,22.6,259.8,22.6C259.8,22.6,259.8,22.6,259.8,22.6C259.8,22.6,259.8,22.6,259.8,22.6
					L259.8,22.6z M259.8,22.6"/>
			</g>
		</g>
		<g>
			<path class="st56" d="M192.2,35.6h-26V2.4h26V35.6z M167.2,34.6h24V3.4h-24V34.6z"/>
		</g>
		<g>
			<path class="st56" d="M229.5,35.6h-26V2.4h26V35.6z M204.6,34.6h24V3.4h-24V34.6z"/>
		</g>
		<g>
			<path class="st56" d="M268.4,35.6h-26V2.4h26V35.6z M243.4,34.6h24V3.4h-24V34.6z"/>
		</g>
		<g>
			<path class="st56" d="M218.6,31.5c0-0.5-0.2-0.9-0.7-1.2c-0.7-0.5-1.2-1.1-1.8-1.7c-0.3,0.6-0.1,1.1,0.1,1.6
				c0.4,1.3,0.3,2.6,0.4,4c0,0.6-0.1,0.8-0.7,0.8c-3.8,0-7.5,0-11.3,0c-0.5,0-0.7-0.1-0.7-0.6c0.1-1.2-0.4-2.5,0.5-3.6
				c0.2-0.3,0-0.6,0-0.9c-0.4-2.1,0.8-3.6,2.9-3.5c1.3,0,2.5-0.4,3.6-1c1.1-0.5,2.2-0.7,3.3-1c0.7-0.2,0.6,0.4,0.7,0.7
				c0.7,1.5,1.4,3,2.9,3.8c0.9,0.5,3.1,0,3.8-0.8c0.4-0.5,0.8-1,1.4-1.3c0.5-0.3,0.8-0.8,0.8-1.3c-0.1-1.5,1-2.5,1.4-4.1
				c0.3,0.8,0.2,1.4,1.1,1.4c0.4,0,0.1,0.5,0,0.9c-0.3,0.9,0.3,1.7,1.3,1.5c1.7-0.2,1.8-0.2,1.8,1.5c0,2.4,0,4.8,0,7.2
				c0,0.7-0.1,1-0.9,1c-1.4-0.1-2.8-0.1-4.1,0c-0.8,0-0.9-0.3-0.9-1c0-1.5,0.3-3,0.5-4.4c0-0.2,0-0.4-0.1-0.5
				c0.2-0.1,0.2-0.3,0.1-0.4c-0.1-0.1-0.2,0.1-0.3,0.2c-1.2,0.6-2,1.7-3.2,2.2C219.8,31,219.3,31.5,218.6,31.5z"/>
			<path class="st56" d="M227.2,20.9c-1.6-1-1.6-1-1.8,0.1c-1.6,0.3-3.2-1.2-4.9-0.1c0,0-0.1,0,0-0.1c0.2-1.7,0.3-1.8,2-1.6
				c0.6,0.1,1.1-0.1,1.5-0.2c0.9-0.3,0.1-1.1,0.3-1.7c0.1-0.2-0.1-0.7,0-1.1c0.1-1-0.6-1.9-1.8-2.3c-2.4-0.9-4.4-0.2-6,1.6
				c-1.5,1.6-1.5,2.6,0.9,3.4c0.4,0.1,0.7,0.2,1.1,0.3c0.4,0.1,0.5,0.6,0.4,0.8c-0.1,0.4-0.5,0.2-0.7,0.1c-0.5-0.3-0.8-0.3-1.3,0
				c-0.7,0.5-1.9-0.1-2.3-1c-0.1-0.2-0.1-0.2-0.3-0.3c-0.9-0.2-1.4-1-1.2-1.9c0-0.1,0.1-0.2,0.1-0.3c-0.7-1.3-0.1-2.5,0.6-3.5
				c0.8-1.2,1.8-2,3.3-2.4c0.8-0.2,1.5-0.4,2.4-0.2c1,0.3,1.9,0.5,3,0.3c1.3-0.2,2.8,1.2,3.3,2.5c0.3,0.7,1.1,1,1.3,1.9
				C227.6,17.1,226.9,18.9,227.2,20.9z"/>
			<path class="st56" d="M217.7,27.2c0.7-0.3,1.3-0.1,1.9-0.2c0.3,0,0.6-0.3,0.6-0.6c0-0.3-0.4-0.2-0.6-0.3
				c-0.9-0.2-1.8,0.1-2.7-0.5c-0.1-0.1-0.3-0.1-0.2-0.3c0-0.2,0.2-0.2,0.4-0.2c1.5,0.3,3.1,0.7,4.6,0c0.2-0.1,0.4,0.1,0.5,0.2
				c0.1,0.1,0.1,0.3,0,0.4c-0.5,0.8-2.3,1.8-3.3,1.6C218.5,27.5,218.2,27.4,217.7,27.2z"/>
			<path class="st56" d="M218.6,31.5c0.7,0.1,1.2-0.4,1.9-0.5c0.4,1.3,0.1,2.6,0,4.2c-0.5-0.7-0.4-1.3-0.3-1.7
				c0-0.5,0.2-0.9-0.5-1.1c-0.7-0.2-0.7,0.4-0.8,1C218.4,32.6,218.5,32,218.6,31.5z"/>
			<path class="st56" d="M218.5,23.9c0.6-0.2,1.3,0,1.7-0.5c0.2-0.2,0.6-0.1,0.7,0.1c0.2,0.4-0.2,0.4-0.4,0.5
				C219.9,24.5,219.2,24.7,218.5,23.9z"/>
		</g>
	</g>
</g>
</svg>
