<?xml version="1.0" encoding="utf-8"?>
<!-- Generator: Adobe Illustrator 16.0.0, SVG Export Plug-In . SVG Version: 6.00 Build 0)  -->
<!DOCTYPE svg PUBLIC "-//W3C//DTD SVG 1.1//EN" "http://www.w3.org/Graphics/SVG/1.1/DTD/svg11.dtd">
<svg version="1.1" id="Layer_1" xmlns="http://www.w3.org/2000/svg" xmlns:xlink="http://www.w3.org/1999/xlink" x="0px" y="0px"
	 width="200.959px" height="101.927px" viewBox="0 0 200.959 101.927" enable-background="new 0 0 200.959 101.927"
	 xml:space="preserve">
<g>
	<linearGradient id="SVGID_1_" gradientUnits="userSpaceOnUse" x1="0" y1="38.7007" x2="44.627" y2="38.7007">
		<stop  offset="0" style="stop-color:#F37021"/>
		<stop  offset="1" style="stop-color:#EF3B24"/>
	</linearGradient>
	<path fill="url(#SVGID_1_)" d="M0,73.522V0h5.353v32.446c2.732-2.658,5.526-4.607,8.385-5.844c2.858-1.238,5.999-1.857,9.422-1.857
		c6.263,0,11.407,2.33,15.431,6.991c4.023,4.662,6.035,10.651,6.035,17.971c0,8.23-2.549,14.903-7.646,20.019
		c-5.099,5.116-11.763,7.675-19.993,7.675c-2.622,0-5.326-0.318-8.112-0.956C6.091,75.808,3.132,74.833,0,73.522z M5.353,67.787
		c1.566,1.348,3.377,2.358,5.435,3.032s4.361,1.011,6.91,1.011c6.045,0,10.989-2.021,14.831-6.063s5.763-9.285,5.763-15.731
		c0-5.863-1.603-10.67-4.808-14.42s-7.283-5.626-12.235-5.626c-2.986,0-5.799,0.747-8.439,2.24c-2.64,1.493-5.125,3.732-7.456,6.719
		V67.787z"/>
	<linearGradient id="SVGID_2_" gradientUnits="userSpaceOnUse" x1="55.0605" y1="38.2085" x2="60.7954" y2="38.2085">
		<stop  offset="0" style="stop-color:#F37021"/>
		<stop  offset="1" style="stop-color:#EF3B24"/>
	</linearGradient>
	<path fill="url(#SVGID_2_)" d="M55.061,9.286V0h5.735v9.286H55.061z M55.061,76.417V25.946h5.735v50.472H55.061z"/>
	<linearGradient id="SVGID_3_" gradientUnits="userSpaceOnUse" x1="69.0986" y1="63.936" x2="114.1621" y2="63.936">
		<stop  offset="0" style="stop-color:#F37021"/>
		<stop  offset="1" style="stop-color:#EF3B24"/>
	</linearGradient>
	<path fill="url(#SVGID_3_)" d="M84.611,60.631c-4.115-1.602-7.228-3.823-9.341-6.664c-2.111-2.84-3.168-6.208-3.168-10.105
		c0-3.131,0.783-6.017,2.349-8.658c1.566-2.639,3.806-4.87,6.719-6.691c1.493-0.911,3.205-1.566,5.134-1.967
		c1.93-0.4,4.953-0.601,9.068-0.601h18.79v4.807h-10.761c2.076,1.93,3.605,3.952,4.589,6.063c0.982,2.112,1.475,4.461,1.475,7.046
		c0,4.516-1.319,8.23-3.96,11.144s-6.746,5.171-12.317,6.773c-0.874,0.255-2.112,0.583-3.715,0.983
		c-5.826,1.457-8.739,3.514-8.739,6.172c0,2.477,4.006,4.098,12.017,4.862l0.601,0.054c7.866,0.765,13.246,2.148,16.141,4.151
		c2.896,2.003,4.343,5.135,4.343,9.396c0,4.88-1.912,8.521-5.735,10.925c-3.824,2.403-9.632,3.605-17.425,3.605
		c-6.992,0-12.336-1.156-16.032-3.469c-3.696-2.313-5.544-5.636-5.544-9.97c0-3.276,1.192-6.018,3.578-8.221s5.69-3.596,9.915-4.178
		c-2.222-0.51-3.934-1.375-5.135-2.595c-1.202-1.221-1.803-2.704-1.803-4.452c0-1.894,0.783-3.578,2.35-5.053
		C79.567,62.516,81.771,61.396,84.611,60.631z M91.33,78.875c-5.753,0-10.023,0.802-12.809,2.403
		c-2.786,1.603-4.179,4.042-4.179,7.32c0,2.768,1.448,4.915,4.343,6.445c2.895,1.529,6.964,2.294,12.208,2.294
		c5.754,0,10.114-0.811,13.083-2.431c2.967-1.621,4.452-4.015,4.452-7.184c0-2.985-1.394-5.207-4.18-6.663
		C101.463,79.604,97.157,78.875,91.33,78.875z M77.674,43.972c0,3.605,1.283,6.673,3.851,9.205c2.567,2.53,5.69,3.795,9.368,3.795
		c3.642,0,6.737-1.273,9.286-3.823c2.549-2.549,3.824-5.644,3.824-9.286c0-3.641-1.275-6.737-3.824-9.285
		c-2.549-2.549-5.644-3.824-9.286-3.824s-6.755,1.293-9.341,3.879C78.967,37.216,77.674,40.33,77.674,43.972z"/>
	<linearGradient id="SVGID_4_" gradientUnits="userSpaceOnUse" x1="121.8643" y1="38.2085" x2="127.5996" y2="38.2085">
		<stop  offset="0" style="stop-color:#F37021"/>
		<stop  offset="1" style="stop-color:#EF3B24"/>
	</linearGradient>
	<path fill="url(#SVGID_4_)" d="M121.864,76.417V0h5.735v76.417H121.864z"/>
	<linearGradient id="SVGID_5_" gradientUnits="userSpaceOnUse" x1="135.1924" y1="63.8813" x2="181.9502" y2="63.8813">
		<stop  offset="0" style="stop-color:#F37021"/>
		<stop  offset="1" style="stop-color:#EF3B24"/>
	</linearGradient>
	<path fill="url(#SVGID_5_)" d="M156.332,66.585l-21.14-40.64h6.282l17.916,34.358l16.769-34.358h5.791l-37.145,75.871h-5.681
		L156.332,66.585z"/>
	<linearGradient id="SVGID_6_" gradientUnits="userSpaceOnUse" x1="187.6533" y1="70.605" x2="200.959" y2="70.605">
		<stop  offset="0" style="stop-color:#F37021"/>
		<stop  offset="1" style="stop-color:#EF3B24"/>
	</linearGradient>
	<path fill="url(#SVGID_6_)" d="M187.653,70.6c0-4.133,2.795-7.037,6.709-7.037c3.915,0,6.597,2.904,6.597,7.037
		c0,4.033-2.572,7.047-6.71,7.047C190.34,77.647,187.653,74.633,187.653,70.6z"/>
</g>
</svg>
