<?xml version="1.0" encoding="utf-8"?>
<!-- Generator: Adobe Illustrator 21.0.2, SVG Export Plug-In . SVG Version: 6.00 Build 0)  -->
<svg version="1.1" id="Layer_1" xmlns="http://www.w3.org/2000/svg" xmlns:xlink="http://www.w3.org/1999/xlink" x="0px" y="0px"
	 viewBox="0 0 841.9 595.3" style="enable-background:new 0 0 841.9 595.3;" xml:space="preserve">
<style type="text/css">
	@import url('https://fonts.googleapis.com/css?family=Raleway:200,300,400,500,700,900');
	.st0{fill:#FFFFFF;stroke:#0E3C54;stroke-width:2;stroke-miterlimit:10;}
	.st1{fill:#E85224;}
	.st2{fill:#FE804C;stroke:#0E3C54;stroke-width:2;stroke-miterlimit:10;}
	.st3{fill:#F68D21;}
	.st4{fill:none;stroke:#087FBA;stroke-width:2;stroke-miterlimit:10;stroke-dasharray:11.9867,11.9867;}
	.st5{fill:#F46D22;stroke:#0E3C54;stroke-miterlimit:10;}
	.st6{fill:#E85224;stroke:#0E3C54;stroke-miterlimit:10;}
	.st7{fill:#48BEFE;}
	.st8{fill:#087FBA;}
	.st9{fill:#F46D22;}
	.st10{stroke:#0E3C54;stroke-miterlimit:10;}
	.st11{fill:#FFFFFF;stroke:#0E3C54;stroke-miterlimit:10;}
	.st12{fill:#D0E9FF;stroke:#0E3C54;stroke-miterlimit:10;}
	.st13{fill:#FFF6CC;stroke:#0E3C54;stroke-miterlimit:10;}
	.st14{  
		font-family: Raleway;
   }
	.st15{

	}
	.st16{font-size:27.5309px;}
	.st17{fill-rule:evenodd;clip-rule:evenodd;fill:url(#SVGID_1_);}
	.st18{fill-rule:evenodd;clip-rule:evenodd;fill:url(#SVGID_2_);}
	.st19{fill-rule:evenodd;clip-rule:evenodd;fill:url(#SVGID_3_);}
	.st20{fill-rule:evenodd;clip-rule:evenodd;fill:url(#SVGID_4_);}
	.st21{fill:#D5CB9E;}
	.st22{fill:#FFF6CC;}
	.st23{fill:#E6E7E8;}
</style>
<g>
	<g>
		<g>
			<g>
				<g>
					<path class="st0" d="M204.8,236.9c0-0.2-1.1-0.8-1.8-1.4h-20.5c-0.8,0.6-1.9,1.2-1.8,1.4v0.3h0v0.3h0c0.3,1.5,10,1.4,12.1,1.3
						c2.1,0,11.8,0.1,12.1-1.3l0,0V236.9v0.3V236.9z"/>
				</g>
			</g>
			<g>
				<g>
					<path class="st1" d="M201.1,225.8h-16.8c-1,10.9-1.3,9.1-1.3,9.1h0.1c0,0,0.1-0.1,0.1-0.1h19.1c0,0,0,0,0.1,0.1h0.1
						C202.4,234.9,202.1,236.7,201.1,225.8z"/>
				</g>
			</g>
			<g>
				<g>
					<path class="st1" d="M202.4,234.7h-19.3c-0.4,0.3-2.5,1.9-2.4,2.2c0.3,1.4,10,1.4,12.1,1.3c2.1,0,11.8,0.1,12.1-1.3
						C204.9,236.7,202.8,235.1,202.4,234.7z"/>
				</g>
			</g>
			<g>
				<g>
					<path class="st0" d="M232.4,226.1H153c-1.2,0-2.1-1-2.1-2.1v-53.1c0-1.2,1-2.1,2.1-2.1h79.4c1.2,0,2.1,1,2.1,2.1v53.1
						C234.6,225.1,233.6,226.1,232.4,226.1z M153,169.1c-1,0-1.8,0.8-1.8,1.8v53.1c0,1,0.8,1.8,1.8,1.8h79.4c1,0,1.8-0.8,1.8-1.8
						v-53.1c0-1-0.8-1.8-1.8-1.8H153z"/>
				</g>
			</g>
			<g>
				<g>
					<path class="st2" d="M232.4,168.9H153c-1.1,0-2,0.9-2,2v53.1c0,1.1,0.9,2,2,2h79.4c1.1,0,2-0.9,2-2v-53.1
						C234.4,169.8,233.5,168.9,232.4,168.9z M230.1,221.3h-74.6v-47.1h74.6V221.3z"/>
				</g>
			</g>
		</g>
		<g>
			<g>
				<g>
					<rect x="154" y="172.8" class="st3" width="77.5" height="49.1"/>
				</g>
			</g>
		</g>
	</g>
	<g>
		<circle class="st4" cx="405.1" cy="364.4" r="106.8"/>
	</g>
	<g>
		<g>
			<g>
				<path class="st5" d="M179.8,463.9h-72.7c-7,0-12.7-5.7-12.7-12.7v-15.9c0-7,5.7-12.7,12.7-12.7h72.7c7,0,12.7,5.7,12.7,12.7
					v15.9C192.5,458.2,186.9,463.9,179.8,463.9z"/>
			</g>
		</g>
		<g>
			<g>
				<path class="st6" d="M130.1,428.3l2.6,2.6v10.4l-2.6,2.6l2.6,2.6v11.1l-2.6,2.6h-13.5v-31.8H130.1z M126.8,441.4l0.6-0.6V434
					l-0.6-0.6h-4.9v8H126.8z M126.8,446.5h-4.9v8.4h4.9l0.6-0.6v-7.2L126.8,446.5z"/>
			</g>
			<g>
				<path class="st6" d="M152,457.5l-2.6,2.6h-10.7l-2.6-2.6v-29.2h5.3v26.1l0.6,0.6h4.1l0.6-0.6v-26.1h5.3V457.5z"/>
			</g>
			<g>
				<path class="st6" d="M166.9,460.1h-5.3V449l-7.3-20.7h5.8l4.1,13.4l4.1-13.4h5.8l-7.3,20.7V460.1z"/>
			</g>
		</g>
	</g>
	<g>
		<g>
			<g>
				<g>
					<path class="st7" d="M136.4,526.9c-24.8-2.2-46.8-15.5-60.5-36.3l2.3-1.5c13.2,20.1,34.5,32.9,58.4,35.1L136.4,526.9z"/>
				</g>
				<g>
					<path class="st8" d="M136.7,527.3l-0.3,0c-24.8-2.2-47-15.5-60.7-36.4l-0.2-0.2l2.8-1.8l0.2,0.2c13.2,20.1,34.4,32.8,58.2,34.9
						l0.3,0L136.7,527.3z M76.3,490.7c13.6,20.6,35.4,33.6,59.8,35.9l0.2-2.2c-23.8-2.2-45-14.9-58.2-34.9L76.3,490.7z"/>
				</g>
			</g>
			<g>
				<g>
					<path class="st7" d="M184.4,516.4l-1.4-2.4c14-8.1,25-20.2,31.8-34.8l2.5,1.2C210.3,495.5,198.9,507.9,184.4,516.4z"/>
				</g>
				<g>
					<path class="st8" d="M184.3,516.7l-1.7-2.9l0.2-0.1c13.9-8.1,24.9-20.1,31.7-34.7l0.1-0.3l3,1.4l-0.1,0.3
						c-7.1,15.2-18.5,27.8-33,36.2L184.3,516.7z M183.4,514.1l1.1,1.9c14.2-8.3,25.5-20.6,32.4-35.5l-2-0.9
						C208.2,494,197.3,505.9,183.4,514.1z"/>
				</g>
			</g>
			<g>
				<g>
					<path class="st7" d="M218.8,423.9c-7.9-26.5-29.5-47.1-56.3-53.7l0.7-2.7c27.8,6.8,50.2,28.2,58.3,55.6L218.8,423.9z"/>
				</g>
				<g>
					<path class="st8" d="M218.6,424.2l-0.1-0.3c-7.8-26.4-29.3-47-56.1-53.5l-0.3-0.1l0.8-3.3l0.3,0.1
						c27.9,6.9,50.4,28.3,58.5,55.8l0.1,0.3L218.6,424.2z M162.8,369.9c26.7,6.7,48.2,27.2,56.2,53.6l2.1-0.6
						c-8.2-27.2-30.3-48.2-57.8-55.1L162.8,369.9z"/>
				</g>
			</g>
			<g>
				<g>
					<path class="st7" d="M65.5,446.2h-2.8c0-32.7,19.4-62,49.5-74.7l1.1,2.6C84.2,386.3,65.5,414.7,65.5,446.2z"/>
				</g>
				<g>
					<path class="st8" d="M65.7,446.5h-3.4v-0.3c0-32.8,19.5-62.2,49.7-75l0.3-0.1l1.3,3.1l-0.3,0.1c-28.9,12.2-47.6,40.5-47.6,71.9
						V446.5z M63,445.9h2.2c0.1-31.4,18.8-59.7,47.7-72l-0.9-2C82.3,384.6,63.1,413.6,63,445.9z"/>
				</g>
			</g>
		</g>
		<g>
			<path class="st8" d="M143.7,511.8c-36.2,0-65.6-29.4-65.6-65.6c0-36.2,29.4-65.6,65.6-65.6s65.6,29.4,65.6,65.6
				C209.3,482.4,179.9,511.8,143.7,511.8z M143.7,382c-35.4,0-64.2,28.8-64.2,64.2c0,35.4,28.8,64.2,64.2,64.2
				c35.4,0,64.2-28.8,64.2-64.2C208,410.8,179.2,382,143.7,382z"/>
		</g>
	</g>
	<g>
		<g>
			<g>
				<g>
					<path class="st7" d="M182.1,286.8c-24.8-2.2-46.8-15.5-60.5-36.3l2.3-1.5c13.2,20.1,34.5,32.9,58.4,35.1L182.1,286.8z"/>
				</g>
				<g>
					<path class="st8" d="M182.4,287.1l-0.3,0c-24.8-2.2-47-15.5-60.7-36.4l-0.2-0.2l2.8-1.8l0.2,0.2c13.2,20.1,34.4,32.8,58.2,34.9
						l0.3,0L182.4,287.1z M122,250.6c13.6,20.6,35.4,33.6,59.8,35.9l0.2-2.2c-23.8-2.2-45-14.9-58.2-34.9L122,250.6z"/>
				</g>
			</g>
			<g>
				<g>
					<path class="st7" d="M230.1,276.2l-1.4-2.4c14-8.1,25-20.2,31.8-34.8l2.5,1.2C256,255.3,244.6,267.8,230.1,276.2z"/>
				</g>
				<g>
					<path class="st8" d="M230,276.6l-1.7-2.9l0.2-0.1c13.9-8.1,24.9-20.1,31.7-34.7l0.1-0.3l3,1.4l-0.1,0.3
						c-7.1,15.2-18.5,27.8-33,36.2L230,276.6z M229.1,273.9l1.1,1.9c14.2-8.3,25.5-20.6,32.4-35.5l-2-0.9
						C253.8,253.9,242.9,265.8,229.1,273.9z"/>
				</g>
			</g>
			<g>
				<g>
					<path class="st7" d="M264.5,183.8c-7.9-26.5-29.5-47.1-56.3-53.7l0.7-2.7c27.8,6.8,50.2,28.2,58.3,55.6L264.5,183.8z"/>
				</g>
				<g>
					<path class="st8" d="M264.3,184.1l-0.1-0.3c-7.8-26.4-29.3-47-56.1-53.5l-0.3-0.1l0.8-3.3l0.3,0.1
						c27.9,6.9,50.4,28.3,58.5,55.8l0.1,0.3L264.3,184.1z M208.5,129.8c26.7,6.7,48.2,27.2,56.2,53.6l2.1-0.6
						c-8.2-27.2-30.3-48.2-57.8-55.1L208.5,129.8z"/>
				</g>
			</g>
			<g>
				<g>
					<path class="st7" d="M111.1,206.1h-2.8c0-32.7,19.4-62,49.5-74.7l1.1,2.6C129.9,146.2,111.1,174.5,111.1,206.1z"/>
				</g>
				<g>
					<path class="st8" d="M111.4,206.4H108v-0.3c0-32.8,19.5-62.2,49.7-75l0.3-0.1l1.3,3.1l-0.3,0.1c-28.9,12.2-47.6,40.5-47.6,71.9
						V206.4z M108.6,205.8h2.2c0.1-31.4,18.8-59.7,47.7-72l-0.9-2C128,144.4,108.7,173.5,108.6,205.8z"/>
				</g>
			</g>
		</g>
		<g>
			<path class="st8" d="M189.4,271.7c-36.2,0-65.6-29.4-65.6-65.6c0-36.2,29.4-65.6,65.6-65.6s65.6,29.4,65.6,65.6
				C255,242.2,225.6,271.7,189.4,271.7z M189.4,141.9c-35.4,0-64.2,28.8-64.2,64.2c0,35.4,28.8,64.2,64.2,64.2
				c35.4,0,64.2-28.8,64.2-64.2C253.6,170.7,224.8,141.9,189.4,141.9z"/>
		</g>
	</g>
	<g>
		<g>
			<g>
				<g>
					<path class="st7" d="M394.1,197.2c-24.8-2.2-46.8-15.5-60.5-36.3l2.3-1.5c13.2,20.1,34.5,32.9,58.4,35.1L394.1,197.2z"/>
				</g>
				<g>
					<path class="st8" d="M394.3,197.5l-0.3,0c-24.8-2.2-47-15.5-60.7-36.4l-0.2-0.2l2.8-1.8l0.2,0.2c13.2,20.1,34.4,32.8,58.2,34.9
						l0.3,0L394.3,197.5z M334,161c13.6,20.6,35.4,33.6,59.8,35.9l0.2-2.2c-23.8-2.2-45-14.9-58.2-34.9L334,161z"/>
				</g>
			</g>
			<g>
				<g>
					<path class="st7" d="M442,186.6l-1.4-2.4c14-8.1,25-20.2,31.8-34.8l2.5,1.2C467.9,165.7,456.5,178.2,442,186.6z"/>
				</g>
				<g>
					<path class="st8" d="M441.9,187l-1.7-2.9l0.2-0.1c13.9-8.1,24.9-20.1,31.7-34.7l0.1-0.3l3,1.4l-0.1,0.3
						c-7.1,15.2-18.5,27.8-33,36.2L441.9,187z M441,184.3l1.1,1.9c14.2-8.3,25.5-20.6,32.4-35.5l-2-0.9
						C465.8,164.3,454.9,176.2,441,184.3z"/>
				</g>
			</g>
			<g>
				<g>
					<path class="st7" d="M476.5,94.1C468.6,67.6,447,47,420.1,40.4l0.7-2.7c27.8,6.8,50.2,28.2,58.3,55.6L476.5,94.1z"/>
				</g>
				<g>
					<path class="st8" d="M476.3,94.5l-0.1-0.3c-7.8-26.4-29.3-47-56.1-53.5l-0.3-0.1l0.8-3.3l0.3,0.1c27.9,6.9,50.4,28.3,58.5,55.8
						l0.1,0.3L476.3,94.5z M420.5,40.2c26.7,6.7,48.2,27.2,56.2,53.6l2.1-0.6C470.6,66,448.5,44.9,421,38.1L420.5,40.2z"/>
				</g>
			</g>
			<g>
				<g>
					<path class="st7" d="M323.1,116.4h-2.8c0-32.7,19.4-62,49.5-74.7l1.1,2.6C341.9,56.6,323.1,84.9,323.1,116.4z"/>
				</g>
				<g>
					<path class="st8" d="M323.4,116.7H320v-0.3c0-32.8,19.5-62.2,49.7-75l0.3-0.1l1.3,3.1l-0.3,0.1c-28.9,12.2-47.6,40.5-47.6,71.9
						V116.7z M320.6,116.2h2.2c0.1-31.4,18.8-59.7,47.7-72l-0.9-2C339.9,54.8,320.7,83.8,320.6,116.2z"/>
				</g>
			</g>
		</g>
		<g>
			<path class="st8" d="M401.4,182c-36.2,0-65.6-29.4-65.6-65.6c0-36.2,29.4-65.6,65.6-65.6S467,80.3,467,116.4
				C467,152.6,437.5,182,401.4,182z M401.4,52.2c-35.4,0-64.2,28.8-64.2,64.2c0,35.4,28.8,64.2,64.2,64.2
				c35.4,0,64.2-28.8,64.2-64.2C465.6,81,436.8,52.2,401.4,52.2z"/>
		</g>
	</g>
	<g>
		<g>
			<g>
				<g>
					<path class="st7" d="M605.8,278.8c-24.8-2.2-46.8-15.5-60.5-36.3l2.3-1.5c13.2,20.1,34.5,32.9,58.4,35.1L605.8,278.8z"/>
				</g>
				<g>
					<path class="st8" d="M606,279.1l-0.3,0c-24.8-2.2-47-15.5-60.7-36.4l-0.2-0.2l2.8-1.8l0.2,0.2c13.2,20.1,34.4,32.8,58.2,34.9
						l0.3,0L606,279.1z M545.7,242.5c13.6,20.6,35.4,33.6,59.8,35.9l0.2-2.2c-23.8-2.2-45-14.9-58.2-34.9L545.7,242.5z"/>
				</g>
			</g>
			<g>
				<g>
					<path class="st7" d="M653.7,268.2l-1.4-2.4c14-8.1,25-20.2,31.8-34.8l2.5,1.2C679.6,247.3,668.2,259.7,653.7,268.2z"/>
				</g>
				<g>
					<path class="st8" d="M653.6,268.6l-1.7-2.9l0.2-0.1c13.9-8.1,24.9-20.1,31.7-34.7l0.1-0.3l3,1.4l-0.1,0.3
						c-7.1,15.2-18.5,27.8-33,36.2L653.6,268.6z M652.7,265.9l1.1,1.9c14.2-8.3,25.5-20.6,32.4-35.5l-2-0.9
						C677.5,245.8,666.6,257.8,652.7,265.9z"/>
				</g>
			</g>
			<g>
				<g>
					<path class="st7" d="M688.2,175.7c-7.9-26.5-29.5-47.1-56.3-53.7l0.7-2.7c27.8,6.8,50.2,28.2,58.3,55.6L688.2,175.7z"/>
				</g>
				<g>
					<path class="st8" d="M688,176.1l-0.1-0.3c-7.8-26.4-29.3-47-56.1-53.5l-0.3-0.1l0.8-3.3l0.3,0.1c27.9,6.9,50.4,28.3,58.5,55.8
						l0.1,0.3L688,176.1z M632.2,121.7c26.7,6.7,48.2,27.2,56.2,53.6l2.1-0.6c-8.2-27.2-30.3-48.2-57.8-55.1L632.2,121.7z"/>
				</g>
			</g>
			<g>
				<g>
					<path class="st7" d="M534.8,198H532c0-32.7,19.4-62,49.5-74.7l1.1,2.6C553.6,138.1,534.8,166.5,534.8,198z"/>
				</g>
				<g>
					<path class="st8" d="M535.1,198.3h-3.4V198c0-32.8,19.5-62.2,49.7-75l0.3-0.1l1.3,3.1l-0.3,0.1c-28.9,12.2-47.6,40.5-47.6,71.9
						V198.3z M532.3,197.7h2.2c0.1-31.4,18.8-59.7,47.7-72l-0.9-2C551.6,136.4,532.4,165.4,532.3,197.7z"/>
				</g>
			</g>
		</g>
		<g>
			<path class="st8" d="M613.1,263.6c-36.2,0-65.6-29.4-65.6-65.6c0-36.2,29.4-65.6,65.6-65.6c36.2,0,65.6,29.4,65.6,65.6
				C678.7,234.2,649.2,263.6,613.1,263.6z M613.1,133.8c-35.4,0-64.2,28.8-64.2,64.2c0,35.4,28.8,64.2,64.2,64.2
				s64.2-28.8,64.2-64.2C677.3,162.6,648.5,133.8,613.1,133.8z"/>
		</g>
	</g>
	<g>
		<g>
			<g>
				<g>
					<path class="st7" d="M635.7,500.7c-24.8-2.2-46.8-15.5-60.5-36.3l2.3-1.5c13.2,20.1,34.5,32.9,58.4,35.1L635.7,500.7z"/>
				</g>
				<g>
					<path class="st8" d="M635.9,501l-0.3,0c-24.8-2.2-47-15.5-60.7-36.4l-0.2-0.2l2.8-1.8l0.2,0.2c13.2,20.1,34.4,32.8,58.2,34.9
						l0.3,0L635.9,501z M575.6,464.5c13.6,20.6,35.4,33.6,59.8,35.9l0.2-2.2c-23.8-2.2-45-14.9-58.2-34.9L575.6,464.5z"/>
				</g>
			</g>
			<g>
				<g>
					<path class="st7" d="M683.7,490.1l-1.4-2.4c14-8.1,25-20.2,31.8-34.8l2.5,1.2C709.5,469.2,698.1,481.7,683.7,490.1z"/>
				</g>
				<g>
					<path class="st8" d="M683.5,490.5l-1.7-2.9l0.2-0.1c13.9-8.1,24.9-20.1,31.7-34.7l0.1-0.3l3,1.4l-0.1,0.3
						c-7.1,15.2-18.5,27.8-33,36.2L683.5,490.5z M682.6,487.8l1.1,1.9c14.2-8.3,25.5-20.6,32.4-35.5l-2-0.9
						C707.4,467.8,696.5,479.7,682.6,487.8z"/>
				</g>
			</g>
			<g>
				<g>
					<path class="st7" d="M718.1,397.7c-7.9-26.5-29.5-47.1-56.3-53.7l0.7-2.7c27.8,6.8,50.2,28.2,58.3,55.6L718.1,397.7z"/>
				</g>
				<g>
					<path class="st8" d="M717.9,398l-0.1-0.3c-7.8-26.4-29.3-47-56.1-53.5l-0.3-0.1l0.8-3.3l0.3,0.1c27.9,6.9,50.4,28.3,58.5,55.8
						l0.1,0.3L717.9,398z M662.1,343.7c26.7,6.7,48.2,27.2,56.2,53.6l2.1-0.6c-8.2-27.2-30.3-48.2-57.8-55.1L662.1,343.7z"/>
				</g>
			</g>
			<g>
				<g>
					<path class="st7" d="M564.7,420h-2.8c0-32.7,19.4-62,49.5-74.7l1.1,2.6C583.5,360.1,564.7,388.4,564.7,420z"/>
				</g>
				<g>
					<path class="st8" d="M565,420.3h-3.4V420c0-32.8,19.5-62.2,49.7-75l0.3-0.1l1.3,3.1l-0.3,0.1C583.7,360.3,565,388.6,565,420
						V420.3z M562.2,419.7h2.2c0.1-31.4,18.8-59.7,47.7-72l-0.9-2C581.5,358.4,562.3,387.4,562.2,419.7z"/>
				</g>
			</g>
		</g>
		<g>
			<path class="st8" d="M643,485.6c-36.2,0-65.6-29.4-65.6-65.6c0-36.2,29.4-65.6,65.6-65.6c36.2,0,65.6,29.4,65.6,65.6
				C708.6,456.1,679.2,485.6,643,485.6z M643,355.8c-35.4,0-64.2,28.8-64.2,64.2c0,35.4,28.8,64.2,64.2,64.2
				c35.4,0,64.2-28.8,64.2-64.2C707.2,384.6,678.4,355.8,643,355.8z"/>
		</g>
	</g>
	<g>
		<g>
			<g>
				<g>
					<rect x="581.5" y="188.1" class="st5" width="68.6" height="40.1"/>
				</g>
				<g>
					<path class="st5" d="M650.5,228.6H581v-41h69.4V228.6z M581.9,227.8h67.7v-39.2h-67.7V227.8z"/>
				</g>
			</g>
		</g>
		<g>
			<g>
				<g>
					<rect x="578.4" y="168.4" class="st5" width="73.6" height="19.7"/>
				</g>
				<g>
					<path class="st5" d="M652.5,188.5H578v-20.6h74.5V188.5z M578.9,187.7h72.7v-18.9h-72.7V187.7z"/>
				</g>
			</g>
		</g>
	</g>
	<g>
		<g>
			<rect x="599.5" y="390.9" class="st9" width="64.3" height="49.2"/>
			<path class="st10" d="M663.9,440.5h-64.3c-0.3,0-0.5-0.2-0.5-0.5v-49.2c0-0.3,0.2-0.5,0.5-0.5h64.3c0.3,0,0.5,0.2,0.5,0.5v49.2
				C664.3,440.3,664.1,440.5,663.9,440.5z M600,439.6h63.4v-48.2H600V439.6z"/>
		</g>
		<g>
			<circle class="st11" cx="615.1" cy="440.1" r="9.6"/>
			<path class="st10" d="M615.1,450.1c-5.5,0-10-4.5-10-10c0-5.5,4.5-10,10-10c5.5,0,10,4.5,10,10
				C625.1,445.6,620.6,450.1,615.1,450.1z M615.1,431c-5,0-9.1,4.1-9.1,9.1c0,5,4.1,9.1,9.1,9.1c5,0,9.1-4.1,9.1-9.1
				C624.2,435,620.1,431,615.1,431z"/>
		</g>
		<g>
			<path class="st1" d="M663.9,400.2c0,0,20-4.2,22.8,14.9v11.6l3.7,6v7.3h-26.5V400.2z"/>
			<path class="st10" d="M690.4,440.5h-26.5c-0.3,0-0.5-0.2-0.5-0.5v-39.9c0-0.2,0.2-0.4,0.4-0.5c0.1,0,1.9-0.4,4.6-0.4
				c6.2,0,16.8,2,18.8,15.7l0,11.6l3.7,5.9c0,0.1,0.1,0.2,0.1,0.2v7.3C690.9,440.3,690.7,440.5,690.4,440.5z M664.3,439.6h25.6v-6.7
				l-3.7-5.9c0-0.1-0.1-0.2-0.1-0.2v-11.6c-1.9-12.9-12-14.9-17.8-14.9c-1.9,0-3.4,0.2-4,0.3V439.6z"/>
		</g>
		<g>
			<circle class="st11" cx="663.9" cy="440.1" r="9.6"/>
			<path class="st10" d="M663.9,450.1c-5.5,0-10-4.5-10-10c0-5.5,4.5-10,10-10c5.5,0,10,4.5,10,10
				C673.9,445.6,669.4,450.1,663.9,450.1z M663.9,431c-5,0-9.1,4.1-9.1,9.1c0,5,4.1,9.1,9.1,9.1c5,0,9.1-4.1,9.1-9.1
				C673,435,668.9,431,663.9,431z"/>
		</g>
		<g>
			<path class="st12" d="M668.5,404.7v13.1v7.1h13.6v-7.1C681.4,410.8,675.7,405.2,668.5,404.7z"/>
			<path class="st10" d="M682.1,425.4h-13.6c-0.3,0-0.5-0.2-0.5-0.5v-20.2c0-0.1,0.1-0.3,0.1-0.3c0.1-0.1,0.2-0.1,0.4-0.1
				c7.3,0.5,13.2,6.2,14,13.5l0,7.2C682.6,425.2,682.4,425.4,682.1,425.4z M669,424.5h12.7v-6.7c-0.7-6.6-6-11.9-12.7-12.6V424.5z"
				/>
		</g>
		<g>
			<path class="st10" d="M645.6,403.4h-33.8c-0.3,0-0.5-0.2-0.5-0.5c0-0.3,0.2-0.5,0.5-0.5h33.8c0.3,0,0.5,0.2,0.5,0.5
				C646.1,403.1,645.9,403.4,645.6,403.4z"/>
		</g>
		<g>
			<path class="st10" d="M636,413h-20.3c-0.3,0-0.5-0.2-0.5-0.5c0-0.3,0.2-0.5,0.5-0.5H636c0.3,0,0.5,0.2,0.5,0.5
				C636.5,412.7,636.3,413,636,413z"/>
		</g>
		<g>
			<path class="st10" d="M645.6,422.6h-33.8c-0.3,0-0.5-0.2-0.5-0.5c0-0.3,0.2-0.5,0.5-0.5h33.8c0.3,0,0.5,0.2,0.5,0.5
				C646.1,422.3,645.9,422.6,645.6,422.6z"/>
		</g>
		<g>
			<path class="st11" d="M645.6,402.9c-4.3,0-7.9,2.8-9.1,6.7h7.2v-1.7l6,4.7l-6,4.7v-1.3h-7c1.4,3.6,4.9,6.2,9,6.2
				c5.3,0,9.6-4.3,9.6-9.6C655.2,407.2,650.9,402.9,645.6,402.9z"/>
			<path class="st10" d="M645.6,422.6c-4.2,0-7.9-2.6-9.4-6.5c-0.1-0.1,0-0.3,0.1-0.4c0.1-0.1,0.2-0.2,0.4-0.2h7
				c0.3,0,0.5,0.2,0.5,0.5v0.4l4.8-3.7l-4.8-3.7v0.8c0,0.3-0.2,0.5-0.5,0.5h-7.2c-0.1,0-0.3-0.1-0.4-0.2c-0.1-0.1-0.1-0.3-0.1-0.4
				c1.3-4.2,5.2-7,9.6-7c5.6,0,10.1,4.5,10.1,10.1C655.7,418,651.2,422.6,645.6,422.6z M637.3,416.3c1.5,3.2,4.7,5.3,8.3,5.3
				c5,0,9.1-4.1,9.1-9.1c0-5-4.1-9.1-9.1-9.1c-3.8,0-7.1,2.3-8.5,5.7h6v-1.3c0-0.2,0.1-0.3,0.3-0.4c0.2-0.1,0.4-0.1,0.5,0l6,4.7
				c0.1,0.1,0.2,0.2,0.2,0.4s-0.1,0.3-0.2,0.4l-6,4.7c-0.1,0.1-0.3,0.1-0.5,0.1c-0.2-0.1-0.3-0.2-0.3-0.4v-0.8H637.3z"/>
		</g>
		<g>
			<path class="st13" d="M643.7,417.2l6-4.7l-6-4.7v1.7h-7.2c-0.3,0.9-0.5,1.9-0.5,2.9c0,1.2,0.2,2.3,0.6,3.4h7V417.2z"/>
			<path class="st10" d="M643.7,417.6c-0.1,0-0.1,0-0.2,0c-0.2-0.1-0.3-0.2-0.3-0.4v-0.8h-6.6c-0.2,0-0.4-0.1-0.4-0.3
				c-0.4-1.2-0.7-2.3-0.7-3.5c0-1,0.2-2.1,0.5-3.1c0.1-0.2,0.2-0.3,0.4-0.3h6.7v-1.3c0-0.2,0.1-0.3,0.3-0.4c0.2-0.1,0.4-0.1,0.5,0.1
				l6,4.7c0.1,0.1,0.2,0.2,0.2,0.4s-0.1,0.3-0.2,0.4l-6,4.7C643.9,417.6,643.8,417.6,643.7,417.6z M637,415.4h6.7
				c0.3,0,0.5,0.2,0.5,0.5v0.4l4.8-3.7l-4.8-3.7v0.8c0,0.3-0.2,0.5-0.5,0.5h-6.8c-0.2,0.8-0.3,1.6-0.3,2.5
				C636.5,413.5,636.6,414.4,637,415.4z"/>
		</g>
	</g>
	<text transform="matrix(1 0 0 1 29.087 333.2961)"><tspan x="0" y="0" class="st14 st15">Buyer Orders From </tspan><tspan x="7.7" y="22.9" class="st14 st15">Retailer&apos;s Website</tspan></text>
	<text transform="matrix(1 0 0 1 103.7446 65.9299)"><tspan x="0" y="0" class="st14 st15">Online Retailers </tspan><tspan x="0.5" y="22.9" class="st14 st15">forward order to </tspan><tspan x="-21.7" y="45.7" class="st14 st15">supplier with payment</tspan></text>
	<text transform="matrix(1 0 0 1 499.7683 45.7403)"><tspan x="0" y="0" class="st14 st15">Suppliers pack </tspan><tspan x="-4.8" y="22.9" class="st14 st15">the product with </tspan><tspan x="-8.5" y="45.7" class="st14 st15">retailers branding</tspan></text>
	<text transform="matrix(1 0 0 1 675.2661 278.7561)"><tspan x="0" y="0" class="st14 st15">Suppliers Ship </tspan><tspan x="3.2" y="22.9" class="st14 st15">the product to </tspan><tspan x="-18.2" y="45.7" class="st14 st15">customer&apos;s address</tspan></text>
	<text transform="matrix(1 0 0 1 687.2511 511.7872)"><tspan x="0" y="0" class="st14 st15">Customer Will </tspan><tspan x="-4.3" y="22.9" class="st14 st15">get the product </tspan><tspan x="-6.9" y="45.7" class="st14 st15">at their doorstep</tspan></text>
	<g>
		<text transform="matrix(1 0 0 1 378.0779 334.6121)"><tspan x="0" y="0" class="st14 st16">How </tspan><tspan x="-57.4" y="33" class="st14 st16">BiglyDropship </tspan><tspan x="-7.6" y="66.1" class="st14 st16">Works</tspan></text>
	</g>
	<linearGradient id="SVGID_1_" gradientUnits="userSpaceOnUse" x1="219.9948" y1="354.6989" x2="235.9948" y2="309.0322">
		<stop  offset="0" style="stop-color:#D14028"/>
		<stop  offset="1" style="stop-color:#E85224"/>
	</linearGradient>
	<path class="st17" d="M224.6,319.3c-12.3,7.4-16.4,23.7-8.9,36.2c3.3,5.6,8.5,9.4,14.2,11.5c-2.6-1.5-4.8-3.5-6.4-6.1
		c-5.5-9.1-1.3-21.5,9.4-27.9l2.7,4.4l9.1-20.8l-22.7-1.6L224.6,319.3z"/>
	<linearGradient id="SVGID_2_" gradientUnits="userSpaceOnUse" x1="290.554" y1="214.1203" x2="330.554" y2="188.7869">
		<stop  offset="0" style="stop-color:#D14028"/>
		<stop  offset="1" style="stop-color:#E85224"/>
	</linearGradient>
	<path class="st18" d="M323,187.8c-13.6-4.7-28.7,2.7-33.4,16.5c-2.1,6.1-1.8,12.6,0.4,18.2c-0.5-3-0.4-5.9,0.6-8.8
		c3.5-10.1,15.6-14.9,27.4-10.8l-1.7,4.9l21.8-6.4l-13.4-18.4L323,187.8z"/>
	<linearGradient id="SVGID_3_" gradientUnits="userSpaceOnUse" x1="473.999" y1="197.2159" x2="522.6656" y2="212.8826">
		<stop  offset="0" style="stop-color:#D14028"/>
		<stop  offset="1" style="stop-color:#E85224"/>
	</linearGradient>
	<path class="st19" d="M510.8,203.3c-6.5-12.9-22.4-18.1-35.4-11.6c-5.8,2.9-10,7.8-12.5,13.3c1.7-2.4,3.8-4.5,6.6-5.9
		c9.5-4.8,21.6,0.3,27.2,11.4l-4.6,2.3l20.1,10.7l3.3-22.5L510.8,203.3z"/>
	<linearGradient id="SVGID_4_" gradientUnits="userSpaceOnUse" x1="572.9346" y1="291.7996" x2="589.2679" y2="340.7996">
		<stop  offset="0" style="stop-color:#D14028"/>
		<stop  offset="1" style="stop-color:#E85224"/>
	</linearGradient>
	<path class="st20" d="M592.1,326.9c5.3-13.4-1.3-28.8-14.8-34.2c-6-2.4-12.5-2.4-18.2-0.5c3-0.3,5.9-0.1,8.8,1
		c9.9,3.9,14.1,16.3,9.5,27.9l-4.8-1.9l5.4,22.1l19.1-12.5L592.1,326.9z"/>
	<g>
		<rect x="363.5" y="89.2" class="st3" width="75.3" height="64.9"/>
		<path class="st3" d="M438.8,154.7h-75.3c-0.3,0-0.5-0.2-0.5-0.5V89.2c0-0.3,0.2-0.5,0.5-0.5h75.3c0.3,0,0.5,0.2,0.5,0.5v64.9
			C439.3,154.4,439,154.7,438.8,154.7z M364,153.7h74.3V89.7H364V153.7z"/>
		<g>
			<rect x="371.2" y="110.8" class="st9" width="60.4" height="43.4"/>
			<path d="M431.6,154.7h-60.4c-0.3,0-0.5-0.2-0.5-0.5v-43.4c0-0.3,0.2-0.5,0.5-0.5h60.4c0.3,0,0.5,0.2,0.5,0.5v43.4
				C432.1,154.4,431.9,154.7,431.6,154.7z M371.7,153.7h59.5v-42.4h-59.5V153.7z"/>
		</g>
		<g>
			<g>
				<rect x="395.4" y="138.5" class="st21" width="15.6" height="15.6"/>
				<path d="M411,154.7h-15.6c-0.3,0-0.5-0.2-0.5-0.5v-15.6c0-0.3,0.2-0.5,0.5-0.5H411c0.3,0,0.5,0.2,0.5,0.5v15.6
					C411.5,154.4,411.3,154.7,411,154.7z M395.9,153.7h14.6V139h-14.6V153.7z"/>
			</g>
			<g>
				<rect x="400.8" y="138.5" class="st22" width="4.8" height="4.5"/>
				<path d="M405.6,143.6h-4.8c-0.3,0-0.5-0.2-0.5-0.5v-4.5c0-0.3,0.2-0.5,0.5-0.5h4.8c0.3,0,0.5,0.2,0.5,0.5v4.5
					C406.1,143.4,405.8,143.6,405.6,143.6z M401.3,142.6h3.8V139h-3.8V142.6z"/>
			</g>
		</g>
		<g>
			<g>
				<rect x="375.6" y="138.5" class="st21" width="15.6" height="15.6"/>
				<path d="M391.2,154.7h-15.6c-0.3,0-0.5-0.2-0.5-0.5v-15.6c0-0.3,0.2-0.5,0.5-0.5h15.6c0.3,0,0.5,0.2,0.5,0.5v15.6
					C391.7,154.4,391.5,154.7,391.2,154.7z M376.1,153.7h14.6V139h-14.6V153.7z"/>
			</g>
			<g>
				<rect x="381" y="138.5" class="st22" width="4.8" height="4.5"/>
				<path d="M385.8,143.6H381c-0.3,0-0.5-0.2-0.5-0.5v-4.5c0-0.3,0.2-0.5,0.5-0.5h4.8c0.3,0,0.5,0.2,0.5,0.5v4.5
					C386.3,143.4,386.1,143.6,385.8,143.6z M381.5,142.6h3.8V139h-3.8V142.6z"/>
			</g>
		</g>
		<g>
			<g>
				<rect x="375.6" y="118.2" class="st21" width="15.6" height="15.6"/>
				<path d="M391.2,134.4h-15.6c-0.3,0-0.5-0.2-0.5-0.5v-15.6c0-0.3,0.2-0.5,0.5-0.5h15.6c0.3,0,0.5,0.2,0.5,0.5v15.6
					C391.7,134.1,391.5,134.4,391.2,134.4z M376.1,133.4h14.6v-14.6h-14.6V133.4z"/>
			</g>
			<g>
				<rect x="381" y="118.2" class="st22" width="4.8" height="4.5"/>
				<path d="M385.8,123.3H381c-0.3,0-0.5-0.2-0.5-0.5v-4.5c0-0.3,0.2-0.5,0.5-0.5h4.8c0.3,0,0.5,0.2,0.5,0.5v4.5
					C386.3,123.1,386.1,123.3,385.8,123.3z M381.5,122.3h3.8v-3.5h-3.8V122.3z"/>
			</g>
		</g>
		<g>
			<rect x="371.2" y="103.2" class="st1" width="60.4" height="7.6"/>
			<path class="st1" d="M431.6,111.3h-60.4c-0.3,0-0.5-0.2-0.5-0.5v-7.6c0-0.3,0.2-0.5,0.5-0.5h60.4c0.3,0,0.5,0.2,0.5,0.5v7.6
				C432.1,111.1,431.9,111.3,431.6,111.3z M371.7,110.3h59.5v-6.6h-59.5V110.3z"/>
		</g>
		<g>
			<path class="st23" d="M423.5,110.8v4.3c0,0.8,0.7,1.5,1.5,1.5c0.8,0,1.5-0.7,1.5-1.5v-4.3H423.5z"/>
			<path d="M425,117.1c-1.1,0-2-0.9-2-2v-4.3c0-0.3,0.2-0.5,0.5-0.5h3c0.3,0,0.5,0.2,0.5,0.5v4.3C427,116.2,426.1,117.1,425,117.1z
				 M424,111.3v3.8c0,0.6,0.4,1,1,1c0.6,0,1-0.4,1-1v-3.8H424z"/>
		</g>
		<g>
			<path d="M425.8,107.4H377c-0.3,0-0.5-0.2-0.5-0.5c0-0.3,0.2-0.5,0.5-0.5h48.8c0.3,0,0.5,0.2,0.5,0.5
				C426.3,107.2,426.1,107.4,425.8,107.4z"/>
		</g>
		<rect x="359.4" y="82.7" class="st1" width="83.9" height="6"/>
	</g>
</g>
</svg>
