<?xml version="1.0" encoding="utf-8"?>
<!-- Generator: Adobe Illustrator 16.0.0, SVG Export Plug-In . SVG Version: 6.00 Build 0)  -->
<!DOCTYPE svg PUBLIC "-//W3C//DTD SVG 1.1//EN" "http://www.w3.org/Graphics/SVG/1.1/DTD/svg11.dtd">
<svg version="1.1" id="Layer_1" xmlns="http://www.w3.org/2000/svg" xmlns:xlink="http://www.w3.org/1999/xlink" x="0px" y="0px"
	 width="694.698px" height="763.018px" viewBox="0 0 694.698 763.018" enable-background="new 0 0 694.698 763.018"
	 xml:space="preserve">
<image overflow="visible" width="3279" height="3240" xlink:href="CBB0018C.png"  transform="matrix(0.24 0 0 0.24 -57.7368 0)">
</image>
<image overflow="visible" width="2729" height="2762" xlink:href="CBB0018D.png"  transform="matrix(0.24 0 0 0.24 18.9214 54.2827)">
</image>
<image overflow="visible" width="2492" height="94" xlink:href="CBB0018B.png"  transform="matrix(0.24 0 0 0.24 37.8267 28.4985)">
</image>
<image overflow="visible" width="2728" height="89" xlink:href="CBB00194.png"  transform="matrix(0.24 0 0 0.24 19.002 716.4917)">
</image>
<image overflow="visible" width="2480" height="2427" xlink:href="CBB00197.png"  transform="matrix(0.24 0 0 0.24 42.4932 97.4844)">
</image>
<image overflow="visible" width="2480" height="2427" xlink:href="CBB00195.png"  transform="matrix(0.24 0 0 0.24 39.1602 96.6304)">
</image>
<path fill="#FFD177" d="M673.69,54.28c0.009-2.896,0.031-4.96-0.037-7.454c0-3.04-0.005-5.037-0.005-8.333
	c-0.324,0.261-8.704-7.334-9.567-8.066c-3.229,2.733-6.447,5.469-9.754,8.096c-3.186-2.7-6.358-5.412-9.534-8.096
	c-3.189,2.684-6.369,5.396-9.722,8.096c-1.596-1.356-3.198-2.72-4.787-4.067c-1.583-1.346-3.176-2.689-4.748-4.028
	c-3.183,2.684-6.361,5.396-9.721,8.096c-3.178-2.7-6.349-5.412-9.531-8.096c-3.182,2.684-6.362,5.396-9.718,8.096
	c-3.18-2.7-6.347-5.412-9.534-8.096c-3.182,2.684-6.353,5.396-9.718,8.096c-3.178-2.7-6.351-5.412-9.524-8.096
	c-3.19,2.684-6.371,5.396-9.773,8.096c-3.182-2.7-6.354-5.412-9.533-8.096c-3.173,2.684-6.352,5.396-9.72,8.096
	c-3.171-2.7-6.34-5.412-9.531-8.096c-3.171,2.684-6.354,5.396-9.717,8.096c-3.184-2.7-6.354-5.412-9.527-8.096
	c-0.929,0.778-1.851,1.558-2.772,2.349c-2.269,1.913-4.558,3.823-6.953,5.747c-3.175-2.7-6.354-5.412-9.526-8.096
	c-3.176,2.684-6.362,5.396-9.718,8.096c-3.18-2.7-6.354-5.412-9.531-8.096c-3.183,2.684-6.356,5.396-9.766,8.096
	c-3.164-2.7-6.324-5.412-9.489-8.096c-3.172,2.684-6.354,5.396-9.754,8.096c-3.19-2.7-6.372-5.412-9.548-8.096
	c-3.171,2.684-6.354,5.396-9.714,8.096c-3.177-2.7-6.359-5.412-9.532-8.096c-3.177,2.684-6.353,5.396-9.72,8.096
	c-3.177-2.7-6.355-5.412-9.532-8.096c-2.044,1.726-4.099,3.478-6.189,5.208c-1.158,0.963-2.338,1.922-3.528,2.887
	c-3.18-2.7-6.349-5.412-9.531-8.096c-3.183,2.684-6.353,5.396-9.714,8.096c-3.184-2.7-6.363-5.412-9.534-8.096
	c-3.175,2.684-6.32,5.344-9.59,8.048c-0.332,0.257-8.663-7.393-9.534-8.127c-3.222,2.738-6.445,5.475-9.758,8.103
	c-3.178-2.704-6.359-5.403-9.532-8.103c-3.181,2.7-6.363,5.399-9.716,8.103c-1.603-1.36-3.204-2.724-4.788-4.07
	c-1.588-1.343-3.174-2.69-4.749-4.033c-3.182,2.7-6.362,5.399-9.718,8.103c-3.178-2.704-6.353-5.403-9.542-8.103
	c-3.172,2.7-6.353,5.399-9.708,8.103c-3.181-2.704-6.353-5.403-9.536-8.103c-3.181,2.7-6.36,5.399-9.716,8.103
	c-3.178-2.704-6.354-5.403-9.533-8.103c-3.18,2.7-6.363,5.399-9.764,8.103c-3.181-2.704-6.358-5.403-9.535-8.103
	c-3.181,2.7-6.355,5.399-9.72,8.103c-3.176-2.704-6.348-5.403-9.535-8.103c-3.17,2.7-6.347,5.399-9.711,8.103
	c-3.183-2.704-6.359-5.403-9.535-8.103c-0.923,0.786-1.846,1.568-2.771,2.358c-2.274,1.913-4.562,3.833-6.948,5.745
	c-3.178-2.704-6.355-5.403-9.527-8.103c-3.182,2.7-6.367,5.399-9.728,8.103c-3.171-2.704-6.353-5.403-9.53-8.103
	c-3.173,2.7-6.354,5.399-9.76,8.103c-3.162-2.704-6.326-5.403-9.493-8.103c-3.173,2.7-6.344,5.399-9.75,8.103
	c-3.187-2.704-6.37-5.403-9.546-8.103c-3.171,2.7-6.359,5.399-9.716,8.103c-3.177-2.704-6.354-5.403-9.531-8.103
	c-3.173,2.7-6.359,5.399-9.72,8.103c-3.177-2.704-6.356-5.403-9.534-8.103c-2.044,1.74-4.091,3.481-6.189,5.217
	c-1.156,0.958-2.331,1.917-3.523,2.886c-3.183-2.704-6.358-5.403-9.537-8.103c-3.177,2.7-6.348,5.399-9.713,8.103
	c-3.183-2.704-6.359-5.403-9.536-8.103c-3.176,2.7-6.358,5.399-9.625,8.103c0,3.448,0,6.884,0,10.332c0,1.828,0,3.664,0,5.498
	c-0.023,0-0.05,0-0.073,0c-0.034,2.153,0.05,3.798,1.252,7.542c0.491,1.582,1.342,3.991,2.288,6.433
	c1.053,2.746,2.422,5.544,3.341,7.276c1.357,2.62,3.598,5.45,5.531,7.825c1.306,1.602,3.739,4.057,5.491,6.354
	c1.997,2.627,3.741,5.423,5.559,8.138c1.003,0,2.004,0,3.001,0c1.814,0,3.616,0,5.417,0c3.571,0,7.125,0.01,10.653,0.01
	c7.459,0.008,14.814,0.018,22.09,0.027c12.226,0.014,24.226,0.043,36.05,0.082c19.928,0.054,39.388,0.121,58.742,0.209
	c21.422,0.08,42.703,0.167,64.362,0.249c33.572,0.111,67.993,0.2,105.129,0.2c35.485,0,67.122-0.074,97.379-0.2
	c19.83-0.061,39.071-0.156,58.456-0.23c22.557-0.107,45.3-0.19,69.33-0.267c7.346-0.009,14.814-0.029,22.421-0.037
	c5.728-0.01,11.534-0.02,17.442-0.025c4.415-0.008,8.886-0.008,13.426-0.018c1.932,0,3.88,0,5.827,0c0.845,0,1.681,0,2.526,0
	c0.913,0,1.826,0,2.738,0c2.818-2.714,5.586-5.591,8.637-8.138c2.415-2.007,6.244-3.952,9.25-6.354
	c2.841-2.254,5.633-5.205,7.728-7.825c1.422-1.732,3.249-4.53,4.879-7.276c1.454-2.442,2.361-4.852,3.138-6.433
	c1.67-3.364,2.328-5.044,2.56-6.92c0.032,0,0.055,0,0.081,0c0-0.206,0-0.37,0-0.566c0.009-0.02,0.013-0.037,0.013-0.056
	C673.703,54.28,673.699,54.28,673.69,54.28z"/>
<path fill="#FFD177" d="M673.733,717.13c0-3.277-1.455-6.547-3.927-9.808c-1.11-1.469-3.813-4.304-5.298-5.782
	c-1.383-1.367-6.176-5.266-7.808-6.637c-4.65-3.89-5.535-3.89-11.214-7.782c-5.685-3.901-6.305-3.901-11.513-7.805
	c-0.913,0-1.837,0.01-2.768,0.01c-0.856,0-1.726,0.008-2.584,0.008c-2.015,0.021-4.048,0.039-6.099,0.067
	c-4.795,0.043-9.664,0.119-14.516,0.213c-6.484,0.122-12.961,0.253-19.218,0.374c-8.331,0.148-16.283,0.274-23.411,0.274
	c-23.346,0-45.061,0-66.546,0c-18.467,0-36.767,0-55.786,0c-29.022,0-59.734,0-95.213,0c-37.143,0-71.043,0-103.888,0
	c-21.208,0-41.973,0-62.888,0c-18.908,0-37.935,0-57.517,0c-11.627,0-23.432,0-35.555,0c-7.196,0-15.471-0.274-23.769-0.526
	c-3.931-0.122-7.864-0.241-11.696-0.31c-1.924-0.045-3.822-0.072-5.691-0.093c-1.035-0.008-2.048-0.018-3.047-0.018
	c-3.256,3.903-3.644,3.903-7.198,7.805c-3.552,3.893-4.105,3.893-7.021,7.782c-1,1.371-4.884,6.637-5.73,8.005
	c-0.938,1.48-1.764,2.945-2.447,4.414c-1.54,3.261-2.466,6.53-2.466,9.808c0.024,0,0.052,0,0.075,0c0,1.534,0,3.097,0,4.643
	c0,2.956,0,5.913,0,8.871c3.271,2.338,6.444,4.658,9.625,6.981c3.177-2.323,6.349-4.644,9.539-6.981
	c3.355,2.338,6.526,4.658,9.708,6.981c3.182-2.323,6.354-4.644,9.535-6.981c1.19,0.844,2.37,1.666,3.527,2.487
	c2.1,1.496,4.141,2.996,6.184,4.494c3.182-2.323,6.359-4.644,9.541-6.981c3.363,2.338,6.543,4.658,9.718,6.981
	c3.176-2.323,6.355-4.644,9.525-6.981c3.363,2.338,6.546,4.658,9.718,6.981c3.182-2.323,6.358-4.644,9.551-6.981
	c3.406,2.338,6.578,4.658,9.749,6.981c3.168-2.323,6.331-4.644,9.494-6.981c3.405,2.338,6.588,4.658,9.764,6.981
	c3.174-2.323,6.354-4.644,9.528-6.981c3.358,2.338,6.544,4.658,9.73,6.981c3.165-2.323,6.345-4.644,9.521-6.981
	c2.388,1.666,4.679,3.313,6.947,4.947c0.927,0.684,1.85,1.357,2.775,2.034c3.172-2.323,6.354-4.644,9.53-6.981
	c3.371,2.338,6.542,4.658,9.714,6.981c3.188-2.323,6.359-4.644,9.536-6.981c3.364,2.338,6.54,4.658,9.721,6.981
	c3.175-2.323,6.354-4.644,9.534-6.981c3.404,2.338,6.582,4.658,9.763,6.981c3.176-2.323,6.355-4.644,9.535-6.981
	c3.355,2.338,6.535,4.658,9.71,6.981c3.186-2.323,6.357-4.644,9.536-6.981c3.362,2.338,6.543,4.658,9.715,6.981
	c3.183-2.323,6.363-4.644,9.541-6.981c3.352,2.338,6.532,4.658,9.712,6.981c1.579-1.161,3.167-2.312,4.752-3.462
	c1.588-1.164,3.187-2.339,4.783-3.52c3.363,2.338,6.539,4.658,9.719,6.981c3.181-2.323,6.355-4.644,9.534-6.981
	c3.314,2.266,6.535,4.623,9.757,6.981c0.873-0.639,9.206-7.207,9.531-7.003c3.272,2.342,6.412,4.627,9.597,6.934
	c3.168-2.307,6.344-4.632,9.534-6.971c3.356,2.339,6.528,4.664,9.708,6.971c3.184-2.307,6.354-4.632,9.53-6.971
	c1.201,0.836,2.376,1.665,3.531,2.492c2.093,1.487,4.143,2.993,6.19,4.479c3.18-2.307,6.354-4.632,9.531-6.971
	c3.369,2.339,6.547,4.664,9.73,6.971c3.16-2.307,6.345-4.632,9.518-6.971c3.36,2.339,6.545,4.664,9.724,6.971
	c3.171-2.307,6.354-4.632,9.538-6.971c3.399,2.339,6.584,4.664,9.754,6.971c3.167-2.307,6.33-4.632,9.501-6.971
	c3.397,2.339,6.582,4.664,9.762,6.971c3.172-2.307,6.348-4.632,9.524-6.971c3.36,2.339,6.54,4.664,9.726,6.971
	c3.172-2.307,6.346-4.632,9.526-6.971c2.388,1.657,4.674,3.307,6.943,4.943c0.924,0.691,1.845,1.365,2.782,2.027
	c3.173-2.307,6.339-4.632,9.521-6.971c3.367,2.339,6.545,4.664,9.72,6.971c3.184-2.307,6.36-4.632,9.536-6.971
	c3.366,2.339,6.538,4.664,9.71,6.971c3.187-2.307,6.357-4.632,9.535-6.971c3.406,2.339,6.584,4.664,9.775,6.971
	c3.178-2.307,6.348-4.632,9.527-6.971c3.362,2.339,6.539,4.664,9.714,6.971c3.189-2.307,6.359-4.632,9.538-6.971
	c3.356,2.339,6.532,4.664,9.713,6.971c3.183-2.307,6.354-4.632,9.535-6.971c3.363,2.339,6.536,4.664,9.719,6.971
	c1.578-1.149,3.169-2.301,4.744-3.47c1.597-1.162,3.195-2.319,4.789-3.501c3.354,2.339,6.536,4.664,9.725,6.971
	c3.172-2.307,6.344-4.632,9.53-6.971c3.313,2.266,6.532,4.625,9.757,6.971c0.861-0.626,9.24-7.153,9.566-6.95
	c0-2.825,0.005-4.55,0.005-7.148c0.074-2.129,0.044-3.896,0.039-6.327C673.679,717.13,673.703,717.13,673.733,717.13z"/>
<path opacity="0.7" fill="#FECB84" d="M673.69,54.28c0.009-2.896,0.031-4.96-0.037-7.454c0-3.04-0.005-5.037-0.005-8.333
	c-0.324,0.261-8.704-7.334-9.567-8.066c-3.229,2.733-6.447,5.469-9.754,8.096c-3.186-2.7-6.358-5.412-9.534-8.096
	c-3.189,2.684-6.369,5.396-9.722,8.096c-1.596-1.356-3.198-2.72-4.787-4.067c-1.583-1.346-3.176-2.689-4.748-4.028
	c-3.183,2.684-6.361,5.396-9.721,8.096c-3.178-2.7-6.349-5.412-9.531-8.096c-3.182,2.684-6.362,5.396-9.718,8.096
	c-3.18-2.7-6.347-5.412-9.534-8.096c-3.182,2.684-6.353,5.396-9.718,8.096c-3.178-2.7-6.351-5.412-9.524-8.096
	c-3.19,2.684-6.371,5.396-9.773,8.096c-3.182-2.7-6.354-5.412-9.533-8.096c-3.173,2.684-6.352,5.396-9.72,8.096
	c-3.171-2.7-6.34-5.412-9.531-8.096c-3.171,2.684-6.354,5.396-9.717,8.096c-3.184-2.7-6.354-5.412-9.527-8.096
	c-0.929,0.778-1.851,1.558-2.772,2.349c-2.269,1.913-4.558,3.823-6.953,5.747c-3.175-2.7-6.354-5.412-9.526-8.096
	c-3.176,2.684-6.362,5.396-9.718,8.096c-3.18-2.7-6.354-5.412-9.531-8.096c-3.183,2.684-6.356,5.396-9.766,8.096
	c-3.164-2.7-6.324-5.412-9.489-8.096c-3.172,2.684-6.354,5.396-9.754,8.096c-3.19-2.7-6.372-5.412-9.548-8.096
	c-3.171,2.684-6.354,5.396-9.714,8.096c-3.177-2.7-6.359-5.412-9.532-8.096c-3.177,2.684-6.353,5.396-9.72,8.096
	c-3.177-2.7-6.355-5.412-9.532-8.096c-2.044,1.726-4.099,3.478-6.189,5.208c-1.158,0.963-2.338,1.922-3.528,2.887
	c-3.18-2.7-6.349-5.412-9.531-8.096c-3.183,2.684-6.353,5.396-9.714,8.096c-3.184-2.7-6.363-5.412-9.534-8.096
	c-3.175,2.684-6.32,5.344-9.59,8.048c-0.332,0.257-8.663-7.393-9.534-8.127c-3.222,2.738-6.445,5.475-9.758,8.103
	c-3.178-2.704-6.359-5.403-9.532-8.103c-3.181,2.7-6.363,5.399-9.716,8.103c-1.603-1.36-3.204-2.724-4.788-4.07
	c-1.588-1.343-3.174-2.69-4.749-4.033c-3.182,2.7-6.362,5.399-9.718,8.103c-3.178-2.704-6.353-5.403-9.542-8.103
	c-3.172,2.7-6.353,5.399-9.708,8.103c-3.181-2.704-6.353-5.403-9.536-8.103c-3.181,2.7-6.36,5.399-9.716,8.103
	c-3.178-2.704-6.354-5.403-9.533-8.103c-3.18,2.7-6.363,5.399-9.764,8.103c-3.181-2.704-6.358-5.403-9.535-8.103
	c-3.181,2.7-6.355,5.399-9.72,8.103c-3.176-2.704-6.348-5.403-9.535-8.103c-3.17,2.7-6.347,5.399-9.711,8.103
	c-3.183-2.704-6.359-5.403-9.535-8.103c-0.923,0.786-1.846,1.568-2.771,2.358c-2.274,1.913-4.562,3.833-6.948,5.745
	c-3.178-2.704-6.355-5.403-9.527-8.103c-3.182,2.7-6.367,5.399-9.728,8.103c-3.171-2.704-6.353-5.403-9.53-8.103
	c-3.173,2.7-6.354,5.399-9.76,8.103c-3.162-2.704-6.326-5.403-9.493-8.103c-3.173,2.7-6.344,5.399-9.75,8.103
	c-3.187-2.704-6.37-5.403-9.546-8.103c-3.171,2.7-6.359,5.399-9.716,8.103c-3.177-2.704-6.354-5.403-9.531-8.103
	c-3.173,2.7-6.359,5.399-9.72,8.103c-3.177-2.704-6.356-5.403-9.534-8.103c-2.044,1.74-4.091,3.481-6.189,5.217
	c-1.156,0.958-2.331,1.917-3.523,2.886c-3.183-2.704-6.358-5.403-9.537-8.103c-3.177,2.7-6.348,5.399-9.713,8.103
	c-3.183-2.704-6.359-5.403-9.536-8.103c-3.176,2.7-6.358,5.399-9.625,8.103c0,3.448,0,6.884,0,10.332c0,1.828,0,3.664,0,5.498
	c-0.023,0-0.05,0-0.073,0c-0.034,2.153,0.05,3.798,1.252,7.542c0.491,1.582,1.342,3.991,2.288,6.433
	c1.053,2.746,2.422,5.544,3.341,7.276c1.357,2.62,3.598,5.45,5.531,7.825c1.306,1.602,3.739,4.057,5.491,6.354
	c1.997,2.627,3.741,5.423,5.559,8.138c1.003,0,2.004,0,3.001,0c1.814,0,3.616,0,5.417,0c3.571,0,7.125,0.01,10.653,0.01
	c7.459,0.008,14.814,0.018,22.09,0.027c12.226,0.014,24.226,0.043,36.05,0.082c19.928,0.054,39.388,0.121,58.742,0.209
	c21.422,0.08,42.703,0.167,64.362,0.249c33.572,0.111,67.993,0.2,105.129,0.2c35.485,0,67.122-0.074,97.379-0.2
	c19.83-0.061,39.071-0.156,58.456-0.23c22.557-0.107,45.3-0.19,69.33-0.267c7.346-0.009,14.814-0.029,22.421-0.037
	c5.728-0.01,11.534-0.02,17.442-0.025c4.415-0.008,8.886-0.008,13.426-0.018c1.932,0,3.88,0,5.827,0c0.845,0,1.681,0,2.526,0
	c0.913,0,1.826,0,2.738,0c2.818-2.714,5.586-5.591,8.637-8.138c2.415-2.007,6.244-3.952,9.25-6.354
	c2.841-2.254,5.633-5.205,7.728-7.825c1.422-1.732,3.249-4.53,4.879-7.276c1.454-2.442,2.361-4.852,3.138-6.433
	c1.67-3.364,2.328-5.044,2.56-6.92c0.032,0,0.055,0,0.081,0c0-0.206,0-0.37,0-0.566c0.009-0.02,0.013-0.037,0.013-0.056
	C673.703,54.28,673.699,54.28,673.69,54.28z"/>
<path opacity="0.7" fill="#FECB84" d="M673.733,717.13c0-3.277-1.455-6.547-3.927-9.808c-1.11-1.469-3.813-4.304-5.298-5.782
	c-1.383-1.367-6.176-5.266-7.808-6.637c-4.65-3.89-5.535-3.89-11.214-7.782c-5.685-3.901-6.305-3.901-11.513-7.805
	c-0.913,0-1.837,0.01-2.768,0.01c-0.856,0-1.726,0.008-2.584,0.008c-2.015,0.021-4.048,0.039-6.099,0.067
	c-4.795,0.043-9.664,0.119-14.516,0.213c-6.484,0.122-12.961,0.253-19.218,0.374c-8.331,0.148-16.283,0.274-23.411,0.274
	c-23.346,0-45.061,0-66.546,0c-18.467,0-36.767,0-55.786,0c-29.022,0-59.734,0-95.213,0c-37.143,0-71.043,0-103.888,0
	c-21.208,0-41.973,0-62.888,0c-18.908,0-37.935,0-57.517,0c-11.627,0-23.432,0-35.555,0c-7.196,0-15.471-0.274-23.769-0.526
	c-3.931-0.122-7.864-0.241-11.696-0.31c-1.924-0.045-3.822-0.072-5.691-0.093c-1.035-0.008-2.048-0.018-3.047-0.018
	c-3.256,3.903-3.644,3.903-7.198,7.805c-3.552,3.893-4.105,3.893-7.021,7.782c-1,1.371-4.884,6.637-5.73,8.005
	c-0.938,1.48-1.764,2.945-2.447,4.414c-1.54,3.261-2.466,6.53-2.466,9.808c0.024,0,0.052,0,0.075,0c0,1.534,0,3.097,0,4.643
	c0,2.956,0,5.913,0,8.871c3.271,2.338,6.444,4.658,9.625,6.981c3.177-2.323,6.349-4.644,9.539-6.981
	c3.355,2.338,6.526,4.658,9.708,6.981c3.182-2.323,6.354-4.644,9.535-6.981c1.19,0.844,2.37,1.666,3.527,2.487
	c2.1,1.496,4.141,2.996,6.184,4.494c3.182-2.323,6.359-4.644,9.541-6.981c3.363,2.338,6.543,4.658,9.718,6.981
	c3.176-2.323,6.355-4.644,9.525-6.981c3.363,2.338,6.546,4.658,9.718,6.981c3.182-2.323,6.358-4.644,9.551-6.981
	c3.406,2.338,6.578,4.658,9.749,6.981c3.168-2.323,6.331-4.644,9.494-6.981c3.405,2.338,6.588,4.658,9.764,6.981
	c3.174-2.323,6.354-4.644,9.528-6.981c3.358,2.338,6.544,4.658,9.73,6.981c3.165-2.323,6.345-4.644,9.521-6.981
	c2.388,1.666,4.679,3.313,6.947,4.947c0.927,0.684,1.85,1.357,2.775,2.034c3.172-2.323,6.354-4.644,9.53-6.981
	c3.371,2.338,6.542,4.658,9.714,6.981c3.188-2.323,6.359-4.644,9.536-6.981c3.364,2.338,6.54,4.658,9.721,6.981
	c3.175-2.323,6.354-4.644,9.534-6.981c3.404,2.338,6.582,4.658,9.763,6.981c3.176-2.323,6.355-4.644,9.535-6.981
	c3.355,2.338,6.535,4.658,9.71,6.981c3.186-2.323,6.357-4.644,9.536-6.981c3.362,2.338,6.543,4.658,9.715,6.981
	c3.183-2.323,6.363-4.644,9.541-6.981c3.352,2.338,6.532,4.658,9.712,6.981c1.579-1.161,3.167-2.312,4.752-3.462
	c1.588-1.164,3.187-2.339,4.783-3.52c3.363,2.338,6.539,4.658,9.719,6.981c3.181-2.323,6.355-4.644,9.534-6.981
	c3.314,2.266,6.535,4.623,9.757,6.981c0.873-0.639,9.206-7.207,9.531-7.003c3.272,2.342,6.412,4.627,9.597,6.934
	c3.168-2.307,6.344-4.632,9.534-6.971c3.356,2.339,6.528,4.664,9.708,6.971c3.184-2.307,6.354-4.632,9.53-6.971
	c1.201,0.836,2.376,1.665,3.531,2.492c2.093,1.487,4.143,2.993,6.19,4.479c3.18-2.307,6.354-4.632,9.531-6.971
	c3.369,2.339,6.547,4.664,9.73,6.971c3.16-2.307,6.345-4.632,9.518-6.971c3.36,2.339,6.545,4.664,9.724,6.971
	c3.171-2.307,6.354-4.632,9.538-6.971c3.399,2.339,6.584,4.664,9.754,6.971c3.167-2.307,6.33-4.632,9.501-6.971
	c3.397,2.339,6.582,4.664,9.762,6.971c3.172-2.307,6.348-4.632,9.524-6.971c3.36,2.339,6.54,4.664,9.726,6.971
	c3.172-2.307,6.346-4.632,9.526-6.971c2.388,1.657,4.674,3.307,6.943,4.943c0.924,0.691,1.845,1.365,2.782,2.027
	c3.173-2.307,6.339-4.632,9.521-6.971c3.367,2.339,6.545,4.664,9.72,6.971c3.184-2.307,6.36-4.632,9.536-6.971
	c3.366,2.339,6.538,4.664,9.71,6.971c3.187-2.307,6.357-4.632,9.535-6.971c3.406,2.339,6.584,4.664,9.775,6.971
	c3.178-2.307,6.348-4.632,9.527-6.971c3.362,2.339,6.539,4.664,9.714,6.971c3.189-2.307,6.359-4.632,9.538-6.971
	c3.356,2.339,6.532,4.664,9.713,6.971c3.183-2.307,6.354-4.632,9.535-6.971c3.363,2.339,6.536,4.664,9.719,6.971
	c1.578-1.149,3.169-2.301,4.744-3.47c1.597-1.162,3.195-2.319,4.789-3.501c3.354,2.339,6.536,4.664,9.725,6.971
	c3.172-2.307,6.344-4.632,9.53-6.971c3.313,2.266,6.532,4.625,9.757,6.971c0.861-0.626,9.24-7.153,9.566-6.95
	c0-2.825,0.005-4.55,0.005-7.148c0.074-2.129,0.044-3.896,0.039-6.327C673.679,717.13,673.703,717.13,673.733,717.13z"/>
<linearGradient id="SVGID_1_" gradientUnits="userSpaceOnUse" x1="18.96" y1="64.4868" x2="673.7026" y2="64.4868">
	<stop  offset="0" style="stop-color:#262262"/>
	<stop  offset="1" style="stop-color:#2B3990"/>
</linearGradient>
<path fill="url(#SVGID_1_)" d="M673.69,54.28c0.009-2.896,0.031-4.96-0.037-7.454c0-3.04-0.005-5.037-0.005-8.333
	c-0.324,0.261-8.704-7.334-9.567-8.066c-3.229,2.733-6.447,5.469-9.754,8.096c-3.186-2.7-6.358-5.412-9.534-8.096
	c-3.189,2.684-6.369,5.396-9.722,8.096c-1.596-1.356-3.198-2.72-4.787-4.067c-1.583-1.346-3.176-2.689-4.748-4.028
	c-3.183,2.684-6.361,5.396-9.721,8.096c-3.178-2.7-6.349-5.412-9.531-8.096c-3.182,2.684-6.362,5.396-9.718,8.096
	c-3.18-2.7-6.347-5.412-9.534-8.096c-3.182,2.684-6.353,5.396-9.718,8.096c-3.178-2.7-6.351-5.412-9.524-8.096
	c-3.19,2.684-6.371,5.396-9.773,8.096c-3.182-2.7-6.354-5.412-9.533-8.096c-3.173,2.684-6.352,5.396-9.72,8.096
	c-3.171-2.7-6.34-5.412-9.531-8.096c-3.171,2.684-6.354,5.396-9.717,8.096c-3.184-2.7-6.354-5.412-9.527-8.096
	c-0.929,0.778-1.851,1.558-2.772,2.349c-2.269,1.913-4.558,3.823-6.953,5.747c-3.175-2.7-6.354-5.412-9.526-8.096
	c-3.176,2.684-6.362,5.396-9.718,8.096c-3.18-2.7-6.354-5.412-9.531-8.096c-3.183,2.684-6.356,5.396-9.766,8.096
	c-3.164-2.7-6.324-5.412-9.489-8.096c-3.172,2.684-6.354,5.396-9.754,8.096c-3.19-2.7-6.372-5.412-9.548-8.096
	c-3.171,2.684-6.354,5.396-9.714,8.096c-3.177-2.7-6.359-5.412-9.532-8.096c-3.177,2.684-6.353,5.396-9.72,8.096
	c-3.177-2.7-6.355-5.412-9.532-8.096c-2.044,1.726-4.099,3.478-6.189,5.208c-1.158,0.963-2.338,1.922-3.528,2.887
	c-3.18-2.7-6.349-5.412-9.531-8.096c-3.183,2.684-6.353,5.396-9.714,8.096c-3.184-2.7-6.363-5.412-9.534-8.096
	c-3.175,2.684-6.32,5.344-9.59,8.048c-0.332,0.257-8.663-7.393-9.534-8.127c-3.222,2.738-6.445,5.475-9.758,8.103
	c-3.178-2.704-6.359-5.403-9.532-8.103c-3.181,2.7-6.363,5.399-9.716,8.103c-1.603-1.36-3.204-2.724-4.788-4.07
	c-1.588-1.343-3.174-2.69-4.749-4.033c-3.182,2.7-6.362,5.399-9.718,8.103c-3.178-2.704-6.353-5.403-9.542-8.103
	c-3.172,2.7-6.353,5.399-9.708,8.103c-3.181-2.704-6.353-5.403-9.536-8.103c-3.181,2.7-6.36,5.399-9.716,8.103
	c-3.178-2.704-6.354-5.403-9.533-8.103c-3.18,2.7-6.363,5.399-9.764,8.103c-3.181-2.704-6.358-5.403-9.535-8.103
	c-3.181,2.7-6.355,5.399-9.72,8.103c-3.176-2.704-6.348-5.403-9.535-8.103c-3.17,2.7-6.347,5.399-9.711,8.103
	c-3.183-2.704-6.359-5.403-9.535-8.103c-0.923,0.786-1.846,1.568-2.771,2.358c-2.274,1.913-4.562,3.833-6.948,5.745
	c-3.178-2.704-6.355-5.403-9.527-8.103c-3.182,2.7-6.367,5.399-9.728,8.103c-3.171-2.704-6.353-5.403-9.53-8.103
	c-3.173,2.7-6.354,5.399-9.76,8.103c-3.162-2.704-6.326-5.403-9.493-8.103c-3.173,2.7-6.344,5.399-9.75,8.103
	c-3.187-2.704-6.37-5.403-9.546-8.103c-3.171,2.7-6.359,5.399-9.716,8.103c-3.177-2.704-6.354-5.403-9.531-8.103
	c-3.173,2.7-6.359,5.399-9.72,8.103c-3.177-2.704-6.356-5.403-9.534-8.103c-2.044,1.74-4.091,3.481-6.189,5.217
	c-1.156,0.958-2.331,1.917-3.523,2.886c-3.183-2.704-6.358-5.403-9.537-8.103c-3.177,2.7-6.348,5.399-9.713,8.103
	c-3.183-2.704-6.359-5.403-9.536-8.103c-3.176,2.7-6.358,5.399-9.625,8.103c0,3.448,0,6.884,0,10.332c0,1.828,0,3.664,0,5.498
	c-0.023,0-0.05,0-0.073,0c-0.034,2.153,0.05,3.798,1.252,7.542c0.491,1.582,1.342,3.991,2.288,6.433
	c1.053,2.746,2.422,5.544,3.341,7.276c1.357,2.62,3.598,5.45,5.531,7.825c1.306,1.602,3.739,4.057,5.491,6.354
	c1.997,2.627,3.741,5.423,5.559,8.138c1.003,0,2.004,0,3.001,0c1.814,0,3.616,0,5.417,0c3.571,0,7.125,0.01,10.653,0.01
	c7.459,0.008,14.814,0.018,22.09,0.027c12.226,0.014,24.226,0.043,36.05,0.082c19.928,0.054,39.388,0.121,58.742,0.209
	c21.422,0.08,42.703,0.167,64.362,0.249c33.572,0.111,67.993,0.2,105.129,0.2c35.485,0,67.122-0.074,97.379-0.2
	c19.83-0.061,39.071-0.156,58.456-0.23c22.557-0.107,45.3-0.19,69.33-0.267c7.346-0.009,14.814-0.029,22.421-0.037
	c5.728-0.01,11.534-0.02,17.442-0.025c4.415-0.008,8.886-0.008,13.426-0.018c1.932,0,3.88,0,5.827,0c0.845,0,1.681,0,2.526,0
	c0.913,0,1.826,0,2.738,0c2.818-2.714,5.586-5.591,8.637-8.138c2.415-2.007,6.244-3.952,9.25-6.354
	c2.841-2.254,5.633-5.205,7.728-7.825c1.422-1.732,3.249-4.53,4.879-7.276c1.454-2.442,2.361-4.852,3.138-6.433
	c1.67-3.364,2.328-5.044,2.56-6.92c0.032,0,0.055,0,0.081,0c0-0.206,0-0.37,0-0.566c0.009-0.02,0.013-0.037,0.013-0.056
	C673.703,54.28,673.699,54.28,673.69,54.28z"/>
<linearGradient id="SVGID_2_" gradientUnits="userSpaceOnUse" x1="18.9272" y1="708.4712" x2="673.7329" y2="708.4712">
	<stop  offset="0" style="stop-color:#262262"/>
	<stop  offset="1" style="stop-color:#2B3990"/>
</linearGradient>
<path fill="url(#SVGID_2_)" d="M673.733,717.13c0-3.277-1.453-6.547-3.927-9.808c-1.11-1.469-3.813-4.304-5.298-5.782
	c-1.383-1.367-6.176-5.266-7.808-6.637c-4.64-3.89-5.535-3.89-11.214-7.782c-5.685-3.901-6.305-3.901-11.513-7.805
	c-0.913,0-1.837,0.01-2.768,0.01c-0.855,0-1.718,0.008-2.584,0.008c-2.013,0.021-4.047,0.039-6.093,0.067
	c-4.795,0.043-9.67,0.119-14.512,0.213c-6.491,0.122-12.967,0.253-19.228,0.374c-8.331,0.148-16.283,0.274-23.411,0.274
	c-23.346,0-45.057,0-66.546,0c-18.464,0-36.765,0-55.786,0c-29.022,0-59.734,0-95.213,0c-37.138,0-71.043,0-103.884,0
	c-21.212,0-41.972,0-62.887,0c-18.914,0-37.937,0-57.517,0c-11.632,0-23.437,0-35.56,0c-7.193,0-15.468-0.274-23.764-0.526
	c-3.929-0.122-7.869-0.241-11.701-0.31c-1.919-0.045-3.822-0.072-5.686-0.093c-1.035-0.008-2.05-0.018-3.052-0.018
	c-3.256,3.903-3.638,3.903-7.198,7.805c-3.547,3.893-4.101,3.893-7.015,7.782c-1.005,1.371-4.885,6.637-5.736,8.005
	c-0.933,1.48-1.759,2.945-2.447,4.414c-1.54,3.261-2.462,6.53-2.462,9.808c0.02,0,0.047,0,0.071,0c0,1.534,0,3.097,0,4.643
	c0,2.956,0,5.913,0,8.871c3.271,2.338,6.448,4.658,9.63,6.981c3.172-2.323,6.348-4.644,9.534-6.981
	c3.358,2.338,6.53,4.658,9.713,6.981c3.176-2.323,6.348-4.644,9.529-6.981c1.194,0.844,2.37,1.666,3.528,2.487
	c2.098,1.496,4.14,2.996,6.188,4.494c3.182-2.323,6.357-4.644,9.536-6.981c3.363,2.338,6.543,4.658,9.719,6.981
	c3.174-2.323,6.354-4.644,9.529-6.981c3.358,2.338,6.546,4.658,9.718,6.981c3.176-2.323,6.359-4.644,9.546-6.981
	c3.406,2.338,6.582,4.658,9.754,6.981c3.163-2.323,6.326-4.644,9.492-6.981c3.407,2.338,6.588,4.658,9.76,6.981
	c3.174-2.323,6.354-4.644,9.53-6.981c3.362,2.338,6.547,4.658,9.729,6.981c3.168-2.323,6.345-4.644,9.527-6.981
	c2.384,1.666,4.673,3.313,6.941,4.947c0.927,0.684,1.85,1.357,2.775,2.034c3.172-2.323,6.354-4.644,9.53-6.981
	c3.371,2.338,6.542,4.658,9.714,6.981c3.188-2.323,6.359-4.644,9.541-6.981c3.363,2.338,6.535,4.658,9.716,6.981
	c3.175-2.323,6.354-4.644,9.534-6.981c3.404,2.338,6.582,4.658,9.769,6.981c3.17-2.323,6.35-4.644,9.529-6.981
	c3.355,2.338,6.538,4.658,9.714,6.981c3.188-2.323,6.36-4.644,9.535-6.981c3.359,2.338,6.54,4.658,9.713,6.981
	c3.182-2.323,6.362-4.644,9.54-6.981c3.357,2.338,6.541,4.658,9.715,6.981c1.581-1.161,3.168-2.312,4.75-3.462
	c1.589-1.164,3.187-2.339,4.787-3.52c3.359,2.338,6.535,4.658,9.724,6.981c3.172-2.323,6.347-4.644,9.525-6.981
	c3.314,2.266,6.535,4.623,9.757,6.981c0.873-0.639,9.21-7.207,9.533-7.003c3.271,2.342,6.414,4.627,9.595,6.934
	c3.173-2.307,6.344-4.632,9.534-6.971c3.356,2.339,6.536,4.664,9.71,6.971c3.182-2.307,6.352-4.632,9.531-6.971
	c1.198,0.836,2.376,1.665,3.535,2.492c2.088,1.487,4.138,2.993,6.184,4.479c3.182-2.307,6.354-4.632,9.531-6.971
	c3.369,2.339,6.547,4.664,9.73,6.971c3.163-2.307,6.351-4.632,9.522-6.971c3.366,2.339,6.547,4.664,9.719,6.971
	c3.171-2.307,6.354-4.632,9.538-6.971c3.409,2.339,6.584,4.664,9.764,6.971c3.16-2.307,6.32-4.632,9.491-6.971
	c3.397,2.339,6.582,4.664,9.762,6.971c3.173-2.307,6.352-4.632,9.524-6.971c3.36,2.339,6.541,4.664,9.728,6.971
	c3.17-2.307,6.344-4.632,9.524-6.971c2.388,1.657,4.677,3.307,6.95,4.943c0.921,0.691,1.839,1.365,2.775,2.027
	c3.176-2.307,6.348-4.632,9.524-6.971c3.368,2.339,6.545,4.664,9.721,6.971c3.184-2.307,6.36-4.632,9.531-6.971
	c3.366,2.339,6.542,4.664,9.714,6.971c3.187-2.307,6.359-4.632,9.539-6.971c3.404,2.339,6.581,4.664,9.768,6.971
	c3.178-2.307,6.348-4.632,9.531-6.971c3.362,2.339,6.535,4.664,9.71,6.971c3.189-2.307,6.359-4.632,9.538-6.971
	c3.36,2.339,6.534,4.664,9.713,6.971c3.186-2.307,6.355-4.632,9.54-6.971c3.358,2.339,6.531,4.664,9.714,6.971
	c1.578-1.149,3.169-2.301,4.749-3.47c1.594-1.162,3.191-2.319,4.784-3.501c3.364,2.339,6.537,4.664,9.725,6.971
	c3.174-2.307,6.346-4.632,9.537-6.971c3.306,2.266,6.525,4.625,9.755,6.971c0.866-0.626,9.237-7.153,9.562-6.95
	c0-2.825,0.009-4.55,0.009-7.148c0.07-2.129,0.04-3.896,0.038-6.327C673.679,717.13,673.708,717.13,673.733,717.13z"/>
<image overflow="visible" width="1975" height="913" xlink:href="CBB0019B.png"  transform="matrix(0.24 0 0 0.24 90.4019 444.3374)">
</image>
<g id="XMLID_2629_">
	<rect id="XMLID_2855_" x="114.149" y="467.657" fill="#FFFFFF" width="152.545" height="152.546"/>
	<path id="XMLID_2630_" fill="#010101" d="M120.781,613.571h6.632v-6.632h-6.632V613.571 M127.413,613.571h6.632v-6.632h-6.632
		V613.571 M134.045,613.571h6.632v-6.632h-6.632V613.571 M140.677,613.571h6.634v-6.632h-6.634V613.571 M147.312,613.571h6.632
		v-6.632h-6.632V613.571 M153.943,613.571h6.631v-6.632h-6.631V613.571 M160.575,613.571h6.633v-6.632h-6.633V613.571
		 M173.84,613.571h6.631v-6.632h-6.631V613.571 M180.472,613.571h6.633v-6.632h-6.633V613.571 M187.104,613.571h6.633v-6.632h-6.633
		V613.571 M200.371,613.571h6.63v-6.632h-6.63V613.571 M220.268,613.571h6.632v-6.632h-6.632V613.571 M240.165,613.571h6.632v-6.632
		h-6.632V613.571 M120.781,606.939h6.632v-6.633h-6.632V606.939 M160.575,606.939h6.633v-6.633h-6.633V606.939 M173.84,606.939
		h6.631v-6.633h-6.631V606.939 M180.472,606.939h6.633v-6.633h-6.633V606.939 M193.737,606.939h6.634v-6.633h-6.634V606.939
		 M200.371,606.939h6.63v-6.633h-6.63V606.939 M207.001,606.939h6.633v-6.633h-6.633V606.939 M213.635,606.939h6.633v-6.633h-6.633
		V606.939 M220.268,606.939h6.632v-6.633h-6.632V606.939 M233.53,606.939h6.635v-6.633h-6.635V606.939 M253.428,606.939h6.634
		v-6.633h-6.634V606.939 M120.781,600.306h6.632v-6.632h-6.632V600.306 M134.045,600.306h6.632v-6.632h-6.632V600.306
		 M140.677,600.306h6.634v-6.632h-6.634V600.306 M147.312,600.306h6.632v-6.632h-6.632V600.306 M160.575,600.306h6.633v-6.632
		h-6.633V600.306 M173.84,600.306h6.631v-6.632h-6.631V600.306 M180.472,600.306h6.633v-6.632h-6.633V600.306 M200.371,600.306h6.63
		v-6.632h-6.63V600.306 M213.635,600.306h6.633v-6.632h-6.633V600.306 M220.268,600.306h6.632v-6.632h-6.632V600.306
		 M233.53,600.306h6.635v-6.632h-6.635V600.306 M120.781,593.674h6.632v-6.634h-6.632V593.674 M134.045,593.674h6.632v-6.634h-6.632
		V593.674 M140.677,593.674h6.634v-6.634h-6.634V593.674 M147.312,593.674h6.632v-6.634h-6.632V593.674 M160.575,593.674h6.633
		v-6.634h-6.633V593.674 M173.84,593.674h6.631v-6.634h-6.631V593.674 M180.472,593.674h6.633v-6.634h-6.633V593.674
		 M187.104,593.674h6.633v-6.634h-6.633V593.674 M193.737,593.674h6.634v-6.634h-6.634V593.674 M200.371,593.674h6.63v-6.634h-6.63
		V593.674 M207.001,593.674h6.633v-6.634h-6.633V593.674 M213.635,593.674h6.633v-6.634h-6.633V593.674 M220.268,593.674h6.632
		v-6.634h-6.632V593.674 M240.165,593.674h6.632v-6.634h-6.632V593.674 M120.781,587.041h6.632v-6.633h-6.632V587.041
		 M134.045,587.041h6.632v-6.633h-6.632V587.041 M140.677,587.041h6.634v-6.633h-6.634V587.041 M147.312,587.041h6.632v-6.633
		h-6.632V587.041 M160.575,587.041h6.633v-6.633h-6.633V587.041 M173.84,587.041h6.631v-6.633h-6.631V587.041 M187.104,587.041
		h6.633v-6.633h-6.633V587.041 M193.737,587.041h6.634v-6.633h-6.634V587.041 M207.001,587.041h6.633v-6.633h-6.633V587.041
		 M226.899,587.041h6.63v-6.633h-6.63V587.041 M233.53,587.041h6.635v-6.633h-6.635V587.041 M240.165,587.041h6.632v-6.633h-6.632
		V587.041 M120.781,580.408h6.632v-6.63h-6.632V580.408 M160.575,580.408h6.633v-6.63h-6.633V580.408 M180.472,580.408h6.633v-6.63
		h-6.633V580.408 M220.268,580.408h6.632v-6.63h-6.632V580.408 M226.899,580.408h6.63v-6.63h-6.63V580.408 M240.165,580.408h6.632
		v-6.63h-6.632V580.408 M246.796,580.408h6.631v-6.63h-6.631V580.408 M253.428,580.408h6.634v-6.63h-6.634V580.408 M120.781,573.778
		h6.632v-6.635h-6.632V573.778 M127.413,573.778h6.632v-6.635h-6.632V573.778 M134.045,573.778h6.632v-6.635h-6.632V573.778
		 M140.677,573.778h6.634v-6.635h-6.634V573.778 M147.312,573.778h6.632v-6.635h-6.632V573.778 M153.943,573.778h6.631v-6.635
		h-6.631V573.778 M160.575,573.778h6.633v-6.635h-6.633V573.778 M173.84,573.778h6.631v-6.635h-6.631V573.778 M193.737,573.778
		h6.634v-6.635h-6.634V573.778 M207.001,573.778h6.633v-6.635h-6.633V573.778 M226.899,573.778h6.63v-6.635h-6.63V573.778
		 M233.53,573.778h6.635v-6.635h-6.635V573.778 M173.84,567.143h6.631v-6.634h-6.631V567.143 M187.104,567.143h6.633v-6.634h-6.633
		V567.143 M200.371,567.143h6.63v-6.634h-6.63V567.143 M220.268,567.143h6.632v-6.634h-6.632V567.143 M233.53,567.143h6.635v-6.634
		h-6.635V567.143 M253.428,567.143h6.634v-6.634h-6.634V567.143 M127.413,560.509h6.632v-6.629h-6.632V560.509 M153.943,560.509
		h6.631v-6.629h-6.631V560.509 M160.575,560.509h6.633v-6.629h-6.633V560.509 M187.104,560.509h6.633v-6.629h-6.633V560.509
		 M200.371,560.509h6.63v-6.629h-6.63V560.509 M220.268,560.509h6.632v-6.629h-6.632V560.509 M233.53,560.509h6.635v-6.629h-6.635
		V560.509 M127.413,553.88h6.632v-6.631h-6.632V553.88 M147.312,553.88h6.632v-6.631h-6.632V553.88 M167.208,553.88h6.632v-6.631
		h-6.632V553.88 M193.737,553.88h6.634v-6.631h-6.634V553.88 M200.371,553.88h6.63v-6.631h-6.63V553.88 M207.001,553.88h6.633
		v-6.631h-6.633V553.88 M213.635,553.88h6.633v-6.631h-6.633V553.88 M246.796,553.88h6.631v-6.631h-6.631V553.88 M253.428,553.88
		h6.634v-6.631h-6.634V553.88 M140.677,547.25h6.634v-6.636h-6.634V547.25 M147.312,547.25h6.632v-6.636h-6.632V547.25
		 M153.943,547.25h6.631v-6.636h-6.631V547.25 M160.575,547.25h6.633v-6.636h-6.633V547.25 M167.208,547.25h6.632v-6.636h-6.632
		V547.25 M173.84,547.25h6.631v-6.636h-6.631V547.25 M180.472,547.25h6.633v-6.636h-6.633V547.25 M200.371,547.25h6.63v-6.636h-6.63
		V547.25 M213.635,547.25h6.633v-6.636h-6.633V547.25 M220.268,547.25h6.632v-6.636h-6.632V547.25 M246.796,547.25h6.631v-6.636
		h-6.631V547.25 M127.413,540.614h6.632v-6.632h-6.632V540.614 M140.677,540.614h6.634v-6.632h-6.634V540.614 M153.943,540.614
		h6.631v-6.632h-6.631V540.614 M167.208,540.614h6.632v-6.632h-6.632V540.614 M173.84,540.614h6.631v-6.632h-6.631V540.614
		 M187.104,540.614h6.633v-6.632h-6.633V540.614 M193.737,540.614h6.634v-6.632h-6.634V540.614 M200.371,540.614h6.63v-6.632h-6.63
		V540.614 M207.001,540.614h6.633v-6.632h-6.633V540.614 M213.635,540.614h6.633v-6.632h-6.633V540.614 M120.781,533.982h6.632
		v-6.633h-6.632V533.982 M127.413,533.982h6.632v-6.633h-6.632V533.982 M134.045,533.982h6.632v-6.633h-6.632V533.982
		 M140.677,533.982h6.634v-6.633h-6.634V533.982 M147.312,533.982h6.632v-6.633h-6.632V533.982 M160.575,533.982h6.633v-6.633
		h-6.633V533.982 M167.208,533.982h6.632v-6.633h-6.632V533.982 M173.84,533.982h6.631v-6.633h-6.631V533.982 M193.737,533.982
		h6.634v-6.633h-6.634V533.982 M207.001,533.982h6.633v-6.633h-6.633V533.982 M220.268,533.982h6.632v-6.633h-6.632V533.982
		 M233.53,533.982h6.635v-6.633h-6.635V533.982 M246.796,533.982h6.631v-6.633h-6.631V533.982 M180.472,527.349h6.633v-6.634h-6.633
		V527.349 M120.781,520.715h6.632v-6.629h-6.632V520.715 M127.413,520.715h6.632v-6.629h-6.632V520.715 M134.045,520.715h6.632
		v-6.629h-6.632V520.715 M140.677,520.715h6.634v-6.629h-6.634V520.715 M147.312,520.715h6.632v-6.629h-6.632V520.715
		 M153.943,520.715h6.631v-6.629h-6.631V520.715 M160.575,520.715h6.633v-6.629h-6.633V520.715 M173.84,520.715h6.631v-6.629h-6.631
		V520.715 M187.104,520.715h6.633v-6.629h-6.633V520.715 M200.371,520.715h6.63v-6.629h-6.63V520.715 M213.635,520.715h6.633v-6.629
		h-6.633V520.715 M220.268,520.715h6.632v-6.629h-6.632V520.715 M226.899,520.715h6.63v-6.629h-6.63V520.715 M233.53,520.715h6.635
		v-6.629h-6.635V520.715 M240.165,520.715h6.632v-6.629h-6.632V520.715 M246.796,520.715h6.631v-6.629h-6.631V520.715
		 M253.428,520.715h6.634v-6.629h-6.634V520.715 M120.781,514.086h6.632v-6.634h-6.632V514.086 M160.575,514.086h6.633v-6.634
		h-6.633V514.086 M173.84,514.086h6.631v-6.634h-6.631V514.086 M193.737,514.086h6.634v-6.634h-6.634V514.086 M213.635,514.086
		h6.633v-6.634h-6.633V514.086 M253.428,514.086h6.634v-6.634h-6.634V514.086 M120.781,507.453h6.632v-6.632h-6.632V507.453
		 M134.045,507.453h6.632v-6.632h-6.632V507.453 M140.677,507.453h6.634v-6.632h-6.634V507.453 M147.312,507.453h6.632v-6.632
		h-6.632V507.453 M160.575,507.453h6.633v-6.632h-6.633V507.453 M180.472,507.453h6.633v-6.632h-6.633V507.453 M200.371,507.453
		h6.63v-6.632h-6.63V507.453 M213.635,507.453h6.633v-6.632h-6.633V507.453 M226.899,507.453h6.63v-6.632h-6.63V507.453
		 M233.53,507.453h6.635v-6.632h-6.635V507.453 M240.165,507.453h6.632v-6.632h-6.632V507.453 M253.428,507.453h6.634v-6.632h-6.634
		V507.453 M120.781,500.821h6.632v-6.635h-6.632V500.821 M134.045,500.821h6.632v-6.635h-6.632V500.821 M140.677,500.821h6.634
		v-6.635h-6.634V500.821 M147.312,500.821h6.632v-6.635h-6.632V500.821 M160.575,500.821h6.633v-6.635h-6.633V500.821
		 M173.84,500.821h6.631v-6.635h-6.631V500.821 M180.472,500.821h6.633v-6.635h-6.633V500.821 M200.371,500.821h6.63v-6.635h-6.63
		V500.821 M213.635,500.821h6.633v-6.635h-6.633V500.821 M226.899,500.821h6.63v-6.635h-6.63V500.821 M233.53,500.821h6.635v-6.635
		h-6.635V500.821 M240.165,500.821h6.632v-6.635h-6.632V500.821 M253.428,500.821h6.634v-6.635h-6.634V500.821 M120.781,494.186
		h6.632v-6.63h-6.632V494.186 M134.045,494.186h6.632v-6.63h-6.632V494.186 M140.677,494.186h6.634v-6.63h-6.634V494.186
		 M147.312,494.186h6.632v-6.63h-6.632V494.186 M160.575,494.186h6.633v-6.63h-6.633V494.186 M187.104,494.186h6.633v-6.63h-6.633
		V494.186 M193.737,494.186h6.634v-6.63h-6.634V494.186 M200.371,494.186h6.63v-6.63h-6.63V494.186 M213.635,494.186h6.633v-6.63
		h-6.633V494.186 M226.899,494.186h6.63v-6.63h-6.63V494.186 M233.53,494.186h6.635v-6.63h-6.635V494.186 M240.165,494.186h6.632
		v-6.63h-6.632V494.186 M253.428,494.186h6.634v-6.63h-6.634V494.186 M120.781,487.556h6.632v-6.633h-6.632V487.556
		 M160.575,487.556h6.633v-6.633h-6.633V487.556 M173.84,487.556h6.631v-6.633h-6.631V487.556 M180.472,487.556h6.633v-6.633h-6.633
		V487.556 M187.104,487.556h6.633v-6.633h-6.633V487.556 M200.371,487.556h6.63v-6.633h-6.63V487.556 M213.635,487.556h6.633v-6.633
		h-6.633V487.556 M253.428,487.556h6.634v-6.633h-6.634V487.556 M120.781,480.923h6.632v-6.635h-6.632V480.923 M127.413,480.923
		h6.632v-6.635h-6.632V480.923 M134.045,480.923h6.632v-6.635h-6.632V480.923 M140.677,480.923h6.634v-6.635h-6.634V480.923
		 M147.312,480.923h6.632v-6.635h-6.632V480.923 M153.943,480.923h6.631v-6.635h-6.631V480.923 M160.575,480.923h6.633v-6.635
		h-6.633V480.923 M187.104,480.923h6.633v-6.635h-6.633V480.923 M193.737,480.923h6.634v-6.635h-6.634V480.923 M200.371,480.923
		h6.63v-6.635h-6.63V480.923 M213.635,480.923h6.633v-6.635h-6.633V480.923 M220.268,480.923h6.632v-6.635h-6.632V480.923
		 M226.899,480.923h6.63v-6.635h-6.63V480.923 M233.53,480.923h6.635v-6.635h-6.635V480.923 M240.165,480.923h6.632v-6.635h-6.632
		V480.923 M246.796,480.923h6.631v-6.635h-6.631V480.923 M253.428,480.923h6.634v-6.635h-6.634V480.923L253.428,480.923z"/>
</g>
<line fill="none" stroke="#181346" stroke-width="2.352" stroke-miterlimit="10" x1="283.427" y1="481.346" x2="531.607" y2="481.346"/>
<line fill="none" stroke="#181346" stroke-width="2.352" stroke-miterlimit="10" x1="283.427" y1="504.866" x2="531.607" y2="504.866"/>
<line fill="none" stroke="#181346" stroke-width="2.352" stroke-miterlimit="10" x1="283.427" y1="528.387" x2="531.607" y2="528.387"/>
<line fill="none" stroke="#181346" stroke-width="2.352" stroke-miterlimit="10" x1="283.427" y1="551.908" x2="531.607" y2="551.908"/>
</svg>
