<?xml version="1.0" encoding="iso-8859-1"?>
<!-- Generator: Adobe Illustrator 19.0.0, SVG Export Plug-In . SVG Version: 6.00 Build 0)  -->
<svg version="1.1" id="Layer_1" xmlns="http://www.w3.org/2000/svg" xmlns:xlink="http://www.w3.org/1999/xlink" x="0px" y="0px"
	 viewBox="0 0 290.627 290.627" style="enable-background:new 0 0 290.627 290.627;" xml:space="preserve">
<g>
	<g>
		<path style="fill:#ff6600;" d="M253.126,0H14.064C6.311,0,0.001,6.309,0.001,14.063v140.625c0,7.753,6.309,14.063,14.062,14.063
			h178.125v-49.219c0-6.473,5.245-11.719,11.719-11.719c6.473,0,11.719,5.245,11.719,11.719v48.286l0.53-0.023
			c1.434-4.856,5.869-8.419,11.189-8.419c4.992,0,9.23,3.136,10.917,7.538l1.627-0.066c1.702-4.364,5.925-7.472,10.894-7.472
			c4.636,0,8.606,2.714,10.505,6.619l0.216-0.009c3.563-2.648,5.686-6.872,5.686-11.297V14.063C267.188,6.309,260.879,0,253.126,0z"
			/>
		<path style="fill:#333333;" d="M89.064,53.906c0-19.387-15.769-35.156-35.156-35.156H18.751V150h35.156
			c19.387,0,35.156-15.769,35.156-35.156c0-13.008-7.102-24.389-17.634-30.469C81.962,78.295,89.064,66.914,89.064,53.906z
			 M79.689,114.844c0,14.217-11.569,25.781-25.781,25.781H28.126V89.063h25.781C68.12,89.063,79.689,100.627,79.689,114.844z
			 M53.907,79.688H28.126V28.125h25.781c14.212,0,25.781,11.564,25.781,25.781S68.12,79.688,53.907,79.688z"/>
		<path style="fill:#333333;" d="M168.751,114.844V18.75h-9.375v96.094c0,14.217-11.569,25.781-25.781,25.781
			s-25.781-11.564-25.781-25.781V18.75h-9.375v96.094c0,19.387,15.769,35.156,35.156,35.156S168.751,134.231,168.751,114.844z"/>
		<path style="fill:#333333;" d="M285.226,168.305c-3.422-3.103-8.011-4.617-12.68-4.158c-2.231,0.225-4.312,0.961-6.187,2.048
			c-2.1-6.647-8.25-11.508-15.577-11.508c-4.594,0-8.737,1.908-11.719,4.959c-2.981-3.052-7.125-4.959-11.719-4.959
			c-2.527,0-4.894,0.623-7.031,1.645v-34.458v-1.673V93.375c15.872-2.288,28.125-15.942,28.125-32.438V18.75h-9.375v42.188
			c0,12.923-10.514,23.438-23.437,23.438s-23.437-10.514-23.437-23.438V18.75h-9.375v42.188c0,16.495,12.253,30.15,28.125,32.438
			v11.433c-1.659-0.83-3.45-1.406-5.358-1.598c-4.659-0.478-9.258,1.055-12.68,4.158c-3.431,3.103-5.4,7.538-5.4,12.164v88.327
			l-17.859-17.855c-7.364-7.373-18.947-7.922-26.348-1.252c-3.872,3.488-6.075,8.264-6.211,13.458
			c-0.131,5.119,2.934,10.13,6.553,13.748l48.553,47.48v27.188h9.375v-31.069l-51.295-50.227c-1.837-1.837-3.347-4.28-3.277-6.877
			s0.909-4.988,2.845-6.736c3.642-3.281,9.544-2.859,13.317,0.914l33.722,33.858V119.531c0-2.011,0.825-3.862,2.316-5.217
			c1.491-1.35,3.459-1.978,5.456-1.777c3.525,0.352,6.291,3.717,6.291,7.664v1.673v49.219v21.094h9.375v-21.094
			c0-3.877,3.155-7.031,7.031-7.031s7.031,3.155,7.031,7.031v21.094h9.375v-21.094c0-3.877,3.155-7.031,7.031-7.031
			s7.031,3.155,7.031,7.031v10.045v15.736h9.375v-15.736c0-3.942,2.766-7.313,6.291-7.664c2.034-0.211,3.97,0.431,5.456,1.777
			c1.491,1.355,2.316,3.206,2.316,5.217v86.719c0,2.583-2.1,4.688-4.687,4.688h-4.688v18.75h9.375v-10.177
			c5.456-1.936,9.375-7.148,9.375-13.261v-86.719C290.626,175.842,288.657,171.408,285.226,168.305z"/>
	</g>
</g>
<g>
</g>
<g>
</g>
<g>
</g>
<g>
</g>
<g>
</g>
<g>
</g>
<g>
</g>
<g>
</g>
<g>
</g>
<g>
</g>
<g>
</g>
<g>
</g>
<g>
</g>
<g>
</g>
<g>
</g>
</svg>
