<?xml version="1.0" encoding="utf-8"?>
<!-- Generator: Adobe Illustrator 21.0.2, SVG Export Plug-In . SVG Version: 6.00 Build 0)  -->
<svg version="1.1" id="Layer_1" xmlns="http://www.w3.org/2000/svg" xmlns:xlink="http://www.w3.org/1999/xlink" x="0px" y="0px"
	 viewBox="0 0 386 408" style="enable-background:new 0 0 386 408;" xml:space="preserve">
<style type="text/css">
	.st0{fill:#FFFFFF;}
	.st1{fill:#E25E24;}
	.st2{fill:#F16822;}
	.st3{fill:#B25724;}
	.st4{fill:#101047;}
	.st5{fill:#FFE0BB;}
	.st6{fill:#FFE2C9;}
	.st7{fill:#E27187;}
	.st8{opacity:0.8;fill:#F45E0B;enable-background:new    ;}
	.st9{fill:#E0E1E2;}
</style>
<g>
	<path class="st0" d="M-84.6-141.4c-0.4-1.3-2.3-0.8-2.2,0.5c0.2,3-0.3,6,0,9c0.1,1.3,2.1,1.4,2.3,0.1
		C-84.1-134.9-83.6-138.3-84.6-141.4"/>
	<path class="st0" d="M-96.9-130.7c-0.7-2.3-1.2-4.8-2.5-6.9c-0.7-1.1-2.4-0.2-1.9,1c0.8,2.3,1.3,4.7,2.4,6.9
		C-98.3-128.5-96.6-129.5-96.9-130.7"/>
	<path class="st0" d="M-104.9-123.9c-2.5-1.8-5.7-3-8.6-4.1c-1.4-0.5-2.2,1.3-1,2c2.6,1.7,5.6,3.3,8.6,4.2
		C-104.7-121.4-103.9-123.2-104.9-123.9"/>
	<path class="st1" d="M232.6,195.5c0,0,2.2,152.2,2.9,157.2c0.6,5.1-10.2,8.6-12.1,0c-1.9-8.6-3.2-157.2-3.2-157.2L232.6,195.5
		L232.6,195.5z"/>
	<path class="st2" d="M112.1,255.9c0,0-2.5,88.7,0,91.4h10.8v-91.4C122.9,251.5,112.2,252.2,112.1,255.9"/>
	<path class="st2" d="M177.2,254.4c0,0,1.1,92.3,3.6,92.9c2.4,0.6,10.4,0,10.4,0s1.6-82.4,0-90.2S177.2,254.4,177.2,254.4"/>
	<path class="st2" d="M200,241.5l-4,16.7l-87.4-1.2l-0.3-21.6C108.3,235.5,177.7,234.7,200,241.5"/>
	<path class="st0" d="M132.3,138.3c0,0-7.4,11.4-7.7,15C124.7,153.3,131.4,143.1,132.3,138.3"/>
	<path class="st3" d="M191.4,330.5c0,0-7.6,12.3-8.9,15.9c-1.2,3.6,2.5,13.2,4.4,13.7c1.9,0.5,15.5,3,16.5,5.5c1,2.5,0,6.8,0,6.8
		s-16.5,1.8-25.4,0c-8.9-1.8-15.8-28.5-14.4-38.6c0,0,12.2-9.1,14.4-11.1S191.4,330.5,191.4,330.5"/>
	<path class="st4" d="M193.1,216.8c0,0,74.4-8.9,80-4.9c5.5,4,7.6,12.6,2.5,19.7c-5,7.1-76.6,94.5-80.7,98.9c-4,4.4-18.8-2.6-21-8.7
		c0,0,66.4-80.2,68.9-86.7c0,0-61.9-0.2-68.9-9.1c-7-8.9-17.3-11.1-11.8-14.1C167.7,208.9,193.1,216.8,193.1,216.8"/>
	<path class="st3" d="M244.9,359.6c0,0,3,12.1,5.5,14.1c2.5,2,24.2-3,26.2,0c2,3,1.9,13.6,1.9,13.6s-39.7,4.5-45.2,0
		c0,0-10.3,2.5-13.7-0.5c0,0,2.1-26.7,5.1-30.2S244.9,359.6,244.9,359.6"/>
	<path class="st4" d="M162.2,211.9c0,0,8.7,11.1,16,11.6c7.2,0.5,77.8-1,83.9,6.1c6,7.1-15.1,117.9-12.6,132.8c0,0-26.7,0.7-30.3,0
		c0,0,22.2-105.1,19.7-110.1c-2.5-5-101.6-10.1-107.1-15.7s-6.1-15.6-4.5-21.2C128.7,209.8,162.2,211.9,162.2,211.9"/>
	<path class="st5" d="M193.7,140.7c0,0,9.3,27.7,13.6,36.1c4.3,8.4-10.6,7.8-10.6,7.8s-13.4-29.9-14.2-37.5
		C181.6,139.5,190.1,130.3,193.7,140.7"/>
	<path class="st5" d="M176,86.7c0,0-3,13.9-6.2,18c0,0,11.7,8.6-5.2,10.8c-16.9,2.2-33.8-11.8-31.3-15.6c0,0,14.4-0.6,18.5-1.9
		c4.1-1.3-8-19-8-19s25.8-12.6,33.5,3"/>
	<path class="st5" d="M172.3,174.9c0,0,5.1-6.7,7.2-8.5c2-1.7,5.2-1.9,5.2-1.9s3.8,2.2,4.4,4.1c0.6,1.9,3.3,7.7,0,8.9
		c-3.3,1.2-7.6-5.3-7.6-5.3s-3.1,1.7-4.1,3.3C176.4,177.3,172.3,174.9,172.3,174.9"/>
	<path class="st6" d="M158.7,181.9c0,0,15.4-6.6,19.6-5.1c4.2,1.5,9,2.2,11.7,2.5s4.4,3,4.9,2.7S163.9,187,158.7,181.9"/>
	<path class="st2" d="M326.2,199.7c0,0,2.2,172.1,2.9,177.8c0.6,5.7-10.2,9.7-12.1,0s-3.2-177.8-3.2-177.8L326.2,199.7L326.2,199.7z
		"/>
	<path class="st1" d="M88.2,205.2c0,0-10.9,161.9-10.9,167.6c0,0-8.8,8.4-10.7,0c-1.9-8.4,8.9-167.6,8.9-167.6H88.2z"/>
	<path class="st2" d="M141.2,209.9c0,0-11.1,170.6-10,174.4c1.1,3.8,9.8,5.9,11.5,2.1c1.6-3.8,11.5-177.5,11.5-177.5L141.2,209.9z"
		/>
	<g>
		<path class="st5" d="M197.9,44.3c0,31.5-12.7,57.1-28.4,57.1c-15.7,0-28.4-25.5-28.4-57.1"/>
		<path class="st5" d="M141.1,44.4c0-10.5,12.7-19.1,28.5-19.1c15.7,0,28.5,8.5,28.5,19.1"/>
	</g>
	<g>
		<path id="XMLID_67_" class="st4" d="M162.6,55c-2.5-1.1-5.2-1.5-8.3-1.5c-0.5,0-1.5,0.1-2.4,0.2c-2.7,0.3-8.5,1.1-10.8,2.6
			c-0.1,0.1-0.2,0.3-0.2,0.4c0,0.8,0,1.6,0.1,2.5c0,0.6,0.3,1.1,0.8,1.3c0.9,0.4,1.6,1.2,1.9,2.3c0.4,1.3,0.7,2.6,1.1,3.9
			c0.6,2,1.4,3.8,2.5,5.3c1.6,2.1,3.6,3,5.9,3.4c2.1,0.3,4.1,0.1,6.1-0.7c1.3-0.5,2.3-1.3,3.3-2.4c0.8-1,1.4-2.2,2-3.4
			c0.8-2,1.4-4.1,1.8-6.2c0.1-0.6,0.1-1-0.3-1.5c-0.6-0.8-0.2-1.9,0.6-2.2c1.7-0.6,3.9-0.6,5.6,0c0.8,0.3,1.2,1.4,0.6,2.2
			c-0.4,0.5-0.4,0.9-0.3,1.5c0.4,2.2,1,4.2,1.8,6.2c0.5,1.3,1.1,2.4,1.9,3.4c0.9,1.1,2,1.9,3.3,2.4c2,0.8,4,1,6.1,0.7
			c2.3-0.3,4.3-1.3,5.9-3.4c1.2-1.6,2-3.4,2.5-5.3c0.4-1.3,0.7-2.6,1.1-3.9c0.3-1.1,0.9-1.9,1.9-2.3c0.5-0.2,0.8-0.7,0.8-1.3
			c0-0.8,0.1-1.6,0.1-2.5c0-0.2-0.1-0.4-0.2-0.4c-2.3-1.5-8.1-2.3-10.8-2.6c-0.9-0.1-1.9-0.1-2.4-0.2c-3.1,0-5.8,0.4-8.3,1.5
			c-0.7,0.3-1.5,0.7-2.2,1.1c-0.4,0.2-0.8,0.2-1.3,0c-0.3-0.2-0.6-0.3-0.9-0.3c-1.7,0-3.5,0-5.2,0c-0.3,0-0.6,0.1-0.9,0.3
			c-0.4,0.3-0.8,0.3-1.3,0C164.1,55.7,163.3,55.3,162.6,55L162.6,55z M193.7,61.6L193.7,61.6c0,1.5-0.2,3-0.5,4.5
			c-0.7,3.4-3.1,7-6.1,7.8c-2.5,0.7-4,0.6-6.5-0.2c-2.1-0.7-3.7-2-4.6-4.3c-1.1-2.7-1.7-5.4-1.5-8.4c0.1-1.7,0.7-3.2,2-4.2
			c1-0.8,2.1-1.1,3.2-1.4c2.5-0.5,5-0.6,7.4-0.2c1.2,0.2,2.3,0.4,3.4,0.9C192.6,57.2,193.7,59,193.7,61.6L193.7,61.6z M145.3,61.6
			L145.3,61.6c0-2.6,1.1-4.4,3.1-5.4c1.1-0.5,2.2-0.8,3.4-0.9c2.5-0.3,5-0.3,7.4,0.2c1.1,0.2,2.2,0.6,3.2,1.4c1.3,1,1.9,2.5,2,4.2
			c0.2,2.9-0.4,5.7-1.5,8.4c-0.9,2.3-2.5,3.7-4.6,4.3c-2.5,0.8-4,0.8-6.5,0.2c-3-0.8-5.4-4.4-6.1-7.8
			C145.5,64.6,145.3,63.1,145.3,61.6z"/>
		<g>
			<path class="st4" d="M151.9,55.2c-1.2,0.2-2.3,0.4-3.4,0.9c-2.1,1-3.1,2.8-3.1,5.4c0,1,0.1,1.9,0.2,2.8l8.1-9.4
				C153,55.1,152.4,55.1,151.9,55.2z"/>
			<path class="st4" d="M164.5,61c-0.1-1.7-0.7-3.2-2-4.2c-0.9-0.7-1.9-1.1-3-1.3l-12.3,14.3c1.1,2,2.8,3.6,4.7,4.1
				c2.5,0.7,4,0.6,6.5-0.2c2.1-0.6,3.7-2,4.6-4.3C164.1,66.8,164.6,64,164.5,61z"/>
			<path class="st4" d="M159.3,55.4c-1.9-0.4-3.8-0.5-5.7-0.4l-8.1,9.4c0.1,0.6,0.2,1.1,0.3,1.7c0.2,1.2,0.7,2.5,1.4,3.7l12.3-14.3
				C159.4,55.5,159.4,55.5,159.3,55.4z"/>
		</g>
		<g>
			<path class="st4" d="M179.7,55.5c-1.1,0.2-2.2,0.6-3.2,1.4c-1.3,1-1.9,2.5-2,4.2c-0.1,1,0,2,0.1,3l7.7-8.9
				C181.5,55.2,180.6,55.3,179.7,55.5z"/>
			<path class="st4" d="M190.6,56.2c-0.7-0.3-1.4-0.5-2.1-0.7l-12.3,14.3c0.9,2.1,2.5,3.4,4.5,4c2.5,0.8,4,0.8,6.5,0.2
				c3-0.8,5.4-4.4,6.1-7.8c0.3-1.5,0.5-3,0.5-4.5C193.7,59,192.6,57.2,190.6,56.2z"/>
			<path class="st4" d="M187.2,55.2c-1.6-0.2-3.2-0.3-4.8-0.1l-7.7,8.9c0.2,1.9,0.7,3.7,1.4,5.4c0,0.1,0.1,0.2,0.1,0.3l12.3-14.3
				C188.1,55.4,187.6,55.3,187.2,55.2z"/>
		</g>
	</g>
	<path class="st4" d="M206,44.6c-0.7-0.4-0.8-0.9-1-1.2c-0.3-0.6,0-1.9-0.1-2.2c-0.3-1.1-0.6-2.1-1-3.2c-0.6-2-1.1-4.1-1.7-6.2
		c-0.6-2.3-1.6-4-3.1-5.9c-1.4-1.8-2.6-3.9-4.1-5.6c-3.1-3.6-6.7-5.8-11.5-6.6c-2.1-0.3-4-0.9-6.1-0.9c0.1-0.1,0.2-0.1,0.3-0.1
		c1.2-0.6,2.9-1,3.7-2.1c0,0,0.5-0.7,0.5-0.7c-0.1-0.1-4.8,0.8-6.2,0.9c-2.3,0.2-4.7,0.4-7,0.4c-2,0-4.1,0-6.1-0.2
		c0.2-0.1,0.4-0.2,0.6-0.3c1.2-0.6,2.6-0.7,3.7-1.3c0.1,0,0.1-0.2,0-0.3C166.9,9,166.6,9,166.4,9c-2.1-0.9-4.6-0.6-6.9-0.6
		c-2.4,0-4.3,1.2-6.3,2.4c-1.9,1.1-3.1,2.8-4.3,4.6c-0.7,1-1.7,2.7-1.7,4.1c-1.1-1.2-1.2-3.1-1.5-4.6c0-0.1-0.3-0.1-0.3,0
		c-0.3,1.8-0.2,3.5,0.8,5.1c0,0,0.1,0.1,0.1,0.1c-0.8-0.3-1.5-0.7-2.3-1c-1.4-0.6-4-1.2-5.4-0.2c-0.2,0.1,0,0.5,0.2,0.4
		c1.5-0.6,3.8,0.8,5.1,1.3c0.2,0.1,0.5,0.2,0.7,0.3c-1.2,0.3-2.3,0.7-3.5,1.2c-0.7,0.3-1.3,0.7-1.9,1c-0.7,0.8-1.7,1.3-2.4,1.9
		c-0.7,0.6-1.4,1.1-2,1.8c-0.3,0.4-0.6,0.6-0.8,1c-0.3,0.6-0.6,1.4-1.1,1.9c0,0,0,0-0.1,0.1c-0.7,1.5-1,3.1-1.2,4.7
		c0.3,0.1,1.9-1.9,2.7-2.4c0,0,0.1,0,0.1-0.1c-0.4,1-0.6,2.1-0.8,3.1c-0.4,2.9-0.3,5.5,0.2,8.4c0.5,2.6,1.7,5.5,3.2,7.7
		c0.4,0.6,0.8,1.3,1.1,2.1c0.4,0.6,0.8,1.3,1.2,1.9c0.2,0.4,0.5,0.8,0.7,1.2c0.1,0.1,0.3,0.2,0.4,0.3c0.1,0.2,0.2,0.4,0.3,0.6
		c0.1,0.2,0.3,0.5,0.4,0.7c0.5,0.8,1.1,1.5,1.7,2.3c0,0,0-0.1,0-0.1c0.1-1.5,0-3.1-0.3-4.6c-0.1-0.3-0.1-0.7-0.2-1
		c0.1-1.6,0.1-3.3,0-4.9c0.1-0.6,0.1-1.1,0.1-1.3c0.1-1.5,0.3-3,0.7-4.4c0.1-0.3,0.2-0.6,0.3-0.9c0.1-0.2,0.1-0.3,0.2-0.5
		c0.9-2.2,2-4.5,3.7-6.2c0,0,0.1-0.1,0-0.2c0.5-0.7,1.1-1.3,1.6-1.9c0.2-0.1,0.3-0.3,0.5-0.4c0,0,0.1,0.1,0.1,0.1
		c1.8,1.7,3.8,3.2,5.8,4.7c1.8,1.3,4,1.9,6,2.6c1.7,0.6,3.1,1.1,4.8,0.7c0,0,0,0,0,0c0.1,0,0.1,0,0.2,0c0.2,0-3.9-0.9-4.3-3.1
		c1,0.4,2,0.7,3.1,0.9c2.3,0.4,4.7,0.1,7,0.1c2.2,0,4.6-0.3,6.7-1.1c0.1,0,0.1-0.1,0-0.1c-0.7,0.1-9.3,0.7-12.5-0.2
		c-0.4-0.1-2-0.6-2.4-0.7c1.1,0,3.3,0.4,4.4,0.2c1.2-0.2,2.8-0.6,4-0.6c1.2,0,2.3-0.7,3.4-0.9c3-0.6,6.2-1.3,9.3-1.4
		c2.9-0.1,5.2,1.9,7.2,3.7c2,1.8,3.4,3.8,4,6.5c0.6,2.7,0.5,5.3,0.5,8.1c0,0.3,0,0.6-0.1,0.8c0.3,1.9,0.6,3.9,0.3,5.6
		c0.3-0.4,0.9-0.6,1.2-1c0.5-0.9,1.3-1.7,1.9-2.5c0.5-0.6,1.1-1.5,1.4-2.3c0.4-0.9,0.5-2.1,1-2.9c0.8-1.5,0.8-3.4,1.1-5
		c0.1-0.7,0.3-1.5,0.3-2.3c0.5,0.4,1.1,0.6,1.6,0.7C205.7,44.6,206.2,44.7,206,44.6z M144.8,37.9c-0.2,0.3-0.5,0.5-0.7,0.8
		c0.2-0.4,0.5-0.7,0.9-1.1C144.9,37.8,144.9,37.9,144.8,37.9z"/>
	<rect x="-149" y="37.8" class="st4" width="65" height="70"/>
	<rect x="-149" y="-56.2" class="st7" width="65" height="70"/>
	
		<ellipse transform="matrix(0.1852 -0.9827 0.9827 0.1852 18.725 247.6517)" class="st5" cx="158.7" cy="112.5" rx="8.4" ry="24.2"/>
	<path class="st8" d="M185.7,108.1c-1.1-1.3-7.7-3.6-15.6-5.6c9.2,12.9-0.8,17.6-8.2,18.6c-7.4,1-19-9.8-21.7-14.8
		c-2.3-4.3-0.6-6.3-0.1-6.8c-11.2,1-20.3,3.6-20.3,3.6c-3.2,2.3-18.6,37.3-17.2,38.9c2.7,3.3,20,9.2,20,9.2s-6.2,19.9-4.4,31.3
		c0.7,4.7,4.4,40.6,4.4,40.6c19-16.2,59.8-9.2,59.8-9.2s-8.2-17.9-9.2-24.5c-1.1-6.7,9.4-46.3,9.4-46.3s12.1,1.3,12.1-2.2
		C194.6,137.3,187.3,110,185.7,108.1"/>
	<polygon class="st2" points="335.4,189.5 141.2,189.5 141.2,209.9 335.4,205.3 	"/>
	<polygon class="st1" points="75.1,193.3 141.2,189.5 141.2,209.9 75.1,209.9 	"/>
	<path class="st5" d="M122.3,152.4c0,0-6.2,18.9-5.3,21.5c1,2.5,37.4,5.4,43.2,5.1c5.7-0.3,4.8,9.2-1.3,10.5c-6,1.3-55.5,2.5-59.7-1
		c-4.1-3.5,5.5-40.1,6.8-43.3C112.2,148.2,114,148.8,122.3,152.4"/>
	<path class="st5" d="M160.2,179c0.9,0,8.1-1.7,10.3-3c2.2-1.3,7.4-6.1,8.9-5.6c1.4,0.5,2.7,2.9,3,6.8c0.3,4-1.6,6.3-4.3,5.4
		s-2.2-4.1-2.2-4.1s-9.4,4.9-12.5,4.3C160.2,182.3,160.2,179,160.2,179"/>
	<path class="st9" d="M151.3,190.8c0,0-0.3-3.7,0-4.8c0.3-1.1,3.6-3.8,3.6-3.8s43.8-1.7,50.3-2.1c0,0,17.9-53,20.8-55.9
		c0,0,60.9,2.4,72.4,4.8l-16.7,53.9v7.9c0,0-74.4,1.3-79.8,0L151.3,190.8L151.3,190.8z"/>
	<path class="st0" d="M224,124.2c0,0,5.5,0.2,5.7,2.1c0.2,1.9-18.1,53.2-19.3,54c-1.2,0.8-7.2-0.2-7.2-0.2S221.4,127.3,224,124.2"/>
</g>
</svg>
