<?xml version="1.0" encoding="utf-8"?>
<!-- Generator: Adobe Illustrator 16.0.0, SVG Export Plug-In . SVG Version: 6.00 Build 0)  -->
<!DOCTYPE svg PUBLIC "-//W3C//DTD SVG 1.1//EN" "http://www.w3.org/Graphics/SVG/1.1/DTD/svg11.dtd">
<svg version="1.1" id="Layer_1" xmlns="http://www.w3.org/2000/svg" xmlns:xlink="http://www.w3.org/1999/xlink" x="0px" y="0px"
	 width="800px" height="800px" viewBox="0 0 800 800" enable-background="new 0 0 800 800" xml:space="preserve">
<path fill="#E25F26" d="M464.846,391.643c0,0,4.606,311.919,5.913,322.271c1.3,10.356-20.874,17.546-24.776,0
	c-3.9-17.544-6.506-322.271-6.506-322.271H464.846L464.846,391.643z"/>
<path fill="#F16924" d="M217.918,515.492c0,0-5.177,181.74,0,187.254h22.087V515.492
	C240.005,506.499,218.125,507.928,217.918,515.492"/>
<path fill="#F16924" d="M351.352,512.368c0,0,2.325,189.13,7.324,190.42c4.998,1.285,21.273,0,21.273,0s3.23-168.945,0-184.872
	C376.719,501.987,351.352,512.368,351.352,512.368"/>
<path fill="#F16924" d="M398.176,485.94l-8.171,34.324l-179.125-2.378l-0.696-44.228
	C210.186,473.659,352.385,472.004,398.176,485.94"/>
<path fill="#FFFFFF" d="M259.461,274.396c0,0-15.112,23.327-15.772,30.735C243.686,305.131,257.509,284.152,259.461,274.396"/>
<path fill="#B25827" d="M380.566,668.342c0,0-15.632,25.254-18.147,32.663c-2.518,7.411,5.168,27.044,9.074,28.077
	c3.908,1.032,31.812,6.199,33.877,11.368c2.066,5.167,0,13.923,0,13.923s-33.758,3.587-52.014,0
	c-18.258-3.59-32.384-58.362-29.455-79.027c0,0,24.977-18.603,29.455-22.734C357.831,648.476,380.566,668.342,380.566,668.342"/>
<linearGradient id="SVGID_1_" gradientUnits="userSpaceOnUse" x1="317.4077" y1="547.1484" x2="559.0674" y2="547.1484">
	<stop  offset="0" style="stop-color:#2A3B8F"/>
	<stop  offset="0.6624" style="stop-color:#282560"/>
</linearGradient>
<path fill="url(#SVGID_1_)" d="M384.063,435.222c0,0,152.548-18.228,163.918-9.96c11.366,8.271,15.5,25.834,5.165,40.305
	c-10.332,14.468-157.078,193.711-165.342,202.779c-8.269,9.066-38.505-5.399-43.022-17.801c0,0,136.026-164.311,141.193-177.747
	c0,0-126.909-0.416-141.193-18.668c-14.285-18.25-35.517-22.67-24.149-28.868C331.998,419.06,384.063,435.222,384.063,435.222"/>
<path fill="#B25827" d="M490.108,728.049c0,0,6.198,24.801,11.366,28.934c5.169,4.137,49.604-6.199,53.74,0
	c4.133,6.198,3.852,27.9,3.852,27.9s-81.356,9.302-92.725,0c0,0-21.074,5.168-28.105-1.033c0,0,4.334-54.711,10.538-61.974
	C454.977,714.614,490.108,728.049,490.108,728.049"/>
<linearGradient id="SVGID_2_" gradientUnits="userSpaceOnUse" x1="330.3047" y1="626.5645" x2="510.3511" y2="446.518">
	<stop  offset="0" style="stop-color:#2A3B8F"/>
	<stop  offset="1" style="stop-color:#282560"/>
</linearGradient>
<path fill="url(#SVGID_2_)" d="M320.628,425.262c0,0,17.913,22.734,32.729,23.767c14.811,1.032,159.487-2.065,171.886,12.402
	c12.402,14.467-31,241.68-25.832,272.232c0,0-54.772,1.485-62.007,0c0,0,45.474-215.395,40.302-225.731
	C472.54,497.6,269.557,487.197,258.19,475.83c-11.367-11.369-12.401-32.037-9.299-43.402
	C251.99,421.063,320.628,425.262,320.628,425.262"/>
<path fill="#FFE0BB" d="M385.257,279.387c0,0,19.096,56.751,27.882,73.93c8.777,17.185-21.796,15.922-21.796,15.922
	s-27.501-61.183-29.199-76.793C360.446,276.835,377.872,258.021,385.257,279.387"/>
<path fill="#FFE0BB" d="M348.991,168.556c0,0-6.177,28.458-12.672,36.917c0,0,23.973,17.563-10.69,22.116
	c-34.668,4.554-69.336-24.28-64.087-31.979c0,0,29.419-1.195,37.823-3.796c8.406-2.603-16.418-38.943-16.418-38.943
	s52.971-25.723,68.725,6.148"/>
<path fill="#FFE0BB" d="M341.29,349.46c0,0,10.548-13.826,14.705-17.321c4.155-3.493,10.663-3.817,10.663-3.817
	s7.805,4.552,9.104,8.456c1.304,3.901,6.83,15.724,0,18.269c-6.831,2.544-15.564-10.789-15.564-10.789s-6.422,3.516-8.439,6.799
	C349.743,354.339,341.29,349.46,341.29,349.46"/>
<path fill="#FEE2C9" d="M313.496,363.846c0,0,31.61-13.581,40.121-10.526c8.51,3.051,18.539,4.605,23.905,5.039
	c5.365,0.436,9.11,6.25,10.103,5.487C388.616,363.085,324.111,374.265,313.496,363.846"/>
<path fill="#F16924" d="M656.733,400.248c0,0,4.608,352.729,5.911,364.437c1.301,11.71-20.869,19.84-24.771,0
	c-3.904-19.839-6.507-364.437-6.507-364.437H656.733z"/>
<path fill="#E25F26" d="M168.944,411.48c0,0-22.344,331.892-22.344,343.448c0,0-17.984,17.237-21.887,0
	c-3.903-17.238,18.266-343.448,18.266-343.448H168.944z"/>
<path fill="#F16924" d="M277.568,421.238c0,0-22.787,349.626-20.53,357.434c2.263,7.807,20.176,12.108,23.495,4.307
	c3.313-7.809,23.647-363.771,23.647-363.771L277.568,421.238z"/>
<g>
	<path fill="#FFE0BB" d="M387.66,81.751c0,64.594-26.097,116.958-58.287,116.958c-32.192,0-58.289-52.364-58.289-116.958"/>
	<path fill="#FFE0BB" d="M271.155,81.887c0-21.607,26.12-39.125,58.343-39.125c32.227,0,58.346,17.517,58.346,39.125"/>
</g>
<g>
	<linearGradient id="XMLID_2_" gradientUnits="userSpaceOnUse" x1="277.042" y1="123.0732" x2="394.2573" y2="123.0732">
		<stop  offset="0" style="stop-color:#2A3B8F"/>
		<stop  offset="1" style="stop-color:#282560"/>
	</linearGradient>
	<path id="XMLID_67_" fill="url(#XMLID_2_)" d="M321.455,103.59c-5.188-2.273-10.603-3.021-17.04-3.066
		c-1.024,0.078-2.977,0.16-4.92,0.379c-5.467,0.615-17.413,2.339-22.055,5.409c-0.216,0.143-0.398,0.601-0.398,0.912
		c0,1.688,0.026,3.374,0.117,5.055c0.07,1.256,0.549,2.193,1.672,2.66c1.932,0.806,3.229,2.395,3.873,4.679
		c0.745,2.645,1.466,5.296,2.242,7.929c1.176,4.005,2.799,7.745,5.224,10.935c3.194,4.201,7.367,6.178,12.039,6.874
		c4.259,0.635,8.442,0.131,12.525-1.441c2.573-0.992,4.8-2.62,6.673-4.923c1.688-2.081,2.956-4.464,3.999-7.041
		c1.662-4.108,2.932-8.361,3.739-12.808c0.215-1.205,0.167-2.122-0.556-3.14c-1.138-1.603-0.437-3.919,1.289-4.476
		c3.562-1.157,7.983-1.157,11.546,0c1.726,0.557,2.427,2.874,1.288,4.476c-0.721,1.019-0.772,1.935-0.553,3.14
		c0.805,4.447,2.074,8.7,3.739,12.808c1.038,2.576,2.305,4.959,3.995,7.041c1.87,2.304,4.098,3.931,6.676,4.923
		c4.08,1.572,8.258,2.076,12.521,1.441c4.673-0.696,8.846-2.673,12.038-6.874c2.427-3.192,4.043-6.93,5.225-10.935
		c0.771-2.632,1.493-5.284,2.242-7.929c0.644-2.284,1.941-3.873,3.873-4.679c1.125-0.467,1.599-1.404,1.671-2.66
		c0.091-1.681,0.116-3.368,0.116-5.055c0.006-0.311-0.181-0.769-0.398-0.912c-4.642-3.07-16.589-4.793-22.055-5.409
		c-1.943-0.218-3.896-0.301-4.921-0.379c-6.436,0.045-11.851,0.793-17.038,3.066c-1.523,0.668-2.99,1.523-4.464,2.328
		c-0.881,0.481-1.693,0.449-2.571-0.063c-0.536-0.311-1.185-0.518-1.78-0.52c-3.583-0.011-7.17-0.011-10.753,0
		c-0.596,0-1.244,0.209-1.78,0.52c-0.882,0.513-1.689,0.545-2.571,0.063C324.443,105.113,322.978,104.259,321.455,103.59
		L321.455,103.59z M385.211,117.202L385.211,117.202c0.023,3.15-0.387,6.226-0.997,9.291c-1.382,6.916-6.274,14.251-12.414,15.934
		c-5.06,1.384-8.152,1.261-13.284-0.336c-4.279-1.332-7.545-4.118-9.458-8.836c-2.202-5.432-3.403-11.13-3.071-17.173
		c0.202-3.582,1.476-6.568,4.049-8.641c1.96-1.581,4.229-2.332,6.544-2.82c5.056-1.066,10.148-1.203,15.242-0.487
		c2.374,0.332,4.726,0.824,6.954,1.909C383.021,108.11,385.173,111.822,385.211,117.202L385.211,117.202z M286.083,117.202
		L286.083,117.202c0.043-5.38,2.188-9.092,6.436-11.161c2.228-1.086,4.581-1.579,6.955-1.91c5.095-0.715,10.186-0.579,15.243,0.487
		c2.318,0.487,4.583,1.24,6.544,2.82c2.57,2.072,3.847,5.059,4.048,8.641c0.327,6.042-0.87,11.74-3.071,17.172
		c-1.914,4.718-5.178,7.503-9.459,8.836c-5.132,1.596-8.227,1.719-13.282,0.335c-6.14-1.682-11.033-9.018-12.412-15.934
		C286.471,123.426,286.06,120.35,286.083,117.202z"/>
	<g>
		<linearGradient id="SVGID_3_" gradientUnits="userSpaceOnUse" x1="286.0806" y1="113.3525" x2="303.0186" y2="113.3525">
			<stop  offset="0" style="stop-color:#2A3B8F"/>
			<stop  offset="1" style="stop-color:#282560"/>
		</linearGradient>
		<path fill="url(#SVGID_3_)" d="M299.472,104.091c-2.372,0.331-4.726,0.823-6.954,1.91c-4.246,2.068-6.394,5.78-6.437,11.16
			c-0.016,1.962,0.139,3.893,0.405,5.813l16.532-19.242C301.837,103.805,300.654,103.925,299.472,104.091z"/>
		<linearGradient id="SVGID_4_" gradientUnits="userSpaceOnUse" x1="289.9292" y1="124" x2="325.3613" y2="124">
			<stop  offset="0" style="stop-color:#2A3B8F"/>
			<stop  offset="1" style="stop-color:#282560"/>
		</linearGradient>
		<path fill="url(#SVGID_4_)" d="M325.308,116.04c-0.201-3.583-1.478-6.567-4.048-8.642c-1.85-1.491-3.972-2.243-6.157-2.736
			l-25.173,29.301c2.311,4.04,5.687,7.36,9.565,8.417c5.057,1.385,8.151,1.261,13.281-0.335c4.281-1.33,7.547-4.118,9.46-8.835
			C324.438,127.782,325.636,122.083,325.308,116.04z"/>
		<linearGradient id="SVGID_5_" gradientUnits="userSpaceOnUse" x1="286.4897" y1="118.8042" x2="315.105" y2="118.8042">
			<stop  offset="0" style="stop-color:#2A3B8F"/>
			<stop  offset="1" style="stop-color:#282560"/>
		</linearGradient>
		<path fill="url(#SVGID_5_)" d="M314.716,104.576c-3.885-0.819-7.787-1.087-11.694-0.844l-16.532,19.242
			c0.161,1.162,0.365,2.32,0.595,3.476c0.51,2.551,1.494,5.156,2.847,7.514l25.174-29.301
			C314.976,104.634,314.843,104.604,314.716,104.576z"/>
	</g>
	<g>
		<linearGradient id="SVGID_6_" gradientUnits="userSpaceOnUse" x1="345.9341" y1="113.0244" x2="361.9185" y2="113.0244">
			<stop  offset="0" style="stop-color:#2A3B8F"/>
			<stop  offset="1" style="stop-color:#282560"/>
		</linearGradient>
		<path fill="url(#SVGID_6_)" d="M356.58,104.642c-2.318,0.49-4.583,1.24-6.544,2.82c-2.572,2.074-3.848,5.058-4.048,8.639
			c-0.113,2.07-0.044,4.097,0.179,6.088l15.752-18.331C360.137,104.009,358.357,104.267,356.58,104.642z"/>
		<linearGradient id="SVGID_7_" gradientUnits="userSpaceOnUse" x1="349.3462" y1="124.0156" x2="385.2148" y2="124.0156">
			<stop  offset="0" style="stop-color:#2A3B8F"/>
			<stop  offset="1" style="stop-color:#282560"/>
		</linearGradient>
		<path fill="url(#SVGID_7_)" d="M378.776,106.062c-1.377-0.67-2.803-1.113-4.252-1.433l-25.177,29.304
			c1.943,4.319,5.098,6.91,9.174,8.177c5.133,1.597,8.226,1.722,13.283,0.338c6.14-1.683,11.033-9.016,12.413-15.934
			c0.609-3.064,1.022-6.141,0.998-9.29C385.173,111.844,383.021,108.129,378.776,106.062z"/>
		<linearGradient id="SVGID_8_" gradientUnits="userSpaceOnUse" x1="346.1665" y1="118.8232" x2="374.522" y2="118.8232">
			<stop  offset="0" style="stop-color:#2A3B8F"/>
			<stop  offset="1" style="stop-color:#282560"/>
		</linearGradient>
		<path fill="url(#SVGID_8_)" d="M371.82,104.153c-3.303-0.463-6.61-0.567-9.902-0.293l-15.752,18.331
			c0.433,3.824,1.441,7.514,2.89,11.086c0.093,0.223,0.188,0.441,0.288,0.659l25.177-29.305
			C373.629,104.431,372.724,104.28,371.82,104.153z"/>
	</g>
</g>
<linearGradient id="SVGID_9_" gradientUnits="userSpaceOnUse" x1="251.9751" y1="61.2061" x2="404.3818" y2="61.2061">
	<stop  offset="0" style="stop-color:#2A3B8F"/>
	<stop  offset="1" style="stop-color:#282560"/>
</linearGradient>
<path fill="url(#SVGID_9_)" d="M404.329,82.311c-1.373-0.767-1.664-1.867-1.986-2.513c-0.635-1.27-0.044-3.879-0.199-4.475
	c-0.568-2.2-1.298-4.316-1.97-6.49c-1.3-4.201-2.258-8.492-3.396-12.736c-1.248-4.688-3.334-8.297-6.3-12.193
	c-2.854-3.75-5.333-7.942-8.416-11.49c-6.432-7.402-13.763-11.937-23.645-13.607c-4.216-0.71-8.279-1.862-12.511-1.864
	c0.228-0.105,0.466-0.199,0.691-0.305c2.422-1.152,5.893-2.116,7.614-4.239c0.035-0.043,0.966-1.473,0.966-1.473
	c-0.15-0.184-9.891,1.659-12.718,1.922c-4.742,0.442-9.556,0.828-14.315,0.914c-4.195,0.073-8.407-0.021-12.591-0.381
	c0.383-0.228,0.786-0.451,1.226-0.675c2.437-1.246,5.233-1.433,7.618-2.611c0.193-0.092,0.21-0.429,0-0.518
	c-0.35-0.151-0.816-0.233-1.347-0.263c-4.389-1.896-9.449-1.281-14.139-1.279c-4.851,0.002-8.84,2.515-12.814,4.895
	c-3.852,2.308-6.309,5.819-8.804,9.385c-1.379,1.972-3.478,5.483-3.439,8.406c-2.25-2.543-2.507-6.279-3.117-9.432
	c-0.054-0.279-0.522-0.279-0.574,0c-0.709,3.658-0.488,7.245,1.543,10.5c0.045,0.072,0.103,0.159,0.152,0.238
	c-1.579-0.701-3.159-1.361-4.689-1.995c-2.847-1.182-8.28-2.551-10.965-0.338c-0.378,0.308,0.023,1.018,0.491,0.828
	c2.991-1.228,7.779,1.572,10.468,2.607c0.486,0.188,0.966,0.396,1.437,0.619c-2.447,0.549-4.78,1.349-7.089,2.386
	c-1.335,0.598-2.601,1.334-3.842,2.099c-1.392,1.55-3.402,2.695-5.003,3.976c-1.431,1.144-2.848,2.336-4.111,3.661
	c-0.515,0.785-1.251,1.296-1.695,2.084c-0.673,1.195-1.206,2.946-2.273,3.881c-0.037,0.033-0.076,0.078-0.117,0.117
	c-1.44,3.108-2.124,6.259-2.493,9.63c0.538,0.191,3.957-3.886,5.498-4.907c0.07-0.044,0.149-0.096,0.228-0.145
	c-0.827,2.087-1.286,4.341-1.537,6.381c-0.725,5.858-0.616,11.297,0.417,17.117c0.954,5.383,3.428,11.31,6.57,15.818
	c0.881,1.26,1.547,2.728,2.209,4.205c0.815,1.326,1.634,2.65,2.462,3.978c0.505,0.806,1.012,1.609,1.521,2.407
	c0.28,0.241,0.568,0.471,0.886,0.676c0.174,0.396,0.362,0.79,0.57,1.173c0.27,0.498,0.518,1.004,0.752,1.512
	c1.085,1.606,2.22,3.172,3.421,4.676c-0.009-0.066-0.013-0.131-0.025-0.199c0.255-3.138,0.063-6.374-0.701-9.358
	c-0.176-0.684-0.3-1.379-0.403-2.077c0.174-3.338,0.142-6.727,0.057-10.07c0.127-1.273,0.226-2.226,0.258-2.578
	c0.283-3.083,0.647-6.096,1.464-9.092c0.186-0.67,0.388-1.26,0.56-1.827c0.136-0.313,0.273-0.63,0.396-0.948
	c1.756-4.516,4.142-9.146,7.573-12.693c0.098-0.103,0.125-0.258,0.096-0.398c1.058-1.341,2.165-2.648,3.37-3.813
	c0.334-0.285,0.667-0.571,0.999-0.858c0.085,0.083,0.166,0.166,0.248,0.248c3.606,3.546,7.787,6.577,11.878,9.542
	c3.63,2.626,8.173,3.899,12.394,5.294c3.558,1.174,6.333,2.173,9.787,1.399c0.012,0,0.022,0.002,0.037,0.002
	c0.129,0,0.229-0.039,0.323-0.093c0.342-0.086-7.978-1.821-8.799-6.345c2.066,0.843,4.172,1.483,6.254,1.858
	c4.661,0.842,9.654,0.297,14.363,0.234c4.516-0.06,9.516-0.549,13.715-2.227c0.135-0.055,0.138-0.297-0.042-0.276
	c-1.5,0.158-19.015,1.417-25.537-0.395c-0.916-0.257-4.082-1.308-5.015-1.505c2.275-0.022,6.751,0.868,9.01,0.471
	c2.508-0.436,5.698-1.132,8.25-1.132c2.471,0,4.655-1.344,7.068-1.796c6.209-1.164,12.654-2.761,19.004-2.932
	c5.985-0.162,10.567,3.851,14.738,7.516c4.186,3.675,7.069,7.883,8.237,13.366c1.164,5.494,0.959,10.941,0.964,16.55
	c0.004,0.574-0.063,1.154-0.156,1.737c0.581,3.862,1.322,7.931,0.593,11.561c0.701-0.75,1.927-1.187,2.392-2.005
	c1.002-1.772,2.572-3.527,3.874-5.075c1.068-1.268,2.172-3.134,2.822-4.646c0.769-1.77,1.063-4.289,1.979-5.91
	c1.688-2.985,1.573-6.971,2.208-10.299c0.294-1.523,0.512-3.145,0.646-4.79c1.038,0.756,2.191,1.31,3.368,1.393
	C403.609,82.329,404.623,82.474,404.329,82.311z M278.9,68.701c-0.483,0.54-0.996,1.107-1.519,1.693
	c0.41-0.764,1.079-1.481,1.845-2.153C279.117,68.392,279.004,68.543,278.9,68.701z"/>
<ellipse transform="matrix(0.1852 -0.9827 0.9827 0.1852 37.6639 488.6293)" fill="#FFE0BB" cx="313.482" cy="221.603" rx="17.22" ry="49.642"/>
<linearGradient id="SVGID_10_" gradientUnits="userSpaceOnUse" x1="198.1953" y1="321.5781" x2="387.0073" y2="321.5781">
	<stop  offset="0" style="stop-color:#F15B2A"/>
	<stop  offset="1" style="stop-color:#F69321"/>
</linearGradient>
<path fill="url(#SVGID_10_)" d="M368.79,212.509c-2.282-2.739-15.782-7.398-32.001-11.544c18.811,26.45-1.658,36.1-16.785,38.05
	c-15.125,1.951-39.028-20.001-44.392-30.247c-4.653-8.879-1.244-12.929-0.252-13.851c-22.907,2.037-41.703,7.37-41.703,7.37
	c-6.501,4.676-38.076,76.463-35.289,79.82c5.527,6.67,40.979,18.864,40.979,18.864s-12.684,40.874-9.107,64.128
	c1.489,9.665,9.107,83.141,9.107,83.141c39.031-33.176,122.663-18.959,122.663-18.959s-16.738-36.613-18.912-50.271
	c-2.18-13.662,19.187-94.949,19.187-94.949s24.721,2.604,24.721-4.551C387.003,272.353,372.042,216.411,368.79,212.509"/>
<polygon fill="#F16924" points="675.598,379.263 277.568,379.263 277.568,421.238 675.598,411.808 "/>
<polygon fill="#E25F26" points="142.215,387.087 277.568,379.26 277.568,421.238 142.215,421.238 "/>
<path fill="#FFE0BB" d="M238.847,303.406c0,0-12.722,38.8-10.769,44.005c1.949,5.203,76.75,11.058,88.46,10.408
	c11.708-0.653,9.759,18.862-2.604,21.462c-12.355,2.606-113.829,5.205-122.284-1.951c-8.457-7.152,11.326-82.157,13.927-88.664
	C218.204,294.607,221.854,296.003,238.847,303.406"/>
<path fill="#FFE0BB" d="M316.539,357.817c1.907,0.091,16.588-3.575,21.138-6.18c4.557-2.6,15.25-12.404,18.217-11.384
	c2.96,1.023,5.527,5.855,6.18,13.988c0.649,8.128-3.253,13.009-8.781,11.058c-5.527-1.952-4.556-8.458-4.556-8.458
	s-19.188,9.966-25.69,8.886C316.539,364.646,316.539,357.817,316.539,357.817"/>
<linearGradient id="SVGID_11_" gradientUnits="userSpaceOnUse" x1="298.1064" y1="314.3857" x2="599.8857" y2="314.3857">
	<stop  offset="0" style="stop-color:#D1D3D4"/>
	<stop  offset="1" style="stop-color:#F1F2F2"/>
</linearGradient>
<path fill="url(#SVGID_11_)" d="M298.396,381.969c0,0-0.652-7.564,0-9.841c0.648-2.279,7.479-7.808,7.479-7.808
	s89.765-3.578,103.097-4.228c0,0,36.754-108.628,42.605-114.483c0,0,124.889,4.88,148.308,9.758l-34.151,110.44v16.161
	c0,0-152.534,2.687-163.591,0H298.396V381.969z"/>
<path fill="#FFFFFF" d="M447.283,245.612c0,0,11.222,0.495,11.705,4.395c0.489,3.898-37.072,108.967-39.512,110.584
	c-2.438,1.617-14.799-0.496-14.799-0.496S441.919,251.954,447.283,245.612"/>
</svg>
