<?xml version="1.0" encoding="utf-8"?>
<!-- Generator: Adobe Illustrator 21.0.2, SVG Export Plug-In . SVG Version: 6.00 Build 0)  -->
<svg version="1.1" id="Layer_1" xmlns="http://www.w3.org/2000/svg" xmlns:xlink="http://www.w3.org/1999/xlink" x="0px" y="0px"
	 viewBox="0 0 290.6 290.6" style="enable-background:new 0 0 290.6 290.6;" xml:space="preserve">
<style type="text/css">
	.st0{fill:#FF6600;}
	.st1{fill:#333333;}
</style>
<g>
	<g>
		<path class="st0" d="M135.9,135.9H89.1v75h178.1v-75h-46.9h-1.7c-11.2,8.8-25.2,14.1-40.5,14.1s-29.3-5.3-40.5-14.1L135.9,135.9
			L135.9,135.9z"/>
		<path class="st1" d="M0,243.7c0,7.8,6.3,14.1,14.1,14.1h4.7h9.4c0,18.1,14.7,32.8,32.8,32.8s32.8-14.7,32.8-32.8h89.1
			c0,18.1,14.7,32.8,32.8,32.8s32.8-14.7,32.8-32.8h14.1h9.4h4.7c7.8,0,14.1-6.3,14.1-14.1s-6.3-14.1-14.1-14.1h-4.7V89.1h-23.7
			c0.1-1.6,0.2-3.1,0.2-4.7c0-18.9-7.5-36-19.7-48.7l3.3-3.3l8.4,8.4l6.6-6.6l-23.4-23.4l-6.6,6.6l8.4,8.4l-3.6,3.6
			c-10.9-8.6-24.3-14.1-39-15.1V9.4h14.1V0l-37.5,0v9.4h14.1v4.9c-14.7,1-28.1,6.4-39,15.1l-3.6-3.6l8.4-8.4l-6.6-6.6l-23.4,23.4
			l6.6,6.6l8.4-8.4l3.3,3.3c-12.2,12.6-19.7,29.8-19.7,48.7c0,1.6,0.1,3.1,0.2,4.7H84.4v42.2H42.6l-4.7,46.9H18.7v51.6h-4.7
			C6.3,229.7,0,236,0,243.7z M84.4,140.6v37.5h-37l3.8-37.5H84.4z M239.1,84.4c0,33.6-27.3,60.9-60.9,60.9s-60.9-27.3-60.9-60.9
			s27.3-60.9,60.9-60.9S239.1,50.8,239.1,84.4z M271.9,239.1h4.7c2.6,0,4.7,2.1,4.7,4.7s-2.1,4.7-4.7,4.7h-4.7V239.1z M192.2,257.8
			c0-12.9,10.5-23.4,23.4-23.4s23.4,10.5,23.4,23.4s-10.5,23.4-23.4,23.4C202.7,281.2,192.2,270.7,192.2,257.8z M184.2,248.4H93.7
			v-60.9v-9.4v-46.9V98.4h15.5c6.5,32.1,34.9,56.3,68.9,56.3s62.4-24.2,68.9-56.3h15.5v131.3v18.8h-15.4
			c-4-13.5-16.6-23.4-31.4-23.4C200.8,225,188.2,234.9,184.2,248.4L184.2,248.4z M37.5,257.8c0-12.9,10.5-23.4,23.4-23.4
			s23.4,10.5,23.4,23.4s-10.5,23.4-23.4,23.4C48,281.2,37.5,270.7,37.5,257.8z M28.1,248.4v-18.8v-42.2H37h47.4v47.4
			c-6-6.1-14.3-9.9-23.4-9.9c-14.8,0-27.4,9.9-31.4,23.4H28.1L28.1,248.4z M9.4,243.8c0-2.6,2.1-4.7,4.7-4.7h4.7v9.4h-4.7
			C11.5,248.4,9.4,246.3,9.4,243.8z"/>
		<path class="st1" d="M201.6,257.8c0,7.8,6.3,14.1,14.1,14.1c7.8,0,14.1-6.3,14.1-14.1c0-7.8-6.3-14.1-14.1-14.1
			C207.9,243.7,201.6,250.1,201.6,257.8z M210.9,257.8c0-2.6,2.1-4.7,4.7-4.7c2.6,0,4.7,2.1,4.7,4.7s-2.1,4.7-4.7,4.7
			C213,262.5,210.9,260.4,210.9,257.8z"/>
		<path class="st1" d="M46.9,257.8c0,7.8,6.3,14.1,14.1,14.1c7.8,0,14.1-6.3,14.1-14.1c0-7.8-6.3-14.1-14.1-14.1
			S46.9,250.1,46.9,257.8z M56.2,257.8c0-2.6,2.1-4.7,4.7-4.7c2.6,0,4.7,2.1,4.7,4.7s-2.1,4.7-4.7,4.7
			C58.4,262.5,56.2,260.4,56.2,257.8z"/>
		<path class="st1" d="M188.8,75.3l25.7-30l-7.1-6.1l-26.9,31.4c-0.8-0.1-1.5-0.2-2.3-0.2c-7.8,0-14.1,6.3-14.1,14.1
			s6.3,14.1,14.1,14.1c7.8,0,14.1-6.3,14.1-14.1C192.2,80.9,190.9,77.7,188.8,75.3z M178.1,79.7c2.6,0,4.7,2.1,4.7,4.7
			s-2.1,4.7-4.7,4.7c-2.6,0-4.7-2.1-4.7-4.7S175.5,79.7,178.1,79.7z"/>
		<path class="st1" d="M229.7,84.4c0-12.6-4.6-24.8-13.1-34.2l-7,6.2c6.9,7.8,10.7,17.7,10.7,28c0,21.8-17,40.2-38.7,42l0.8,9.3
			C208.9,133.5,229.7,111,229.7,84.4z"/>
	</g>
</g>
</svg>
