<?xml version="1.0" encoding="utf-8"?>
<!-- Generator: Adobe Illustrator 21.0.2, SVG Export Plug-In . SVG Version: 6.00 Build 0)  -->
<svg version="1.1" id="Layer_1" xmlns="http://www.w3.org/2000/svg" xmlns:xlink="http://www.w3.org/1999/xlink" x="0px" y="0px"
	 viewBox="0 0 65.4 201.1" style="enable-background:new 0 0 65.4 201.1;" xml:space="preserve">
<style type="text/css">
	.st0{fill:url(#SVGID_1_);}
	.st1{fill:#DD9E73;}
	.st2{fill:url(#SVGID_2_);}
	.st3{fill:#1E5177;}
	.st4{fill:#594A42;}
	.st5{fill:url(#SVGID_3_);}
	.st6{fill:url(#SVGID_4_);}
	.st7{fill:#273D7F;}
	.st8{fill:url(#SVGID_5_);}
	.st9{fill:#F2F2F2;}
	.st10{fill:url(#SVGID_6_);}
	.st11{fill:url(#SVGID_7_);}
	.st12{fill:url(#SVGID_8_);}
	.st13{fill:url(#SVGID_9_);}
	.st14{fill:url(#SVGID_10_);}
	.st15{fill:url(#SVGID_11_);}
	.st16{fill:url(#SVGID_12_);}
	.st17{fill:url(#SVGID_13_);}
	.st18{fill:url(#SVGID_14_);}
	.st19{fill:url(#SVGID_15_);}
	.st20{fill:url(#SVGID_16_);}
	.st21{fill:url(#SVGID_17_);}
	.st22{fill:url(#SVGID_18_);}
	.st23{fill:url(#SVGID_19_);}
	.st24{fill:url(#SVGID_20_);}
	.st25{fill:url(#SVGID_21_);}
	.st26{fill:url(#SVGID_22_);}
	.st27{fill:url(#SVGID_23_);}
	.st28{fill:url(#SVGID_24_);}
	.st29{opacity:0.6;fill:#FFFFFF;enable-background:new    ;}
</style>
<g>
	<g>
		
			<radialGradient id="SVGID_1_" cx="36.1337" cy="107.2" r="16.9068" gradientTransform="matrix(1 0 0 -1 0 160)" gradientUnits="userSpaceOnUse">
			<stop  offset="0" style="stop-color:#FFD297"/>
			<stop  offset="1" style="stop-color:#F89D89"/>
		</radialGradient>
		<path class="st0" d="M48.1,39.6H33.5v10.2H47v7.6H33.5v16.1h-9.4V32.1h24V39.6z"/>
		<polygon class="st1" points="52.8,44.7 52.8,46.9 55.4,46.9 55.4,44.6 		"/>
		<g>
			<path class="st1" d="M42.5,5.7l1.9-2l1.4-0.5L48.7,4l0.2,1.9c0,0-0.2,3.6-4.8,3.3c-1.1,0.3-1.3,1.1-1.3,1.1l-2.6-2.7L42.5,5.7z"
				/>
			<g>
				
					<radialGradient id="SVGID_2_" cx="-312.7133" cy="-217.2086" r="2.7175" gradientTransform="matrix(0.7998 -0.6003 -0.6003 -0.7998 174.1803 -329.8144)" gradientUnits="userSpaceOnUse">
					<stop  offset="0" style="stop-color:#FFD297"/>
					<stop  offset="1" style="stop-color:#F89D89"/>
				</radialGradient>
				<path class="st2" d="M50.9,31.5c0,0-0.2,0.5,0,0.5c0.2,0.2,2.9,0.4,4.8,0.3c1.9-0.1,2.6-0.8,2.6-0.8s-0.8-0.4-1.4-0.5
					s-3.1,0.1-3.4,0.1C53.2,31,51.8,31,51.8,31L50.9,31.5z"/>
				<path class="st3" d="M51.5,30c0.2-0.1,0.8,1.1,2.8-1.1c0.6-0.6,1,0.3,1.4,0.7c0.4,0.3,0.5,0.6,1.8,0.3s1.8,1.9-0.2,2.1
					s-5.2,0.1-6.1-0.2C50.3,31.5,51.5,30,51.5,30z"/>
			</g>
			<path class="st4" d="M41.6,5.9c0,0,0.7-7.9,6.1-5.5c5.5,2.4,3,5.5,1.4,5.5c-1.3,0-1-2.3-2.2-2c-0.3,0.1-0.6,0.2-0.7,0.5
				c-0.2,0.3-0.4,0.7-0.7,0.9c-0.2,0.2-0.4,0.3-0.6,0.4c0,0-0.2,0.1-0.3,0.1c0.1-0.3,0.3-0.6,0.5-0.8c0.1-0.2,0.4-0.5,0.3-0.7
				C45.3,4.2,45,4.1,44.9,4c-0.8-0.2-1.4,0.5-1.7,1.2C42.5,7.4,41.6,5.9,41.6,5.9z"/>
			
				<linearGradient id="SVGID_3_" gradientUnits="userSpaceOnUse" x1="47.7475" y1="141.8848" x2="45.1641" y2="115.0514" gradientTransform="matrix(1 0 0 -1 0 160)">
				<stop  offset="0" style="stop-color:#FFFFFF"/>
				<stop  offset="1" style="stop-color:#1E5177"/>
			</linearGradient>
			<path class="st5" d="M42.4,21.4l1.3-1.1l5.4-2.2c0,0,4,9.4,4.7,10.3c-1.2,0.1-4.4-0.1-4.4-0.1s-1.5-5-2.8-5.4
				c-1.3-0.3-1.3,5.2-1.3,5.2h9.2c0,0,1-0.1,1.3,2c0.2,2.1,0,14.9,0,14.9H52c-0.1-3.5-0.2-7.1-0.3-10.6c0-0.5,0.1-1.3-0.2-1.8
				c-0.6-0.7-2.5-0.2-3.3-0.2c-1.2,0-2.4-0.1-3.6,0c-2.1,0-4.3,0-6.4,0c-0.1,0-0.4,0.1-0.5,0c0,0-1.5-0.2-1.6-3.5s3.7-2.9,4-3.2
				C40.1,25.5,42.4,21.4,42.4,21.4z"/>
			
				<linearGradient id="SVGID_4_" gradientUnits="userSpaceOnUse" x1="35.1182" y1="146.4375" x2="52.0675" y2="146.4375" gradientTransform="matrix(1 0 0 -1 0 160)">
				<stop  offset="0" style="stop-color:#FF6347"/>
				<stop  offset="1" style="stop-color:#FFFFFF"/>
			</linearGradient>
			<path class="st6" d="M35.2,10.2c-0.3-0.4,0.3-1.8,0.6-2.1c0.6-0.8,1.4-1.3,2.4-1.5s2.2-0.3,3.2,0.1c0.5,0.2,1.2,0.6,1.3,1.1
				c0,0.5,0.2,1.2,0.3,1.7s0.2,0.9,0.4,1.4c0.3,0.8,0.7,1.8,1.4,2.3c0.8,1.1,1.8,2.1,2.8,3c1.1,1,2.3,1.9,3.6,2.6
				c0.2,0.1,0.3,0.2,0.5,0.3c0.4,0.2,0.3,0.7,0.3,1.1c0,0.1,0,0.4-0.1,0.5l-4.6-0.4l-6.2-6.2l-2.3-3.6l0.3-0.8
				c0,0.1-0.3,0.1-0.4,0.2c-0.3,0.1-0.7,0.2-1.1,0.3c-0.5,0.1-1,0.2-1.6,0.1C36,10.3,35.5,10.4,35.2,10.2
				C35.3,10.2,35.2,10.2,35.2,10.2z"/>
			<path class="st7" d="M42.1,9.5c0.3,0.2,0.4,0.5,0.6,0.8c0.3,0.6,0.5,1.2,0.6,1.8c0.3,1.3,0.3,2.5,0.3,3.9c0,3-0.7,5-0.7,5
				c0,1,0,2,0,3.1c0,0.7,0.2,2-0.1,2.6c-0.3,0.5-1.2,1-1.7,1.3c-1.8,1.3-4.5,2.7-6.7,1.5C31,27.7,32.2,12.8,35,10.1
				c1.8-1.7,4.5-1.6,6.7-0.9C41.9,9.3,42,9.4,42.1,9.5z"/>
			<g>
				
					<linearGradient id="SVGID_5_" gradientUnits="userSpaceOnUse" x1="55.707" y1="141.2306" x2="55.406" y2="138.104" gradientTransform="matrix(1 0 0 -1 0 160)">
					<stop  offset="0" style="stop-color:#FFFFFF"/>
					<stop  offset="1" style="stop-color:#1E5177"/>
				</linearGradient>
				<polygon class="st8" points="53.9,20.7 56.3,18.8 57.2,20.1 54.9,21.8 				"/>
				<polygon class="st9" points="54.1,20.6 56.2,19.1 56.9,20.1 55,21.6 				"/>
			</g>
			<path class="st1" d="M50.7,20.3c0,0,1.4,0.4,2.1,0.1c0.7-0.2,0.9-0.1,1.4-0.6c0.6-0.5,1.3,0.2,0.8,0.5s-0.9,0.5-0.9,0.5
				s1.3,0.4,2.3-0.3c1-0.6,1.3,2.8-1.6,2.4s-4.6-1.4-4.6-1.4v-1L50.7,20.3z"/>
			
				<linearGradient id="SVGID_6_" gradientUnits="userSpaceOnUse" x1="37.7721" y1="144.0423" x2="52.1394" y2="144.0423" gradientTransform="matrix(1 0 0 -1 0 160)">
				<stop  offset="0" style="stop-color:#FF6347"/>
				<stop  offset="1" style="stop-color:#FFFFFF"/>
			</linearGradient>
			<path class="st10" d="M52.1,20.4c0,0-2.7-0.5-5.3-2s-3.3-3-4.3-6.1s-3.2-3-3.6-2.8s-1.5,1.7-1,4.1s2,4.3,3.7,6.4s9.1,2.5,9.1,2.5
				S52.3,22.2,52.1,20.4z"/>
			<g>
				
					<radialGradient id="SVGID_7_" cx="54.0032" cy="111.0429" r="2.7133" gradientTransform="matrix(1 0 0 -1 0 160)" gradientUnits="userSpaceOnUse">
					<stop  offset="0" style="stop-color:#FFD297"/>
					<stop  offset="1" style="stop-color:#F89D89"/>
				</radialGradient>
				<path class="st11" d="M51.2,46.7c0,0-0.4,0.3-0.3,0.4c0.1,0.3,2.1,2.1,3.7,3.2s2.5,0.9,2.5,0.9s-0.5-0.8-0.8-1.2
					c-0.4-0.4-2.6-1.8-2.7-2c-0.2-0.2-1.3-1.1-1.3-1.1L51.2,46.7z"/>
				<path class="st3" d="M52.6,45.9c0.2,0,0,1.4,2.9,0.8c0.9-0.1,0.6,0.8,0.7,1.4c0.1,0.5,0,0.8,1.2,1.3s0.3,2.6-1.4,1.5
					c-1.6-1-4.2-3.1-4.8-3.8C50.7,46.4,52.6,45.9,52.6,45.9z"/>
			</g>
		</g>
	</g>
	
		<radialGradient id="SVGID_8_" cx="33.35" cy="49.2" r="21.2006" gradientTransform="matrix(1 0 0 -1 0 160)" gradientUnits="userSpaceOnUse">
		<stop  offset="0" style="stop-color:#FFD297"/>
		<stop  offset="1" style="stop-color:#F89D89"/>
	</radialGradient>
	<path class="st12" d="M54.4,132.1H43.9l-3-9.5H25.7l-3,9.5H12.3l15.6-42.7h11.4L54.4,132.1z M38.7,115.2l-4.6-14.4
		c-0.3-1-0.6-2.3-0.7-3.9h-0.2c-0.1,1.3-0.3,2.5-0.7,3.7L27.8,115L38.7,115.2L38.7,115.2z"/>
	
		<linearGradient id="SVGID_9_" gradientUnits="userSpaceOnUse" x1="15.9455" y1="63.5376" x2="24.1254" y2="63.5376" gradientTransform="matrix(1 0 0 -1 0 160)">
		<stop  offset="0" style="stop-color:#7D9BB1"/>
		<stop  offset="0" style="stop-color:#1E5177"/>
		<stop  offset="0.3173" style="stop-color:#84A0B5"/>
		<stop  offset="1" style="stop-color:#FFFFFF"/>
	</linearGradient>
	<path class="st13" d="M19.5,97.6c0,0,1.1-3.5,2.5-4.3s3.4,1.1,1.3,6.5C20.5,99,19.5,97.6,19.5,97.6z"/>
	<g>
		
			<radialGradient id="SVGID_10_" cx="33.3573" cy="-10.25" r="25.291" gradientTransform="matrix(1 0 0 -1 0 160)" gradientUnits="userSpaceOnUse">
			<stop  offset="0" style="stop-color:#FFD297"/>
			<stop  offset="1" style="stop-color:#F89D89"/>
		</radialGradient>
		<path class="st14" d="M39.6,184.7c1,1.1,2,2,3,2.7s1.8,1.3,2.8,1.7s1.9,0.7,2.9,0.9s2.1,0.2,3.2,0.2c0.3,0,0.6,0,1-0.1
			s0.7-0.1,1.1-0.2s0.7-0.2,1.1-0.2c0.4-0.1,0.7-0.2,1-0.3v8.1c-0.6,0.2-1.5,0.3-2.6,0.6c-1.1,0.2-2.5,0.2-4.1,0.2
			c-1.9,0-3.8-0.3-5.3-1c-1.6-0.6-3.2-1.5-4.7-2.6s-3-2.4-4.4-3.8c-1.4-1.5-2.9-3-4.4-4.8c-2.9-0.1-5.5-0.7-7.9-1.8
			s-4.4-2.6-6.1-4.5s-3-4.2-3.9-6.7c-1-2.6-1.4-5.3-1.4-8.2c0-6.7,1.9-12.1,5.8-16.3s9.1-6.2,15.6-6.2c6,0,10.9,2,14.6,6
			c3.8,3.9,5.6,9.2,5.6,15.6c0,5.1-1.1,9.4-3.4,13.1C46.9,180.7,43.7,183.2,39.6,184.7z M32,150.5c-3.4,0-6,1.3-8,3.8s-3,5.8-3,10
			s1,7.5,3,10s4.5,3.7,7.8,3.7c3.4,0,5.9-1.2,7.8-3.6c1.9-2.4,2.9-5.7,2.9-9.9c0-4.4-1-7.7-2.8-10.2S35.3,150.5,32,150.5z"/>
		<g>
			<g>
				<g>
					<g>
						
							<radialGradient id="SVGID_11_" cx="-121.8165" cy="-146.381" r="2.333" gradientTransform="matrix(0.9865 -0.1638 -0.1638 -0.9865 140.0712 26.8158)" gradientUnits="userSpaceOnUse">
							<stop  offset="0" style="stop-color:#FFD297"/>
							<stop  offset="1" style="stop-color:#F89D89"/>
						</radialGradient>
						<path class="st15" d="M41.2,189.7c0,0-0.3,0.3-0.2,0.4c0.1,0.2,2.1,1.5,3.6,2.2s2.2,0.4,2.2,0.4s-0.5-0.6-0.9-0.9
							c-0.4-0.3-2.5-1.1-2.6-1.3c-0.2-0.2-1.3-0.8-1.3-0.8L41.2,189.7z"/>
						<path class="st3" d="M42.3,188.7c0.2,0,0.2,1.2,2.6,0.2c0.7-0.2,0.6,0.6,0.8,1s0.2,0.6,1.3,1c1.1,0.3,0.6,2.2-1,1.5
							c-1.5-0.6-4-2-4.6-2.6C40.7,189.4,42.3,188.7,42.3,188.7z"/>
					</g>
					<path class="st1" d="M24.4,155l3-1.5c0,0,2.6,1.4,2.1,4.4s-2,2.8-2,2.8s-0.6,1.1,0.1,2.6c0.6,1.5,1.8,2.2-0.6,1.8
						c-2.3-0.5-3.7-0.9-3.8-1.4c-0.2-0.5,0.6-1.2,0.6-1.2s0.6-0.4,0.6-2.1C24.3,158.6,23.4,156.7,24.4,155z"/>
					<path class="st4" d="M24.3,159c0,0-1-3.8,0.6-5.1c1-0.9,2.8-0.6,4-0.2c0.4,0.1,0.8,0.2,1.1,0.4c0.2,0.1,0.4,0.2,0.6,0.3
						c0.2,0.2,0.1,0.5,0.1,0.7c-0.1,0.3-0.1,0.6-0.2,1c-0.1,0.2-0.2,0.6-0.4,0.7c-0.4,0.3-1,0-1.4-0.2c-0.1-0.1-0.2-0.2-0.3-0.2
						c-1.4-1-2.5-0.5-2.6-0.1s-0.2,1.8-0.2,1.8c0-0.2-0.1-0.5-0.2-0.9c0-0.1-0.1-0.2-0.1-0.2c-0.1-0.1-0.1-0.2-0.2-0.2
						c-0.3,0.2-0.5,0.4-0.6,0.7C24.3,158.1,24.3,158.6,24.3,159z"/>
					<polygon class="st1" points="41.3,188.3 41.6,189 41.8,189.4 44.1,188.9 43.6,187.9 42.7,187.3 					"/>
					
						<linearGradient id="SVGID_12_" gradientUnits="userSpaceOnUse" x1="20.3375" y1="-9.0056" x2="32.4532" y2="-9.0056" gradientTransform="matrix(1 0 0 -1 0 160)">
						<stop  offset="0" style="stop-color:#FFFFFF"/>
						<stop  offset="0.1313" style="stop-color:#FFF6E9"/>
						<stop  offset="0.3826" style="stop-color:#FFE6C6"/>
						<stop  offset="0.6187" style="stop-color:#FFDBAC"/>
						<stop  offset="0.8313" style="stop-color:#FFD49C"/>
						<stop  offset="1" style="stop-color:#FFD297"/>
					</linearGradient>
					<path class="st16" d="M31.8,173.9c0,0-0.1-0.1-0.2-0.2c0-0.3-0.2-0.8-0.7-1.4c-2.7-3.3-1.5-7-1.5-7c0.5-0.1,1-0.2,1.5-0.2
						c0.1-0.2,0.1-0.6,0.1-1c0-0.5-0.1-0.9-0.1-1.2c-1.5-2.2-3.4-1.1-3.4-1.1c-0.4,0.9-1,1.8-3-0.3c-3.6,0.2-4,4.8-4,4.8l3.4-0.1
						c0,0.7,0,1.4,0,1.9l0,0c-0.3,0-1,1.5-1,2.2c-0.1,0.7,1.4,4.8,1.4,4.8l1,0.9c0,0,3.8,0.6,4.1,0.5c0.3,0,2.6-0.5,2.8-0.6
						c0.2-0.2,0.5-0.7,0.5-0.7L31.8,173.9z"/>
					
						<linearGradient id="SVGID_13_" gradientUnits="userSpaceOnUse" x1="24.1513" y1="-21.05" x2="43.82" y2="-21.05" gradientTransform="matrix(1 0 0 -1 0 160)">
						<stop  offset="0" style="stop-color:#004794"/>
						<stop  offset="1" style="stop-color:#001355"/>
					</linearGradient>
					<path class="st17" d="M43.8,187.5c0,0-0.8-6.9-1.3-8c-0.6-1.2-1.8-1.8-3.9-3c-2.2-0.8-6.5-2.8-6.5-2.8l-7.9,1.4
						c0,0-0.6,4.5,4.7,5.9c5.3,1.5,10.6,5.5,12.1,7.4C44.2,188,43.8,187.5,43.8,187.5z M40.4,183.5l-4.9-3.8c-6.8-4.9,0.4-1,0.4-1
						l3.2,2.1L40.4,183.5z"/>
					<g>
						
							<radialGradient id="SVGID_14_" cx="-400.8165" cy="-335.9842" r="2.2221" gradientTransform="matrix(0.8322 -0.5544 -0.5544 -0.8322 191.2838 -311.3135)" gradientUnits="userSpaceOnUse">
							<stop  offset="0" style="stop-color:#FFD297"/>
							<stop  offset="1" style="stop-color:#F89D89"/>
						</radialGradient>
						<path class="st18" d="M41.1,190.2c0,0-0.2,0.4,0,0.4c0.2,0.2,2.4,0.5,3.9,0.5c1.6,0,2.2-0.5,2.2-0.5s-0.6-0.3-1.1-0.5
							s-2.6,0-2.8-0.1s-1.4-0.2-1.4-0.2L41.1,190.2z"/>
						<path class="st3" d="M41.7,189c0.2-0.1,0.6,1,2.3-0.8c0.6-0.5,0.8,0.3,1.1,0.6s0.4,0.6,1.4,0.3c1-0.2,1.4,1.7-0.2,1.7
							s-4.2-0.2-4.9-0.4C40.6,190.2,41.7,189,41.7,189z"/>
					</g>
				</g>
				<g>
					
						<linearGradient id="SVGID_15_" gradientUnits="userSpaceOnUse" x1="29.2877" y1="-18.2941" x2="29.1131" y2="-18.6185" gradientTransform="matrix(1 0 0 -1 0 160)">
						<stop  offset="0" style="stop-color:#FFFFFF"/>
						<stop  offset="0.1313" style="stop-color:#FFF6E9"/>
						<stop  offset="0.3826" style="stop-color:#FFE6C6"/>
						<stop  offset="0.6187" style="stop-color:#FFDBAC"/>
						<stop  offset="0.8313" style="stop-color:#FFD49C"/>
						<stop  offset="1" style="stop-color:#FFD297"/>
					</linearGradient>
					<polygon class="st19" points="26.4,177.2 26.4,177.3 31.9,179.9 32,179.7 29.3,178.3 27.2,177.4 					"/>
					
						<linearGradient id="SVGID_16_" gradientUnits="userSpaceOnUse" x1="20.5088" y1="-16.25" x2="36.4609" y2="-16.25" gradientTransform="matrix(1 0 0 -1 0 160)">
						<stop  offset="0" style="stop-color:#FFFFFF"/>
						<stop  offset="0.1313" style="stop-color:#FFF6E9"/>
						<stop  offset="0.3826" style="stop-color:#FFE6C6"/>
						<stop  offset="0.6187" style="stop-color:#FFDBAC"/>
						<stop  offset="0.8313" style="stop-color:#FFD49C"/>
						<stop  offset="1" style="stop-color:#FFD297"/>
					</linearGradient>
					<polygon class="st20" points="26.4,177.2 32,179.7 37.8,175.9 32.1,172.8 					"/>
					
						<linearGradient id="SVGID_17_" gradientUnits="userSpaceOnUse" x1="28.9184" y1="-17.8" x2="37.1287" y2="-17.8" gradientTransform="matrix(1 0 0 -1 0 160)">
						<stop  offset="0" style="stop-color:#FFFFFF"/>
						<stop  offset="0.1313" style="stop-color:#FFF6E9"/>
						<stop  offset="0.3826" style="stop-color:#FFE6C6"/>
						<stop  offset="0.6187" style="stop-color:#FFDBAC"/>
						<stop  offset="0.8313" style="stop-color:#FFD49C"/>
						<stop  offset="1" style="stop-color:#FFD297"/>
					</linearGradient>
					<polygon class="st21" points="31.9,179.9 37.8,176 37.8,175.7 32,179.7 					"/>
					
						<radialGradient id="SVGID_18_" cx="32.1163" cy="-16.2708" r="2.9518" gradientTransform="matrix(1 0 0 -1 0 160)" gradientUnits="userSpaceOnUse">
						<stop  offset="0" style="stop-color:#FFD297"/>
						<stop  offset="0.1687" style="stop-color:#FFD49C"/>
						<stop  offset="0.3813" style="stop-color:#FFDBAC"/>
						<stop  offset="0.6174" style="stop-color:#FFE6C6"/>
						<stop  offset="0.8687" style="stop-color:#FFF6E9"/>
						<stop  offset="1" style="stop-color:#FFFFFF"/>
					</radialGradient>
					<polygon class="st22" points="28.6,176.8 32,178.4 35.7,176 32.1,174.1 					"/>
					
						<linearGradient id="SVGID_19_" gradientUnits="userSpaceOnUse" x1="31.9832" y1="-15.2" x2="39.4333" y2="-15.2" gradientTransform="matrix(1 0 0 -1 0 160)">
						<stop  offset="0" style="stop-color:#FFFFFF"/>
						<stop  offset="0.1313" style="stop-color:#FFF6E9"/>
						<stop  offset="0.3826" style="stop-color:#FFE6C6"/>
						<stop  offset="0.6187" style="stop-color:#FFDBAC"/>
						<stop  offset="0.8313" style="stop-color:#FFD49C"/>
						<stop  offset="1" style="stop-color:#FFD297"/>
					</linearGradient>
					<polygon class="st23" points="33.1,173.5 39.4,170.7 37.8,175.9 32,179.7 					"/>
				</g>
			</g>
			<path class="st1" d="M31.1,175.3c0-0.1-0.2-0.1-0.6-0.3c-0.5-0.2-1-0.2-1.1-0.3l-4.2-2.5c0,0-0.8-0.5-0.9-1.4
				c-0.1-0.6-0.6-4.8-0.6-4.8l-3.1,0.3c0,0,1.5,5.5,1.8,6c0.2,0.5,1,1.7,2.5,2.4c1.4,0.7,4.2,1,4.2,1s2.2,0.6,2.6,0.2
				C31.9,175.4,31.1,175.4,31.1,175.3z"/>
			<path class="st1" d="M32.1,173.7L32.1,173.7C32.1,173.7,32,173.7,32.1,173.7L32.1,173.7L32.1,173.7c-0.6-0.6-1-2.2-1.3-3.7
				s0.1-4.9,0.1-4.9l-1.7,0.2c0,0-0.5,3.9,0,5.5s1.1,1.9,1.5,3c0.1,0.2,0.2,0.4,0.3,0.5l0,0c0.2,0.1,0.2,0.6,0.6,1
				c0.3,0.4,0.4,0.6,0.5,0.6c0.1,0,0.3,0.8,0.7,0.4S32.2,173.9,32.1,173.7z"/>
		</g>
	</g>
	<g>
		<path class="st1" d="M17.6,83c-0.1,0-0.2,0.5-0.2,0.5c-0.2,0.5-0.3,0.9-0.3,1.4c-0.1,0.6-0.1,1.3,0.1,1.9c0.1,0.3,0.2,0.7,0.4,0.9
			c0.3,0.4,0.8,0.5,1.1,0.9c0.2,0.2,0.1,0.6,0.1,0.9c0,1.3-2.2,2.8-2.3,2.9s0,0.6,0.5,0.9c0.5,0.2,1.8,0.3,2.5,0.3s2.1,0.2,2.2,0
			s0.6-0.1,0.8-0.2c0.1-0.1,0.3-0.6,0.3-0.6S21.2,89.1,23,87c0.6-2,0.7-2.3,0.2-2.8c-0.4-0.5-2-1.9-2.1-1.9C21,82.3,17.6,83,17.6,83
			z"/>
		<g>
			
				<radialGradient id="SVGID_20_" cx="-1421.4902" cy="26.3846" r="2.3754" gradientTransform="matrix(-1 0 0 -1 -1410.4822 160)" gradientUnits="userSpaceOnUse">
				<stop  offset="0" style="stop-color:#FFD297"/>
				<stop  offset="1" style="stop-color:#F89D89"/>
			</radialGradient>
			<path class="st24" d="M13.4,131.6c0,0,0.4,0.3,0.3,0.4c0,0.2-1.8,1.8-3.2,2.8c-1.4,0.9-2.2,0.8-2.2,0.8s0.4-0.7,0.7-1.1
				c0.3-0.4,2.3-1.5,2.4-1.7c0.1-0.2,1.1-1,1.1-1L13.4,131.6z"/>
			<path class="st3" d="M12.2,130.9c-0.2,0,0,1.2-2.5,0.7c-0.8-0.1-0.5,0.7-0.6,1.2s0,0.7-1.1,1.2s-0.2,2.3,1.2,1.4s3.7-2.7,4.2-3.3
				C13.9,131.4,12.2,130.9,12.2,130.9z"/>
		</g>
		<g>
			
				<radialGradient id="SVGID_21_" cx="-1493.9608" cy="449.1827" r="2.2653" gradientTransform="matrix(-0.8498 -0.5272 0.5272 -0.8498 -1502.8713 -271.2489)" gradientUnits="userSpaceOnUse">
				<stop  offset="0" style="stop-color:#FFD297"/>
				<stop  offset="1" style="stop-color:#F89D89"/>
			</radialGradient>
			<path class="st25" d="M6.5,134.3c0,0,0.2,0.4,0,0.4c-0.2,0.2-2.4,0.6-4,0.6s-2.2-0.5-2.2-0.5s0.7-0.4,1.1-0.5s2.6-0.1,2.8-0.2
				c0.2-0.1,1.4-0.2,1.4-0.2L6.5,134.3z"/>
			<path class="st3" d="M5.8,133c-0.1-0.1-0.6,1-2.4-0.7c-0.6-0.5-0.8,0.3-1.1,0.7c-0.3,0.3-0.4,0.6-1.5,0.4
				c-1.1-0.2-1.3,1.7,0.3,1.7s4.3-0.3,5.1-0.6C7,134.3,5.8,133,5.8,133z"/>
		</g>
		
			<linearGradient id="SVGID_22_" gradientUnits="userSpaceOnUse" x1="3.037" y1="40.9778" x2="19.9251" y2="40.9778" gradientTransform="matrix(1 0 0 -1 0 160)">
			<stop  offset="0" style="stop-color:#004794"/>
			<stop  offset="1" style="stop-color:#001355"/>
		</linearGradient>
		<path class="st26" d="M10.5,124.9c0-0.3,0.4-0.9,0.6-1.1c1.1-2.2,2.2-4.4,3.6-6.3c1.7-2.4,3.9-4.5,5.3-7.1c-3-1.1-5.3-3.5-7.5-5.8
			c-1.7,2-3.4,3.9-5.1,5.9c-0.7,0.9-1.5,1.7-2.2,2.6c-0.7,0.8-1.2,1.7-1.4,2.7c-0.1,0.3-0.1,0.6-0.2,0.9c-0.3,2.7,1,5.2,2.2,7.6
			c0.1,0.2,0.2,0.4,0.2,0.6s-0.1,0.4-0.2,0.6c-0.9,2.2-1.8,4.4-2.7,6.6c0,0.1-0.1,0.2-0.1,0.4c0,0.1,0.2,0.2,0.3,0.3
			c0.5,0.3,1,0.5,1.6,0.6c0.2,0,0.4,0.1,0.6,0s0.4-0.3,0.5-0.6c0.6-1.1,1.2-2.2,1.8-3.3c0.4,0.8,0.8,1.5,1.3,2.3
			c0.1,0.1,0.2,0.3,0.3,0.3c0.2,0.1,0.4,0.1,0.5,0c0.7-0.1,1.4-0.4,2.1-0.7c0.1-0.1,0.3-0.1,0.3-0.3c0.1-0.2,0-0.4-0.1-0.6
			C11.7,128.8,10.5,125.1,10.5,124.9z M8.4,120.3c-0.1-0.2-0.5-1.5-0.4-3s3.9-6,3.9-6C12.1,112.9,8.6,120.5,8.4,120.3z"/>
		<path class="st1" d="M12.6,103.3c0.2-0.6,2.5-5.3,3-6.5s1-2.8,1.1-3.2c0.1-0.4-0.5-2.2-0.5-2.2S13,93.3,12.3,96
			s-1.8,10.9-1.8,10.9"/>
		<path class="st4" d="M17.9,83.9c0,0-1.6,0.5-0.8-1.8c1-2.9,7.1-0.6,7.1,1.4c0.1,3.4-2,4.7-2,4.7s1.2-3.2-0.7-3.7
			c-0.4-0.2-0.6,1.5-0.6,1.5l-0.1-2.1C20.7,83.8,19.6,82.8,17.9,83.9z"/>
		
			<linearGradient id="SVGID_23_" gradientUnits="userSpaceOnUse" x1="-0.8956" y1="59.1521" x2="21.4625" y2="59.1521" gradientTransform="matrix(1 0 0 -1 0 160)">
			<stop  offset="0" style="stop-color:#7D9BB1"/>
			<stop  offset="0" style="stop-color:#1E5177"/>
			<stop  offset="0.462" style="stop-color:#84A0B5"/>
			<stop  offset="1" style="stop-color:#FFFFFF"/>
		</linearGradient>
		<path class="st27" d="M18,91c0,0-5-0.2-5.2,6.3c-1.9,4.9-1.8,7.8-2.3,9.5c-0.4,1.2,7.7,4.5,9.2,3.8s-0.1-5.3,2.5-8.7
			c3.4-3.2,3-10.6,0.2-10.3c-0.4,0.5-1,1.4-2.5,1.2C18.4,92.8,17.3,92.3,18,91z"/>
		<path class="st1" d="M21.2,98.4l-1.7-0.8c0,0-2,3.8-3.8,3s-4.3-4.2-4.5-4.3c-0.1-0.1-0.3-0.3-0.5-0.7c0-0.1-0.1-0.2-0.1-0.2
			c-0.5-0.2-0.7-0.4-0.8-0.7c-0.1-0.2-0.3-0.2-0.6-0.8c-0.3-0.7-0.7-0.5-0.7-0.5S8.2,94,8.6,95.3c0.1,0.6,0.6,1.1,0.9,1.6
			c0.1,0.3,0.3,0.5,0.3,0.7c0,0.1,0.3,0.7,0.4,0.9c1,1.5,3.4,4.4,4,4.6c0.6,0.2,2.7,1.2,4.7,0.1c2-1.2,4.3-3.4,4.3-3.4L21.2,98.4z"
			/>
		<g>
			
				<linearGradient id="SVGID_24_" gradientUnits="userSpaceOnUse" x1="8.4451" y1="93.2496" x2="10.9812" y2="93.2496" gradientTransform="matrix(4.386073e-03 -0.9022 0.7917 0.5627 -64.4213 49.4974)">
				<stop  offset="0" style="stop-color:#1E5177"/>
				<stop  offset="1" style="stop-color:#FFFFFF"/>
			</linearGradient>
			<path class="st28" d="M11,93.4l0,1.8c0,0.1-0.1,0.2-0.2,0.1l-2.5-1.8C8,93.4,7.9,93.2,7.9,93l0-1.8c0-0.1,0.1-0.2,0.2-0.1
				l2.5,1.8C10.8,93.1,11,93.3,11,93.4z"/>
			<polygon class="st29" points="10.7,93.1 10.7,95.1 8.1,93.3 8.2,91.3 			"/>
		</g>
		<path class="st1" d="M10.6,95.4c0-0.1,0-0.3,0-0.4c0-0.4-0.5-1.8-0.6-1.8c-0.1-0.1-0.1,0.1-0.2,0.4c0,0.3,0.1,1.3,0,1.1
			c0,0,0,0,0,0C9.9,94.9,10.2,95.2,10.6,95.4z"/>
	</g>
</g>
</svg>
