<?xml version="1.0" encoding="utf-8"?>
<!-- Generator: Adobe Illustrator 21.0.2, SVG Export Plug-In . SVG Version: 6.00 Build 0)  -->
<svg version="1.1" id="Layer_1" xmlns="http://www.w3.org/2000/svg" xmlns:xlink="http://www.w3.org/1999/xlink" x="0px" y="0px"
	 viewBox="0 0 1400 300" style="enable-background:new 0 0 1400 300;" xml:space="preserve">
<style type="text/css">
	.st0{fill:#E2DFDE;stroke:#666666;stroke-miterlimit:10;}
	.st1{fill:#CCCCCC;}
	.st2{fill:none;}
	.st3{fill:#CCCCCC;stroke:#B3B3B3;stroke-miterlimit:10;}
	.st4{fill:#FFFFFF;stroke:#666666;stroke-width:0.75;stroke-miterlimit:10;}
	.st5{fill:#B3B3B3;stroke:#666666;stroke-width:0.75;stroke-miterlimit:10;}
	.st6{fill:none;stroke:#666666;stroke-width:0.75;stroke-miterlimit:10;}
	.st7{fill:#B0B0A3;stroke:#666666;stroke-width:0.75;stroke-miterlimit:10;}
	.st8{fill:#FF6600;stroke:#666666;stroke-width:0.75;stroke-miterlimit:10;}
	.st9{fill:#E2DFDE;stroke:#666666;stroke-width:0.75;stroke-miterlimit:10;}
	.st10{fill:#E2DFDE;stroke:#999999;stroke-width:2;stroke-miterlimit:10;}
	.st11{fill:#FFFFFF;}
	.st12{fill:#999999;}
	.st13{fill:#FFFFFF;stroke:#999999;stroke-width:2;stroke-miterlimit:10;}
	.st14{fill:#E6E6E6;stroke:#999999;stroke-width:2;stroke-miterlimit:10;}
	.st15{fill:#E2DFDE;stroke:#FFFFFF;stroke-width:2;stroke-miterlimit:10;}
	.st16{fill:#FFFFFF;stroke:#666666;stroke-miterlimit:10;}
</style>
<path class="st0" d="M340.5,89.5h-15.6c-12.2,5.4-34.3,17.3-34.3,30.9c0,7.2,2.8,13.9,7.5,19.4v0.4H298v0.1v32.3h69.3v-32.3v-0.1
	v-0.4c4.7-5.5,7.5-12.2,7.5-19.4C374.7,106.7,352.7,94.9,340.5,89.5z M308.4,149.7c-3.1,0-5.6-2.1-5.6-4.6s2.5-4.6,5.6-4.6
	c3.1,0,5.6,2.1,5.6,4.6C314,147.6,311.5,149.7,308.4,149.7z M324.5,149.7c-3.1,0-5.6-2.1-5.6-4.6s2.5-4.6,5.6-4.6
	c3.1,0,5.6,2.1,5.6,4.6C330.1,147.6,327.5,149.7,324.5,149.7z M340.5,149.7c-3.1,0-5.6-2.1-5.6-4.6s2.5-4.6,5.6-4.6
	c3.1,0,5.6,2.1,5.6,4.6C346.1,147.6,343.6,149.7,340.5,149.7z M356.5,149.7c-3.1,0-5.6-2.1-5.6-4.6s2.5-4.6,5.6-4.6
	c3.1,0,5.6,2.1,5.6,4.6C362.2,147.6,359.6,149.7,356.5,149.7z"/>
<path class="st0" d="M367.7,172.2V172v-0.2H211.2H56.5v3.4v48h105h24.9h24.7v-0.7h0.1v0.8h157v-51H367.7z M281.9,192.4L281.9,192.4
	L281.9,192.4L281.9,192.4z M213.8,186C213.8,185.9,213.8,185.9,213.8,186C213.8,185.9,213.8,185.9,213.8,186z M214,185.7
	c0.1-0.1,0.2-0.2,0.3-0.3C214.2,185.5,214.1,185.6,214,185.7z M244,192.4h0.1c0-1.6,0.6-3.2,1.4-4.5c0.3-0.5,0.7-1,1.1-1.5
	c-0.4,0.5-0.7,1-1.1,1.5c-0.8,1.4-1.4,2.9-1.4,4.5L244,192.4L244,192.4z M207.6,182.8c0,0-6,4.3-6.1,9.5v21.8h0v-21.8
	C201.5,187.1,207.6,182.8,207.6,182.8z M179.2,187.8c0.8,1.4,1.4,2.9,1.5,4.5v0C180.6,190.7,180,189.2,179.2,187.8
	c-0.3-0.5-0.7-1-1.1-1.5C178.5,186.8,178.9,187.3,179.2,187.8z M168.3,192.4h0.1c0-1.6,0.6-3.2,1.4-4.5c0.3-0.5,0.7-1,1.1-1.5
	c-0.4,0.5-0.7,1-1.1,1.5c-0.8,1.4-1.4,2.9-1.4,4.5L168.3,192.4L168.3,192.4z M92.7,192.4c0-1.6,0.6-3.2,1.4-4.5
	c0.3-0.5,0.7-1,1.1-1.5c-0.4,0.5-0.7,1-1.1,1.5C93.3,189.2,92.7,190.7,92.7,192.4L92.7,192.4z M130.4,192.4c0-5.2,6.1-9.5,6.1-9.5
	s0,0,0.1,0c-0.6,0.5-6,4.5-6,9.5v22.2h-0.1V192.4z M256.4,192.4c0-1.1-0.3-2.2-0.8-3.2C256,190.1,256.3,191.2,256.4,192.4
	L256.4,192.4z M294.3,214.6h-0.1v-22.2c0-4.9-5.4-9-6-9.5c0,0,0.1,0,0.1,0s6.1,4.3,6.1,9.5V214.6z M319.7,192.4
	c0-5.2,6.1-9.5,6.1-9.5s0,0,0.1,0c-0.6,0.5-6,4.6-6,9.5v22.2h-0.1V192.4z"/>
<g>
	<path class="st0" d="M163.8,96.4c0,0.8,0.6,1.5,1.5,2.2v8.5h13.9v-8.5c1-0.6,1.5-1.4,1.5-2.2c0-1.5-4.5-2.9-6.9-3.5
		c0.4-0.2,0.7-0.5,0.7-0.8c0-0.5-0.8-0.9-1.7-1c0.6-0.1,1-0.3,1-0.6c0-0.3-0.5-0.6-1.1-0.7c0.4-0.1,0.7-0.2,0.7-0.4
		c0-0.2-0.4-0.4-0.9-0.4c-0.5,0-0.9,0.2-0.9,0.4c0,0.2,0.3,0.4,0.7,0.4c-0.6,0.1-1.1,0.3-1.1,0.7c0,0.3,0.4,0.5,1,0.6
		c-1,0.1-1.7,0.5-1.7,1c0,0.3,0.3,0.6,0.7,0.8C168.3,93.6,163.8,94.9,163.8,96.4z M177,99c0.6,0,1.1,0.2,1.1,0.5
		c0,0.3-0.5,0.5-1.1,0.5s-1.1-0.2-1.1-0.5S176.4,99,177,99z M173.8,99c0.6,0,1.1,0.2,1.1,0.5c0,0.3-0.5,0.5-1.1,0.5
		s-1.1-0.2-1.1-0.5C172.6,99.3,173.2,99,173.8,99z M167.4,100.1c-0.6,0-1.1-0.2-1.1-0.5c0-0.3,0.5-0.5,1.1-0.5s1.1,0.2,1.1,0.5
		S167.9,100.1,167.4,100.1z M171.7,99.6c0,0.3-0.5,0.5-1.1,0.5s-1.1-0.2-1.1-0.5c0-0.3,0.5-0.5,1.1-0.5
		C171.2,99,171.7,99.3,171.7,99.6z"/>
	<path class="st0" d="M180.7,96.4c0,0.8,0.6,1.5,1.5,2.2v8.5h13.9v-8.5c1-0.6,1.5-1.4,1.5-2.2c0-1.5-4.5-2.9-6.9-3.5
		c0.4-0.2,0.7-0.5,0.7-0.8c0-0.5-0.8-0.9-1.7-1c0.6-0.1,1-0.3,1-0.6c0-0.3-0.5-0.6-1.1-0.7c0.4-0.1,0.7-0.2,0.7-0.4
		c0-0.2-0.4-0.4-0.9-0.4c-0.5,0-0.9,0.2-0.9,0.4c0,0.2,0.3,0.4,0.7,0.4c-0.6,0.1-1.1,0.3-1.1,0.7c0,0.3,0.4,0.5,1,0.6
		c-1,0.1-1.7,0.5-1.7,1c0,0.3,0.3,0.6,0.7,0.8C185.2,93.6,180.7,94.9,180.7,96.4z M193.9,99c0.6,0,1.1,0.2,1.1,0.5
		c0,0.3-0.5,0.5-1.1,0.5c-0.6,0-1.1-0.2-1.1-0.5S193.3,99,193.9,99z M190.7,99c0.6,0,1.1,0.2,1.1,0.5c0,0.3-0.5,0.5-1.1,0.5
		s-1.1-0.2-1.1-0.5C189.5,99.3,190.1,99,190.7,99z M184.3,100.1c-0.6,0-1.1-0.2-1.1-0.5c0-0.3,0.5-0.5,1.1-0.5
		c0.6,0,1.1,0.2,1.1,0.5S184.9,100.1,184.3,100.1z M188.6,99.6c0,0.3-0.5,0.5-1.1,0.5c-0.6,0-1.1-0.2-1.1-0.5c0-0.3,0.5-0.5,1.1-0.5
		C188.1,99,188.6,99.3,188.6,99.6z"/>
	<path class="st0" d="M196.2,96.5c0,0.8,0.5,1.5,1.5,2.1v8.2h13.3v-8.2c0.9-0.6,1.5-1.3,1.5-2.1c0-1.5-4.3-2.8-6.6-3.4
		c0.4-0.2,0.7-0.5,0.7-0.7c0-0.5-0.7-0.9-1.7-1c0.5-0.1,0.9-0.3,0.9-0.6c0-0.3-0.5-0.6-1.1-0.6c0.4-0.1,0.7-0.2,0.7-0.4
		c0-0.2-0.4-0.4-0.9-0.4c-0.5,0-0.9,0.2-0.9,0.4c0,0.2,0.3,0.4,0.7,0.4c-0.6,0.1-1.1,0.3-1.1,0.6c0,0.3,0.4,0.5,0.9,0.6
		c-0.9,0.1-1.7,0.5-1.7,1c0,0.3,0.3,0.5,0.7,0.7C200.5,93.8,196.2,95,196.2,96.5z M208.8,99c0.6,0,1.1,0.2,1.1,0.5s-0.5,0.5-1.1,0.5
		c-0.6,0-1.1-0.2-1.1-0.5C207.7,99.2,208.2,99,208.8,99z M205.7,99c0.6,0,1.1,0.2,1.1,0.5s-0.5,0.5-1.1,0.5s-1.1-0.2-1.1-0.5
		C204.6,99.2,205.2,99,205.7,99z M199.6,100c-0.6,0-1.1-0.2-1.1-0.5s0.5-0.5,1.1-0.5s1.1,0.2,1.1,0.5
		C200.7,99.8,200.1,100,199.6,100z M203.7,99.5c0,0.3-0.5,0.5-1.1,0.5s-1.1-0.2-1.1-0.5s0.5-0.5,1.1-0.5S203.7,99.2,203.7,99.5z"/>
	<path class="st0" d="M212.3,96.5c0,0.8,0.5,1.5,1.5,2.1v8.2h13.3v-8.2c0.9-0.6,1.5-1.3,1.5-2.1c0-1.5-4.3-2.8-6.6-3.4
		c0.4-0.2,0.7-0.5,0.7-0.7c0-0.5-0.7-0.9-1.7-1c0.5-0.1,0.9-0.3,0.9-0.6c0-0.3-0.5-0.6-1.1-0.6c0.4-0.1,0.7-0.2,0.7-0.4
		c0-0.2-0.4-0.4-0.9-0.4c-0.5,0-0.9,0.2-0.9,0.4c0,0.2,0.3,0.4,0.7,0.4c-0.6,0.1-1.1,0.3-1.1,0.6c0,0.3,0.4,0.5,0.9,0.6
		c-0.9,0.1-1.7,0.5-1.7,1c0,0.3,0.3,0.5,0.7,0.7C216.6,93.8,212.3,95,212.3,96.5z M225,99c0.6,0,1.1,0.2,1.1,0.5s-0.5,0.5-1.1,0.5
		s-1.1-0.2-1.1-0.5C223.9,99.2,224.4,99,225,99z M221.9,99c0.6,0,1.1,0.2,1.1,0.5s-0.5,0.5-1.1,0.5s-1.1-0.2-1.1-0.5
		C220.8,99.2,221.3,99,221.9,99z M215.8,100c-0.6,0-1.1-0.2-1.1-0.5s0.5-0.5,1.1-0.5s1.1,0.2,1.1,0.5
		C216.8,99.8,216.3,100,215.8,100z M219.9,99.5c0,0.3-0.5,0.5-1.1,0.5s-1.1-0.2-1.1-0.5s0.5-0.5,1.1-0.5S219.9,99.2,219.9,99.5z"/>
	<path class="st0" d="M228.5,96.5c0,0.8,0.5,1.5,1.5,2.1v8.2h13.3v-8.2c0.9-0.6,1.5-1.3,1.5-2.1c0-1.5-4.3-2.8-6.6-3.4
		c0.4-0.2,0.7-0.5,0.7-0.7c0-0.5-0.7-0.9-1.7-1c0.5-0.1,0.9-0.3,0.9-0.6c0-0.3-0.5-0.6-1.1-0.6c0.4-0.1,0.7-0.2,0.7-0.4
		c0-0.2-0.4-0.4-0.9-0.4c-0.5,0-0.9,0.2-0.9,0.4c0,0.2,0.3,0.4,0.7,0.4c-0.6,0.1-1.1,0.3-1.1,0.6c0,0.3,0.4,0.5,0.9,0.6
		c-0.9,0.1-1.7,0.5-1.7,1c0,0.3,0.3,0.5,0.7,0.7C232.8,93.8,228.5,95,228.5,96.5z M241.1,99c0.6,0,1.1,0.2,1.1,0.5s-0.5,0.5-1.1,0.5
		s-1.1-0.2-1.1-0.5C240.1,99.2,240.5,99,241.1,99z M238.1,99c0.6,0,1.1,0.2,1.1,0.5s-0.5,0.5-1.1,0.5s-1.1-0.2-1.1-0.5
		C237,99.2,237.5,99,238.1,99z M232,100c-0.6,0-1.1-0.2-1.1-0.5s0.5-0.5,1.1-0.5s1.1,0.2,1.1,0.5C233,99.8,232.5,100,232,100z
		 M236.1,99.5c0,0.3-0.5,0.5-1.1,0.5s-1.1-0.2-1.1-0.5s0.5-0.5,1.1-0.5S236.1,99.2,236.1,99.5z"/>
	<path class="st0" d="M244.7,96.5c0,0.8,0.5,1.5,1.5,2.1v8.2h13.3v-8.2c0.9-0.6,1.5-1.3,1.5-2.1c0-1.5-4.3-2.8-6.6-3.4
		c0.4-0.2,0.7-0.5,0.7-0.7c0-0.5-0.7-0.9-1.7-1c0.5-0.1,0.9-0.3,0.9-0.6c0-0.3-0.5-0.6-1.1-0.6c0.4-0.1,0.7-0.2,0.7-0.4
		c0-0.2-0.4-0.4-0.9-0.4c-0.5,0-0.9,0.2-0.9,0.4c0,0.2,0.3,0.4,0.7,0.4c-0.6,0.1-1.1,0.3-1.1,0.6c0,0.3,0.4,0.5,0.9,0.6
		c-0.9,0.1-1.7,0.5-1.7,1c0,0.3,0.3,0.5,0.7,0.7C249,93.8,244.7,95,244.7,96.5z M257.3,99c0.6,0,1.1,0.2,1.1,0.5s-0.5,0.5-1.1,0.5
		c-0.6,0-1.1-0.2-1.1-0.5C256.3,99.2,256.7,99,257.3,99z M254.3,99c0.6,0,1.1,0.2,1.1,0.5s-0.5,0.5-1.1,0.5s-1.1-0.2-1.1-0.5
		C253.2,99.2,253.7,99,254.3,99z M248.1,100c-0.6,0-1.1-0.2-1.1-0.5s0.5-0.5,1.1-0.5s1.1,0.2,1.1,0.5
		C249.2,99.8,248.7,100,248.1,100z M252.2,99.5c0,0.3-0.5,0.5-1.1,0.5s-1.1-0.2-1.1-0.5s0.5-0.5,1.1-0.5S252.2,99.2,252.2,99.5z"/>
</g>
<g>
	<path class="st0" d="M162.7,119c0,1.4,0.6,2.7,1.5,3.8v14.7h13.9v-14.7c1-1,1.5-2.4,1.5-3.8c0-2.7-4.5-5-6.9-6
		c0.4-0.3,0.7-0.8,0.7-1.3c0-0.9-0.8-1.6-1.7-1.8c0.6-0.2,1-0.6,1-1.1c0-0.6-0.5-1-1.1-1.2c0.4-0.1,0.7-0.4,0.7-0.8
		c0-0.4-0.4-0.8-0.9-0.8c-0.5,0-0.9,0.3-0.9,0.8c0,0.3,0.3,0.6,0.7,0.8c-0.6,0.1-1.1,0.6-1.1,1.2c0,0.5,0.4,0.9,1,1.1
		c-1,0.2-1.7,0.9-1.7,1.8c0,0.5,0.3,1,0.7,1.3C167.2,114,162.7,116.3,162.7,119z M175.9,123.4c0.6,0,1.1,0.4,1.1,0.9
		c0,0.5-0.5,0.9-1.1,0.9s-1.1-0.4-1.1-0.9C174.8,123.8,175.3,123.4,175.9,123.4z M172.7,123.4c0.6,0,1.1,0.4,1.1,0.9
		c0,0.5-0.5,0.9-1.1,0.9s-1.1-0.4-1.1-0.9C171.6,123.8,172.1,123.4,172.7,123.4z M166.3,125.3c-0.6,0-1.1-0.4-1.1-0.9
		s0.5-0.9,1.1-0.9c0.6,0,1.1,0.4,1.1,0.9C167.4,124.9,166.9,125.3,166.3,125.3z M170.6,124.4c0,0.5-0.5,0.9-1.1,0.9
		c-0.6,0-1.1-0.4-1.1-0.9s0.5-0.9,1.1-0.9C170.1,123.4,170.6,123.8,170.6,124.4z"/>
	<path class="st0" d="M179.7,119c0,1.4,0.6,2.7,1.5,3.8v14.7H195v-14.7c1-1,1.5-2.4,1.5-3.8c0-2.7-4.5-5-6.9-6
		c0.4-0.3,0.7-0.8,0.7-1.3c0-0.9-0.8-1.6-1.7-1.8c0.6-0.2,1-0.6,1-1.1c0-0.6-0.5-1-1.1-1.2c0.4-0.1,0.7-0.4,0.7-0.8
		c0-0.4-0.4-0.8-0.9-0.8c-0.5,0-0.9,0.3-0.9,0.8c0,0.3,0.3,0.6,0.7,0.8c-0.6,0.1-1.1,0.6-1.1,1.2c0,0.5,0.4,0.9,1,1.1
		c-1,0.2-1.7,0.9-1.7,1.8c0,0.5,0.3,1,0.7,1.3C184.1,114,179.7,116.3,179.7,119z M192.8,123.4c0.6,0,1.1,0.4,1.1,0.9
		c0,0.5-0.5,0.9-1.1,0.9s-1.1-0.4-1.1-0.9C191.7,123.8,192.2,123.4,192.8,123.4z M189.7,123.4c0.6,0,1.1,0.4,1.1,0.9
		c0,0.5-0.5,0.9-1.1,0.9c-0.6,0-1.1-0.4-1.1-0.9C188.5,123.8,189,123.4,189.7,123.4z M183.2,125.3c-0.6,0-1.1-0.4-1.1-0.9
		s0.5-0.9,1.1-0.9c0.6,0,1.1,0.4,1.1,0.9C184.3,124.9,183.8,125.3,183.2,125.3z M187.5,124.4c0,0.5-0.5,0.9-1.1,0.9
		s-1.1-0.4-1.1-0.9s0.5-0.9,1.1-0.9C187,123.4,187.5,123.8,187.5,124.4z"/>
	<path class="st0" d="M195.1,119.1c0,1.3,0.5,2.6,1.5,3.6v14h13.3v-14c0.9-1,1.5-2.3,1.5-3.6c0-2.6-4.3-4.8-6.6-5.8
		c0.4-0.3,0.7-0.8,0.7-1.3c0-0.8-0.7-1.6-1.7-1.7c0.5-0.2,0.9-0.6,0.9-1.1c0-0.6-0.5-1-1.1-1.1c0.4-0.1,0.7-0.4,0.7-0.7
		c0-0.4-0.4-0.7-0.9-0.7s-0.9,0.3-0.9,0.7c0,0.3,0.3,0.6,0.7,0.7c-0.6,0.1-1.1,0.6-1.1,1.1c0,0.5,0.4,0.9,0.9,1.1
		c-0.9,0.2-1.7,0.9-1.7,1.7c0,0.5,0.3,0.9,0.7,1.3C199.4,114.4,195.1,116.5,195.1,119.1z M207.7,123.4c0.6,0,1.1,0.4,1.1,0.9
		c0,0.5-0.5,0.9-1.1,0.9s-1.1-0.4-1.1-0.9S207.1,123.4,207.7,123.4z M204.7,123.4c0.6,0,1.1,0.4,1.1,0.9c0,0.5-0.5,0.9-1.1,0.9
		s-1.1-0.4-1.1-0.9C203.6,123.8,204.1,123.4,204.7,123.4z M198.5,125.1c-0.6,0-1.1-0.4-1.1-0.9c0-0.5,0.5-0.9,1.1-0.9
		s1.1,0.4,1.1,0.9C199.6,124.8,199.1,125.1,198.5,125.1z M202.6,124.3c0,0.5-0.5,0.9-1.1,0.9c-0.6,0-1.1-0.4-1.1-0.9
		c0-0.5,0.5-0.9,1.1-0.9C202.2,123.4,202.6,123.8,202.6,124.3z"/>
	<path class="st0" d="M211.3,119.1c0,1.3,0.5,2.6,1.5,3.6v14H226v-14c0.9-1,1.5-2.3,1.5-3.6c0-2.6-4.3-4.8-6.6-5.8
		c0.4-0.3,0.7-0.8,0.7-1.3c0-0.8-0.7-1.6-1.7-1.7c0.5-0.2,0.9-0.6,0.9-1.1c0-0.6-0.5-1-1.1-1.1c0.4-0.1,0.7-0.4,0.7-0.7
		c0-0.4-0.4-0.7-0.9-0.7c-0.5,0-0.9,0.3-0.9,0.7c0,0.3,0.3,0.6,0.7,0.7c-0.6,0.1-1.1,0.6-1.1,1.1c0,0.5,0.4,0.9,0.9,1.1
		c-0.9,0.2-1.7,0.9-1.7,1.7c0,0.5,0.3,0.9,0.7,1.3C215.6,114.4,211.3,116.5,211.3,119.1z M223.9,123.4c0.6,0,1.1,0.4,1.1,0.9
		c0,0.5-0.5,0.9-1.1,0.9s-1.1-0.4-1.1-0.9S223.3,123.4,223.9,123.4z M220.9,123.4c0.6,0,1.1,0.4,1.1,0.9c0,0.5-0.5,0.9-1.1,0.9
		s-1.1-0.4-1.1-0.9C219.7,123.8,220.3,123.4,220.9,123.4z M214.7,125.1c-0.6,0-1.1-0.4-1.1-0.9c0-0.5,0.5-0.9,1.1-0.9
		s1.1,0.4,1.1,0.9C215.8,124.8,215.2,125.1,214.7,125.1z M218.8,124.3c0,0.5-0.5,0.9-1.1,0.9s-1.1-0.4-1.1-0.9
		c0-0.5,0.5-0.9,1.1-0.9C218.4,123.4,218.8,123.8,218.8,124.3z"/>
	<path class="st0" d="M227.5,119.1c0,1.3,0.5,2.6,1.5,3.6v14h13.3v-14c0.9-1,1.5-2.3,1.5-3.6c0-2.6-4.3-4.8-6.6-5.8
		c0.4-0.3,0.7-0.8,0.7-1.3c0-0.8-0.7-1.6-1.7-1.7c0.5-0.2,0.9-0.6,0.9-1.1c0-0.6-0.5-1-1.1-1.1c0.4-0.1,0.7-0.4,0.7-0.7
		c0-0.4-0.4-0.7-0.9-0.7c-0.5,0-0.9,0.3-0.9,0.7c0,0.3,0.3,0.6,0.7,0.7c-0.6,0.1-1.1,0.6-1.1,1.1c0,0.5,0.4,0.9,0.9,1.1
		c-0.9,0.2-1.7,0.9-1.7,1.7c0,0.5,0.3,0.9,0.7,1.3C231.8,114.4,227.5,116.5,227.5,119.1z M240.1,123.4c0.6,0,1.1,0.4,1.1,0.9
		c0,0.5-0.5,0.9-1.1,0.9c-0.6,0-1.1-0.4-1.1-0.9S239.5,123.4,240.1,123.4z M237,123.4c0.6,0,1.1,0.4,1.1,0.9c0,0.5-0.5,0.9-1.1,0.9
		s-1.1-0.4-1.1-0.9C235.9,123.8,236.4,123.4,237,123.4z M230.9,125.1c-0.6,0-1.1-0.4-1.1-0.9c0-0.5,0.5-0.9,1.1-0.9s1.1,0.4,1.1,0.9
		C232,124.8,231.4,125.1,230.9,125.1z M235,124.3c0,0.5-0.5,0.9-1.1,0.9s-1.1-0.4-1.1-0.9c0-0.5,0.5-0.9,1.1-0.9
		C234.5,123.4,235,123.8,235,124.3z"/>
	<path class="st0" d="M243.6,119.1c0,1.3,0.5,2.6,1.5,3.6v14h13.3v-14c0.9-1,1.5-2.3,1.5-3.6c0-2.6-4.3-4.8-6.6-5.8
		c0.4-0.3,0.7-0.8,0.7-1.3c0-0.8-0.7-1.6-1.7-1.7c0.5-0.2,0.9-0.6,0.9-1.1c0-0.6-0.5-1-1.1-1.1c0.4-0.1,0.7-0.4,0.7-0.7
		c0-0.4-0.4-0.7-0.9-0.7c-0.5,0-0.9,0.3-0.9,0.7c0,0.3,0.3,0.6,0.7,0.7c-0.6,0.1-1.1,0.6-1.1,1.1c0,0.5,0.4,0.9,0.9,1.1
		c-0.9,0.2-1.7,0.9-1.7,1.7c0,0.5,0.3,0.9,0.7,1.3C247.9,114.4,243.6,116.5,243.6,119.1z M256.3,123.4c0.6,0,1.1,0.4,1.1,0.9
		c0,0.5-0.5,0.9-1.1,0.9c-0.6,0-1.1-0.4-1.1-0.9S255.7,123.4,256.3,123.4z M253.2,123.4c0.6,0,1.1,0.4,1.1,0.9
		c0,0.5-0.5,0.9-1.1,0.9s-1.1-0.4-1.1-0.9C252.1,123.8,252.6,123.4,253.2,123.4z M247.1,125.1c-0.6,0-1.1-0.4-1.1-0.9
		c0-0.5,0.5-0.9,1.1-0.9s1.1,0.4,1.1,0.9C248.1,124.8,247.6,125.1,247.1,125.1z M251.2,124.3c0,0.5-0.5,0.9-1.1,0.9
		s-1.1-0.4-1.1-0.9c0-0.5,0.5-0.9,1.1-0.9C250.7,123.4,251.2,123.8,251.2,124.3z"/>
</g>
<path class="st1" d="M335.8,230.7c0.1-0.2,0.2-0.3,0.7-0.4c0,0,0.1,0,0.2,0c0.1,0,0.1,0,0.2,0l0,0c0.5,0,0.6,0.2,0.7,0.4
	c0.2,0.4,0.2,0.8-0.1,1.3c-0.1,0.1-0.2,0.2-0.4,0.3c0,0-0.4,0.4,0.2,0.6c0,0.2-0.1,0.5-0.1,0.7h-0.5h-0.1h-0.5
	c-0.1-0.2-0.1-0.5-0.1-0.7c0.7-0.2,0.2-0.6,0.2-0.6c-0.1-0.1-0.2-0.2-0.4-0.3C335.5,231.6,335.5,231.1,335.8,230.7z"/>
<path class="st1" d="M332.9,230.7c0.1-0.2,0.2-0.3,0.7-0.4l0,0c0,0,0.1,0,0.2,0c0.1,0,0.1,0,0.2,0c0.5,0,0.6,0.2,0.7,0.4
	c0.2,0.4,0.2,0.8-0.1,1.3c-0.1,0.1-0.2,0.2-0.4,0.3c0,0-0.4,0.4,0.2,0.6c0,0.2-0.1,0.5-0.1,0.7h-0.6h-0.1h-0.5
	c-0.1-0.2-0.1-0.5-0.1-0.7c0.7-0.2,0.2-0.6,0.2-0.6c-0.1-0.1-0.2-0.2-0.4-0.3C332.7,231.6,332.8,231.1,332.9,230.7z"/>
<path class="st1" d="M329.9,230.7c0.1-0.2,0.2-0.3,0.7-0.4l0,0c0,0,0.1,0,0.2,0c0.1,0,0.1,0,0.2,0l0,0c0.5,0,0.6,0.2,0.7,0.4
	c0.2,0.4,0.2,0.8,0,1.3c-0.1,0.1-0.2,0.2-0.4,0.3c0,0-0.4,0.4,0.2,0.6c0,0.2-0.1,0.5-0.1,0.7h-0.5H331h-0.5
	c-0.1-0.2-0.1-0.5-0.1-0.7c0.6-0.2,0.2-0.6,0.2-0.6c-0.1-0.1-0.2-0.2-0.4-0.3C329.7,231.6,329.7,231.1,329.9,230.7z"/>
<path class="st1" d="M327,230.7c0.1-0.2,0.2-0.3,0.7-0.4c0,0,0.1,0,0.2,0c0.1,0,0.1,0,0.2,0l0,0c0.5,0,0.6,0.2,0.7,0.4
	c0.2,0.4,0.2,0.8-0.1,1.3c-0.1,0.1-0.2,0.2-0.4,0.3c0,0-0.4,0.4,0.2,0.6c0,0.2-0.1,0.5-0.1,0.7h-0.5H328h-0.5
	c-0.1-0.2-0.1-0.5-0.1-0.7c0.7-0.2,0.2-0.6,0.2-0.6c-0.1-0.1-0.4-0.2-0.4-0.3C326.8,231.6,326.9,231.1,327,230.7z"/>
<path class="st1" d="M324.3,230.7c0.1-0.2,0.2-0.3,0.7-0.4l0,0c0,0,0.1,0,0.2,0c0.1,0,0.1,0,0.2,0c0.5,0,0.6,0.2,0.7,0.4
	c0.2,0.4,0.2,0.8-0.1,1.3c-0.1,0.1-0.2,0.2-0.4,0.3c0,0-0.4,0.4,0.2,0.6c0,0.2-0.1,0.5-0.1,0.7h-0.5h-0.2h-0.5
	c-0.1-0.2-0.1-0.5-0.1-0.7c0.6-0.2,0.2-0.6,0.2-0.6c-0.1-0.1-0.2-0.2-0.4-0.3C324.1,231.6,324.1,231.1,324.3,230.7z"/>
<path class="st1" d="M288.3,230.7c0.1-0.2,0.2-0.3,0.7-0.4l0,0c0,0,0.1,0,0.2,0c0.1,0,0.1,0,0.2,0l0,0c0.5,0,0.6,0.2,0.7,0.4
	c0.2,0.4,0.2,0.8-0.1,1.3c-0.1,0.1-0.2,0.2-0.4,0.3c0,0-0.4,0.4,0.2,0.6c0,0.2-0.1,0.5-0.1,0.7h-0.5h-0.1h-0.5
	c-0.1-0.2-0.1-0.5-0.1-0.7c0.6-0.2,0.2-0.6,0.2-0.6c-0.1-0.1-0.2-0.2-0.4-0.3C288,231.6,288,231.1,288.3,230.7z"/>
<path class="st1" d="M285.4,230.7c0.1-0.2,0.2-0.3,0.7-0.4l0,0c0,0,0.1,0,0.2,0c0.1,0,0.1,0,0.2,0l0,0c0.5,0,0.6,0.2,0.7,0.4
	c0.2,0.4,0.2,0.8-0.1,1.3c-0.1,0.1-0.2,0.2-0.4,0.3c0,0-0.4,0.4,0.2,0.6c0,0.2-0.1,0.5-0.1,0.7h-0.5h-0.1h-0.5
	c-0.1-0.2-0.1-0.5-0.1-0.7c0.7-0.2,0.2-0.6,0.2-0.6c-0.1-0.1-0.4-0.2-0.4-0.3C285.2,231.6,285.3,231.1,285.4,230.7z"/>
<path class="st1" d="M282.7,230.7c0.1-0.2,0.2-0.3,0.7-0.4c0,0,0.1,0,0.2,0c0.1,0,0.1,0,0.2,0l0,0c0.5,0,0.6,0.2,0.7,0.4
	c0.2,0.4,0.2,0.8-0.1,1.3c-0.1,0.1-0.2,0.2-0.4,0.3c0,0-0.4,0.4,0.2,0.6c0,0.2-0.1,0.5-0.1,0.7h-0.5h-0.1h-0.5
	c-0.1-0.2-0.1-0.5-0.1-0.7c0.7-0.2,0.2-0.6,0.2-0.6c-0.1-0.1-0.2-0.2-0.4-0.3C282.4,231.6,282.4,231.1,282.7,230.7z"/>
<path class="st1" d="M279.8,230.7c0.1-0.2,0.2-0.3,0.7-0.4l0,0c0,0,0.1,0,0.2,0c0.1,0,0.1,0,0.2,0l0,0c0.5,0,0.6,0.2,0.7,0.4
	c0.2,0.4,0.2,0.8-0.1,1.3c-0.1,0.1-0.2,0.2-0.4,0.3c0,0-0.4,0.4,0.2,0.6c0,0.2-0.1,0.5-0.1,0.7h-0.5h-0.1h-0.5
	c-0.1-0.2-0.1-0.5-0.1-0.7c0.6-0.2,0.2-0.6,0.2-0.6c-0.1-0.1-0.2-0.2-0.4-0.3C279.5,231.6,279.5,231.1,279.8,230.7z"/>
<path class="st1" d="M276.9,230.7c0.1-0.2,0.2-0.3,0.7-0.4c0,0,0.1,0,0.2,0c0.1,0,0.1,0,0.2,0l0,0c0.5,0,0.6,0.2,0.7,0.4
	c0.2,0.4,0.2,0.8-0.1,1.3c-0.1,0.1-0.2,0.2-0.4,0.3c0,0-0.4,0.4,0.2,0.6c0,0.2-0.1,0.5-0.1,0.7h-0.5h-0.2h-0.5
	c-0.1-0.2-0.1-0.5-0.1-0.7c0.7-0.2,0.2-0.6,0.2-0.6c-0.1-0.1-0.2-0.2-0.4-0.3C276.7,231.6,276.8,231.1,276.9,230.7z"/>
<rect x="233.3" y="280" class="st1" width="18.2" height="13.7"/>
<rect x="233.3" y="248.7" class="st1" width="18.2" height="13.7"/>
<path class="st1" d="M253.6,232c-0.1,0.1-0.2,0.2-0.4,0.3c0,0-0.4,0.4,0.2,0.6c0,0.2-0.1,0.5-0.1,0.7h-0.5h-0.1h-0.5
	c-0.1-0.2-0.1-0.5-0.1-0.7c0.6-0.2,0.2-0.6,0.2-0.6c-0.1-0.1-0.2-0.2-0.4-0.3c-0.2-0.4-0.2-0.8,0-1.3c0.1-0.2,0.2-0.3,0.7-0.4l0,0
	c0,0,0.1,0,0.2,0s0.1,0,0.2,0l0,0c0.5,0,0.6,0.2,0.7,0.4C254,231.1,254,231.6,253.6,232z"/>
<path class="st1" d="M256.7,232c-0.1,0.1-0.2,0.2-0.4,0.3c0,0-0.4,0.4,0.2,0.6c0,0.2-0.1,0.5-0.1,0.7H256h-0.1h-0.5
	c-0.1-0.2-0.2-0.5-0.2-0.7c0.7-0.2,0.2-0.6,0.2-0.6c-0.1-0.1-0.2-0.2-0.4-0.3c-0.2-0.4-0.2-0.8-0.1-1.3c0.1-0.2,0.2-0.3,0.7-0.4l0,0
	c0,0,0.1,0,0.2,0s0.1,0,0.2,0c0.5,0,0.6,0.2,0.7,0.4C257,231.1,257.1,231.6,256.7,232z"/>
<path class="st1" d="M259.6,232c-0.1,0.1-0.2,0.2-0.4,0.3c0,0-0.5,0.4,0.2,0.6c0,0.2-0.1,0.5-0.1,0.7h-0.5h-0.1h-0.5
	c-0.1-0.2-0.1-0.5-0.1-0.7c0.6-0.2,0.2-0.6,0.2-0.6c-0.1-0.1-0.2-0.2-0.4-0.3c-0.2-0.4-0.2-0.8-0.1-1.3c0.1-0.2,0.2-0.3,0.7-0.4l0,0
	c0,0,0.1,0,0.2,0c0.1,0,0.1,0,0.2,0l0,0c0.5,0,0.6,0.2,0.7,0.4C259.8,231.1,259.8,231.6,259.6,232z"/>
<path class="st1" d="M262.3,232c-0.1,0.1-0.2,0.2-0.4,0.3c0,0-0.4,0.4,0.2,0.6c0,0.2-0.1,0.5-0.1,0.7h-0.5h-0.1H261
	c-0.1-0.2-0.1-0.5-0.1-0.7c0.6-0.2,0.2-0.6,0.2-0.6c-0.1-0.1-0.4-0.2-0.4-0.3c-0.4-0.4-0.2-0.8-0.1-1.3c0.1-0.2,0.2-0.3,0.7-0.4l0,0
	c0,0,0.1,0,0.2,0c0.1,0,0.1,0,0.2,0c0.5,0,0.6,0.2,0.7,0.4C262.6,231.1,262.6,231.6,262.3,232z"/>
<path class="st1" d="M267.2,232c-0.1,0.1-0.2,0.2-0.4,0.3c0,0-0.4,0.4,0.2,0.6c0,0.2-0.1,0.5-0.1,0.7h-0.5h-0.1h-0.5
	c-0.1-0.2-0.1-0.5-0.1-0.7c0.7-0.2,0.2-0.6,0.2-0.6c-0.1-0.1-0.2-0.2-0.4-0.3c-0.2-0.4-0.2-0.8-0.1-1.3c0.1-0.2,0.2-0.3,0.7-0.4l0,0
	c0,0,0.1,0,0.2,0c0.1,0,0.1,0,0.2,0l0,0c0.5,0,0.6,0.2,0.7,0.4C267.6,231.1,267.6,231.6,267.2,232z"/>
<path class="st1" d="M270.1,232c-0.1,0.1-0.2,0.2-0.4,0.3c0,0-0.4,0.4,0.2,0.6c0,0.2-0.1,0.5-0.1,0.7h-0.5h-0.1h-0.5
	c-0.1-0.2-0.1-0.5-0.1-0.7c0.6-0.2,0.2-0.6,0.2-0.6c-0.1-0.1-0.2-0.2-0.4-0.3c-0.2-0.4-0.2-0.8-0.1-1.3c0.1-0.2,0.2-0.3,0.7-0.4
	c0,0,0.1,0,0.2,0c0.1,0,0.1,0,0.2,0c0.5,0,0.6,0.2,0.7,0.4C270.3,231.1,270.3,231.6,270.1,232z"/>
<path class="st1" d="M272.8,232c-0.1,0.1-0.2,0.2-0.4,0.3c0,0-0.4,0.4,0.2,0.6c0,0.2-0.1,0.5-0.1,0.7h-0.5h-0.1h-0.5
	c-0.1-0.2-0.1-0.5-0.1-0.7c0.7-0.2,0.2-0.6,0.2-0.6c-0.1-0.1-0.2-0.2-0.4-0.3c-0.2-0.4-0.2-0.8-0.1-1.3c0.1-0.2,0.2-0.3,0.7-0.4l0,0
	c0,0,0.1,0,0.2,0c0.1,0,0.1,0,0.2,0l0,0c0.5,0,0.6,0.2,0.7,0.4C273.2,231.1,273.2,231.6,272.8,232z"/>
<path class="st1" d="M274.4,232.9c0.6-0.2,0.2-0.6,0.2-0.6c-0.1-0.1-0.2-0.2-0.4-0.3c-0.4-0.4-0.2-0.8-0.1-1.3
	c0.1-0.2,0.2-0.3,0.7-0.4l0,0c0,0,0.1,0,0.2,0c0.1,0,0.1,0,0.2,0l0,0c0.5,0,0.6,0.2,0.7,0.4c0.2,0.4,0.2,0.8-0.1,1.3
	c-0.1,0.1-0.2,0.2-0.4,0.3c0,0-0.4,0.4,0.2,0.6c0,0.2-0.1,0.5-0.1,0.7h-0.5h-0.1h-0.5C274.4,233.4,274.4,233.1,274.4,232.9z"/>
<rect x="275.2" y="300.8" class="st1" width="17.8" height="3.9"/>
<rect x="274.9" y="280" class="st1" width="18.2" height="13.7"/>
<rect x="274.9" y="248.7" class="st1" width="18.2" height="13.7"/>
<path class="st1" d="M296.6,232c-0.1,0.1-0.2,0.2-0.4,0.3c0,0-0.4,0.4,0.2,0.6c0,0.2-0.1,0.5-0.1,0.7h-0.5h-0.1h-0.5
	c-0.1-0.2-0.1-0.5-0.1-0.7c0.7-0.2,0.2-0.6,0.2-0.6c-0.1-0.1-0.2-0.2-0.4-0.3c-0.4-0.4-0.2-0.8-0.1-1.3c0.1-0.2,0.2-0.3,0.7-0.4
	c0,0,0.1,0,0.2,0c0.1,0,0.1,0,0.2,0l0,0c0.5,0,0.6,0.2,0.7,0.4C296.9,231.1,297,231.6,296.6,232z"/>
<path class="st1" d="M299.5,232c-0.1,0.1-0.2,0.2-0.4,0.3c0,0-0.4,0.4,0.2,0.6c0,0.2-0.1,0.5-0.1,0.7h-0.5h-0.1h-0.5
	c-0.1-0.2-0.1-0.5-0.1-0.7c0.7-0.2,0.2-0.6,0.2-0.6c-0.1-0.1-0.2-0.2-0.4-0.3c-0.2-0.4-0.2-0.8-0.1-1.3c0.1-0.2,0.2-0.3,0.7-0.4
	c0,0,0.1,0,0.2,0c0.1,0,0.1,0,0.2,0l0,0c0.5,0,0.6,0.2,0.7,0.4C299.7,231.1,299.7,231.6,299.5,232z"/>
<path class="st1" d="M302.2,232c-0.1,0.1-0.2,0.2-0.4,0.3c0,0-0.4,0.4,0.2,0.6c0,0.2-0.1,0.5-0.1,0.7h-0.5h-0.1h-0.5
	c-0.1-0.2-0.1-0.5-0.1-0.7c0.6-0.2,0.2-0.6,0.2-0.6c-0.1-0.1-0.2-0.2-0.4-0.3c-0.4-0.4-0.2-0.8-0.1-1.3c0.1-0.2,0.2-0.3,0.7-0.4
	c0,0,0.1,0,0.2,0c0.1,0,0.1,0,0.2,0l0,0c0.4,0,0.6,0.2,0.7,0.4C302.5,231.1,302.6,231.6,302.2,232z"/>
<path class="st1" d="M305.4,232c-0.1,0.1-0.2,0.2-0.4,0.3c0,0-0.5,0.4,0.2,0.6c0,0.2-0.1,0.5-0.1,0.7h-0.5h-0.1H304
	c-0.1-0.2-0.1-0.5-0.1-0.7c0.6-0.2,0.2-0.6,0.2-0.6c-0.1-0.1-0.2-0.2-0.4-0.3c-0.2-0.4-0.2-0.8-0.1-1.3c0.1-0.2,0.2-0.3,0.7-0.4l0,0
	c0,0,0.1,0,0.2,0c0.1,0,0.1,0,0.2,0c0.5,0,0.6,0.2,0.7,0.4C305.6,231.1,305.6,231.6,305.4,232z"/>
<path class="st1" d="M308.1,232c-0.1,0.1-0.2,0.2-0.4,0.3c0,0-0.4,0.4,0.2,0.6c0,0.2-0.1,0.5-0.1,0.7h-0.5h-0.1h-0.5
	c-0.1-0.2-0.1-0.5-0.1-0.7c0.7-0.2,0.2-0.6,0.2-0.6c-0.1-0.1-0.2-0.2-0.4-0.3c-0.4-0.4-0.2-0.8-0.1-1.3c0.1-0.2,0.2-0.3,0.7-0.4
	c0,0,0.1,0,0.2,0c0.1,0,0.1,0,0.2,0l0,0c0.5,0,0.6,0.2,0.7,0.4C308.5,231.1,308.5,231.6,308.1,232z"/>
<path class="st1" d="M311,232c-0.1,0.1-0.2,0.2-0.4,0.3c0,0-0.4,0.4,0.2,0.6c0,0.2-0.1,0.5-0.1,0.7h-0.5h-0.1h-0.5
	c-0.1-0.2-0.1-0.5-0.1-0.7c0.7-0.2,0.2-0.6,0.2-0.6c-0.1-0.1-0.4-0.2-0.4-0.3c-0.2-0.4-0.2-0.8-0.1-1.3c0.1-0.2,0.2-0.3,0.7-0.4l0,0
	c0,0,0.1,0,0.2,0c0.1,0,0.1,0,0.2,0l0,0c0.5,0,0.6,0.2,0.7,0.4C311.2,231.1,311.2,231.6,311,232z"/>
<path class="st1" d="M313.8,232c-0.1,0.1-0.2,0.2-0.4,0.3c0,0-0.4,0.4,0.2,0.6c0,0.2-0.1,0.5-0.1,0.7h-0.5H313h-0.5
	c-0.1-0.2-0.1-0.5-0.1-0.7c0.7-0.2,0.2-0.6,0.2-0.6c-0.1-0.1-0.2-0.2-0.4-0.3c-0.4-0.4-0.2-0.8-0.1-1.3c0.1-0.2,0.2-0.3,0.7-0.4l0,0
	c0,0,0.1,0,0.2,0c0.1,0,0.1,0,0.2,0l0,0c0.5,0,0.6,0.2,0.7,0.4C314.1,231.1,314.1,231.6,313.8,232z"/>
<path class="st1" d="M316.6,232c-0.1,0.1-0.2,0.2-0.4,0.3c0,0-0.4,0.4,0.2,0.6c0,0.2-0.1,0.5-0.1,0.7h-0.5h-0.1h-0.5
	c-0.1-0.2-0.1-0.5-0.1-0.7c0.6-0.2,0.2-0.6,0.2-0.6c-0.1-0.1-0.2-0.2-0.4-0.3c-0.4-0.4-0.2-0.8,0-1.3c0.1-0.2,0.2-0.3,0.7-0.4l0,0
	c0,0,0.1,0,0.2,0c0.1,0,0.1,0,0.2,0l0,0c0.5,0,0.6,0.2,0.7,0.4C316.8,231.1,316.9,231.6,316.6,232z"/>
<path class="st1" d="M319.4,232c-0.1,0.1-0.2,0.2-0.4,0.3c0,0-0.4,0.4,0.2,0.6c0,0.2-0.1,0.5-0.1,0.7h-0.5h-0.1h-0.5
	c-0.1-0.2-0.1-0.5-0.1-0.7c0.6-0.2,0.2-0.6,0.2-0.6c-0.1-0.1-0.2-0.2-0.4-0.3c-0.2-0.4-0.2-0.8-0.1-1.3c0.1-0.2,0.2-0.3,0.7-0.4
	c0,0,0.1,0,0.2,0c0.1,0,0.1,0,0.2,0l0,0c0.5,0,0.6,0.2,0.7,0.4C319.7,231.1,319.7,231.6,319.4,232z"/>
<rect x="320.4" y="300.8" class="st1" width="17.8" height="3.9"/>
<rect x="320.3" y="280" class="st1" width="18.2" height="13.7"/>
<rect x="320.3" y="248.7" class="st1" width="18.2" height="13.7"/>
<path class="st1" d="M340.4,232c-0.1,0.1-0.2,0.2-0.4,0.3c0,0-0.4,0.4,0.2,0.6c0,0.2-0.1,0.5-0.1,0.7h-0.5h-0.1h-0.6
	c-0.1-0.2-0.1-0.5-0.1-0.7c0.7-0.2,0.2-0.6,0.2-0.6c-0.1-0.1-0.2-0.2-0.4-0.3c-0.2-0.4-0.2-0.8-0.1-1.3c0.1-0.2,0.2-0.3,0.7-0.4
	c0,0,0.1,0,0.2,0c0.1,0,0.1,0,0.2,0l0,0c0.5,0,0.6,0.2,0.7,0.4C340.6,231.1,340.6,231.6,340.4,232z"/>
<path class="st1" d="M343.3,232c-0.1,0.1-0.2,0.2-0.4,0.3c0,0-0.4,0.4,0.2,0.6c0,0.2-0.1,0.5-0.1,0.7h-0.5h-0.1h-0.5
	c-0.1-0.2-0.1-0.5-0.1-0.7c0.7-0.2,0.2-0.6,0.2-0.6c-0.1-0.1-0.2-0.2-0.4-0.3c-0.2-0.4-0.2-0.8,0-1.3c0.1-0.2,0.2-0.3,0.7-0.4l0,0
	c0,0,0.1,0,0.2,0c0.1,0,0.1,0,0.2,0l0,0c0.5,0,0.6,0.2,0.7,0.4C343.5,231.1,343.5,231.6,343.3,232z"/>
<path class="st1" d="M346,232c-0.1,0.1-0.2,0.2-0.4,0.3c0,0-0.4,0.4,0.2,0.6c0,0.2-0.1,0.5-0.1,0.7h-0.5h-0.1h-0.5
	c-0.1-0.2-0.1-0.5-0.1-0.7c0.7-0.2,0.2-0.6,0.2-0.6c-0.1-0.1-0.2-0.2-0.4-0.3c-0.2-0.4-0.2-0.8-0.1-1.3c0.1-0.2,0.2-0.3,0.7-0.4l0,0
	c0,0,0.1,0,0.2,0c0.1,0,0.1,0,0.2,0l0,0c0.5,0,0.6,0.2,0.7,0.4C346.2,231.1,346.2,231.6,346,232z"/>
<path class="st1" d="M348.7,232c-0.1,0.1-0.2,0.2-0.4,0.3c0,0-0.4,0.4,0.2,0.6c0,0.2-0.1,0.5-0.1,0.7H348h-0.1h-0.5
	c-0.1-0.2-0.1-0.5-0.1-0.7c0.7-0.2,0.2-0.6,0.2-0.6c-0.1-0.1-0.2-0.2-0.4-0.3c-0.4-0.4-0.2-0.8-0.1-1.3c0.1-0.2,0.2-0.3,0.7-0.4l0,0
	c0,0,0.1,0,0.2,0c0.1,0,0.1,0,0.2,0l0,0c0.5,0,0.6,0.2,0.7,0.4C349.1,231.1,349.1,231.6,348.7,232z"/>
<path class="st1" d="M354.1,232c-0.1,0.1-0.2,0.2-0.4,0.3c0,0-0.4,0.4,0.2,0.6c0,0.2-0.1,0.5-0.1,0.7h-0.5h-0.1h-0.6
	c-0.1-0.2-0.1-0.5-0.1-0.7c0.6-0.2,0.2-0.6,0.2-0.6c-0.1-0.1-0.2-0.2-0.4-0.3c-0.4-0.4-0.2-0.8,0-1.3c0.1-0.2,0.2-0.3,0.7-0.4
	c0,0,0.1,0,0.2,0c0.1,0,0.1,0,0.2,0l0,0c0.5,0,0.6,0.2,0.7,0.4C354.4,231.1,354.4,231.6,354.1,232z"/>
<path class="st1" d="M356.8,232c-0.1,0.1-0.2,0.2-0.4,0.3c0,0-0.4,0.4,0.2,0.6c0,0.2-0.1,0.5-0.1,0.7h-0.5H356h-0.5
	c-0.1-0.2-0.1-0.5-0.1-0.7c0.6-0.2,0.2-0.6,0.2-0.6c-0.1-0.1-0.2-0.2-0.4-0.3c-0.4-0.4-0.2-0.8-0.1-1.3c0.1-0.2,0.2-0.3,0.7-0.4l0,0
	c0,0,0.1,0,0.2,0c0.1,0,0.1,0,0.2,0l0,0c0.5,0,0.6,0.2,0.7,0.4C357.1,231.1,357.2,231.6,356.8,232z"/>
<rect x="362.1" y="300.8" class="st1" width="17.8" height="3.9"/>
<rect x="362" y="280" class="st1" width="18.2" height="13.7"/>
<rect x="362" y="248.7" class="st1" width="18.2" height="13.7"/>
<rect x="29.7" y="300.8" class="st1" width="17.8" height="3.9"/>
<rect x="29.6" y="280" class="st1" width="18.2" height="13.7"/>
<rect x="29.6" y="248.7" class="st1" width="18.2" height="13.7"/>
<path class="st1" d="M130.3,230.7c0.1-0.2,0.2-0.3,0.7-0.4l0,0c0,0,0.1,0,0.2,0c0.1,0,0.1,0,0.2,0l0,0c0.5,0,0.6,0.2,0.7,0.4
	c0.2,0.4,0.2,0.8-0.1,1.3c-0.1,0.1-0.2,0.2-0.4,0.3c0,0-0.5,0.4,0.2,0.6c0,0.2-0.1,0.5-0.1,0.7h-0.5h-0.1h-0.6
	c-0.1-0.2-0.1-0.5-0.1-0.7c0.7-0.2,0.2-0.6,0.2-0.6c-0.1-0.1-0.2-0.2-0.4-0.3C130.1,231.6,130.1,231.1,130.3,230.7z"/>
<path class="st1" d="M127.4,230.7c0.1-0.2,0.2-0.3,0.7-0.4c0,0,0.1,0,0.2,0c0.1,0,0.1,0,0.2,0l0,0c0.5,0,0.6,0.2,0.7,0.4
	c0.2,0.4,0.2,0.8,0,1.3c-0.1,0.1-0.2,0.2-0.4,0.3c0,0-0.4,0.4,0.2,0.6c0,0.2-0.1,0.5-0.1,0.7h-0.5h-0.1h-0.5
	c-0.1-0.2-0.1-0.5-0.1-0.7c0.6-0.2,0.2-0.6,0.2-0.6c-0.1-0.1-0.2-0.2-0.4-0.3C127.2,231.6,127.3,231.1,127.4,230.7z"/>
<path class="st1" d="M124.3,230.7c0.1-0.2,0.2-0.3,0.7-0.4l0,0c0,0,0.1,0,0.2,0c0.1,0,0.1,0,0.2,0c0.5,0,0.6,0.2,0.7,0.4
	c0.2,0.4,0.2,0.8-0.1,1.3c-0.1,0.1-0.2,0.2-0.4,0.3c0,0-0.4,0.4,0.2,0.6c0,0.2-0.1,0.5-0.1,0.7h-0.5h-0.1h-0.5
	c-0.1-0.2-0.1-0.5-0.1-0.7c0.6-0.2,0.2-0.6,0.2-0.6c-0.1-0.1-0.2-0.2-0.4-0.3C124.1,231.6,124.2,231.1,124.3,230.7z"/>
<path class="st1" d="M121.6,230.7c0.1-0.2,0.2-0.3,0.7-0.4l0,0c0,0,0.1,0,0.2,0c0.1,0,0.1,0,0.2,0l0,0c0.5,0,0.6,0.2,0.7,0.4
	c0.2,0.4,0.2,0.8-0.1,1.3c-0.1,0.1-0.2,0.2-0.4,0.3c0,0-0.4,0.4,0.2,0.6c0,0.2-0.1,0.5-0.1,0.7h-0.5h-0.1H122
	c-0.1-0.2-0.1-0.5-0.1-0.7c0.6-0.2,0.2-0.6,0.2-0.6c-0.1-0.1-0.2-0.2-0.4-0.3C121.3,231.6,121.3,231.1,121.6,230.7z"/>
<path class="st1" d="M118.7,230.7c0.1-0.2,0.2-0.3,0.7-0.4c0,0,0.1,0,0.2,0c0.1,0,0.1,0,0.2,0l0,0c0.5,0,0.6,0.2,0.7,0.4
	c0.2,0.4,0.2,0.8-0.1,1.3c-0.1,0.1-0.2,0.2-0.4,0.3c0,0-0.5,0.4,0.2,0.6c0,0.2-0.1,0.5-0.1,0.7h-0.5h-0.1h-0.5
	c-0.1-0.2-0.1-0.5-0.1-0.7c0.7-0.2,0.2-0.6,0.2-0.6c-0.1-0.1-0.4-0.2-0.4-0.3C118.5,231.6,118.6,231.1,118.7,230.7z"/>
<path class="st1" d="M85.4,230.7c0.1-0.2,0.2-0.3,0.7-0.4l0,0c0,0,0.1,0,0.2,0c0.1,0,0.1,0,0.2,0c0.5,0,0.6,0.2,0.7,0.4
	c0.2,0.4,0.2,0.8-0.1,1.3c-0.1,0.1-0.2,0.2-0.4,0.3c0,0-0.4,0.4,0.2,0.6c0,0.2-0.1,0.5-0.1,0.7h-0.5h-0.1h-0.6
	c-0.1-0.2-0.1-0.5-0.1-0.7c0.7-0.2,0.2-0.6,0.2-0.6c-0.1-0.1-0.4-0.2-0.4-0.3C85.2,231.6,85.2,231.1,85.4,230.7z"/>
<path class="st1" d="M82.6,230.7c0.1-0.2,0.2-0.3,0.7-0.4l0,0c0,0,0.1,0,0.2,0c0.1,0,0.1,0,0.2,0l0,0c0.5,0,0.6,0.2,0.7,0.4
	c0.2,0.4,0.2,0.8-0.1,1.3c-0.1,0.1-0.2,0.2-0.4,0.3c0,0-0.4,0.4,0.2,0.6c0,0.2-0.1,0.5-0.1,0.7h-0.5h-0.1h-0.5
	c-0.1-0.2-0.1-0.5-0.1-0.7c0.6-0.2,0.2-0.6,0.2-0.6c-0.1-0.1-0.4-0.2-0.4-0.3C82.3,231.6,82.4,231.1,82.6,230.7z"/>
<path class="st1" d="M79.8,230.7c0.1-0.2,0.2-0.3,0.7-0.4l0,0c0,0,0.1,0,0.2,0c0.1,0,0.1,0,0.2,0l0,0c0.5,0,0.6,0.2,0.7,0.4
	c0.2,0.4,0.2,0.8-0.1,1.3c-0.1,0.1-0.2,0.2-0.4,0.3c0,0-0.4,0.4,0.2,0.6c0,0.2-0.1,0.5-0.1,0.7h-0.6h-0.1h-0.5
	c-0.1-0.2-0.1-0.5-0.1-0.7c0.6-0.2,0.2-0.6,0.2-0.6c-0.1-0.1-0.4-0.2-0.4-0.3C79.6,231.6,79.6,231.1,79.8,230.7z"/>
<path class="st1" d="M77,230.7c0.1-0.2,0.2-0.3,0.7-0.4l0,0c0,0,0.1,0,0.2,0c0.1,0,0.1,0,0.2,0l0,0c0.5,0,0.6,0.2,0.7,0.4
	c0.2,0.4,0.2,0.8-0.1,1.3c-0.1,0.1-0.2,0.2-0.4,0.3c0,0-0.4,0.4,0.2,0.6c0,0.2-0.1,0.5-0.1,0.7h-0.5H78h-0.5
	c-0.1-0.2-0.1-0.5-0.1-0.7c0.6-0.2,0.2-0.6,0.2-0.6c-0.1-0.1-0.2-0.2-0.4-0.3C76.7,231.6,76.7,231.1,77,230.7z"/>
<path class="st1" d="M74.1,230.7c0.1-0.2,0.2-0.3,0.7-0.4c0,0,0.1,0,0.2,0c0.1,0,0.1,0,0.2,0c0.5,0,0.6,0.2,0.7,0.4
	c0.2,0.4,0.2,0.8-0.1,1.3c-0.1,0.1-0.2,0.2-0.4,0.3c0,0-0.4,0.4,0.2,0.6c0,0.2-0.1,0.5-0.1,0.7h-0.5h-0.1h-0.5
	c-0.1-0.2-0.1-0.5-0.1-0.7c0.7-0.2,0.2-0.6,0.2-0.6c-0.1-0.1-0.2-0.2-0.4-0.3C73.8,231.6,74,231.1,74.1,230.7z"/>
<path class="st1" d="M55.5,232c-0.1,0.1-0.2,0.2-0.4,0.3c0,0-0.4,0.4,0.2,0.6c0,0.2-0.1,0.5-0.1,0.7h-0.5h-0.1h-0.5
	c-0.1-0.2-0.1-0.5-0.1-0.7c0.6-0.2,0.2-0.6,0.2-0.6c-0.1-0.1-0.2-0.2-0.4-0.3c-0.2-0.4-0.2-0.8-0.1-1.3c0.1-0.2,0.2-0.3,0.7-0.4l0,0
	c0,0,0.1,0,0.2,0c0.1,0,0.1,0,0.2,0l0,0c0.5,0,0.6,0.2,0.7,0.4C55.8,231.1,55.9,231.6,55.5,232z"/>
<path class="st1" d="M58.4,232c-0.1,0.1-0.2,0.2-0.4,0.3c0,0-0.4,0.4,0.2,0.6c0,0.2-0.1,0.5-0.1,0.7h-0.5h-0.1H57
	c-0.1-0.2-0.1-0.5-0.1-0.7c0.7-0.2,0.2-0.6,0.2-0.6c-0.1-0.1-0.4-0.2-0.4-0.3c-0.2-0.4-0.2-0.8-0.1-1.3c0.1-0.2,0.2-0.3,0.7-0.4l0,0
	c0,0,0.1,0,0.2,0c0.1,0,0.1,0,0.2,0l0,0c0.5,0,0.6,0.2,0.7,0.4C58.6,231.1,58.6,231.6,58.4,232z"/>
<path class="st1" d="M64.4,232c-0.1,0.1-0.2,0.2-0.4,0.3c0,0-0.4,0.4,0.2,0.6c0,0.2-0.1,0.5-0.1,0.7h-0.5h-0.1H63
	c-0.1-0.2-0.1-0.5-0.1-0.7c0.7-0.2,0.2-0.6,0.2-0.6c-0.1-0.1-0.2-0.2-0.4-0.3c-0.4-0.4-0.2-0.8-0.1-1.3c0.1-0.2,0.2-0.3,0.7-0.4l0,0
	c0,0,0.1,0,0.2,0c0.1,0,0.1,0,0.2,0l0,0c0.5,0,0.6,0.2,0.7,0.4C64.7,231.1,64.7,231.6,64.4,232z"/>
<path class="st1" d="M67.2,232c-0.1,0.1-0.2,0.2-0.4,0.3c0,0-0.4,0.4,0.2,0.6c0,0.2-0.1,0.5-0.1,0.7h-0.5h-0.1h-0.5
	c-0.1-0.2-0.1-0.5-0.1-0.7c0.7-0.2,0.2-0.6,0.2-0.6c-0.1-0.1-0.2-0.2-0.4-0.3c-0.2-0.4-0.2-0.8,0-1.3c0.1-0.2,0.2-0.3,0.7-0.4l0,0
	c0,0,0.1,0,0.2,0c0.1,0,0.1,0,0.2,0l0,0c0.5,0,0.6,0.2,0.7,0.4C67.5,231.1,67.5,231.6,67.2,232z"/>
<path class="st1" d="M70,232c-0.1,0.1-0.2,0.2-0.4,0.3c0,0-0.4,0.4,0.2,0.6c0,0.2-0.1,0.5-0.1,0.7h-0.5h-0.1h-0.5
	c-0.1-0.2-0.1-0.5-0.1-0.7c0.6-0.2,0.2-0.6,0.2-0.6c-0.1-0.1-0.2-0.2-0.4-0.3c-0.2-0.4-0.2-0.8-0.1-1.3c0.1-0.2,0.2-0.3,0.7-0.4l0,0
	c0,0,0.1,0,0.2,0c0.1,0,0.1,0,0.2,0l0,0c0.5,0,0.6,0.2,0.7,0.4C70.2,231.1,70.3,231.6,70,232z"/>
<path class="st1" d="M71.3,230.7c0.1-0.2,0.2-0.3,0.7-0.4l0,0c0,0,0.1,0,0.2,0c0.1,0,0.1,0,0.2,0l0,0c0.5,0,0.6,0.2,0.7,0.4
	c0.2,0.4,0.2,0.8-0.1,1.3c-0.1,0.1-0.2,0.2-0.4,0.3c0,0-0.4,0.4,0.2,0.6c0,0.2-0.1,0.5-0.1,0.7h-0.5h-0.1h-0.5
	c-0.1-0.2-0.1-0.5-0.1-0.7c0.7-0.2,0.2-0.6,0.2-0.6c-0.1-0.1-0.4-0.2-0.4-0.3C71.1,231.6,71.1,231.1,71.3,230.7z"/>
<rect x="71.3" y="300.8" class="st1" width="17.8" height="3.9"/>
<rect x="71.2" y="280" class="st1" width="18.2" height="13.7"/>
<rect x="71.2" y="248.7" class="st1" width="18.2" height="13.7"/>
<path class="st1" d="M92,232c-0.1,0.1-0.2,0.2-0.4,0.3c0,0-0.4,0.4,0.2,0.6c0,0.2-0.1,0.5-0.1,0.7h-0.5h-0.1h-0.5
	c-0.1-0.2-0.1-0.5-0.1-0.7c0.7-0.2,0.2-0.6,0.2-0.6c-0.1-0.1-0.2-0.2-0.4-0.3c-0.4-0.4-0.2-0.8-0.1-1.3c0.1-0.2,0.2-0.3,0.7-0.4l0,0
	c0,0,0.1,0,0.2,0c0.1,0,0.1,0,0.2,0c0.5,0,0.6,0.2,0.7,0.4C92.4,231.1,92.4,231.6,92,232z"/>
<path class="st1" d="M94.9,232c-0.1,0.1-0.2,0.2-0.4,0.3c0,0-0.5,0.4,0.2,0.6c0,0.2-0.1,0.5-0.1,0.7h-0.5H94h-0.5
	c-0.1-0.2-0.1-0.5-0.1-0.7c0.7-0.2,0.2-0.6,0.2-0.6c-0.1-0.1-0.2-0.2-0.4-0.3c-0.2-0.4-0.2-0.8-0.1-1.3c0.1-0.2,0.2-0.3,0.7-0.4l0,0
	c0,0,0.1,0,0.2,0c0.1,0,0.1,0,0.2,0l0,0c0.5,0,0.6,0.2,0.7,0.4C95.2,231.1,95.2,231.6,94.9,232z"/>
<path class="st1" d="M97.7,232c-0.1,0.1-0.2,0.2-0.4,0.3c0,0-0.4,0.4,0.2,0.6c0,0.2-0.1,0.5-0.1,0.7h-0.5h-0.1h-0.5
	c-0.1-0.2-0.1-0.5-0.1-0.7c0.7-0.2,0.2-0.6,0.2-0.6c-0.1-0.1-0.2-0.2-0.4-0.3c-0.4-0.4-0.2-0.8-0.1-1.3c0.1-0.2,0.2-0.3,0.7-0.4l0,0
	c0,0,0.1,0,0.2,0c0.1,0,0.1,0,0.2,0l0,0c0.5,0,0.6,0.2,0.7,0.4C97.9,231.1,98,231.6,97.7,232z"/>
<path class="st1" d="M100.8,232c-0.1,0.1-0.2,0.2-0.4,0.3c0,0-0.4,0.4,0.2,0.6c0,0.2-0.1,0.5-0.1,0.7H100h-0.1h-0.5
	c-0.1-0.2-0.1-0.5-0.1-0.7c0.7-0.2,0.2-0.6,0.2-0.6c-0.1-0.1-0.2-0.2-0.4-0.3c-0.2-0.4-0.2-0.8-0.1-1.3c0.1-0.2,0.2-0.3,0.7-0.4l0,0
	c0,0,0.1,0,0.2,0c0.1,0,0.1,0,0.2,0c0.5,0,0.6,0.2,0.7,0.4C101,231.1,101.1,231.6,100.8,232z"/>
<path class="st1" d="M103.5,232c-0.1,0.1-0.2,0.2-0.4,0.3c0,0-0.4,0.4,0.2,0.6c0,0.2-0.1,0.5-0.1,0.7h-0.5h-0.1h-0.5
	c-0.1-0.2-0.1-0.5-0.1-0.7c0.7-0.2,0.2-0.6,0.2-0.6c-0.1-0.1-0.2-0.2-0.4-0.3c-0.4-0.4-0.2-0.8-0.1-1.3c0.1-0.2,0.2-0.3,0.7-0.4l0,0
	c0,0,0.1,0,0.2,0c0.1,0,0.1,0,0.2,0c0.5,0,0.6,0.2,0.7,0.4C103.9,231.1,103.9,231.6,103.5,232z"/>
<path class="st1" d="M106.4,232c-0.1,0.1-0.2,0.2-0.4,0.3c0,0-0.5,0.4,0.2,0.6c0,0.2-0.1,0.5-0.1,0.7h-0.5h-0.1H105
	c-0.1-0.2-0.1-0.5-0.1-0.7c0.6-0.2,0.2-0.6,0.2-0.6c-0.1-0.1-0.2-0.2-0.4-0.3c-0.4-0.4-0.2-0.8-0.1-1.3c0.1-0.2,0.2-0.3,0.7-0.4l0,0
	c0,0,0.1,0,0.2,0c0.1,0,0.1,0,0.2,0c0.5,0,0.6,0.2,0.7,0.4C106.6,231.1,106.6,231.6,106.4,232z"/>
<path class="st1" d="M109.2,232c-0.1,0.1-0.2,0.2-0.4,0.3c0,0-0.5,0.4,0.2,0.6c0,0.2-0.1,0.5-0.1,0.7h-0.5h-0.1h-0.5
	c-0.1-0.2-0.1-0.5-0.1-0.7c0.6-0.2,0.2-0.6,0.2-0.6c-0.1-0.1-0.2-0.2-0.4-0.3c-0.2-0.4-0.2-0.8-0.1-1.3c0.1-0.2,0.2-0.3,0.7-0.4l0,0
	c0,0,0.1,0,0.2,0c0.1,0,0.1,0,0.2,0l0,0c0.5,0,0.6,0.2,0.7,0.4C109.5,231.1,109.5,231.6,109.2,232z"/>
<path class="st1" d="M112,232c-0.1,0.1-0.2,0.2-0.4,0.3c0,0-0.4,0.4,0.2,0.6c0,0.2-0.1,0.5-0.1,0.7h-0.5h-0.1h-0.5
	c-0.1-0.2-0.1-0.5-0.1-0.7c0.7-0.2,0.2-0.6,0.2-0.6c-0.1-0.1-0.2-0.2-0.4-0.3c-0.2-0.4-0.2-0.8-0.1-1.3c0.1-0.2,0.2-0.3,0.7-0.4l0,0
	c0,0,0.1,0,0.2,0c0.1,0,0.1,0,0.2,0l0,0c0.5,0,0.6,0.2,0.7,0.4C112.4,231.1,112.4,231.6,112,232z"/>
<path class="st1" d="M114.9,232c-0.1,0.1-0.2,0.2-0.4,0.3c0,0-0.4,0.4,0.2,0.6c0,0.2-0.1,0.5-0.1,0.7h-0.5H114h-0.5
	c-0.1-0.2-0.1-0.5-0.1-0.7c0.7-0.2,0.2-0.6,0.2-0.6c-0.1-0.1-0.2-0.2-0.4-0.3c-0.2-0.4-0.2-0.8-0.1-1.3c0.1-0.2,0.2-0.3,0.7-0.4l0,0
	c0,0,0.1,0,0.2,0c0.1,0,0.1,0,0.2,0l0,0c0.5,0,0.6,0.2,0.7,0.4C115.1,231.1,115.1,231.6,114.9,232z"/>
<rect x="116.7" y="300.8" class="st1" width="17.8" height="3.9"/>
<rect x="116.5" y="280" class="st1" width="18.2" height="13.7"/>
<rect x="116.5" y="248.7" class="st1" width="18.2" height="13.7"/>
<path class="st1" d="M134.8,232c-0.1,0.1-0.2,0.2-0.4,0.3c0,0-0.4,0.4,0.2,0.6c0,0.2-0.1,0.5-0.1,0.7h-0.5h-0.1h-0.5
	c-0.1-0.2-0.1-0.5-0.1-0.7c0.6-0.2,0.2-0.6,0.2-0.6c-0.1-0.1-0.2-0.2-0.4-0.3c-0.2-0.4-0.2-0.8-0.1-1.3c0.1-0.2,0.2-0.3,0.7-0.4l0,0
	c0,0,0.1,0,0.2,0c0.1,0,0.1,0,0.2,0l0,0c0.5,0,0.6,0.2,0.7,0.4C135.2,231.1,135.2,231.6,134.8,232z"/>
<path class="st1" d="M137.7,232c-0.1,0.1-0.2,0.2-0.4,0.3c0,0-0.4,0.4,0.2,0.6c0,0.2-0.1,0.5-0.1,0.7h-0.5h-0.1h-0.5
	c-0.1-0.2-0.1-0.5-0.1-0.7c0.7-0.2,0.2-0.6,0.2-0.6c-0.1-0.1-0.2-0.2-0.4-0.3c-0.4-0.4-0.2-0.8-0.1-1.3c0.1-0.2,0.2-0.3,0.7-0.4l0,0
	c0,0,0.1,0,0.2,0c0.1,0,0.1,0,0.2,0c0.5,0,0.6,0.2,0.7,0.4C137.9,231.1,138,231.6,137.7,232z"/>
<path class="st1" d="M140.5,232c-0.1,0.1-0.2,0.2-0.4,0.3c0,0-0.4,0.4,0.2,0.6c0,0.2-0.1,0.5-0.1,0.7h-0.5h-0.1h-0.5
	c-0.1-0.2-0.1-0.5-0.1-0.7c0.6-0.2,0.2-0.6,0.2-0.6c-0.1-0.1-0.2-0.2-0.4-0.3c-0.4-0.4-0.2-0.8-0.1-1.3c0.1-0.2,0.2-0.3,0.7-0.4l0,0
	c0,0,0.1,0,0.2,0c0.1,0,0.1,0,0.2,0l0,0c0.5,0,0.6,0.2,0.7,0.4C140.8,231.1,140.8,231.6,140.5,232z"/>
<path class="st1" d="M143.3,232c-0.1,0.1-0.2,0.2-0.4,0.3c0,0-0.4,0.4,0.2,0.6c0,0.2-0.1,0.5-0.1,0.7h-0.5h-0.1h-0.5
	c-0.1-0.2-0.1-0.5-0.1-0.7c0.6-0.2,0.2-0.6,0.2-0.6c-0.1-0.1-0.2-0.2-0.4-0.3c-0.4-0.4-0.2-0.8-0.1-1.3c0.1-0.2,0.2-0.3,0.7-0.4l0,0
	c0,0,0.1,0,0.2,0c0.1,0,0.1,0,0.2,0l0,0c0.5,0,0.6,0.2,0.7,0.4C143.5,231.1,143.7,231.6,143.3,232z"/>
<path class="st1" d="M149.6,232c-0.1,0.1-0.2,0.2-0.4,0.3c0,0-0.4,0.4,0.2,0.6c0,0.2-0.1,0.5-0.1,0.7h-0.5h-0.1h-0.5
	c-0.1-0.2-0.1-0.5-0.1-0.7c0.6-0.2,0.2-0.6,0.2-0.6c-0.1-0.1-0.2-0.2-0.4-0.3c-0.2-0.4-0.2-0.8-0.1-1.3c0.1-0.2,0.2-0.3,0.7-0.4l0,0
	c0,0,0.1,0,0.2,0c0.1,0,0.1,0,0.2,0l0,0c0.5,0,0.6,0.2,0.7,0.4C149.9,231.1,149.9,231.6,149.6,232z"/>
<path class="st1" d="M152.4,232c-0.1,0.1-0.2,0.2-0.4,0.3c0,0-0.4,0.4,0.2,0.6c0,0.2-0.1,0.5-0.1,0.7h-0.5h-0.1H151
	c-0.1-0.2-0.1-0.5-0.1-0.7c0.7-0.2,0.2-0.6,0.2-0.6c-0.1-0.1-0.4-0.2-0.4-0.3c-0.4-0.4-0.2-0.8-0.1-1.3c0.1-0.2,0.2-0.3,0.7-0.4l0,0
	c0,0,0.1,0,0.2,0c0.1,0,0.1,0,0.2,0l0,0c0.5,0,0.6,0.2,0.7,0.4C152.6,231.1,152.8,231.6,152.4,232z"/>
<path class="st1" d="M155.2,232c-0.1,0.1-0.2,0.2-0.4,0.3c0,0-0.4,0.4,0.2,0.6c0,0.2-0.1,0.5-0.1,0.7h-0.6h-0.1h-0.5
	c-0.1-0.2-0.1-0.5-0.1-0.7c0.6-0.2,0.2-0.6,0.2-0.6c-0.1-0.1-0.2-0.2-0.4-0.3c-0.2-0.4-0.2-0.8,0-1.3c0.1-0.2,0.2-0.3,0.7-0.4l0,0
	c0,0,0.1,0,0.2,0c0.1,0,0.1,0,0.2,0l0,0c0.5,0,0.6,0.2,0.7,0.4C155.5,231.1,155.5,231.6,155.2,232z"/>
<path class="st1" d="M158,233.6h-0.5h-0.1h-0.5c-0.1-0.2-0.1-0.5-0.1-0.7c0.6-0.2,0.2-0.6,0.2-0.6c-0.1-0.1-0.2-0.2-0.4-0.3
	c-0.2-0.4-0.2-0.8-0.1-1.3c0.1-0.2,0.2-0.3,0.7-0.4c0,0,0.1,0,0.2,0c0.1,0,0.1,0,0.2,0c0.5,0,0.6,0.2,0.7,0.4
	c0.2,0.4,0.2,0.8-0.1,1.3c-0.1,0.1-0.2,0.2-0.4,0.3c0,0-0.4,0.4,0.2,0.6C158.1,233.1,158.1,233.4,158,233.6z"/>
<rect x="158.1" y="280" class="st1" width="18.2" height="13.7"/>
<rect x="158.1" y="248.7" class="st1" width="18.2" height="13.7"/>
<path class="st2" d="M246.1,215.5L246.1,215.5c0-0.1,0.1-0.2,0.4-0.2h0.2l0,0c0-0.1,0.1-0.1,0.2-0.1h0.2c0-0.1,0.1-0.1,0.4-0.1h0.1
	l0,0V215c0,0,0,0,0-0.1c-0.7-0.1-1.4-0.3-1.7-0.6h-9.1v1.4h9.2V215.5z"/>
<path class="st2" d="M161.7,214.9v0.1l0,0h0.1c0.1,0,0.4,0.1,0.4,0.1h0.2c0.1,0,0.2,0.1,0.2,0.1l0,0h0.2c0.2,0,0.4,0.1,0.4,0.1l0,0
	h9.6v-1.4h-9.5C163.1,214.5,162.5,214.8,161.7,214.9C161.7,214.8,161.7,214.9,161.7,214.9z"/>
<path class="st1" d="M163.9,213.6L163.9,213.6L163.9,213.6c0-0.1,0-0.1,0-0.1l0,0c0.2,0,0.4-0.1,0.4-0.2c0-0.1-0.5-0.3-1-0.3
	c-0.1,0-0.2,0-0.4,0c-0.2,0-0.5-0.1-0.7-0.1c0-0.1,0.1-0.3,0.1-0.4c0-0.6-0.4-1.2-0.9-1.2c-0.5,0-0.9,0.5-0.9,1.2
	c0,0.1,0,0.3,0.1,0.4c-0.2,0-0.5,0.1-0.7,0.1c-0.1,0-0.2,0-0.4,0c-0.5,0-1,0.1-1,0.3c0,0.1,0.1,0.2,0.4,0.2l0,0c0,0,0,0,0,0.1l0,0
	l0,0c0,0.2,0.1,0.4,0.4,0.6h4.4C163.6,214.1,163.9,213.8,163.9,213.6z"/>
<path class="st1" d="M250.7,213.6L250.7,213.6L250.7,213.6c0-0.1,0-0.1,0-0.1l0,0c0.2,0,0.4-0.1,0.4-0.2c0-0.1-0.5-0.3-1-0.3
	c-0.1,0-0.2,0-0.4,0c-0.2,0-0.5-0.1-0.7-0.1c0-0.1,0.1-0.3,0.1-0.4c0-0.6-0.4-1.2-0.9-1.2c-0.5,0-0.9,0.5-0.9,1.2c0,0.1,0,0.3,0,0.4
	c-0.2,0-0.5,0.1-0.7,0.1c-0.1,0-0.2,0-0.4,0c-0.5,0-1,0.1-1,0.3c0,0.1,0.1,0.2,0.4,0.2l0,0c0,0,0,0,0,0.1l0,0l0,0
	c0,0.2,0.1,0.4,0.4,0.6h4.4C250.5,214.1,250.7,213.8,250.7,213.6z"/>
<path class="st0" d="M55.7,139.3v32.2H125v-32.2v-0.7c4.7-5.5,7.5-12.2,7.5-19.4c0-13.7-22.5-25.6-34.6-31c2.1-1.7,3.3-4.1,3.3-6.8
	c0-4.5-3.7-8.4-8.7-9.2c2.8-0.7,4.7-3,4.7-5.6c0-2.9-2.5-5.3-5.6-5.9c2-0.5,3.3-2,3.3-3.8c0-2.2-2.1-4-4.6-4c-2.6,0-4.6,1.7-4.6,4
	c0,1.8,1.4,3.3,3.3,3.8c-3.2,0.5-5.6,2.9-5.6,5.9c0,2.6,2,4.8,4.7,5.6c-5,0.9-8.7,4.6-8.7,9.2c0,2.6,1.3,5.1,3.3,6.8
	c-12.1,5.4-34.5,17.2-34.5,31c0,7.2,2.8,13.9,7.5,19.4L55.7,139.3L55.7,139.3z M114.5,139.3c3,0.1,5.3,2.2,5.3,4.6
	c0,2.6-2.5,4.6-5.6,4.6c-3.1,0-5.6-2.1-5.6-4.6c0-2.5,2.4-4.5,5.3-4.6H114.5z M98.4,139.3c3,0.1,5.3,2.2,5.3,4.6
	c0,2.6-2.5,4.6-5.6,4.6c-3.1,0-5.6-2.1-5.6-4.6c0-2.5,2.4-4.5,5.3-4.6H98.4z M82.4,139.3c3,0.1,5.3,2.2,5.3,4.6
	c0,2.6-2.5,4.6-5.6,4.6c-3.1,0-5.6-2.1-5.6-4.6c0-2.5,2.4-4.5,5.3-4.6H82.4z M66.4,139.3c3,0.1,5.3,2.2,5.3,4.6
	c0,2.6-2.5,4.6-5.6,4.6c-3.1,0-5.6-2.1-5.6-4.6c0-2.5,2.4-4.5,5.3-4.6H66.4z"/>
<g>
	<path class="st2" d="M200,265.3c0,0-6,4.3-6.1,9.5l0,0V297h9.7h12v-22.2l0,0c0-5.2-6.1-9.5-6.1-9.5s-2.9,2.1-4.7,5
		c-0.4-0.5-0.7-1.2-1.1-1.6C201.9,266.7,200,265.3,200,265.3z"/>
	<path class="st2" d="M166.8,265.3c0,0-6.1,4.3-6.1,9.5h-0.1V297H173v-22.2l0,0C173,269.6,166.8,265.3,166.8,265.3z"/>
	<path class="st2" d="M129.1,265.3c0,0-6.1,4.3-6.1,9.5l0,0V297h12.3v-22.2l0,0C135.1,269.6,129.1,265.3,129.1,265.3z"/>
	<path class="st2" d="M91.2,265.3c0,0-6.1,4.3-6.1,9.5l0,0V297h12.3v-22.2l0,0C97.3,269.6,91.2,265.3,91.2,265.3z"/>
	<path class="st2" d="M242.6,265.3c0,0-6.1,4.3-6.1,9.5h-0.1V297h12.3v-22.2l0,0C248.6,269.6,242.6,265.3,242.6,265.3z"/>
	<path class="st2" d="M280.4,265.3c0,0-6,4.3-6.1,9.5h-0.1V297h12.3v-22.2l0,0C286.5,269.6,280.4,265.3,280.4,265.3z"/>
	<path class="st2" d="M318.3,265.3c0,0-6.1,4.3-6.1,9.5l0,0V297h12.3v-22.2l0,0C324.3,269.6,318.3,265.3,318.3,265.3z"/>
	<path class="st3" d="M193.9,297v-22.2l0,0c0-5.2,6.1-9.5,6.1-9.5s1.9,1.4,3.6,3.5v-14.5H48.9v3.4v48h105l0,0h24.9l0,0h24.7V297
		L193.9,297L193.9,297z M97.4,297H85.1v-22.2l0,0c0-5.2,6.1-9.5,6.1-9.5s6.1,4.3,6.1,9.5l0,0V297H97.4z M135.2,297h-12.3v-22.2l0,0
		c0-5.2,6.1-9.5,6.1-9.5s6.1,4.3,6.1,9.5l0,0V297H135.2z M173.1,297h-12.3v-22.2h0.1c0-5.2,6.1-9.5,6.1-9.5s6,4.3,6.1,9.5l0,0V297z"
		/>
	<path class="st3" d="M360.1,254.5v-0.2H203.6v14.5c0.4,0.5,0.7,1,1.1,1.6c1.7-3,4.7-5,4.7-5s6.1,4.3,6.1,9.5l0,0V297h-12v8.6h157
		v-51.1H360.1z M248.8,297h-12.3v-22.2h0.1c0-5.2,6.1-9.5,6.1-9.5s6,4.3,6.1,9.5l0,0V297z M286.7,297h-12.3v-22.2h0.1
		c0-5.2,6.1-9.5,6.1-9.5s6.1,4.3,6.1,9.5l0,0V297z M324.4,297h-12.3v-22.2l0,0c0-5.2,6.1-9.5,6.1-9.5s6,4.3,6.1,9.5l0,0V297H324.4z"
		/>
</g>
<path class="st0" d="M152.2,23.3c0.6-0.9,1-2.4,1-3.9c0-2.6-1.1-4.8-2.6-5.3c0.8-0.4,1.4-1.8,1.4-3.2c0-1.7-0.7-3-1.7-3.4
	c0.6-0.3,1-1.2,1-2.2c0-1.3-0.6-2.3-1.4-2.3c-0.1,0-0.2,0.1-0.3,0.1c-0.6,0.2-1.1,1.2-1.1,2.2s0.4,1.9,1,2.2
	c-0.9,0.3-1.7,1.7-1.7,3.4c0,1.5,0.6,2.8,1.4,3.2c-1.5,0.5-2.6,2.7-2.6,5.3c0,1.6,0.4,2.9,1,3.9c-3.6,3.1-10.3,10-10.3,17.8
	c0,4.2,0.8,8,2.2,11.1l0.1,120.3h10h10.6l0.1-120.3c1.4-3.1,2.2-7,2.2-11.1C162.4,33.3,155.8,26.5,152.2,23.3z M142.8,59.9
	c-0.9,0-1.7-1.3-1.7-2.7c0-1.6,0.7-2.7,1.7-2.7s1.7,1.3,1.7,2.7C144.4,58.6,143.6,59.9,142.8,59.9z M147.5,59.9
	c-0.9,0-1.7-1.3-1.7-2.7c0-1.6,0.7-2.7,1.7-2.7s1.7,1.3,1.7,2.7C149.2,58.6,148.4,59.9,147.5,59.9z M152.3,59.9
	c-0.9,0-1.7-1.3-1.7-2.7c0-1.6,0.7-2.7,1.7-2.7c0.9,0,1.7,1.3,1.7,2.7C153.9,58.6,153.2,59.9,152.3,59.9z M157,59.9
	c-0.9,0-1.7-1.3-1.7-2.7c0-1.6,0.7-2.7,1.7-2.7c0.9,0,1.7,1.3,1.7,2.7C158.7,58.6,158,59.9,157,59.9z"/>
<path class="st0" d="M275.4,23.3c0.6-0.9,1-2.4,1-3.9c0-2.6-1.1-4.8-2.6-5.3c0.8-0.4,1.4-1.8,1.4-3.2c0-1.7-0.7-3-1.7-3.4
	c0.6-0.3,1-1.2,1-2.2c0-1.3-0.6-2.3-1.4-2.3c-0.1,0-0.2,0.1-0.3,0.1c-0.6,0.2-1.1,1.2-1.1,2.2s0.4,1.9,1,2.2
	c-0.9,0.3-1.7,1.7-1.7,3.4c0,1.5,0.6,2.8,1.4,3.2c-1.5,0.5-2.6,2.7-2.6,5.3c0,1.6,0.4,2.9,1,3.9c-3.6,3.1-10.3,10-10.3,17.8
	c0,4.2,0.8,8,2.2,11.1l0.1,120.3h10h10.6l0.1-120.3c1.4-3.1,2.2-7,2.2-11.1C285.7,33.3,279,26.5,275.4,23.3z M266,59.9
	c-0.9,0-1.7-1.3-1.7-2.7c0-1.6,0.7-2.7,1.7-2.7c0.9,0,1.7,1.3,1.7,2.7C267.6,58.6,266.9,59.9,266,59.9z M270.7,59.9
	c-0.9,0-1.7-1.3-1.7-2.7c0-1.6,0.7-2.7,1.7-2.7c0.9,0,1.7,1.3,1.7,2.7C272.4,58.6,271.7,59.9,270.7,59.9z M275.5,59.9
	c-0.9,0-1.7-1.3-1.7-2.7c0-1.6,0.7-2.7,1.7-2.7s1.7,1.3,1.7,2.7C277.2,58.6,276.4,59.9,275.5,59.9z M280.3,59.9
	c-0.9,0-1.7-1.3-1.7-2.7c0-1.6,0.7-2.7,1.7-2.7c0.9,0,1.7,1.3,1.7,2.7C282,58.6,281.2,59.9,280.3,59.9z"/>
<g>
	<path class="st0" d="M162.7,153.5c0,1.4,0.6,2.7,1.5,3.8V172h13.9v-14.7c1-1,1.5-2.4,1.5-3.8c0-2.7-4.5-5-6.9-6
		c0.4-0.3,0.7-0.8,0.7-1.3c0-0.9-0.8-1.6-1.7-1.8c0.6-0.2,1-0.6,1-1.1c0-0.6-0.5-1-1.1-1.2c0.4-0.1,0.7-0.4,0.7-0.8
		c0-0.4-0.4-0.8-0.9-0.8c-0.5,0-0.9,0.3-0.9,0.8c0,0.3,0.3,0.6,0.7,0.8c-0.6,0.1-1.1,0.6-1.1,1.2c0,0.5,0.4,0.9,1,1.1
		c-1,0.2-1.7,0.9-1.7,1.8c0,0.5,0.3,1,0.7,1.3C167.2,148.6,162.7,150.9,162.7,153.5z M175.9,158c0.6,0,1.1,0.4,1.1,0.9
		c0,0.5-0.5,0.9-1.1,0.9s-1.1-0.4-1.1-0.9C174.8,158.4,175.3,158,175.9,158z M172.7,158c0.6,0,1.1,0.4,1.1,0.9
		c0,0.5-0.5,0.9-1.1,0.9s-1.1-0.4-1.1-0.9C171.6,158.4,172.1,158,172.7,158z M166.3,159.8c-0.6,0-1.1-0.4-1.1-0.9
		c0-0.5,0.5-0.9,1.1-0.9c0.6,0,1.1,0.4,1.1,0.9S166.9,159.8,166.3,159.8z M170.6,158.9c0,0.5-0.5,0.9-1.1,0.9
		c-0.6,0-1.1-0.4-1.1-0.9c0-0.5,0.5-0.9,1.1-0.9C170.1,158,170.6,158.4,170.6,158.9z"/>
	<path class="st0" d="M179.7,153.5c0,1.4,0.6,2.7,1.5,3.8V172H195v-14.7c1-1,1.5-2.4,1.5-3.8c0-2.7-4.5-5-6.9-6
		c0.4-0.3,0.7-0.8,0.7-1.3c0-0.9-0.8-1.6-1.7-1.8c0.6-0.2,1-0.6,1-1.1c0-0.6-0.5-1-1.1-1.2c0.4-0.1,0.7-0.4,0.7-0.8
		c0-0.4-0.4-0.8-0.9-0.8c-0.5,0-0.9,0.3-0.9,0.8c0,0.3,0.3,0.6,0.7,0.8c-0.6,0.1-1.1,0.6-1.1,1.2c0,0.5,0.4,0.9,1,1.1
		c-1,0.2-1.7,0.9-1.7,1.8c0,0.5,0.3,1,0.7,1.3C184.1,148.6,179.7,150.9,179.7,153.5z M192.8,158c0.6,0,1.1,0.4,1.1,0.9
		c0,0.5-0.5,0.9-1.1,0.9s-1.1-0.4-1.1-0.9C191.7,158.4,192.2,158,192.8,158z M189.7,158c0.6,0,1.1,0.4,1.1,0.9
		c0,0.5-0.5,0.9-1.1,0.9c-0.6,0-1.1-0.4-1.1-0.9C188.5,158.4,189,158,189.7,158z M183.2,159.8c-0.6,0-1.1-0.4-1.1-0.9
		c0-0.5,0.5-0.9,1.1-0.9c0.6,0,1.1,0.4,1.1,0.9S183.8,159.8,183.2,159.8z M187.5,158.9c0,0.5-0.5,0.9-1.1,0.9s-1.1-0.4-1.1-0.9
		c0-0.5,0.5-0.9,1.1-0.9C187,158,187.5,158.4,187.5,158.9z"/>
	<path class="st0" d="M195.1,153.6c0,1.3,0.5,2.6,1.5,3.6v14h13.3v-14c0.9-1,1.5-2.3,1.5-3.6c0-2.6-4.3-4.8-6.6-5.8
		c0.4-0.3,0.7-0.8,0.7-1.3c0-0.8-0.7-1.6-1.7-1.7c0.5-0.2,0.9-0.6,0.9-1.1c0-0.6-0.5-1-1.1-1.1c0.4-0.1,0.7-0.4,0.7-0.7
		c0-0.4-0.4-0.7-0.9-0.7s-0.9,0.3-0.9,0.7c0,0.3,0.3,0.6,0.7,0.7c-0.6,0.1-1.1,0.6-1.1,1.1c0,0.5,0.4,0.9,0.9,1.1
		c-0.9,0.2-1.7,0.9-1.7,1.7c0,0.5,0.3,0.9,0.7,1.3C199.4,148.9,195.1,151.1,195.1,153.6z M207.7,157.9c0.6,0,1.1,0.4,1.1,0.9
		c0,0.5-0.5,0.9-1.1,0.9s-1.1-0.4-1.1-0.9C206.7,158.3,207.1,157.9,207.7,157.9z M204.7,157.9c0.6,0,1.1,0.4,1.1,0.9
		c0,0.5-0.5,0.9-1.1,0.9s-1.1-0.4-1.1-0.9C203.6,158.3,204.1,157.9,204.7,157.9z M198.5,159.7c-0.6,0-1.1-0.4-1.1-0.9
		c0-0.5,0.5-0.9,1.1-0.9s1.1,0.4,1.1,0.9C199.6,159.3,199.1,159.7,198.5,159.7z M202.6,158.8c0,0.5-0.5,0.9-1.1,0.9
		c-0.6,0-1.1-0.4-1.1-0.9c0-0.5,0.5-0.9,1.1-0.9C202.2,157.9,202.6,158.3,202.6,158.8z"/>
	<path class="st0" d="M211.3,153.6c0,1.3,0.5,2.6,1.5,3.6v14H226v-14c0.9-1,1.5-2.3,1.5-3.6c0-2.6-4.3-4.8-6.6-5.8
		c0.4-0.3,0.7-0.8,0.7-1.3c0-0.8-0.7-1.6-1.7-1.7c0.5-0.2,0.9-0.6,0.9-1.1c0-0.6-0.5-1-1.1-1.1c0.4-0.1,0.7-0.4,0.7-0.7
		c0-0.4-0.4-0.7-0.9-0.7c-0.5,0-0.9,0.3-0.9,0.7c0,0.3,0.3,0.6,0.7,0.7c-0.6,0.1-1.1,0.6-1.1,1.1c0,0.5,0.4,0.9,0.9,1.1
		c-0.9,0.2-1.7,0.9-1.7,1.7c0,0.5,0.3,0.9,0.7,1.3C215.6,148.9,211.3,151.1,211.3,153.6z M223.9,157.9c0.6,0,1.1,0.4,1.1,0.9
		c0,0.5-0.5,0.9-1.1,0.9s-1.1-0.4-1.1-0.9C222.8,158.3,223.3,157.9,223.9,157.9z M220.9,157.9c0.6,0,1.1,0.4,1.1,0.9
		c0,0.5-0.5,0.9-1.1,0.9s-1.1-0.4-1.1-0.9C219.7,158.3,220.3,157.9,220.9,157.9z M214.7,159.7c-0.6,0-1.1-0.4-1.1-0.9
		c0-0.5,0.5-0.9,1.1-0.9s1.1,0.4,1.1,0.9C215.8,159.3,215.2,159.7,214.7,159.7z M218.8,158.8c0,0.5-0.5,0.9-1.1,0.9
		s-1.1-0.4-1.1-0.9c0-0.5,0.5-0.9,1.1-0.9C218.4,157.9,218.8,158.3,218.8,158.8z"/>
	<path class="st0" d="M227.5,153.6c0,1.3,0.5,2.6,1.5,3.6v14h13.3v-14c0.9-1,1.5-2.3,1.5-3.6c0-2.6-4.3-4.8-6.6-5.8
		c0.4-0.3,0.7-0.8,0.7-1.3c0-0.8-0.7-1.6-1.7-1.7c0.5-0.2,0.9-0.6,0.9-1.1c0-0.6-0.5-1-1.1-1.1c0.4-0.1,0.7-0.4,0.7-0.7
		c0-0.4-0.4-0.7-0.9-0.7c-0.5,0-0.9,0.3-0.9,0.7c0,0.3,0.3,0.6,0.7,0.7c-0.6,0.1-1.1,0.6-1.1,1.1c0,0.5,0.4,0.9,0.9,1.1
		c-0.9,0.2-1.7,0.9-1.7,1.7c0,0.5,0.3,0.9,0.7,1.3C231.8,148.9,227.5,151.1,227.5,153.6z M240.1,157.9c0.6,0,1.1,0.4,1.1,0.9
		c0,0.5-0.5,0.9-1.1,0.9c-0.6,0-1.1-0.4-1.1-0.9C239,158.3,239.5,157.9,240.1,157.9z M237,157.9c0.6,0,1.1,0.4,1.1,0.9
		c0,0.5-0.5,0.9-1.1,0.9s-1.1-0.4-1.1-0.9C235.9,158.3,236.4,157.9,237,157.9z M230.9,159.7c-0.6,0-1.1-0.4-1.1-0.9
		c0-0.5,0.5-0.9,1.1-0.9s1.1,0.4,1.1,0.9C232,159.3,231.4,159.7,230.9,159.7z M235,158.8c0,0.5-0.5,0.9-1.1,0.9s-1.1-0.4-1.1-0.9
		c0-0.5,0.5-0.9,1.1-0.9C234.5,157.9,235,158.3,235,158.8z"/>
	<path class="st0" d="M243.6,153.6c0,1.3,0.5,2.6,1.5,3.6v14h13.3v-14c0.9-1,1.5-2.3,1.5-3.6c0-2.6-4.3-4.8-6.6-5.8
		c0.4-0.3,0.7-0.8,0.7-1.3c0-0.8-0.7-1.6-1.7-1.7c0.5-0.2,0.9-0.6,0.9-1.1c0-0.6-0.5-1-1.1-1.1c0.4-0.1,0.7-0.4,0.7-0.7
		c0-0.4-0.4-0.7-0.9-0.7c-0.5,0-0.9,0.3-0.9,0.7c0,0.3,0.3,0.6,0.7,0.7c-0.6,0.1-1.1,0.6-1.1,1.1c0,0.5,0.4,0.9,0.9,1.1
		c-0.9,0.2-1.7,0.9-1.7,1.7c0,0.5,0.3,0.9,0.7,1.3C247.9,148.9,243.6,151.1,243.6,153.6z M256.3,157.9c0.6,0,1.1,0.4,1.1,0.9
		c0,0.5-0.5,0.9-1.1,0.9c-0.6,0-1.1-0.4-1.1-0.9C255.2,158.3,255.7,157.9,256.3,157.9z M253.2,157.9c0.6,0,1.1,0.4,1.1,0.9
		c0,0.5-0.5,0.9-1.1,0.9s-1.1-0.4-1.1-0.9C252.1,158.3,252.6,157.9,253.2,157.9z M247.1,159.7c-0.6,0-1.1-0.4-1.1-0.9
		c0-0.5,0.5-0.9,1.1-0.9s1.1,0.4,1.1,0.9C248.1,159.3,247.6,159.7,247.1,159.7z M251.2,158.8c0,0.5-0.5,0.9-1.1,0.9
		s-1.1-0.4-1.1-0.9c0-0.5,0.5-0.9,1.1-0.9C250.7,157.9,251.2,158.3,251.2,158.8z"/>
</g>
<rect x="164.3" y="136.5" class="st4" width="94.5" height="3.8"/>
<rect x="165.3" y="105.6" class="st4" width="94.5" height="1.9"/>
<g>
	<path class="st5" d="M546.2,124.7H524v3h2.8c0.4-0.6,1.1-0.9,1.7-0.9s1.3,0.4,1.7,0.9h2.9c0.5-0.6,1.1-0.9,1.9-0.9
		c0.7,0,1.4,0.4,1.9,0.9h2.9c0.4-0.6,1.1-0.9,1.7-0.9c0.7,0,1.3,0.4,1.7,0.9h2.8V124.7z"/>
	<path class="st6" d="M550.1,123.5v2h-30v-2h3.1c-0.2-0.6-0.3-1.2-0.4-1.8c-0.1-0.5-0.1-0.9,0-1.4v-0.2c0.1-1.2,0.4-2.3,0.9-3.4
		c1.3-2.7,3.9-5.3,7-6.7c-0.1-0.2-0.2-0.5-0.2-0.7c0-0.2,0-0.3,0-0.5c0-0.4,0.2-0.7,0.4-1c0.5-0.9,1.6-1.7,3-2.1
		c0-0.1-0.1-0.2-0.1-0.4c0-0.7,0.5-1.2,1.1-1.3v-4.6c-0.4-0.1-0.7-0.5-0.7-1c0-0.6,0.5-1,1-1c0.6,0,1,0.5,1,1c0,0.5-0.3,0.8-0.7,1
		v4.6c0.6,0.1,1.1,0.7,1.1,1.3c0,0.1-0.1,0.2-0.1,0.4c1.3,0.4,2.4,1.2,3,2.1c0.2,0.3,0.3,0.6,0.3,1c0,0.1,0,0.3,0,0.5
		c0,0.2-0.1,0.5-0.2,0.7c3.1,1.4,5.7,4.1,7,6.7c0.5,1.1,0.8,2.2,0.9,3.4c0,0.2,0,0.3,0,0.5c0,0.4,0,0.7,0,1.1
		c-0.1,0.6-0.2,1.2-0.4,1.8H550.1z"/>
	<polygon class="st6" points="547,246.7 523.1,246.7 524.3,215.2 524.5,209.4 525.6,180.5 525.8,174.6 526.9,144.6 527.1,138.8 
		527.1,138 543.4,138 543.4,138.8 543.6,144.6 544.6,174.6 544.8,180.5 545.8,209.4 545.9,215.2 	"/>
	<rect x="521.2" y="137.3" class="st6" width="27.8" height="2.7"/>
	<rect x="521.2" y="172.6" class="st6" width="27.8" height="2.7"/>
	<rect x="521.2" y="207.9" class="st6" width="27.8" height="2.7"/>
	<path class="st6" d="M936.3,123.5v2h-30v-2h3.1c-0.2-0.6-0.3-1.2-0.4-1.8c-0.1-0.5-0.1-0.9,0-1.4v-0.2c0.1-1.2,0.4-2.3,0.9-3.4
		c1.3-2.7,3.9-5.3,7-6.7c-0.1-0.2-0.2-0.5-0.2-0.7c0-0.2,0-0.3,0-0.5c0-0.4,0.2-0.7,0.4-1c0.5-0.9,1.6-1.7,3-2.1
		c0-0.1-0.1-0.2-0.1-0.4c0-0.7,0.5-1.2,1.1-1.3v-4.6c-0.4-0.1-0.7-0.5-0.7-1c0-0.6,0.5-1,1-1c0.6,0,1,0.5,1,1c0,0.5-0.3,0.8-0.7,1
		v4.6c0.6,0.1,1.1,0.7,1.1,1.3c0,0.1-0.1,0.2-0.1,0.4c1.3,0.4,2.4,1.2,3,2.1c0.2,0.3,0.3,0.6,0.3,1c0,0.1,0,0.3,0,0.5
		c0,0.2-0.1,0.5-0.2,0.7c3.1,1.4,5.7,4.1,7,6.7c0.5,1.1,0.8,2.2,0.9,3.4c0,0.2,0,0.3,0,0.5c0,0.4,0,0.7,0,1.1
		c-0.1,0.6-0.2,1.2-0.4,1.8H936.3z"/>
	<polygon class="st6" points="933.2,246.7 909.4,246.7 910.5,215.2 910.7,209.4 911.8,180.5 912,174.6 913.1,144.6 913.3,138.8 
		913.3,138 929.6,138 929.6,138.8 929.8,144.6 930.8,174.6 931,180.5 932,209.4 932.1,215.2 	"/>
	<rect x="907.4" y="137.3" class="st6" width="27.8" height="2.7"/>
	<rect x="907.4" y="172.6" class="st6" width="27.8" height="2.7"/>
	<rect x="907.4" y="207.9" class="st6" width="27.8" height="2.7"/>
	<path class="st6" d="M470.8,100.4v2.4h-35.7v-2.4h3.7c-0.2-0.7-0.4-1.4-0.5-2.1c-0.1-0.5-0.1-1.1,0-1.6v-0.2c0.1-1.4,0.5-2.7,1.1-4
		c1.5-3.2,4.6-6.3,8.3-8c-0.1-0.3-0.2-0.5-0.3-0.8c0-0.2,0-0.4,0-0.5c0-0.4,0.2-0.8,0.4-1.2c0.6-1,2-2.1,3.5-2.5
		c0-0.1-0.1-0.3-0.1-0.4c0-0.8,0.5-1.4,1.3-1.6v-5.5c-0.5-0.1-0.9-0.6-0.9-1.2c0-0.7,0.6-1.2,1.2-1.2c0.7,0,1.2,0.5,1.2,1.2
		c0,0.5-0.4,1-0.9,1.2v5.5c0.7,0.2,1.3,0.8,1.3,1.6c0,0.1-0.1,0.3-0.1,0.4c1.6,0.4,2.9,1.5,3.5,2.5c0.2,0.4,0.4,0.8,0.4,1.2
		c0,0.2,0,0.4,0,0.5c0,0.3-0.1,0.5-0.3,0.8c3.7,1.7,6.8,4.8,8.3,8c0.6,1.3,1,2.6,1.1,4c0,0.2,0,0.4,0,0.6c0,0.4,0,0.9,0,1.3
		c-0.1,0.7-0.2,1.4-0.5,2.1H470.8z"/>
	<polygon class="st6" points="467.1,246.7 438.8,246.7 440.1,209.3 440.4,202.4 441.7,168.1 441.9,161.1 443.2,125.5 443.4,118.6 
		443.5,117.6 462.8,117.6 462.8,118.6 463.1,125.5 464.3,161.1 464.5,168.1 465.6,202.4 465.8,209.3 	"/>
	<rect x="436.4" y="116.8" class="st6" width="33.1" height="3.2"/>
	<rect x="436.4" y="158.7" class="st6" width="33.1" height="3.2"/>
	<rect x="436.4" y="200.7" class="st6" width="33.1" height="3.2"/>
	<path class="st6" d="M1021.3,100.4v2.4h-35.7v-2.4h3.7c-0.2-0.7-0.4-1.4-0.5-2.1c-0.1-0.5-0.1-1.1,0-1.6v-0.2
		c0.1-1.4,0.5-2.7,1.1-4c1.5-3.2,4.6-6.3,8.3-8c-0.1-0.3-0.2-0.5-0.3-0.8c0-0.2,0-0.4,0-0.5c0-0.4,0.2-0.8,0.4-1.2
		c0.6-1,2-2.1,3.5-2.5c0-0.1-0.1-0.3-0.1-0.4c0-0.8,0.5-1.4,1.3-1.6v-5.5c-0.5-0.1-0.9-0.6-0.9-1.2c0-0.7,0.6-1.2,1.2-1.2
		c0.7,0,1.2,0.5,1.2,1.2c0,0.5-0.4,1-0.9,1.2v5.5c0.7,0.2,1.3,0.8,1.3,1.6c0,0.1-0.1,0.3-0.1,0.4c1.6,0.4,2.9,1.5,3.5,2.5
		c0.2,0.4,0.4,0.8,0.4,1.2c0,0.2,0,0.4,0,0.5c0,0.3-0.1,0.5-0.3,0.8c3.7,1.7,6.8,4.8,8.3,8c0.6,1.3,1,2.6,1.1,4c0,0.2,0,0.4,0,0.6
		c0,0.4,0,0.9,0,1.3c-0.1,0.7-0.2,1.4-0.5,2.1H1021.3z"/>
	<polygon class="st6" points="1017.6,246.7 989.3,246.7 990.6,209.3 990.9,202.4 992.2,168.1 992.4,161.1 993.7,125.5 993.9,118.6 
		994,117.6 1013.3,117.6 1013.3,118.6 1013.6,125.5 1014.8,161.1 1015,168.1 1016.1,202.4 1016.3,209.3 	"/>
	<rect x="986.9" y="116.8" class="st6" width="33.1" height="3.2"/>
	<rect x="986.9" y="158.7" class="st6" width="33.1" height="3.2"/>
	<rect x="986.9" y="200.7" class="st6" width="33.1" height="3.2"/>
	<rect x="581.2" y="155.4" class="st6" width="39.9" height="88.8"/>
	<path class="st6" d="M588.8,139.3c0-1.7-1.4-3.1-3.1-3.1s-3.1,1.4-3.1,3.1c0,1.1,0.6,2.1,1.5,2.6v14.6h3.2V142
		C588.2,141.4,588.8,140.5,588.8,139.3z"/>
	<path class="st6" d="M596,143.9c0-1.3-1-2.3-2.3-2.3s-2.3,1-2.3,2.3c0,0.8,0.5,1.5,1.1,1.9v10.7h2.4v-10.7
		C595.6,145.4,596,144.7,596,143.9z"/>
	<path class="st6" d="M675.3,127.4v3.6h-54.2v-3.6h5.7c-0.4-1-0.6-2.1-0.7-3.2c-0.1-0.8-0.1-1.7,0-2.5v-0.4c0.2-2.1,0.7-4.1,1.7-6.1
		c2.3-4.8,7-9.6,12.6-12.1c-0.2-0.4-0.4-0.8-0.4-1.2c0-0.3-0.1-0.6,0-0.8c0.1-0.6,0.3-1.2,0.6-1.8c0.9-1.6,3-3.1,5.3-3.8
		c-0.1-0.2-0.1-0.4-0.1-0.7c0-1.2,0.8-2.2,1.9-2.4v-8.3c-0.8-0.2-1.3-0.9-1.3-1.8c0-1.1,0.9-1.9,1.9-1.9c1.1,0,1.9,0.8,1.9,1.9
		c0,0.8-0.6,1.5-1.3,1.8v8.3c1.1,0.3,2,1.2,2,2.4c0,0.2-0.1,0.4-0.2,0.7c2.4,0.7,4.4,2.2,5.4,3.8c0.3,0.6,0.5,1.1,0.6,1.8
		c0,0.3,0,0.5,0,0.8c-0.1,0.4-0.2,0.8-0.4,1.2c5.6,2.6,10.3,7.3,12.6,12.1c0.9,1.9,1.5,4,1.6,6.1c0,0.3,0,0.6,0,0.9
		c0.1,0.6,0,1.3,0,2c-0.1,1.1-0.4,2.2-0.7,3.2H675.3z"/>
	<rect x="618.1" y="152.3" class="st6" width="59.1" height="91.8"/>
	<path class="st7" d="M647.6,169.8c-0.5,0-0.9,0.1-1.4,0.1c5.1,0.7,9,5,9,10.3v18.1h2.8v-18.1C658.1,174.5,653.4,169.8,647.6,169.8z
		"/>
	<path class="st7" d="M647.6,210.7c-0.5,0-0.9,0.1-1.4,0.1c5.1,0.7,9,5,9,10.3v18.1h2.8v-18.1C658.1,215.4,653.4,210.7,647.6,210.7z
		"/>
	<rect x="835.4" y="155.4" class="st6" width="39.9" height="88.8"/>
	<path class="st6" d="M867.6,139.3c0-1.7,1.4-3.1,3.1-3.1s3.1,1.4,3.1,3.1c0,1.1-0.6,2.1-1.5,2.6v14.6h-3.2V142
		C868.2,141.4,867.6,140.5,867.6,139.3z"/>
	<path class="st6" d="M860.4,143.9c0-1.3,1-2.3,2.3-2.3s2.3,1,2.3,2.3c0,0.8-0.5,1.5-1.1,1.9v10.7h-2.4v-10.7
		C860.8,145.4,860.4,144.7,860.4,143.9z"/>
	<path class="st8" d="M788.3,129.6h39.9v5.4h-5c-0.8-1-1.9-1.6-3.1-1.6c-1.2,0-2.3,0.6-3.1,1.6h-5.3c-0.9-1-2-1.6-3.4-1.6
		c-1.3,0-2.5,0.6-3.4,1.6h-5.3c-0.8-1-1.9-1.6-3.1-1.6c-1.2,0-2.3,0.6-3.1,1.6h-5V129.6z"/>
	<path class="st6" d="M781.2,127.4v3.6h54.2v-3.6h-5.7c0.4-1,0.6-2.1,0.7-3.2c0.1-0.8,0.1-1.7,0-2.5v-0.4c-0.2-2.1-0.7-4.1-1.7-6.1
		c-2.3-4.8-7-9.6-12.6-12.1c0.2-0.4,0.4-0.8,0.4-1.2c0-0.3,0.1-0.6,0-0.8c-0.1-0.6-0.3-1.2-0.6-1.8c-0.9-1.6-3-3.1-5.3-3.8
		c0.1-0.2,0.1-0.4,0.1-0.7c0-1.2-0.8-2.2-1.9-2.4v-8.3c0.8-0.2,1.3-0.9,1.3-1.8c0-1.1-0.9-1.9-1.9-1.9c-1.1,0-1.9,0.8-1.9,1.9
		c0,0.8,0.6,1.5,1.3,1.8v8.3c-1.1,0.3-2,1.2-2,2.4c0,0.2,0.1,0.4,0.2,0.7c-2.4,0.7-4.4,2.2-5.4,3.8c-0.3,0.6-0.5,1.1-0.6,1.8
		c0,0.3,0,0.5,0,0.8c0.1,0.4,0.2,0.8,0.4,1.2c-5.6,2.6-10.3,7.3-12.6,12.1c-0.9,1.9-1.5,4-1.6,6.1c0,0.3,0,0.6,0,0.9
		c-0.1,0.6,0,1.3,0,2c0.1,1.1,0.4,2.2,0.7,3.2H781.2z"/>
	
		<rect x="779.2" y="152.3" transform="matrix(-1 -1.224647e-16 1.224647e-16 -1 1617.5587 396.446)" class="st6" width="59.1" height="91.8"/>
	<path class="st7" d="M808.8,169.8c0.5,0,0.9,0.1,1.4,0.1c-5.1,0.7-9,5-9,10.3v18.1h-2.8v-18.1C798.4,174.5,803,169.8,808.8,169.8z"
		/>
	<path class="st7" d="M808.8,210.7c0.5,0,0.9,0.1,1.4,0.1c-5.1,0.7-9,5-9,10.3v18.1h-2.8v-18.1C798.4,215.4,803,210.7,808.8,210.7z"
		/>
	<rect x="674.9" y="134.4" class="st6" width="106.6" height="109.8"/>
	<path class="st6" d="M776.5,108.1c-0.6,4.7-2,9.6-4.7,13.7c-0.1,0.3-0.3,0.5-0.4,0.7H685c-0.1-0.2-0.3-0.4-0.4-0.7
		c-2.7-4.1-4.1-9-4.7-13.7c-0.6-4.1-0.6-8-0.4-11.2c0.1-3.8,0.6-6.3,0.6-6.3c0-10.5,10.3-22.7,21.2-33c1.2-1,2.4-2.1,3.5-3.1
		c11.3-9.8,22.3-17,23.3-17.7v-0.1h0.1v0.1c1,0.7,12,7.9,23.3,17.7c1.1,1,2.3,2.1,3.5,3.1c11,10.3,21.2,22.5,21.2,33
		c0,0,0.4,2.5,0.6,6.3C777.1,100,777.1,103.9,776.5,108.1z"/>
	<rect x="727.4" y="-1.4" class="st4" width="1.5" height="42.4"/>
	<rect x="435.1" y="244.2" class="st6" width="586.1" height="48.4"/>
	<g>
		<g>
			<rect x="608.9" y="155.4" class="st9" width="12.2" height="88.8"/>
			<g>
				<path class="st9" d="M628.2,129v25.3h39.9V129H628.2z M640.7,148.1h-8.8v-9.4c0-3,2-5.4,4.4-5.4c2.4,0,4.4,2.4,4.4,5.4V148.1z
					 M652.9,148.1h-9.5v-9.4c0-3,2.1-5.4,4.7-5.4s4.7,2.4,4.7,5.4V148.1z M664.4,148.1h-8.8v-9.4c0-3,2-5.4,4.4-5.4s4.4,2.4,4.4,5.4
					V148.1z"/>
				<path class="st9" d="M668.1,129.6h-39.9v5.4h5c0.8-1,1.9-1.6,3.1-1.6c1.2,0,2.3,0.6,3.1,1.6h5.3c0.9-1,2-1.6,3.4-1.6
					s2.5,0.6,3.4,1.6h5.3c0.8-1,1.9-1.6,3.1-1.6s2.3,0.6,3.1,1.6h5V129.6z"/>
			</g>
			<path class="st9" d="M816.2,103c-2.5-1.2-5.2-1.9-7.9-1.9v0c0,0,0,0,0,0c0,0,0,0,0,0v0c-2.8,0-5.4,0.8-7.9,1.9
				c-0.2-0.3-0.3-0.7-0.3-1.1c0-0.3,0-0.6,0-0.8c0-0.1,0-0.1,0-0.2c2.6-1.2,5.4-2,8.2-2.1v0c0,0,0,0,0,0c0,0,0,0,0,0v0
				c2.9,0,5.6,0.8,8.2,2.1c0,0.1,0,0.1,0,0.2c0,0.3,0,0.6,0,0.8C816.5,102.3,816.4,102.6,816.2,103z"/>
			<path class="st9" d="M786.1,122.2c-0.1,0.6,0,1.3,0,2c0.1,1.1,0.4,2.2,0.7,3.2h42.9c0.4-1,0.6-2.1,0.7-3.2c0.1-0.8,0.1-1.7,0-2.5
				C815.5,127.2,800.7,127.5,786.1,122.2z"/>
			<g>
				<path class="st9" d="M850.5,239.4v-17.5c0-5.6,3.1-10.1,7-10.1l0,0c3.9,0,7,4.5,7,10.1v17.5H850.5z"/>
				<g>
					
						<rect x="868.9" y="203.1" transform="matrix(-1 -1.224647e-16 1.224647e-16 -1 1741.8345 411.898)" class="st9" width="4" height="5.8"/>
					
						<rect x="862.7" y="203.1" transform="matrix(-1 -1.224647e-16 1.224647e-16 -1 1729.323 411.898)" class="st9" width="4" height="5.8"/>
					
						<rect x="856.4" y="203.1" transform="matrix(-1 -1.224647e-16 1.224647e-16 -1 1716.8102 411.898)" class="st9" width="4" height="5.8"/>
					
						<rect x="850.1" y="203.1" transform="matrix(-1 -1.224647e-16 1.224647e-16 -1 1704.2987 411.898)" class="st9" width="4" height="5.8"/>
					
						<rect x="843.9" y="203.1" transform="matrix(-1 -1.224647e-16 1.224647e-16 -1 1691.786 411.898)" class="st9" width="4" height="5.8"/>
					
						<rect x="837.6" y="203.1" transform="matrix(-1 -1.224647e-16 1.224647e-16 -1 1679.2745 411.898)" class="st9" width="4" height="5.8"/>
				</g>
				<g>
					
						<rect x="829" y="201.7" transform="matrix(-1 -1.224647e-16 1.224647e-16 -1 1663.9487 409.294)" class="st9" width="6" height="6"/>
					
						<rect x="819.7" y="201.7" transform="matrix(-1 -1.224647e-16 1.224647e-16 -1 1645.3932 409.294)" class="st9" width="6" height="6"/>
					
						<rect x="810.4" y="201.7" transform="matrix(-1 -1.224647e-16 1.224647e-16 -1 1626.8364 409.294)" class="st9" width="6" height="6"/>
					
						<rect x="801.2" y="201.7" transform="matrix(-1 -1.224647e-16 1.224647e-16 -1 1608.2809 409.294)" class="st9" width="6" height="6"/>
					
						<rect x="791.9" y="201.7" transform="matrix(-1 -1.224647e-16 1.224647e-16 -1 1589.7253 409.294)" class="st9" width="6" height="6"/>
					
						<rect x="782.6" y="201.7" transform="matrix(-1 -1.224647e-16 1.224647e-16 -1 1571.1692 409.294)" class="st9" width="6" height="6"/>
				</g>
			</g>
			<g>
				<path class="st9" d="M524,124.3v14h22.1v-14H524z M531,134.9h-4.9v-5.2c0-1.7,1.1-3,2.4-3c1.3,0,2.4,1.3,2.4,3V134.9z
					 M537.7,134.9h-5.2v-5.2c0-1.7,1.2-3,2.6-3c1.4,0,2.6,1.3,2.6,3V134.9z M544.1,134.9h-4.9v-5.2c0-1.7,1.1-3,2.4-3
					c1.3,0,2.4,1.3,2.4,3V134.9z"/>
				<circle class="st9" cx="728.2" cy="0.6" r="2.6"/>
			</g>
		</g>
		<g>
			<path class="st9" d="M916.9,109.9c1.4-0.6,2.9-1.1,4.4-1.1v0c0,0,0,0,0,0s0,0,0,0v0c1.5,0,3,0.4,4.4,1.1c0.1-0.2,0.2-0.4,0.2-0.6
				c0-0.2,0-0.3,0-0.5c0,0,0-0.1,0-0.1c-1.4-0.7-3-1.1-4.6-1.1v0c0,0,0,0,0,0c0,0,0,0,0,0v0c-1.6,0-3.1,0.5-4.6,1.1c0,0,0,0.1,0,0.1
				c0,0.2,0,0.3,0,0.5C916.7,109.5,916.8,109.7,916.9,109.9z"/>
			<path class="st9" d="M998.2,84.3c1.6-0.8,3.4-1.3,5.2-1.3v0c0,0,0,0,0,0c0,0,0,0,0,0v0c1.8,0,3.6,0.5,5.2,1.3
				c0.1-0.2,0.2-0.5,0.2-0.7c0-0.2,0-0.4,0-0.5c0,0,0-0.1,0-0.1c-1.7-0.8-3.5-1.3-5.4-1.4v0c0,0,0,0,0,0c0,0,0,0,0,0v0
				c-1.9,0-3.7,0.5-5.4,1.4c0,0,0,0.1,0,0.1c0,0.2,0,0.4,0,0.5C998,83.8,998.1,84.1,998.2,84.3z"/>
			<g>
				<path class="st9" d="M439.8,101.4v16.7h26.3v-16.7H439.8z M448.1,114h-5.8v-6.2c0-2,1.3-3.6,2.9-3.6c1.6,0,2.9,1.6,2.9,3.6V114z
					 M456.1,114h-6.2v-6.2c0-2,1.4-3.6,3.1-3.6c1.7,0,3.1,1.6,3.1,3.6V114z M463.6,114h-5.8v-6.2c0-2,1.3-3.6,2.9-3.6
					c1.6,0,2.9,1.6,2.9,3.6V114z"/>
				<g>
					<path class="st9" d="M933.6,120.6c0,0.4,0,0.7,0,1.1c-0.1,0.6-0.2,1.2-0.4,1.8h-23.8c-0.2-0.6-0.3-1.2-0.4-1.8
						c-0.1-0.5-0.1-0.9,0-1.4C917.3,123.3,925.5,123.5,933.6,120.6z"/>
					<g>
						<path class="st9" d="M910.3,124.3v14h22.1v-14H910.3z M917.2,134.9h-4.9v-5.2c0-1.7,1.1-3,2.4-3c1.3,0,2.4,1.3,2.4,3V134.9z
							 M923.9,134.9h-5.2v-5.2c0-1.7,1.2-3,2.6-3c1.4,0,2.6,1.3,2.6,3V134.9z M930.3,134.9h-4.9v-5.2c0-1.7,1.1-3,2.4-3
							c1.3,0,2.4,1.3,2.4,3V134.9z"/>
						<path class="st9" d="M990.3,101.4v16.7h26.3v-16.7H990.3z M998.6,114h-5.8v-6.2c0-2,1.3-3.6,2.9-3.6c1.6,0,2.9,1.6,2.9,3.6
							V114z M1006.6,114h-6.2v-6.2c0-2,1.4-3.6,3.1-3.6c1.7,0,3.1,1.6,3.1,3.6V114z M1014.1,114h-5.8v-6.2c0-2,1.3-3.6,2.9-3.6
							c1.6,0,2.9,1.6,2.9,3.6V114z"/>
						<path class="st9" d="M1018.1,97c0,0.4,0,0.9,0,1.3c-0.1,0.7-0.2,1.4-0.5,2.1h-28.2c-0.2-0.7-0.4-1.4-0.5-2.1
							c-0.1-0.5-0.1-1.1,0-1.6C998.7,100.2,1008.4,100.4,1018.1,97z"/>
						<g>
							<path class="st9" d="M729.3,161.3v-7.2h29.8v30.3h-1.9C754.1,171.7,742.9,162.1,729.3,161.3z"/>
							<g>
								<g>
									<path class="st9" d="M530.7,109.9c1.4-0.6,2.9-1.1,4.4-1.1v0c0,0,0,0,0,0s0,0,0,0v0c1.5,0,3,0.4,4.4,1.1
										c0.1-0.2,0.2-0.4,0.2-0.6c0-0.2,0-0.3,0-0.5c0,0,0-0.1,0-0.1c-1.4-0.7-3-1.1-4.6-1.1v0c0,0,0,0,0,0c0,0,0,0,0,0v0
										c-1.6,0-3.1,0.5-4.6,1.1c0,0,0,0.1,0,0.1c0,0.2,0,0.3,0,0.5C530.5,109.5,530.6,109.7,530.7,109.9z"/>
									<path class="st9" d="M547.4,120.6c0,0.4,0,0.7,0,1.1c-0.1,0.6-0.2,1.2-0.4,1.8h-23.8c-0.2-0.6-0.3-1.2-0.4-1.8
										c-0.1-0.5-0.1-0.9,0-1.4C531.1,123.3,539.3,123.5,547.4,120.6z"/>
									<polygon class="st9" points="543.6,144.6 526.9,144.6 527.1,138.8 543.4,138.8 									"/>
									<polygon class="st9" points="544.8,180.5 525.6,180.5 525.8,174.6 544.6,174.6 									"/>
									<polygon class="st9" points="545.9,215.2 524.3,215.2 524.5,209.4 545.8,209.4 									"/>
									<polygon class="st9" points="929.8,144.6 913.1,144.6 913.3,138.8 929.6,138.8 									"/>
									<polygon class="st9" points="931,180.5 911.8,180.5 912,174.6 930.8,174.6 									"/>
									<polygon class="st9" points="932.1,215.2 910.5,215.2 910.7,209.4 932,209.4 									"/>
									<path class="st9" d="M447.7,84.3c1.6-0.8,3.4-1.3,5.2-1.3v0c0,0,0,0,0,0s0,0,0,0v0c1.8,0,3.6,0.5,5.2,1.3
										c0.1-0.2,0.2-0.5,0.2-0.7c0-0.2,0-0.4,0-0.5c0,0,0-0.1,0-0.1c-1.7-0.8-3.5-1.3-5.4-1.4v0c0,0,0,0,0,0s0,0,0,0v0
										c-1.9,0-3.7,0.5-5.4,1.4c0,0,0,0.1,0,0.1c0,0.2,0,0.4,0,0.5C447.5,83.8,447.6,84.1,447.7,84.3z"/>
									<path class="st9" d="M467.6,97c0,0.4,0,0.9,0,1.3c-0.1,0.7-0.2,1.4-0.5,2.1h-28.2c-0.2-0.7-0.4-1.4-0.5-2.1
										c-0.1-0.5-0.1-1.1,0-1.6C448.2,100.2,458,100.4,467.6,97z"/>
									<polygon class="st9" points="463.1,125.5 443.2,125.5 443.4,118.6 462.8,118.6 									"/>
									<polygon class="st9" points="464.5,168.1 441.7,168.1 441.9,161.1 464.3,161.1 									"/>
									<polygon class="st9" points="465.8,209.3 440.1,209.3 440.4,202.4 465.6,202.4 									"/>
									<polygon class="st9" points="1013.6,125.5 993.7,125.5 993.9,118.6 1013.3,118.6 									"/>
									<polygon class="st9" points="1015,168.1 992.2,168.1 992.4,161.1 1014.8,161.1 									"/>
									<polygon class="st9" points="1016.3,209.3 990.6,209.3 990.9,202.4 1016.1,202.4 									"/>
									<path class="st9" d="M605.9,199.8v-17.5c0-5.6-3.1-10.1-7-10.1l0,0c-3.9,0-7,4.5-7,10.1v17.5H605.9z"/>
									<path class="st9" d="M605.9,239.4v-17.5c0-5.6-3.1-10.1-7-10.1l0,0c-3.9,0-7,4.5-7,10.1v17.5H605.9z"/>
									<rect x="577.4" y="160.7" class="st9" width="43.6" height="2.6"/>
									<rect x="577.4" y="165.1" class="st9" width="43.6" height="2.6"/>
									<g>
										<rect x="583.5" y="203.1" class="st9" width="4" height="5.8"/>
										<rect x="589.7" y="203.1" class="st9" width="4" height="5.8"/>
										<rect x="596" y="203.1" class="st9" width="4" height="5.8"/>
										<rect x="602.3" y="203.1" class="st9" width="4" height="5.8"/>
										<rect x="608.5" y="203.1" class="st9" width="4" height="5.8"/>
										<rect x="614.8" y="203.1" class="st9" width="4" height="5.8"/>
									</g>
									<path class="st9" d="M640.2,103c2.5-1.2,5.2-1.9,7.9-1.9v0c0,0,0,0,0,0c0,0,0,0,0,0v0c2.8,0,5.4,0.8,7.9,1.9
										c0.2-0.3,0.3-0.7,0.3-1.1c0-0.3,0-0.6,0-0.8c0-0.1,0-0.1,0-0.2c-2.6-1.2-5.4-2-8.2-2.1v0c0,0,0,0,0,0c0,0,0,0,0,0v0
										c-2.9,0-5.6,0.8-8.2,2.1c0,0.1,0,0.1,0,0.2c0,0.3,0,0.6,0,0.8C639.9,102.3,640,102.6,640.2,103z"/>
									<path class="st9" d="M670.3,122.2c0.1,0.6,0,1.3,0,2c-0.1,1.1-0.4,2.2-0.7,3.2h-42.9c-0.4-1-0.6-2.1-0.7-3.2
										c-0.1-0.8-0.1-1.7,0-2.5C640.9,127.2,655.7,127.5,670.3,122.2z"/>
									<path class="st9" d="M658.1,198.3v-18.1c0-5.8-4.7-10.4-10.4-10.4l0,0c-5.8,0-10.4,4.7-10.4,10.4v18.1H658.1z"/>
									<path class="st9" d="M658.1,239.2v-18.1c0-5.8-4.7-10.4-10.4-10.4l0,0c-5.8,0-10.4,4.7-10.4,10.4v18.1H658.1z"/>
									<rect x="612.5" y="157.9" class="st9" width="64.7" height="2.7"/>
									<rect x="612.5" y="162.4" class="st9" width="64.7" height="2.7"/>
									<g>
										<rect x="621.5" y="201.7" class="st9" width="6" height="6"/>
										<rect x="630.7" y="201.7" class="st9" width="6" height="6"/>
										<rect x="640" y="201.7" class="st9" width="6" height="6"/>
										<rect x="649.3" y="201.7" class="st9" width="6" height="6"/>
										<rect x="658.6" y="201.7" class="st9" width="6" height="6"/>
										<rect x="667.9" y="201.7" class="st9" width="6" height="6"/>
									</g>
									<rect x="664.4" y="152.3" class="st9" width="12.8" height="91.8"/>
									<path class="st9" d="M850.5,199.8v-17.5c0-5.6,3.1-10.1,7-10.1l0,0c3.9,0,7,4.5,7,10.1v17.5H850.5z"/>
									
										<rect x="835.3" y="160.7" transform="matrix(-1 -1.224647e-16 1.224647e-16 -1 1714.3154 324.0396)" class="st9" width="43.6" height="2.6"/>
									
										<rect x="835.3" y="165.1" transform="matrix(-1 -1.224647e-16 1.224647e-16 -1 1714.3154 332.8335)" class="st9" width="43.6" height="2.6"/>
									<rect x="835.4" y="155.4" class="st9" width="12.2" height="88.8"/>
									<path class="st9" d="M788.3,129v25.3h39.9V129H788.3z M815.7,138.8c0-3,2-5.4,4.4-5.4c2.4,0,4.4,2.4,4.4,5.4v9.4h-8.8
										V138.8z M803.5,138.8c0-3,2.1-5.4,4.7-5.4c2.6,0,4.7,2.4,4.7,5.4v9.4h-9.5V138.8z M792.1,138.8c0-3,2-5.4,4.4-5.4
										c2.4,0,4.4,2.4,4.4,5.4v9.4h-8.8V138.8z"/>
									<path class="st9" d="M798.4,198.3v-18.1c0-5.8,4.7-10.4,10.4-10.4l0,0c5.8,0,10.4,4.7,10.4,10.4v18.1H798.4z"/>
									<path class="st9" d="M798.4,239.2v-18.1c0-5.8,4.7-10.4,10.4-10.4l0,0c5.8,0,10.4,4.7,10.4,10.4v18.1H798.4z"/>
									
										<rect x="779.2" y="157.9" transform="matrix(-1 -1.224647e-16 1.224647e-16 -1 1623.1366 318.4399)" class="st9" width="64.7" height="2.7"/>
									
										<rect x="779.2" y="162.4" transform="matrix(-1 -1.224647e-16 1.224647e-16 -1 1623.1366 327.5343)" class="st9" width="64.7" height="2.7"/>
									
										<rect x="779.2" y="152.3" transform="matrix(-1 -1.224647e-16 1.224647e-16 -1 1571.196 396.446)" class="st9" width="12.8" height="91.8"/>
									<path class="st9" d="M726.5,161.3v-7.2h-29.8v30.3h1.9C701.7,171.7,712.9,162.1,726.5,161.3z"/>
									<rect x="684.6" y="121.8" class="st9" width="87.2" height="14.2"/>
									<path class="st9" d="M755.1,57.6h-53.7c1.2-1,2.4-2.1,3.5-3.1h46.7C752.7,55.6,753.8,56.6,755.1,57.6z"/>
									<circle class="st9" cx="728.2" cy="37.5" r="5.3"/>
									<circle class="st9" cx="728.2" cy="18.3" r="3.5"/>
									<path class="st9" d="M776.5,108.1h-96.6c-0.6-4.1-0.6-8-0.4-11.2h97.3C777.1,100,777.1,103.9,776.5,108.1z"/>
									<polygon class="st9" points="769.9,244.1 762.8,244.1 762.8,151.3 693.6,151.3 693.6,244.1 686.5,244.1 686.5,144.1 
										769.9,144.1 									"/>
									<path class="st9" d="M703.3,244.1v-52.4c0-13.8,11.1-24.9,24.9-24.9l0,0c13.8,0,24.9,11.1,24.9,24.9v52.4H703.3z
										 M742.3,237.1v-44.7c0-7.8-6.3-14-14-14l0,0c-7.8,0-14,6.3-14,14v44.7H742.3z"/>
									<rect x="674.9" y="232.4" class="st9" width="28.5" height="11.8"/>
									<rect x="753" y="232.4" class="st9" width="28.5" height="11.8"/>
									<rect x="435.1" y="244.2" class="st9" width="586.1" height="8.5"/>
								</g>
								<g>
									<rect x="435.1" y="256.8" class="st9" width="586.1" height="3.4"/>
									<rect x="442" y="266.7" class="st9" width="9.4" height="21"/>
									<rect x="461.4" y="266.7" class="st9" width="9.4" height="21"/>
									<rect x="480.8" y="266.7" class="st9" width="9.4" height="21"/>
									<rect x="500.2" y="266.7" class="st9" width="9.4" height="21"/>
									<rect x="519.7" y="266.7" class="st9" width="9.4" height="21"/>
									<rect x="539.1" y="266.7" class="st9" width="9.4" height="21"/>
									<rect x="558.5" y="266.7" class="st9" width="9.4" height="21"/>
									<rect x="577.9" y="266.7" class="st9" width="9.4" height="21"/>
									<rect x="597.3" y="266.7" class="st9" width="9.4" height="21"/>
									<rect x="616.7" y="266.7" class="st9" width="9.4" height="21"/>
									<rect x="636.1" y="266.7" class="st9" width="9.4" height="21"/>
									<rect x="655.5" y="266.7" class="st9" width="9.4" height="21"/>
									<rect x="675" y="266.7" class="st9" width="9.4" height="21"/>
									<rect x="694.4" y="266.7" class="st9" width="9.4" height="21"/>
									<rect x="713.8" y="266.7" class="st9" width="9.4" height="21"/>
									<rect x="733.2" y="266.7" class="st9" width="9.4" height="21"/>
									<rect x="752.6" y="266.7" class="st9" width="9.4" height="21"/>
									<rect x="772" y="266.7" class="st9" width="9.4" height="21"/>
									<rect x="791.4" y="266.7" class="st9" width="9.4" height="21"/>
									<rect x="810.8" y="266.7" class="st9" width="9.4" height="21"/>
									<rect x="830.3" y="266.7" class="st9" width="9.4" height="21"/>
									<rect x="849.7" y="266.7" class="st9" width="9.4" height="21"/>
									<rect x="869.1" y="266.7" class="st9" width="9.4" height="21"/>
									<rect x="888.5" y="266.7" class="st9" width="9.4" height="21"/>
									<rect x="907.9" y="266.7" class="st9" width="9.4" height="21"/>
									<rect x="927.3" y="266.7" class="st9" width="9.4" height="21"/>
									<rect x="946.7" y="266.7" class="st9" width="9.4" height="21"/>
									<rect x="966.1" y="266.7" class="st9" width="9.4" height="21"/>
									<rect x="985.5" y="266.7" class="st9" width="9.4" height="21"/>
									<rect x="1005" y="266.7" class="st9" width="9.4" height="21"/>
									<rect x="435.1" y="292.7" class="st9" width="586.1" height="8.5"/>
								</g>
							</g>
						</g>
					</g>
				</g>
			</g>
		</g>
	</g>
</g>
<g>
	<polygon class="st10" points="1307.1,13.8 1281.7,5 1256.4,13.8 1232.1,13.8 1232.1,34.2 1330.2,34.2 1330.2,13.8 	"/>
	<rect x="1197.3" y="23.2" class="st10" width="167.8" height="40.2"/>
	<g>
		<rect x="1180.1" y="58.2" class="st11" width="202.1" height="22.3"/>
		<path class="st12" d="M1381.2,59.2v20.3h-200.1V59.2H1381.2 M1383.2,57.2h-204.1v24.3h204.1V57.2L1383.2,57.2z"/>
	</g>
	<rect x="1173.9" y="70.6" class="st10" width="214.5" height="24.3"/>
	<path class="st10" d="M1389.9,98.9v199.8H1315V180.6c0-8.9-3.7-16.9-9.7-22.7c-6-5.8-14.2-9.4-23.4-9.4c-5.1,0-9.8,1.1-14.1,3.1
		c-2.8,1.3-5.4,2.9-7.6,4.9c-0.4,0.3-0.7,0.6-1.1,1c-1.6,1.5-3,3.1-4.3,4.9c-0.4,0.5-0.7,1-1,1.5c-1,1.6-1.9,3.2-2.5,4.9
		c-1.5,3.6-2.3,7.6-2.3,11.8v118.1h-76.6V98.9H1389.9z"/>
	<path class="st13" d="M1321.4,298.7h-2.6V180.6c0-9.5-3.8-18.6-10.8-25.4c-7-6.8-16.3-10.5-26.1-10.5c-20.3,0-36.9,16.1-36.9,35.9
		v118.1h-2.6V180.6c0-21.2,17.7-38.4,39.4-38.4c10.5,0,20.4,4,27.9,11.2c7.5,7.3,11.6,17,11.6,27.2V298.7z"/>
	<rect x="1172.4" y="98.9" class="st14" width="217.6" height="24"/>
	<rect x="1172.4" y="120.9" class="st13" width="217.6" height="3.2"/>
	<rect x="1172.4" y="192" class="st14" width="76.6" height="3.1"/>
	<g>
		<rect x="1173.4" y="187.6" class="st11" width="75.2" height="3.7"/>
		<path class="st12" d="M1247.5,188.6v1.7h-73.2v-1.7H1247.5 M1249.5,186.6h-77.2v5.7h77.2V186.6L1249.5,186.6z"/>
	</g>
	<rect x="1172.4" y="240.5" class="st14" width="76.6" height="3.1"/>
	<g>
		<rect x="1173.4" y="236.1" class="st11" width="75.2" height="3.7"/>
		<path class="st12" d="M1247.5,237.1v1.7h-73.2v-1.7H1247.5 M1249.5,235.1h-77.2v5.7h77.2V235.1L1249.5,235.1z"/>
	</g>
	<rect x="1315" y="192" class="st14" width="74.9" height="3.1"/>
	<g>
		<rect x="1313.8" y="187.6" class="st11" width="75.2" height="3.7"/>
		<path class="st12" d="M1387.9,188.6v1.7h-73.2v-1.7H1387.9 M1389.9,186.6h-77.2v5.7h77.2V186.6L1389.9,186.6z"/>
	</g>
	<rect x="1315" y="240.5" class="st14" width="74.9" height="3.1"/>
	<g>
		<rect x="1313.8" y="236.1" class="st11" width="75.2" height="3.7"/>
		<path class="st12" d="M1387.9,237.1v1.7h-73.2v-1.7H1387.9 M1389.9,235.1h-77.2v5.7h77.2V235.1L1389.9,235.1z"/>
	</g>
	<g>
		<ellipse class="st13" cx="1208.9" cy="158.6" rx="21" ry="20.5"/>
		<rect x="1187.8" y="200" class="st13" width="42.2" height="30.8"/>
		<rect x="1187.8" y="247.8" class="st13" width="42.2" height="43"/>
	</g>
	<g>
		<ellipse class="st13" cx="1354" cy="158.6" rx="21" ry="20.5"/>
		<rect x="1332.9" y="200" class="st13" width="42.2" height="30.8"/>
		<rect x="1332.9" y="247.8" class="st13" width="42.2" height="43"/>
	</g>
	<g>
		<g>
			<rect x="1178.1" y="108" class="st11" width="4" height="9.5"/>
			<path class="st12" d="M1181.1,109v7.5h-2V109H1181.1 M1183.1,107h-6v11.5h6V107L1183.1,107z"/>
		</g>
		<g>
			<rect x="1189.3" y="108" class="st11" width="4" height="9.5"/>
			<path class="st12" d="M1192.3,109v7.5h-2V109H1192.3 M1194.3,107h-6v11.5h6V107L1194.3,107z"/>
		</g>
		<g>
			<rect x="1200.4" y="108" class="st11" width="4" height="9.5"/>
			<path class="st12" d="M1203.4,109v7.5h-2V109H1203.4 M1205.4,107h-6v11.5h6V107L1205.4,107z"/>
		</g>
		<g>
			<rect x="1211.6" y="108" class="st11" width="4" height="9.5"/>
			<path class="st12" d="M1214.6,109v7.5h-2V109H1214.6 M1216.6,107h-6v11.5h6V107L1216.6,107z"/>
		</g>
		<g>
			<rect x="1222.7" y="108" class="st11" width="4" height="9.5"/>
			<path class="st12" d="M1225.7,109v7.5h-2V109H1225.7 M1227.7,107h-6v11.5h6V107L1227.7,107z"/>
		</g>
		<g>
			<rect x="1233.9" y="108" class="st11" width="4" height="9.5"/>
			<path class="st12" d="M1236.9,109v7.5h-2V109H1236.9 M1238.9,107h-6v11.5h6V107L1238.9,107z"/>
		</g>
		<g>
			<rect x="1245.1" y="108" class="st11" width="4" height="9.5"/>
			<path class="st12" d="M1248.1,109v7.5h-2V109H1248.1 M1250.1,107h-6v11.5h6V107L1250.1,107z"/>
		</g>
		<g>
			<rect x="1256.2" y="108" class="st11" width="4" height="9.5"/>
			<path class="st12" d="M1259.2,109v7.5h-2V109H1259.2 M1261.2,107h-6v11.5h6V107L1261.2,107z"/>
		</g>
		<g>
			<rect x="1267.4" y="108" class="st11" width="4" height="9.5"/>
			<path class="st12" d="M1270.4,109v7.5h-2V109H1270.4 M1272.4,107h-6v11.5h6V107L1272.4,107z"/>
		</g>
		<g>
			<rect x="1278.5" y="108" class="st11" width="4" height="9.5"/>
			<path class="st12" d="M1281.5,109v7.5h-2V109H1281.5 M1283.5,107h-6v11.5h6V107L1283.5,107z"/>
		</g>
		<g>
			<rect x="1289.7" y="108" class="st11" width="4" height="9.5"/>
			<path class="st12" d="M1292.7,109v7.5h-2V109H1292.7 M1294.7,107h-6v11.5h6V107L1294.7,107z"/>
		</g>
		<g>
			<rect x="1300.9" y="108" class="st11" width="4" height="9.5"/>
			<path class="st12" d="M1303.9,109v7.5h-2V109H1303.9 M1305.9,107h-6v11.5h6V107L1305.9,107z"/>
		</g>
		<g>
			<rect x="1312" y="108" class="st11" width="4" height="9.5"/>
			<path class="st12" d="M1315,109v7.5h-2V109H1315 M1317,107h-6v11.5h6V107L1317,107z"/>
		</g>
		<g>
			<rect x="1323.2" y="108" class="st11" width="4" height="9.5"/>
			<path class="st12" d="M1326.2,109v7.5h-2V109H1326.2 M1328.2,107h-6v11.5h6V107L1328.2,107z"/>
		</g>
		<g>
			<rect x="1334.3" y="108" class="st11" width="4" height="9.5"/>
			<path class="st12" d="M1337.4,109v7.5h-2V109H1337.4 M1339.4,107h-6v11.5h6V107L1339.4,107z"/>
		</g>
		<g>
			<rect x="1345.5" y="108" class="st11" width="4" height="9.5"/>
			<path class="st12" d="M1348.5,109v7.5h-2V109H1348.5 M1350.5,107h-6v11.5h6V107L1350.5,107z"/>
		</g>
		<g>
			<rect x="1356.7" y="108" class="st11" width="4" height="9.5"/>
			<path class="st12" d="M1359.7,109v7.5h-2V109H1359.7 M1361.7,107h-6v11.5h6V107L1361.7,107z"/>
		</g>
		<g>
			<rect x="1367.8" y="108" class="st11" width="4" height="9.5"/>
			<path class="st12" d="M1370.8,109v7.5h-2V109H1370.8 M1372.8,107h-6v11.5h6V107L1372.8,107z"/>
		</g>
		<g>
			<rect x="1379" y="108" class="st11" width="4" height="9.5"/>
			<path class="st12" d="M1382,109v7.5h-2V109H1382 M1384,107h-6v11.5h6V107L1384,107z"/>
		</g>
	</g>
	<g>
		<rect x="1162.3" y="94" class="st11" width="237.7" height="9.1"/>
		<path class="st12" d="M1399,95v7.1h-235.7V95H1399 M1401,93h-239.7V104H1401V93L1401,93z"/>
	</g>
	<rect x="1311.4" y="285.1" class="st14" width="83.6" height="15.9"/>
	<rect x="1168.4" y="285.1" class="st14" width="83.6" height="15.9"/>
</g>
<path class="st9" d="M1138.9,303.6L1109,25.4c-1.5,2.1-0.9-9.6-0.9-8.5c0-7.1-1.2-12.9-7.2-12.9c-6,0-8.4,5.8-8.4,12.9
	c0-1,1.9,10.6,0.4,8.6l-29.9,278.2H1138.9z"/>
<g>
	<g>
		<line class="st15" x1="1085.9" y1="199" x2="1085.9" y2="264"/>
		<line class="st15" x1="1096.9" y1="199" x2="1096.9" y2="264"/>
		<line class="st15" x1="1108.1" y1="199" x2="1108.1" y2="264"/>
		<line class="st15" x1="1119.2" y1="199" x2="1119.2" y2="264"/>
	</g>
	<g>
		<line class="st15" x1="1084" y1="137.5" x2="1084" y2="191.2"/>
		<line class="st15" x1="1095.1" y1="137.5" x2="1095.1" y2="191.2"/>
		<line class="st15" x1="1106.1" y1="137.5" x2="1106.1" y2="191.2"/>
		<line class="st15" x1="1117.3" y1="137.5" x2="1117.3" y2="191.2"/>
	</g>
	<g>
		<line class="st15" x1="1090.2" y1="82.6" x2="1090.2" y2="130.8"/>
		<line class="st15" x1="1097.3" y1="82.6" x2="1097.3" y2="130.8"/>
		<line class="st15" x1="1104.3" y1="82.6" x2="1104.3" y2="130.8"/>
		<line class="st15" x1="1111.3" y1="82.6" x2="1111.3" y2="130.8"/>
	</g>
	<g>
		<line class="st15" x1="1093.8" y1="28.6" x2="1093.8" y2="76.8"/>
		<line class="st15" x1="1098.5" y1="28.6" x2="1098.5" y2="76.8"/>
		<line class="st15" x1="1103.2" y1="28.6" x2="1103.2" y2="76.8"/>
		<line class="st15" x1="1107.9" y1="28.6" x2="1107.9" y2="76.8"/>
	</g>
	<g>
		<line class="st15" x1="1080.4" y1="268" x2="1080.4" y2="302.5"/>
		<line class="st15" x1="1091.5" y1="268" x2="1091.5" y2="302.5"/>
		<line class="st15" x1="1102.5" y1="268" x2="1102.5" y2="302.5"/>
		<line class="st15" x1="1113.6" y1="268" x2="1113.6" y2="302.5"/>
	</g>
	<g>
		<line class="st15" x1="1091.5" y1="266.9" x2="1091.5" y2="303.2"/>
		<line class="st15" x1="1102.5" y1="266.9" x2="1102.5" y2="303.2"/>
		<line class="st15" x1="1113.6" y1="266.9" x2="1113.6" y2="303.2"/>
		<line class="st15" x1="1124.8" y1="266.9" x2="1124.8" y2="303.2"/>
	</g>
</g>
<g>
	<path class="st4" d="M98.5,182.5c0,0-6,3-6,7v25h13l0-24.3C105.5,190.2,101.5,182.5,98.5,182.5z"/>
	<path class="st4" d="M135.5,182.5c0,0-6,3-6,7v25h13l0-24.3C142.5,190.2,138.5,182.5,135.5,182.5z"/>
	<path class="st4" d="M174.5,182.5c0,0-6,3-6,7v25h13l0-24.3C181.5,190.2,177.5,182.5,174.5,182.5z"/>
	<path class="st4" d="M211.7,180c0,0-9.7,3.2-9.7,7.5v27h21l0-26.2C223,188.3,216.5,180,211.7,180z"/>
	<path class="st4" d="M249.5,182.5c0,0-6,3-6,7v25h13l0-24.3C256.5,190.2,252.5,182.5,249.5,182.5z"/>
	<path class="st4" d="M287.5,182.5c0,0-6,3-6,7v25h13l0-24.3C294.5,190.2,290.5,182.5,287.5,182.5z"/>
	<path class="st4" d="M324.5,182.5c0,0-6,3-6,7v25h13l0-24.3C331.5,190.2,327.5,182.5,324.5,182.5z"/>
</g>
<g>
	<path class="st4" d="M102.5,181.5c0,0-6,3-6,7v25h13l0-24.3C109.5,189.2,105.5,181.5,102.5,181.5z"/>
	<path class="st4" d="M139.5,181.5c0,0-6,3-6,7v25h13l0-24.3C146.5,189.2,142.5,181.5,139.5,181.5z"/>
	<path class="st4" d="M178.5,181.5c0,0-6,3-6,7v25h13l0-24.3C185.5,189.2,181.5,181.5,178.5,181.5z"/>
	<path class="st4" d="M215.7,179c0,0-9.7,3.2-9.7,7.5v27h21l0-26.2C227,187.3,220.5,179,215.7,179z"/>
	<path class="st4" d="M253.5,181.5c0,0-6,3-6,7v25h13l0-24.3C260.5,189.2,256.5,181.5,253.5,181.5z"/>
	<path class="st4" d="M291.5,181.5c0,0-6,3-6,7v25h13l0-24.3C298.5,189.2,294.5,181.5,291.5,181.5z"/>
	<path class="st4" d="M328.5,181.5c0,0-6,3-6,7v25h13l0-24.3C335.5,189.2,331.5,181.5,328.5,181.5z"/>
</g>
<g>
	<ellipse class="st4" cx="66" cy="144" rx="6.5" ry="4.5"/>
	<ellipse class="st4" cx="82" cy="144" rx="6.5" ry="4.5"/>
	<ellipse class="st4" cx="98" cy="144" rx="6.5" ry="4.5"/>
	<ellipse class="st4" cx="114" cy="144" rx="6.5" ry="4.5"/>
</g>
<rect x="162.3" y="120.5" class="st4" width="98.2" height="2.7"/>
<g>
	<g>
		<ellipse class="st4" cx="309" cy="145" rx="6.5" ry="4.5"/>
		<ellipse class="st4" cx="325" cy="145" rx="6.5" ry="4.5"/>
		<ellipse class="st4" cx="341" cy="145" rx="6.5" ry="4.5"/>
		<ellipse class="st4" cx="357" cy="145" rx="6.5" ry="4.5"/>
	</g>
	<path class="st4" d="M324.5,140.5c-3.1,0-5.6,2.1-5.6,4.6s2.6,4.6,5.6,4.6c3.1,0,5.6-2.2,5.6-4.6
		C330.1,142.5,327.5,140.5,324.5,140.5z"/>
	<path class="st4" d="M308.4,140.5c-3.1,0-5.6,2.1-5.6,4.6s2.6,4.6,5.6,4.6c3.1,0,5.6-2.2,5.6-4.6
		C314,142.5,311.5,140.5,308.4,140.5z"/>
	<path class="st4" d="M340.5,140.5c-3.1,0-5.6,2.1-5.6,4.6s2.6,4.6,5.6,4.6c3.1,0,5.6-2.2,5.6-4.6
		C346.1,142.5,343.6,140.5,340.5,140.5z"/>
	<path class="st4" d="M356.5,140.5c-3.1,0-5.6,2.1-5.6,4.6s2.6,4.6,5.6,4.6s5.6-2.2,5.6-4.6C362.2,142.5,359.6,140.5,356.5,140.5z"
		/>
</g>
<path class="st4" d="M340.2,89.4c2.1-1.7,3.3-4.1,3.3-6.8c0-4.5-3.7-8.4-8.7-9.2c2.8-0.7,4.7-3,4.7-5.6c0-2.9-2.5-5.4-5.6-5.9
	c2-0.5,3.3-2,3.3-3.8c0-2.2-2.1-4-4.6-4s-4.6,1.7-4.6,4c0,1.8,1.4,3.3,3.3,3.8c-3.2,0.5-5.6,2.9-5.6,5.9c0,2.6,2,4.9,4.7,5.6
	c-4.9,0.9-8.7,4.6-8.7,9.2c0,2.6,1.3,5.1,3.3,6.8c-0.1,0-0.2,0.1-0.3,0.1h15.6C340.4,89.5,340.3,89.4,340.2,89.4z"/>
<path class="st4" d="M152.3,25.4c0.6-1.2,0.9-2.9,0.9-4.7c0-3.1-1-5.8-2.3-6.4c0.7-0.5,1.3-2.1,1.3-3.9c0-2-0.7-3.7-1.5-4.1
	c0.5-0.3,0.9-1.4,0.9-2.6c0-1.5-0.6-2.7-1.2-2.7c-0.7,0-1.2,1.2-1.2,2.7c0,1.3,0.4,2.3,0.9,2.6c-0.9,0.3-1.5,2-1.5,4.1
	c0,1.8,0.5,3.4,1.3,3.9c-1.3,0.6-2.3,3.2-2.3,6.4c0,1.8,0.3,3.6,0.9,4.7c0,0-0.1,0.1-0.1,0.1h4.2C152.4,25.5,152.3,25.4,152.3,25.4z
	"/>
<path class="st4" d="M275.3,24.4c0.6-1.2,0.9-2.9,0.9-4.7c0-3.1-1-5.8-2.3-6.4c0.7-0.5,1.3-2.1,1.3-3.9c0-2-0.7-3.7-1.5-4.1
	c0.5-0.3,0.9-1.4,0.9-2.6c0-1.5-0.6-2.7-1.2-2.7S272,1.2,272,2.7c0,1.3,0.4,2.3,0.9,2.6c-0.9,0.3-1.5,2-1.5,4.1
	c0,1.8,0.5,3.4,1.3,3.9c-1.3,0.6-2.3,3.2-2.3,6.4c0,1.8,0.3,3.6,0.9,4.7c0,0-0.1,0.1-0.1,0.1h4.2C275.4,24.5,275.3,24.4,275.3,24.4z
	"/>
<path class="st4" d="M98.2,88.4c2.1-1.7,3.3-4.1,3.3-6.8c0-4.5-3.7-8.4-8.7-9.2c2.8-0.7,4.7-3,4.7-5.6c0-2.9-2.5-5.4-5.6-5.9
	c2-0.5,3.3-2,3.3-3.8c0-2.2-2.1-4-4.6-4s-4.6,1.7-4.6,4c0,1.8,1.4,3.3,3.3,3.8c-3.2,0.5-5.6,2.9-5.6,5.9c0,2.6,2,4.9,4.7,5.6
	c-4.9,0.9-8.7,4.6-8.7,9.2c0,2.6,1.3,5.1,3.3,6.8c-0.1,0-0.2,0.1-0.3,0.1h15.6C98.4,88.5,98.3,88.4,98.2,88.4z"/>
<polygon class="st16" points="402.7,244.2 400.1,243.9 397,243 397,238.6 392.1,238.6 391.1,238.8 383,235.7 383,234.4 381,234.4 
	381,221.9 380.2,220.9 372.6,220.9 363.3,224.2 363.3,223.4 252.1,223.4 252.1,222.5 253.4,222.5 253.4,222.5 157.6,222.5 
	157.6,223.2 55.8,223.2 55.8,229.8 52.9,229.8 52.9,226.4 37.1,220.7 29.5,220.7 28.6,221.7 28.6,234.2 26.6,234.2 26.6,235.5 
	18.5,238.6 17.5,238.4 12.6,238.4 12.6,242.8 9.5,243.7 6.9,244 6.1,244.7 8.4,245.8 8.4,246.6 10,246.6 12.3,248.4 12.3,300.4 
	9.8,300.4 9.8,305.9 189.8,305.9 204.7,305.9 227.6,305.9 400,305.9 400,300.4 397.4,300.4 397.4,248.4 399.6,246.6 401.2,246.6 
	401.2,245.8 403.5,244.7 "/>
<g>
	<ellipse class="st4" cx="265.5" cy="57" rx="2" ry="3.5"/>
	<ellipse class="st4" cx="270.5" cy="57" rx="2" ry="3.5"/>
	<ellipse class="st4" cx="275.5" cy="57" rx="2" ry="3.5"/>
	<ellipse class="st4" cx="280.5" cy="57" rx="2" ry="3.5"/>
</g>
<g>
	<ellipse class="st4" cx="142.5" cy="57" rx="2" ry="3.5"/>
	<ellipse class="st4" cx="147.5" cy="57" rx="2" ry="3.5"/>
	<ellipse class="st4" cx="152.5" cy="57" rx="2" ry="3.5"/>
	<ellipse class="st4" cx="157.5" cy="57" rx="2" ry="3.5"/>
</g>
<rect x="8.5" y="214" class="st0" width="393" height="65.5"/>
<path class="st4" d="M402.7,260.8l-2.6-0.3l-3.1-0.9v-4.2h-4.9l-1,0.2l-8.1-2.9v-1.3h-2v-11.9l-0.9-1h-7.6l-9.2,3.2v-0.8H252.1V240
	h1.2v-1.5v-1.6l2.5-1.3v-0.4h-4.1v-1.9h-1.5l0,0c0-0.1-0.1-0.1-0.4-0.1h-0.2l0,0c0-0.1-0.1-0.1-0.2-0.1h-0.2c0-0.1-0.1-0.1-0.4-0.1
	h-0.1l0,0v-0.1c0,0,0,0,0-0.1c0.7-0.1,1.4-0.3,1.7-0.6H246c0.4,0.3,1,0.5,1.7,0.6c0,0,0,0,0,0.1v0.1l0,0h-0.1
	c-0.2,0-0.4,0.1-0.4,0.1H247c-0.1,0-0.2,0.1-0.2,0.1l0,0h-0.2c-0.1,0-0.4,0.1-0.4,0.1l0,0h-9.4V232H173v1.3h-9.6l0,0
	c0-0.1-0.1-0.1-0.4-0.1h-0.2l0,0c0-0.1-0.1-0.1-0.2-0.1h-0.2c0-0.1-0.1-0.1-0.4-0.1h-0.1l0,0v-0.1c0,0,0,0,0-0.1
	c0.7-0.1,1.4-0.3,1.7-0.6h-4.4c0.4,0.3,1,0.5,1.7,0.6c0,0,0,0,0,0.1v0.1l0,0h-0.2c-0.1,0-0.4,0.1-0.4,0.1H160
	c-0.1,0-0.2,0.1-0.2,0.1l0,0h-0.2c-0.2,0-0.4,0.1-0.4,0.1l0,0h-1.2v1.9h-4.1v0.4l2.5,1.3v1.6v1.3h1.4v0.8H55.8v6.3h-2.9v-3.2
	l-15.8-5.5h-7.6l-0.9,1v11.9h-2v1.3l-8.1,2.9l-1-0.2h-4.9v4.2l-3.1,0.9l-2.6,0.3l-0.7,0.6l2.2,1.1v0.8H10l2.2,1.7l0,0v49.8H9.8v5.2
	h180h15h22.8H400v-5.2h-2.6v-49.8l0,0l2.2-1.7h1.6v-0.8l2.2-1.1L402.7,260.8z"/>
<path class="st0" d="M400.7,272.8l-2.6-0.3l-3.1-0.9v-4.2h-4.9l-1,0.2l-8.1-2.9v-1.3h-2v-11.9l-0.9-1h-7.6l-9.2,3.2v-0.8H250.1V252
	h1.2v-1.5v-1.6l2.5-1.3v-0.4h-4.1v-1.9h-1.5l0,0c0-0.1-0.1-0.1-0.4-0.1h-0.2l0,0c0-0.1-0.1-0.1-0.2-0.1h-0.2c0-0.1-0.1-0.1-0.4-0.1
	h-0.1l0,0v-0.1c0,0,0,0,0-0.1c0.7-0.1,1.4-0.3,1.7-0.6H244c0.4,0.3,1,0.5,1.7,0.6c0,0,0,0,0,0.1v0.1l0,0h-0.1
	c-0.2,0-0.4,0.1-0.4,0.1H245c-0.1,0-0.2,0.1-0.2,0.1l0,0h-0.2c-0.1,0-0.4,0.1-0.4,0.1l0,0h-9.4V244H171v1.3h-9.6l0,0
	c0-0.1-0.1-0.1-0.4-0.1h-0.2l0,0c0-0.1-0.1-0.1-0.2-0.1h-0.2c0-0.1-0.1-0.1-0.4-0.1h-0.1l0,0v-0.1c0,0,0,0,0-0.1
	c0.7-0.1,1.4-0.3,1.7-0.6h-4.4c0.4,0.3,1,0.5,1.7,0.6c0,0,0,0,0,0.1v0.1l0,0h-0.2c-0.1,0-0.4,0.1-0.4,0.1H158
	c-0.1,0-0.2,0.1-0.2,0.1l0,0h-0.2c-0.2,0-0.4,0.1-0.4,0.1l0,0h-1.2v1.9h-4.1v0.4l2.5,1.3v1.6v1.3h1.4v0.8H53.8v6.3h-2.9v-3.2
	l-15.8-5.5h-7.6l-0.9,1v11.9h-2v1.3l-8.1,2.9l-1-0.2h-4.9v4.2l-3.1,0.9l-2.6,0.3l-0.7,0.6l2.2,1.1v0.8H8l2.2,1.7l0,0v49.8H7.8v5.2
	h180h15h22.8H398v-5.2h-2.6v-49.8l0,0l2.2-1.7h1.6v-0.8l2.2-1.1L400.7,272.8z"/>
<rect x="47.5" y="166.5" class="st4" width="327" height="4.7"/>
<g>
	<g>
		<path class="st4" d="M1078.2,132.5c21.8-4.4,28.9-5,46.5,0c1.9,0.5,3.7,1,3.7,2.4v0.2c0,1.3-1.6,2.4-3.7,2.4h-46.5
			c-2.1,0-3.7-1-3.7-2.4v-0.2C1074.5,133.6,1076.3,132.9,1078.2,132.5z"/>
	</g>
	<g>
		<path class="st4" d="M1063.6,264.5c35.4-4.6,46.9-5.2,75.4,0c3.1,0.6,6,1.1,6,2.5v0.2c0,1.4-2.6,2.5-6,2.5h-75.4
			c-3.4,0-6-1.1-6-2.5V267C1057.6,265.7,1060.5,264.9,1063.6,264.5z"/>
	</g>
	<g>
		<path class="st4" d="M1069.2,193.8c29.3-4.6,38.7-5.2,62.3,0c2.5,0.6,5,1.1,5,2.5v0.2c0,1.4-2.2,2.5-5,2.5h-62.3
			c-2.8,0-5-1.1-5-2.5v-0.2C1064.3,195,1066.7,194.2,1069.2,193.8z"/>
	</g>
	<g>
		<path class="st4" d="M1084.6,78.2c14.8-3.6,19.6-4.1,31.5,0c1.3,0.4,2.5,0.9,2.5,2v0.1c0,1.1-1.1,2-2.5,2h-31.5
			c-1.4,0-2.5-0.9-2.5-2v-0.1C1082.1,79.1,1083.3,78.5,1084.6,78.2z"/>
	</g>
	<g>
		<path class="st4" d="M1087.5,24.7c12.6-2.5,16.6-2.8,26.8,0c1.1,0.3,2.1,0.6,2.1,1.3v0.1c0,0.8-0.9,1.3-2.1,1.3h-26.8
			c-1.2,0-2.1-0.6-2.1-1.3v-0.1C1085.4,25.4,1086.4,24.9,1087.5,24.7z"/>
	</g>
</g>
</svg>
