<?xml version="1.0" encoding="utf-8"?>
<!-- Generator: Adobe Illustrator 16.0.0, SVG Export Plug-In . SVG Version: 6.00 Build 0)  -->
<!DOCTYPE svg PUBLIC "-//W3C//DTD SVG 1.1//EN" "http://www.w3.org/Graphics/SVG/1.1/DTD/svg11.dtd">
<svg version="1.1" id="Layer_1" xmlns="http://www.w3.org/2000/svg" xmlns:xlink="http://www.w3.org/1999/xlink" x="0px" y="0px"
	 width="860.811px" height="625.675px" viewBox="0 0 860.811 625.675" enable-background="new 0 0 860.811 625.675"
	 xml:space="preserve">
<g>
	<linearGradient id="SVGID_1_" gradientUnits="userSpaceOnUse" x1="7.791" y1="312.563" x2="855.1157" y2="312.563">
		<stop  offset="0" style="stop-color:#F7C58C"/>
		<stop  offset="1" style="stop-color:#F89F57"/>
	</linearGradient>
	<path fill="url(#SVGID_1_)" d="M44.048,322.594c0,0-76.217-133.62,55.191-194.099c131.41-60.48-113.011-57.666,131.41-101.269
		c244.42-43.602,325.895-2.813,377.143,52.041c51.251,54.854-47.213,121.967,135.352,181.44
		c175.108,57.045,153.746,350.221-127.469,354.441c-281.213,4.218-405.578,1.407-519.063-101.27
		C-16.872,411.204,4.026,369.008,22.066,353.537C40.106,338.064,17.766,349.317,44.048,322.594z"/>
</g>
<path fill="#FFFFFF" d="M361.386,448.824c0.092,0,0.187,0,0.28,0c1.449,0,1.449-2.242,0-2.242c-0.093,0-0.188,0-0.28,0
	C359.937,446.582,359.937,448.824,361.386,448.824L361.386,448.824z"/>
<path fill="#171142" d="M421.207,418.333c-0.051,0.053-0.051,0.138-0.051,0.181c-0.312,1.076-0.626,2.154-0.894,3.146
	c0.535-7.415,0.894-14.873,1.394-22.152l3.186,1.802c-0.944,3.146-1.12,6.693-1.979,9.831c-0.224,0.905-0.449,1.845-0.71,2.838
	C421.832,415.409,421.566,416.807,421.207,418.333z"/>
<path fill="#171142" d="M422.152,413.979c0.261-0.993,0.486-1.933,0.71-2.838c0.859-3.138,1.035-6.685,1.979-9.831l4.54,2.604
	c-1.168,5.71-1.932,11.376-3.058,17.215c-0.447,1.922-0.854,3.853-1.344,5.74c-1.484,5.484-2.294,11.321-3.324,16.936l0.313-0.129
	l-3.953,18.91l-0.586-0.354c-0.181-0.095-0.404-0.223-0.582-0.361c0.22-2.293,0.582-4.983,1.034-8.13
	c0.178-1.391,0.4-2.83,0.539-4.228c0.087-0.222,0.13-0.532,0.087-0.715c0.134-1.119,0.271-2.294,0.495-3.509l-0.139,0.137
	c0.501-6.243,0.546-12.581,0.991-18.73c0.135-1.661,0.269-3.368,0.406-5.034c0.268-0.992,0.582-2.07,0.894-3.146
	c0-0.043,0-0.128,0.051-0.181C421.566,416.807,421.832,415.409,422.152,413.979z"/>
<path fill="#1C191B" d="M418.957,487.705c-0.85-0.854-1.66-1.846-2.294-2.605C417.607,485.955,418.465,486.893,418.957,487.705z"/>
<path fill="#B16027" d="M418.016,462.585l3.953-18.91l4.626-22.325l-0.271-0.222c1.126-5.839,1.89-11.505,3.058-17.215l30.862,17.79
	l6.113,3.51v0.042c-0.452,1.613-1.083,3.279-1.574,4.986c-0.897,3.095-1.125,6.69-1.975,9.794c-0.224,0.941-0.454,1.845-0.72,2.829
	c-0.315,1.439-0.586,2.871-0.943,4.363c-0.046,0.086-0.046,0.13-0.046,0.223c-0.72,2.467-1.352,4.761-1.934,6.735
	c-1.126,3.639-2.07,6.605-3.009,9.252c-0.316,0.406-0.67,0.77-1.126,1.131c-0.487,0.492-1.031,0.94-1.524,1.346
	c-9.885,8.311-18.417,6.475-26.463,2.198c-3.055-1.611-6.065-3.638-9.027-5.477c-0.182-0.138-0.409-0.273-0.586-0.405
	L418.016,462.585z"/>
<path fill="#F9B685" d="M426.687,486.85c-1.125,0.717-3.953,2.69-5.347,2.562c-0.672-0.042-1.573-0.812-2.384-1.707
	c-0.491-0.812-1.35-1.75-2.294-2.605c-1.299-1.259-2.78-2.474-3.635-3.146c-2.113-1.621-5.661-3.82-8.58-4.268
	c1.078-0.77,2.108-1.707,3.1-2.873l0.087-0.095c0.274-0.317,0.5-0.628,0.724-0.981h0.039c2.699-3.468,7.642-8.806,8.451-11.866
	c0.178,0.139,0.401,0.267,0.582,0.361c0.177,0.132,0.404,0.268,0.586,0.405c2.962,1.839,5.973,3.865,9.027,5.477
	c8.046,4.276,16.578,6.112,26.463-2.198l0.401,0.448c-4.219,7.01-13.342,11.682-20.078,15.994
	C431.447,483.927,429.199,485.454,426.687,486.85z"/>
<path fill="#E75325" d="M455.031,464.569c-0.04,3.544-0.226,7.054-0.04,9.338c-1.529,1.175-4.631,3.459-8.717,6.115
	c-11.365,7.501-29.787,18.46-36.933,20.168v-0.043c-7.143-0.587-15.224-6.148-16.305-10.107c-0.226-0.81-0.14-1.568,0.22-2.155
	c0.543-5.751,6.157-6.467,11.191-10.199c2.919,0.447,6.467,2.646,8.58,4.268c0.854,0.673,2.336,1.888,3.635,3.146
	c0.634,0.76,1.444,1.751,2.294,2.605c0.811,0.896,1.712,1.665,2.384,1.707c1.394,0.129,4.222-1.845,5.347-2.562
	c2.512-1.396,4.76-2.923,7.143-4.493c6.736-4.313,15.859-8.984,20.078-15.994l-0.401-0.448
	C454,465.509,454.543,465.061,455.031,464.569z"/>
<path fill="#B16027" d="M413.882,436.76c-10.021,8.579-18.644,6.786-26.822,2.467c-2.967-1.658-5.976-3.598-8.897-5.442
	l3.865-18.411l1.17-0.86c0.583-3.234,0.626-6.244,0.809-9.253l2.651-12.806l-0.181-0.129c1.078-5.654,1.841-11.192,2.963-16.71
	l-0.092-0.055c0-0.18,0.052-0.359,0.092-0.532l30.868,17.737l6.103,3.509v0.095c-0.445,1.614-1.07,3.233-1.57,4.94l-3.186-1.802
	c-0.5,7.279-0.858,14.737-1.394,22.152c-0.361,1.302-0.719,2.519-1.034,3.64c-1.121,3.595-2.065,6.605-3.009,9.261
	c-0.314,0.396-0.678,0.759-1.126,1.121C414.693,436.087,414.287,436.441,413.882,436.76z"/>
<path fill="#E6A84A" d="M438.276,491.385c-10.692,6.605-23.273,13.66-28.935,15.005v-0.088c-2.15-0.137-4.492-0.854-6.644-1.75
	l-6.381-3.958c-1.975-1.749-3.329-3.594-3.42-5.121c0-0.536-0.133-5.037,0.14-5.434c1.081,3.959,9.162,9.521,16.305,10.107v0.043
	c7.146-1.708,25.567-12.667,36.933-20.168c4.086-2.656,7.188-4.94,8.717-6.115c0.04,0,0.04-0.087,0.135-0.087
	c0.129,2.425,0,4.183-0.095,6.202c-0.85,0.672-2.195,1.662-3.911,2.965C449.736,483.927,438.907,489.318,438.276,491.385z"/>
<path fill="#9A1C1F" d="M389.35,375.561l0.092,0.055c-1.123,5.518-1.886,11.056-2.963,16.71l-0.089-0.094
	C387.461,386.576,388.229,381.046,389.35,375.561z"/>
<path fill="#9A1C1F" d="M385.039,398.568c-0.629,2.295-0.899,4.493-1.031,6.692l-1.979,9.486l-0.362,0.179
	c1.083-5.61,1.843-11.468,3.372-16.941c0.493-1.933,0.897-3.854,1.35-5.752l0.089,0.094c-0.047,0.182-0.047,0.318-0.089,0.492
	C385.936,394.75,385.532,396.638,385.039,398.568z"/>
<path fill="#9A1C1F" d="M378.074,433.655l3.954-18.908l1.979-9.486c-0.183,3.009-0.226,6.019-0.809,9.253l-1.17,0.86l-3.865,18.411
	c-0.044,0-0.044-0.043-0.089-0.043c-0.362-0.267-0.762-0.492-1.124-0.717L378.074,433.655z"/>
<path fill="#B16027" d="M385.039,397.984c-1.529,5.474-2.29,11.331-3.372,16.941l0.362-0.179l-3.954,18.908l-1.124-0.63
	c0.224-2.154,0.583-4.672,0.944-7.586c0.224-1.397,0.452-2.829,0.583-4.227c0.094-0.222,0.134-0.544,0.094-0.724
	c0.134-1.164,0.267-2.285,0.491-3.502l-0.131,0.13c0.487-6.234,0.537-12.572,0.985-18.729c0.766-9.071,1.213-18.279,1.75-27.18
	l7.683,4.353c-1.121,5.485-1.888,11.015-2.961,16.671C385.936,394.129,385.532,396.051,385.039,397.984z"/>
<path fill="#1C191B" d="M378.163,433.785l-0.089,0.501l-1.169-0.724c0-0.174,0.046-0.354,0.046-0.537
	c0.361,0.225,0.762,0.45,1.124,0.717C378.119,433.742,378.119,433.785,378.163,433.785z"/>
<path fill="#F9B685" d="M378.074,434.286l0.089-0.501c2.921,1.845,5.93,3.784,8.897,5.442c8.179,4.319,16.801,6.112,26.822-2.467
	l0.134,0.129c-4.761,5.346-10.783,10.243-16.711,14.203c-2.52,1.792-5.3,3.233-8.137,4.309c-2.78,1.165-5.745,2.968-8.533,3.557
	c-2.963-4.592-8.314-10.021-14.109-11.868c0.407-0.354,0.718-0.767,1.078-1.172l0.095-0.087c0.264-0.352,0.488-0.629,0.716-0.993
	h0.044c2.691-3.5,7.593-8.802,8.444-11.854c0,0,0.046,0,0.046,0.042c0,0.184-0.046,0.363-0.046,0.537L378.074,434.286z"/>
<path fill="#E75325" d="M406.333,451.092c-11.37,7.544-29.79,18.504-36.929,20.211v-0.087c-7.142-0.585-15.23-6.112-16.309-10.115
	c-0.225-0.759-0.135-1.569,0.225-2.104c0.584-6.604,7.819-6.604,13.206-11.908c5.794,1.847,11.146,7.276,14.109,11.868
	c2.788-0.589,5.753-2.392,8.533-3.557c2.837-1.075,5.617-2.517,8.137-4.309c5.928-3.96,11.95-8.857,16.711-14.203l-0.134-0.129
	c0.404-0.319,0.811-0.673,1.211-1.078c-0.044,3.545-0.225,7.002-0.044,9.295C413.523,446.194,410.424,448.488,406.333,451.092z"/>
<path fill="#E6A84A" d="M356.374,471.708c-1.976-1.803-3.324-3.639-3.414-5.122c0-0.535-0.136-5.025,0.135-5.485
	c1.079,4.003,9.167,9.53,16.309,10.115v0.087c7.139-1.707,25.559-12.667,36.929-20.211c4.091-2.604,7.189-4.898,8.716-6.115
	c0.044,0,0.044-0.042,0.129-0.042c0.139,2.379,0,4.172-0.085,6.157c-0.858,0.715-2.203,1.705-3.906,3.006
	c-1.439,0.898-36.123,22.017-41.782,23.361v-0.043c-2.16-0.181-4.493-0.854-6.653-1.803L356.374,471.708z"/>
<path fill="#BD6C31" d="M580.782,173.846c-0.037,0-0.037,0.043-0.037,0.043c-0.05,0.09-0.096,0.138-0.139,0.225
	c0,0.45-0.05,0.947-0.091,1.439c-0.273,2.697-0.939,5.57-2.111,8.67c-0.048,0.539-0.136,1.078-0.226,1.663
	c-0.58,4.268-1.346,8.673-2.246,12.85l10.787,6.152l6.688-28.167l-12.444-7.052C581.053,171.103,580.962,172.544,580.782,173.846z"
	/>
<path fill="#F8D09A" d="M575.345,154.887l-0.313,0.269c0.634,0.721,1.172,1.574,1.662,2.468v0.05
	c0.812,0.717,1.528,1.662,2.071,2.695l25.382,14.782l13.435-7.775l-71.931-40.747C555.986,135.613,566.589,145.317,575.345,154.887z
	"/>
<linearGradient id="SVGID_2_" gradientUnits="userSpaceOnUse" x1="528.356" y1="195.8096" x2="580.9985" y2="195.8096">
	<stop  offset="0" style="stop-color:#F28332"/>
	<stop  offset="1" style="stop-color:#FBB36B"/>
</linearGradient>
<path fill="url(#SVGID_2_)" d="M528.852,221.152c0.042,0.046,0.135,0.134,0.181,0.134l-0.181-0.088
	c0.042,0.18,0.135,0.316,0.268,0.494c0.042-0.046,0.088-0.137,0.088-0.227c-0.088-0.043-0.134-0.088-0.175-0.131l0.224,0.088
	c0.176-0.542,0.4-1.078,0.575-1.616c0.096-0.227,0.188-0.451,0.273-0.718c0.634-0.181,1.351-0.224,2.065-0.271
	c2.063-0.044,4.449,0.271,6.92,0.899c0.72,0.181,1.482,0.405,2.202,0.629c0.091,0,0.178,0.045,0.225,0.088
	c5.837,1.844,11.99,5.123,16.308,8.807c1.256,1.035,2.34,2.069,3.188,3.143c0.184,0.182,0.273,0.315,0.41,0.453
	c-0.633,1.392-1.172,2.738-1.715,4.04c1.265,0.271,2.606-0.042,3.551-0.763c0.768-0.854,1.302-1.885,1.755-3.004
	c0.855-2.251,1.213-4.813,1.933-7.102c1.659-5.885,2.785-11.772,4.174-17.703c0.229-0.942,0.499-1.842,0.771-2.739
	c0.354-1.348,0.766-2.652,1.165-3.954c0.048-0.225,0.132-0.404,0.223-0.627c0.356-1.079,0.72-2.113,1.084-3.146
	c0.18-0.584,0.356-1.123,0.534-1.662c1.306-3.863,2.427-7.37,3.28-10.289c0.09-0.585,0.178-1.124,0.226-1.663
	c1.172-3.1,1.838-5.974,2.111-8.67c0.041-0.493,0.091-0.99,0.091-1.439c0.043-0.086,0.089-0.134,0.139-0.225
	c0,0,0-0.043,0.037-0.043c0.181-1.302,0.271-2.743,0.181-4.178c-0.09-3.282-0.761-6.698-2.197-9.3
	c-0.543-1.033-1.26-1.978-2.071-2.695v-0.05c-0.266-0.266-0.581-0.492-0.895-0.672c-0.047-0.043-0.134-0.088-0.184-0.132
	c-0.09-0.047-0.181-0.138-0.271-0.18c-0.003-0.002-0.008-0.002-0.008-0.002c-1.032-0.917-2.26-1.395-3.627-1.436h-0.052
	c-0.851-0.225-1.704-0.358-2.553-0.449c-3.777-0.405-7.641,0.403-11.193,1.795c-0.088,0-0.175,0.044-0.271,0.092
	c-3.138,1.392-5.742,3.369-7.857,5.75c-4.133,4.49-6.692,10.378-8.63,16.488c-0.847,2.694-1.61,5.391-2.288,8.041
	c-0.496,1.752-0.982,3.458-1.44,5.121c-0.762,3.01-5.97,14.107-8.125,21.833c-0.588,1.977-0.944,3.731-0.944,5.079
	c0,0.673,0.043,1.211,0.221,1.66C528.674,220.793,528.712,220.974,528.852,221.152z M574.087,198.331
	c0.052-0.182,0.136-0.36,0.181-0.542h0.044C574.268,197.971,574.18,198.148,574.087,198.331z"/>
<path fill="#252356" d="M537.028,262.261v0.043c0.133-0.043,0.269-0.13,0.397-0.182v-0.044
	C537.296,262.174,537.161,262.217,537.028,262.261z"/>
<path fill="#F9B685" d="M537.028,262.261c0.133-0.044,0.269-0.087,0.397-0.183v0.044c6.695-3.139,11.728-4.716,12.987-5.976
	c0.091-0.087,0.137-0.172,0.179-0.264c1.308-1.797,3.151-5.35,5.259-10.066c1.121-2.471,2.336-5.256,3.548-8.222
	c0.139-0.224,0.223-0.449,0.311-0.721c0.543-1.302,1.082-2.647,1.715-4.04c-0.137-0.138-0.227-0.271-0.41-0.453
	c-0.849-1.074-1.933-2.108-3.188-3.143c-4.317-3.684-10.471-6.963-16.308-8.807c-0.047-0.043-0.134-0.088-0.225-0.088
	c-0.72-0.224-1.482-0.449-2.202-0.629c-2.471-0.627-4.856-0.943-6.92-0.899c-0.715,0.048-1.432,0.09-2.065,0.271
	c-0.085,0.268-0.178,0.491-0.273,0.718c-0.175,0.539-0.399,1.075-0.575,1.616c0,0.043-0.049,0.043-0.049,0.043
	c0,0.09-0.046,0.181-0.088,0.227c-1.031,2.875-2.065,5.57-3.146,8.086c-0.131,0.404-0.312,0.81-0.446,1.216
	c-0.049,0.042-0.049,0.134-0.095,0.176c-0.892,0.496-1.976,1.083-3.277,1.708c-0.134,0.091-0.271,0.134-0.399,0.229
	c-2.027,1.12-4.005,2.199-5.977,3.276c-3.062,1.751-6.071,3.458-9.123,5.214c-1.751,1.029-3.553,2.063-5.303,3.146
	c-0.091,0.043-0.178,0.086-0.268,0.171c-1.665,0.949-3.28,1.979-4.939,3.02c-0.678,0.404-1.353,0.849-2.027,1.254
	c-0.449,0.269-0.896,0.534-1.347,0.853c-3.371,2.066-6.739,4.136-10.105,6.02c-1.799,0.897-4.716,2.428-7.729,3.687
	c-2.242,0.893-4.535,1.612-6.468,1.842c-0.719,0.086-1.393,0.086-1.979,0c0.043-0.091,0.043-0.139,0.091-0.229
	c-1.035-0.31-2.065-0.668-3.053-1.029c-6.069-2.203-11.369-4.852-18.333-5.127c-3.546,2.746-6.514,5.937-9.438,9.122
	c0.052,1.036,0.052,2.027,0.052,3.011c0.04,2.203,0.087,4.272,0.087,6.156c0.042,2.471,0.091,4.674,0.091,6.418
	c0.987-0.397,2.111-0.802,3.278-1.205c1.748-0.586,3.591-1.082,4.758-1.216c-1.927,1.532-3.682,3.369-5.476,5.076
	c-0.811,0.769-1.615,1.492-2.476,2.157c0,0.318,0,0.542,0.049,0.585c0,0-0.183,0.319-0.539,0.768c0,0.044-0.047,0.087-0.087,0.129
	c0.803,0.449,1.522,0.769,2.242,0.992c1.569,0.491,3.053,0.354,4.994-0.587c1.158-1.206,2.552-2.206,4.033-3.053
	c1.084-0.671,2.204-1.258,3.286-1.802c1.207-0.619,2.427-1.164,3.59-1.75c3.192,0.319,6.383,1.259,9.569,2.026
	c1.082,0.268,2.202,0.534,3.28,0.716c1.659,0.274,3.281,0.5,4.945,0.449c0.625-0.044,1.26-0.088,1.887-0.175
	c0.76-0.051,1.482-0.136,2.243-0.274c1.884-0.225,3.821-0.534,5.704-0.94c0.588-0.138,1.175-0.275,1.756-0.405
	c2.827-0.629,5.611-1.396,8.352-2.293c2.877-0.852,5.71-1.84,8.452-2.832c3.14-1.119,6.331-2.245,9.565-3.366
	c3.775-1.302,7.549-2.608,11.322-3.953c4.448-1.621,8.852-3.324,13.118-5.214c0.093-0.041,0.182-0.041,0.225-0.137
	C535.05,263.205,536.04,262.756,537.028,262.261z M450.494,262.123v0.052c0.315,1.302,0.989,2.919,1.622,3.906l-0.051,0.31
	c-2.554-0.758-5.656-2.15-8.396-2.15C445.917,263.248,447.848,262.079,450.494,262.123z M475.298,275.018
	c0.043,0.052,0.086,0.091,0.133,0.139l-0.09,0.042C475.341,275.157,475.298,275.07,475.298,275.018z"/>
<path fill="#C8923E" d="M564.518,250.491c0.496-2.785,1.17-5.886,1.932-9.119c0.497-2.16,0.991-4.402,1.576-6.648
	c2.15-9.122,4.492-18.286,5.254-24.082l-0.045-0.045c0.312-1.213,0.588-2.47,0.904-3.774c0.629-2.562,1.206-5.305,1.793-8.087
	c0.9-4.177,1.666-8.582,2.246-12.85c-0.854,2.919-1.975,6.425-3.28,10.289c-0.178,0.54-0.354,1.078-0.534,1.662
	c-0.364,1.033-0.728,2.067-1.084,3.146c-0.091,0.224-0.175,0.403-0.223,0.627c-0.399,1.302-0.812,2.606-1.165,3.954
	c-0.272,0.897-0.542,1.797-0.771,2.739c-1.389,5.931-2.515,11.818-4.174,17.703c-0.72,2.289-1.077,4.851-1.933,7.102
	c-0.453,1.12-0.987,2.151-1.755,3.004c-0.944,0.721-2.286,1.034-3.551,0.763c-0.088,0.271-0.172,0.497-0.311,0.721
	c-1.212,2.966-2.427,5.751-3.548,8.222c-2.107,4.717-3.951,8.27-5.259,10.066c-0.042,0.092-0.088,0.177-0.179,0.264
	c-1.26,1.26-6.292,2.837-12.987,5.976c-0.129,0.052-0.265,0.139-0.397,0.182v-0.043c-0.988,0.495-1.978,0.943-2.969,1.345
	c-0.043,0.096-0.132,0.096-0.225,0.137l1.348,0.765l2.159,1.216l28.528,16.394c0-0.043,0-0.086-0.05-0.138
	c-1.302-6.961-2.287-13.7-2.287-22.771C563.533,256.918,563.937,253.905,564.518,250.491z"/>
<linearGradient id="SVGID_3_" gradientUnits="userSpaceOnUse" x1="228.1636" y1="353.8022" x2="616.105" y2="353.8022">
	<stop  offset="0" style="stop-color:#FBB36B"/>
	<stop  offset="1" style="stop-color:#F28332"/>
</linearGradient>
<path fill="url(#SVGID_3_)" d="M615.783,344.477c-0.224,12.988-7.364,27.041-26.735,41.157c-1.209,0.845-2.514,1.75-3.814,2.64
	c-2.88,2.025-6.02,3.958-9.434,5.941c-1.031,0.574-2.022,1.163-3.059,1.698c-3.687,2.026-7.368,3.871-11.053,5.579
	c-14.824,6.873-29.65,11.14-44.024,13.521c-5.658,0.896-11.234,1.569-16.712,1.932c-23.407,1.611-45.2-1.397-63.529-5.932
	c-3.593-0.896-7.006-1.838-10.33-2.831c-3.325-0.989-6.519-2.017-9.524-3.051c-21.794-7.512-35.272-15.59-35.272-15.59
	s-17.703-10.202-45.329-26.153v-0.18c-21.971-12.712-40.794-23.586-54.318-31.354c-11.454-6.657-19.09-11.055-21.609-12.495
	c-0.538-0.361-0.854-0.482-0.854-0.482s-30.504-19.996-30.732-48.26c-7.95,35.851,23.14,61.996,29.562,66.988
	c0.766,0.578,1.17,0.854,1.17,0.854s8.313,4.803,22.462,12.933v0.406c3.144,1.847,6.379,3.682,9.703,5.613v-0.311
	c4.359,2.52,8.72,5.035,13.075,7.544l-0.042,0.045c45.015,26.11,76.911,44.485,76.911,44.485s13.391,8.08,35.134,15.538
	c0.177,0.043,0.315,0.137,0.491,0.182c7.105,2.379,15.009,4.715,23.636,6.647c0.759,0.225,1.573,0.363,2.379,0.586
	c5.171,1.121,10.556,2.07,16.172,2.873c10.333,1.439,21.207,2.207,32.664,1.931c2.696-0.043,5.437-0.172,8.227-0.397
	c5.477-0.362,11.046-0.991,16.665-1.888c14.374-2.38,29.2-6.656,44.024-13.519c1.666-0.77,3.283-1.538,4.94-2.39
	c3.062-1.526,6.112-3.14,9.171-4.943c3.414-1.972,6.554-3.948,9.434-5.93c1.664-1.123,3.23-2.242,4.715-3.363
	c24.127-18.332,27.273-37.07,25.879-60.025H615.783z"/>
<path fill="#F9A873" d="M519.503,96.302c-0.765,2.83-0.047,5.211,0.134,8.491c1.079-0.316,2.118-0.673,3.101-1.122
	c4.049-1.89,5.167-5.977,5.573-10.199c-0.313-1.574-0.766-2.919-0.996-4.449c-0.486-3.325-1.206-5.75-1.068-8.759
	c0-0.136,0-0.27,0-0.405c-1.172,0.044-2.34,0-3.549-0.136c-0.1,0.271-0.183,0.496-0.275,0.765c-1.433,3.908-2.067,7.142-2.067,7.142
	C521.617,91.585,520.76,91.629,519.503,96.302z"/>
<path fill="#F9B685" d="M491.876,96.751c0.038,1.077,0.09,2.066,0.09,2.966c5.254-2.654,13.295,2.425,14.823,7.593
	c4.176-0.943,8.713-1.35,12.848-2.517c-0.181-3.28-0.898-5.661-0.134-8.491c1.257-4.673,2.113-4.717,0.852-8.672
	c0,0,0.635-3.234,2.067-7.142c-1.975,0.403-4.041,1.032-6.061,1.211c-5.301,0.27-9.525-0.851-14.561-2.516
	c1.932-0.582,3.644-1.435,5.572-1.977c-4.672-2.516-9.024-4.762-12.981-7.724c-1.037,3.635-1.48,6.379-1.48,6.379
	c1.167,4.762,0.311,4.85-1.035,10.557c0,0.178-0.046,0.36-0.094,0.536C491.155,90.192,491.737,93.021,491.876,96.751z"/>
<path fill="#FCB854" d="M495.424,127.886v-0.044c0-1.617,0.044-3.191,0.357-4.717c0.044-0.542,0.184-1.033,0.271-1.528
	c-1.351-0.628-2.562-1.394-3.597-2.337c-0.854,1.482-1.747,2.921-2.736,4.311c-3.595,5.303-7.683,10.606-7.863,17.343
	c1.793-1.932,4.176-3.817,6.829-5.166c1.622-0.855,3.367-1.528,5.116-1.842c0.59-0.134,1.215-0.227,1.799-0.227
	c0-0.988-0.042-1.975-0.087-3.007C495.468,129.772,495.424,128.83,495.424,127.886z"/>
<path fill="#828EA2" d="M366.706,225.376l31.585,32.84l6.872,7.145l22.911,23.861l0.406,0.172c0-0.043-0.044-0.266-0.044-0.533
	c-0.048-1.889-0.138-8.003-0.311-16.446v-0.048c0-0.759,0-1.527-0.052-2.289c-0.219-13.12-0.534-31.043-0.806-47.844
	c-0.139-6.203-0.226-12.222-0.314-17.795c0-0.717-0.044-1.437-0.044-2.111c-0.182-12.667-0.362-22.596-0.448-26.102h-0.051h-0.126
	l-26.646,10.422l-17.028,6.696l-24.44,9.567c4.042,4.313,6.74,8.447,6.74,8.447S365.675,217.063,366.706,225.376z"/>
<path fill="#F6C17F" d="M604.684,175.462l-14.736,70.674l-9.479,45.328c3.188,2.284,6.693,5.027,10.202,8.175l26.911-132.265
	l-13.435,7.775L604.684,175.462z"/>
<path fill="#F1A758" d="M604.684,175.462l-0.537-0.313l-25.382-14.782c1.437,2.602,2.107,6.018,2.197,9.3l12.444,7.052
	l-6.688,28.167l-10.787-6.152c-0.587,2.782-1.164,5.525-1.793,8.087l11.813,6.649l-5.618,27.853l-1.352,6.789l-12.533-6.742
	c-0.762,3.233-1.436,6.334-1.932,9.119l12.629,6.782l-5.663,28.034c2.339,1.483,5.482,3.554,8.984,6.157l9.479-45.328
	L604.684,175.462z"/>
<linearGradient id="SVGID_4_" gradientUnits="userSpaceOnUse" x1="566.6284" y1="458.5718" x2="590.1284" y2="458.5718">
	<stop  offset="0" style="stop-color:#F28332"/>
	<stop  offset="1" style="stop-color:#FBB36B"/>
</linearGradient>
<path fill="url(#SVGID_4_)" d="M575.799,413.795c-3.059,1.804-6.109,3.417-9.171,4.943v78.847c0,8.313,5.216,15.056,11.728,15.056
	c3.237,0,6.199-1.708,8.363-4.406c2.15-2.699,3.409-6.468,3.409-10.649l-0.181-93.083c-1.484,1.121-3.051,2.24-4.715,3.363
	C582.353,409.847,579.213,411.824,575.799,413.795z"/>
<path fill="#F0993B" d="M566.45,241.372l12.533,6.742l1.352-6.789l-12.309-6.602C567.441,236.969,566.947,239.211,566.45,241.372z"
	/>
<path fill="#252356" d="M574.087,198.331c0.093-0.182,0.181-0.36,0.225-0.542h-0.044
	C574.223,197.971,574.139,198.148,574.087,198.331z"/>
<linearGradient id="SVGID_5_" gradientUnits="userSpaceOnUse" x1="488.2759" y1="166.8364" x2="576.6938" y2="166.8364">
	<stop  offset="0" style="stop-color:#F28332"/>
	<stop  offset="1" style="stop-color:#FBB36B"/>
</linearGradient>
<path fill="url(#SVGID_5_)" d="M536.62,121.55c-0.357,1.934-1.123,3.862-2.199,5.749c-1.028,1.755-2.287,3.46-3.682,5.123
	c-1.803,2.067-3.824,4.044-5.938,5.93c-0.037,0.045-0.084,0.045-0.084,0.045c-1.933,1.664-3.904,3.236-5.791,4.628
	c-0.276,0.227-0.544,0.406-0.813,0.584c-2.158,1.571-4.221,2.921-5.929,4.044c0.352-1.797,0.311-4.132-0.365-6.113
	c-0.854-2.56-2.738-4.625-5.973-4.535c-0.044,0-0.091,0-0.134,0c-1.212,0.18-2.514,0.853-3.815,1.842
	c-0.41,0.315-0.812,0.628-1.218,0.945c-1.303,1.12-2.606,2.47-3.772,3.817c-0.812,0.899-1.531,1.798-2.159,2.65
	c-4.761,6.47-5.347,17.702-6.152,25.563c-0.631,5.302-0.177,10.469,0.091,15.726h-0.091c0,2.651,0.134,5.255,0.313,7.818
	c0.137,0.088,0.317,0.225,0.492,0.312c0.586,0.406,1.168,0.766,1.712,1.127c0.49,0.312,0.94,0.582,1.435,0.854
	c3.821,2.425,7.728,4.849,11.64,7.186c3.052,1.886,6.152,3.729,9.208,5.525c1.079,0.676,2.159,1.304,3.229,1.889
	c1.308,0.761,2.562,1.483,3.823,2.247c2.694,1.526,5.344,3.01,7.908,4.447c0-1.348,0.356-3.102,0.944-5.079
	c2.155-7.726,7.363-18.823,8.125-21.833c0.458-1.663,0.944-3.369,1.44-5.121c0.678-2.649,1.441-5.347,2.288-8.041
	c1.938-6.11,4.497-11.998,8.63-16.488c2.115-2.382,4.72-4.359,7.857-5.75c0.097-0.048,0.184-0.092,0.271-0.092
	c3.553-1.393,7.416-2.2,11.193-1.795c0.849,0.091,1.702,0.224,2.553,0.449h0.052c1.367,0.042,2.595,0.519,3.627,1.434
	c0,0,0.005,0.002,0.008,0.005c0.09,0.042,0.181,0.132,0.271,0.18c0.05,0.044,0.137,0.089,0.184,0.132
	c0.313,0.18,0.629,0.406,0.895,0.672c-0.49-0.894-1.028-1.748-1.662-2.468l0.313-0.269c-8.756-9.569-19.359-19.273-29.694-28.259
	c-0.946-0.765-1.838-1.574-2.736-2.336c-0.363-0.314-0.721-0.629-1.082-0.943c-1.708-3.012-3.636-6.02-5.709-8.627
	c0.54,1.482,0.767,2.921,0.767,4.404C536.89,119.936,536.799,120.741,536.62,121.55z"/>
<path fill="#F9A873" d="M540.307,96.259c1.663-4.182-3.417-5.394-5.169-3.958c-0.489,1.843-1.122,5.079-1.796,8.223
	c-0.091,0.047-0.137,0.092-0.227,0.138c-0.045,0.359-0.045,0.715-0.045,1.075c-0.447,1.887-0.9,3.641-1.388,4.943
	c0.04,0.043,0.128,0.09,0.177,0.133c0.448,0.27,0.897,0.497,1.256,0.54c0.403,0.135,0.761,0.135,1.081,0.09
	C537.608,106.949,538.957,99.537,540.307,96.259z"/>
<path fill="#FCB854" d="M533.876,111.397c0,0.269-0.042,0.496-0.042,0.764c-0.315,1.842-0.902,3.461-1.75,4.899
	c-3.954,6.691-12.938,9.433-19.816,13.836c-2.107,1.346-3.996,2.874-5.479,4.716c-0.36,0.403-0.674,0.81-0.987,1.259
	c0.044,0.043,0.044,0.089,0.044,0.133c3.234-0.09,5.119,1.976,5.973,4.535c0.676,1.981,0.717,4.316,0.365,6.113
	c1.708-1.123,3.771-2.473,5.929-4.044c0.269-0.179,0.536-0.358,0.813-0.584c1.887-1.393,3.858-2.965,5.791-4.628
	c0,0,0.047,0,0.084-0.045c2.114-1.886,4.136-3.863,5.938-5.93c1.395-1.663,2.653-3.368,3.682-5.123
	c1.076-1.887,1.842-3.815,2.199-5.749c0.18-0.81,0.271-1.614,0.271-2.425c0-1.483-0.227-2.921-0.767-4.404
	c-0.442-1.122-1.073-2.291-1.836-3.368c-0.138-0.138-0.229-0.27-0.36-0.405C533.927,111.084,533.876,111.261,533.876,111.397z"/>
<path fill="#1B1849" d="M529.208,221.466c0,0,0.049,0,0.049-0.043l-0.224-0.088C529.074,221.378,529.12,221.422,529.208,221.466z"/>
<path fill="#1B1849" d="M528.852,221.152c0,0-0.055,0,0,0.046l0.181,0.088C528.987,221.287,528.894,221.198,528.852,221.152z"/>
<path fill="#F1A758" d="M509.301,445.115c4.632,0,8.362-4.182,8.362-9.208v-1.26c-5.619,0.896-11.188,1.525-16.665,1.888
	C501.262,441.295,504.905,445.115,509.301,445.115z"/>
<path fill="#CBE5F2" d="M505.846,137.005c0-0.044,0-0.09-0.044-0.133c-0.047,0.043-0.047,0.089-0.09,0.133
	C505.755,137.005,505.802,137.005,505.846,137.005z"/>
<path fill="#F89C6B" d="M500.679,139.792c0.406-0.317,0.808-0.63,1.218-0.945c1.302-0.989,2.604-1.662,3.815-1.842
	c0.043-0.044,0.043-0.09,0.09-0.133c0.313-0.45,0.627-0.856,0.987-1.259c1.482-1.842,3.371-3.371,5.479-4.716
	c6.878-4.403,15.862-7.146,19.816-13.836c0.848-1.438,1.435-3.057,1.75-4.899c0-0.268,0.042-0.496,0.042-0.764
	c0-0.136,0.051-0.313,0.051-0.449v-0.045c0.132-1.123,0.18-2.29,0.27-3.46c-0.32,0.045-0.678,0.045-1.081-0.09
	c0,0.762-0.087,1.53-0.268,2.293c0,0.042,0,0.042,0,0.042c-0.267,1.123-0.678,2.156-1.303,3.189
	c-4.675,7.146-18.193,11.817-28.939,10.47c-2.018-0.224-3.906-0.72-5.612-1.396c-0.312-0.088-0.625-0.224-0.898-0.357h-0.042
	c-0.088,0.495-0.228,0.987-0.271,1.528c-0.313,1.526-0.357,3.1-0.357,4.717v0.044c0,0.944,0.044,1.886,0.09,2.785
	c0.045,1.032,0.087,2.02,0.087,3.007c0.091-0.042,0.181-0.042,0.271-0.042c0.134,2.067-0.181,4.179-0.535,6.335
	c-0.05,0.089-0.05,0.181-0.096,0.269c-0.448,2.426-1.029,4.807-1.349,7.144c0.273-0.359,0.544-0.72,0.854-1.125
	c0.628-0.852,1.348-1.751,2.159-2.65C498.073,142.263,499.376,140.913,500.679,139.792z"/>
<polygon fill="#687589" points="469.992,297.173 446.139,304.311 445.243,304.581 445.018,309.839 444.744,315.59 450.719,313.022 
	472.604,303.726 496.322,293.664 496.095,291.603 495.918,289.394 493.94,289.982 "/>
<path fill="#F6C96C" d="M445.195,255.203c6.964,0.275,12.264,2.924,18.333,5.127c0.987,0.361,2.018,0.72,3.053,1.029
	c-0.048,0.091-0.048,0.139-0.091,0.229c0.587,0.086,1.261,0.086,1.979,0c1.933-0.229,4.226-0.949,6.468-1.842
	c3.014-1.259,5.931-2.789,7.729-3.687c3.366-1.884,6.734-3.953,10.105-6.02c0.45-0.318,0.897-0.584,1.347-0.853
	c0.675-0.405,1.35-0.85,2.027-1.254c1.659-1.04,3.274-2.07,4.939-3.02l-2.563-1.479c-0.313,0.135-0.631,0.271-0.941,0.406
	l-2.021-1.077l-2.204-1.216l-23.363-12.983c-0.041-0.675-0.088-1.349-0.178-2.022c-15.271-8.851-24.352-14.061-24.352-14.061
	s-0.268-0.136-0.848-0.449c-0.097,0.088-0.184,0.224-0.229,0.313c-0.897,1.347-1.841,2.696-2.784,4.001
	c-2.199,0.401-4.359,1.167-6.426,2.065c0.184,15.905,0.406,32.978,0.582,45.911C438.681,261.139,441.649,257.949,445.195,255.203z
	 M468.558,255.794c0.135,0,0.226,0.042,0.31,0.042c-0.084,0.087-0.221,0.139-0.355,0.177
	C468.512,255.923,468.558,255.836,468.558,255.794z"/>
<path fill="#8A1B39" d="M495.201,140.195l0.041,0.045c0.046-0.088,0.046-0.18,0.096-0.269
	C495.288,140.061,495.242,140.105,495.201,140.195z"/>
<path fill="#301611" d="M492.146,67.684c-0.135,0.854-0.315,1.975-0.456,3.278c0.276-0.988,0.588-1.932,0.945-2.83
	C492.457,67.952,492.322,67.818,492.146,67.684z"/>
<path fill="#9A1C1F" d="M488.328,112.296c0.534,2.425,1.659,4.448,3.186,6.065c0.27,0.313,0.581,0.629,0.943,0.897
	c1.035,0.943,2.246,1.709,3.597,2.337h0.042c0.273,0.133,0.587,0.269,0.898,0.357c1.706,0.676,3.595,1.171,5.612,1.396
	c10.746,1.347,24.265-3.325,28.939-10.47c0.625-1.033,1.036-2.066,1.303-3.189c0,0,0,0,0-0.042c0.181-0.763,0.268-1.531,0.268-2.293
	c-0.358-0.043-0.808-0.27-1.256-0.54c-0.049-0.043-0.137-0.09-0.177-0.133c0.487-1.303,0.94-3.057,1.388-4.943
	c0-0.359,0-0.715,0.045-1.075c0.09-0.046,0.136-0.091,0.227-0.138c0.674-3.144,1.307-6.38,1.796-8.223
	c1.752-1.436,6.832-0.224,5.169,3.958c-1.351,3.278-2.699,10.689-6.11,11.184c-0.09,1.171-0.138,2.337-0.27,3.46v0.045
	c0.132,0.136,0.223,0.267,0.36,0.405c1.121-0.674,1.933-0.45,3.32-1.438c0.499-1.801,1.258-3.417,2.293-5.123l0.273,0.179
	c5.655-8.852,10.329-17.431,15.401-27.809c4.133-8.492-1.968-19.588-10.193-26.464l-0.093,0.136
	c-13.43-11.321-38.677-9.3-48.653,3.954c-3.145,3.054-6.382,5.974-10.874,5.843c1.979,2.828,4.088,5.073,6.384,7.051
	c0.176,0.135,0.311,0.268,0.489,0.448c-0.357,0.898-0.669,1.842-0.945,2.83c0,0,0,0,0,0.047c-1.479,5.837-1.209,12.803-1.522,18.24
	c-0.27,3.55-1.08,7.099-1.665,10.647C487.786,104.029,487.293,108.161,488.328,112.296z M491.876,86.418
	c1.346-5.707,2.202-5.795,1.035-10.557c0,0,0.443-2.744,1.48-6.379c3.957,2.962,8.31,5.208,12.981,7.724
	c-1.929,0.542-3.641,1.395-5.572,1.977c5.035,1.665,9.26,2.786,14.561,2.516c2.02-0.179,4.086-0.808,6.061-1.211
	c0.093-0.269,0.176-0.493,0.275-0.765c1.209,0.136,2.377,0.18,3.549,0.136c0,0.136,0,0.269,0,0.405
	c-0.138,3.008,0.582,5.434,1.068,8.759c0.23,1.53,0.684,2.875,0.996,4.449c-0.406,4.223-1.524,8.31-5.573,10.199
	c-0.982,0.449-2.021,0.806-3.101,1.122c-4.135,1.167-8.672,1.574-12.848,2.517c-1.528-5.168-9.569-10.247-14.823-7.593
	c0-0.9-0.052-1.889-0.09-2.966c-0.14-3.73-0.722-6.56-0.094-9.797C491.831,86.778,491.876,86.597,491.876,86.418z"/>
<linearGradient id="SVGID_6_" gradientUnits="userSpaceOnUse" x1="464.5581" y1="209.0425" x2="529.1196" y2="209.0425">
	<stop  offset="0" style="stop-color:#F28332"/>
	<stop  offset="1" style="stop-color:#FBB36B"/>
</linearGradient>
<path fill="url(#SVGID_6_)" d="M469.814,226.544c0.09,0.673,0.137,1.347,0.178,2.022l23.363,12.983l2.204,1.216l2.021,1.077
	c0.311-0.135,0.628-0.271,0.941-0.406l2.563,1.479c0.09-0.085,0.177-0.128,0.268-0.171c1.75-1.083,3.552-2.117,5.303-3.146
	c3.052-1.756,6.062-3.463,9.123-5.214c1.972-1.077,3.949-2.156,5.977-3.276c0.128-0.096,0.266-0.139,0.399-0.229
	c1.302-0.624,2.386-1.211,3.277-1.708c0.046-0.042,0.046-0.134,0.095-0.176c0.135-0.406,0.315-0.812,0.446-1.216
	c1.081-2.516,2.115-5.211,3.146-8.086c-0.133-0.178-0.226-0.314-0.268-0.494c-0.055-0.046,0-0.046,0-0.046
	c-0.14-0.178-0.178-0.359-0.275-0.54c-0.178-0.449-0.221-0.987-0.221-1.66c-2.564-1.438-5.214-2.921-7.908-4.447
	c-1.262-0.764-2.516-1.485-3.823-2.247c-1.07-0.584-2.15-1.213-3.229-1.889c-3.056-1.795-6.156-3.639-9.208-5.525
	c-3.912-2.337-7.818-4.761-11.64-7.186c-0.494-0.272-0.944-0.542-1.435-0.854c-0.544-0.361-1.126-0.721-1.712-1.127
	c-0.175-0.087-0.355-0.224-0.492-0.312c-0.272-0.178-0.543-0.359-0.805-0.54c-0.63-0.361-1.262-0.764-1.846-1.213
	c-0.808-0.493-1.573-0.989-2.339-1.482c-5.342-3.549-10.467-7.101-15.052-10.512c-1.567-2.609-2.963-5.437-4.129-8.449
	c-0.048,0.271-0.135,0.542-0.181,0.809C466.667,190.874,468.422,209.383,469.814,226.544z"/>
<linearGradient id="SVGID_7_" gradientUnits="userSpaceOnUse" x1="459.7437" y1="147.5605" x2="495.9038" y2="147.5605">
	<stop  offset="0" style="stop-color:#F28332"/>
	<stop  offset="1" style="stop-color:#FBB36B"/>
</linearGradient>
<path fill="url(#SVGID_7_)" d="M464.333,172.184c0.092,0.221,0.134,0.403,0.225,0.584c0.046,0.136,0.092,0.267,0.181,0.402
	c1.166,3.012,2.562,5.84,4.129,8.449c4.585,3.411,9.71,6.963,15.052,10.512c0.766,0.493,1.531,0.989,2.339,1.482
	c0.584,0.45,1.216,0.852,1.846,1.213c0.262,0.18,0.532,0.362,0.805,0.54c-0.18-2.563-0.313-5.167-0.313-7.818h0.091
	c-0.268-5.257-0.722-10.423-0.091-15.726c0.806-7.861,1.392-19.093,6.152-25.563c-0.311,0.404-0.581,0.766-0.854,1.125
	c0.319-2.337,0.9-4.718,1.349-7.144l-0.041-0.045c0.041-0.09,0.087-0.135,0.137-0.224c0.354-2.156,0.669-4.268,0.535-6.335
	c-0.091,0-0.181,0-0.271,0.042c-0.584,0-1.209,0.093-1.799,0.227c-1.749,0.314-3.494,0.987-5.116,1.842
	c-2.653,1.349-5.036,3.234-6.829,5.166c0.181-6.736,4.269-12.04,7.863-17.343c0.989-1.39,1.883-2.829,2.736-4.311
	c-0.362-0.268-0.674-0.584-0.943-0.897c-1.526-1.617-2.651-3.641-3.186-6.065c-1.034-4.135-0.542-8.267,0.175-12.4
	c-3.008-0.315-6.289-0.089-9.39,0.538c-0.089-0.043-0.134,0-0.218,0c-3.734,0.717-7.146,1.932-9.392,3.145
	c-0.138,0.092-0.229,0.134-0.318,0.225c-0.716,0.539-1.397,1.168-1.979,1.796c-0.045,0.091-0.045,0.18-0.088,0.27
	c-0.806,1.934-1.573,3.911-2.245,5.976C458.806,130.22,457.505,153.897,464.333,172.184z"/>
<path fill="#A8AFBF" d="M475.565,282.747c-0.761,0.139-1.483,0.224-2.243,0.274c-0.627,0.087-1.262,0.131-1.887,0.175
	c-1.664,0.051-3.286-0.175-4.945-0.449c-1.078-0.182-2.198-0.448-3.28-0.716c-3.187-0.768-6.377-1.707-9.569-2.026
	c-1.163,0.586-2.383,1.131-3.59,1.75c-1.082,0.544-2.202,1.131-3.286,1.802c-1.481,0.847-2.875,1.847-4.033,3.053
	c-1.941,0.941-3.425,1.078-4.994,0.587c-0.72-0.224-1.439-0.543-2.242-0.992c-0.319,0.363-0.724,0.812-1.306,1.218
	c-0.808,0.584-1.888,1.119-3.285,1.353c-0.711,0.129-1.571,0.172-2.467,0.087c0,0.268,0.044,0.49,0.044,0.533l-0.406-0.172
	l-25.066-13.394l-7.144-3.819l-24.936-13.297c0.27,1.979,0.498,3.954,0.768,5.837c7.681,4.136,15.584,8.36,23.317,12.495
	c2.33,1.212,4.67,2.468,6.961,3.685c8,4.268,15.593,8.354,22.241,11.855c3.772,2.071,7.278,3.907,10.374,5.527
	c0.361,0.226,0.769,0.448,1.129,0.631c0.177,0.085,0.353,0.224,0.535,0.318c2.471,1.345,4.673,2.468,6.562,3.458
	c1.259,0.715,2.379,1.303,3.323,1.792l23.853-7.138l23.948-7.191l1.979-0.588c0,0-1.8-0.939-4.853-2.646
	c-1.261-0.673-2.7-1.44-4.359-2.345c-0.05-0.035-0.087-0.035-0.087-0.087h-0.046c-1.213-0.982-2.381-1.923-3.549-2.915
	c-0.581,0.13-1.168,0.268-1.756,0.405C479.386,282.212,477.449,282.522,475.565,282.747z"/>
<path fill="#CBE5F2" d="M475.298,275.018c0,0.052,0.043,0.139,0.043,0.181l0.09-0.042
	C475.384,275.109,475.341,275.07,475.298,275.018z"/>
<path fill="#838E93" d="M468.558,255.794c0,0.042-0.046,0.129-0.046,0.219c0.135-0.038,0.271-0.09,0.355-0.177
	C468.784,255.836,468.693,255.794,468.558,255.794z"/>
<path fill="#28285F" d="M467.438,105.063c-0.052,0.18-0.138,0.36-0.231,0.537c0.581-0.627,1.263-1.257,1.979-1.796
	C468.469,104.209,467.838,104.655,467.438,105.063z"/>
<path fill="#171142" d="M464.739,173.17c-0.089-0.135-0.135-0.266-0.181-0.402c-0.091-0.181-0.133-0.363-0.225-0.584
	c0.044,0.27,0.092,0.538,0.092,0.806c0.042,0.317,0.09,0.629,0.133,0.989C464.604,173.712,464.691,173.441,464.739,173.17z"/>
<linearGradient id="SVGID_8_" gradientUnits="userSpaceOnUse" x1="432.1226" y1="148.0571" x2="464.8735" y2="148.0571">
	<stop  offset="0" style="stop-color:#F28332"/>
	<stop  offset="1" style="stop-color:#FBB36B"/>
</linearGradient>
<path fill="url(#SVGID_8_)" d="M458.853,184.269c1.799-3.82,3.593-7.593,5.572-11.279c0-0.268-0.048-0.536-0.092-0.806
	c-6.828-18.287-5.527-41.964,0.54-60.339c-5.661,6.066-22.959,33.335-27.229,41.197c-2.021,3.687-3.862,7.326-5.522,10.786
	C441.196,169.084,452.517,175.644,458.853,184.269z"/>
<path fill="#838E93" d="M452.116,266.081c-0.633-0.987-1.307-2.604-1.622-3.906v-0.052c-2.646-0.044-4.577,1.125-6.824,2.117
	c2.739,0,5.842,1.393,8.396,2.15L452.116,266.081z"/>
<path fill="#F9B685" d="M434.996,206.955c0,0.227,0,0.449,0,0.675c0.041,3.459,0.138,7.099,0.18,10.783
	c2.066-0.899,4.227-1.664,6.426-2.065c0.943-1.305,1.887-2.654,2.784-4.001c0.046-0.089,0.133-0.225,0.229-0.313
	c5.436-8.357,9.7-18.151,14.238-27.765c-6.336-8.625-17.657-15.185-26.73-20.441c-0.986,1.975-1.888,3.861-2.741,5.748l5.169,2.787
	C434.55,172.363,434.771,187.639,434.996,206.955z"/>
<path fill="#77829B" d="M445.243,304.581l0.896-0.27c-0.944-0.489-2.064-1.077-3.323-1.792c-1.889-0.99-4.091-2.113-6.562-3.458
	c-0.183-0.095-0.358-0.233-0.535-0.318c-0.36-0.183-0.768-0.405-1.129-0.631c-3.096-1.62-6.602-3.456-10.374-5.527
	c-6.648-3.501-14.241-7.588-22.241-11.855c-2.291-1.217-4.631-2.473-6.961-3.685c-7.733-4.135-15.637-8.359-23.317-12.495
	c0.491,4.093,0.944,7.908,1.345,11.327c6.694,3.723,13.523,7.543,20.17,11.233c2.251,1.26,4.449,2.509,6.657,3.726
	c4.841,2.689,9.52,5.303,13.965,7.82c7.598,4.174,14.422,7.994,19.948,11.099c1.169,0.62,2.289,1.259,3.372,1.887
	c1.211,0.665,2.333,1.296,3.372,1.88c1.521,0.854,2.829,1.569,3.904,2.157l0.313-0.088l0.274-5.751L445.243,304.581z"/>
<path fill="#838E93" d="M444.699,315.859l0.045-0.269l-0.313,0.088C444.518,315.73,444.615,315.772,444.699,315.859z"/>
<linearGradient id="SVGID_9_" gradientUnits="userSpaceOnUse" x1="417.4302" y1="511.7837" x2="441.5571" y2="511.7837">
	<stop  offset="0" style="stop-color:#F28332"/>
	<stop  offset="1" style="stop-color:#FBB36B"/>
</linearGradient>
<path fill="url(#SVGID_9_)" d="M417.43,424.713l0.491,159.092c0,8.304,5.303,15.048,11.823,15.048c3.228,0,6.242-1.707,8.307-4.406
	c2.198-2.689,3.506-6.468,3.506-10.642V431.542c-8.627-1.933-16.53-4.269-23.636-6.647
	C417.746,424.85,417.607,424.756,417.43,424.713z"/>
<path fill="#A8AFBF" d="M444.023,277.489c-1.167,0.134-3.01,0.63-4.758,1.216c-1.167,0.403-2.291,0.808-3.278,1.205
	c0.043,2.345,0.085,3.967,0.085,4.813c0.86-0.665,1.665-1.389,2.476-2.157C440.341,280.858,442.096,279.021,444.023,277.489z"/>
<path fill="#8E97AA" d="M426.462,176.092c0,0.043,0,0.09,0,0.134c0.086,3.505,0.267,13.434,0.448,26.102
	c0,0.674,0.044,1.394,0.044,2.111c0.089,5.573,0.176,11.592,0.314,17.795c0.271,16.801,0.587,34.724,0.806,47.844
	c0.052,0.762,0.052,1.53,0.052,2.289v0.048c0.173,8.443,0.263,14.558,0.311,16.446c0.896,0.085,1.756,0.042,2.467-0.087
	c1.397-0.233,2.478-0.769,3.285-1.353c0.582-0.406,0.986-0.854,1.306-1.218c0.04-0.042,0.087-0.085,0.087-0.129
	c0.356-0.448,0.539-0.768,0.539-0.768c-0.049-0.043-0.049-0.267-0.049-0.585c0-0.846-0.042-2.468-0.085-4.813
	c0-1.744-0.049-3.947-0.091-6.418c0-1.884-0.047-3.953-0.087-6.156c0-0.983,0-1.975-0.052-3.011
	c-0.176-12.934-0.398-30.006-0.582-45.911c-0.042-3.685-0.139-7.324-0.18-10.783c0-0.227,0-0.449,0-0.675
	c-0.225-19.316-0.445-34.592-0.445-34.592l-5.169-2.787L310.146,105.6c0,0-5.57,0.674-7.187,4.18l123.503,65.141
	C426.462,174.921,426.462,175.327,426.462,176.092z"/>
<linearGradient id="SVGID_10_" gradientUnits="userSpaceOnUse" x1="229.4517" y1="308.7339" x2="615.7896" y2="308.7339">
	<stop  offset="0" style="stop-color:#F28332"/>
	<stop  offset="1" style="stop-color:#FBB36B"/>
</linearGradient>
<path fill="url(#SVGID_10_)" d="M260.187,318.876c0,0,0.315,0.121,0.854,0.482c2.519,1.44,10.155,5.838,21.609,12.495
	c13.523,7.769,32.347,18.643,54.318,31.354v0.18c27.626,15.951,45.329,26.153,45.329,26.153s13.478,8.078,35.272,15.59
	c3.006,1.034,6.199,2.062,9.524,3.051c3.324,0.993,6.737,1.935,10.33,2.831c18.329,4.534,40.122,7.543,63.529,5.932
	c5.478-0.362,11.054-1.035,16.712-1.932c14.374-2.381,29.2-6.647,44.024-13.521c3.685-1.708,7.366-3.553,11.053-5.579
	c1.036-0.535,2.027-1.124,3.059-1.698c3.414-1.983,6.554-3.916,9.434-5.941c1.301-0.89,2.605-1.795,3.814-2.64
	c19.371-14.116,26.512-28.169,26.735-41.157c0.358-17.883-12.534-33.697-25.112-44.838c-3.509-3.147-7.014-5.891-10.202-8.175
	c-3.502-2.604-6.646-4.674-8.984-6.157c-2.604-1.612-4.224-2.518-4.224-2.518s-0.496-0.268-1.44-0.811
	c0.05,0.052,0.05,0.095,0.05,0.138l-28.528-16.394l-2.159-1.216l-1.348-0.765c-4.267,1.89-8.67,3.593-13.118,5.214
	c-3.773,1.345-7.547,2.651-11.322,3.953c-3.234,1.121-6.426,2.247-9.565,3.366c-2.742,0.992-5.575,1.98-8.452,2.832
	c-2.74,0.896-5.524,1.664-8.352,2.293c1.168,0.992,2.336,1.933,3.549,2.915h0.046c0,0.052,0.037,0.052,0.087,0.087
	c1.659,0.904,3.099,1.672,4.359,2.345c3.053,1.707,4.853,2.646,4.853,2.646l0.177,2.209l0.227,2.061l-23.718,10.063l-21.885,9.296
	l-5.976,2.568l-0.045,0.269c-0.084-0.087-0.181-0.129-0.268-0.181c-1.075-0.588-2.383-1.304-3.904-2.157
	c-1.039-0.584-2.161-1.215-3.372-1.88c-1.083-0.628-2.203-1.267-3.372-1.887c-5.526-3.104-12.351-6.925-19.948-11.099
	c-4.445-2.518-9.124-5.131-13.965-7.82c-2.208-1.217-4.406-2.466-6.657-3.726c-6.647-3.69-13.476-7.511-20.17-11.233
	c0.223,1.841,0.401,3.498,0.583,5.076c6.737,3.863,13.388,7.641,18.786,10.686c2.466,1.395,4.668,2.653,6.514,3.688
	c3.32,1.889,5.522,3.053,5.881,3.233l-0.267,0.096c2.689,1.932,3.857,4.217,4.443,5.837c0.497,1.208,0.673,2.019,0.854,2.113
	l-0.854,0.354l-13.744,5.978l-7.096,3.146l-21.027,9.209l-72.875-42.046c0,0,2.201-2.561,7.414-4.767l0.224-0.09l33.333-16.216
	l-0.312-7.598c-6.694-3.729-11.995-6.694-15.23-8.44c-0.093,0.038-0.224,0.129-0.314,0.176v-0.4v-9.037v-0.22
	c0.09,0.043,0.179,0.087,0.269,0.134l7.637-1.394l-22.779-12.175l-0.18-10.422l-0.224-12.714c-8.939,3.054-18.015,7.054-27,12.13
	c-36.617,20.711-47.846,41.104-47.625,58.403C229.683,298.88,260.187,318.876,260.187,318.876z"/>
<path fill="#5F6B7F" d="M398.292,258.216l-31.585-32.84c1.217,9.252,2.788,21.743,4.223,33.336l24.936,13.297l7.144,3.819
	l25.066,13.394l-22.911-23.861L398.292,258.216z"/>
<path fill="#8E97AA" d="M390.108,304.675l-23.402,9.795l-65.051-35.99c-5.213,2.206-7.414,4.767-7.414,4.767l72.875,42.046
	l21.027-9.209l7.096-3.146l13.744-5.978l0.854-0.354c-0.181-0.095-0.356-0.905-0.854-2.113c-0.586-1.62-1.754-3.905-4.443-5.837
	l-6.921,2.873L390.108,304.675z"/>
<path fill="#77829B" d="M374.571,290.654c0,0-3.419,7.053-8.626,4.673c0,0.044,0,0.044,0,0.044l-0.718-0.397l-29.385-17.8
	l-0.629-14.999l-33.333,16.216l-0.224,0.09l65.051,35.99l23.402-9.795l7.511-3.146l6.921-2.873l0.267-0.096
	c-0.358-0.181-2.561-1.345-5.881-3.233c-1.846-1.035-4.048-2.294-6.514-3.688c-5.398-3.045-12.049-6.822-18.786-10.686
	C374.301,286.609,374.66,290.343,374.571,290.654z"/>
<path fill="#8B96A9" d="M370.929,258.712c-1.435-11.594-3.005-24.084-4.223-33.336c-1.031-8.313-1.794-14.018-1.794-14.018
	s0.403,22.688,0.721,44.525c0.088,7.274,0.224,14.418,0.266,20.662c0.138,10.383,0.138,18.023,0.047,18.781
	c5.207,2.38,8.626-4.673,8.626-4.673c0.089-0.311-0.27-4.045-0.945-9.701c-0.182-1.578-0.36-3.235-0.583-5.076
	c-0.401-3.419-0.854-7.234-1.345-11.327C371.427,262.667,371.199,260.691,370.929,258.712z"/>
<path fill="#A8AFBF" d="M365.227,294.973c0.225,0.13,0.494,0.26,0.718,0.354c0.091-0.758,0.091-8.398-0.047-18.781
	c-0.042-6.244-0.177-13.388-0.266-20.662c-0.318-21.837-0.721-44.525-0.721-44.525s-2.698-4.133-6.74-8.447
	c-2.651-2.828-5.795-5.704-9.209-7.593c-1.841-0.987-3.685-1.706-5.479-2.112c-0.496-0.131-1.035-0.222-1.574-0.313
	c-1.391-0.222-2.694-0.314-3.862-0.314c-0.045,0-0.136,0-0.182,0c-2.918,0-5.031,0.584-5.525,0.72
	c-0.045,0.045-0.087,0.045-0.087,0.045l0.221,5.392l0.494,11.861l1.261,28.438v0.043h-0.09l-6.875-3.683l-7.637,1.394
	c2.156,1.164,5.298,2.828,9.167,4.893c1.75,0.945,3.639,1.938,5.661,3.01l0.449,9.886l0.312,7.598l0.629,14.999L365.227,294.973z"/>
<path fill="#838E93" d="M365.945,295.371c0,0,0,0,0-0.044c-0.224-0.094-0.493-0.224-0.718-0.354L365.945,295.371z"/>
<path fill="#77829B" d="M341.908,192.894c0.54,0.09,1.079,0.181,1.574,0.313c1.795,0.407,3.639,1.125,5.479,2.112
	c3.415,1.889,6.559,4.765,9.209,7.593l24.44-9.567l17.028-6.696l26.646-10.422h0.126h0.051c0-0.044,0-0.091,0-0.134
	c0-0.765,0-1.171,0-1.171L302.959,109.78c-0.048,0.136-0.138,0.27-0.182,0.403l38.817,82.037L341.908,192.894z"/>
<path fill="#77829B" d="M328.792,241.681c-3.868-2.064-7.011-3.729-9.167-4.893l-0.269,0.086v9.037
	c0.09,0.082,0.222,0.134,0.314,0.225c3.236,1.746,8.537,4.711,15.23,8.44l-0.449-9.886
	C332.431,243.619,330.542,242.626,328.792,241.681z"/>
<polygon fill="#5F6B7F" points="334.228,239.078 334.228,239.035 332.967,210.597 304.483,223.22 327.262,235.395 334.138,239.078 
	"/>
<path fill="#687589" d="M304.483,223.22l28.483-12.623l-0.494-11.861l-0.221-5.392c0,0,0.042,0,0.087-0.045
	c0.494-0.136,2.606-0.72,5.525-0.72c0.046,0,0.137,0,0.182,0c1.168,0,2.471,0.092,3.862,0.314l-0.313-0.674l-38.817-82.037
	l-0.316-0.672l1.619,90.573l0.224,12.714L304.483,223.22z"/>
<path fill="#838E93" d="M319.356,246.312c0.09-0.047,0.222-0.138,0.314-0.176c-0.093-0.091-0.224-0.143-0.314-0.225V246.312z"/>
<path fill="#838E93" d="M319.356,236.655v0.22l0.269-0.086C319.535,236.742,319.446,236.698,319.356,236.655z"/>
<linearGradient id="SVGID_11_" gradientUnits="userSpaceOnUse" x1="259.0166" y1="420.7856" x2="282.6494" y2="420.7856">
	<stop  offset="0" style="stop-color:#F28332"/>
	<stop  offset="1" style="stop-color:#FBB36B"/>
</linearGradient>
<path fill="url(#SVGID_11_)" d="M260.187,338.459c0,0-0.405-0.276-1.17-0.854v151.264c0,8.312,5.304,15.098,11.82,15.098
	c3.234,0,6.243-1.707,8.308-4.406c2.203-2.785,3.505-6.552,3.505-10.691v-101.31v-35.761v-0.406
	C268.5,343.262,260.187,338.459,260.187,338.459z"/>
<g>
	<g id="XMLID_3_">
		<g>
			<path fill="#8EB63F" d="M498.132,268.622c1.717,1.324,3.19,2.778,3.854,4.282C500.796,271.451,499.51,270.023,498.132,268.622z"
				/>
			<path fill="#8EB63F" d="M536.983,301.264c-0.197,0.039-0.377,0.063-0.574,0.115c-0.637,0.108-1.355,0.151-2.07,0.256
				C535.268,301.428,536.151,301.303,536.983,301.264z"/>
			<path fill="#8EB63F" d="M518.902,298.927c0.164,0.504,0.332,1.001,0.521,1.472c-0.048,0.171-0.091,0.344-0.143,0.508
				C519.186,300.285,519.042,299.617,518.902,298.927z"/>
			<path fill="#8EB63F" d="M518.878,298.833c-0.639-1.871-1.162-3.859-1.568-5.946C517.972,295.008,518.5,297.022,518.878,298.833z"
				/>
			<path fill="#8EB63F" d="M517.621,322.623c0.068,0.621,0.163,1.246,0.26,1.855c-0.116-0.609-0.287-1.234-0.476-1.825
				C517.477,322.653,517.546,322.623,517.621,322.623z"/>
			<path fill="#8EB63F" d="M517.621,322.623c-0.074,0-0.144,0.03-0.216,0.03c-0.265-0.857-0.605-1.72-1.025-2.522
				c0.282-0.02,0.55-0.076,0.835-0.095C517.361,320.889,517.477,321.768,517.621,322.623z"/>
			<path fill="#7A564A" d="M518.982,340.304h-0.029c0,1.686-1.218,3.737-0.713,5.061c0.683,2.074,4.329,2.787,5.565,0.522
				c0.45-1.117-0.099-2.234-0.426-3.38c-0.172-3.006-0.437-6.058-0.69-9.061c10.438-0.111,20.433,3.284,25.477,9.376
				c0.601,0.747,1.125,1.453,1.532,2.187c-2.2,4.638-7.313,8.785-14.708,11.256c-14.353,4.816-31.865,1.6-39.117-7.161
				c-0.596-0.711-1.123-1.454-1.526-2.216c2.192-4.618,7.304-8.731,14.704-11.228c3.171-1.043,6.477-1.717,9.807-1.998
				C519.018,335.872,519.066,338.118,518.982,340.304z"/>
			<path fill="#D64728" d="M517.88,324.521c0.425,3.057,0.813,6.101,0.977,9.142c-3.33,0.281-6.636,0.955-9.807,1.998
				c-7.4,2.496-12.512,6.609-14.704,11.228c-4.757-8.305,1.173-17.919,14.324-22.315c2.836-0.949,5.759-1.585,8.734-1.92
				c0.188,0.591,0.359,1.216,0.476,1.825C517.88,324.499,517.88,324.499,517.88,324.521z"/>
			<path fill="#D64728" d="M547.787,331.71c3.496,4.239,3.977,8.964,1.911,13.299c-0.407-0.733-0.932-1.439-1.532-2.187
				c-5.044-6.092-15.039-9.487-25.477-9.376c-0.309-3.732-0.647-7.447-0.835-11.083C532.435,322.157,542.647,325.546,547.787,331.71
				z"/>
			<path fill="#F58A68" d="M547.787,331.71c-5.14-6.164-15.352-9.554-25.933-9.347c-0.044-0.88-0.096-1.763-0.121-2.638
				c12.521-0.312,24.601,3.677,30.645,10.938c3.233,3.906,4.26,8.185,3.361,12.331c-1.48,6.633-7.977,12.875-18.305,16.318
				c-16.749,5.614-37.206,1.854-45.684-8.352c-1.87-2.257-2.991-4.638-3.466-7.035c-1.569-8.476,5.371-17.264,18.412-21.61
				c3.142-1.039,6.396-1.764,9.683-2.186c0.42,0.803,0.761,1.665,1.025,2.522c-2.976,0.335-5.898,0.971-8.734,1.92
				c-13.151,4.396-19.081,14.011-14.324,22.315c0.403,0.762,0.931,1.505,1.526,2.216c7.252,8.761,24.765,11.978,39.117,7.161
				c7.396-2.471,12.508-6.618,14.708-11.256C551.763,340.674,551.283,335.95,547.787,331.71z"/>
			<path fill="#F37049" d="M547.049,384.033c-1.069,4.952-5.906,9.539-13.591,12.11c-12.415,4.156-27.592,1.38-33.896-6.205
				c-0.978-1.151-1.665-2.354-2.097-3.574l-9.182-42.438c0.475,2.397,1.596,4.778,3.466,7.035
				c8.478,10.206,28.935,13.966,45.684,8.352c10.328-3.443,16.824-9.686,18.305-16.318h0.021L547.049,384.033z"/>
			<path fill="#B4D334" d="M509.05,274.832c-1.046-1.518-2.157-2.958-3.322-4.17l0.088-0.09c-3.853-4.98-10.728-8.766-15.894-12.379
				c-5.734-4.13-14.961-8.631-22.915-8.631c-1.444,0-2.829,0.168-4.16,0.478c0,0,5.717,1.375,6.235,1.544
				c2.783,1.047,5.924,1.737,8.683,2.979c4.881,2.056,8.688,6.066,13.039,9.179c1.67,1.168,4.732,2.88,7.303,4.851
				c0,0,0,0.029,0.025,0.029c1.378,1.401,2.664,2.829,3.854,4.282c3.379,4.13,6.069,8.562,8.136,13.27
				c-5.516-6.492-11.067-9.92-19.68-10.971c-11.108-1.368-22.905-2.092-31.59-10.056c-5.905-5.579-11.83-17.728-2.095-22.583
				c7.642-3.829,19.464-0.357,27.102,1.384c9.01,2.418,18.058,5.57,22.223,14.581C508.461,263.573,508.788,269.351,509.05,274.832z"
				/>
			<path fill="#B4D334" d="M458.492,324.171c-5.544-5.545-2.78-15.634,2.433-20.847c8.777-8.391,31.929-9.32,40.278,1.121
				c-2.593-0.596-5.377-0.909-8.333-1.022v0.104c-4.845,0.158-9.01,0-13.698,1.725c-6.658,2.22-17.006,5.434-20.318,12.326
				c3.287-3.776,14.054-7.636,18.747-8.685c3.304-0.688,6.588-1.568,9.898-2.094c2.259-0.307,4.52,0.119,6.657-0.26
				c0.027,0.022,0.027,0,0.051,0c2.834,0.234,5.778,0.954,8.614,2.096c-6.066-0.482-13.103,3.541-17.586,6.519
				C478.289,320.009,467.538,333.212,458.492,324.171z"/>
			<path fill="#B4D334" d="M571.366,304.049c4.192,10.749-4.5,20.472-15.606,16.644c-6.949-2.421-10.778-11.107-17.039-13.534
				c-2.399-0.687-6.64-1.712-9.063-0.716c1.569-0.91,3.143-1.592,4.545-2.065l-0.024-0.048c4.995-1.526,11.133-1.337,16.137-0.644
				c3.586,0.476,7.179,1.488,10.527,3.233c1.859,1.048,4.979,2.906,6.239,4.757c-0.452-1.159-1.261-2.307-2.068-3.237
				c-5.094-5.92-14.02-7.175-21.295-7.739c-2.334-0.229-4.596,0.128-6.734,0.564c-0.832,0.039-1.715,0.164-2.645,0.371
				c-0.017,0-0.041,0-0.063,0c-0.29,0.057-0.572,0.104-0.84,0.189c-0.041,0-0.088,0.033-0.111,0.033
				c-0.861,0.213-1.717,0.476-2.545,0.782C538.223,288.744,565.23,288.671,571.366,304.049z"/>
			<path fill="#B4D334" d="M545.933,270.347c-2.781,1.388-7.213,4.669-9.642,5.906c-2.713,1.742-5.04,3.76-7.087,5.993
				c0.785-2.07,2.333-3.351,3.258-4.945c1.739-3.824,1.739-7.993,3.146-11.818c4.162-10.761,13.532-15.279,24.311-18.063
				c7.975-1.742,15.968-2.071,23.27,2.099c8.329,4.842,14.915,11.111,6.589,19.79c-4.166,4.526-11.798,6.592-17.363,8.688
				c-6.954,2.419-14.587,5.208-21.537,6.583c-8.327,1.315-15.507-0.379-22.008,4.833c1.831-2.578,4.1-5.021,6.876-7.308
				c0.027-0.026,0.079-0.044,0.095-0.095c2.623-1.88,4.948-4.203,7.76-5.756c4.163-2.255,8.164-4.854,12.659-6.614
				c8.358-3.116,18.419-6.419,25.881-11.61c-4.351,0-8.415,1.927-12.582,2.808c-3.994,0.698-7.212,2.642-11.039,4.047
				C554.353,266.264,549.765,268.26,545.933,270.347z"/>
			<path fill="#B4D334" d="M520.489,269.903c0.39-4.855,1.27-9.609,2.606-14.129l-0.221-0.077c2.622-7.61,3.332-15.4,2.998-23.718
				c-0.355,5.218-2.425,11.111-3.639,16.125c-0.712,2.694-2.209,5.596-2.761,8.381c0,0,0,0.019,0,0.048
				c-1.453,4.54-2.499,9.752-2.991,15.129c-3.147-4.949-5.614-8.373-6.573-14.513c-1.405-9.045-0.715-21.169,5.547-28.839
				c5.561-6.583,17.365-5.535,22.218,2.101C546.006,243.069,523.559,257.723,520.489,269.903z"/>
			<path fill="#8EB63F" d="M516.379,320.13c-2.588-5.26-7.807-9.234-13.509-11.494c0,0-0.022,0-0.05,0
				c-2.836-1.142-5.78-1.861-8.614-2.096c-0.023,0-0.023,0.022-0.051,0c-2.138,0.379-4.398-0.047-6.657,0.26
				c-3.311,0.525-6.595,1.405-9.898,2.094c-4.693,1.049-15.46,4.908-18.747,8.685c3.313-6.893,13.66-10.106,20.318-12.326
				c4.688-1.725,8.854-1.566,13.698-1.725v-0.104c2.956,0.113,5.74,0.427,8.333,1.022c6.139,1.389,11.278,4.304,15.177,10.136
				c0.255,1.812,0.55,3.627,0.835,5.454C516.929,320.054,516.662,320.111,516.379,320.13z"/>
			<path fill="#8EB63F" d="M565.012,308.439c0.808,0.931,1.616,2.078,2.068,3.237c-1.261-1.851-4.38-3.709-6.239-4.757
				c-3.349-1.745-6.941-2.758-10.527-3.233c-5.004-0.693-11.142-0.883-16.137,0.644l0.024,0.048
				c-1.402,0.474-2.976,1.155-4.545,2.065c-0.022,0-0.046,0.029-0.07,0.029c-3.188,1.803-6.354,4.398-7.896,7.515
				c0.025-1.354,0.096-2.719,0.209-4.044c-0.021-0.021,0-0.048,0-0.048c1.406-3.332,5.044-5.837,8.88-7.255
				c0.828-0.307,1.684-0.569,2.545-0.782c0.023,0,0.07-0.033,0.111-0.033c0.286-0.068,0.579-0.133,0.84-0.189
				c0.022,0,0.047,0,0.063,0c0.715-0.104,1.434-0.147,2.07-0.256c0.197-0.052,0.377-0.076,0.574-0.115
				c2.139-0.437,4.4-0.794,6.734-0.564C550.993,301.264,559.918,302.519,565.012,308.439z"/>
			<path fill="#8EB63F" d="M523.379,342.507c0.327,1.146,0.876,2.263,0.426,3.38c-1.236,2.265-4.883,1.552-5.565-0.522
				c-0.505-1.323,0.713-3.375,0.713-5.061h0.029c0.084-2.187,0.036-4.433-0.125-6.642c1.279-0.148,2.565-0.191,3.832-0.216
				C522.943,336.45,523.208,339.501,523.379,342.507z"/>
			<path fill="#8EB63F" d="M521.854,322.364c0.188,3.636,0.526,7.351,0.835,11.083c-1.267,0.024-2.553,0.067-3.832,0.216
				c-0.163-3.041-0.552-6.085-0.977-9.142c0-0.022,0-0.022,0-0.043c-0.097-0.609-0.191-1.234-0.26-1.855
				C519.018,322.449,520.454,322.387,521.854,322.364z"/>
			<path fill="#8EB63F" d="M517.214,320.036c1.501-0.164,3.019-0.263,4.519-0.31c0.025,0.875,0.077,1.758,0.121,2.638
				c-1.4,0.023-2.836,0.085-4.233,0.259C517.477,321.768,517.361,320.889,517.214,320.036z"/>
			<path fill="#8EB63F" d="M582.139,258.029c-7.462,5.191-17.522,8.494-25.881,11.61c-4.495,1.761-8.496,4.359-12.659,6.614
				c-2.812,1.553-5.137,3.876-7.76,5.756c-0.016,0.051-0.067,0.068-0.095,0.095c-2.776,2.286-5.045,4.729-6.876,7.308
				c-4.463,6.235-6.373,13.185-6.97,20.483c0,0-0.021,0.026,0,0.048c-0.113,1.325-0.184,2.69-0.209,4.044
				c-0.052,1.881-0.027,3.812,0.043,5.739c-1.5,0.047-3.018,0.146-4.519,0.31c-0.285-1.827-0.58-3.643-0.835-5.454
				c-0.355-2.491-0.683-4.975-0.924-7.423c-0.833-7.589-2.522-14.582-5.333-20.985c-2.066-4.708-4.757-9.14-8.136-13.27
				c-0.664-1.504-2.138-2.958-3.854-4.282c-0.025,0-0.025-0.029-0.025-0.029c-2.57-1.971-5.633-3.683-7.303-4.851
				c-4.352-3.112-8.158-7.123-13.039-9.179c-2.759-1.242-5.899-1.933-8.683-2.979c-0.519-0.169-6.235-1.544-6.235-1.544
				c1.331-0.31,2.716-0.478,4.16-0.478c7.954,0,17.181,4.501,22.915,8.631c5.166,3.613,12.041,7.398,15.894,12.379l-0.088,0.09
				c1.165,1.212,2.276,2.652,3.322,4.17c3.619,5.298,6.447,12.075,8.26,18.034c0,0.021,0,0.021,0,0.021
				c0.406,2.087,0.93,4.075,1.568,5.946c0,0.048,0,0.077,0.023,0.095c0.141,0.689,0.284,1.357,0.378,1.979
				c0.052-0.164,0.095-0.337,0.143-0.508c0.741-2.372,1.594-4.683,2.572-6.891c1.854-4.144,4.188-7.955,7.21-11.262
				c2.047-2.233,4.374-4.251,7.087-5.993c2.429-1.237,6.86-4.519,9.642-5.906c3.832-2.087,8.42-4.083,12.585-5.464
				c3.827-1.405,7.045-3.349,11.039-4.047C573.724,259.956,577.789,258.029,582.139,258.029z"/>
			<path fill="#8EB63F" d="M523.095,255.774c-1.337,4.52-2.217,9.273-2.606,14.129c-0.687,7.855-0.152,15.96,1.506,23.605
				c-0.979,2.208-1.831,4.519-2.572,6.891c-0.188-0.471-0.356-0.968-0.521-1.472c-0.023-0.018-0.023-0.047-0.023-0.095
				c-0.378-1.811-0.906-3.824-1.568-5.946c0,0,0,0,0-0.021c-1.309-6.618-1.521-14.064-0.828-21.204
				c0.492-5.377,1.538-10.589,2.991-15.129c0-0.029,0-0.048,0-0.048c0.552-2.785,2.049-5.687,2.761-8.381
				c1.214-5.014,3.283-10.907,3.639-16.125c0.334,8.317-0.376,16.107-2.998,23.718L523.095,255.774z"/>
		</g>
	</g>
</g>
<path fill="#474848" d="M202.625,432.479c-0.629,1.827-1.13,4.82-0.811,7.136c0.184-0.178,0.374-0.342,0.568-0.513
	c1.233-0.842,2.532-1.553,3.865-2.152C205.168,435.462,204.066,433.63,202.625,432.479z"/>
<path fill="#474848" d="M235.582,438.962c1.365,0.786,2.659,1.657,3.866,2.617c-0.012-2.768-0.306-5.47-0.35-8.371
	C237.731,434.678,236.431,437.052,235.582,438.962z"/>
<path fill="#474848" d="M204.315,464.094l0.073,0.271c-0.801,2.017,1.052,6.989,3.296,7.604c2.491,0.613,4.977-2.828,5.939-4.919
	C211.615,465.594,207.034,463.274,204.315,464.094z"/>
<linearGradient id="SVGID_12_" gradientUnits="userSpaceOnUse" x1="280.4165" y1="523.1235" x2="298.3506" y2="523.1235">
	<stop  offset="0" style="stop-color:#F26825"/>
	<stop  offset="1" style="stop-color:#F89F57"/>
</linearGradient>
<path fill="url(#SVGID_12_)" d="M294.076,506.765c-1.646,1.698-4.038,3.717-6.717,5.657c0.489,4.275,0.55,8.698-0.699,12.313
	c-0.744,2.169-7.461,8.8-6.048,11.719c2.871,5.264,12.783,2.599,14.682-0.023c2.943-5.294,3.485-15.209,2.78-24.656
	c-0.437-0.344-0.864-0.733-1.258-1.15C295.569,509.404,294.689,508.118,294.076,506.765z"/>
<linearGradient id="SVGID_13_" gradientUnits="userSpaceOnUse" x1="241.9229" y1="540.0444" x2="261.5894" y2="540.0444">
	<stop  offset="0" style="stop-color:#F26825"/>
	<stop  offset="1" style="stop-color:#F89F57"/>
</linearGradient>
<path fill="url(#SVGID_13_)" d="M255.49,555.95c4.309-4.632,4.667-2.371,5.706-7.852c1.634-8.096-2.263-17.426-3.628-24.811
	c-3.464-1.931-7.037-3.997-10.302-6.382c-0.103,8.338,8.679,21.298,5.145,29.861c-2,3.721-20.056,12.696-3.682,16.384l0.876,0.032
	C248.466,558.57,253.709,557.929,255.49,555.95z"/>
<linearGradient id="SVGID_14_" gradientUnits="userSpaceOnUse" x1="220.7178" y1="510.7671" x2="322.8545" y2="510.7671">
	<stop  offset="0" style="stop-color:#F26825"/>
	<stop  offset="1" style="stop-color:#F89F57"/>
</linearGradient>
<path fill="url(#SVGID_14_)" d="M319.028,498.667c-3.341,1.701-5.113,0.041-5.495-2.643c-0.167-1.063-0.098-2.284,0.172-3.521
	c0.516-11.856,0.219-26.794-7.318-33.983c-2.503-2.388-5.809-3.919-10.154-4.19c-0.411-0.034-0.823-0.047-1.239-0.02
	c-12.479,0.391-27.718,22.186-46.976,13.355c-1.584,7.89-5.292,15.13-14.625,17.642c-3.364,1.097-8.003,1.519-12.675,1.363
	c3.985,6.201,10.942,9.887,15.437,15.409l-0.415,0.344c1.963,6.122,6.361,10.71,11.526,14.483c3.266,2.385,6.838,4.451,10.302,6.382
	c1.365,7.385,5.262,16.715,3.628,24.811c-1.04,5.48-1.397,3.22-5.706,7.852c-1.781,1.979-7.024,2.62-5.885,7.233
	c0.047,0.195,0.108,0.389,0.178,0.608c2.671,6.777,14.354,2.084,17.763-1.518l-0.343-0.28c5.049-12.291,4.484-27.87,3.64-41.856
	c4.115,0.071,10.946-3.664,16.515-7.715c2.679-1.94,5.071-3.959,6.717-5.657c0.614,1.353,1.493,2.639,2.74,3.858
	c0.395,0.417,0.821,0.807,1.258,1.15c3.85,3.104,8.965,3.238,12.64-0.584c1.105,6.043,2.449,13.859,0.452,19.622
	c-0.744,2.167-7.461,8.814-6.05,11.721c2.874,5.265,12.781,2.604,14.684-0.018C325.098,532.965,322.621,508.451,319.028,498.667z"/>
<linearGradient id="SVGID_15_" gradientUnits="userSpaceOnUse" x1="293.1113" y1="426.5308" x2="313.6943" y2="426.5308">
	<stop  offset="0" style="stop-color:#F26825"/>
	<stop  offset="1" style="stop-color:#F89F57"/>
</linearGradient>
<path fill="url(#SVGID_15_)" d="M306.387,458.519c-0.545-11.084-4.476-21.285-1.091-32.542c2.02-6.288,4.057-12.788,6.266-18.862
	c2.135-5.239,5.068-14.784-4.77-12.108c-12.419,3.483-13.775,21.114-13.676,31.769c0.035,6.686,2.625,12.767,3.091,19.277
	c0.063,2.887-0.709,5.57-1.213,8.257c0.416-0.027,0.828-0.015,1.239,0.02C300.579,454.6,303.884,456.131,306.387,458.519z"/>
<linearGradient id="SVGID_16_" gradientUnits="userSpaceOnUse" x1="220.5947" y1="457.3716" x2="248.9473" y2="457.3716">
	<stop  offset="0" style="stop-color:#F26825"/>
	<stop  offset="1" style="stop-color:#F89F57"/>
</linearGradient>
<path fill="url(#SVGID_16_)" d="M248.018,467.665c0.42-2.096,0.692-4.233,0.88-6.347c0.389-5.842-1.565-11.079-5.002-15.352
	c0.224-6.016,1.121-13.126-2.312-17.924c-3.897,1.103-7.355,5.325-9.323,9.262c-0.182,0.347-0.348,0.693-0.494,1.034
	c8.251,7.528,9.343,19.069,7.972,30.004c-0.685,5.361-2.935,9.549-7.767,12.253c-3.075,1.792-7.412,5.012-11.379,5.879
	c0.044,0.073,0.081,0.134,0.123,0.195c4.671,0.155,9.311-0.267,12.675-1.363C242.726,482.794,246.434,475.554,248.018,467.665z
	 M235.582,438.962c0.85-1.91,2.15-4.284,3.516-5.754c0.044,2.901,0.338,5.604,0.35,8.371
	C238.241,440.62,236.947,439.749,235.582,438.962z"/>
<linearGradient id="SVGID_17_" gradientUnits="userSpaceOnUse" x1="192.438" y1="456.1157" x2="240.2383" y2="456.1157">
	<stop  offset="0" style="stop-color:#F26825"/>
	<stop  offset="1" style="stop-color:#F89F57"/>
</linearGradient>
<path fill="url(#SVGID_17_)" d="M239.74,468.342c1.371-10.935,0.279-22.476-7.972-30.004c-0.315-0.298-0.64-0.579-0.982-0.859
	c-0.53-0.442-1.047-0.908-1.57-1.339c-6.085-2.006-12.818-2.378-19.025-0.621c-1.839-3.178-4.702-8.494-8.274-9.913
	c-3.782,4.471-3.153,12.74-3.684,18.064c-9.238,12.719-8.145,32.707,8.489,40.546c3.3,1.326,8.099,2.18,12.964,2.41
	c0.306-0.027,0.599-0.081,0.909-0.152c3.967-0.867,8.304-4.087,11.379-5.879C236.806,477.891,239.055,473.704,239.74,468.342z
	 M202.382,439.102c-0.194,0.171-0.384,0.335-0.568,0.513c-0.319-2.315,0.182-5.309,0.811-7.136c1.441,1.151,2.542,2.983,3.622,4.471
	C204.915,437.549,203.615,438.26,202.382,439.102z M207.685,471.97c-2.245-0.615-4.098-5.588-3.296-7.604l-0.073-0.271
	c2.719-0.82,7.3,1.5,9.309,2.957C212.662,469.142,210.176,472.583,207.685,471.97z"/>
</svg>
