<?xml version="1.0" encoding="utf-8"?>
<!-- Generator: Adobe Illustrator 22.0.1, SVG Export Plug-In . SVG Version: 6.00 Build 0)  -->
<svg version="1.1" id="Layer_1" xmlns="http://www.w3.org/2000/svg" xmlns:xlink="http://www.w3.org/1999/xlink" x="0px" y="0px"
	 viewBox="0 0 712.9 494.8" style="enable-background:new 0 0 712.9 494.8;" xml:space="preserve">
<style type="text/css">
	@import url('https://fonts.googleapis.com/css?family=Open+Sans:300,400,600,700,800');
	.st0{fill:url(#SVGID_1_);stroke:url(#SVGID_2_);stroke-width:0.75;stroke-miterlimit:10;}
	.st1{fill:url(#SVGID_3_);stroke:url(#SVGID_4_);stroke-width:0.75;stroke-miterlimit:10;}
	.st2{opacity:0.35;}
	.st3{fill:url(#SVGID_5_);}
	.st4{fill:url(#SVGID_6_);stroke:url(#SVGID_7_);stroke-width:0.75;stroke-miterlimit:10;}
	.st5{fill:url(#SVGID_8_);stroke:url(#SVGID_9_);stroke-width:0.75;stroke-miterlimit:10;}
	.st6{fill:url(#SVGID_10_);stroke:url(#SVGID_11_);stroke-width:0.75;stroke-miterlimit:10;}
	.st7{fill:url(#SVGID_12_);stroke:url(#SVGID_13_);stroke-width:0.75;stroke-miterlimit:10;}
	.st8{fill:url(#SVGID_14_);stroke:url(#SVGID_15_);stroke-width:0.75;stroke-miterlimit:10;}
	.st9{fill:url(#SVGID_16_);stroke:url(#SVGID_17_);stroke-width:0.75;stroke-miterlimit:10;}
	.st10{fill:#FFFFFF;stroke:url(#SVGID_18_);stroke-width:0.75;stroke-miterlimit:10;}
	.st11{fill:url(#SVGID_19_);stroke:url(#SVGID_20_);stroke-width:0.75;stroke-miterlimit:10;}
	.st12{fill:url(#SVGID_21_);stroke:url(#SVGID_22_);stroke-width:0.75;stroke-miterlimit:10;}
	.st13{fill:#FFD6BB;stroke:url(#SVGID_23_);stroke-width:0.5;stroke-miterlimit:10;}
	.st14{fill:url(#SVGID_24_);stroke:url(#SVGID_25_);stroke-width:0.75;stroke-miterlimit:10;}
	.st15{fill:#FFD6BB;stroke:url(#SVGID_26_);stroke-width:0.5;stroke-miterlimit:10;}
	.st16{fill:url(#SVGID_27_);stroke:url(#SVGID_28_);stroke-width:0.75;stroke-miterlimit:10;}
	.st17{fill:#FFD6BB;stroke:url(#SVGID_29_);stroke-width:0.5;stroke-miterlimit:10;}
	.st18{fill:#FFD6BB;stroke:url(#SVGID_30_);stroke-width:0.5;stroke-miterlimit:10;}
	.st19{fill:url(#SVGID_31_);stroke:url(#SVGID_32_);stroke-width:0.75;stroke-miterlimit:10;}
	.st20{fill:url(#SVGID_33_);}
	.st21{fill:url(#SVGID_34_);}
	.st22{fill:url(#SVGID_35_);}
	.st23{fill:url(#SVGID_36_);}
	.st24{fill:url(#SVGID_37_);}
	.st25{fill:url(#SVGID_38_);}
	.st26{fill:url(#SVGID_39_);stroke:url(#SVGID_40_);stroke-width:0.75;stroke-miterlimit:10;}
	.st27{fill:url(#SVGID_41_);stroke:url(#SVGID_42_);stroke-width:0.75;stroke-miterlimit:10;}
	.st28{fill:url(#SVGID_43_);stroke:url(#SVGID_44_);stroke-width:0.75;stroke-miterlimit:10;}
	.st29{fill:url(#SVGID_45_);stroke:url(#SVGID_46_);stroke-width:1.5;stroke-miterlimit:10;}
	.st30{fill:url(#SVGID_47_);stroke:url(#SVGID_48_);stroke-width:0.75;stroke-miterlimit:10;}
	.st31{fill:url(#SVGID_49_);stroke:url(#SVGID_50_);stroke-width:1.5;stroke-miterlimit:10;}
	.st32{opacity:0.5;fill:#FFFFFF;stroke:url(#SVGID_51_);stroke-width:0.75;stroke-miterlimit:10;enable-background:new    ;}
	.st33{fill:url(#SVGID_52_);}
	.st34{fill:url(#SVGID_53_);}
	.st35{fill:url(#SVGID_54_);}
	.st36{fill:url(#SVGID_55_);}
	.st37{fill:none;stroke:url(#SVGID_56_);stroke-linecap:round;stroke-miterlimit:10;}
	.st38{fill:none;stroke:url(#SVGID_57_);stroke-linecap:round;stroke-miterlimit:10;}
	.st39{fill:none;stroke:url(#SVGID_58_);stroke-linecap:round;stroke-miterlimit:10;}
	.st40{fill:none;stroke:url(#SVGID_59_);stroke-linecap:round;stroke-miterlimit:10;}
	.st41{fill:none;stroke:url(#SVGID_60_);stroke-linecap:round;stroke-miterlimit:10;}
	.st42{fill:none;stroke:url(#SVGID_61_);stroke-linecap:round;stroke-miterlimit:10;}
	.st43{fill:none;stroke:url(#SVGID_62_);stroke-linecap:round;stroke-miterlimit:10;}
	.st44{fill:none;stroke:url(#SVGID_63_);stroke-linecap:round;stroke-miterlimit:10;}
	.st45{fill:url(#SVGID_64_);}
	.st46{fill:url(#SVGID_65_);}
	.st47{fill:url(#SVGID_66_);}
	.st48{fill:url(#SVGID_67_);}
	.st49{fill:none;stroke:url(#SVGID_68_);stroke-width:0.5;stroke-miterlimit:10;}
	.st50{fill:none;stroke:url(#SVGID_69_);stroke-width:0.5;stroke-miterlimit:10;}
	.st51{fill:none;stroke:url(#SVGID_70_);stroke-linecap:round;stroke-miterlimit:10;}
	.st52{fill:none;stroke:url(#SVGID_71_);stroke-linecap:round;stroke-miterlimit:10;}
	.st53{fill:none;stroke:url(#SVGID_72_);stroke-linecap:round;stroke-miterlimit:10;}
	.st54{fill:none;stroke:url(#SVGID_73_);stroke-linecap:round;stroke-miterlimit:10;}
	.st55{fill:url(#SVGID_74_);}
	.st56{fill:url(#SVGID_75_);}
	.st57{fill:url(#SVGID_76_);}
	.st58{fill:url(#SVGID_77_);}
	.st59{fill:none;stroke:url(#SVGID_78_);stroke-width:0.5;stroke-miterlimit:10;}
	.st60{fill:none;stroke:url(#SVGID_79_);stroke-width:0.5;stroke-miterlimit:10;}
	.st61{fill:none;stroke:url(#SVGID_80_);stroke-linecap:round;stroke-miterlimit:10;}
	.st62{fill:none;stroke:url(#SVGID_81_);stroke-linecap:round;stroke-miterlimit:10;}
	.st63{fill:none;stroke:url(#SVGID_82_);stroke-linecap:round;stroke-miterlimit:10;}
	.st64{fill:none;stroke:url(#SVGID_83_);stroke-linecap:round;stroke-miterlimit:10;}
	.st65{fill:url(#SVGID_84_);}
	.st66{fill:url(#SVGID_85_);}
	.st67{fill:url(#SVGID_86_);}
	.st68{fill:url(#SVGID_87_);}
	.st69{fill:none;stroke:url(#SVGID_88_);stroke-width:0.5;stroke-miterlimit:10;}
	.st70{fill:none;stroke:url(#SVGID_89_);stroke-width:0.5;stroke-miterlimit:10;}
	.st71{fill:none;stroke:url(#SVGID_90_);stroke-linecap:round;stroke-miterlimit:10;}
	.st72{fill:none;stroke:url(#SVGID_91_);stroke-linecap:round;stroke-miterlimit:10;}
	.st73{fill:none;stroke:url(#SVGID_92_);stroke-linecap:round;stroke-miterlimit:10;}
	.st74{fill:none;stroke:url(#SVGID_93_);stroke-linecap:round;stroke-miterlimit:10;}
	.st75{fill:url(#SVGID_94_);}
	.st76{fill:url(#SVGID_95_);}
	.st77{fill:url(#SVGID_96_);}
	.st78{fill:url(#SVGID_97_);}
	.st79{fill:none;stroke:url(#SVGID_98_);stroke-width:0.5;stroke-miterlimit:10;}
	.st80{fill:none;stroke:url(#SVGID_99_);stroke-width:0.5;stroke-miterlimit:10;}
	.st81{fill:url(#SVGID_100_);}
	.st82{fill:url(#SVGID_101_);}
	.st83{fill:none;stroke:url(#SVGID_102_);stroke-width:0.5;stroke-miterlimit:10;}
	.st84{fill:url(#SVGID_103_);}
	.st85{fill:url(#SVGID_104_);}
	.st86{fill:none;stroke:url(#SVGID_105_);stroke-width:0.5;stroke-miterlimit:10;}
	.st87{fill:#60656F;}
	.st88{font-family:'Open Sans';}
	.st89{font-size:13.5384px;}
</style>
<g>
	<g>
		<g>
			
				<linearGradient id="SVGID_1_" gradientUnits="userSpaceOnUse" x1="351.7837" y1="388.9583" x2="375.9609" y2="388.9583" gradientTransform="matrix(1 0 0 -1 0 490.6667)">
				<stop  offset="0" style="stop-color:#F89D89"/>
				<stop  offset="1" style="stop-color:#FFD297"/>
			</linearGradient>
			
				<linearGradient id="SVGID_2_" gradientUnits="userSpaceOnUse" x1="351.4087" y1="388.9583" x2="376.3359" y2="388.9583" gradientTransform="matrix(1 0 0 -1 0 490.6667)">
				<stop  offset="0" style="stop-color:#004794"/>
				<stop  offset="1" style="stop-color:#001355"/>
			</linearGradient>
			<path class="st0" d="M376,101.4c0-0.2-1.1-0.8-1.8-1.4h-20.5c-0.8,0.6-1.9,1.2-1.8,1.4v0.3l0,0v0.3l0,0c0.3,1.5,10,1.4,12.1,1.3
				c2.1,0,11.8,0.1,12.1-1.3l0,0v-0.6v0.3v-0.3H376z"/>
		</g>
	</g>
	
		<linearGradient id="SVGID_3_" gradientUnits="userSpaceOnUse" x1="354.1723" y1="395.1279" x2="373.57" y2="395.1279" gradientTransform="matrix(1 0 0 -1 0 490.6667)">
		<stop  offset="0" style="stop-color:#F89D89"/>
		<stop  offset="1" style="stop-color:#FFD297"/>
	</linearGradient>
	
		<linearGradient id="SVGID_4_" gradientUnits="userSpaceOnUse" x1="353.7131" y1="395.1279" x2="374.029" y2="395.1279" gradientTransform="matrix(1 0 0 -1 0 490.6667)">
		<stop  offset="0" style="stop-color:#004794"/>
		<stop  offset="1" style="stop-color:#001355"/>
	</linearGradient>
	<path class="st1" d="M372.3,90.9h-16.8c-1,10.9-1.3,9.1-1.3,9.1h0.1l0.1-0.1h19.1c0,0,0,0,0.1,0.1h0.1
		C373.6,100,373.2,101.8,372.3,90.9z"/>
	<g class="st2">
		<g>
			<g>
				
					<linearGradient id="SVGID_5_" gradientUnits="userSpaceOnUse" x1="325.9" y1="428.1833" x2="403.4" y2="428.1833" gradientTransform="matrix(1 0 0 -1 0 490.6667)">
					<stop  offset="0" style="stop-color:#F89D89"/>
					<stop  offset="1" style="stop-color:#FFD297"/>
				</linearGradient>
				<rect x="325.9" y="37.9" class="st3" width="77.5" height="49.1"/>
			</g>
		</g>
	</g>
	<g>
		
			<linearGradient id="SVGID_6_" gradientUnits="userSpaceOnUse" x1="322.2" y1="428.0833" x2="405.6" y2="428.0833" gradientTransform="matrix(1 0 0 -1 0 490.6667)">
			<stop  offset="0" style="stop-color:#F89D89"/>
			<stop  offset="1" style="stop-color:#FFD297"/>
		</linearGradient>
		
			<linearGradient id="SVGID_7_" gradientUnits="userSpaceOnUse" x1="321.825" y1="428.0833" x2="405.975" y2="428.0833" gradientTransform="matrix(1 0 0 -1 0 490.6667)">
			<stop  offset="0" style="stop-color:#004794"/>
			<stop  offset="1" style="stop-color:#001355"/>
		</linearGradient>
		<path class="st4" d="M403.6,34h-79.4c-1.1,0-2,0.9-2,2v53.1c0,1.1,0.9,2,2,2h79.4c1.1,0,2-0.9,2-2V36
			C405.5,34.9,404.7,34,403.6,34z M401.2,86.4h-74.6V39.3h74.6V86.4z"/>
	</g>
	<g>
		<g>
			<g>
				
					<linearGradient id="SVGID_8_" gradientUnits="userSpaceOnUse" x1="33.2" y1="409.0333" x2="131.3" y2="409.0333" gradientTransform="matrix(1 0 0 -1 0 490.6667)">
					<stop  offset="0" style="stop-color:#F89D89"/>
					<stop  offset="1" style="stop-color:#FFD297"/>
				</linearGradient>
				
					<linearGradient id="SVGID_9_" gradientUnits="userSpaceOnUse" x1="32.825" y1="409.0333" x2="131.675" y2="409.0333" gradientTransform="matrix(1 0 0 -1 0 490.6667)">
					<stop  offset="0" style="stop-color:#004794"/>
					<stop  offset="1" style="stop-color:#001355"/>
				</linearGradient>
				<path class="st5" d="M118.6,102.2H45.9c-7,0-12.7-5.7-12.7-12.7V73.7c0-7,5.7-12.7,12.7-12.7h72.7c7,0,12.7,5.7,12.7,12.7v15.9
					C131.3,96.5,125.6,102.2,118.6,102.2z"/>
			</g>
		</g>
		<g>
			<g>
				
					<linearGradient id="SVGID_10_" gradientUnits="userSpaceOnUse" x1="55.3" y1="408.0833" x2="71.4" y2="408.0833" gradientTransform="matrix(1 0 0 -1 0 490.6667)">
					<stop  offset="0" style="stop-color:#F89D89"/>
					<stop  offset="1" style="stop-color:#FFD297"/>
				</linearGradient>
				
					<linearGradient id="SVGID_11_" gradientUnits="userSpaceOnUse" x1="54.925" y1="408.0833" x2="71.775" y2="408.0833" gradientTransform="matrix(1 0 0 -1 0 490.6667)">
					<stop  offset="0" style="stop-color:#004794"/>
					<stop  offset="1" style="stop-color:#001355"/>
				</linearGradient>
				<path class="st6" d="M68.8,66.6l2.6,2.6v10.4l-2.6,2.6l2.6,2.6v11.1l-2.6,2.6H55.3V66.6H68.8z M65.5,79.7l0.6-0.6v-6.8l-0.6-0.6
					h-4.9v8H65.5z M65.5,84.8h-4.9v8.5h4.9l0.6-0.6v-7.2L65.5,84.8z"/>
			</g>
			<g>
				
					<linearGradient id="SVGID_12_" gradientUnits="userSpaceOnUse" x1="74.8361" y1="408.1333" x2="90.7361" y2="408.1333" gradientTransform="matrix(1 0 0 -1 0 490.6667)">
					<stop  offset="0" style="stop-color:#F89D89"/>
					<stop  offset="1" style="stop-color:#FFD297"/>
				</linearGradient>
				
					<linearGradient id="SVGID_13_" gradientUnits="userSpaceOnUse" x1="74.4611" y1="408.1333" x2="91.1111" y2="408.1333" gradientTransform="matrix(1 0 0 -1 0 490.6667)">
					<stop  offset="0" style="stop-color:#004794"/>
					<stop  offset="1" style="stop-color:#001355"/>
				</linearGradient>
				<path class="st7" d="M90.7,95.8l-2.6,2.6H77.4l-2.6-2.6V66.6h5.3v26.1l0.6,0.6h4.1l0.6-0.6V66.6h5.3
					C90.7,66.6,90.7,95.8,90.7,95.8z"/>
			</g>
			<g>
				
					<linearGradient id="SVGID_14_" gradientUnits="userSpaceOnUse" x1="93.0882" y1="408.1333" x2="112.9298" y2="408.1333" gradientTransform="matrix(1 0 0 -1 0 490.6667)">
					<stop  offset="0" style="stop-color:#F89D89"/>
					<stop  offset="1" style="stop-color:#FFD297"/>
				</linearGradient>
				
					<linearGradient id="SVGID_15_" gradientUnits="userSpaceOnUse" x1="92.5588" y1="408.1333" x2="113.4591" y2="408.1333" gradientTransform="matrix(1 0 0 -1 0 490.6667)">
					<stop  offset="0" style="stop-color:#004794"/>
					<stop  offset="1" style="stop-color:#001355"/>
				</linearGradient>
				<path class="st8" d="M105.6,98.4h-5.3V87.3L93,66.6h5.8l4.1,13.4l4.1-13.4h5.8l-7.2,20.7V98.4z"/>
			</g>
		</g>
	</g>
	
		<linearGradient id="SVGID_16_" gradientUnits="userSpaceOnUse" x1="578.2" y1="407.2833" x2="653.5" y2="407.2833" gradientTransform="matrix(1 0 0 -1 0 490.6667)">
		<stop  offset="0" style="stop-color:#F89D89"/>
		<stop  offset="1" style="stop-color:#FFD297"/>
	</linearGradient>
	
		<linearGradient id="SVGID_17_" gradientUnits="userSpaceOnUse" x1="577.825" y1="407.2833" x2="653.875" y2="407.2833" gradientTransform="matrix(1 0 0 -1 0 490.6667)">
		<stop  offset="0" style="stop-color:#004794"/>
		<stop  offset="1" style="stop-color:#001355"/>
	</linearGradient>
	<rect x="578.2" y="50.9" class="st9" width="75.3" height="64.9"/>
	
		<linearGradient id="SVGID_18_" gradientUnits="userSpaceOnUse" x1="585.525" y1="396.4333" x2="646.675" y2="396.4333" gradientTransform="matrix(1 0 0 -1 0 490.6667)">
		<stop  offset="0" style="stop-color:#004794"/>
		<stop  offset="1" style="stop-color:#001355"/>
	</linearGradient>
	<rect x="585.9" y="72.5" class="st10" width="60.4" height="43.4"/>
	
		<linearGradient id="SVGID_19_" gradientUnits="userSpaceOnUse" x1="575.1" y1="441.8833" x2="657.5" y2="441.8833" gradientTransform="matrix(1 0 0 -1 0 490.6667)">
		<stop  offset="0" style="stop-color:#F89D89"/>
		<stop  offset="1" style="stop-color:#FFD297"/>
	</linearGradient>
	
		<linearGradient id="SVGID_20_" gradientUnits="userSpaceOnUse" x1="574.725" y1="441.8833" x2="657.875" y2="441.8833" gradientTransform="matrix(1 0 0 -1 0 490.6667)">
		<stop  offset="0" style="stop-color:#004794"/>
		<stop  offset="1" style="stop-color:#001355"/>
	</linearGradient>
	<rect x="575.1" y="46.5" class="st11" width="82.4" height="4.5"/>
	
		<linearGradient id="SVGID_21_" gradientUnits="userSpaceOnUse" x1="590.4" y1="402.9333" x2="606" y2="402.9333" gradientTransform="matrix(1 0 0 -1 0 490.6667)">
		<stop  offset="0" style="stop-color:#F89D89"/>
		<stop  offset="1" style="stop-color:#FFD297"/>
	</linearGradient>
	
		<linearGradient id="SVGID_22_" gradientUnits="userSpaceOnUse" x1="590.025" y1="402.9333" x2="606.375" y2="402.9333" gradientTransform="matrix(1 0 0 -1 0 490.6667)">
		<stop  offset="0" style="stop-color:#004794"/>
		<stop  offset="1" style="stop-color:#001355"/>
	</linearGradient>
	<rect x="590.4" y="79.9" class="st12" width="15.6" height="15.6"/>
	
		<linearGradient id="SVGID_23_" gradientUnits="userSpaceOnUse" x1="595.5608" y1="408.4833" x2="600.844" y2="408.4833" gradientTransform="matrix(1 0 0 -1 0 490.6667)">
		<stop  offset="0" style="stop-color:#004794"/>
		<stop  offset="1" style="stop-color:#001355"/>
	</linearGradient>
	<rect x="595.8" y="79.9" class="st13" width="4.8" height="4.5"/>
	
		<linearGradient id="SVGID_24_" gradientUnits="userSpaceOnUse" x1="590.4" y1="382.5333" x2="606" y2="382.5333" gradientTransform="matrix(1 0 0 -1 0 490.6667)">
		<stop  offset="0" style="stop-color:#F89D89"/>
		<stop  offset="1" style="stop-color:#FFD297"/>
	</linearGradient>
	
		<linearGradient id="SVGID_25_" gradientUnits="userSpaceOnUse" x1="590.025" y1="382.5333" x2="606.375" y2="382.5333" gradientTransform="matrix(1 0 0 -1 0 490.6667)">
		<stop  offset="0" style="stop-color:#004794"/>
		<stop  offset="1" style="stop-color:#001355"/>
	</linearGradient>
	<rect x="590.4" y="100.3" class="st14" width="15.6" height="15.6"/>
	
		<linearGradient id="SVGID_26_" gradientUnits="userSpaceOnUse" x1="595.5608" y1="388.0833" x2="600.844" y2="388.0833" gradientTransform="matrix(1 0 0 -1 0 490.6667)">
		<stop  offset="0" style="stop-color:#004794"/>
		<stop  offset="1" style="stop-color:#001355"/>
	</linearGradient>
	<rect x="595.8" y="100.3" class="st15" width="4.8" height="4.5"/>
	
		<linearGradient id="SVGID_27_" gradientUnits="userSpaceOnUse" x1="619.6737" y1="382.5333" x2="635.2737" y2="382.5333" gradientTransform="matrix(1 0 0 -1 0 490.6667)">
		<stop  offset="0" style="stop-color:#F89D89"/>
		<stop  offset="1" style="stop-color:#FFD297"/>
	</linearGradient>
	
		<linearGradient id="SVGID_28_" gradientUnits="userSpaceOnUse" x1="619.2987" y1="382.5333" x2="635.6487" y2="382.5333" gradientTransform="matrix(1 0 0 -1 0 490.6667)">
		<stop  offset="0" style="stop-color:#004794"/>
		<stop  offset="1" style="stop-color:#001355"/>
	</linearGradient>
	<rect x="619.7" y="100.3" class="st16" width="15.6" height="15.6"/>
	
		<linearGradient id="SVGID_29_" gradientUnits="userSpaceOnUse" x1="624.8392" y1="388.0833" x2="630.1224" y2="388.0833" gradientTransform="matrix(1 0 0 -1 0 490.6667)">
		<stop  offset="0" style="stop-color:#004794"/>
		<stop  offset="1" style="stop-color:#001355"/>
	</linearGradient>
	<rect x="625.1" y="100.3" class="st17" width="4.8" height="4.5"/>
	<g>
		
			<linearGradient id="SVGID_30_" gradientUnits="userSpaceOnUse" x1="638.0377" y1="415.2333" x2="641.5305" y2="415.2333" gradientTransform="matrix(1 0 0 -1 0 490.6667)">
			<stop  offset="0" style="stop-color:#004794"/>
			<stop  offset="1" style="stop-color:#001355"/>
		</linearGradient>
		<path class="st18" d="M638.3,72.5v4.3c0,0.8,0.7,1.5,1.5,1.5s1.5-0.7,1.5-1.5v-4.3H638.3z"/>
	</g>
	
		<linearGradient id="SVGID_31_" gradientUnits="userSpaceOnUse" x1="585.9" y1="421.9333" x2="646.3" y2="421.9333" gradientTransform="matrix(1 0 0 -1 0 490.6667)">
		<stop  offset="0" style="stop-color:#F89D89"/>
		<stop  offset="1" style="stop-color:#FFD297"/>
	</linearGradient>
	
		<linearGradient id="SVGID_32_" gradientUnits="userSpaceOnUse" x1="585.525" y1="421.9333" x2="646.675" y2="421.9333" gradientTransform="matrix(1 0 0 -1 0 490.6667)">
		<stop  offset="0" style="stop-color:#004794"/>
		<stop  offset="1" style="stop-color:#001355"/>
	</linearGradient>
	<rect x="585.9" y="64.9" class="st19" width="60.4" height="7.6"/>
	<g>
		
			<linearGradient id="SVGID_33_" gradientUnits="userSpaceOnUse" x1="591.238" y1="422.0333" x2="641.038" y2="422.0333" gradientTransform="matrix(1 0 0 -1 0 490.6667)">
			<stop  offset="0" style="stop-color:#004794"/>
			<stop  offset="1" style="stop-color:#001355"/>
		</linearGradient>
		<path class="st20" d="M640.6,69.1h-48.8c-0.3,0-0.5-0.2-0.5-0.5c0-0.3,0.2-0.5,0.5-0.5h48.8c0.3,0,0.5,0.2,0.5,0.5
			C641.1,68.9,640.8,69.1,640.6,69.1z"/>
	</g>
	<g>
		
			<linearGradient id="SVGID_34_" gradientUnits="userSpaceOnUse" x1="16.9" y1="408.4333" x2="148.1" y2="408.4333" gradientTransform="matrix(1 0 0 -1 0 490.6667)">
			<stop  offset="0" style="stop-color:#F89D89"/>
			<stop  offset="1" style="stop-color:#FFD297"/>
		</linearGradient>
		<path class="st21" d="M82.5,147.8c-36.2,0-65.6-29.4-65.6-65.6s29.4-65.6,65.6-65.6s65.6,29.4,65.6,65.6S118.7,147.8,82.5,147.8z
			 M82.5,18c-35.4,0-64.2,28.8-64.2,64.2s28.8,64.2,64.2,64.2s64.2-28.8,64.2-64.2S117.9,18,82.5,18z"/>
	</g>
	<g>
		<g>
			
				<linearGradient id="SVGID_35_" gradientUnits="userSpaceOnUse" x1="297.5" y1="419.7333" x2="428.7" y2="419.7333" gradientTransform="matrix(1 0 0 -1 0 490.6667)">
				<stop  offset="0" style="stop-color:#F89D89"/>
				<stop  offset="1" style="stop-color:#FFD297"/>
			</linearGradient>
			<path class="st22" d="M363.1,136.5c-36.2,0-65.6-29.4-65.6-65.6s29.4-65.6,65.6-65.6s65.6,29.4,65.6,65.6
				S399.3,136.5,363.1,136.5z M363.1,6.7c-35.4,0-64.2,28.8-64.2,64.2s28.8,64.2,64.2,64.2s64.2-28.8,64.2-64.2
				C427.3,35.5,398.5,6.7,363.1,6.7z"/>
		</g>
	</g>
	<g>
		<g>
			
				<linearGradient id="SVGID_36_" gradientUnits="userSpaceOnUse" x1="550.7" y1="411.3333" x2="681.9" y2="411.3333" gradientTransform="matrix(1 0 0 -1 0 490.6667)">
				<stop  offset="0" style="stop-color:#F89D89"/>
				<stop  offset="1" style="stop-color:#FFD297"/>
			</linearGradient>
			<path class="st23" d="M616.3,144.9c-36.2,0-65.6-29.4-65.6-65.6s29.4-65.6,65.6-65.6s65.6,29.4,65.6,65.6
				C681.9,115.4,652.5,144.9,616.3,144.9z M616.3,15.1c-35.4,0-64.2,28.8-64.2,64.2s28.8,64.2,64.2,64.2s64.2-28.8,64.2-64.2
				S651.7,15.1,616.3,15.1z"/>
		</g>
	</g>
	<g>
		<g>
			
				<linearGradient id="SVGID_37_" gradientUnits="userSpaceOnUse" x1="427.9" y1="160.5333" x2="559.1" y2="160.5333" gradientTransform="matrix(1 0 0 -1 0 490.6667)">
				<stop  offset="0" style="stop-color:#F89D89"/>
				<stop  offset="1" style="stop-color:#FFD297"/>
			</linearGradient>
			<path class="st24" d="M493.5,395.7c-36.2,0-65.6-29.4-65.6-65.6s29.4-65.6,65.6-65.6s65.6,29.4,65.6,65.6
				S529.7,395.7,493.5,395.7z M493.5,265.9c-35.4,0-64.2,28.8-64.2,64.2s28.8,64.2,64.2,64.2s64.2-28.8,64.2-64.2
				S528.9,265.9,493.5,265.9z"/>
		</g>
	</g>
	<g>
		<g>
			
				<linearGradient id="SVGID_38_" gradientUnits="userSpaceOnUse" x1="127.9" y1="166.4333" x2="259.1" y2="166.4333" gradientTransform="matrix(1 0 0 -1 0 490.6667)">
				<stop  offset="0" style="stop-color:#F89D89"/>
				<stop  offset="1" style="stop-color:#FFD297"/>
			</linearGradient>
			<path class="st25" d="M193.5,389.8c-36.2,0-65.6-29.4-65.6-65.6s29.4-65.6,65.6-65.6s65.6,29.4,65.6,65.6
				S229.6,389.8,193.5,389.8z M193.5,260c-35.4,0-64.2,28.8-64.2,64.2s28.8,64.2,64.2,64.2s64.2-28.8,64.2-64.2
				C257.7,288.8,228.9,260,193.5,260z"/>
		</g>
	</g>
	
		<linearGradient id="SVGID_39_" gradientUnits="userSpaceOnUse" x1="460.4" y1="149.5333" x2="528.1" y2="149.5333" gradientTransform="matrix(1 0 0 -1 0 490.6667)">
		<stop  offset="0" style="stop-color:#F89D89"/>
		<stop  offset="1" style="stop-color:#FFD297"/>
	</linearGradient>
	
		<linearGradient id="SVGID_40_" gradientUnits="userSpaceOnUse" x1="460.025" y1="149.5333" x2="528.475" y2="149.5333" gradientTransform="matrix(1 0 0 -1 0 490.6667)">
		<stop  offset="0" style="stop-color:#004794"/>
		<stop  offset="1" style="stop-color:#001355"/>
	</linearGradient>
	<rect x="460.4" y="321.5" class="st26" width="67.7" height="39.2"/>
	
		<linearGradient id="SVGID_41_" gradientUnits="userSpaceOnUse" x1="456.9" y1="178.8833" x2="530.5" y2="178.8833" gradientTransform="matrix(1 0 0 -1 0 490.6667)">
		<stop  offset="0" style="stop-color:#F89D89"/>
		<stop  offset="1" style="stop-color:#FFD297"/>
	</linearGradient>
	
		<linearGradient id="SVGID_42_" gradientUnits="userSpaceOnUse" x1="456.525" y1="178.8833" x2="530.875" y2="178.8833" gradientTransform="matrix(1 0 0 -1 0 490.6667)">
		<stop  offset="0" style="stop-color:#004794"/>
		<stop  offset="1" style="stop-color:#001355"/>
	</linearGradient>
	<rect x="456.9" y="301.9" class="st27" width="73.6" height="19.7"/>
	
		<linearGradient id="SVGID_43_" gradientUnits="userSpaceOnUse" x1="174" y1="168.3333" x2="238.3" y2="168.3333" gradientTransform="matrix(1 0 0 -1 0 490.6667)">
		<stop  offset="0" style="stop-color:#F89D89"/>
		<stop  offset="1" style="stop-color:#FFD297"/>
	</linearGradient>
	
		<linearGradient id="SVGID_44_" gradientUnits="userSpaceOnUse" x1="173.625" y1="168.3333" x2="238.675" y2="168.3333" gradientTransform="matrix(1 0 0 -1 0 490.6667)">
		<stop  offset="0" style="stop-color:#004794"/>
		<stop  offset="1" style="stop-color:#001355"/>
	</linearGradient>
	<rect x="174" y="297.7" class="st28" width="64.3" height="49.2"/>
	
		<linearGradient id="SVGID_45_" gradientUnits="userSpaceOnUse" x1="213.2668" y1="143.7333" x2="232.4109" y2="143.7333" gradientTransform="matrix(1 0 0 -1 0 490.6667)">
		<stop  offset="0" style="stop-color:#F89D89"/>
		<stop  offset="1" style="stop-color:#FFD297"/>
	</linearGradient>
	
		<linearGradient id="SVGID_46_" gradientUnits="userSpaceOnUse" x1="212.5168" y1="143.7333" x2="233.1609" y2="143.7333" gradientTransform="matrix(1 0 0 -1 0 490.6667)">
		<stop  offset="0" style="stop-color:#004794"/>
		<stop  offset="1" style="stop-color:#001355"/>
	</linearGradient>
	<circle class="st29" cx="222.8" cy="346.9" r="9.6"/>
	
		<linearGradient id="SVGID_47_" gradientUnits="userSpaceOnUse" x1="147.5" y1="163.9293" x2="174.0397" y2="163.9293" gradientTransform="matrix(1 0 0 -1 0 490.6667)">
		<stop  offset="0" style="stop-color:#F89D89"/>
		<stop  offset="1" style="stop-color:#FFD297"/>
	</linearGradient>
	
		<linearGradient id="SVGID_48_" gradientUnits="userSpaceOnUse" x1="147.125" y1="163.9293" x2="174.4147" y2="163.9293" gradientTransform="matrix(1 0 0 -1 0 490.6667)">
		<stop  offset="0" style="stop-color:#004794"/>
		<stop  offset="1" style="stop-color:#001355"/>
	</linearGradient>
	<path class="st30" d="M174,307c0,0-20-4.2-22.8,14.9v11.6l-3.7,6v7.3H174V307z"/>
	
		<linearGradient id="SVGID_49_" gradientUnits="userSpaceOnUse" x1="164.4738" y1="143.7333" x2="183.6178" y2="143.7333" gradientTransform="matrix(1 0 0 -1 0 490.6667)">
		<stop  offset="0" style="stop-color:#F89D89"/>
		<stop  offset="1" style="stop-color:#FFD297"/>
	</linearGradient>
	
		<linearGradient id="SVGID_50_" gradientUnits="userSpaceOnUse" x1="163.7238" y1="143.7333" x2="184.3678" y2="143.7333" gradientTransform="matrix(1 0 0 -1 0 490.6667)">
		<stop  offset="0" style="stop-color:#004794"/>
		<stop  offset="1" style="stop-color:#001355"/>
	</linearGradient>
	<circle class="st31" cx="174" cy="346.9" r="9.6"/>
	
		<linearGradient id="SVGID_51_" gradientUnits="userSpaceOnUse" x1="155.4088" y1="168.947" x2="169.7443" y2="168.947" gradientTransform="matrix(1 0 0 -1 0 490.6667)">
		<stop  offset="0" style="stop-color:#004794"/>
		<stop  offset="1" style="stop-color:#001355"/>
	</linearGradient>
	<path class="st32" d="M169.4,311.6v13.1v7.1h-13.6v-7.1C156.5,317.6,162.3,312.1,169.4,311.6z"/>
	
		<linearGradient id="SVGID_52_" gradientUnits="userSpaceOnUse" x1="196.8514" y1="414.9207" x2="248.9999" y2="415.1599" gradientTransform="matrix(1 0 0 -1 0 490.6667)">
		<stop  offset="0" style="stop-color:#004794"/>
		<stop  offset="0.2402" style="stop-color:#004390"/>
		<stop  offset="0.5037" style="stop-color:#003882"/>
		<stop  offset="0.7772" style="stop-color:#00266D"/>
		<stop  offset="1" style="stop-color:#001355"/>
	</linearGradient>
	<polygon class="st33" points="249,75.5 249,75.5 232.3,59.5 232.3,64.6 196.9,64.6 196.9,86.3 232.3,86.3 232.3,91.6 	"/>
	
		<linearGradient id="SVGID_53_" gradientUnits="userSpaceOnUse" x1="318.8008" y1="153.6567" x2="370.9497" y2="153.896" gradientTransform="matrix(1 0 0 -1 0 490.6667)">
		<stop  offset="0" style="stop-color:#004794"/>
		<stop  offset="0.2402" style="stop-color:#004390"/>
		<stop  offset="0.5037" style="stop-color:#003882"/>
		<stop  offset="0.7772" style="stop-color:#00266D"/>
		<stop  offset="1" style="stop-color:#001355"/>
	</linearGradient>
	<polygon class="st34" points="318.8,336.8 318.8,336.8 335.5,320.8 335.5,325.9 370.9,325.9 370.9,347.7 335.5,347.7 335.5,353 	
		"/>
	
		<linearGradient id="SVGID_54_" gradientUnits="userSpaceOnUse" x1="466.7512" y1="407.0707" x2="518.9001" y2="407.31" gradientTransform="matrix(1 0 0 -1 0 490.6667)">
		<stop  offset="0" style="stop-color:#004794"/>
		<stop  offset="0.2402" style="stop-color:#004390"/>
		<stop  offset="0.5037" style="stop-color:#003882"/>
		<stop  offset="0.7772" style="stop-color:#00266D"/>
		<stop  offset="1" style="stop-color:#001355"/>
	</linearGradient>
	<polygon class="st35" points="518.9,83.3 518.9,83.3 502.2,67.3 502.2,72.4 466.8,72.4 466.8,94.2 502.2,94.2 502.2,99.5 	"/>
	
		<linearGradient id="SVGID_55_" gradientUnits="userSpaceOnUse" x1="597.1641" y1="177.3173" x2="657.1404" y2="177.5925" gradientTransform="matrix(1 0 0 -1 0 490.6667)">
		<stop  offset="0" style="stop-color:#004794"/>
		<stop  offset="0.2402" style="stop-color:#004390"/>
		<stop  offset="0.5037" style="stop-color:#003882"/>
		<stop  offset="0.7772" style="stop-color:#00266D"/>
		<stop  offset="1" style="stop-color:#001355"/>
	</linearGradient>
	<path class="st36" d="M656,284.9L656,284.9c0.1,0,0.3,0.3,0.5,0.3c0.4,0.3,0.6,0.9,0.6,1.5l-0.2,28.1c-0.1,10.1-3.6,15.1-10.1,15
		l-35.4-0.2l-0.1,10.2c0,0.7-0.2,1.3-0.6,1.6c-0.1,0-0.1,0-0.3,0c-0.4,0-0.6-0.3-0.8-0.6l-12.1-18.6c-0.4-0.6-0.4-1.5,0-2.1
		l12.3-18.4c0.4-0.6,0.8-0.9,1.1-0.6c0.4,0.3,0.6,0.9,0.6,1.8l-0.1,11.2l33.6,0.2c1,0,1.7-1.2,1.7-2.5l0.1-13c0-0.3,0-0.9,0.4-1
		l8.3-12.4C655.6,285.2,655.8,284.9,656,284.9L656,284.9z"/>
	<g>
		
			<linearGradient id="SVGID_56_" gradientUnits="userSpaceOnUse" x1="611.8229" y1="361.2333" x2="617.0937" y2="361.2333" gradientTransform="matrix(1 0 0 -1 0 490.6667)">
			<stop  offset="0" style="stop-color:#004794"/>
			<stop  offset="1" style="stop-color:#001355"/>
		</linearGradient>
		<line class="st37" x1="612.3" y1="129.4" x2="616.6" y2="129.4"/>
		
			<linearGradient id="SVGID_57_" gradientUnits="userSpaceOnUse" x1="619.9" y1="361.2333" x2="652.2" y2="361.2333" gradientTransform="matrix(1 0 0 -1 0 490.6667)">
			<stop  offset="0" style="stop-color:#004794"/>
			<stop  offset="1" style="stop-color:#001355"/>
		</linearGradient>
		<line class="st38" x1="620.4" y1="129.4" x2="651.7" y2="129.4"/>
	</g>
	<g>
		
			<linearGradient id="SVGID_58_" gradientUnits="userSpaceOnUse" x1="572.3431" y1="368.8333" x2="577.614" y2="368.8333" gradientTransform="matrix(1 0 0 -1 0 490.6667)">
			<stop  offset="0" style="stop-color:#004794"/>
			<stop  offset="1" style="stop-color:#001355"/>
		</linearGradient>
		<line class="st39" x1="572.8" y1="121.8" x2="577.1" y2="121.8"/>
		
			<linearGradient id="SVGID_59_" gradientUnits="userSpaceOnUse" x1="580.4" y1="368.8333" x2="612.7" y2="368.8333" gradientTransform="matrix(1 0 0 -1 0 490.6667)">
			<stop  offset="0" style="stop-color:#004794"/>
			<stop  offset="1" style="stop-color:#001355"/>
		</linearGradient>
		<line class="st40" x1="580.9" y1="121.8" x2="612.2" y2="121.8"/>
	</g>
	<g>
		
			<linearGradient id="SVGID_60_" gradientUnits="userSpaceOnUse" x1="489.6298" y1="114.1333" x2="494.9006" y2="114.1333" gradientTransform="matrix(1 0 0 -1 0 490.6667)">
			<stop  offset="0" style="stop-color:#004794"/>
			<stop  offset="1" style="stop-color:#001355"/>
		</linearGradient>
		<line class="st41" x1="490.1" y1="376.5" x2="494.4" y2="376.5"/>
		
			<linearGradient id="SVGID_61_" gradientUnits="userSpaceOnUse" x1="497.7" y1="114.1333" x2="530" y2="114.1333" gradientTransform="matrix(1 0 0 -1 0 490.6667)">
			<stop  offset="0" style="stop-color:#004794"/>
			<stop  offset="1" style="stop-color:#001355"/>
		</linearGradient>
		<line class="st42" x1="498.2" y1="376.5" x2="529.5" y2="376.5"/>
	</g>
	<g>
		
			<linearGradient id="SVGID_62_" gradientUnits="userSpaceOnUse" x1="450.1501" y1="121.8333" x2="455.4209" y2="121.8333" gradientTransform="matrix(1 0 0 -1 0 490.6667)">
			<stop  offset="0" style="stop-color:#004794"/>
			<stop  offset="1" style="stop-color:#001355"/>
		</linearGradient>
		<line class="st43" x1="450.7" y1="368.8" x2="454.9" y2="368.8"/>
		
			<linearGradient id="SVGID_63_" gradientUnits="userSpaceOnUse" x1="458.2" y1="121.8333" x2="490.5" y2="121.8333" gradientTransform="matrix(1 0 0 -1 0 490.6667)">
			<stop  offset="0" style="stop-color:#004794"/>
			<stop  offset="1" style="stop-color:#001355"/>
		</linearGradient>
		<line class="st44" x1="458.7" y1="368.8" x2="490" y2="368.8"/>
	</g>
	
		<linearGradient id="SVGID_64_" gradientUnits="userSpaceOnUse" x1="510.4169" y1="122.8333" x2="512.4169" y2="122.8333" gradientTransform="matrix(1 0 0 -1 0 490.6667)">
		<stop  offset="0" style="stop-color:#004794"/>
		<stop  offset="1" style="stop-color:#001355"/>
	</linearGradient>
	<path class="st45" d="M511.4,366.8c0.6,0,1,0.4,1,1s-0.4,1-1,1s-1-0.4-1-1S510.8,366.8,511.4,366.8z"/>
	
		<linearGradient id="SVGID_65_" gradientUnits="userSpaceOnUse" x1="477.7915" y1="114.1333" x2="479.7915" y2="114.1333" gradientTransform="matrix(1 0 0 -1 0 490.6667)">
		<stop  offset="0" style="stop-color:#004794"/>
		<stop  offset="1" style="stop-color:#001355"/>
	</linearGradient>
	<circle class="st46" cx="478.8" cy="376.5" r="1"/>
	
		<linearGradient id="SVGID_66_" gradientUnits="userSpaceOnUse" x1="541.7561" y1="158.4333" x2="543.7561" y2="158.4333" gradientTransform="matrix(1 0 0 -1 0 490.6667)">
		<stop  offset="0" style="stop-color:#F89D89"/>
		<stop  offset="1" style="stop-color:#FFD297"/>
	</linearGradient>
	<circle class="st47" cx="542.8" cy="332.2" r="1"/>
	
		<linearGradient id="SVGID_67_" gradientUnits="userSpaceOnUse" x1="470.8108" y1="211.0333" x2="472.8108" y2="211.0333" gradientTransform="matrix(1 0 0 -1 0 490.6667)">
		<stop  offset="0" style="stop-color:#F89D89"/>
		<stop  offset="1" style="stop-color:#FFD297"/>
	</linearGradient>
	<circle class="st48" cx="471.8" cy="279.6" r="1"/>
	
		<linearGradient id="SVGID_68_" gradientUnits="userSpaceOnUse" x1="346.6241" y1="251.5651" x2="349.1241" y2="251.5651" gradientTransform="matrix(0.7071 -0.7071 -0.7071 -0.7071 375.9855 742.6122)">
		<stop  offset="0" style="stop-color:#004794"/>
		<stop  offset="1" style="stop-color:#001355"/>
	</linearGradient>
	<ellipse class="st49" cx="444.1" cy="318.8" rx="1" ry="1"/>
	
		<linearGradient id="SVGID_69_" gradientUnits="userSpaceOnUse" x1="416.3391" y1="278.5651" x2="418.8391" y2="278.5651" gradientTransform="matrix(0.7071 -0.7071 -0.7071 -0.7071 415.5205 783.9901)">
		<stop  offset="0" style="stop-color:#004794"/>
		<stop  offset="1" style="stop-color:#001355"/>
	</linearGradient>
	<ellipse class="st50" cx="513.8" cy="291.8" rx="1" ry="1"/>
	<g>
		
			<linearGradient id="SVGID_70_" gradientUnits="userSpaceOnUse" x1="190.4123" y1="121.4333" x2="195.6832" y2="121.4333" gradientTransform="matrix(1 0 0 -1 0 490.6667)">
			<stop  offset="0" style="stop-color:#004794"/>
			<stop  offset="1" style="stop-color:#001355"/>
		</linearGradient>
		<line class="st51" x1="190.9" y1="369.2" x2="195.2" y2="369.2"/>
		
			<linearGradient id="SVGID_71_" gradientUnits="userSpaceOnUse" x1="198.4592" y1="121.4333" x2="230.7592" y2="121.4333" gradientTransform="matrix(1 0 0 -1 0 490.6667)">
			<stop  offset="0" style="stop-color:#004794"/>
			<stop  offset="1" style="stop-color:#001355"/>
		</linearGradient>
		<line class="st52" x1="199" y1="369.2" x2="230.3" y2="369.2"/>
	</g>
	<g>
		
			<linearGradient id="SVGID_72_" gradientUnits="userSpaceOnUse" x1="150.9326" y1="129.0333" x2="156.2034" y2="129.0333" gradientTransform="matrix(1 0 0 -1 0 490.6667)">
			<stop  offset="0" style="stop-color:#004794"/>
			<stop  offset="1" style="stop-color:#001355"/>
		</linearGradient>
		<line class="st53" x1="151.4" y1="361.6" x2="155.7" y2="361.6"/>
		
			<linearGradient id="SVGID_73_" gradientUnits="userSpaceOnUse" x1="159" y1="129.0333" x2="191.3" y2="129.0333" gradientTransform="matrix(1 0 0 -1 0 490.6667)">
			<stop  offset="0" style="stop-color:#004794"/>
			<stop  offset="1" style="stop-color:#001355"/>
		</linearGradient>
		<line class="st54" x1="159.5" y1="361.6" x2="190.8" y2="361.6"/>
	</g>
	
		<linearGradient id="SVGID_74_" gradientUnits="userSpaceOnUse" x1="211.2" y1="130.0333" x2="213.2" y2="130.0333" gradientTransform="matrix(1 0 0 -1 0 490.6667)">
		<stop  offset="0" style="stop-color:#004794"/>
		<stop  offset="1" style="stop-color:#001355"/>
	</linearGradient>
	<circle class="st55" cx="212.2" cy="360.6" r="1"/>
	
		<linearGradient id="SVGID_75_" gradientUnits="userSpaceOnUse" x1="178.574" y1="121.4333" x2="180.574" y2="121.4333" gradientTransform="matrix(1 0 0 -1 0 490.6667)">
		<stop  offset="0" style="stop-color:#004794"/>
		<stop  offset="1" style="stop-color:#001355"/>
	</linearGradient>
	<circle class="st56" cx="179.6" cy="369.2" r="1"/>
	
		<linearGradient id="SVGID_76_" gradientUnits="userSpaceOnUse" x1="248.8819" y1="166.4333" x2="250.8819" y2="166.4333" gradientTransform="matrix(1 0 0 -1 0 490.6667)">
		<stop  offset="0" style="stop-color:#F89D89"/>
		<stop  offset="1" style="stop-color:#FFD297"/>
	</linearGradient>
	<circle class="st57" cx="249.9" cy="324.2" r="1"/>
	
		<linearGradient id="SVGID_77_" gradientUnits="userSpaceOnUse" x1="177.5736" y1="218.1333" x2="179.5736" y2="218.1333" gradientTransform="matrix(1 0 0 -1 0 490.6667)">
		<stop  offset="0" style="stop-color:#F89D89"/>
		<stop  offset="1" style="stop-color:#FFD297"/>
	</linearGradient>
	<circle class="st58" cx="178.6" cy="272.5" r="1"/>
	
		<linearGradient id="SVGID_78_" gradientUnits="userSpaceOnUse" x1="45.4224" y1="257.6651" x2="47.9224" y2="257.6651" gradientTransform="matrix(0.7071 -0.7071 -0.7071 -0.7071 292.1049 527.8331)">
		<stop  offset="0" style="stop-color:#004794"/>
		<stop  offset="1" style="stop-color:#001355"/>
	</linearGradient>
	<ellipse class="st59" cx="142.9" cy="312.7" rx="1" ry="1"/>
	
		<linearGradient id="SVGID_79_" gradientUnits="userSpaceOnUse" x1="123.31" y1="286.1651" x2="125.81" y2="286.1651" gradientTransform="matrix(0.7071 -0.7071 -0.7071 -0.7071 335.0826 574.5554)">
		<stop  offset="0" style="stop-color:#004794"/>
		<stop  offset="1" style="stop-color:#001355"/>
	</linearGradient>
	<ellipse class="st60" cx="220.8" cy="284.1" rx="1" ry="1"/>
	<g>
		
			<linearGradient id="SVGID_80_" gradientUnits="userSpaceOnUse" x1="356.1093" y1="373.1333" x2="361.3801" y2="373.1333" gradientTransform="matrix(1 0 0 -1 0 490.6667)">
			<stop  offset="0" style="stop-color:#004794"/>
			<stop  offset="1" style="stop-color:#001355"/>
		</linearGradient>
		<line class="st61" x1="356.6" y1="117.5" x2="360.9" y2="117.5"/>
		
			<linearGradient id="SVGID_81_" gradientUnits="userSpaceOnUse" x1="364.1561" y1="373.1333" x2="396.4561" y2="373.1333" gradientTransform="matrix(1 0 0 -1 0 490.6667)">
			<stop  offset="0" style="stop-color:#004794"/>
			<stop  offset="1" style="stop-color:#001355"/>
		</linearGradient>
		<line class="st62" x1="364.7" y1="117.5" x2="396" y2="117.5"/>
	</g>
	<g>
		
			<linearGradient id="SVGID_82_" gradientUnits="userSpaceOnUse" x1="316.6295" y1="380.8333" x2="321.9004" y2="380.8333" gradientTransform="matrix(1 0 0 -1 0 490.6667)">
			<stop  offset="0" style="stop-color:#004794"/>
			<stop  offset="1" style="stop-color:#001355"/>
		</linearGradient>
		<line class="st63" x1="317.1" y1="109.8" x2="321.4" y2="109.8"/>
		
			<linearGradient id="SVGID_83_" gradientUnits="userSpaceOnUse" x1="324.7" y1="380.8333" x2="357" y2="380.8333" gradientTransform="matrix(1 0 0 -1 0 490.6667)">
			<stop  offset="0" style="stop-color:#004794"/>
			<stop  offset="1" style="stop-color:#001355"/>
		</linearGradient>
		<line class="st64" x1="325.2" y1="109.8" x2="356.5" y2="109.8"/>
	</g>
	
		<linearGradient id="SVGID_84_" gradientUnits="userSpaceOnUse" x1="376.8964" y1="381.8333" x2="378.8964" y2="381.8333" gradientTransform="matrix(1 0 0 -1 0 490.6667)">
		<stop  offset="0" style="stop-color:#004794"/>
		<stop  offset="1" style="stop-color:#001355"/>
	</linearGradient>
	<circle class="st65" cx="377.9" cy="108.8" r="1"/>
	
		<linearGradient id="SVGID_85_" gradientUnits="userSpaceOnUse" x1="344.271" y1="373.1333" x2="346.271" y2="373.1333" gradientTransform="matrix(1 0 0 -1 0 490.6667)">
		<stop  offset="0" style="stop-color:#004794"/>
		<stop  offset="1" style="stop-color:#001355"/>
	</linearGradient>
	<circle class="st66" cx="345.3" cy="117.5" r="1"/>
	
		<linearGradient id="SVGID_86_" gradientUnits="userSpaceOnUse" x1="414.5788" y1="418.1333" x2="416.5788" y2="418.1333" gradientTransform="matrix(1 0 0 -1 0 490.6667)">
		<stop  offset="0" style="stop-color:#F89D89"/>
		<stop  offset="1" style="stop-color:#FFD297"/>
	</linearGradient>
	<circle class="st67" cx="415.6" cy="72.5" r="1"/>
	
		<linearGradient id="SVGID_87_" gradientUnits="userSpaceOnUse" x1="338.6201" y1="469.9333" x2="340.6201" y2="469.9333" gradientTransform="matrix(1 0 0 -1 0 490.6667)">
		<stop  offset="0" style="stop-color:#F89D89"/>
		<stop  offset="1" style="stop-color:#FFD297"/>
	</linearGradient>
	<circle class="st68" cx="339.6" cy="20.7" r="1"/>
	
		<linearGradient id="SVGID_88_" gradientUnits="userSpaceOnUse" x1="211.1193" y1="509.3651" x2="213.6193" y2="509.3651" gradientTransform="matrix(0.7071 -0.7071 -0.7071 -0.7071 518.6269 571.2724)">
		<stop  offset="0" style="stop-color:#004794"/>
		<stop  offset="1" style="stop-color:#001355"/>
	</linearGradient>
	<ellipse class="st69" cx="308.6" cy="60.9" rx="1" ry="1"/>
	
		<linearGradient id="SVGID_89_" gradientUnits="userSpaceOnUse" x1="284.7452" y1="543.665" x2="287.2452" y2="543.665" gradientTransform="matrix(0.7071 -0.7071 -0.7071 -0.7071 564.4177 613.299)">
		<stop  offset="0" style="stop-color:#004794"/>
		<stop  offset="1" style="stop-color:#001355"/>
	</linearGradient>
	<ellipse class="st70" cx="382.2" cy="26.7" rx="1" ry="1"/>
	<g>
		
			<linearGradient id="SVGID_90_" gradientUnits="userSpaceOnUse" x1="77.7517" y1="366.0333" x2="83.0225" y2="366.0333" gradientTransform="matrix(1 0 0 -1 0 490.6667)">
			<stop  offset="0" style="stop-color:#004794"/>
			<stop  offset="1" style="stop-color:#001355"/>
		</linearGradient>
		<line class="st71" x1="78.3" y1="124.6" x2="82.5" y2="124.6"/>
		
			<linearGradient id="SVGID_91_" gradientUnits="userSpaceOnUse" x1="85.8" y1="366.0333" x2="118.1" y2="366.0333" gradientTransform="matrix(1 0 0 -1 0 490.6667)">
			<stop  offset="0" style="stop-color:#004794"/>
			<stop  offset="1" style="stop-color:#001355"/>
		</linearGradient>
		<line class="st72" x1="86.3" y1="124.6" x2="117.6" y2="124.6"/>
	</g>
	<g>
		
			<linearGradient id="SVGID_92_" gradientUnits="userSpaceOnUse" x1="38.272" y1="373.6333" x2="43.5428" y2="373.6333" gradientTransform="matrix(1 0 0 -1 0 490.6667)">
			<stop  offset="0" style="stop-color:#004794"/>
			<stop  offset="1" style="stop-color:#001355"/>
		</linearGradient>
		<line class="st73" x1="38.8" y1="117" x2="43" y2="117"/>
		
			<linearGradient id="SVGID_93_" gradientUnits="userSpaceOnUse" x1="46.3" y1="373.6333" x2="78.6" y2="373.6333" gradientTransform="matrix(1 0 0 -1 0 490.6667)">
			<stop  offset="0" style="stop-color:#004794"/>
			<stop  offset="1" style="stop-color:#001355"/>
		</linearGradient>
		<line class="st74" x1="46.8" y1="117" x2="78.1" y2="117"/>
	</g>
	
		<linearGradient id="SVGID_94_" gradientUnits="userSpaceOnUse" x1="98.5389" y1="374.6333" x2="100.5389" y2="374.6333" gradientTransform="matrix(1 0 0 -1 0 490.6667)">
		<stop  offset="0" style="stop-color:#004794"/>
		<stop  offset="1" style="stop-color:#001355"/>
	</linearGradient>
	<circle class="st75" cx="99.5" cy="116" r="1"/>
	
		<linearGradient id="SVGID_95_" gradientUnits="userSpaceOnUse" x1="65.9134" y1="366.0333" x2="67.9134" y2="366.0333" gradientTransform="matrix(1 0 0 -1 0 490.6667)">
		<stop  offset="0" style="stop-color:#004794"/>
		<stop  offset="1" style="stop-color:#001355"/>
	</linearGradient>
	<circle class="st76" cx="66.9" cy="124.6" r="1"/>
	
		<linearGradient id="SVGID_96_" gradientUnits="userSpaceOnUse" x1="137.9243" y1="403.7333" x2="139.9243" y2="403.7333" gradientTransform="matrix(1 0 0 -1 0 490.6667)">
		<stop  offset="0" style="stop-color:#F89D89"/>
		<stop  offset="1" style="stop-color:#FFD297"/>
	</linearGradient>
	<circle class="st77" cx="138.9" cy="86.9" r="1"/>
	
		<linearGradient id="SVGID_97_" gradientUnits="userSpaceOnUse" x1="60.2625" y1="452.1333" x2="62.2625" y2="452.1333" gradientTransform="matrix(1 0 0 -1 0 490.6667)">
		<stop  offset="0" style="stop-color:#F89D89"/>
		<stop  offset="1" style="stop-color:#FFD297"/>
	</linearGradient>
	<circle class="st78" cx="61.3" cy="38.5" r="1"/>
	
		<linearGradient id="SVGID_98_" gradientUnits="userSpaceOnUse" x1="-71.7827" y1="493.6651" x2="-69.2827" y2="493.6651" gradientTransform="matrix(0.7071 -0.7071 -0.7071 -0.7071 424.6921 375.8178)">
		<stop  offset="0" style="stop-color:#004794"/>
		<stop  offset="1" style="stop-color:#001355"/>
	</linearGradient>
	<ellipse class="st79" cx="25.7" cy="76.6" rx="1" ry="1"/>
	
		<linearGradient id="SVGID_99_" gradientUnits="userSpaceOnUse" x1="4.461" y1="520.8651" x2="6.961" y2="520.8651" gradientTransform="matrix(0.7071 -0.7071 -0.7071 -0.7071 466.1981 421.7878)">
		<stop  offset="0" style="stop-color:#004794"/>
		<stop  offset="1" style="stop-color:#001355"/>
	</linearGradient>
	<ellipse class="st80" cx="102" cy="49.4" rx="1" ry="1"/>
	
		<linearGradient id="SVGID_100_" gradientUnits="userSpaceOnUse" x1="596.0037" y1="361.2333" x2="598.3678" y2="361.2333" gradientTransform="matrix(1 0 0 -1 0 490.6667)">
		<stop  offset="0" style="stop-color:#004794"/>
		<stop  offset="1" style="stop-color:#001355"/>
	</linearGradient>
	<circle class="st81" cx="597.2" cy="129.4" r="1.2"/>
	
		<linearGradient id="SVGID_101_" gradientUnits="userSpaceOnUse" x1="643.4358" y1="369.6333" x2="645.7998" y2="369.6333" gradientTransform="matrix(1 0 0 -1 0 490.6667)">
		<stop  offset="0" style="stop-color:#004794"/>
		<stop  offset="1" style="stop-color:#001355"/>
	</linearGradient>
	<circle class="st82" cx="644.6" cy="121" r="1.2"/>
	
		<linearGradient id="SVGID_102_" gradientUnits="userSpaceOnUse" x1="617.7101" y1="450.1361" x2="620.9609" y2="450.1361" gradientTransform="matrix(0.9493 -0.3144 -0.3144 -0.9493 219.5367 685.5574)">
		<stop  offset="0" style="stop-color:#004794"/>
		<stop  offset="1" style="stop-color:#001355"/>
	</linearGradient>
	
		<ellipse transform="matrix(0.9493 -0.3144 0.3144 0.9493 13.7906 212.5806)" class="st83" cx="665.9" cy="63.5" rx="1.4" ry="1.4"/>
	
		<linearGradient id="SVGID_103_" gradientUnits="userSpaceOnUse" x1="549.0437" y1="455.0383" x2="551.7937" y2="455.0383" gradientTransform="matrix(0.9493 -0.3144 -0.3144 -0.9493 188.3481 684.954)">
		<stop  offset="0" style="stop-color:#F89D89"/>
		<stop  offset="1" style="stop-color:#FFD297"/>
	</linearGradient>
	<circle class="st84" cx="567.8" cy="79.9" r="1.4"/>
	
		<linearGradient id="SVGID_104_" gradientUnits="userSpaceOnUse" x1="617.5976" y1="476.579" x2="620.3476" y2="476.579" gradientTransform="matrix(0.9493 -0.3144 -0.3144 -0.9493 188.3481 684.954)">
		<stop  offset="0" style="stop-color:#F89D89"/>
		<stop  offset="1" style="stop-color:#FFD297"/>
	</linearGradient>
	<circle class="st85" cx="626.1" cy="37.9" r="1.4"/>
	
		<linearGradient id="SVGID_105_" gradientUnits="userSpaceOnUse" x1="544.3769" y1="484.9361" x2="547.6276" y2="484.9361" gradientTransform="matrix(0.9493 -0.3144 -0.3144 -0.9493 226.7471 660.7399)">
		<stop  offset="0" style="stop-color:#004794"/>
		<stop  offset="1" style="stop-color:#001355"/>
	</linearGradient>
	
		<ellipse transform="matrix(0.9493 -0.3144 0.3144 0.9493 21.0164 187.7657)" class="st86" cx="592.6" cy="28.7" rx="1.4" ry="1.4"/>
	<text transform="matrix(1 0 0 1 21.605 172.0609)"><tspan x="0" y="0" class="st87 st88 st89">Buyer Orders From</tspan><tspan x="5" y="16.2" class="st87 st88 st89">Retailer’s Website</tspan></text>
	<text transform="matrix(1 0 0 1 314.7365 172.0609)"><tspan x="0" y="0" class="st87 st88 st89">Online Retailers</tspan><tspan x="-2.7" y="16.2" class="st87 st88 st89">forward order to</tspan><tspan x="-20.8" y="32.5" class="st87 st88 st89">supplier with payment</tspan></text>
	<text transform="matrix(1 0 0 1 570.4726 172.0609)"><tspan x="0" y="0" class="st87 st88 st89">Suppliers pack</tspan><tspan x="-6.5" y="16.2" class="st87 st88 st89">the product with</tspan><tspan x="-10.4" y="32.5" class="st87 st88 st89">retailers branding</tspan></text>
	<text transform="matrix(1 0 0 1 147.6499 420.2333)"><tspan x="0" y="0" class="st87 st88 st89">Customer will</tspan><tspan x="-5.5" y="16.2" class="st87 st88 st89">get the product</tspan><tspan x="-10" y="32.5" class="st87 st88 st89">at their doorstep</tspan></text>
	<text transform="matrix(1 0 0 1 450.0978 419.8333)"><tspan x="0" y="0" class="st87 st88 st89">Suppliers Ship</tspan><tspan x="-0.4" y="16.2" class="st87 st88 st89">the product to</tspan><tspan x="-16.3" y="32.5" class="st87 st88 st89">customer’s address</tspan></text>
</g>
</svg>
