<?xml version="1.0" encoding="utf-8"?>
<!-- Generator: Adobe Illustrator 16.0.0, SVG Export Plug-In . SVG Version: 6.00 Build 0)  -->
<!DOCTYPE svg PUBLIC "-//W3C//DTD SVG 1.1//EN" "http://www.w3.org/Graphics/SVG/1.1/DTD/svg11.dtd">
<svg version="1.1" id="Layer_1" xmlns="http://www.w3.org/2000/svg" xmlns:xlink="http://www.w3.org/1999/xlink" x="0px" y="0px"
	 width="1659px" height="1221px" viewBox="0 0 1659 1221" enable-background="new 0 0 1659 1221" xml:space="preserve">
<filter  width="162.2%" height="183.0%" id="filter-5" filterUnits="objectBoundingBox" y="-48.7%" x="-18.7%">
	<feOffset  dy="-62" dx="142" result="shadowOffsetOuter1" in="SourceAlpha"></feOffset>
	<feGaussianBlur  stdDeviation="95" result="shadowBlurOuter1" in="shadowOffsetOuter1"></feGaussianBlur>
	<feColorMatrix  type="matrix" values="0 0 0 0 0   0 0 0 0 0   0 0 0 0 0  0 0 0 0.5 0" in="shadowBlurOuter1"></feColorMatrix>
</filter>
<title>Background</title>
<desc>Created with Sketch.</desc>
<g id="Header" transform="translate(-281.000000, -659.000000)">
	<g id="Background-">
		
			<linearGradient id="background_1_" gradientUnits="userSpaceOnUse" x1="711.5933" y1="1570.0967" x2="710.5474" y2="1569.6714" gradientTransform="matrix(1658.5812 0 0 -1220.0602 -1178536.25 1916458.5)">
			<stop  offset="0" style="stop-color:#FFB37E"/>
			<stop  offset="1" style="stop-color:#FF6600"/>
		</linearGradient>
		<path id="background" fill="url(#background_1_)" d="M1928.488,808.984c23.477-49.994,7.903-118.936-29.908-149.984l0,0H281
			v1220.061l1273.452-441.966c52.179-18.109,113.512-73.321,136.986-123.312L1928.488,808.984z"/>
		
			<linearGradient id="Shapoe_1_" gradientUnits="userSpaceOnUse" x1="711.3423" y1="1568.8857" x2="711.4784" y2="1568.6669" gradientTransform="matrix(747.7358 -563.4594 399.6745 530.386 -1158295.125 -429744.375)">
			<stop  offset="0" style="stop-color:#E7EAF6"/>
			<stop  offset="1" style="stop-color:#FFFFFF;stop-opacity:0.3148"/>
		</linearGradient>
		<path id="Shapoe" opacity="0.1" fill="url(#Shapoe_1_)" enable-background="new    " d="M991.469,1277.037
			c46.479,29.826,62.462,93.174,35.703,141.486l-138.573,250.193L281,1879.32v-372.104l-0.01-212.195l431.694-110.015
			c53.513-13.637,134.57-0.515,181.05,29.313L991.469,1277.037z"/>
		
			<g id="shape" transform="translate(1182.123713, 697.176935) scale(-1, 1) rotate(40.000000) translate(-1182.123713, -697.176935) " opacity="0.1">
			<g filter="url(#filter-5)">
				<path id="path-4_2_" d="M1748.43,434.723c19.17-51.794-5.604-113.254-55.33-137.271l-60.907-29.417l-1022.86,858.282
					l905.054-286.623c52.647-16.673,110.868-72.184,130.037-123.972L1748.43,434.723z"/>
			</g>
			<g>
				
					<linearGradient id="path-4_2_" gradientUnits="userSpaceOnUse" x1="2103.5176" y1="1063.7335" x2="2103.2029" y2="1063.5475" gradientTransform="matrix(-877.5659 -551.6927 736.3655 -657.4819 1064199 1860458.625)">
					<stop  offset="0" style="stop-color:#FFFFFF"/>
					<stop  offset="1" style="stop-color:#FFFFFF;stop-opacity:0.3148"/>
				</linearGradient>
				<path id="path-4_1_" fill="url(#path-4_2_)" d="M1748.43,434.723c19.17-51.794-5.604-113.254-55.33-137.271l-60.907-29.417
					l-1022.86,858.282l905.054-286.623c52.647-16.673,110.868-72.184,130.037-123.972L1748.43,434.723z"/>
			</g>
		</g>
	</g>
</g>
</svg>
