<?xml version="1.0" encoding="utf-8"?>
<!-- Generator: Adobe Illustrator 21.0.2, SVG Export Plug-In . SVG Version: 6.00 Build 0)  -->
<svg version="1.1" id="Layer_1" xmlns="http://www.w3.org/2000/svg" xmlns:xlink="http://www.w3.org/1999/xlink" x="0px" y="0px"
	 viewBox="0 0 494.6 319.1" style="enable-background:new 0 0 494.6 319.1;" xml:space="preserve">
<style type="text/css">
	.st0{fill:#121233;}
	.st1{fill:#181346;}
	.st2{fill:#BCBEC0;}
	.st3{fill:#939598;}
	.st4{fill:#BCBCBC;}
	.st5{fill:#808285;}
	.st6{fill:#F16924;}
	.st7{fill:#A84925;}
	.st8{fill:#F17A43;}
	.st9{fill:#E6E7E8;}
	.st10{fill:#D1D3D4;}
	.st11{fill:#DA1F26;}
	.st12{fill:#FFFFFF;}
	.st13{fill:#59595B;}
	.st14{fill:#1E2951;}
	.st15{fill:#6D6E71;}
	.st16{fill:#424142;}
	.st17{fill:#FCE583;}
	.st18{fill:#F4AF6E;}
	.st19{fill:#090909;}
	.st20{fill:#2B405A;}
	.st21{fill:#F8991D;}
	.st22{fill:#727274;}
	.st23{fill:#F09249;}
	.st24{fill:#343028;}
	.st25{fill:#F7991D;}
	.st26{fill:#3A4A61;}
	.st27{fill:#1E2838;}
	.st28{fill:#383129;}
	.st29{fill:#D93F26;}
	.st30{fill:#D5A688;}
	.st31{fill:#E26425;}
	.st32{fill:#352F28;}
	.st33{fill:#383229;}
	.st34{fill:#3B352D;}
	.st35{fill:#EC7A2B;}
	.st36{opacity:0.3;}
	.st37{fill:url(#SVGID_1_);}
	.st38{fill:url(#SVGID_2_);}
	.st39{fill:url(#SVGID_3_);}
	.st40{fill:#040404;}
	.st41{opacity:0.7;fill:#FFFFFF;enable-background:new    ;}
	.st42{fill:url(#SVGID_4_);}
	.st43{fill:url(#SVGID_5_);}
	.st44{fill:url(#SVGID_6_);}
</style>
<g>
	<rect x="202.5" y="209.3" width="209.4" height="28"/>
	<ellipse class="st0" cx="228.5" cy="246.8" rx="31.9" ry="34"/>
	<ellipse class="st1" cx="234.6" cy="246.8" rx="25.8" ry="31.7"/>
	<ellipse class="st2" cx="234.6" cy="246.8" rx="12.9" ry="15.9"/>
	<path class="st3" d="M234.6,246.9L234.6,246.9L234.6,246.9z"/>
	<path class="st3" d="M234.6,246.9l10.5-6.1c-1.8-4.9-5.9-8.3-10.5-8.3V246.9L234.6,246.9z"/>
	<path class="st4" d="M245.1,253c0.7-1.9,1.1-3.9,1.1-6.1c0-2.1-0.4-4.2-1.1-6l-10.5,6.1L245.1,253z"/>
	<path class="st3" d="M234.6,246.9l-10.5-6.1c-0.7,1.8-1.1,3.9-1.1,6c0,2.2,0.4,4.3,1.1,6.1L234.6,246.9L234.6,246.9z"/>
	<path class="st3" d="M234.6,246.9L234.6,246.9v14.2c4.6,0,8.6-3.3,10.5-8.2L234.6,246.9z"/>
	<path class="st4" d="M234.6,232.6c-4.7,0-8.7,3.4-10.5,8.3l10.5,6.1V232.6z"/>
	<path class="st4" d="M224.1,253c1.9,4.8,5.9,8.2,10.5,8.2v-14.2L224.1,253z"/>
	<path class="st0" d="M124,242.7c0-11.3-5.2-21.1-12.9-25.9c-4.7-3.4-10.3-5.3-16.4-5.3c-16.2,0-29.3,14-29.3,31.2
		c0,17.2,13.1,31.2,29.3,31.2c6.1,0,11.7-2,16.4-5.3C118.8,263.8,124,254,124,242.7z"/>
	<ellipse class="st0" cx="378.3" cy="242.7" rx="28" ry="29.9"/>
	<ellipse class="st1" cx="383.7" cy="242.7" rx="22.7" ry="27.8"/>
	<ellipse class="st2" cx="383.7" cy="242.7" rx="11.3" ry="13.9"/>
	<path class="st3" d="M383.7,242.8L383.7,242.8L383.7,242.8z"/>
	<path class="st3" d="M383.7,242.8l9.2-5.3c-1.6-4.3-5.1-7.3-9.2-7.3V242.8L383.7,242.8z"/>
	<path class="st5" d="M392.9,248.1c0.6-1.6,1-3.4,1-5.4c0-1.9-0.4-3.7-1-5.3l-9.2,5.3L392.9,248.1z"/>
	<path class="st3" d="M383.7,242.8l-9.2-5.3c-0.6,1.6-1,3.4-1,5.3c0,1.9,0.4,3.7,1,5.4L383.7,242.8L383.7,242.8z"/>
	<path class="st3" d="M383.7,242.8L383.7,242.8v12.5c4.1,0,7.6-2.9,9.2-7.2L383.7,242.8z"/>
	<path class="st5" d="M383.7,230.2c-4.1,0-7.6,3-9.2,7.3l9.2,5.3V230.2z"/>
	<path class="st5" d="M374.5,248.1c1.6,4.2,5.1,7.2,9.2,7.2v-12.5L374.5,248.1z"/>
	<path class="st6" d="M408.6,148.2c8.6-112.9-6-123.1-6-123.1L252.9,25c0,0-44.6,11.5-45.9,123.6c0,0-35.7,22.9-30,93.7l30-0.2
		c0.9-16.9,13.1-30.3,28-30.3c14.8,0,26.9,13.2,28,29.9l89.4-0.6c1.3-16.4,13.3-29.2,27.9-29.2c14.5,0,26.4,12.6,27.9,28.8l11.2-0.1
		C421.1,166.6,408.6,148.2,408.6,148.2z"/>
	<path class="st7" d="M352.4,241.1c1.3-16.4,13.3-29.2,27.9-29.2c14.5,0,26.4,12.6,27.9,28.8l11.2-0.1c1.6-74-10.8-92.4-10.8-92.4
		c8.6-112.9-6-123.1-6-123.1l-35.6,0c-41.2,19.8-52.7,49.8-46,104.5c5.1,41.4-12.4,79.7-63.4,95.4c3,4.7,5,10.5,5.3,16.7
		L352.4,241.1z"/>
	<path class="st8" d="M44.5,242.3c-5.7-70.7,30-93.7,30-93.7C75.7,36.5,120.3,25,120.3,25h132.6c0,0-44.6,11.5-45.9,123.6
		c0,0-35.7,22.9-30,93.7H44.5z"/>
	<path class="st9" d="M104.8,46.8C94,63.9,83.5,94.3,82.7,147.5h116.6c0.8-53.2,11.3-83.5,22.1-100.7
		C221.4,46.8,104.8,46.8,104.8,46.8z"/>
	<path class="st10" d="M221.4,46.8h-50.6v100.7h28.5C200.1,94.3,210.6,63.9,221.4,46.8z"/>
	<path class="st10" d="M263.1,46.8h-23.8c-10.8,17.2-21.3,47.5-22.1,100.7h45.9V46.8z"/>
	<g>
		<path d="M54.3,223.6c0,2.8,2.3,5,5.1,5h4.5c2.8,0,5-2.3,4.9-5l0.1-8.3c0.2-2.8-2-5-4.7-5h-4.5c-2.8,0-5.1,2.3-5.3,5L54.3,223.6z"
			/>
		<path d="M56,201.7c-0.5,2.7,1.3,4.9,4.1,4.9h4.5c2.8,0,5.4-2.2,5.9-4.9l2.9-12.3c0.8-2.6-0.7-4.8-3.5-4.8h-4.5
			c-2.8,0-5.7,2.1-6.6,4.8L56,201.7z"/>
		<path class="st11" d="M52.1,223.6c0,2.8,2.3,5,5.1,5h4.5c2.8,0,5-2.3,4.9-5l0.1-8.3c0.2-2.8-2-5-4.7-5h-4.5c-2.8,0-5.1,2.3-5.3,5
			L52.1,223.6z"/>
		<path class="st12" d="M53.8,201.7c-0.5,2.7,1.3,4.9,4.1,4.9h4.5c2.8,0,5.4-2.2,5.9-4.9l2.9-12.3c0.8-2.6-0.7-4.8-3.5-4.8h-4.5
			c-2.8,0-5.7,2.1-6.6,4.8L53.8,201.7z"/>
	</g>
	<g>
		<path d="M156.9,223.6c0,2.8,2.3,5,5.1,5h4.5c2.8,0,5-2.3,4.9-5l0.1-8.3c0.2-2.8-2-5-4.7-5h-4.5c-2.8,0-5.1,2.3-5.3,5L156.9,223.6z
			"/>
		<path d="M158.6,201.7c-0.5,2.7,1.3,4.9,4.1,4.9h4.5c2.8,0,5.4-2.2,5.9-4.9l2.9-12.3c0.8-2.6-0.7-4.8-3.5-4.8H168
			c-2.8,0-5.7,2.1-6.6,4.8L158.6,201.7z"/>
		<path class="st11" d="M154.7,223.6c0,2.8,2.3,5,5.1,5h4.5c2.8,0,5-2.3,4.9-5l0.1-8.3c0.1-2.8-2-5-4.7-5h-4.5c-2.8,0-5.1,2.3-5.3,5
			L154.7,223.6z"/>
		<path class="st12" d="M156.4,201.7c-0.5,2.7,1.3,4.9,4.1,4.9h4.5c2.8,0,5.4-2.2,5.9-4.9l2.9-12.3c0.8-2.6-0.7-4.8-3.5-4.8h-4.5
			c-2.8,0-5.7,2.1-6.6,4.8L156.4,201.7z"/>
	</g>
	<g>
		<path d="M228.4,163.2c0,2.3-1.9,4.2-4.2,4.2h-8.9c-2.3,0-4.2-1.9-4.2-4.2l0,0c0-2.3,1.9-4.2,4.2-4.2h8.9
			C226.5,158.9,228.4,160.8,228.4,163.2L228.4,163.2z"/>
		<path class="st12" d="M226.1,163.2c0,2.3-1.9,4.2-4.2,4.2h-8.9c-2.3,0-4.3-1.9-4.3-4.2l0,0c0-2.3,1.9-4.2,4.3-4.2h8.9
			C224.2,158.9,226.1,160.8,226.1,163.2L226.1,163.2z"/>
	</g>
	<g>
		<path class="st13" d="M125.1,147.8c0,0-3.5-26.1,3.2-34.1c0,0,2-19.2,5.3-21.2c3.3-2,26.5,0,26.5,0s4.6,10.6,0,20.5l2,35.1
			L125.1,147.8z"/>
		<path class="st3" d="M113.2,147.4c0,0-1.1-27.9,9.5-37.2c0,0-1.1-16.1,2.2-18.1c3.3-2,26.5,0,26.5,0s6.2,10.6,1.5,20.5l0.4,35.1
			L113.2,147.4z"/>
	</g>
	<path class="st3" d="M204.7,92.3c0,0-8.3-0.5-15-0.7c-5.8-0.2-11.6-0.1-13.1,0.8c-3.3,2-2.2,18.1-2.2,18.1
		c-10.6,9.3-9.5,37.2-9.5,37.2l11.6,0.1h10.9h12c0.3-20.9,2.1-38.3,4.8-52.7C204.5,93.3,204.7,92.3,204.7,92.3z"/>
	<path class="st1" d="M105.9,147.8c0.4-9.1,7.2-16.3,15.4-16.3s14.9,7.2,15.4,16.3h6.9c-0.4-13.4-10.3-24.1-22.3-24.1
		S99.4,134.4,99,147.8H105.9z"/>
	<g>
		<g>
			<path d="M75.3,213.1c-0.3,7.1,5.3,13,12.4,13h48.5c7.1,0,13.2-5.8,13.5-13c0,0,0.2-7,0.9-13.7c0.6-6.7-4.7-12.1-11.8-12.1H90.3
				c-7.1,0-13.5,5.4-14.1,12.1C75.5,206.1,75.3,213.1,75.3,213.1z"/>
		</g>
		<g>
			<path class="st14" d="M73.8,212.5c-0.3,7.1,5.3,13,12.4,13h48.5c7.1,0,13.2-5.8,13.5-13c0,0,0.2-7,0.9-13.7
				c0.6-6.7-4.7-12.1-11.8-12.1H88.8c-7.1,0-13.5,5.4-14.1,12.1C74,205.5,73.8,212.5,73.8,212.5z"/>
		</g>
		<g>
			<path class="st3" d="M140.8,220.8H79.4c-0.1,0-0.2-0.1-0.2-0.3c0-0.2,0.1-0.3,0.2-0.3h61.4c0.1,0,0.2,0.1,0.2,0.3
				C141,220.6,140.9,220.8,140.8,220.8z"/>
		</g>
		<g>
			<path class="st3" d="M145.6,213.7H76.1c-0.1,0-0.2-0.1-0.2-0.3c0-0.2,0.1-0.3,0.2-0.3h69.5c0.1,0,0.2,0.1,0.2,0.3
				C145.8,213.6,145.7,213.7,145.6,213.7z"/>
		</g>
		<g>
			<path class="st3" d="M146.2,206.7H76.3c-0.1,0-0.2-0.1-0.2-0.3s0.1-0.3,0.2-0.3h69.9c0.1,0,0.2,0.1,0.2,0.3
				S146.3,206.7,146.2,206.7z"/>
		</g>
		<g>
			<path class="st3" d="M146.7,199.6H77.2c-0.1,0-0.2-0.1-0.2-0.3s0.1-0.3,0.2-0.3h69.5c0.1,0,0.2,0.1,0.2,0.3
				S146.8,199.6,146.7,199.6z"/>
		</g>
		<g>
			<path class="st3" d="M142,192.5H82.7c-0.1,0-0.2-0.1-0.2-0.3s0.1-0.3,0.2-0.3H142c0.1,0,0.2,0.1,0.2,0.3S142.1,192.5,142,192.5z"
				/>
		</g>
	</g>
	<path class="st15" d="M176.7,236.5H41.4c0,0,0.1,16.2,5.7,23.7h129.6V236.5z"/>
	<path class="st16" d="M203,236.5h-2.6h-4.5h-2.6h-6.9h-2.6h-4.5h-2.6v23.7h2.6h4.5h2.1h0.6h2.1h4.5h2.6
		C202.6,253.8,203,240.4,203,236.5z"/>
</g>
<g>
	<path class="st17" d="M413.3,80.8c0.4-0.6,0.3-0.6,0.5-0.9c0.2-0.2,1.4-1.1,1.8-1.2c0.4-0.1,0.3,0.7,0,0.9
		c-0.3,0.1-0.9,0.6-0.9,0.6l-0.7,0.4L413.3,80.8z"/>
	<path class="st1" d="M423.7,198.6c-0.8-5.2-1.4-10.5-2.5-15.6c-0.1,0-0.2,0-0.3,0c-0.2,1.7-0.4,3.4-0.6,5.1
		c-0.6,4.7-0.5,9.4-0.9,14.1c-0.7,8.7-2.7,63.1-2.7,65.6c0,0.8-0.2,1.5-0.5,2.3c-1.8-0.8-3.4-2-5-3c-0.1-0.1-0.1-0.3-0.2-0.4
		c0.1-3.4,0.2-6.7,0.5-10.1c0.1-2.1,0.2-4.1,0.3-6.2c0.1-2.9,0.2-5.8,0.3-8.7c0.5-9.9,0.4-19.8,0.4-29.7c0-2,0.2-4,0.5-5.9
		c0.4-2.4,0.3-4.8,0.1-7.2c-0.1-2.2-0.4-4.3-0.4-6.5c0-0.9-0.5-1.6-1.3-2.1c-1.2-0.7-2.5-1.4-3.8-1.9c-1.1-0.4-1.5-1.2-1.6-2.3
		c-0.2-3.7-3.7-19.4-4-23c-0.2-3.3,3.6-5,2.9-6.2c-0.2-0.7,0.2-1.1,0.6-1.4c2.6-2.3,5.4-4.5,8.3-6.4c3.6-2.3,6.8-5,10-7.7
		c0.6-0.5,1.2-0.9,1.7-1.4c1.2-1,2.5-2,3.4-3.4c0.3-0.4,0.6-1,1.2-1c0.4,0.2,0.4,0.7,0.4,1.1c0.5,2.5,1.2,4.9,2.8,7
		c1.2,1.6,2.8,2.2,4.8,2c0.6-0.1,1-0.4,1.2-0.9c0.2-0.5,0.4-1,0.5-1.6c0.2-0.7,0.2-1.4,0.2-2.1c0-0.4,0.1-0.9,0.5-1.2
		c0.7,1.1,0.6,2.3,0.7,3.5c0.7,6.8,0.3,13.5,0.3,20.3c0,5.5-0.4,41.2-0.5,49.2c0,2.9,0.2,5.9,0.2,8.8c0.1,5.3,1.6,33.3,1.9,42
		c0.1,2.6,0.3,5.3,0.1,7.9c0,0.3-0.1,0.6-0.2,0.9c-0.1-0.1-0.3-0.2-0.2-0.4c0.1-1.4-0.9-1.9-1.9-2.5c-1.3-0.6-2.6-1.3-3.9-1.9
		c-0.4-0.2-0.8-0.4-0.9-0.9c-0.1-0.6-0.1-1.1-0.1-1.7c0.2-4.3-0.1-8.5-0.3-12.8c-0.2-5.3-0.5-10.7-0.8-16c-0.1-2.5-0.2-5-0.3-7.5
		c-0.2-5.5-0.3-11-0.5-16.5c-0.1-3.7-2.3-6.1-5-8.2c-0.6-0.5-1.2-0.9-1.9-1.2C425.6,202,424.6,200.3,423.7,198.6z"/>
	<path class="st0" d="M405,156.3c0.8,1.1-2,2.4-2,3.8c0.1,3.6,3.4,24.7,3.4,26.5c0,0.8,0.6,1.2,1.3,1.5c1.5,0.6,2.8,1.3,4.2,2.1
		c0.9,0.5,1.8,1.2,1.8,2.1c0.1,3.3-0.9,30.9-0.9,36.4c0,3.5-0.2,6.9-0.3,10.4c-0.1,3.8-0.3,7.7-0.4,11.5c-0.2,4.7-0.6,9.4-0.7,14.2
		c0,0.7-0.3,1.5-0.2,2.2c-0.3,0.2-0.6,0.1-1,0c-1.5-0.6-3-1-4.5-1.2c-0.6-0.1-1.1-0.2-1.3-0.8c0.4-0.4,0.3-0.9,0.3-1.4
		c-0.4-5-0.8-10-1.2-15c-0.4-4.8-0.6-9.6-0.8-14.5c-0.3-8.1-0.4-16.3-0.8-24.5c-0.5-10.7,0.2-21.3,0.2-32c0-1.6,0.4-3.3,0.1-4.9
		c-0.7-4.5,0.1-8.9-0.4-13.4c0-0.1-0.1-0.1-0.1-0.2C402.7,157.8,403.5,156.7,405,156.3z"/>
	<path class="st0" d="M423.7,198.6c0.7,0.6,7.8,7.1,9.3,9c0.7,0.9,0.9,1.9,1.2,2.9c0.7,2.5,0.1,5,0.4,7.5c0.3,2.7,0.1,5.4,0.2,8.1
		c0.2,3.5,0.3,6.9,0.5,10.4c0.1,3.2,0.3,6.3,0.5,9.5c0.2,3.7,0.3,7.4,0.5,11.1c0.2,3.4,0.1,6.7,0.2,10.1c-1,0.3-1.8-0.5-2.7-0.7
		c-0.4-0.2-0.9-0.1-1.3-0.1c-1.3-0.3-2.6-0.4-3.8,0c-0.5,0.1-0.9,0.1-1.2-0.3c-1-0.7-0.9-1.8-0.8-2.9c0.4-9.9-1.1-52.4-1.6-55.8
		C424.5,204.4,424.1,201.5,423.7,198.6z"/>
	<path class="st6" d="M402.6,89.3c0.4,0.6,0,1.2,0,1.8c-0.1,3.6,0.6,7,1.7,10.3c0.9,2.6,0.7,5.1,0.5,7.7c-0.3,3.3-0.7,6.7-0.9,10
		c-0.2,3.7-0.2,7.5-0.2,11.2c0,2.1,0.1,4.1,0.2,6.2c0,0.3,0.1,0.6,0.2,0.9c0.6,1.1,0.2,2.3,0.5,3.5c0,0.1,0,0.2,0,0.3
		c0.5,1.9,0,3.4-1.7,4.5c-0.7,0.4-0.7,1.2-0.6,2c0.1,0.6,0.1,1.1-0.5,1.5c-0.3-0.5-0.2-1-0.3-1.5c-1.2-7.2-0.8-14.5-0.9-21.7
		c0-1-0.3-1.4-1.3-1.6c-1.7-0.3-3.3-0.7-4.8-1.4c-0.4-0.2-0.7-0.1-1,0.1c-1.2,1-2.5,1.2-3.9,0.5c-1.3-0.7-1.9-2-1.6-3.4
		c0.7-3.2,0.5-6.6,1.6-9.7c2.1-6.2,5.2-12,8.6-17.6C399.3,91.3,400.6,89.9,402.6,89.3z"/>
	<path class="st18" d="M404.2,51c0.2-0.5,0.2-1,0.4-1.4c0.1-0.1,0-0.1,0.1,0c1.1,0.1,1.8,0.6,2.8,0.7c1.4,0.1,2.9,0.2,4.3,0.4
		c0.4,0.1,0.7,0.1,1,0.4c0.1,0.6-0.4,0.6-0.7,0.8c-0.4,0.2-0.3,0.3-0.1,0.5c-0.5,1.6,0.3,2.6,1.6,3.4c0.6,0.9,0.9,0.8,1.8,0.7
		c0.8-0.9,1.1-2,1.5-3.1c0-0.4-0.3-0.6-0.6-0.8c-0.3-0.2-0.7-0.3-0.5-0.7c0.4-0.3,0.7-0.1,1.1,0c1.7,0.4,3.3,0.9,4.9,1.5
		c0.9,0.3,2.6,0.4,2.5,1.4c0,0.5-0.5,1.3-0.5,1.8c0,0.9-0.6,1.8-0.8,2.6c-0.1,0.4-0.7,0.8,0,0.8c0.5,0,0.6,0.4,0.6,0.8
		c0,1.8,0.1,3.5-0.1,5.3c-0.1,0.6-0.2,1.1-0.6,1.6c-2,2.2-4,4.6-6.8,5.9c-1.8,0.9-3.6,1.6-5.6,1.7c-1,0.2-2-0.2-3-0.4
		c-0.9-0.5-1.5-1.3-1.8-2.3c-0.3-1-0.6-1.9-1-2.9c-1.3-3.2-1.8-6.5-1.5-9.9c0.2-1.4,0.4-2.9,0.6-4.3c-0.1-3.1,1.2-2.5,1.4-2.1
		c0.3,0.5,1.1,0.9,1.6,1.1c0.3,0.3-0.6,2.8-0.8,3.1c-0.2,0.6-0.4,1.1-0.6,1.7c-0.5,1.4,0.4,1.7,0.5,0.8c0.2-1.2,0.6-2.3,0.9-3.5
		c0.2-1.1,0.4-2.2,0-3.3C406.3,51.9,405.2,51.4,404.2,51z"/>
	<path class="st6" d="M406.7,40.3c0.4,0,0.5-0.8,0.7-1.1c3.1-5.3,7.3-9,15.6-4.1c13,7.6,8.7,20.5,8.2,21.1c-0.4,0.6-0.7,0.7-1.3,0.6
		c-0.3,0.1-0.3-0.1-0.3-0.3c0.2-0.4,0.3-0.8-0.2-1c-0.4-0.2-0.7-0.5-1-0.7c-0.4-0.3-0.8-0.5-1.2-0.7c-1.7-1.1-3.6-1.9-5.5-2.6
		c-0.4-0.1-0.8-0.2-1.1-0.5c-1-1.2-1.7-2.7-2.6-3.9c-2.5-3.5-6.2-5.3-10.1-6.7C407.4,40.3,406.9,40.8,406.7,40.3z"/>
	<path class="st1" d="M420,33.7c-6.4-2.4-9.9,1-12.6,5.6c-0.2,0.3-0.3,1.1-0.7,1.1c0.2,0.5,0.7,0,1,0.1c3.9,1.4,7.6,3.2,10.1,6.7
		c0.9,1.3,1.6,2.7,2.6,3.9c0,0,0,0,0,0c0,0,0-0.1,0-0.1C421.8,44.3,427.7,36.6,420,33.7z"/>
	<path class="st19" d="M404.8,264.9c1.2,0.2,4.8,1.3,6.5,1.9c1.7,0.9,3.4,1.9,4.9,3.1c0.8,1.4,0.4,2.7-0.1,4.1
		c-0.2,0.5-0.6,0.7-1.1,0.7c-6.9,0-13.8,0-20.7,0c-0.6,0-1.7-1.4-1.9-2.4c-0.2-1,0-2,1-2.5c1.1-0.5,2.3-0.9,3.4-1.4
		c1.6-0.5,3.1,0,4.4,0.8c0.9,0.6,1.6,0.5,2.4-0.1c1.1-0.8,2.3-1.4,3.5-2.2c-0.8-0.7-1.8-1-2.7-1.3c-0.3-0.1-0.9,0.6-0.6-0.2
		C404.1,265.6,404.5,265,404.8,264.9z"/>
	<path class="st19" d="M433.8,266.1c1,0.1,1.7,0.7,2.7,0.9c1.5,0.9,3.2,1.6,4.8,2.3c1.4,0.7,2.2,1.5,2,3.1c-0.1,2-0.4,2.3-2.4,2.3
		c-6.5,0-12.9,0-19.4,0c-0.9,0-2-1.1-2.3-2.3c-0.3-1.2,0.1-2.2,1.2-2.7c1.1-0.5,2.1-0.9,3.2-1.3c1.6-0.4,3.1,0.1,4.5,0.9
		c0.8,0.5,1.5,0.5,2.2,0c0.8-0.6,1.6-1,2.5-1.5c1.1-0.6,1.1-0.6,0.5-1.6C433.3,266,433.5,266,433.8,266.1z"/>
	<path class="st7" d="M434.8,126.9c1.2,0.2,2.3,0.6,3.4,1.1c0.6,0.3,0.9,0.3,1.1-0.5c0.6-2.2,1.4-5.6,1.9-7.9
		c0.2,0.9-0.1,9.9-0.4,13.7c-0.3,0.6-0.7,1-1.1,1.3c-1.5,1.2-2.9,2.6-4.5,3.8c-0.5,0.4-0.6,0.9-0.3,1.5c0.5,1,1,2,1.6,2.9
		c0.8,1.1,1.5,1.3,2.7,0.6c0.4-0.2,0.7-0.6,1.2-0.5c-0.3,2.7-3,3.8-5.4,2.1c-1.6-1.2-2.6-2.8-3.3-4.7c-0.6-1.6-1-3.3-1.3-5.1
		C432,132.8,433.4,129.9,434.8,126.9z"/>
	<path class="st1" d="M427.3,54c-0.3,0.1-0.5,0.3-0.8,0.4c-0.9,0-1.5-0.6-2.3-1c-0.5-0.2-1-0.4-1.6-0.6c-3.4-1.1-6.7-2.2-10.1-3.5
		c-1.7-0.6-3.2-1.4-4.3-2.9c-0.8-1.1-2.3-0.8-2.8,0.5c-0.2,0.6-0.3,1.2-0.5,1.8c-0.1,0.3,0.3,1-0.1,1.1c-0.1,0-0.1,0-0.2,0
		c-3.3-1.3-6.1-3.6-7.2-7c-0.5-1.5-0.4-3.1,1-4.3c1.1-0.8,2.3-0.6,3.5-0.1c1.9,0.8,3.4,2.1,4.7,3.7c1,1.3,13.6,8.5,13.9,8.8
		C422.8,52,424.9,52.6,427.3,54z"/>
	<path class="st18" d="M415.8,77c0,0.6,1.7,1.6,2.1,1.5c1.8-0.6,3.6-1.5,5.1-2.6c0.2-0.1,0.3-0.4,0.5-0.3c0.3,0.1,0.2,0.4,0.2,0.6
		c0,0.8-0.1,1.7-0.2,2.5c-0.1,2.5-1.3,0.5-0.7,3.2c0.1,0.5-0.3,0.7-0.6,1c-1.1,0.9-2.3,1.6-3.5,2.2c-1.7,0.8-3,0.4-4.1-1.1
		c-0.9-1.3-1.6-2.3-0.9-3.9c0,0.2,1.1-0.8,1.6-1.2C415.4,78.7,415.6,77.3,415.8,77z"/>
	<path class="st6" d="M420.6,50.9c-3-0.7-5.9-2-8.8-3.1c-1.2-0.4-2-1.4-2.8-2.3c-1.3-1.5-2.4-3.2-3.8-4.6c-1.4-1.5-3.2-2.4-5.2-2.8
		c-0.5-0.1-1.5,0.3-2.2,1.1c0.7-1.4,2.2-1.8,3.4-1.5c1.9,0.6,3.7,1.4,5.6,2c2.7,0.7,5.2,1.8,7.5,3.3c2.1,1.3,3.7,3.3,4.9,5.4
		C419.6,49.4,420.3,50,420.6,50.9z"/>
	<path class="st20" d="M401.9,149.3c0.1-0.3,0.3-0.6,0.2-0.9c-0.5-1.8,0.4-3,1.8-3.9c0.6-0.4,0.8-1,0.6-1.8
		c-0.2-1.8-0.5-3.5-0.4-5.3c1.4-0.9,2.9-1.6,4.6-1.6c1.7,0,3.2,0.5,4.5,1.5c0.3,0.2,0.6,0.5,0.9,0.5c-1.4,1.5-2.7,3-4.1,4.5
		c-2.8,2.8-5.6,5.6-8.5,8.4C401.7,150.2,401.8,149.8,401.9,149.3z"/>
	<path class="st21" d="M433.7,82.6c-1.8,1.4-3.4,2.9-4.7,4.8c-0.4,0.2-0.9,0.3-1.4,0.3c-2.6-0.2-5.3-0.3-7.9-0.8
		c-0.6-0.3-0.3-0.6,0-0.8c0.5-0.3,1-0.6,1.5-0.8c2.4-1.4,4.3-3.4,6.4-5.1c0.3-0.2,0.4-0.5,0.6-0.8c0.2-0.3,0.3-0.5,0.7-0.3
		C430.6,80.1,432.1,81.4,433.7,82.6z"/>
	<path class="st6" d="M440.2,143c-0.3,0.2-0.6,0.5-1,0.7c-1.2,0.8-2.3,0.6-3.1-0.6c-0.6-1-1.1-2-1.7-3c-0.4-0.7-0.3-1.2,0.3-1.7
		c2-1.6,3.9-3.3,5.9-4.9c0,2.1,0,4.2-0.1,6.3C440.5,140.8,440.7,142,440.2,143z"/>
	<path class="st22" d="M404.4,265.5c1.2,0.4,2.3,0.7,3.3,1.7c-1.7,1-3.3,2.1-5,3.1c-0.2,0.1-0.5,0.2-0.7,0c-1.5-1.3-3.3-1.5-5.1-1.7
		C399,267.1,404.1,265.4,404.4,265.5z"/>
	<path class="st22" d="M433.3,266.4c0.3,0.3,0.8,0.4,1.1,0.9c-1.6,1-3.2,2-4.8,3c-0.3,0.2-0.5,0.3-0.8,0c-1.5-1.3-3.3-1.5-5.1-1.7
		c0.9-0.8,4.7-2.6,5.2-2.7c1.3-0.3,2.6-0.3,3.8,0.2C433,265.9,433.2,266.1,433.3,266.4z"/>
	<path class="st23" d="M406.9,53.1c0.7,1.8,0.1,3.6-0.3,5.3c-0.2,0.8-0.4,1.6-0.6,2.4c-0.2,0.9,0.2,1.2,0.7,1.4
		c0.7,0.3,1.5,0.5,2.2,0.6c0.3,0.1,0.7,0.1,0.7,0.6c0,0.5-0.4,0.6-0.8,0.7c-1,0.1-1.9,0-2.7-0.6c-1.4-0.9-1.8-2.1-1.3-3.8
		c0.3-0.9,1-3.2,1-3.4c0.3-1.4-0.5-2-1.8-1.9c-0.2,0-0.3,0.1-0.4,0c0.1-0.6,0.3-1.2,0-1.7c-0.1-0.3-0.2-0.6,0-0.7
		c0.4-0.2,1.4,0,1.9,0.3C406.1,52.5,406.6,52.7,406.9,53.1z"/>
	<path class="st24" d="M426.7,66.2c-0.9,0.1-1.1-0.6-0.9-1.2c0.4-1.4,0.9-2.9,1.8-4.1c1-1.2,1.7-2.6,1.5-4.2
		c-0.1-0.2-0.1-0.4,0.1-0.5c0.2,0,0.4,0,0.5,0.2c0.1,0.1,0.9,0.5,0.9,0.6c0,0.2-1.1,4.1-2.1,5.7C427.8,63.8,427.1,64.9,426.7,66.2z"
		/>
	<path class="st25" d="M413,81.2c1,1.1,0.1,4,1.2,5.1c-0.9,0.4-5.1,0.3-6-0.3c0-0.8,0.8-1,1.2-1.5C410.1,83.7,412.2,81.8,413,81.2z"
		/>
	<path class="st6" d="M408.2,86c2,0.1,4,0.2,6,0.3c1.6,1.3,3.4,1.5,5.2,0.4c3.2,0.2,6.4,0.7,9.6,0.7c-1.7,3.2-3.4,6.4-5.1,9.6
		c-0.3,0.5-0.5,0.7-1.1,0.8c-3.5,0.5-7,0.5-10.5,0.5c-2.2,0-2.9-1.1-3.4-3c-0.6-2.2-1.4-4.4-1.2-6.8C407.8,87.7,407.8,86.8,408.2,86
		z"/>
	<path class="st26" d="M423.4,126.9c-0.5,0.7-1.1,1.3-1.6,2C421.9,127.9,422.5,127.2,423.4,126.9z"/>
	<path class="st27" d="M433.3,266.4c-0.2-0.1-0.4-0.1-0.7-0.2c0.4-0.4,0.8-0.3,1.1,0C433.6,266.2,433.4,266.2,433.3,266.4z"/>
	<path class="st23" d="M404.5,49.7c0.3-0.9,0.6-2,0.8-2.9c0.2-1.1,1.8-2.3,3.2-0.6c1,1.4,2.4,2.2,4,2.8c3.4,1.3,6.9,2.4,10.3,3.6
		c0.6,1.2,0.6,2.7,0.4,4c0,0.2-0.1,0.4-0.3,0.5c0-0.1-0.3-3.3-2.9-4c-1.4-0.4-2.7-1.1-4.3-1.1c-0.1,0.1-0.3,0.1-0.5,0.1
		c-0.8-0.4-1.7-0.5-2.6-0.7C411.9,50.7,404.2,50.4,404.5,49.7z"/>
	<path class="st23" d="M413.5,55.8c-0.9-0.5-1.9-0.9-1.9-2.2c0-0.5,0-1.5,0.2-1.7c0.1-0.6,0.6-0.1,1-0.1c0.7,0,1.3,0.2,1.9,0.5
		c0.8,0.4,1.6,0.8,2.5,0.9c-0.4,1.2-0.7,2.4-1.7,3.1c-0.3-0.3,0.1-0.4,0.1-0.8c0-0.6-0.3-1-0.8-1.2c-0.4-0.2-0.8-0.3-0.6,0.5
		C414,55.3,413.9,55.7,413.5,55.8z"/>
	<path class="st28" d="M413.5,55.8c0-0.8,0.5-0.8,0.1-1.2s0-0.7,0.6-0.6c1.4,0.2,1.9,1.5,1.2,2.4C414.7,57.3,413.5,56.7,413.5,55.8z
		"/>
	<path class="st28" d="M403.9,55.6c0-0.8,0.5-0.8,0.1-1.2s0-0.7,0.6-0.6c1.4,0.2,1.9,1.5,1.2,2.4C405.1,57.1,403.9,56.4,403.9,55.6z
		"/>
	<path class="st29" d="M430.6,57c-0.1-0.1-0.1-0.1-0.2-0.1c-0.2-0.1-2-1.2-2.1-1.3c-0.2-0.4,0.2-0.6,0.2-1c0.4,0.3,1.8,1.3,2.4,1.6
		c0.2,0.2,0.4,0.3,0.3,0.4C431.1,56.7,430.9,56.9,430.6,57z"/>
	<path class="st30" d="M424.9,60.8c-0.1-0.1-0.2-0.1-0.2-0.1c-0.3-0.6-0.4-1.2,0-1.8c0.1-0.1,0.3-0.2,0.4-0.1c0.3,0.5,0.2,1.1,0,1.6
		C425,60.6,425,60.7,424.9,60.8z"/>
	<path class="st1" d="M402.6,89.3c1.2-2.1,3.4-3.2,5.1-4.7c0.5-0.5,1.1-1.1,1.7-0.6c0.3,0.3,0,0.4-0.2,0.5c-0.4,0.3-0.7,1.2-0.8,1.7
		c-0.6,2.6-0.5,5.1,0.4,7.6c0.3,0.9,0.5,1.9,0.9,2.8c0.3,0.8,0.8,1.1,1.6,1.3c3.7,0.4,7.3,0.1,10.9-0.3c0.8-0.1,1.2-0.5,1.6-1.2
		c1.7-2.9,3.7-7.3,4.9-9c1.8-2.5,4.4-4.8,5-4.8c0.8-0.3,1.6-0.1,2.3,0.4c1.4,1.1,2.8,2.2,4.2,3.3c0.3,0.2,0.4,0.4,0.4,0.8
		c-1.3-0.3-3.9,0-5.2,1.2c-1.5,1.3-2.4,2.8-3,4.7c-0.3,1-0.6,2.1-0.9,3.1c-1,3.1-1.7,6.3-2.4,9.5c-1.2,6-2.3,12-3.9,17.9
		c-0.5,1.1-0.7,2.4-1.5,3.4c-0.9,0.5-1.5,1.1-1.7,2.1c-1.1,1.8-2.6,3.5-4,5.1c-0.9,1.1-1.9,2.2-2.9,3.3c-0.3,0.3-0.5,0.6-0.9,0.6
		c-0.5,0-0.9-0.3-1.3-0.6c-2.5-1.6-5-1.7-7.6-0.3c-0.4,0.2-0.9,0.7-1.4,0.2c-0.2-0.3-0.3-0.6-0.3-0.9c-0.2-5.3-0.4-10.5-0.1-15.8
		c0.2-4.9,0.8-9.8,1.2-14.7c0.1-1.3-0.2-2.5-0.6-3.7c-0.8-2.6-1.5-5.2-1.8-7.9C402.1,92.6,402,90.9,402.6,89.3z"/>
	<path class="st31" d="M429.8,86c1.6-1.9,3.4-3.4,3.9-3.4c-1.6-1.3-3.1-2.6-4.9-3.6c-0.4-0.2-0.5,0-0.7,0.3
		c-0.2,0.3-0.3,0.6-0.6,0.8c-1.2,1-2.4,2.1-3.6,3.2v0C425.2,83.9,428.2,85,429.8,86z"/>
	<path class="st23" d="M428,60.8c1-1.2,2.3-4.2,0.5-6.3c-2.7-2.7-4.7,2.4-5.4,4.2c-0.2,0.4-0.5,0.8-0.2,1.3c0.4-0.2,0.4,0.1,0.4,0.4
		c0,1.6-0.1,6.2-1,7.3c-2.9,3.3-10.4,8.4-14.8,6.9c0.8,0.4,1.5,0.7,2.4,0.6c0.1,0,0.3,0,0.4,0c2.2,0.1,5.4-1.9,5.4-1
		c0,1.3,0,2.6,0,3.8c-0.2,2,6.3-1.3,6.4-1c0.4,1.7-0.1,3.1,0.7,4.7c0.4,0.3,0.8,0,1.1-0.2c0.8-0.7,1.7-1.5,2.4-2.3
		c0.4-0.4,0.9-1,0.5-1.8c-0.7-5,0.1-10.7,0.1-11.6c-0.5-0.4-0.8-0.8-0.6-1.4C426.6,63.4,427,62,428,60.8z"/>
	<path class="st32" d="M423,56.6c0.4-1.3,0.3-2.8-0.2-4.1c1.3,0.4,1.8,0.9,3,1.6c-1.7,1.5-2,3.6-2.6,5.9c-0.8,0.2-0.8-0.3-0.7-0.9
		C422.7,58.4,422.9,57.5,423,56.6z"/>
	<path class="st33" d="M417.1,53.3c-0.5,0.3-1,0.2-1.5-0.1c-0.8-0.4-1.6-0.9-2.5-1.1c-0.4-0.1-1.9,0.3-1.9,0c0-0.2,1.1-0.7,1.5-0.8
		c1.2-0.5,3.8,1,4.1,1.2C417.1,52.7,417.2,53,417.1,53.3z"/>
	<path class="st34" d="M406.9,53c-0.3-0.1-0.6,0-0.8-0.2c-0.8-0.5-2.1-0.8-2.4-0.2C402.7,51.7,404.3,48.9,406.9,53z"/>
	<path class="st35" d="M406.1,66.5c2.2,0.1,4.3,0.2,6.4,0.4C411,68.3,407.2,68.1,406.1,66.5z"/>
	<path class="st35" d="M408.9,70.7c-0.7,0.1-1-0.1-1.3-0.3c-0.3-0.3-0.3-0.7-0.2-1c0.1-0.4,0.5-0.3,0.8-0.3c0.2,0,1.7,0.2,1.6,0.9
		C409.7,70.6,409.1,70.6,408.9,70.7z"/>
	<path class="st1" d="M428.8,79.2c-0.9,1.2-2,2.1-3,3.1c-1.9,1.8-8.5,8-11.9,4.5c-1.1-1.1-3.6-4.2-0.1-6.9c-0.2,1.5,0.1,2.8,1.1,4.1
		c1.1,1.4,2.1,1.8,3.7,1c1.5-0.8,6.4-4.8,7.5-5.7c0.4-0.3,0.6-0.9,0.5-1.4c0-0.4,0-0.5-0.1-0.6c-0.1-0.2,0.7,0.3,1.1,0.6
		C428.1,78.3,428.3,78.8,428.8,79.2z"/>
	<path class="st20" d="M428.8,99.3l-5-0.9l-0.2,1.1l0.3,0c0,1.1,0.8,2.1,1.9,2.3s2.2-0.4,2.6-1.5l0.3,0L428.8,99.3z"/>
	<path class="st20" d="M409.7,98.2l-5,1.1l0.2,1.1l0.3-0.1c0.4,1,1.5,1.7,2.7,1.4c1.1-0.3,1.9-1.3,1.8-2.4l0.3-0.1L409.7,98.2z"/>
	<path class="st7" d="M439.5,127.8c-0.1,0.5-0.5,1-1,0.8c-1.2-0.5-7.2-2.8-9-3.5c-0.4-0.1-0.7-0.3-1.1-0.5c0.4-0.4,0.9-0.3,1.4-0.2
		c0.9,0.1,1.7,0.2,2.6,0.3c1.2,0.2,1.4,0,1.8-1.2c1.2-4,2-8.2,2.7-12.3c1.1-5.7,1.6-11.5,2.4-17.2c0-0.2,0.1-0.4,0-0.7
		c-0.1-2.5-0.9-2.9-3-1.6c-1.5,0.9-2.6,2.2-3.8,3.5c-0.3,0.4-1.4,3.3-2.1,3.1c0.8-2.9,2.4-8.2,4.9-10.3c1.6-1.4,3.3-1.8,5.3-0.9
		c1.2,0.8,2,1.9,2.2,3.4c0.9,6.1-1,25.1-1.4,28.5L439.5,127.8z"/>
	<path class="st6" d="M431.3,95.9c1.9-4.5,3.5-6.4,5.3-6.5c1.8-0.1,2.2,0.9,2.5,1.8c0.3,0.9,0.5,2.7,0.3,4
		c-0.5,3.5-0.8,7.1-1.4,10.6c-0.6,3.8-1.4,7.6-2.1,11.4c-0.4,2.3-1.1,4.5-1.7,6.7c-0.2,0.7-0.5,1-1.2,0.9c-1.6-0.2-2.9-0.2-4.5-0.3
		c-1.3-0.5-3.4-1.1-3.7-1c1.8-7.3,3.3-14.7,4.7-22.1C430,99.6,430.6,97.7,431.3,95.9z"/>
	<path class="st31" d="M428.2,108.5c0.7-3.4,4-7.5,4-7.5c-0.8,0-3.4,2.4-3.1,3.3L428.2,108.5z"/>
	<g class="st36">
		<path class="st23" d="M385.7,155.5c0.5,0.4,1,0.6,1.6,0.6c1,0,2.1,0,3.1,0c0.3,0,0.5,0,0.7,0.1c0.1-0.1,0.2-0.2,0.3-0.3
			c0.4-0.4,0.4-0.6-0.1-0.9c-0.5-0.2-1-0.4-1.6-0.4c-1,0-2.1,0-3.1,0c-0.4,0-0.8-0.1-1.2-0.3c0,0.1-0.1,0.1-0.1,0.2
			C385.2,155,385.4,155.3,385.7,155.5z"/>
		<path class="st23" d="M434.8,126.8c-0.2-0.3-0.5-0.4-0.8-0.5c-1.2,2.7-4.3,7.7-4.5,7.7c-4.7,5.6-10.6,9.8-16.6,14
			c-3,2.1-6,4.3-8.7,6.9c-1.1,0.8-2.3,1.7-2.9,2.9c-1,1-1.8,2.3-2.6,3.4c-0.8,1.1-1.9,1.4-3,1.6c-1.1,0.3-1.9,0.2-3.1,0.5
			c-1.2,0.4-3.3,0.4-5-0.1c-1.4-0.5-2.9-0.9-4.5-0.8c0,0-0.1,0-0.1,0c0,0.1,0,0.1,0,0.2c0,0.6,0.2,1.2,0.9,1.2
			c1.6-0.1,3.1,0.3,4.5,0.8c1.6,0.5,3.8,0.4,5,0.1c1.2-0.4,2-0.2,3.1-0.5c1.2-0.3,2.3-0.5,3-1.6c0.8-1.1,1.6-2.5,2.6-3.4
			c0.7-1.3,1.8-2.1,2.9-2.9c2.7-2.6,5.6-4.8,8.7-6.9c5.9-4.1,11.8-8.3,16.5-14c0.2-0.1,3.4-5.3,4.6-8
			C434.9,127.2,434.9,127,434.8,126.8z"/>
	</g>
	<path class="st23" d="M434.8,127.4c0.1-0.2,0.1-0.4,0-0.7c-0.2-0.4-0.7-0.5-1-0.6c-1.8-0.7-3.6-1.3-5.4-1.9
		c-1.1-0.4-2.3-0.6-3.5-0.6c-0.1,0.3-0.3,0.5-0.4,0.8l7.9,7.7C433.2,130.5,434.2,128.7,434.8,127.4z"/>
	
		<linearGradient id="SVGID_1_" gradientUnits="userSpaceOnUse" x1="-896.202" y1="224.4155" x2="-840.187" y2="224.4155" gradientTransform="matrix(-1 0 0 -1 -471 338)">
		<stop  offset="0" style="stop-color:#F15A29"/>
		<stop  offset="0.4305" style="stop-color:#F0532D"/>
		<stop  offset="1" style="stop-color:#EF4136"/>
	</linearGradient>
	<polygon class="st37" points="425.2,112.1 401,105.6 369.2,113.4 389.2,121.6 	"/>
	
		<linearGradient id="SVGID_2_" gradientUnits="userSpaceOnUse" x1="-860.67" y1="201.719" x2="-840.185" y2="201.719" gradientTransform="matrix(-1 0 0 -1 -471 338)">
		<stop  offset="0" style="stop-color:#F15A29"/>
		<stop  offset="0.4305" style="stop-color:#F0532D"/>
		<stop  offset="1" style="stop-color:#EF4136"/>
	</linearGradient>
	<polygon class="st38" points="389.5,124.8 389.2,121.6 369.2,113.4 369.2,113.5 369.7,150.7 389.7,159.2 	"/>
	
		<linearGradient id="SVGID_3_" gradientUnits="userSpaceOnUse" x1="-896.413" y1="202.3655" x2="-860.247" y2="202.3655" gradientTransform="matrix(-1 0 0 -1 -471 338)">
		<stop  offset="0" style="stop-color:#F15A29"/>
		<stop  offset="0.4305" style="stop-color:#F0532D"/>
		<stop  offset="1" style="stop-color:#EF4136"/>
	</linearGradient>
	<polygon class="st39" points="425.2,112.2 425.2,112.1 389.2,121.6 389.5,124.8 389.7,159.2 425.4,148.6 	"/>
	<polygon class="st40" points="378.8,117.3 378.8,117.3 378.8,117.3 376.2,116.3 376.2,116.4 376.6,120.8 376.6,120.8 376.8,121.3 
		377,121 377.2,121.5 377.5,121.2 377.7,122.3 378,121.7 378.3,122.1 378.5,121.9 378.8,122.3 379,121.9 379.2,122.5 378.8,117.5 	
		"/>
	<polygon class="st40" points="410,108 376.2,116.3 376.2,116.3 376.2,116.3 376.2,116.3 376.2,116.3 378.8,117.3 378.8,117.3 
		413.3,108.9 	"/>
	<path class="st41" d="M369.2,113.4l20.1,8.2C389.2,121.6,377,116,369.2,113.4z"/>
	<path class="st41" d="M389.9,121.4l35-9.3C424.8,112.2,399.6,118.3,389.9,121.4z"/>
	<path class="st41" d="M389.5,158.8l-0.1-36.2C389.4,122.7,388.9,148.6,389.5,158.8z"/>
	<path class="st18" d="M405,156.3c-1.1,0.8-2.3,1.7-2.9,2.9c-1,1-1.8,2.3-2.6,3.4c-0.8,1.1-1.9,1.4-3,1.6c-1.1,0.3-1.9,0.2-3.1,0.5
		c-1.2,0.4-3.3,0.4-5-0.1c-1.4-0.5-2.9-0.9-4.5-0.8c-0.7,0-0.9-0.6-0.9-1.2c0-0.7,0.5-0.6,0.9-0.5c2.4,0.4,4.2-0.4,5.6-2.3
		c0.7-1,1.8-1.7,2.7-2.5c0.4-0.4,0.4-0.6-0.1-0.9c-0.5-0.2-1-0.4-1.6-0.4c-1,0-2.1,0-3.1,0c-0.6,0-1.2-0.1-1.6-0.6
		c-0.3-0.2-0.5-0.5-0.4-0.9c0.1-0.4,0.5-0.4,0.8-0.5c3-0.6,6.1-1.2,9.1-1.7c1.1-0.2,2.1,0.2,3.1,0.5c0.6,0.2,1,0.1,1.4-0.3
		c0.7-0.7,1.4-1.3,2-1.9c0.2-0.5,0.6-0.9,0.9-1.2c2.9-2.9,14.4-14.3,18.3-19.3c0.3-0.4,1.9-2.9,3.9-6.6c1.2,0,2.4,0.2,3.5,0.6
		c1.8,0.6,3.6,1.3,5.4,1.9c0.4,0.1,0.8,0.2,1,0.6c0.1,0.2,0.1,0.4,0,0.7c-1.2,2.7-4.4,7.9-4.6,8c-4.7,5.6-10.6,9.8-16.5,14
		C410.6,151.5,407.7,153.7,405,156.3z"/>
	<g>
		
			<linearGradient id="SVGID_4_" gradientUnits="userSpaceOnUse" x1="323.3535" y1="67.6453" x2="374.181" y2="68.5242" gradientTransform="matrix(0.9974 7.250000e-02 5.310000e-02 -0.7311 54.1524 111.0578)">
			<stop  offset="0" style="stop-color:#F15A29"/>
			<stop  offset="0.4305" style="stop-color:#F0532D"/>
			<stop  offset="1" style="stop-color:#EF4136"/>
		</linearGradient>
		<polygon class="st42" points="421.2,85.1 403.4,80.3 380,86 394.8,92.1 		"/>
		
			<linearGradient id="SVGID_5_" gradientUnits="userSpaceOnUse" x1="332.3687" y1="58.4163" x2="330.711" y2="6.6274" gradientTransform="matrix(0.9974 7.250000e-02 5.310000e-02 -0.7311 54.1524 111.0578)">
			<stop  offset="0" style="stop-color:#F15A29"/>
			<stop  offset="0.4305" style="stop-color:#F0532D"/>
			<stop  offset="1" style="stop-color:#EF4136"/>
		</linearGradient>
		<polygon class="st43" points="394.9,94.4 394.8,92.1 380,86 380,86.1 380.4,113.5 395.1,119.8 		"/>
		
			<linearGradient id="SVGID_6_" gradientUnits="userSpaceOnUse" x1="338.8213" y1="65.9348" x2="373.8202" y2="16.5557" gradientTransform="matrix(0.9974 7.250000e-02 5.310000e-02 -0.7311 54.1524 111.0578)">
			<stop  offset="0" style="stop-color:#F15A29"/>
			<stop  offset="0.4305" style="stop-color:#F0532D"/>
			<stop  offset="1" style="stop-color:#EF4136"/>
		</linearGradient>
		<polygon class="st44" points="421.2,85.2 421.2,85.1 394.8,92.1 394.9,94.4 395.1,119.8 421.3,111.9 		"/>
		<polygon class="st40" points="410,82.1 385.2,88.2 385.2,88.2 385.2,88.2 385.2,88.2 385.2,88.2 387.1,88.9 387.1,88.9 
			412.4,82.7 		"/>
		<path class="st41" d="M380,86l14.7,6C394.8,92.1,385.8,88,380,86z"/>
		<path class="st41" d="M395.2,92l25.7-6.8C420.9,85.1,402.3,89.6,395.2,92z"/>
		<path class="st41" d="M394.9,119.5l-0.1-26.6C394.8,92.9,394.5,112,394.9,119.5z"/>
	</g>
</g>
</svg>
