<?xml version="1.0" encoding="utf-8"?>
<!-- Generator: Adobe Illustrator 16.0.0, SVG Export Plug-In . SVG Version: 6.00 Build 0)  -->
<!DOCTYPE svg PUBLIC "-//W3C//DTD SVG 1.1//EN" "http://www.w3.org/Graphics/SVG/1.1/DTD/svg11.dtd">
<svg version="1.1" xmlns="http://www.w3.org/2000/svg" xmlns:xlink="http://www.w3.org/1999/xlink" x="0px" y="0px"
	 width="106.495px" height="215.989px" viewBox="0 0 106.495 215.989" enable-background="new 0 0 106.495 215.989"
	 xml:space="preserve">
<g id="base_layer">
</g>
<g id="person_looking_into_phone">
	<g id="neck">
		<g id="NECK">
			<path fill="#DDA078" d="M78.539,41.029l-6.897-6.781c0,0-5.557,1.107-6.94,6.781v6.227l3.598,0.969
				C68.299,48.225,76.325,45.042,78.539,41.029z"/>
		</g>
	</g>
	<g id="right_shoe_1_">
		<g id="right_shoe">
			<g id="left_ankle">
				<polygon fill="#F79350" points="44.092,204.691 42.461,195.112 44.125,189.165 50.294,189.165 51.773,196.033 50.492,202.417 
									"/>
			</g>
			<g id="left_shoe_sole">
				<polygon fill="#833A1C" points="16.985,206.31 54.448,203.367 54.576,204.951 54.576,206.015 44.803,206.705 44.718,205.747 
					17.138,207.916 				"/>
			</g>
			<g id="left_shoe_upper">
				<path d="M17.117,206.583c0,0,0.042-1.299,0.397-1.42c15.711-5.616,25.397-10.104,25.397-10.104
					c1.192,0.172,2.105,1.097,2.206,2.233l7.212-1.311c1.276,2.286,2.03,4.806,2.207,7.386L17.117,206.583z"/>
			</g>
		</g>
	</g>
	<g id="right_leg">
		<path id="pant_shadow" fill="#12112B" d="M65.219,105.764c0,0-3.574,58.268-4.675,65.812c0,0-1.925,17.947-3.299,20.028v2.081
			v2.081c0,0-17.324,0.261-18.698-2.601v-2.342l1.924-1.301v-3.381l1.925-3.382v-1.561l-0.55-42.921l7.246-36.677L65.219,105.764z"
			/>
	</g>
	<g id="pant_shadow_1_">
		<path opacity="0.5" fill="#03030C" d="M65.11,105.764c0,0-3.575,58.268-4.675,65.812c0,0-1.924,17.947-3.299,20.028v2.081v2.081
			c0,0-17.326,0.261-18.701-2.601v-2.342l1.926-1.301v-3.381l1.924-3.382v-1.561l-0.549-42.921l7.245-36.677L65.11,105.764z"/>
	</g>
	<g id="left_shoe_1_">
		<g id="left_shoe">
			<g id="left_ankle_1_">
				<polygon fill="#F79350" points="88.993,155.933 78.749,156.411 72.685,154.193 73.363,148.393 80.74,147.757 87.309,149.664 
									"/>
			</g>
			<g id="left_shoe_sole_2_">
				<polygon fill="#833A1C" points="87.715,181.596 88.741,146.049 90.42,146.101 91.538,146.22 91.189,155.483 90.173,155.459 
					89.418,181.629 				"/>
			</g>
			<g id="left_shoe_upper_1_">
				<path d="M88.015,181.501c0,0-1.359-0.182-1.446-0.528c-4.175-15.389-7.826-24.988-7.826-24.988
					c0.313-1.104,1.386-1.86,2.589-1.831l-0.584-6.925c2.544-0.948,5.273-1.38,8.004-1.263L88.015,181.501z"/>
			</g>
		</g>
	</g>
	<g id="right_hand_to_arm">
		<path id="hand_right" fill="#DDA078" d="M44.386,68.935l-3.097-2.071c-2.92-0.266-5.454-2.618-5.454-2.618
			c-3.276-2.716,0.632-3.206,0.632-3.206c1.172-0.084,2.638,0.97,2.638,0.97l-3.351-1.806c-4.752-2.667-2.123-2.57-2.123-2.57
			c2.052,0.507,14.032,7.985,14.032,7.985C49.784,70.836,44.385,68.934,44.386,68.935z"/>
		<g id="right_arm">
			<linearGradient id="SVGID_1_" gradientUnits="userSpaceOnUse" x1="59.1841" y1="76.082" x2="56.9341" y2="78.1655">
				<stop  offset="0" style="stop-color:#F3E5EC"/>
				<stop  offset="0.5281" style="stop-color:#EDD9E3"/>
				<stop  offset="1" style="stop-color:#E3C5D3"/>
			</linearGradient>
			<path fill="url(#SVGID_1_)" d="M66.711,93.706c-8.063-6.503-14.331-12.33-18.126-16.542c-7.01-7.785-10.299-12.012-10.299-12.012
				s0.208-1.651,3.05-2.512c1.304-0.318,0.149-0.982,1.304-0.318c2.324,0.929,25.495,9.986,37.623,19.772
				c-2.174,2.726-5.014,5.286-5.747,9.988C73.96,95.645,66.708,93.706,66.711,93.706z"/>
			<linearGradient id="SVGID_2_" gradientUnits="userSpaceOnUse" x1="63.896" y1="81.1709" x2="61.646" y2="83.2544">
				<stop  offset="0" style="stop-color:#F3E5EC"/>
				<stop  offset="0.5281" style="stop-color:#EDD9E3"/>
				<stop  offset="1" style="stop-color:#E3C5D3"/>
			</linearGradient>
			<path fill="url(#SVGID_2_)" d="M65.553,79.568c0,0,3.911-31.243,13.106-34.625c0,0,8.644,0.3,8.369,12.506
				c0,0-7.006,30.804-8.271,33.154C78.758,90.604,65.344,85.241,65.553,79.568z"/>
		</g>
		<path fill="#D6B59F" d="M46.21,63.767c-3.141,1.231-5.347,3.73-5.347,3.73l-2.096-2.58c0.124-1.702,3.427-2.842,3.427-2.842
			l0.445,0.248L46.21,63.767z"/>
	</g>
	<g id="left_leg">
		<path fill="#12112B" d="M72.919,104.463v3.642c0,0-3.024,8.845-9.075,12.745c0,0-18.15,15.869-20.35,16.908
			c0,0,15.125,4.682,18.976,7.023c0,0,3.892-0.52,4.694,1.042c0,0,1.904-1.822,4.105,0c0,0,4.399,0,7.974,0
			c0,0-0.825,16.906-3.024,21.329h-1.101l-4.95-1.247l-0.55-1.874l-2.454,0.521l-5.795-2.081c0,0-34.373-10.927-41.249-17.429
			c0,0-4.124-3.902,3.026-14.308l7.424-10.924l1.375-3.382l4.4-5.203l2.476-4.941l1.375-1.821l7.7-4.942
			C47.896,99.521,62.194,100.82,72.919,104.463z"/>
	</g>
	<g id="shirt_body">
		<linearGradient id="SVGID_3_" gradientUnits="userSpaceOnUse" x1="40.707" y1="61.5869" x2="93.374" y2="82.5869">
			<stop  offset="0" style="stop-color:#F3E5EC"/>
			<stop  offset="0.5281" style="stop-color:#EDD9E3"/>
			<stop  offset="1" style="stop-color:#E3C5D3"/>
		</linearGradient>
		<path fill="url(#SVGID_3_)" d="M76.487,39.952h0.964c0,0,10.999,11.055,11.824,17.429c0,0-0.337,9.017-2.414,13.526
			c0,0-4.277,19.25-4.735,20.463v4.162l-3.209,3.988l-1.65,3.815l-1.465,1.127c0,0-26.767-3.209-28.784-4.075v-2.602l1.65-1.041
			l0.183-4.334l3.122-3.642l3.662-13.874l0.732-6.242c0,0,5.867-16.128,9.717-20.984C66.084,47.669,71.493,41.426,76.487,39.952z"/>
	</g>
	<g id="phone">
		
			<linearGradient id="SVGID_4_" gradientUnits="userSpaceOnUse" x1="230.9785" y1="-234.7764" x2="239.4082" y2="-234.7764" gradientTransform="matrix(-0.3359 0.1648 0.1008 0.2055 137.06 71.7506)">
			<stop  offset="0" style="stop-color:#E5E2DF"/>
			<stop  offset="0" style="stop-color:#D6D7D7"/>
			<stop  offset="0" style="stop-color:#D1D3D4"/>
			<stop  offset="0.0676" style="stop-color:#EDEEEE"/>
			<stop  offset="0.1067" style="stop-color:#FFFFFF"/>
			<stop  offset="0.1302" style="stop-color:#F5F5F6"/>
			<stop  offset="0.1697" style="stop-color:#DBDCDD"/>
			<stop  offset="0.2201" style="stop-color:#B1B2B4"/>
			<stop  offset="0.2472" style="stop-color:#97999C"/>
			<stop  offset="0.2718" style="stop-color:#9A9C9E"/>
			<stop  offset="0.2866" style="stop-color:#A2A4A7"/>
			<stop  offset="0.2987" style="stop-color:#B0B2B4"/>
			<stop  offset="0.3095" style="stop-color:#C4C6C8"/>
			<stop  offset="0.3146" style="stop-color:#D1D3D4"/>
			<stop  offset="0.3637" style="stop-color:#C7C9CA"/>
			<stop  offset="0.4464" style="stop-color:#ADAFB0"/>
			<stop  offset="0.5518" style="stop-color:#838586"/>
			<stop  offset="0.6461" style="stop-color:#58595B"/>
			<stop  offset="0.6777" style="stop-color:#616265"/>
			<stop  offset="0.7307" style="stop-color:#7A7C7F"/>
			<stop  offset="0.7416" style="stop-color:#808285"/>
			<stop  offset="0.743" style="stop-color:#797A7D"/>
			<stop  offset="0.7501" style="stop-color:#5A595C"/>
			<stop  offset="0.7574" style="stop-color:#424041"/>
			<stop  offset="0.7648" style="stop-color:#312D2F"/>
			<stop  offset="0.7725" style="stop-color:#262324"/>
			<stop  offset="0.7809" style="stop-color:#231F20"/>
			<stop  offset="0.7899" style="stop-color:#4B4848"/>
			<stop  offset="0.8021" style="stop-color:#7A7878"/>
			<stop  offset="0.8146" style="stop-color:#A3A1A2"/>
			<stop  offset="0.8274" style="stop-color:#C4C3C3"/>
			<stop  offset="0.8403" style="stop-color:#DEDEDE"/>
			<stop  offset="0.8535" style="stop-color:#F0F0F0"/>
			<stop  offset="0.8672" style="stop-color:#FBFBFB"/>
			<stop  offset="0.882" style="stop-color:#FFFFFF"/>
			<stop  offset="0.8972" style="stop-color:#EAEBEC"/>
			<stop  offset="0.9214" style="stop-color:#D0D2D3"/>
			<stop  offset="0.9463" style="stop-color:#BEBFC2"/>
			<stop  offset="0.972" style="stop-color:#B3B5B7"/>
			<stop  offset="1" style="stop-color:#AFB1B4"/>
		</linearGradient>
		<path fill="url(#SVGID_4_)" d="M38.346,72.768c0.147,0.28,0.655,0.325,1.139,0.102l0.657-0.307
			c0.484-0.222,0.758-0.631,0.613-0.912L30.443,51.763c-0.148-0.28-0.656-0.325-1.137-0.101l-0.657,0.305
			c-0.483,0.224-0.76,0.632-0.614,0.912L38.346,72.768z"/>
	</g>
	<g id="head_to_face">
		<g id="Layer_3">
			<path fill="#FCC49A" d="M66.362,45.319c0,0-5.536,6.781-7.058,2.076l-0.869-0.207v-0.9l-1.069-0.969l-0.691,0.969
				c0,0-0.83-1.246-1.799-0.969c0,0-2.492,1.384-2.63-2.076l-0.692-2.906l-0.315-0.385l-0.415-0.583l-1.484-2.076
				c0,0-1.333-2.943-1.952-2.995l2.09-4.339c0,0,3.875-5.121,4.705-5.812c0.831-0.692,5.258-1.938,5.674-1.661
				c0.415,0.276,4.843,2.701,4.843,2.701l3.044,3.526l2.63,4.013c0,0,0.48,2.013,0.364,3.025
				C70.448,38.283,66.362,45.319,66.362,45.319z"/>
			<path opacity="0.3" fill="#03030C" d="M61.116,102.612c0,0-3.791,5.417,0,10.479l-0.842,0.563c0,0-4.008-5.369,0-11.153
				L61.116,102.612z"/>
			<path opacity="0.5" fill="#DDA078" d="M60.756,31.537c0,0-0.06-4.263,3.001-3.158c0,0,0.879,0.734,1.993,1.961
				c0.264,0.291,0.638,0.9,0.875,1.25c0,0,1.875,1.939,1.219,2.658c0,0-1.119,1.051-2.057,0.237c0,0,1.156,0.77,1.938,0.306
				c0,0,0.98-0.714,0.553-2.12c0,0-3.209-5.919-6.334-4.475C61.943,28.197,60.412,28.527,60.756,31.537z"/>
			<path fill="#282321" d="M72.334,34.94c0,0,2.65-0.692,0-5.12l-2.65-3.598c0,0-5.259-8.165-10.103-9.133
				c0,0-3.673-4.151-7.787,0.692c0,0-4.529,3.46-7.296,11.485c0,0-1.661,1.661-0.969,3.459c0,0,3.597,2.768,5.397,0.969h1.384h2.214
				h2.353l1.66-0.692l3.322,1.938l0.83-1.245l-0.138-1.107l0.138-2.352c0,0,1.246-5.397,5.675,0.415l3.639,3.947L72.334,34.94z"/>
		</g>
	</g>
	<g id="tie">
		<g>
			<polygon fill="#BF4F1D" points="65.072,49.588 63.873,53.174 62.254,52.061 65.072,49.588 			"/>
			<path fill="#BF4F1D" d="M62.604,52.301c0,0-7.78,9.028-8.603,16.745c0,0-2.21,14.753-6.9,13.997l-0.891,2.386L49.5,85.96
				c0,0,5.354-5.381,7.198-16.725c0,0,4.545-14.376,7.002-16.179L62.604,52.301z"/>
		</g>
	</g>
	<g id="left_arm_to_hand">
		<linearGradient id="SVGID_5_" gradientUnits="userSpaceOnUse" x1="69.4795" y1="59.7881" x2="86.4795" y2="79.4546">
			<stop  offset="0" style="stop-color:#F3E5EC"/>
			<stop  offset="0.5281" style="stop-color:#EDD9E3"/>
			<stop  offset="1" style="stop-color:#E3C5D3"/>
		</linearGradient>
		<path fill="url(#SVGID_5_)" d="M67.799,83.681c0,0,3.915-31.243,13.107-34.625c0,0,8.644,0.301,8.369,12.506
			c0,0-5.888,30.804-7.149,33.154C82.126,94.717,67.593,89.354,67.799,83.681z"/>
		<path fill="#EDAA7D" d="M42.294,70.576l-2.842-2.38c-2.869-0.567-5.117-3.167-5.117-3.167c-2.941-3.039,1-3.121,1-3.121
			c1.176,0.038,2.51,1.237,2.51,1.237l-3.121-2.142c-4.419-3.143-1.816-2.774-1.816-2.774c1.983,0.716,13.025,9.39,13.025,9.39
			C47.438,73.024,42.292,70.575,42.294,70.576z"/>
		<linearGradient id="SVGID_6_" gradientUnits="userSpaceOnUse" x1="64.5127" y1="78.4189" x2="55.41" y2="91.9499">
			<stop  offset="0" style="stop-color:#F3E5EC"/>
			<stop  offset="0.5281" style="stop-color:#EDD9E3"/>
			<stop  offset="1" style="stop-color:#E3C5D3"/>
		</linearGradient>
		<path fill="url(#SVGID_6_)" d="M69.852,97.819c-9.443-6.166-14.33-12.329-18.124-16.542c-7.012-7.786-10.301-12.012-10.301-12.012
			s0.209-1.651,3.05-2.513c1.303-0.317,0.148-0.981,1.303-0.317c2.325,0.928,28.994,13.806,34.483,20.718
			c4.1,5.163,3.183,6.956,0.894,10.25C79.098,100.364,69.854,97.82,69.852,97.819z"/>
		<path fill="#D6B59F" d="M48.458,67.667c-3.141,1.23-4.933,4.177-4.933,4.177l-2.992-2.58c0.125-1.702,3.442-2.651,3.442-2.651
			l0.744-0.805L48.458,67.667z"/>
	</g>
	<g id="collor">
		<linearGradient id="SVGID_7_" gradientUnits="userSpaceOnUse" x1="72.9639" y1="42.4678" x2="70.6417" y2="54.0283">
			<stop  offset="0" style="stop-color:#F3E5EC"/>
			<stop  offset="0.5281" style="stop-color:#EDD9E3"/>
			<stop  offset="1" style="stop-color:#E3C5D3"/>
		</linearGradient>
		<polygon fill="url(#SVGID_7_)" points="75.72,38.258 64.701,49.057 63.851,54.237 79.885,42.552 		"/>
	</g>
</g>
</svg>
