<?xml version="1.0" encoding="utf-8"?>
<!-- Generator: Adobe Illustrator 16.0.0, SVG Export Plug-In . SVG Version: 6.00 Build 0)  -->
<!DOCTYPE svg PUBLIC "-//W3C//DTD SVG 1.1//EN" "http://www.w3.org/Graphics/SVG/1.1/DTD/svg11.dtd">
<svg version="1.1" id="Layer_1" xmlns="http://www.w3.org/2000/svg" xmlns:xlink="http://www.w3.org/1999/xlink" x="0px" y="0px"
	 width="500px" height="500px" viewBox="0 0 500 500" enable-background="new 0 0 500 500" xml:space="preserve">
<linearGradient id="SVGID_1_" gradientUnits="userSpaceOnUse" x1="66.3369" y1="317.1738" x2="457.0762" y2="317.1738">
	<stop  offset="0" style="stop-color:#F15B2A"/>
	<stop  offset="1" style="stop-color:#F69321"/>
</linearGradient>
<rect x="66.337" y="182.838" fill="url(#SVGID_1_)" width="390.739" height="268.672"/>
<linearGradient id="SVGID_2_" gradientUnits="userSpaceOnUse" x1="57.9912" y1="330.2129" x2="66.3369" y2="330.2129">
	<stop  offset="0" style="stop-color:#F15B2A"/>
	<stop  offset="1" style="stop-color:#F69321"/>
</linearGradient>
<rect x="57.991" y="207.276" fill="url(#SVGID_2_)" width="8.346" height="245.873"/>
<linearGradient id="SVGID_3_" gradientUnits="userSpaceOnUse" x1="260.375" y1="183.9917" x2="260.375" y2="53.2441">
	<stop  offset="0" style="stop-color:#282560"/>
	<stop  offset="1" style="stop-color:#2A3B8F"/>
</linearGradient>
<polygon fill="url(#SVGID_3_)" points="478.056,183.992 42.694,183.992 73.295,53.244 448.847,53.244 "/>
<linearGradient id="SVGID_4_" gradientUnits="userSpaceOnUse" x1="452.9033" y1="325.8457" x2="461.25" y2="325.8457">
	<stop  offset="0" style="stop-color:#F15B2A"/>
	<stop  offset="1" style="stop-color:#F69321"/>
</linearGradient>
<rect x="452.903" y="198.543" fill="url(#SVGID_4_)" width="8.347" height="254.606"/>
<g>
	<g>
		<linearGradient id="SVGID_5_" gradientUnits="userSpaceOnUse" x1="43.2422" y1="198.5415" x2="98.1499" y2="198.5415">
			<stop  offset="0" style="stop-color:#282560"/>
			<stop  offset="1" style="stop-color:#2A3B8F"/>
		</linearGradient>
		<path fill="url(#SVGID_5_)" d="M98.15,183.242c0,16.9-12.292,30.6-27.454,30.6c-15.162,0-27.454-13.699-27.454-30.6"/>
		<linearGradient id="SVGID_6_" gradientUnits="userSpaceOnUse" x1="98.1499" y1="198.542" x2="153.0581" y2="198.542">
			<stop  offset="0" style="stop-color:#282560"/>
			<stop  offset="1" style="stop-color:#2A3B8F"/>
		</linearGradient>
		<path fill="url(#SVGID_6_)" d="M153.058,183.242c0,16.9-12.292,30.599-27.454,30.599c-15.163,0-27.454-13.699-27.454-30.599"/>
		<linearGradient id="SVGID_7_" gradientUnits="userSpaceOnUse" x1="153.0581" y1="198.542" x2="207.9658" y2="198.542">
			<stop  offset="0" style="stop-color:#282560"/>
			<stop  offset="1" style="stop-color:#2A3B8F"/>
		</linearGradient>
		<path fill="url(#SVGID_7_)" d="M207.966,183.243c0,16.901-12.292,30.598-27.454,30.598c-15.163,0-27.454-13.697-27.454-30.598"/>
		<linearGradient id="SVGID_8_" gradientUnits="userSpaceOnUse" x1="206.9126" y1="198.5415" x2="261.8203" y2="198.5415">
			<stop  offset="0" style="stop-color:#282560"/>
			<stop  offset="1" style="stop-color:#2A3B8F"/>
		</linearGradient>
		<path fill="url(#SVGID_8_)" d="M261.82,183.242c0,16.9-12.292,30.6-27.454,30.6c-15.163,0-27.454-13.699-27.454-30.6"/>
	</g>
	<g>
		<linearGradient id="SVGID_9_" gradientUnits="userSpaceOnUse" x1="258.9297" y1="198.5415" x2="313.8389" y2="198.5415">
			<stop  offset="0" style="stop-color:#282560"/>
			<stop  offset="1" style="stop-color:#2A3B8F"/>
		</linearGradient>
		<path fill="url(#SVGID_9_)" d="M313.839,183.242c0,16.9-12.292,30.6-27.455,30.6s-27.454-13.699-27.454-30.6"/>
		<linearGradient id="SVGID_10_" gradientUnits="userSpaceOnUse" x1="313.8389" y1="198.542" x2="368.7451" y2="198.542">
			<stop  offset="0" style="stop-color:#282560"/>
			<stop  offset="1" style="stop-color:#2A3B8F"/>
		</linearGradient>
		<path fill="url(#SVGID_10_)" d="M368.745,183.242c0,16.901-12.29,30.599-27.452,30.599c-15.164,0-27.454-13.698-27.454-30.599"/>
		<linearGradient id="SVGID_11_" gradientUnits="userSpaceOnUse" x1="368.7451" y1="198.542" x2="423.6543" y2="198.542">
			<stop  offset="0" style="stop-color:#282560"/>
			<stop  offset="1" style="stop-color:#2A3B8F"/>
		</linearGradient>
		<path fill="url(#SVGID_11_)" d="M423.654,183.243c0,16.9-12.292,30.598-27.456,30.598c-15.162,0-27.453-13.698-27.453-30.598"/>
		<linearGradient id="SVGID_12_" gradientUnits="userSpaceOnUse" x1="422.6006" y1="198.5415" x2="477.5068" y2="198.5415">
			<stop  offset="0" style="stop-color:#282560"/>
			<stop  offset="1" style="stop-color:#2A3B8F"/>
		</linearGradient>
		<path fill="url(#SVGID_12_)" d="M477.507,183.242c0,16.9-12.29,30.6-27.453,30.6s-27.453-13.699-27.453-30.6"/>
	</g>
</g>
<linearGradient id="SVGID_13_" gradientUnits="userSpaceOnUse" x1="361.8555" y1="340.6563" x2="385.0078" y2="340.6563" gradientTransform="matrix(0 -1 1 0 -79.2437 419.9189)">
	<stop  offset="0" style="stop-color:#F15B2A"/>
	<stop  offset="1" style="stop-color:#F69321"/>
</linearGradient>
<rect x="72.337" y="34.912" fill="url(#SVGID_13_)" width="378.151" height="23.152"/>
<linearGradient id="SVGID_14_" gradientUnits="userSpaceOnUse" x1="-35.7627" y1="339.4775" x2="-27.418" y2="339.4775" gradientTransform="matrix(0 -1 1 0 -79.2437 419.9189)">
	<stop  offset="0" style="stop-color:#F15B2A"/>
	<stop  offset="1" style="stop-color:#F69321"/>
</linearGradient>
<rect x="59.217" y="447.337" fill="url(#SVGID_14_)" width="402.033" height="8.345"/>
<g>
	
		<linearGradient id="SVGID_15_" gradientUnits="userSpaceOnUse" x1="162.3975" y1="230.6602" x2="171.1611" y2="230.6602" gradientTransform="matrix(0 -1 1 0 -79.2437 419.9189)">
		<stop  offset="0" style="stop-color:#282560"/>
		<stop  offset="1" style="stop-color:#2A3B8F"/>
	</linearGradient>
	<rect x="77.228" y="248.758" fill="url(#SVGID_15_)" width="148.378" height="8.764"/>
	
		<linearGradient id="SVGID_16_" gradientUnits="userSpaceOnUse" x1="153.6309" y1="230.6602" x2="162.3975" y2="230.6602" gradientTransform="matrix(0 -1 1 0 -79.2437 419.9189)">
		<stop  offset="0" style="stop-color:#282560"/>
		<stop  offset="1" style="stop-color:#2A3B8F"/>
	</linearGradient>
	<rect x="77.228" y="257.521" fill="url(#SVGID_16_)" width="148.378" height="8.767"/>
	
		<linearGradient id="SVGID_17_" gradientUnits="userSpaceOnUse" x1="145.0127" y1="230.6602" x2="153.7764" y2="230.6602" gradientTransform="matrix(0 -1 1 0 -79.2437 419.9189)">
		<stop  offset="0" style="stop-color:#282560"/>
		<stop  offset="1" style="stop-color:#2A3B8F"/>
	</linearGradient>
	<rect x="77.228" y="266.143" fill="url(#SVGID_17_)" width="148.378" height="8.764"/>
	
		<linearGradient id="SVGID_18_" gradientUnits="userSpaceOnUse" x1="136.3906" y1="230.6602" x2="145.1563" y2="230.6602" gradientTransform="matrix(0 -1 1 0 -79.2437 419.9189)">
		<stop  offset="0" style="stop-color:#282560"/>
		<stop  offset="1" style="stop-color:#2A3B8F"/>
	</linearGradient>
	<rect x="77.228" y="274.763" fill="url(#SVGID_18_)" width="148.378" height="8.766"/>
	
		<linearGradient id="SVGID_19_" gradientUnits="userSpaceOnUse" x1="127.7705" y1="230.6602" x2="136.5361" y2="230.6602" gradientTransform="matrix(0 -1 1 0 -79.2437 419.9189)">
		<stop  offset="0" style="stop-color:#282560"/>
		<stop  offset="1" style="stop-color:#2A3B8F"/>
	</linearGradient>
	<rect x="77.228" y="283.383" fill="url(#SVGID_19_)" width="148.378" height="8.766"/>
	
		<linearGradient id="SVGID_20_" gradientUnits="userSpaceOnUse" x1="119.1523" y1="230.6602" x2="127.915" y2="230.6602" gradientTransform="matrix(0 -1 1 0 -79.2437 419.9189)">
		<stop  offset="0" style="stop-color:#282560"/>
		<stop  offset="1" style="stop-color:#2A3B8F"/>
	</linearGradient>
	<rect x="77.228" y="292.004" fill="url(#SVGID_20_)" width="148.378" height="8.763"/>
	
		<linearGradient id="SVGID_21_" gradientUnits="userSpaceOnUse" x1="111.3213" y1="230.6602" x2="120.0869" y2="230.6602" gradientTransform="matrix(0 -1 1 0 -79.2437 419.9189)">
		<stop  offset="0" style="stop-color:#282560"/>
		<stop  offset="1" style="stop-color:#2A3B8F"/>
	</linearGradient>
	<rect x="77.228" y="299.832" fill="url(#SVGID_21_)" width="148.378" height="8.766"/>
	
		<linearGradient id="SVGID_22_" gradientUnits="userSpaceOnUse" x1="102.7021" y1="230.6602" x2="111.4658" y2="230.6602" gradientTransform="matrix(0 -1 1 0 -79.2437 419.9189)">
		<stop  offset="0" style="stop-color:#282560"/>
		<stop  offset="1" style="stop-color:#2A3B8F"/>
	</linearGradient>
	<rect x="77.228" y="308.453" fill="url(#SVGID_22_)" width="148.378" height="8.764"/>
	
		<linearGradient id="SVGID_23_" gradientUnits="userSpaceOnUse" x1="94.0811" y1="230.6602" x2="102.8457" y2="230.6602" gradientTransform="matrix(0 -1 1 0 -79.2437 419.9189)">
		<stop  offset="0" style="stop-color:#282560"/>
		<stop  offset="1" style="stop-color:#2A3B8F"/>
	</linearGradient>
	<rect x="77.228" y="317.073" fill="url(#SVGID_23_)" width="148.378" height="8.765"/>
	
		<linearGradient id="SVGID_24_" gradientUnits="userSpaceOnUse" x1="85.4619" y1="230.6602" x2="94.2266" y2="230.6602" gradientTransform="matrix(0 -1 1 0 -79.2437 419.9189)">
		<stop  offset="0" style="stop-color:#282560"/>
		<stop  offset="1" style="stop-color:#2A3B8F"/>
	</linearGradient>
	<rect x="77.228" y="325.692" fill="url(#SVGID_24_)" width="148.378" height="8.765"/>
	
		<linearGradient id="SVGID_25_" gradientUnits="userSpaceOnUse" x1="76.8408" y1="230.6602" x2="85.6064" y2="230.6602" gradientTransform="matrix(0 -1 1 0 -79.2437 419.9189)">
		<stop  offset="0" style="stop-color:#282560"/>
		<stop  offset="1" style="stop-color:#2A3B8F"/>
	</linearGradient>
	<rect x="77.228" y="334.313" fill="url(#SVGID_25_)" width="148.378" height="8.766"/>
	
		<linearGradient id="SVGID_26_" gradientUnits="userSpaceOnUse" x1="68.2207" y1="230.6602" x2="76.9883" y2="230.6602" gradientTransform="matrix(0 -1 1 0 -79.2437 419.9189)">
		<stop  offset="0" style="stop-color:#282560"/>
		<stop  offset="1" style="stop-color:#2A3B8F"/>
	</linearGradient>
	<rect x="77.228" y="342.931" fill="url(#SVGID_26_)" width="148.378" height="8.768"/>
	
		<linearGradient id="SVGID_27_" gradientUnits="userSpaceOnUse" x1="59.6025" y1="230.6602" x2="68.3652" y2="230.6602" gradientTransform="matrix(0 -1 1 0 -79.2437 419.9189)">
		<stop  offset="0" style="stop-color:#282560"/>
		<stop  offset="1" style="stop-color:#2A3B8F"/>
	</linearGradient>
	<rect x="77.228" y="351.554" fill="url(#SVGID_27_)" width="148.378" height="8.763"/>
	
		<linearGradient id="SVGID_28_" gradientUnits="userSpaceOnUse" x1="50.9824" y1="230.6602" x2="59.7451" y2="230.6602" gradientTransform="matrix(0 -1 1 0 -79.2437 419.9189)">
		<stop  offset="0" style="stop-color:#282560"/>
		<stop  offset="1" style="stop-color:#2A3B8F"/>
	</linearGradient>
	<rect x="77.228" y="360.174" fill="url(#SVGID_28_)" width="148.378" height="8.763"/>
	
		<linearGradient id="SVGID_29_" gradientUnits="userSpaceOnUse" x1="42.3623" y1="230.6602" x2="51.127" y2="230.6602" gradientTransform="matrix(0 -1 1 0 -79.2437 419.9189)">
		<stop  offset="0" style="stop-color:#282560"/>
		<stop  offset="1" style="stop-color:#2A3B8F"/>
	</linearGradient>
	<rect x="77.228" y="368.792" fill="url(#SVGID_29_)" width="148.378" height="8.765"/>
	
		<linearGradient id="SVGID_30_" gradientUnits="userSpaceOnUse" x1="33.7432" y1="230.6602" x2="42.5068" y2="230.6602" gradientTransform="matrix(0 -1 1 0 -79.2437 419.9189)">
		<stop  offset="0" style="stop-color:#282560"/>
		<stop  offset="1" style="stop-color:#2A3B8F"/>
	</linearGradient>
	<rect x="77.228" y="377.412" fill="url(#SVGID_30_)" width="148.378" height="8.764"/>
	
		<linearGradient id="SVGID_31_" gradientUnits="userSpaceOnUse" x1="25.1211" y1="230.6602" x2="33.8877" y2="230.6602" gradientTransform="matrix(0 -1 1 0 -79.2437 419.9189)">
		<stop  offset="0" style="stop-color:#282560"/>
		<stop  offset="1" style="stop-color:#2A3B8F"/>
	</linearGradient>
	<rect x="77.228" y="386.031" fill="url(#SVGID_31_)" width="148.378" height="8.767"/>
	
		<linearGradient id="SVGID_32_" gradientUnits="userSpaceOnUse" x1="16.502" y1="230.6602" x2="25.2676" y2="230.6602" gradientTransform="matrix(0 -1 1 0 -79.2437 419.9189)">
		<stop  offset="0" style="stop-color:#282560"/>
		<stop  offset="1" style="stop-color:#2A3B8F"/>
	</linearGradient>
	<rect x="77.228" y="394.651" fill="url(#SVGID_32_)" width="148.378" height="8.766"/>
	
		<linearGradient id="SVGID_33_" gradientUnits="userSpaceOnUse" x1="7.8818" y1="230.6602" x2="16.6455" y2="230.6602" gradientTransform="matrix(0 -1 1 0 -79.2437 419.9189)">
		<stop  offset="0" style="stop-color:#282560"/>
		<stop  offset="1" style="stop-color:#2A3B8F"/>
	</linearGradient>
	<rect x="77.228" y="403.273" fill="url(#SVGID_33_)" width="148.378" height="8.764"/>
	
		<linearGradient id="SVGID_34_" gradientUnits="userSpaceOnUse" x1="-0.7383" y1="230.6602" x2="8.0264" y2="230.6602" gradientTransform="matrix(0 -1 1 0 -79.2437 419.9189)">
		<stop  offset="0" style="stop-color:#282560"/>
		<stop  offset="1" style="stop-color:#2A3B8F"/>
	</linearGradient>
	<rect x="77.228" y="411.893" fill="url(#SVGID_34_)" width="148.378" height="8.765"/>
	
		<linearGradient id="SVGID_35_" gradientUnits="userSpaceOnUse" x1="-9.3564" y1="230.6602" x2="-0.5938" y2="230.6602" gradientTransform="matrix(0 -1 1 0 -79.2437 419.9189)">
		<stop  offset="0" style="stop-color:#282560"/>
		<stop  offset="1" style="stop-color:#2A3B8F"/>
	</linearGradient>
	<rect x="77.228" y="420.513" fill="url(#SVGID_35_)" width="148.378" height="8.763"/>
	
		<linearGradient id="SVGID_36_" gradientUnits="userSpaceOnUse" x1="-17.9775" y1="230.6602" x2="-9.2119" y2="230.6602" gradientTransform="matrix(0 -1 1 0 -79.2437 419.9189)">
		<stop  offset="0" style="stop-color:#282560"/>
		<stop  offset="1" style="stop-color:#2A3B8F"/>
	</linearGradient>
	<rect x="77.228" y="429.131" fill="url(#SVGID_36_)" width="148.378" height="8.766"/>
	
		<linearGradient id="SVGID_37_" gradientUnits="userSpaceOnUse" x1="-25.5391" y1="230.6602" x2="-16.7764" y2="230.6602" gradientTransform="matrix(0 -1 1 0 -79.2437 419.9189)">
		<stop  offset="0" style="stop-color:#282560"/>
		<stop  offset="1" style="stop-color:#2A3B8F"/>
	</linearGradient>
	<rect x="77.228" y="436.695" fill="url(#SVGID_37_)" width="148.378" height="8.763"/>
</g>
<linearGradient id="SVGID_38_" gradientUnits="userSpaceOnUse" x1="343.4316" y1="400.6904" x2="343.4316" y2="248.3726">
	<stop  offset="0" style="stop-color:#282560"/>
	<stop  offset="1" style="stop-color:#2A3B8F"/>
</linearGradient>
<rect x="243.376" y="248.372" fill="url(#SVGID_38_)" width="200.112" height="152.318"/>
<g>
	<g>
		<linearGradient id="SVGID_39_" gradientUnits="userSpaceOnUse" x1="243.376" y1="255.1348" x2="268.6758" y2="255.1348">
			<stop  offset="0" style="stop-color:#F15B2A"/>
			<stop  offset="1" style="stop-color:#F69321"/>
		</linearGradient>
		<path fill="url(#SVGID_39_)" d="M268.676,248.779c0,7.021-5.661,12.71-12.649,12.71c-6.987,0-12.65-5.689-12.65-12.71"/>
		<linearGradient id="SVGID_40_" gradientUnits="userSpaceOnUse" x1="268.6758" y1="255.1348" x2="293.9814" y2="255.1348">
			<stop  offset="0" style="stop-color:#F15B2A"/>
			<stop  offset="1" style="stop-color:#F69321"/>
		</linearGradient>
		<path fill="url(#SVGID_40_)" d="M293.981,248.779c0,7.021-5.666,12.71-12.653,12.71c-6.985,0-12.652-5.689-12.652-12.71"/>
		<linearGradient id="SVGID_41_" gradientUnits="userSpaceOnUse" x1="293.9814" y1="255.1348" x2="319.2822" y2="255.1348">
			<stop  offset="0" style="stop-color:#F15B2A"/>
			<stop  offset="1" style="stop-color:#F69321"/>
		</linearGradient>
		<path fill="url(#SVGID_41_)" d="M319.282,248.78c0,7.02-5.667,12.709-12.651,12.709c-6.988,0-12.649-5.689-12.649-12.709"/>
		<linearGradient id="SVGID_42_" gradientUnits="userSpaceOnUse" x1="318.7959" y1="255.1348" x2="344.0977" y2="255.1348">
			<stop  offset="0" style="stop-color:#F15B2A"/>
			<stop  offset="1" style="stop-color:#F69321"/>
		</linearGradient>
		<path fill="url(#SVGID_42_)" d="M344.098,248.779c0,7.021-5.665,12.71-12.651,12.71c-6.987,0-12.65-5.689-12.65-12.71"/>
	</g>
	<g>
		<linearGradient id="SVGID_43_" gradientUnits="userSpaceOnUse" x1="342.7646" y1="255.1348" x2="368.0684" y2="255.1348">
			<stop  offset="0" style="stop-color:#F15B2A"/>
			<stop  offset="1" style="stop-color:#F69321"/>
		</linearGradient>
		<path fill="url(#SVGID_43_)" d="M368.068,248.779c0,7.021-5.664,12.71-12.652,12.71c-6.984,0-12.651-5.689-12.651-12.71"/>
		<linearGradient id="SVGID_44_" gradientUnits="userSpaceOnUse" x1="368.0684" y1="255.1348" x2="393.3711" y2="255.1348">
			<stop  offset="0" style="stop-color:#F15B2A"/>
			<stop  offset="1" style="stop-color:#F69321"/>
		</linearGradient>
		<path fill="url(#SVGID_44_)" d="M393.371,248.779c0,7.021-5.665,12.71-12.651,12.71c-6.988,0-12.651-5.689-12.651-12.71"/>
		<linearGradient id="SVGID_45_" gradientUnits="userSpaceOnUse" x1="393.3711" y1="255.1348" x2="418.6729" y2="255.1348">
			<stop  offset="0" style="stop-color:#F15B2A"/>
			<stop  offset="1" style="stop-color:#F69321"/>
		</linearGradient>
		<path fill="url(#SVGID_45_)" d="M418.673,248.78c0,7.02-5.667,12.709-12.652,12.709c-6.988,0-12.649-5.689-12.649-12.709"/>
		<linearGradient id="SVGID_46_" gradientUnits="userSpaceOnUse" x1="418.1855" y1="255.1348" x2="443.4883" y2="255.1348">
			<stop  offset="0" style="stop-color:#F15B2A"/>
			<stop  offset="1" style="stop-color:#F69321"/>
		</linearGradient>
		<path fill="url(#SVGID_46_)" d="M443.488,248.779c0,7.021-5.666,12.71-12.652,12.71c-6.987,0-12.65-5.689-12.65-12.71"/>
	</g>
</g>
<linearGradient id="SVGID_47_" gradientUnits="userSpaceOnUse" x1="77.2271" y1="445.085" x2="77.227" y2="248.3726">
	<stop  offset="0" style="stop-color:#282560"/>
	<stop  offset="1" style="stop-color:#2A3B8F"/>
</linearGradient>
<rect x="74.445" y="248.372" fill="url(#SVGID_47_)" width="5.564" height="196.713"/>
<linearGradient id="SVGID_48_" gradientUnits="userSpaceOnUse" x1="225.606" y1="444.9863" x2="225.6059" y2="248.2725">
	<stop  offset="0" style="stop-color:#282560"/>
	<stop  offset="1" style="stop-color:#2A3B8F"/>
</linearGradient>
<rect x="222.824" y="248.272" fill="url(#SVGID_48_)" width="5.563" height="196.714"/>
</svg>
