<?xml version="1.0" encoding="utf-8"?>
<!-- Generator: Adobe Illustrator 16.0.0, SVG Export Plug-In . SVG Version: 6.00 Build 0)  -->
<!DOCTYPE svg PUBLIC "-//W3C//DTD SVG 1.1//EN" "http://www.w3.org/Graphics/SVG/1.1/DTD/svg11.dtd">
<svg version="1.1" id="Layer_1" xmlns="http://www.w3.org/2000/svg" xmlns:xlink="http://www.w3.org/1999/xlink" x="0px" y="0px"
	 width="386px" height="407px" viewBox="0 0 386 407" enable-background="new 0 0 386 407" xml:space="preserve">
<image overflow="visible" width="1527" height="1508" xlink:href="B4639DEB.png"  transform="matrix(0.24 0 0 0.24 13.8828 26.25)">
</image>
<image overflow="visible" width="1271" height="1286" xlink:href="B4639DE9.png"  transform="matrix(0.24 0 0 0.24 49.5669 51.5176)">
</image>
<image overflow="visible" width="1160" height="44" xlink:href="B4639DEF.png"  transform="matrix(0.24 0 0 0.24 58.3672 39.5156)">
</image>
<image overflow="visible" width="1270" height="41" xlink:href="B4639DE8.png"  transform="matrix(0.24 0 0 0.24 49.6045 359.7686)">
</image>
<image overflow="visible" width="1155" height="1130" xlink:href="B4639DE6.png"  transform="matrix(0.24 0 0 0.24 60.5391 71.6279)">
</image>
<image overflow="visible" width="1155" height="1130" xlink:href="B4639DE7.png"  transform="matrix(0.24 0 0 0.24 60.5391 71.6279)">
</image>
<path fill="#FFD177" d="M354.355,51.517c0.004-1.348,0.014-2.309-0.018-3.469c0-1.416-0.003-2.345-0.003-3.879
	c-0.15,0.122-4.051-3.415-4.453-3.754c-1.503,1.272-3.001,2.545-4.54,3.768c-1.483-1.257-2.96-2.519-4.438-3.768
	c-1.484,1.25-2.965,2.511-4.525,3.768c-0.743-0.631-1.488-1.266-2.229-1.893c-0.736-0.627-1.478-1.252-2.21-1.875
	c-1.481,1.25-2.961,2.511-4.524,3.768c-1.479-1.257-2.955-2.519-4.438-3.768c-1.48,1.25-2.962,2.511-4.522,3.768
	c-1.48-1.257-2.955-2.519-4.438-3.768c-1.481,1.25-2.957,2.511-4.523,3.768c-1.479-1.257-2.956-2.519-4.434-3.768
	c-1.485,1.25-2.966,2.511-4.55,3.768c-1.48-1.257-2.957-2.519-4.438-3.768c-1.477,1.25-2.956,2.511-4.524,3.768
	c-1.477-1.257-2.951-2.519-4.437-3.768c-1.477,1.25-2.958,2.511-4.523,3.768c-1.481-1.257-2.958-2.519-4.435-3.768
	c-0.432,0.362-0.861,0.725-1.29,1.093c-1.057,0.891-2.122,1.779-3.237,2.675c-1.478-1.257-2.958-2.519-4.435-3.768
	c-1.478,1.25-2.962,2.511-4.523,3.768c-1.479-1.257-2.958-2.519-4.437-3.768c-1.481,1.25-2.959,2.511-4.546,3.768
	c-1.473-1.257-2.943-2.519-4.417-3.768c-1.477,1.25-2.957,2.511-4.541,3.768c-1.484-1.257-2.966-2.519-4.443-3.768
	c-1.477,1.25-2.958,2.511-4.522,3.768c-1.479-1.257-2.96-2.519-4.437-3.768c-1.479,1.25-2.957,2.511-4.524,3.768
	c-1.479-1.257-2.958-2.519-4.438-3.768c-0.951,0.803-1.907,1.619-2.881,2.424c-0.539,0.448-1.088,0.895-1.643,1.344
	c-1.479-1.257-2.955-2.519-4.437-3.768c-1.481,1.25-2.957,2.511-4.521,3.768c-1.482-1.257-2.962-2.519-4.438-3.768
	c-1.478,1.25-2.941,2.487-4.464,3.746c-0.154,0.12-4.032-3.441-4.438-3.783c-1.5,1.274-3.001,2.548-4.543,3.772
	c-1.479-1.259-2.96-2.515-4.437-3.772c-1.48,1.257-2.962,2.513-4.522,3.772c-0.746-0.633-1.491-1.268-2.229-1.895
	c-0.739-0.625-1.478-1.252-2.211-1.877c-1.481,1.257-2.961,2.513-4.523,3.772c-1.479-1.259-2.957-2.515-4.441-3.772
	c-1.477,1.257-2.958,2.513-4.519,3.772c-1.481-1.259-2.958-2.515-4.439-3.772c-1.481,1.257-2.96,2.513-4.523,3.772
	c-1.479-1.259-2.958-2.515-4.438-3.772c-1.479,1.257-2.961,2.513-4.544,3.772c-1.48-1.259-2.959-2.515-4.438-3.772
	c-1.481,1.257-2.958,2.513-4.524,3.772c-1.479-1.259-2.955-2.515-4.438-3.772c-1.476,1.257-2.955,2.513-4.521,3.772
	c-1.481-1.259-2.96-2.515-4.438-3.772c-0.43,0.366-0.859,0.73-1.29,1.098c-1.058,0.891-2.123,1.784-3.234,2.674
	c-1.479-1.259-2.958-2.515-4.435-3.772c-1.48,1.257-2.963,2.513-4.527,3.772c-1.477-1.259-2.958-2.515-4.437-3.772
	c-1.477,1.257-2.958,2.513-4.543,3.772c-1.472-1.259-2.944-2.515-4.419-3.772c-1.477,1.257-2.953,2.513-4.539,3.772
	c-1.483-1.259-2.965-2.515-4.443-3.772c-1.477,1.257-2.96,2.513-4.523,3.772c-1.479-1.259-2.958-2.515-4.436-3.772
	c-1.477,1.257-2.96,2.513-4.525,3.772c-1.479-1.259-2.959-2.515-4.438-3.772c-0.952,0.81-1.904,1.621-2.881,2.429
	c-0.538,0.446-1.085,0.892-1.64,1.343c-1.481-1.259-2.96-2.515-4.439-3.772c-1.479,1.257-2.955,2.513-4.521,3.772
	c-1.481-1.259-2.96-2.515-4.438-3.772c-1.479,1.257-2.96,2.513-4.48,3.772c0,1.605,0,3.205,0,4.809c0,0.851,0,1.706,0,2.559
	c-0.011,0-0.023,0-0.034,0c-0.016,1.002,0.023,1.768,0.583,3.511c0.229,0.736,0.625,1.858,1.065,2.995
	c0.49,1.278,1.128,2.581,1.555,3.387c0.632,1.22,1.675,2.537,2.575,3.643c0.608,0.746,1.74,1.889,2.556,2.958
	c0.929,1.223,1.741,2.524,2.587,3.788c0.467,0,0.933,0,1.397,0c0.844,0,1.683,0,2.521,0c1.662,0,3.317,0.005,4.959,0.005
	c3.472,0.004,6.896,0.008,10.283,0.012c5.691,0.007,11.277,0.021,16.781,0.038c9.276,0.025,18.334,0.056,27.344,0.098
	c9.972,0.037,19.878,0.078,29.959,0.116c15.628,0.052,31.65,0.093,48.937,0.093c16.519,0,31.245-0.035,45.329-0.093
	c9.23-0.028,18.188-0.072,27.21-0.107c10.501-0.05,21.087-0.089,32.272-0.124c3.42-0.004,6.896-0.014,10.438-0.018
	c2.666-0.004,5.368-0.009,8.119-0.011c2.055-0.004,4.137-0.004,6.249-0.009c0.899,0,1.807,0,2.713,0c0.393,0,0.782,0,1.176,0
	c0.425,0,0.85,0,1.274,0c1.313-1.263,2.601-2.602,4.021-3.788c1.124-0.935,2.906-1.84,4.306-2.958
	c1.322-1.049,2.622-2.423,3.597-3.643c0.662-0.806,1.513-2.109,2.271-3.387c0.677-1.137,1.1-2.258,1.461-2.995
	c0.777-1.566,1.084-2.348,1.191-3.221c0.015,0,0.025,0,0.038,0c0-0.096,0-0.172,0-0.264c0.004-0.009,0.005-0.017,0.005-0.026
	C354.36,51.517,354.359,51.517,354.355,51.517z"/>
<path fill="#FFD177" d="M354.375,360.066c0-1.525-0.678-3.048-1.828-4.565c-0.517-0.684-1.775-2.004-2.466-2.691
	c-0.645-0.637-2.875-2.451-3.635-3.09c-2.164-1.811-2.576-1.811-5.22-3.622c-2.646-1.816-2.935-1.816-5.359-3.634
	c-0.425,0-0.854,0.005-1.288,0.005c-0.398,0-0.803,0.004-1.203,0.004c-0.938,0.009-1.884,0.019-2.838,0.031
	c-2.232,0.021-4.499,0.056-6.757,0.1c-3.019,0.057-6.033,0.117-8.946,0.174c-3.878,0.069-7.579,0.128-10.897,0.128
	c-10.867,0-20.976,0-30.976,0c-8.597,0-17.115,0-25.969,0c-13.51,0-27.806,0-44.32,0c-17.29,0-33.07,0-48.359,0
	c-9.872,0-19.538,0-29.273,0c-8.802,0-17.658,0-26.773,0c-5.412,0-10.907,0-16.55,0c-3.35,0-7.202-0.128-11.064-0.245
	c-1.83-0.057-3.661-0.113-5.444-0.145c-0.896-0.021-1.779-0.034-2.649-0.043c-0.482-0.004-0.954-0.009-1.418-0.009
	c-1.516,1.817-1.696,1.817-3.351,3.634c-1.653,1.812-1.911,1.812-3.268,3.622c-0.465,0.639-2.273,3.09-2.667,3.727
	c-0.437,0.688-0.821,1.371-1.139,2.055c-0.717,1.518-1.148,3.04-1.148,4.565c0.011,0,0.024,0,0.035,0c0,0.714,0,1.441,0,2.161
	c0,1.376,0,2.752,0,4.129c1.522,1.089,2.999,2.168,4.48,3.25c1.479-1.082,2.956-2.161,4.441-3.25
	c1.561,1.089,3.038,2.168,4.519,3.25c1.481-1.082,2.958-2.161,4.438-3.25c0.553,0.393,1.103,0.775,1.641,1.158
	c0.978,0.696,1.928,1.395,2.879,2.092c1.481-1.082,2.96-2.161,4.441-3.25c1.565,1.089,3.046,2.168,4.523,3.25
	c1.479-1.082,2.958-2.161,4.434-3.25c1.565,1.089,3.047,2.168,4.523,3.25c1.481-1.082,2.959-2.161,4.446-3.25
	c1.585,1.089,3.062,2.168,4.538,3.25c1.475-1.082,2.947-2.161,4.419-3.25c1.585,1.089,3.067,2.168,4.545,3.25
	c1.478-1.082,2.958-2.161,4.435-3.25c1.563,1.089,3.047,2.168,4.529,3.25c1.473-1.082,2.954-2.161,4.433-3.25
	c1.111,0.775,2.178,1.543,3.233,2.304c0.432,0.317,0.861,0.632,1.292,0.946c1.477-1.082,2.958-2.161,4.436-3.25
	c1.569,1.089,3.045,2.168,4.522,3.25c1.483-1.082,2.96-2.161,4.438-3.25c1.566,1.089,3.044,2.168,4.524,3.25
	c1.479-1.082,2.958-2.161,4.438-3.25c1.585,1.089,3.064,2.168,4.545,3.25c1.478-1.082,2.958-2.161,4.438-3.25
	c1.562,1.089,3.042,2.168,4.52,3.25c1.483-1.082,2.959-2.161,4.439-3.25c1.565,1.089,3.045,2.168,4.522,3.25
	c1.482-1.082,2.962-2.161,4.441-3.25c1.56,1.089,3.041,2.168,4.521,3.25c0.735-0.54,1.474-1.076,2.212-1.611
	c0.739-0.542,1.483-1.089,2.227-1.639c1.565,1.089,3.044,2.168,4.524,3.25c1.48-1.082,2.958-2.161,4.438-3.25
	c1.543,1.055,3.042,2.152,4.542,3.25c0.406-0.297,4.285-3.355,4.437-3.26c1.523,1.09,2.985,2.153,4.467,3.228
	c1.476-1.074,2.954-2.156,4.438-3.245c1.563,1.089,3.039,2.171,4.52,3.245c1.481-1.074,2.957-2.156,4.436-3.245
	c0.56,0.389,1.106,0.775,1.645,1.16c0.974,0.692,1.928,1.394,2.881,2.085c1.48-1.074,2.958-2.156,4.438-3.245
	c1.567,1.089,3.047,2.171,4.528,3.245c1.472-1.074,2.954-2.156,4.431-3.245c1.564,1.089,3.047,2.171,4.526,3.245
	c1.477-1.074,2.957-2.156,4.439-3.245c1.583,1.089,3.065,2.171,4.541,3.245c1.474-1.074,2.946-2.156,4.422-3.245
	c1.582,1.089,3.064,2.171,4.544,3.245c1.477-1.074,2.956-2.156,4.434-3.245c1.564,1.089,3.045,2.171,4.527,3.245
	c1.477-1.074,2.954-2.156,4.435-3.245c1.111,0.771,2.176,1.539,3.232,2.301c0.43,0.322,0.858,0.636,1.295,0.944
	c1.477-1.074,2.951-2.156,4.432-3.245c1.567,1.089,3.046,2.171,4.524,3.245c1.481-1.074,2.961-2.156,4.439-3.245
	c1.566,1.089,3.043,2.171,4.52,3.245c1.483-1.074,2.959-2.156,4.438-3.245c1.586,1.089,3.064,2.171,4.55,3.245
	c1.479-1.074,2.955-2.156,4.435-3.245c1.565,1.089,3.044,2.171,4.522,3.245c1.484-1.074,2.96-2.156,4.439-3.245
	c1.563,1.089,3.041,2.171,4.521,3.245c1.481-1.074,2.958-2.156,4.438-3.245c1.565,1.089,3.043,2.171,4.524,3.245
	c0.734-0.535,1.475-1.071,2.208-1.615c0.743-0.541,1.487-1.08,2.229-1.63c1.561,1.089,3.042,2.171,4.526,3.245
	c1.477-1.074,2.953-2.156,4.437-3.245c1.542,1.055,3.04,2.153,4.541,3.245c0.401-0.292,4.302-3.33,4.453-3.235
	c0-1.315,0.003-2.118,0.003-3.327c0.034-0.991,0.021-1.813,0.018-2.945C354.35,360.066,354.36,360.066,354.375,360.066z"/>
<path opacity="0.7" fill="#FECB84" d="M354.355,51.517c0.004-1.348,0.014-2.309-0.018-3.469c0-1.416-0.003-2.345-0.003-3.879
	c-0.15,0.122-4.051-3.415-4.453-3.754c-1.503,1.272-3.001,2.545-4.54,3.768c-1.483-1.257-2.96-2.519-4.438-3.768
	c-1.484,1.25-2.965,2.511-4.525,3.768c-0.743-0.631-1.488-1.266-2.229-1.893c-0.736-0.627-1.478-1.252-2.21-1.875
	c-1.481,1.25-2.961,2.511-4.524,3.768c-1.479-1.257-2.955-2.519-4.438-3.768c-1.48,1.25-2.962,2.511-4.522,3.768
	c-1.48-1.257-2.955-2.519-4.438-3.768c-1.481,1.25-2.957,2.511-4.523,3.768c-1.479-1.257-2.956-2.519-4.434-3.768
	c-1.485,1.25-2.966,2.511-4.55,3.768c-1.48-1.257-2.957-2.519-4.438-3.768c-1.477,1.25-2.956,2.511-4.524,3.768
	c-1.477-1.257-2.951-2.519-4.437-3.768c-1.477,1.25-2.958,2.511-4.523,3.768c-1.481-1.257-2.958-2.519-4.435-3.768
	c-0.432,0.362-0.861,0.725-1.29,1.093c-1.057,0.891-2.122,1.779-3.237,2.675c-1.478-1.257-2.958-2.519-4.435-3.768
	c-1.478,1.25-2.962,2.511-4.523,3.768c-1.479-1.257-2.958-2.519-4.437-3.768c-1.481,1.25-2.959,2.511-4.546,3.768
	c-1.473-1.257-2.943-2.519-4.417-3.768c-1.477,1.25-2.957,2.511-4.541,3.768c-1.484-1.257-2.966-2.519-4.443-3.768
	c-1.477,1.25-2.958,2.511-4.522,3.768c-1.479-1.257-2.96-2.519-4.437-3.768c-1.479,1.25-2.957,2.511-4.524,3.768
	c-1.479-1.257-2.958-2.519-4.438-3.768c-0.951,0.803-1.907,1.619-2.881,2.424c-0.539,0.448-1.088,0.895-1.643,1.344
	c-1.479-1.257-2.955-2.519-4.437-3.768c-1.481,1.25-2.957,2.511-4.521,3.768c-1.482-1.257-2.962-2.519-4.438-3.768
	c-1.478,1.25-2.941,2.487-4.464,3.746c-0.154,0.12-4.032-3.441-4.438-3.783c-1.5,1.274-3.001,2.548-4.543,3.772
	c-1.479-1.259-2.96-2.515-4.437-3.772c-1.48,1.257-2.962,2.513-4.522,3.772c-0.746-0.633-1.491-1.268-2.229-1.895
	c-0.739-0.625-1.478-1.252-2.211-1.877c-1.481,1.257-2.961,2.513-4.523,3.772c-1.479-1.259-2.957-2.515-4.441-3.772
	c-1.477,1.257-2.958,2.513-4.519,3.772c-1.481-1.259-2.958-2.515-4.439-3.772c-1.481,1.257-2.96,2.513-4.523,3.772
	c-1.479-1.259-2.958-2.515-4.438-3.772c-1.479,1.257-2.961,2.513-4.544,3.772c-1.48-1.259-2.959-2.515-4.438-3.772
	c-1.481,1.257-2.958,2.513-4.524,3.772c-1.479-1.259-2.955-2.515-4.438-3.772c-1.476,1.257-2.955,2.513-4.521,3.772
	c-1.481-1.259-2.96-2.515-4.438-3.772c-0.43,0.366-0.859,0.73-1.29,1.098c-1.058,0.891-2.123,1.784-3.234,2.674
	c-1.479-1.259-2.958-2.515-4.435-3.772c-1.48,1.257-2.963,2.513-4.527,3.772c-1.477-1.259-2.958-2.515-4.437-3.772
	c-1.477,1.257-2.958,2.513-4.543,3.772c-1.472-1.259-2.944-2.515-4.419-3.772c-1.477,1.257-2.953,2.513-4.539,3.772
	c-1.483-1.259-2.965-2.515-4.443-3.772c-1.477,1.257-2.96,2.513-4.523,3.772c-1.479-1.259-2.958-2.515-4.436-3.772
	c-1.477,1.257-2.96,2.513-4.525,3.772c-1.479-1.259-2.959-2.515-4.438-3.772c-0.952,0.81-1.904,1.621-2.881,2.429
	c-0.538,0.446-1.085,0.892-1.64,1.343c-1.481-1.259-2.96-2.515-4.439-3.772c-1.479,1.257-2.955,2.513-4.521,3.772
	c-1.481-1.259-2.96-2.515-4.438-3.772c-1.479,1.257-2.96,2.513-4.48,3.772c0,1.605,0,3.205,0,4.809c0,0.851,0,1.706,0,2.559
	c-0.011,0-0.023,0-0.034,0c-0.016,1.002,0.023,1.768,0.583,3.511c0.229,0.736,0.625,1.858,1.065,2.995
	c0.49,1.278,1.128,2.581,1.555,3.387c0.632,1.22,1.675,2.537,2.575,3.643c0.608,0.746,1.74,1.889,2.556,2.958
	c0.929,1.223,1.741,2.524,2.587,3.788c0.467,0,0.933,0,1.397,0c0.844,0,1.683,0,2.521,0c1.662,0,3.317,0.005,4.959,0.005
	c3.472,0.004,6.896,0.008,10.283,0.012c5.691,0.007,11.277,0.021,16.781,0.038c9.276,0.025,18.334,0.056,27.344,0.098
	c9.972,0.037,19.878,0.078,29.959,0.116c15.628,0.052,31.65,0.093,48.937,0.093c16.519,0,31.245-0.035,45.329-0.093
	c9.23-0.028,18.188-0.072,27.21-0.107c10.501-0.05,21.087-0.089,32.272-0.124c3.42-0.004,6.896-0.014,10.438-0.018
	c2.666-0.004,5.368-0.009,8.119-0.011c2.055-0.004,4.137-0.004,6.249-0.009c0.899,0,1.807,0,2.713,0c0.393,0,0.782,0,1.176,0
	c0.425,0,0.85,0,1.274,0c1.313-1.263,2.601-2.602,4.021-3.788c1.124-0.935,2.906-1.84,4.306-2.958
	c1.322-1.049,2.622-2.423,3.597-3.643c0.662-0.806,1.513-2.109,2.271-3.387c0.677-1.137,1.1-2.258,1.461-2.995
	c0.777-1.566,1.084-2.348,1.191-3.221c0.015,0,0.025,0,0.038,0c0-0.096,0-0.172,0-0.264c0.004-0.009,0.005-0.017,0.005-0.026
	C354.36,51.517,354.359,51.517,354.355,51.517z"/>
<path opacity="0.7" fill="#FECB84" d="M354.375,360.066c0-1.525-0.678-3.048-1.828-4.565c-0.517-0.684-1.775-2.004-2.466-2.691
	c-0.645-0.637-2.875-2.451-3.635-3.09c-2.164-1.811-2.576-1.811-5.22-3.622c-2.646-1.816-2.935-1.816-5.359-3.634
	c-0.425,0-0.854,0.005-1.288,0.005c-0.398,0-0.803,0.004-1.203,0.004c-0.938,0.009-1.884,0.019-2.838,0.031
	c-2.232,0.021-4.499,0.056-6.757,0.1c-3.019,0.057-6.033,0.117-8.946,0.174c-3.878,0.069-7.579,0.128-10.897,0.128
	c-10.867,0-20.976,0-30.976,0c-8.597,0-17.115,0-25.969,0c-13.51,0-27.806,0-44.32,0c-17.29,0-33.07,0-48.359,0
	c-9.872,0-19.538,0-29.273,0c-8.802,0-17.658,0-26.773,0c-5.412,0-10.907,0-16.55,0c-3.35,0-7.202-0.128-11.064-0.245
	c-1.83-0.057-3.661-0.113-5.444-0.145c-0.896-0.021-1.779-0.034-2.649-0.043c-0.482-0.004-0.954-0.009-1.418-0.009
	c-1.516,1.817-1.696,1.817-3.351,3.634c-1.653,1.812-1.911,1.812-3.268,3.622c-0.465,0.639-2.273,3.09-2.667,3.727
	c-0.437,0.688-0.821,1.371-1.139,2.055c-0.717,1.518-1.148,3.04-1.148,4.565c0.011,0,0.024,0,0.035,0c0,0.714,0,1.441,0,2.161
	c0,1.376,0,2.752,0,4.129c1.522,1.089,2.999,2.168,4.48,3.25c1.479-1.082,2.956-2.161,4.441-3.25
	c1.561,1.089,3.038,2.168,4.519,3.25c1.481-1.082,2.958-2.161,4.438-3.25c0.553,0.393,1.103,0.775,1.641,1.158
	c0.978,0.696,1.928,1.395,2.879,2.092c1.481-1.082,2.96-2.161,4.441-3.25c1.565,1.089,3.046,2.168,4.523,3.25
	c1.479-1.082,2.958-2.161,4.434-3.25c1.565,1.089,3.047,2.168,4.523,3.25c1.481-1.082,2.959-2.161,4.446-3.25
	c1.585,1.089,3.062,2.168,4.538,3.25c1.475-1.082,2.947-2.161,4.419-3.25c1.585,1.089,3.067,2.168,4.545,3.25
	c1.478-1.082,2.958-2.161,4.435-3.25c1.563,1.089,3.047,2.168,4.529,3.25c1.473-1.082,2.954-2.161,4.433-3.25
	c1.111,0.775,2.178,1.543,3.233,2.304c0.432,0.317,0.861,0.632,1.292,0.946c1.477-1.082,2.958-2.161,4.436-3.25
	c1.569,1.089,3.045,2.168,4.522,3.25c1.483-1.082,2.96-2.161,4.438-3.25c1.566,1.089,3.044,2.168,4.524,3.25
	c1.479-1.082,2.958-2.161,4.438-3.25c1.585,1.089,3.064,2.168,4.545,3.25c1.478-1.082,2.958-2.161,4.438-3.25
	c1.562,1.089,3.042,2.168,4.52,3.25c1.483-1.082,2.959-2.161,4.439-3.25c1.565,1.089,3.045,2.168,4.522,3.25
	c1.482-1.082,2.962-2.161,4.441-3.25c1.56,1.089,3.041,2.168,4.521,3.25c0.735-0.54,1.474-1.076,2.212-1.611
	c0.739-0.542,1.483-1.089,2.227-1.639c1.565,1.089,3.044,2.168,4.524,3.25c1.48-1.082,2.958-2.161,4.438-3.25
	c1.543,1.055,3.042,2.152,4.542,3.25c0.406-0.297,4.285-3.355,4.437-3.26c1.523,1.09,2.985,2.153,4.467,3.228
	c1.476-1.074,2.954-2.156,4.438-3.245c1.563,1.089,3.039,2.171,4.52,3.245c1.481-1.074,2.957-2.156,4.436-3.245
	c0.56,0.389,1.106,0.775,1.645,1.16c0.974,0.692,1.928,1.394,2.881,2.085c1.48-1.074,2.958-2.156,4.438-3.245
	c1.567,1.089,3.047,2.171,4.528,3.245c1.472-1.074,2.954-2.156,4.431-3.245c1.564,1.089,3.047,2.171,4.526,3.245
	c1.477-1.074,2.957-2.156,4.439-3.245c1.583,1.089,3.065,2.171,4.541,3.245c1.474-1.074,2.946-2.156,4.422-3.245
	c1.582,1.089,3.064,2.171,4.544,3.245c1.477-1.074,2.956-2.156,4.434-3.245c1.564,1.089,3.045,2.171,4.527,3.245
	c1.477-1.074,2.954-2.156,4.435-3.245c1.111,0.771,2.176,1.539,3.232,2.301c0.43,0.322,0.858,0.636,1.295,0.944
	c1.477-1.074,2.951-2.156,4.432-3.245c1.567,1.089,3.046,2.171,4.524,3.245c1.481-1.074,2.961-2.156,4.439-3.245
	c1.566,1.089,3.043,2.171,4.52,3.245c1.483-1.074,2.959-2.156,4.438-3.245c1.586,1.089,3.064,2.171,4.55,3.245
	c1.479-1.074,2.955-2.156,4.435-3.245c1.565,1.089,3.044,2.171,4.522,3.245c1.484-1.074,2.96-2.156,4.439-3.245
	c1.563,1.089,3.041,2.171,4.521,3.245c1.481-1.074,2.958-2.156,4.438-3.245c1.565,1.089,3.043,2.171,4.524,3.245
	c0.734-0.535,1.475-1.071,2.208-1.615c0.743-0.541,1.487-1.08,2.229-1.63c1.561,1.089,3.042,2.171,4.526,3.245
	c1.477-1.074,2.953-2.156,4.437-3.245c1.542,1.055,3.04,2.153,4.541,3.245c0.401-0.292,4.302-3.33,4.453-3.235
	c0-1.315,0.003-2.118,0.003-3.327c0.034-0.991,0.021-1.813,0.018-2.945C354.35,360.066,354.36,360.066,354.375,360.066z"/>
<path fill="#181346" d="M354.355,51.517c0.004-1.348,0.014-2.309-0.018-3.469c0-1.416-0.003-2.345-0.003-3.879
	c-0.15,0.122-4.051-3.415-4.453-3.754c-1.503,1.272-3.001,2.545-4.54,3.768c-1.483-1.257-2.96-2.519-4.438-3.768
	c-1.484,1.25-2.965,2.511-4.525,3.768c-0.743-0.631-1.488-1.266-2.229-1.893c-0.736-0.627-1.478-1.252-2.21-1.875
	c-1.481,1.25-2.961,2.511-4.524,3.768c-1.479-1.257-2.955-2.519-4.438-3.768c-1.48,1.25-2.962,2.511-4.522,3.768
	c-1.48-1.257-2.955-2.519-4.438-3.768c-1.481,1.25-2.957,2.511-4.523,3.768c-1.479-1.257-2.956-2.519-4.434-3.768
	c-1.485,1.25-2.966,2.511-4.55,3.768c-1.48-1.257-2.957-2.519-4.438-3.768c-1.477,1.25-2.956,2.511-4.524,3.768
	c-1.477-1.257-2.951-2.519-4.437-3.768c-1.477,1.25-2.958,2.511-4.523,3.768c-1.481-1.257-2.958-2.519-4.435-3.768
	c-0.432,0.362-0.861,0.725-1.29,1.093c-1.057,0.891-2.122,1.779-3.237,2.675c-1.478-1.257-2.958-2.519-4.435-3.768
	c-1.478,1.25-2.962,2.511-4.523,3.768c-1.479-1.257-2.958-2.519-4.437-3.768c-1.481,1.25-2.959,2.511-4.546,3.768
	c-1.473-1.257-2.943-2.519-4.417-3.768c-1.477,1.25-2.957,2.511-4.541,3.768c-1.484-1.257-2.966-2.519-4.443-3.768
	c-1.477,1.25-2.958,2.511-4.522,3.768c-1.479-1.257-2.96-2.519-4.437-3.768c-1.479,1.25-2.957,2.511-4.524,3.768
	c-1.479-1.257-2.958-2.519-4.438-3.768c-0.951,0.803-1.907,1.619-2.881,2.424c-0.539,0.448-1.088,0.895-1.643,1.344
	c-1.479-1.257-2.955-2.519-4.437-3.768c-1.481,1.25-2.957,2.511-4.521,3.768c-1.482-1.257-2.962-2.519-4.438-3.768
	c-1.478,1.25-2.941,2.487-4.464,3.746c-0.154,0.12-4.032-3.441-4.438-3.783c-1.5,1.274-3.001,2.548-4.543,3.772
	c-1.479-1.259-2.96-2.515-4.437-3.772c-1.48,1.257-2.962,2.513-4.522,3.772c-0.746-0.633-1.491-1.268-2.229-1.895
	c-0.739-0.625-1.478-1.252-2.211-1.877c-1.481,1.257-2.961,2.513-4.523,3.772c-1.479-1.259-2.957-2.515-4.441-3.772
	c-1.477,1.257-2.958,2.513-4.519,3.772c-1.481-1.259-2.958-2.515-4.439-3.772c-1.481,1.257-2.96,2.513-4.523,3.772
	c-1.479-1.259-2.958-2.515-4.438-3.772c-1.479,1.257-2.961,2.513-4.544,3.772c-1.48-1.259-2.959-2.515-4.438-3.772
	c-1.481,1.257-2.958,2.513-4.524,3.772c-1.479-1.259-2.955-2.515-4.438-3.772c-1.476,1.257-2.955,2.513-4.521,3.772
	c-1.481-1.259-2.96-2.515-4.438-3.772c-0.43,0.366-0.859,0.73-1.29,1.098c-1.058,0.891-2.123,1.784-3.234,2.674
	c-1.479-1.259-2.958-2.515-4.435-3.772c-1.48,1.257-2.963,2.513-4.527,3.772c-1.477-1.259-2.958-2.515-4.437-3.772
	c-1.477,1.257-2.958,2.513-4.543,3.772c-1.472-1.259-2.944-2.515-4.419-3.772c-1.477,1.257-2.953,2.513-4.539,3.772
	c-1.483-1.259-2.965-2.515-4.443-3.772c-1.477,1.257-2.96,2.513-4.523,3.772c-1.479-1.259-2.958-2.515-4.436-3.772
	c-1.477,1.257-2.96,2.513-4.525,3.772c-1.479-1.259-2.959-2.515-4.438-3.772c-0.952,0.81-1.904,1.621-2.881,2.429
	c-0.538,0.446-1.085,0.892-1.64,1.343c-1.481-1.259-2.96-2.515-4.439-3.772c-1.479,1.257-2.955,2.513-4.521,3.772
	c-1.481-1.259-2.96-2.515-4.438-3.772c-1.479,1.257-2.96,2.513-4.48,3.772c0,1.605,0,3.205,0,4.809c0,0.851,0,1.706,0,2.559
	c-0.011,0-0.023,0-0.034,0c-0.016,1.002,0.023,1.768,0.583,3.511c0.229,0.736,0.625,1.858,1.065,2.995
	c0.49,1.278,1.128,2.581,1.555,3.387c0.632,1.22,1.675,2.537,2.575,3.643c0.608,0.746,1.74,1.889,2.556,2.958
	c0.929,1.223,1.741,2.524,2.587,3.788c0.467,0,0.933,0,1.397,0c0.844,0,1.683,0,2.521,0c1.662,0,3.317,0.005,4.959,0.005
	c3.472,0.004,6.896,0.008,10.283,0.012c5.691,0.007,11.277,0.021,16.781,0.038c9.276,0.025,18.334,0.056,27.344,0.098
	c9.972,0.037,19.878,0.078,29.959,0.116c15.628,0.052,31.65,0.093,48.937,0.093c16.519,0,31.245-0.035,45.329-0.093
	c9.23-0.028,18.188-0.072,27.21-0.107c10.501-0.05,21.087-0.089,32.272-0.124c3.42-0.004,6.896-0.014,10.438-0.018
	c2.666-0.004,5.368-0.009,8.119-0.011c2.055-0.004,4.137-0.004,6.249-0.009c0.899,0,1.807,0,2.713,0c0.393,0,0.782,0,1.176,0
	c0.425,0,0.85,0,1.274,0c1.313-1.263,2.601-2.602,4.021-3.788c1.124-0.935,2.906-1.84,4.306-2.958
	c1.322-1.049,2.622-2.423,3.597-3.643c0.662-0.806,1.513-2.109,2.271-3.387c0.677-1.137,1.1-2.258,1.461-2.995
	c0.777-1.566,1.084-2.348,1.191-3.221c0.015,0,0.025,0,0.038,0c0-0.096,0-0.172,0-0.264c0.004-0.009,0.005-0.017,0.005-0.026
	C354.36,51.517,354.359,51.517,354.355,51.517z"/>
<path fill="#181346" d="M354.375,360.066c0-1.525-0.677-3.048-1.828-4.565c-0.517-0.684-1.774-2.004-2.466-2.691
	c-0.645-0.637-2.875-2.451-3.635-3.09c-2.16-1.811-2.576-1.811-5.22-3.622c-2.646-1.816-2.935-1.816-5.359-3.634
	c-0.425,0-0.854,0.005-1.288,0.005c-0.397,0-0.8,0.004-1.203,0.004c-0.937,0.009-1.883,0.019-2.836,0.031
	c-2.231,0.021-4.501,0.056-6.755,0.1c-3.021,0.057-6.036,0.117-8.95,0.174c-3.878,0.069-7.579,0.128-10.897,0.128
	c-10.867,0-20.974,0-30.976,0c-8.596,0-17.114,0-25.969,0c-13.51,0-27.806,0-44.32,0c-17.287,0-33.07,0-48.356,0
	c-9.874,0-19.538,0-29.273,0c-8.804,0-17.659,0-26.773,0c-5.415,0-10.91,0-16.553,0c-3.348,0-7.2-0.128-11.062-0.245
	c-1.829-0.057-3.663-0.113-5.447-0.145c-0.893-0.021-1.779-0.034-2.646-0.043c-0.481-0.004-0.954-0.009-1.421-0.009
	c-1.516,1.817-1.693,1.817-3.351,3.634c-1.651,1.812-1.909,1.812-3.265,3.622c-0.468,0.639-2.274,3.09-2.67,3.727
	c-0.434,0.688-0.819,1.371-1.139,2.055c-0.717,1.518-1.146,3.04-1.146,4.565c0.009,0,0.022,0,0.033,0c0,0.714,0,1.441,0,2.161
	c0,1.376,0,2.752,0,4.129c1.522,1.089,3.001,2.168,4.482,3.25c1.477-1.082,2.955-2.161,4.438-3.25
	c1.563,1.089,3.04,2.168,4.521,3.25c1.479-1.082,2.955-2.161,4.436-3.25c0.556,0.393,1.103,0.775,1.642,1.158
	c0.977,0.696,1.927,1.395,2.88,2.092c1.481-1.082,2.959-2.161,4.439-3.25c1.565,1.089,3.046,2.168,4.524,3.25
	c1.478-1.082,2.957-2.161,4.436-3.25c1.563,1.089,3.047,2.168,4.523,3.25c1.479-1.082,2.96-2.161,4.443-3.25
	c1.585,1.089,3.064,2.168,4.541,3.25c1.472-1.082,2.944-2.161,4.418-3.25c1.586,1.089,3.067,2.168,4.543,3.25
	c1.478-1.082,2.958-2.161,4.436-3.25c1.565,1.089,3.048,2.168,4.528,3.25c1.475-1.082,2.954-2.161,4.435-3.25
	c1.11,0.775,2.175,1.543,3.231,2.304c0.432,0.317,0.861,0.632,1.292,0.946c1.477-1.082,2.958-2.161,4.436-3.25
	c1.569,1.089,3.045,2.168,4.522,3.25c1.483-1.082,2.96-2.161,4.441-3.25c1.565,1.089,3.042,2.168,4.522,3.25
	c1.479-1.082,2.958-2.161,4.438-3.25c1.585,1.089,3.064,2.168,4.547,3.25c1.476-1.082,2.956-2.161,4.436-3.25
	c1.562,1.089,3.043,2.168,4.521,3.25c1.484-1.082,2.96-2.161,4.438-3.25c1.563,1.089,3.044,2.168,4.521,3.25
	c1.481-1.082,2.961-2.161,4.44-3.25c1.563,1.089,3.044,2.168,4.522,3.25c0.736-0.54,1.475-1.076,2.21-1.611
	c0.74-0.542,1.483-1.089,2.229-1.639c1.563,1.089,3.042,2.168,4.526,3.25c1.477-1.082,2.954-2.161,4.434-3.25
	c1.543,1.055,3.042,2.152,4.542,3.25c0.406-0.297,4.287-3.355,4.438-3.26c1.522,1.09,2.986,2.153,4.466,3.228
	c1.478-1.074,2.954-2.156,4.438-3.245c1.563,1.089,3.043,2.171,4.521,3.245c1.48-1.074,2.956-2.156,4.437-3.245
	c0.558,0.389,1.105,0.775,1.645,1.16c0.973,0.692,1.927,1.394,2.879,2.085c1.481-1.074,2.958-2.156,4.438-3.245
	c1.567,1.089,3.047,2.171,4.528,3.245c1.473-1.074,2.957-2.156,4.434-3.245c1.566,1.089,3.047,2.171,4.523,3.245
	c1.477-1.074,2.957-2.156,4.439-3.245c1.588,1.089,3.065,2.171,4.545,3.245c1.472-1.074,2.942-2.156,4.418-3.245
	c1.582,1.089,3.064,2.171,4.544,3.245c1.478-1.074,2.957-2.156,4.434-3.245c1.564,1.089,3.046,2.171,4.528,3.245
	c1.476-1.074,2.953-2.156,4.434-3.245c1.111,0.771,2.178,1.539,3.235,2.301c0.429,0.322,0.856,0.636,1.292,0.944
	c1.479-1.074,2.955-2.156,4.434-3.245c1.567,1.089,3.046,2.171,4.525,3.245c1.481-1.074,2.96-2.156,4.437-3.245
	c1.566,1.089,3.045,2.171,4.521,3.245c1.483-1.074,2.96-2.156,4.439-3.245c1.585,1.089,3.063,2.171,4.547,3.245
	c1.479-1.074,2.955-2.156,4.437-3.245c1.565,1.089,3.042,2.171,4.521,3.245c1.484-1.074,2.96-2.156,4.439-3.245
	c1.564,1.089,3.042,2.171,4.521,3.245c1.482-1.074,2.959-2.156,4.44-3.245c1.563,1.089,3.041,2.171,4.522,3.245
	c0.734-0.535,1.475-1.071,2.21-1.615c0.742-0.541,1.486-1.08,2.228-1.63c1.565,1.089,3.043,2.171,4.526,3.245
	c1.478-1.074,2.954-2.156,4.439-3.245c1.539,1.055,3.037,2.153,4.541,3.245c0.403-0.292,4.3-3.33,4.45-3.235
	c0-1.315,0.005-2.118,0.005-3.327c0.032-0.991,0.019-1.813,0.018-2.945C354.35,360.066,354.363,360.066,354.375,360.066z"/>
<image overflow="visible" width="920" height="425" xlink:href="B4639DF7.png"  transform="matrix(0.24 0 0 0.24 82.8398 233.084)">
</image>
<g id="XMLID_2629_">
	<rect id="XMLID_2855_" x="93.895" y="243.939" fill="#FFFFFF" width="71.008" height="71.008"/>
	<path id="XMLID_2630_" fill="#010101" d="M96.982,311.86h3.087v-3.087h-3.087V311.86 M100.069,311.86h3.087v-3.087h-3.087V311.86
		 M103.157,311.86h3.087v-3.087h-3.087V311.86 M106.244,311.86h3.088v-3.087h-3.088V311.86 M109.332,311.86h3.087v-3.087h-3.087
		V311.86 M112.419,311.86h3.087v-3.087h-3.087V311.86 M115.506,311.86h3.087v-3.087h-3.087V311.86 M121.681,311.86h3.087v-3.087
		h-3.087V311.86 M124.768,311.86h3.087v-3.087h-3.087V311.86 M127.855,311.86h3.087v-3.087h-3.087V311.86 M134.03,311.86h3.087
		v-3.087h-3.087V311.86 M143.292,311.86h3.087v-3.087h-3.087V311.86 M152.554,311.86h3.087v-3.087h-3.087V311.86 M96.982,308.773
		h3.087v-3.088h-3.087V308.773 M115.506,308.773h3.087v-3.088h-3.087V308.773 M121.681,308.773h3.087v-3.088h-3.087V308.773
		 M124.768,308.773h3.087v-3.088h-3.087V308.773 M130.942,308.773h3.088v-3.088h-3.088V308.773 M134.03,308.773h3.087v-3.088h-3.087
		V308.773 M137.117,308.773h3.087v-3.088h-3.087V308.773 M140.205,308.773h3.087v-3.088h-3.087V308.773 M143.292,308.773h3.087
		v-3.088h-3.087V308.773 M149.466,308.773h3.088v-3.088h-3.088V308.773 M158.728,308.773h3.087v-3.088h-3.087V308.773
		 M96.982,305.686h3.087v-3.087h-3.087V305.686 M103.157,305.686h3.087v-3.087h-3.087V305.686 M106.244,305.686h3.088v-3.087h-3.088
		V305.686 M109.332,305.686h3.087v-3.087h-3.087V305.686 M115.506,305.686h3.087v-3.087h-3.087V305.686 M121.681,305.686h3.087
		v-3.087h-3.087V305.686 M124.768,305.686h3.087v-3.087h-3.087V305.686 M134.03,305.686h3.087v-3.087h-3.087V305.686
		 M140.205,305.686h3.087v-3.087h-3.087V305.686 M143.292,305.686h3.087v-3.087h-3.087V305.686 M149.466,305.686h3.088v-3.087
		h-3.088V305.686 M96.982,302.599h3.087v-3.088h-3.087V302.599 M103.157,302.599h3.087v-3.088h-3.087V302.599 M106.244,302.599
		h3.088v-3.088h-3.088V302.599 M109.332,302.599h3.087v-3.088h-3.087V302.599 M115.506,302.599h3.087v-3.088h-3.087V302.599
		 M121.681,302.599h3.087v-3.088h-3.087V302.599 M124.768,302.599h3.087v-3.088h-3.087V302.599 M127.855,302.599h3.087v-3.088
		h-3.087V302.599 M130.942,302.599h3.088v-3.088h-3.088V302.599 M134.03,302.599h3.087v-3.088h-3.087V302.599 M137.117,302.599
		h3.087v-3.088h-3.087V302.599 M140.205,302.599h3.087v-3.088h-3.087V302.599 M143.292,302.599h3.087v-3.088h-3.087V302.599
		 M152.554,302.599h3.087v-3.088h-3.087V302.599 M96.982,299.511h3.087v-3.087h-3.087V299.511 M103.157,299.511h3.087v-3.087h-3.087
		V299.511 M106.244,299.511h3.088v-3.087h-3.088V299.511 M109.332,299.511h3.087v-3.087h-3.087V299.511 M115.506,299.511h3.087
		v-3.087h-3.087V299.511 M121.681,299.511h3.087v-3.087h-3.087V299.511 M127.855,299.511h3.087v-3.087h-3.087V299.511
		 M130.942,299.511h3.088v-3.087h-3.088V299.511 M137.117,299.511h3.087v-3.087h-3.087V299.511 M146.379,299.511h3.086v-3.087
		h-3.086V299.511 M149.466,299.511h3.088v-3.087h-3.088V299.511 M152.554,299.511h3.087v-3.087h-3.087V299.511 M96.982,296.424
		h3.087v-3.087h-3.087V296.424 M115.506,296.424h3.087v-3.087h-3.087V296.424 M124.768,296.424h3.087v-3.087h-3.087V296.424
		 M143.292,296.424h3.087v-3.087h-3.087V296.424 M146.379,296.424h3.086v-3.087h-3.086V296.424 M152.554,296.424h3.087v-3.087
		h-3.087V296.424 M155.641,296.424h3.087v-3.087h-3.087V296.424 M158.728,296.424h3.087v-3.087h-3.087V296.424 M96.982,293.337
		h3.087v-3.088h-3.087V293.337 M100.069,293.337h3.087v-3.088h-3.087V293.337 M103.157,293.337h3.087v-3.088h-3.087V293.337
		 M106.244,293.337h3.088v-3.088h-3.088V293.337 M109.332,293.337h3.087v-3.088h-3.087V293.337 M112.419,293.337h3.087v-3.088
		h-3.087V293.337 M115.506,293.337h3.087v-3.088h-3.087V293.337 M121.681,293.337h3.087v-3.088h-3.087V293.337 M130.942,293.337
		h3.088v-3.088h-3.088V293.337 M137.117,293.337h3.087v-3.088h-3.087V293.337 M146.379,293.337h3.086v-3.088h-3.086V293.337
		 M149.466,293.337h3.088v-3.088h-3.088V293.337 M121.681,290.249h3.087v-3.088h-3.087V290.249 M127.855,290.249h3.087v-3.088
		h-3.087V290.249 M134.03,290.249h3.087v-3.088h-3.087V290.249 M143.292,290.249h3.087v-3.088h-3.087V290.249 M149.466,290.249
		h3.088v-3.088h-3.088V290.249 M158.728,290.249h3.087v-3.088h-3.087V290.249 M100.069,287.161h3.087v-3.086h-3.087V287.161
		 M112.419,287.161h3.087v-3.086h-3.087V287.161 M115.506,287.161h3.087v-3.086h-3.087V287.161 M127.855,287.161h3.087v-3.086
		h-3.087V287.161 M134.03,287.161h3.087v-3.086h-3.087V287.161 M143.292,287.161h3.087v-3.086h-3.087V287.161 M149.466,287.161
		h3.088v-3.086h-3.088V287.161 M100.069,284.075h3.087v-3.087h-3.087V284.075 M109.332,284.075h3.087v-3.087h-3.087V284.075
		 M118.593,284.075h3.087v-3.087h-3.087V284.075 M130.942,284.075h3.088v-3.087h-3.088V284.075 M134.03,284.075h3.087v-3.087h-3.087
		V284.075 M137.117,284.075h3.087v-3.087h-3.087V284.075 M140.205,284.075h3.087v-3.087h-3.087V284.075 M155.641,284.075h3.087
		v-3.087h-3.087V284.075 M158.728,284.075h3.087v-3.087h-3.087V284.075 M106.244,280.988h3.088V277.9h-3.088V280.988
		 M109.332,280.988h3.087V277.9h-3.087V280.988 M112.419,280.988h3.087V277.9h-3.087V280.988 M115.506,280.988h3.087V277.9h-3.087
		V280.988 M118.593,280.988h3.087V277.9h-3.087V280.988 M121.681,280.988h3.087V277.9h-3.087V280.988 M124.768,280.988h3.087V277.9
		h-3.087V280.988 M134.03,280.988h3.087V277.9h-3.087V280.988 M140.205,280.988h3.087V277.9h-3.087V280.988 M143.292,280.988h3.087
		V277.9h-3.087V280.988 M155.641,280.988h3.087V277.9h-3.087V280.988 M100.069,277.9h3.087v-3.088h-3.087V277.9 M106.244,277.9
		h3.088v-3.088h-3.088V277.9 M112.419,277.9h3.087v-3.088h-3.087V277.9 M118.593,277.9h3.087v-3.088h-3.087V277.9 M121.681,277.9
		h3.087v-3.088h-3.087V277.9 M127.855,277.9h3.087v-3.088h-3.087V277.9 M130.942,277.9h3.088v-3.088h-3.088V277.9 M134.03,277.9
		h3.087v-3.088h-3.087V277.9 M137.117,277.9h3.087v-3.088h-3.087V277.9 M140.205,277.9h3.087v-3.088h-3.087V277.9 M96.982,274.813
		h3.087v-3.088h-3.087V274.813 M100.069,274.813h3.087v-3.088h-3.087V274.813 M103.157,274.813h3.087v-3.088h-3.087V274.813
		 M106.244,274.813h3.088v-3.088h-3.088V274.813 M109.332,274.813h3.087v-3.088h-3.087V274.813 M115.506,274.813h3.087v-3.088
		h-3.087V274.813 M118.593,274.813h3.087v-3.088h-3.087V274.813 M121.681,274.813h3.087v-3.088h-3.087V274.813 M130.942,274.813
		h3.088v-3.088h-3.088V274.813 M137.117,274.813h3.087v-3.088h-3.087V274.813 M143.292,274.813h3.087v-3.088h-3.087V274.813
		 M149.466,274.813h3.088v-3.088h-3.088V274.813 M155.641,274.813h3.087v-3.088h-3.087V274.813 M124.768,271.725h3.087v-3.087
		h-3.087V271.725 M96.982,268.638h3.087v-3.086h-3.087V268.638 M100.069,268.638h3.087v-3.086h-3.087V268.638 M103.157,268.638
		h3.087v-3.086h-3.087V268.638 M106.244,268.638h3.088v-3.086h-3.088V268.638 M109.332,268.638h3.087v-3.086h-3.087V268.638
		 M112.419,268.638h3.087v-3.086h-3.087V268.638 M115.506,268.638h3.087v-3.086h-3.087V268.638 M121.681,268.638h3.087v-3.086
		h-3.087V268.638 M127.855,268.638h3.087v-3.086h-3.087V268.638 M134.03,268.638h3.087v-3.086h-3.087V268.638 M140.205,268.638
		h3.087v-3.086h-3.087V268.638 M143.292,268.638h3.087v-3.086h-3.087V268.638 M146.379,268.638h3.086v-3.086h-3.086V268.638
		 M149.466,268.638h3.088v-3.086h-3.088V268.638 M152.554,268.638h3.087v-3.086h-3.087V268.638 M155.641,268.638h3.087v-3.086
		h-3.087V268.638 M158.728,268.638h3.087v-3.086h-3.087V268.638 M96.982,265.552h3.087v-3.088h-3.087V265.552 M115.506,265.552
		h3.087v-3.088h-3.087V265.552 M121.681,265.552h3.087v-3.088h-3.087V265.552 M130.942,265.552h3.088v-3.088h-3.088V265.552
		 M140.205,265.552h3.087v-3.088h-3.087V265.552 M158.728,265.552h3.087v-3.088h-3.087V265.552 M96.982,262.464h3.087v-3.088h-3.087
		V262.464 M103.157,262.464h3.087v-3.088h-3.087V262.464 M106.244,262.464h3.088v-3.088h-3.088V262.464 M109.332,262.464h3.087
		v-3.088h-3.087V262.464 M115.506,262.464h3.087v-3.088h-3.087V262.464 M124.768,262.464h3.087v-3.088h-3.087V262.464
		 M134.03,262.464h3.087v-3.088h-3.087V262.464 M140.205,262.464h3.087v-3.088h-3.087V262.464 M146.379,262.464h3.086v-3.088h-3.086
		V262.464 M149.466,262.464h3.088v-3.088h-3.088V262.464 M152.554,262.464h3.087v-3.088h-3.087V262.464 M158.728,262.464h3.087
		v-3.088h-3.087V262.464 M96.982,259.376h3.087v-3.088h-3.087V259.376 M103.157,259.376h3.087v-3.088h-3.087V259.376
		 M106.244,259.376h3.088v-3.088h-3.088V259.376 M109.332,259.376h3.087v-3.088h-3.087V259.376 M115.506,259.376h3.087v-3.088
		h-3.087V259.376 M121.681,259.376h3.087v-3.088h-3.087V259.376 M124.768,259.376h3.087v-3.088h-3.087V259.376 M134.03,259.376
		h3.087v-3.088h-3.087V259.376 M140.205,259.376h3.087v-3.088h-3.087V259.376 M146.379,259.376h3.086v-3.088h-3.086V259.376
		 M149.466,259.376h3.088v-3.088h-3.088V259.376 M152.554,259.376h3.087v-3.088h-3.087V259.376 M158.728,259.376h3.087v-3.088
		h-3.087V259.376 M96.982,256.288h3.087v-3.086h-3.087V256.288 M103.157,256.288h3.087v-3.086h-3.087V256.288 M106.244,256.288
		h3.088v-3.086h-3.088V256.288 M109.332,256.288h3.087v-3.086h-3.087V256.288 M115.506,256.288h3.087v-3.086h-3.087V256.288
		 M127.855,256.288h3.087v-3.086h-3.087V256.288 M130.942,256.288h3.088v-3.086h-3.088V256.288 M134.03,256.288h3.087v-3.086h-3.087
		V256.288 M140.205,256.288h3.087v-3.086h-3.087V256.288 M146.379,256.288h3.086v-3.086h-3.086V256.288 M149.466,256.288h3.088
		v-3.086h-3.088V256.288 M152.554,256.288h3.087v-3.086h-3.087V256.288 M158.728,256.288h3.087v-3.086h-3.087V256.288
		 M96.982,253.202h3.087v-3.088h-3.087V253.202 M115.506,253.202h3.087v-3.088h-3.087V253.202 M121.681,253.202h3.087v-3.088h-3.087
		V253.202 M124.768,253.202h3.087v-3.088h-3.087V253.202 M127.855,253.202h3.087v-3.088h-3.087V253.202 M134.03,253.202h3.087
		v-3.088h-3.087V253.202 M140.205,253.202h3.087v-3.088h-3.087V253.202 M158.728,253.202h3.087v-3.088h-3.087V253.202
		 M96.982,250.114h3.087v-3.088h-3.087V250.114 M100.069,250.114h3.087v-3.088h-3.087V250.114 M103.157,250.114h3.087v-3.088h-3.087
		V250.114 M106.244,250.114h3.088v-3.088h-3.088V250.114 M109.332,250.114h3.087v-3.088h-3.087V250.114 M112.419,250.114h3.087
		v-3.088h-3.087V250.114 M115.506,250.114h3.087v-3.088h-3.087V250.114 M127.855,250.114h3.087v-3.088h-3.087V250.114
		 M130.942,250.114h3.088v-3.088h-3.088V250.114 M134.03,250.114h3.087v-3.088h-3.087V250.114 M140.205,250.114h3.087v-3.088h-3.087
		V250.114 M143.292,250.114h3.087v-3.088h-3.087V250.114 M146.379,250.114h3.086v-3.088h-3.086V250.114 M149.466,250.114h3.088
		v-3.088h-3.088V250.114 M152.554,250.114h3.087v-3.088h-3.087V250.114 M155.641,250.114h3.087v-3.088h-3.087V250.114
		 M158.728,250.114h3.087v-3.088h-3.087V250.114L158.728,250.114z"/>
</g>
<line fill="none" stroke="#181346" stroke-width="1.0948" stroke-miterlimit="10" x1="172.692" y1="250.312" x2="288.217" y2="250.312"/>
<line fill="none" stroke="#181346" stroke-width="1.0948" stroke-miterlimit="10" x1="172.692" y1="261.26" x2="288.217" y2="261.26"/>
<line fill="none" stroke="#181346" stroke-width="1.0948" stroke-miterlimit="10" x1="172.692" y1="272.208" x2="288.217" y2="272.208"/>
<line fill="none" stroke="#181346" stroke-width="1.0948" stroke-miterlimit="10" x1="172.692" y1="283.156" x2="288.217" y2="283.156"/>
</svg>
