<?xml version="1.0" encoding="utf-8"?>
<!-- Generator: Adobe Illustrator 21.0.2, SVG Export Plug-In . SVG Version: 6.00 Build 0)  -->
<svg version="1.1" id="Layer_1" xmlns="http://www.w3.org/2000/svg" xmlns:xlink="http://www.w3.org/1999/xlink" x="0px" y="0px"
	 viewBox="0 0 208.6 217.2" style="enable-background:new 0 0 208.6 217.2;" xml:space="preserve">
<style type="text/css">
	.st0{fill:#004794;}
	.st1{opacity:0.6;fill:#001355;enable-background:new    ;}
	.st2{fill:url(#SVGID_1_);}
	.st3{fill:#F2F2F2;}
	.st4{fill:url(#SVGID_2_);}
	.st5{fill:#DD9E73;}
	.st6{fill:url(#SVGID_3_);}
	.st7{fill:#1E5177;}
	.st8{fill:url(#SVGID_4_);}
	.st9{fill:url(#SVGID_5_);}
	.st10{fill:#594A42;}
	.st11{fill:url(#SVGID_6_);}
	.st12{fill:url(#SVGID_7_);}
	.st13{fill:url(#SVGID_8_);}
</style>
<path class="st0" d="M153.4,189.9c1.5-1.6,2.5-3.5,4.2-5c7.8-7,18.3-9.6,25.4-17.9c7.4-8.7,9.9-20.3,10.6-31.5
	c2.7-44.8,40.2-78.6-14.3-81.6s-37.7-1.1-60.3-14.6S81.3,17,52.7,35.5C35,46.8-3,39,6.5,74s21.7,29.7,11.2,59.7s-33.5,32.6-1,60.1
	c24.6,20.8,65.6,26.9,96.7,21.6c10.6-1.8,19.2-8.6,27.2-15.3c4-3.3,8.9-6.3,12.5-9.9C153.2,190.1,153.3,190,153.4,189.9z"/>
<ellipse class="st1" cx="65" cy="156.4" rx="35.7" ry="6.8"/>
<ellipse class="st1" cx="147" cy="155.9" rx="23" ry="6.8"/>
<g>
	<g>
		<g>
			
				<linearGradient id="SVGID_1_" gradientUnits="userSpaceOnUse" x1="15.0526" y1="82.9458" x2="14.46" y2="89.1009" gradientTransform="matrix(-0.2765 -1.1468 0.4758 -0.4557 0.2602 155.3889)">
				<stop  offset="0" style="stop-color:#FFFFFF"/>
				<stop  offset="1" style="stop-color:#1E5177"/>
			</linearGradient>
			<polygon class="st2" points="38.3,102.7 35.3,98.8 36,95.7 38.9,99.5 			"/>
			<polygon class="st3" points="38.1,102.2 35.6,98.9 36.1,96.3 38.6,99.4 			"/>
		</g>
		<g>
			<radialGradient id="SVGID_2_" cx="77.709" cy="120.2453" r="33.0168" gradientUnits="userSpaceOnUse">
				<stop  offset="0" style="stop-color:#FFD297"/>
				<stop  offset="1" style="stop-color:#F89D89"/>
			</radialGradient>
			<path class="st4" d="M77.7,80.8c7.5,0,13.3,2.7,17.5,8c5,6.3,7.5,16.8,7.5,31.4c0,14.6-2.5,25.1-7.6,31.5
				c-4.2,5.3-10,7.9-17.5,7.9c-7.5,0-13.6-2.9-18.2-8.7c-4.6-5.8-6.9-16.1-6.9-30.9c0-14.5,2.5-25,7.6-31.4
				C64.4,83.5,70.2,80.8,77.7,80.8z M77.7,93.1c-1.8,0-3.4,0.6-4.8,1.7c-1.4,1.1-2.5,3.2-3.3,6.1c-1,3.8-1.5,10.3-1.5,19.3
				c0,9.1,0.5,15.3,1.4,18.7c0.9,3.4,2.1,5.6,3.4,6.8c1.4,1.1,3,1.7,4.8,1.7c1.8,0,3.4-0.6,4.8-1.7c1.4-1.1,2.5-3.2,3.3-6.1
				c1-3.8,1.5-10.2,1.5-19.3c0-9.1-0.5-15.3-1.4-18.7c-0.9-3.4-2.1-5.6-3.4-6.8C81.1,93.7,79.5,93.1,77.7,93.1z"/>
		</g>
		<g>
			<path class="st5" d="M44.7,83.4c-0.1,0-0.1,0.7-0.2,0.8c-0.1,0.6-0.1,1.3-0.1,1.9c0.1,0.8,0.3,1.7,0.6,2.4
				c0.2,0.4,0.4,0.8,0.7,1.1c0.5,0.4,1.2,0.5,1.7,0.8c0.3,0.3,0.3,0.7,0.4,1.1c0.3,1.7-2.2,4.2-2.3,4.4c-0.2,0.2,0.1,0.8,0.8,1
				c0.7,0.2,2.4-0.1,3.4-0.2c1-0.1,2.8-0.3,2.9-0.5c0-0.2,0.8-0.3,1-0.5s0.2-0.8,0.2-0.8s-3.1-4.4-1.2-7.6c0.3-2.8,0.3-3.1-0.4-3.7
				s-3.1-1.9-3.2-1.9C48.9,81.6,44.7,83.4,44.7,83.4z"/>
			<g>
				
					<radialGradient id="SVGID_3_" cx="3.4669" cy="152.7359" r="3.1701" gradientTransform="matrix(-0.9806 0.1959 0.1959 0.9806 22.787 0.8571)" gradientUnits="userSpaceOnUse">
					<stop  offset="0" style="stop-color:#FFD297"/>
					<stop  offset="1" style="stop-color:#F89D89"/>
				</radialGradient>
				<path class="st6" d="M52,148.1c0,0,0.6,0.2,0.4,0.4c0,0.3-1.9,2.9-3.5,4.5c-1.6,1.6-2.7,1.6-2.7,1.6s0.3-1,0.7-1.6
					c0.4-0.6,2.5-2.6,2.7-2.9c0.1-0.3,1.2-1.6,1.2-1.6L52,148.1z"/>
				<path class="st7" d="M50.2,147.4c-0.2,0,0.3,1.6-3.1,1.6c-1,0-0.5,1.1-0.5,1.7c0,0.6,0.1,0.9-1.1,1.8c-1.3,0.9,0.3,3,1.9,1.5
					c1.6-1.6,4.1-4.5,4.6-5.4C52.5,147.6,50.2,147.4,50.2,147.4z"/>
			</g>
			<g>
				
					<radialGradient id="SVGID_4_" cx="-1.1035" cy="148.1583" r="3.0198" gradientTransform="matrix(-0.9366 -0.3505 -0.3505 0.9366 90.6622 15.4736)" gradientUnits="userSpaceOnUse">
					<stop  offset="0" style="stop-color:#FFD297"/>
					<stop  offset="1" style="stop-color:#F89D89"/>
				</radialGradient>
				<path class="st8" d="M43.5,153.4c0,0,0.3,0.5,0.1,0.6c-0.2,0.2-3,1.4-5.1,1.9c-2.1,0.5-3,0-3,0s0.8-0.7,1.3-0.9
					c0.6-0.3,3.4-0.8,3.6-1s1.8-0.7,1.8-0.7L43.5,153.4z"/>
				<path class="st7" d="M42.4,151.9c-0.2-0.1-0.5,1.4-3.3-0.3c-0.9-0.5-0.9,0.7-1.3,1.2c-0.3,0.5-0.3,0.8-1.8,0.9
					c-1.5,0.1-1.3,2.6,0.8,2.1c2.1-0.4,5.6-1.5,6.5-2.1C44.2,153.2,42.4,151.9,42.4,151.9z"/>
			</g>
			
				<linearGradient id="SVGID_5_" gradientUnits="userSpaceOnUse" x1="29.5037" y1="133.1622" x2="52.0163" y2="133.1622" gradientTransform="matrix(0.9806 -0.1959 0.1959 0.9806 -19.9714 9.3973)">
				<stop  offset="0" style="stop-color:#001355"/>
				<stop  offset="1" style="stop-color:#004794"/>
			</linearGradient>
			<path class="st9" d="M46.3,140c0-0.4,0.4-1.3,0.5-1.6c0.8-3.1,1.7-6.3,3-9.2c1.6-3.6,3.9-6.8,5.1-10.6c-4.2-0.6-7.9-3.2-11.3-5.7
				c-1.7,3-3.4,6-5.1,9c-0.8,1.3-1.5,2.6-2.2,3.9c-0.7,1.2-1.1,2.6-1.1,4c0,0.4,0,0.8,0,1.2c0.3,3.6,2.7,6.6,4.9,9.4
				c0.2,0.2,0.3,0.4,0.4,0.7c0.1,0.3,0,0.6,0,0.9c-0.6,3.1-1.2,6.2-1.8,9.3c0,0.2-0.1,0.3,0,0.5c0.1,0.2,0.3,0.3,0.5,0.3
				c0.7,0.3,1.5,0.4,2.3,0.4c0.3,0,0.6,0,0.8-0.2c0.3-0.2,0.4-0.5,0.5-0.9c0.5-1.6,1-3.2,1.5-4.8c0.7,0.9,1.5,1.8,2.3,2.7
				c0.1,0.1,0.3,0.3,0.5,0.4c0.2,0.1,0.5,0,0.7-0.1c0.9-0.4,1.8-0.8,2.6-1.4c0.2-0.1,0.3-0.3,0.4-0.4c0.1-0.3-0.1-0.5-0.2-0.8
				C49,144.9,46.4,140.3,46.3,140z M42.4,134.6c-0.2-0.2-1-1.8-1.3-3.8c-0.2-2,3.5-8.8,3.5-8.8C45.3,123.9,42.7,134.8,42.4,134.6z"
				/>
			<path class="st5" d="M43.4,111.2c0.1-0.8,1.8-7.5,2.3-9.2c0.4-1.7,0.6-3.9,0.7-4.5c0.1-0.6-1.3-2.8-1.3-2.8s-3.7,3.3-3.9,7.1
				s0.5,14.7,0.5,14.7"/>
			<path class="st10" d="M45.4,84.5c0,0-2,1.1-1.5-2.1c0.6-4.1,9.1-2.7,9.6-0.1c1.1,4.4-1.5,6.6-1.5,6.6s0.7-4.5-1.9-4.6
				c-0.6-0.1-0.4,2.1-0.4,2.1L49,83.7C49,83.7,47.3,82.7,45.4,84.5z"/>
			
				<linearGradient id="SVGID_6_" gradientUnits="userSpaceOnUse" x1="24.2614" y1="109.1172" x2="54.0657" y2="109.1172" gradientTransform="matrix(0.9806 -0.1959 0.1959 0.9806 -19.9714 9.3973)">
				<stop  offset="0" style="stop-color:#7D9BB1"/>
				<stop  offset="0" style="stop-color:#1E5177"/>
				<stop  offset="0.462" style="stop-color:#84A0B5"/>
				<stop  offset="1" style="stop-color:#FFFFFF"/>
			</linearGradient>
			<path class="st11" d="M47.2,93.8c0,0-6.6,1-5.1,9.6c-1.2,6.9-0.3,10.7-0.5,13.1c-0.2,1.7,11.2,3.8,13,2.6c1.8-1.2-1.5-6.8,1-12.1
				c3.6-5,1.2-14.6-2.4-13.5c-0.4,0.8-0.9,2-2.9,2.3C48.3,96.1,46.8,95.6,47.2,93.8z"/>
			<path class="st5" d="M53.4,102.6L51,102c0,0-1.6,5.5-4.2,5c-2.6-0.6-6.7-4.3-7-4.5c0,0,0,0,0,0c-0.1-0.1-0.5-0.4-0.8-0.8
				c-0.2-0.3-0.3-0.6-0.3-0.8c0-0.5-1.1-2.2-1.2-2.3c-0.2,0-0.1,0.2-0.1,0.5c0,0.4,0.4,1.7,0.3,1.5c-0.1-0.2-0.5-0.2-1-0.9
				c-0.6-0.8-1-0.5-1.1-0.5c0,0.1-0.2,0.8,0.6,2.4c0.3,0.7,1.1,1.3,1.5,1.9c0.3,0.3,0.5,0.6,0.6,0.8c0,0.1,0.5,0.8,0.7,1
				c1.7,1.7,5.6,4.8,6.5,5c0.9,0.2,3.9,0.9,6.1-1.1c2.2-2,4.8-5.5,4.8-5.5L53.4,102.6z"/>
			
				<linearGradient id="SVGID_7_" gradientUnits="userSpaceOnUse" x1="46.7114" y1="103.2245" x2="57.6155" y2="103.2245" gradientTransform="matrix(0.9806 -0.1959 0.1959 0.9806 -19.9714 9.3973)">
				<stop  offset="0" style="stop-color:#7D9BB1"/>
				<stop  offset="0" style="stop-color:#1E5177"/>
				<stop  offset="0.3173" style="stop-color:#84A0B5"/>
				<stop  offset="1" style="stop-color:#FFFFFF"/>
			</linearGradient>
			<path class="st12" d="M51,102c0,0,0.6-4.9,2.1-6.3c1.5-1.3,4.8,0.6,3.3,8.1C52.7,103.6,51,102,51,102z"/>
		</g>
	</g>
	<g>
		<radialGradient id="SVGID_8_" cx="139.3875" cy="121.0072" r="30.8734" gradientUnits="userSpaceOnUse">
			<stop  offset="0" style="stop-color:#FFD297"/>
			<stop  offset="1" style="stop-color:#F89D89"/>
		</radialGradient>
		<path class="st13" d="M164.9,85.6l-4.8,10.7H149c0.5,0.6,1.1,1.5,1.6,2.5c0.5,1,0.9,2,1,3.1h13.3l-4.8,10.7h-8.5
			c-0.4,2.3-1.2,4.4-2.4,6.3c-1.2,1.9-2.7,3.5-4.5,4.9c-1.8,1.4-3.8,2.5-6.1,3.4c-2.3,0.9-4.7,1.4-7.2,1.6l26.3,27.7h-17.1l-24.3-27
			v-10.7h7.2c0.9,0,2-0.1,3.4-0.2c1.4-0.1,2.8-0.4,4.1-0.8c1.4-0.4,2.6-1.1,3.7-1.9c1.1-0.8,1.9-1.9,2.3-3.4h-23.2l4.8-10.7H137
			c-0.4-1.3-1.1-2.3-2.1-3c-1-0.7-2.3-1.3-3.7-1.7c-1.4-0.4-3-0.6-4.8-0.7c-1.8-0.1-3.6-0.1-5.5-0.1h-7l4.8-10.7H164.9z"/>
	</g>
</g>
</svg>
