<?xml version="1.0" encoding="utf-8"?>
<!-- Generator: Adobe Illustrator 21.0.2, SVG Export Plug-In . SVG Version: 6.00 Build 0)  -->
<svg version="1.1" id="Layer_1" xmlns="http://www.w3.org/2000/svg" xmlns:xlink="http://www.w3.org/1999/xlink" x="0px" y="0px"
	 viewBox="0 0 227.4 139.7" style="enable-background:new 0 0 227.4 139.7;" xml:space="preserve">
<style type="text/css">
	.st0{fill:url(#SVGID_1_);}
	.st1{fill:#F2F2F2;}
	.st2{fill:url(#SVGID_2_);}
	.st3{fill:#DD9E73;}
	.st4{fill:url(#SVGID_3_);}
	.st5{fill:#1E5177;}
	.st6{fill:url(#SVGID_4_);}
	.st7{fill:url(#SVGID_5_);}
	.st8{fill:#594A42;}
	.st9{fill:url(#SVGID_6_);}
	.st10{fill:url(#SVGID_7_);}
	.st11{fill:url(#SVGID_8_);}
</style>
<g>
	<g>
		<g>
			
				<linearGradient id="SVGID_1_" gradientUnits="userSpaceOnUse" x1="1.476" y1="44.7142" x2="0.4387" y2="55.4885" gradientTransform="matrix(-0.2765 -1.1468 0.4758 -0.4557 -19.9443 57.954)">
				<stop  offset="0" style="stop-color:#FFFFFF"/>
				<stop  offset="1" style="stop-color:#1E5177"/>
			</linearGradient>
			<polygon class="st0" points="5.7,40.1 0.4,33.2 1.6,27.9 6.8,34.4 			"/>
			<polygon class="st1" points="5.4,39.1 0.9,33.3 1.9,28.9 6.3,34.3 			"/>
		</g>
		<g>
			<radialGradient id="SVGID_2_" cx="74.702" cy="70.7552" r="57.7954" gradientUnits="userSpaceOnUse">
				<stop  offset="0" style="stop-color:#FFD297"/>
				<stop  offset="1" style="stop-color:#F89D89"/>
			</radialGradient>
			<path class="st2" d="M74.7,1.8c13.1,0,23.3,4.7,30.7,14c8.8,11.1,13.2,29.4,13.2,55c0,25.6-4.4,43.9-13.3,55.1
				c-7.3,9.2-17.5,13.8-30.6,13.8c-13.1,0-23.7-5.1-31.8-15.2c-8-10.1-12.1-28.1-12.1-54c0-25.4,4.4-43.7,13.3-54.9
				C51.4,6.4,61.6,1.8,74.7,1.8z M74.7,23.3c-3.1,0-5.9,1-8.4,3c-2.5,2-4.4,5.6-5.7,10.7c-1.8,6.7-2.7,18-2.7,33.8
				c0,15.8,0.8,26.7,2.4,32.7c1.6,5.9,3.6,9.9,6,11.8c2.4,2,5.2,2.9,8.3,2.9s5.9-1,8.4-3c2.5-2,4.4-5.6,5.7-10.7
				c1.8-6.6,2.7-17.9,2.7-33.7c0-15.8-0.8-26.7-2.4-32.7c-1.6-5.9-3.6-9.9-6-11.9C80.6,24.3,77.8,23.3,74.7,23.3z"/>
		</g>
		<g>
			<path class="st3" d="M17,6.3c-0.2,0.1-0.2,1.2-0.3,1.3c-0.2,1.1-0.2,2.2-0.1,3.4c0.1,1.5,0.4,2.9,1.1,4.2
				c0.3,0.6,0.7,1.4,1.2,1.9c0.9,0.7,2.1,0.8,3,1.5c0.6,0.4,0.5,1.3,0.7,1.9c0.6,3-3.8,7.3-4.1,7.6s0.2,1.5,1.5,1.7
				c1.2,0.3,4.2-0.2,6-0.4s4.9-0.5,5-0.9c0.1-0.3,1.4-0.6,1.7-0.9c0.3-0.3,0.4-1.5,0.4-1.5s-5.4-7.7-2.1-13.4
				c0.5-4.8,0.5-5.5-0.7-6.4c-1.2-0.9-5.5-3.3-5.7-3.3C24.3,3.1,17,6.3,17,6.3z"/>
			<g>
				
					<radialGradient id="SVGID_3_" cx="-31.9861" cy="127.6627" r="5.5493" gradientTransform="matrix(-0.9806 0.1959 0.1959 0.9806 -31.3939 6.215)" gradientUnits="userSpaceOnUse">
					<stop  offset="0" style="stop-color:#FFD297"/>
					<stop  offset="1" style="stop-color:#F89D89"/>
				</radialGradient>
				<path class="st4" d="M29.6,119.5c0,0,1,0.4,0.8,0.7c0,0.5-3.3,5-6.1,7.8s-4.7,2.8-4.7,2.8s0.6-1.8,1.2-2.8
					c0.6-1,4.5-4.6,4.7-5.1c0.3-0.5,2.2-2.8,2.2-2.8L29.6,119.5z"/>
				<path class="st5" d="M26.5,118.4c-0.4,0.1,0.6,2.8-5.5,2.8c-1.8,0.1-0.8,1.9-0.9,3c-0.1,1.1,0.3,1.6-2,3.2
					c-2.2,1.6,0.5,5.3,3.4,2.5c2.9-2.7,7.2-7.8,8.1-9.5C30.5,118.7,26.5,118.4,26.5,118.4z"/>
			</g>
			<g>
				
					<radialGradient id="SVGID_4_" cx="-39.1054" cy="123.2853" r="5.286" gradientTransform="matrix(-0.9366 -0.3505 -0.3505 0.9366 14.8671 1.7542)" gradientUnits="userSpaceOnUse">
					<stop  offset="0" style="stop-color:#FFD297"/>
					<stop  offset="1" style="stop-color:#F89D89"/>
				</radialGradient>
				<path class="st6" d="M14.9,128.7c0,0,0.6,0.8,0.3,1c-0.3,0.4-5.2,2.4-8.9,3.3c-3.6,0.9-5.2,0-5.2,0s1.4-1.2,2.4-1.6
					c1-0.5,5.9-1.5,6.4-1.7s3.2-1.2,3.2-1.2L14.9,128.7z"/>
				<path class="st5" d="M12.9,126.2c-0.4-0.1-0.9,2.5-5.8-0.5c-1.5-0.8-1.6,1.1-2.2,2s-0.6,1.4-3.2,1.6s-2.3,4.5,1.5,3.8
					s9.8-2.7,11.3-3.6S12.9,126.2,12.9,126.2z"/>
			</g>
			
				<linearGradient id="SVGID_5_" gradientUnits="userSpaceOnUse" x1="-6.06" y1="93.3991" x2="33.348" y2="93.3991" gradientTransform="matrix(0.9806 -0.1959 0.1959 0.9806 -12.3358 2.4085)">
				<stop  offset="0" style="stop-color:#004794"/>
				<stop  offset="1" style="stop-color:#001355"/>
			</linearGradient>
			<path class="st7" d="M19.8,105.3c-0.1-0.7,0.6-2.2,0.8-2.8c1.5-5.5,2.9-11,5.3-16.1c2.8-6.3,6.9-12,8.9-18.6
				c-7.4-1-13.8-5.5-19.8-9.9c-3,5.2-6,10.5-9,15.7C4.6,76,3.3,78.3,2,80.6c-1.2,2.1-1.9,4.5-2,6.9c0,0.7,0,1.4,0,2
				C0.6,95.8,4.8,101,8.6,106c0.3,0.4,0.6,0.8,0.7,1.2c0.1,0.5,0,1-0.1,1.5c-1,5.4-2.1,10.8-3.1,16.2c-0.1,0.3-0.1,0.6,0,0.9
				c0.1,0.3,0.5,0.5,0.8,0.6c1.3,0.5,2.6,0.7,3.9,0.7c0.5,0,1,0,1.4-0.3c0.5-0.3,0.7-0.9,0.9-1.5c0.9-2.8,1.7-5.6,2.6-8.4
				c1.3,1.6,2.6,3.1,4,4.6c0.2,0.3,0.5,0.5,0.8,0.6c0.4,0.1,0.8,0,1.2-0.2c1.6-0.6,3.1-1.5,4.5-2.5c0.3-0.2,0.6-0.4,0.7-0.8
				c0.1-0.5-0.1-1-0.4-1.4C24.4,113.9,19.8,105.8,19.8,105.3z M13,95.8c-0.4-0.3-1.8-3.2-2.2-6.6c-0.4-3.4,6.1-15.4,6.1-15.4
				C17.9,77.2,13.4,96.2,13,95.8z"/>
			<path class="st3" d="M14.7,55c0.2-1.5,3.2-13.2,3.9-16.2c0.7-3,1-6.8,1.1-7.9s-2.3-4.9-2.3-4.9s-6.5,5.7-6.9,12.4
				c-0.4,6.7,0.8,25.8,0.8,25.8"/>
			<path class="st8" d="M18.1,8.2c0,0-3.4,2-2.6-3.8c1-7.1,16-4.7,16.9-0.1C34.2,12,29.8,16,29.8,16s1.2-7.9-3.4-8.1
				c-1.1-0.2-0.7,3.6-0.7,3.6l-1.3-4.8C24.5,6.7,21.4,5.1,18.1,8.2z"/>
			
				<linearGradient id="SVGID_6_" gradientUnits="userSpaceOnUse" x1="-15.2366" y1="51.3087" x2="36.9353" y2="51.3087" gradientTransform="matrix(0.9806 -0.1959 0.1959 0.9806 -12.3358 2.4085)">
				<stop  offset="0" style="stop-color:#7D9BB1"/>
				<stop  offset="0" style="stop-color:#1E5177"/>
				<stop  offset="0.462" style="stop-color:#84A0B5"/>
				<stop  offset="1" style="stop-color:#FFFFFF"/>
			</linearGradient>
			<path class="st9" d="M21.4,24.5c0,0-11.5,1.8-9,16.8c-2.1,12.1-0.5,18.7-0.9,22.9c-0.3,3,19.6,6.7,22.7,4.6s-2.6-12,1.8-21.1
				c6.3-8.8,2.1-25.6-4.2-23.6c-0.7,1.4-1.6,3.6-5.1,4S20.6,27.7,21.4,24.5z"/>
			<path class="st3" d="M32.2,39.9L28,38.9c0,0-2.8,9.7-7.3,8.7S9.1,40,8.5,39.7c0,0,0,0-0.1,0c-0.2-0.1-0.9-0.6-1.3-1.3
				c-0.3-0.5-0.5-1.1-0.5-1.4c-0.1-0.9-1.9-3.9-2.2-4c-0.3-0.1-0.2,0.3-0.2,1c0,0.7,0.7,3,0.5,2.6C4.5,36.1,3.9,36.3,3,35
				c-1.1-1.5-1.8-0.9-1.9-0.8c-0.1,0.1-0.3,1.4,1,4.3c0.5,1.2,2,2.3,2.7,3.3c0.5,0.6,0.9,1,1.1,1.5c0,0.3,0.9,1.4,1.3,1.8
				c3,3,9.8,8.5,11.3,8.8c1.6,0.3,6.8,1.6,10.7-2c3.9-3.6,8.4-9.7,8.4-9.7L32.2,39.9z"/>
			
				<linearGradient id="SVGID_7_" gradientUnits="userSpaceOnUse" x1="24.0618" y1="40.9936" x2="43.1492" y2="40.9936" gradientTransform="matrix(0.9806 -0.1959 0.1959 0.9806 -12.3358 2.4085)">
				<stop  offset="0" style="stop-color:#7D9BB1"/>
				<stop  offset="0" style="stop-color:#1E5177"/>
				<stop  offset="0.3173" style="stop-color:#84A0B5"/>
				<stop  offset="1" style="stop-color:#FFFFFF"/>
			</linearGradient>
			<path class="st10" d="M28,38.9c0,0,1-8.6,3.7-10.9s8.4,1,5.8,14.2C30.9,41.7,28,38.9,28,38.9z"/>
		</g>
	</g>
	<g>
		<radialGradient id="SVGID_8_" cx="182.6693" cy="72.089" r="54.0434" gradientUnits="userSpaceOnUse">
			<stop  offset="0" style="stop-color:#FFD297"/>
			<stop  offset="1" style="stop-color:#F89D89"/>
		</radialGradient>
		<path class="st11" d="M227.4,10.1l-8.5,18.7h-19.4c1,1.1,1.9,2.6,2.8,4.4c0.9,1.8,1.5,3.6,1.8,5.4h23.3l-8.5,18.7h-14.8
			c-0.7,4.1-2.1,7.7-4.2,11c-2.1,3.3-4.8,6.2-7.9,8.6c-3.2,2.4-6.7,4.4-10.7,5.9c-4,1.5-8.2,2.4-12.7,2.8l46,48.5h-29.9l-42.5-47.2
			V68.2h12.5c1.6,0,3.6-0.1,6-0.3c2.4-0.2,4.8-0.7,7.2-1.5c2.4-0.8,4.6-1.9,6.6-3.3s3.3-3.4,4.1-5.9H138l8.5-18.7h32.1
			c-0.7-2.3-1.9-4-3.7-5.3c-1.8-1.3-4-2.3-6.5-2.9c-2.5-0.6-5.3-1.1-8.4-1.2c-3.1-0.2-6.3-0.3-9.6-0.3H138l8.5-18.7H227.4z"/>
	</g>
</g>
</svg>
