<?xml version="1.0" encoding="utf-8"?>
<!-- Generator: Adobe Illustrator 21.0.2, SVG Export Plug-In . SVG Version: 6.00 Build 0)  -->
<svg version="1.1" id="Layer_1" xmlns="http://www.w3.org/2000/svg" xmlns:xlink="http://www.w3.org/1999/xlink" x="0px" y="0px"
	 viewBox="0 0 1528 1000" style="enable-background:new 0 0 1528 1000;" xml:space="preserve">
<style type="text/css">
	.st0{fill:#010101;}
	.st1{fill:#131334;}
	.st2{fill:url(#SVGID_1_);}
	.st3{fill:#BDBEC0;}
	.st4{fill:#939598;}
	.st5{fill:#BCBCBC;}
	.st6{fill:url(#SVGID_2_);}
	.st7{fill:#818285;}
	.st8{fill:url(#SVGID_3_);}
	.st9{opacity:0.8;fill:url(#SVGID_4_);enable-background:new    ;}
	.st10{fill:url(#SVGID_5_);}
	.st11{fill:#E7E7E7;}
	.st12{fill:#D2D3D4;}
	.st13{fill:#DA2228;}
	.st14{fill:#FFFFFF;}
	.st15{fill:#5A5A5C;}
	.st16{fill:#191445;}
	.st17{fill:#1D2A51;}
	.st18{fill:#6E6F72;}
	.st19{fill:#434243;}
	.st20{fill:#FCE583;}
	.st21{fill:url(#SVGID_6_);}
	.st22{fill:url(#SVGID_7_);}
	.st23{fill:url(#SVGID_8_);}
	.st24{fill:#F16A26;}
	.st25{fill:#F4AF6E;}
	.st26{fill:url(#SVGID_9_);}
	.st27{fill:url(#SVGID_10_);}
	.st28{fill:#0B0B0B;}
	.st29{fill:#A84A26;}
	.st30{fill:#2D415A;}
	.st31{fill:#F89A20;}
	.st32{fill:url(#SVGID_11_);}
	.st33{fill:#737375;}
	.st34{fill:#F0924A;}
	.st35{fill:#343128;}
	.st36{fill:#F79A20;}
	.st37{fill:#3C4B61;}
	.st38{fill:#1F2838;}
	.st39{fill:#39322A;}
	.st40{fill:#D94127;}
	.st41{fill:#D5A688;}
	.st42{fill:url(#SVGID_12_);}
	.st43{fill:#E26526;}
	.st44{fill:#363029;}
	.st45{fill:#39332A;}
	.st46{fill:#3C362D;}
	.st47{fill:#EC7B2B;}
	.st48{fill:url(#SVGID_13_);}
	.st49{opacity:0.8;fill:url(#SVGID_14_);enable-background:new    ;}
	.st50{fill:url(#SVGID_15_);}
	.st51{opacity:0.3;}
	.st52{fill:url(#SVGID_16_);}
	.st53{fill:url(#SVGID_17_);}
	.st54{fill:url(#SVGID_18_);}
	.st55{fill:#050505;}
	.st56{opacity:0.7;fill:#FFFFFF;enable-background:new    ;}
	.st57{fill:url(#SVGID_19_);}
	.st58{fill:url(#SVGID_20_);}
	.st59{fill:url(#SVGID_21_);}
	.st60{opacity:0.8;fill:url(#SVGID_22_);enable-background:new    ;}
	.st61{opacity:0.4;fill:url(#SVGID_23_);enable-background:new    ;}
	.st62{fill:url(#SVGID_24_);}
	.st63{fill:url(#SVGID_25_);}
	.st64{fill:url(#SVGID_26_);}
	.st65{fill:url(#SVGID_27_);}
	.st66{fill:url(#SVGID_28_);}
	.st67{fill:#F9A14B;}
	.st68{fill:#ED7626;}
	.st69{fill:#DC4427;}
	.st70{opacity:0.5;fill:url(#SVGID_29_);enable-background:new    ;}
	.st71{fill:url(#SVGID_30_);}
	.st72{fill:#475F78;}
	.st73{fill:url(#SVGID_31_);}
	.st74{fill:url(#SVGID_32_);}
	.st75{fill:url(#SVGID_33_);}
	.st76{fill:url(#SVGID_34_);}
	.st77{fill:url(#SVGID_35_);}
	.st78{fill:url(#SVGID_36_);}
	.st79{fill:url(#SVGID_37_);}
	.st80{fill:url(#SVGID_38_);}
	.st81{fill:url(#SVGID_39_);}
	.st82{fill:url(#SVGID_40_);}
	.st83{fill:url(#SVGID_41_);}
	.st84{fill:url(#SVGID_42_);}
	.st85{fill:url(#SVGID_43_);}
	.st86{fill:url(#SVGID_44_);}
	.st87{fill:url(#SVGID_45_);}
	.st88{fill:url(#SVGID_46_);}
	.st89{fill:url(#SVGID_47_);}
	.st90{fill:url(#SVGID_48_);}
	.st91{fill:url(#SVGID_49_);}
	.st92{fill:url(#SVGID_50_);}
	.st93{fill:url(#SVGID_51_);}
	.st94{fill:url(#SVGID_52_);}
	.st95{fill:url(#SVGID_53_);}
	.st96{fill:url(#SVGID_54_);}
	.st97{fill:url(#SVGID_55_);}
	.st98{fill:url(#SVGID_56_);}
	.st99{fill:url(#SVGID_57_);}
	.st100{fill:url(#SVGID_58_);}
	.st101{fill:url(#SVGID_59_);}
	.st102{fill:url(#SVGID_60_);}
	.st103{fill:url(#SVGID_61_);}
	.st104{fill:url(#SVGID_62_);}
	.st105{fill:url(#SVGID_63_);}
	.st106{fill:url(#SVGID_64_);}
	.st107{fill:url(#SVGID_65_);}
	.st108{fill:url(#SVGID_66_);}
	.st109{fill:url(#SVGID_67_);}
	.st110{fill:url(#SVGID_68_);}
	.st111{fill:url(#SVGID_69_);}
	.st112{fill:url(#SVGID_70_);}
	.st113{fill:url(#SVGID_71_);}
	.st114{fill:url(#SVGID_72_);}
	.st115{fill:url(#SVGID_73_);}
	.st116{fill:url(#SVGID_74_);}
	.st117{fill:url(#SVGID_75_);}
	.st118{fill:url(#SVGID_76_);}
	.st119{fill:url(#SVGID_77_);}
	.st120{fill:url(#SVGID_78_);}
	.st121{fill:#E26026;}
	.st122{fill:#B25A28;}
	.st123{fill:url(#SVGID_79_);}
	.st124{fill:url(#SVGID_80_);}
	.st125{fill:#FFE0BB;}
	.st126{fill:#FEE2C9;}
	.st127{fill:url(#XMLID_2_);}
	.st128{fill:url(#SVGID_81_);}
	.st129{fill:url(#SVGID_82_);}
	.st130{fill:url(#SVGID_83_);}
	.st131{fill:url(#SVGID_84_);}
	.st132{fill:url(#SVGID_85_);}
	.st133{fill:url(#SVGID_86_);}
	.st134{fill:url(#SVGID_87_);}
	.st135{fill:url(#SVGID_88_);}
	.st136{fill:url(#SVGID_89_);}
	.st137{fill:url(#SVGID_90_);}
	.st138{fill:url(#SVGID_91_);}
	.st139{fill:url(#SVGID_92_);}
	.st140{fill:url(#SVGID_93_);}
	.st141{fill:url(#SVGID_94_);}
</style>
<g>
	<rect x="385.5" y="835.2" class="st0" width="170.5" height="22.8"/>
	<ellipse class="st1" cx="406.6" cy="865.8" rx="26" ry="27.7"/>
	
		<linearGradient id="SVGID_1_" gradientUnits="userSpaceOnUse" x1="186.5894" y1="669.7963" x2="228.6114" y2="669.7963" gradientTransform="matrix(1 0 0 1 204 196)">
		<stop  offset="0" style="stop-color:#282560"/>
		<stop  offset="1" style="stop-color:#2A3B8F"/>
	</linearGradient>
	<ellipse class="st2" cx="411.6" cy="865.8" rx="21" ry="25.8"/>
	<ellipse class="st3" cx="411.6" cy="865.8" rx="10.5" ry="12.9"/>
	<path class="st4" d="M411.6,865.9L411.6,865.9L411.6,865.9z"/>
	<path class="st4" d="M411.6,865.9l8.6-4.9c-1.5-4-4.8-6.7-8.6-6.7V865.9L411.6,865.9z"/>
	<path class="st5" d="M420.1,870.8c0.6-1.5,0.9-3.2,0.9-5c0-1.7-0.3-3.4-0.9-4.9l-8.6,4.9L420.1,870.8z"/>
	<path class="st4" d="M411.6,865.9l-8.6-4.9c-0.6,1.5-0.9,3.1-0.9,4.9c0,1.8,0.3,3.5,0.9,5L411.6,865.9L411.6,865.9z"/>
	<path class="st4" d="M411.6,865.9L411.6,865.9v11.6c3.8,0,7-2.7,8.5-6.6L411.6,865.9z"/>
	<path class="st5" d="M411.6,854.2c-3.8,0-7.1,2.8-8.6,6.7l8.6,4.9V854.2z"/>
	<path class="st5" d="M403.1,870.8c1.5,3.9,4.8,6.6,8.5,6.6v-11.6L403.1,870.8z"/>
	<path class="st1" d="M321.5,862.5c0-9.2-4.3-17.2-10.5-21.1c-3.8-2.7-8.4-4.4-13.3-4.4c-13.2,0-23.8,11.4-23.8,25.4
		c0,14,10.7,25.4,23.8,25.4c4.9,0,9.5-1.6,13.3-4.4C317.3,879.6,321.5,871.7,321.5,862.5z"/>
	<ellipse class="st1" cx="528.6" cy="862.4" rx="22.8" ry="24.4"/>
	
		<linearGradient id="SVGID_2_" gradientUnits="userSpaceOnUse" x1="310.5654" y1="666.4218" x2="347.4664" y2="666.4218" gradientTransform="matrix(1 0 0 1 204 196)">
		<stop  offset="0" style="stop-color:#282560"/>
		<stop  offset="1" style="stop-color:#2A3B8F"/>
	</linearGradient>
	<path class="st6" d="M533,839.7c10.2,0,18.5,10.2,18.5,22.7c0,12.5-8.3,22.7-18.5,22.7c-10.2,0-18.5-10.2-18.5-22.7
		C514.6,849.9,522.8,839.7,533,839.7z"/>
	<ellipse class="st3" cx="533" cy="862.4" rx="9.2" ry="11.3"/>
	<path class="st4" d="M533,862.5L533,862.5L533,862.5z"/>
	<path class="st4" d="M533,862.5l7.5-4.3c-1.3-3.5-4.2-5.9-7.5-5.9V862.5L533,862.5z"/>
	<path class="st7" d="M540.5,866.8c0.5-1.3,0.8-2.8,0.8-4.4c0-1.5-0.3-3-0.8-4.3l-7.5,4.3L540.5,866.8z"/>
	<path class="st4" d="M533,862.5l-7.5-4.3c-0.5,1.3-0.8,2.8-0.8,4.3c0,1.6,0.3,3,0.8,4.4L533,862.5L533,862.5z"/>
	<path class="st4" d="M533,862.5L533,862.5v10.2c3.3,0,6.2-2.4,7.5-5.8L533,862.5z"/>
	<path class="st7" d="M533,852.2c-3.3,0-6.2,2.4-7.5,5.9l7.5,4.3V852.2z"/>
	<path class="st7" d="M525.5,866.8c1.3,3.4,4.2,5.8,7.5,5.8v-10.2L525.5,866.8z"/>
	
		<linearGradient id="SVGID_3_" gradientUnits="userSpaceOnUse" x1="160.1988" y1="577.6118" x2="358.2691" y2="577.6118" gradientTransform="matrix(1 0 0 1 204 196)">
		<stop  offset="0" style="stop-color:#F15B2A"/>
		<stop  offset="1" style="stop-color:#F69321"/>
	</linearGradient>
	<path class="st8" d="M553.3,785.5c7-92-4.9-100.3-4.9-100.3l-122-0.1c0,0-36.3,9.3-37.4,100.7c0,0-29.1,18.7-24.4,76.3l24.4-0.2
		c0.7-13.7,10.6-24.6,22.8-24.6c12.1,0,21.9,10.7,22.8,24.3l72.8-0.5c1.1-13.3,10.8-23.8,22.7-23.8c11.8,0,21.5,10.3,22.7,23.5
		l9.2-0.1C563.5,800.4,553.3,785.5,553.3,785.5z"/>
	
		<linearGradient id="SVGID_4_" gradientUnits="userSpaceOnUse" x1="226.3594" y1="577.3998" x2="358.2691" y2="577.3998" gradientTransform="matrix(1 0 0 1 204 196)">
		<stop  offset="0" style="stop-color:#F15B2A"/>
		<stop  offset="1" style="stop-color:#F69321"/>
	</linearGradient>
	<path class="st9" d="M507.5,861.1c1.1-13.3,10.8-23.8,22.7-23.8c11.8,0,21.5,10.3,22.7,23.5l9.2-0.1c1.3-60.3-8.8-75.2-8.8-75.2
		c7-92-4.9-100.3-4.9-100.3l-29,0c-33.6,16.1-42.9,40.5-37.4,85.1c4.2,33.7-10.1,64.9-51.6,77.7c2.5,3.9,4,8.5,4.4,13.6L507.5,861.1
		z"/>
	
		<linearGradient id="SVGID_5_" gradientUnits="userSpaceOnUse" x1="52.244" y1="577.6113" x2="222.4714" y2="577.6113" gradientTransform="matrix(1 0 0 1 204 196)">
		<stop  offset="0" style="stop-color:#F15B2A"/>
		<stop  offset="1" style="stop-color:#F69321"/>
	</linearGradient>
	<path class="st10" d="M256.8,862.1c-4.7-57.6,24.4-76.3,24.4-76.3c1-91.3,37.4-100.7,37.4-100.7h108c0,0-36.3,9.3-37.4,100.7
		c0,0-29.1,18.7-24.4,76.3H256.8z"/>
	<path class="st11" d="M305.9,702.9c-8.8,14-17.4,38.7-18,82h95c0.6-43.3,9.2-68,18-82H305.9L305.9,702.9z"/>
	<path class="st12" d="M400.9,702.9h-41.2v82h23.2C383.5,741.5,392.1,716.8,400.9,702.9z"/>
	<path class="st12" d="M434.8,702.9h-19.4c-8.8,14-17.4,38.7-18,82h37.4L434.8,702.9L434.8,702.9z"/>
	<g>
		<path class="st0" d="M264.7,846.9c0,2.2,1.9,4.1,4.1,4.1h3.7c2.2,0,4.1-1.8,4-4.1l0.1-6.7c0.1-2.2-1.6-4.1-3.9-4.1h-3.7
			c-2.2,0-4.2,1.8-4.3,4.1L264.7,846.9z"/>
		<path class="st0" d="M266.1,829.1c-0.4,2.2,1.1,4,3.3,4h3.7c2.2,0,4.4-1.8,4.8-4l2.4-10c0.7-2.1-0.6-3.9-2.8-3.9h-3.7
			c-2.2,0-4.6,1.7-5.3,3.9L266.1,829.1z"/>
		<path class="st13" d="M263,846.9c0,2.2,1.9,4.1,4.1,4.1h3.7c2.2,0,4.1-1.8,4-4.1l0.1-6.7c0.1-2.2-1.6-4.1-3.9-4.1h-3.7
			c-2.2,0-4.2,1.8-4.3,4.1L263,846.9z"/>
		<path class="st14" d="M264.4,829.1c-0.4,2.2,1.1,4,3.3,4h3.7c2.2,0,4.4-1.8,4.8-4l2.4-10c0.7-2.1-0.6-3.9-2.8-3.9h-3.7
			c-2.2,0-4.6,1.7-5.3,3.9L264.4,829.1z"/>
	</g>
	<g>
		<path class="st0" d="M348.3,846.9c0,2.2,1.9,4.1,4.1,4.1h3.7c2.2,0,4.1-1.8,4-4.1l0.1-6.7c0.1-2.2-1.6-4.1-3.9-4.1h-3.7
			c-2.2,0-4.2,1.8-4.3,4.1L348.3,846.9z"/>
		<path class="st0" d="M349.7,829.1c-0.4,2.2,1.1,4,3.3,4h3.7c2.2,0,4.4-1.8,4.8-4l2.3-10c0.7-2.1-0.6-3.9-2.8-3.9h-3.7
			c-2.2,0-4.6,1.7-5.3,3.9L349.7,829.1z"/>
		<path class="st13" d="M346.6,846.9c0,2.2,1.9,4.1,4.1,4.1h3.7c2.2,0,4.1-1.8,4-4.1l0.1-6.7c0.1-2.2-1.6-4.1-3.9-4.1h-3.7
			c-2.2,0-4.2,1.8-4.3,4.1L346.6,846.9z"/>
		<path class="st14" d="M347.9,829.1c-0.4,2.2,1.1,4,3.3,4h3.7c2.2,0,4.4-1.8,4.8-4l2.4-10c0.7-2.1-0.6-3.9-2.8-3.9h-3.7
			c-2.2,0-4.6,1.7-5.3,3.9L347.9,829.1z"/>
	</g>
	<g>
		<path class="st0" d="M406.6,797.7c0,1.9-1.5,3.5-3.5,3.5h-7.3c-1.9,0-3.5-1.5-3.5-3.5l0,0c0-1.9,1.5-3.5,3.5-3.5h7.3
			C405,794.2,406.6,795.8,406.6,797.7L406.6,797.7z"/>
		<path class="st14" d="M404.7,797.7c0,1.9-1.5,3.5-3.5,3.5h-7.3c-1.9,0-3.5-1.5-3.5-3.5l0,0c0-1.9,1.5-3.5,3.5-3.5h7.3
			C403.1,794.2,404.7,795.8,404.7,797.7L404.7,797.7z"/>
	</g>
	<g>
		<path class="st15" d="M322.4,785.1c0,0-2.8-21.3,2.6-27.7c0,0,1.6-15.6,4.3-17.2c2.7-1.6,21.5,0,21.5,0s3.8,8.6,0,16.7l1.6,28.6
			L322.4,785.1z"/>
		<path class="st4" d="M312.7,784.8c0,0-0.9-22.7,7.7-30.3c0,0-0.9-13.1,1.8-14.7c2.7-1.6,21.5,0,21.5,0s5,8.6,1.3,16.7l0.4,28.6
			L312.7,784.8z"/>
	</g>
	<path class="st4" d="M387.2,740c0,0-6.8-0.4-12.2-0.6c-4.7-0.2-9.5-0.1-10.7,0.6c-2.7,1.6-1.8,14.7-1.8,14.7
		c-8.6,7.5-7.7,30.3-7.7,30.3l9.4,0.1h8.9h9.8c0.2-17,1.7-31.2,3.9-42.9C387.1,740.7,387.2,740,387.2,740z"/>
	<path class="st16" d="M306.8,785.1c0.4-7.4,5.8-13.3,12.5-13.3c6.7,0,12.2,5.9,12.5,13.3h5.7c-0.4-10.9-8.4-19.7-18.2-19.7
		c-9.8,0-17.8,8.8-18.2,19.7H306.8z"/>
	<g>
		<g>
			<path class="st0" d="M281.8,838.4c-0.3,5.8,4.3,10.6,10.1,10.6h39.5c5.8,0,10.8-4.7,11-10.6c0,0,0.2-5.7,0.7-11.1
				c0.5-5.4-3.8-9.9-9.6-9.9h-39.5c-5.8,0-11,4.4-11.5,9.9C282,832.6,281.8,838.4,281.8,838.4z"/>
		</g>
		<g>
			<path class="st17" d="M280.6,837.8c-0.3,5.8,4.3,10.5,10.1,10.5h39.5c5.8,0,10.8-4.7,11-10.5c0,0,0.2-5.7,0.7-11.1
				c0.5-5.4-3.8-9.9-9.6-9.9h-39.5c-5.8,0-11,4.4-11.5,9.9C280.8,832.1,280.6,837.8,280.6,837.8z"/>
		</g>
		<g>
			<path class="st4" d="M335.2,844.6h-50c-0.1,0-0.2-0.1-0.2-0.3c0-0.1,0.1-0.3,0.2-0.3h50c0.1,0,0.2,0.1,0.2,0.3
				C335.4,844.4,335.3,844.6,335.2,844.6z"/>
		</g>
		<g>
			<path class="st4" d="M339.1,838.8h-56.6c-0.1,0-0.2-0.1-0.2-0.3c0-0.1,0.1-0.3,0.2-0.3h56.6c0.1,0,0.2,0.1,0.2,0.3
				C339.3,838.7,339.2,838.8,339.1,838.8z"/>
		</g>
		<g>
			<path class="st4" d="M339.6,833.1h-56.9c-0.1,0-0.2-0.1-0.2-0.3c0-0.1,0.1-0.3,0.2-0.3h56.9c0.1,0,0.2,0.1,0.2,0.3
				C339.7,832.9,339.7,833.1,339.6,833.1z"/>
		</g>
		<g>
			<path class="st4" d="M340,827.3h-56.6c-0.1,0-0.2-0.1-0.2-0.3s0.1-0.3,0.2-0.3H340c0.1,0,0.2,0.1,0.2,0.3
				C340.2,827.2,340.1,827.3,340,827.3z"/>
		</g>
		<g>
			<path class="st4" d="M336.2,821.6h-48.3c-0.1,0-0.1-0.1-0.1-0.3s0.1-0.3,0.1-0.3h48.3c0.1,0,0.2,0.1,0.2,0.3
				C336.3,821.5,336.2,821.6,336.2,821.6z"/>
		</g>
	</g>
	<path class="st18" d="M364.5,857.4H254.2c0,0,0.1,13.2,4.7,19.3h105.6V857.4z"/>
	<path class="st19" d="M385.8,857.4h-2.1H380h-2.1h-5.6h-2.1h-3.7h-2.1v19.3h2.1h3.7h1.7h0.5h1.7h3.7h2.1
		C385.5,871.4,385.9,860.6,385.8,857.4z"/>
	<path class="st20" d="M557.1,730.6c0.3-0.5,0.2-0.5,0.4-0.7c0.2-0.2,1.1-0.9,1.5-1c0.4-0.1,0.2,0.6,0,0.7c-0.2,0.1-0.8,0.5-0.8,0.5
		l-0.6,0.3L557.1,730.6z"/>
	
		<linearGradient id="SVGID_6_" gradientUnits="userSpaceOnUse" x1="343.9721" y1="634.8392" x2="377.7324" y2="634.8392" gradientTransform="matrix(1 0 0 1 204 196)">
		<stop  offset="0" style="stop-color:#282560"/>
		<stop  offset="1" style="stop-color:#2A3B8F"/>
	</linearGradient>
	<path class="st21" d="M565.6,826.5c-0.7-4.2-1.2-8.5-2-12.7c-0.1,0-0.2,0-0.2,0c-0.2,1.4-0.3,2.8-0.5,4.1
		c-0.5,3.8-0.4,7.7-0.7,11.5c-0.6,7.1-2.2,51.4-2.2,53.4c0,0.6-0.2,1.2-0.4,1.8c-1.5-0.7-2.8-1.6-4.1-2.5c-0.1-0.1-0.1-0.2-0.1-0.3
		c0.1-2.7,0.2-5.5,0.4-8.2c0.1-1.7,0.2-3.3,0.2-5c0.1-2.4,0.1-4.7,0.3-7.1c0.4-8.1,0.3-16.1,0.4-24.2c0-1.6,0.1-3.2,0.4-4.8
		c0.3-1.9,0.2-3.9,0.1-5.8c-0.1-1.8-0.3-3.5-0.4-5.3c0-0.8-0.4-1.3-1-1.7c-1-0.6-2-1.1-3.1-1.5c-0.9-0.3-1.3-1-1.3-1.9
		c-0.2-3-3-15.8-3.2-18.7c-0.2-2.7,2.9-4.1,2.4-5.1c-0.2-0.5,0.2-0.9,0.5-1.2c2.2-1.9,4.4-3.7,6.8-5.2c2.9-1.8,5.5-4.1,8.2-6.3
		c0.5-0.4,0.9-0.8,1.4-1.2c1-0.8,2-1.6,2.8-2.8c0.2-0.4,0.4-0.8,1-0.8c0.4,0.2,0.3,0.6,0.4,0.9c0.4,2,1,4,2.3,5.7
		c1,1.3,2.3,1.8,3.9,1.6c0.5-0.1,0.8-0.3,1-0.7c0.2-0.4,0.4-0.8,0.4-1.3c0.1-0.6,0.2-1.1,0.2-1.7c0-0.4,0.1-0.7,0.4-1
		c0.6,0.9,0.5,1.9,0.6,2.9c0.6,5.5,0.2,11,0.3,16.5c0,4.4-0.3,33.6-0.4,40.1c0,2.4,0.2,4.8,0.2,7.2c0.1,4.3,1.3,27.1,1.5,34.2
		c0.1,2.1,0.2,4.3,0,6.5c0,0.2-0.1,0.5-0.2,0.7c-0.1-0.1-0.2-0.2-0.2-0.3c0.1-1.2-0.7-1.6-1.6-2c-1.1-0.5-2.1-1.1-3.2-1.5
		c-0.3-0.1-0.7-0.3-0.8-0.7c-0.1-0.5-0.1-0.9-0.1-1.4c0.1-3.5-0.1-6.9-0.2-10.4c-0.2-4.3-0.4-8.7-0.6-13c-0.1-2-0.2-4.1-0.3-6.1
		c-0.1-4.5-0.3-8.9-0.4-13.4c-0.1-3-1.9-5-4.1-6.7c-0.5-0.4-1-0.7-1.5-1C567.1,829.3,566.3,827.9,565.6,826.5z"/>
	
		<linearGradient id="SVGID_7_" gradientUnits="userSpaceOnUse" x1="343.843" y1="641.1199" x2="353.5231" y2="641.1199" gradientTransform="matrix(1 0 0 1 204 196)">
		<stop  offset="0" style="stop-color:#282560"/>
		<stop  offset="1" style="stop-color:#2A3B8F"/>
	</linearGradient>
	<path class="st22" d="M550.4,792.1c0.7,0.9-1.6,1.9-1.6,3.1c0.1,2.9,2.7,20.1,2.7,21.5c0,0.7,0.5,1,1.1,1.2
		c1.2,0.5,2.3,1.1,3.4,1.7c0.7,0.4,1.5,1,1.5,1.7c0.1,2.7-0.7,25.2-0.7,29.6c0,2.8-0.2,5.6-0.2,8.5c-0.1,3.1-0.2,6.2-0.4,9.4
		c-0.1,3.8-0.5,7.7-0.5,11.5c0,0.6-0.2,1.2-0.2,1.8c-0.3,0.2-0.5,0.1-0.8,0c-1.2-0.5-2.4-0.8-3.7-1c-0.5-0.1-0.9-0.2-1.1-0.7
		c0.3-0.3,0.3-0.7,0.2-1.1c-0.3-4.1-0.6-8.1-1-12.2c-0.3-3.9-0.5-7.8-0.6-11.8c-0.2-6.6-0.3-13.3-0.6-19.9c-0.4-8.7,0.2-17.4,0.2-26
		c0-1.3,0.3-2.7,0.1-4c-0.6-3.6,0.1-7.3-0.3-10.9c0-0.1-0.1-0.1-0.1-0.2C548.5,793.3,549.1,792.3,550.4,792.1z"/>
	
		<linearGradient id="SVGID_8_" gradientUnits="userSpaceOnUse" x1="361.5914" y1="658.3906" x2="371.9933" y2="658.3906" gradientTransform="matrix(1 0 0 1 204 196)">
		<stop  offset="0" style="stop-color:#282560"/>
		<stop  offset="1" style="stop-color:#2A3B8F"/>
	</linearGradient>
	<path class="st23" d="M565.6,826.5c0.6,0.5,6.4,5.8,7.6,7.3c0.6,0.7,0.8,1.5,1,2.4c0.6,2,0.1,4.1,0.3,6.1c0.2,2.2,0,4.4,0.2,6.6
		c0.2,2.8,0.2,5.6,0.4,8.5c0.1,2.6,0.2,5.2,0.4,7.7c0.2,3,0.2,6,0.4,9c0.2,2.7,0.1,5.5,0.1,8.2c-0.8,0.3-1.4-0.4-2.2-0.6
		c-0.4-0.2-0.7-0.1-1.1-0.1c-1-0.3-2.1-0.3-3.1,0c-0.4,0.1-0.7,0.1-1-0.3c-0.8-0.6-0.7-1.5-0.7-2.3c0.3-8.1-0.9-42.7-1.3-45.4
		C566.3,831.2,565.9,828.8,565.6,826.5z"/>
	<path class="st24" d="M548.4,737.5c0.3,0.5,0,1,0,1.5c-0.1,2.9,0.5,5.7,1.4,8.4c0.7,2.1,0.6,4.2,0.4,6.3c-0.3,2.7-0.5,5.4-0.7,8.2
		c-0.2,3-0.2,6.1-0.1,9.1c0,1.7,0.1,3.3,0.2,5c0,0.2,0.1,0.5,0.1,0.7c0.5,0.9,0.2,1.9,0.4,2.8c0,0.1,0,0.2,0,0.3
		c0.4,1.5,0,2.8-1.4,3.7c-0.5,0.3-0.6,1-0.5,1.7c0.1,0.5,0.1,0.9-0.4,1.2c-0.3-0.4-0.1-0.8-0.2-1.2c-1-5.9-0.7-11.8-0.7-17.7
		c0-0.8-0.3-1.2-1-1.3c-1.4-0.2-2.7-0.6-3.9-1.2c-0.3-0.2-0.5-0.1-0.8,0.1c-1,0.8-2,1-3.1,0.4c-1.1-0.6-1.6-1.6-1.3-2.8
		c0.6-2.6,0.4-5.3,1.3-7.9c1.7-5.1,4.2-9.8,7-14.3C545.8,739.2,546.8,738,548.4,737.5z"/>
	<path class="st25" d="M549.7,706.3c0.1-0.4,0.2-0.8,0.3-1.2c0.1-0.1,0-0.1,0.1,0c0.9,0.1,1.5,0.5,2.3,0.6c1.2,0.1,2.3,0.1,3.5,0.3
		c0.3,0.1,0.6,0.1,0.8,0.4c0.1,0.5-0.3,0.5-0.6,0.6c-0.3,0.1-0.2,0.3-0.1,0.4c-0.4,1.3,0.3,2.1,1.3,2.7c0.5,0.7,0.8,0.6,1.5,0.6
		c0.7-0.7,0.9-1.6,1.2-2.5c0-0.4-0.2-0.5-0.5-0.7c-0.2-0.1-0.5-0.2-0.4-0.6c0.3-0.2,0.6-0.1,0.9,0c1.4,0.4,2.7,0.8,4,1.2
		c0.7,0.2,2.1,0.4,2,1.1c0,0.4-0.4,1-0.4,1.4c0,0.7-0.5,1.5-0.6,2.2c-0.1,0.3-0.5,0.7,0,0.7c0.4,0,0.5,0.4,0.5,0.7
		c0,1.4,0.1,2.9-0.1,4.3c-0.1,0.5-0.2,0.9-0.5,1.3c-1.7,1.8-3.2,3.7-5.5,4.8c-1.4,0.7-2.9,1.3-4.6,1.4c-0.9,0.1-1.6-0.2-2.4-0.3
		c-0.7-0.4-1.3-1-1.5-1.8c-0.2-0.8-0.5-1.6-0.8-2.3c-1.1-2.6-1.5-5.3-1.2-8.1c0.1-1.2,0.3-2.3,0.5-3.5c-0.1-2.5,0.9-2,1.1-1.7
		c0.2,0.4,0.9,0.8,1.3,0.9c0.3,0.2-0.5,2.3-0.6,2.5c-0.2,0.5-0.3,0.9-0.5,1.4c-0.4,1.2,0.3,1.3,0.4,0.6c0.2-1,0.5-1.9,0.7-2.9
		c0.2-0.9,0.3-1.8,0-2.7C551.4,707,550.6,706.7,549.7,706.3z"/>
	
		<linearGradient id="SVGID_9_" gradientUnits="userSpaceOnUse" x1="347.7894" y1="505.2935" x2="368.6008" y2="505.2935" gradientTransform="matrix(1 0 0 1 204 196)">
		<stop  offset="0" style="stop-color:#F15B2A"/>
		<stop  offset="1" style="stop-color:#F69321"/>
	</linearGradient>
	<path class="st26" d="M551.8,697.6c0.3,0,0.4-0.7,0.5-0.9c2.5-4.3,6-7.3,12.7-3.4c10.6,6.2,7.1,16.7,6.7,17.2
		c-0.3,0.5-0.6,0.6-1.1,0.5c-0.3,0.1-0.2-0.1-0.3-0.2c0.2-0.3,0.3-0.6-0.2-0.8c-0.3-0.2-0.5-0.4-0.8-0.5c-0.3-0.2-0.6-0.4-1-0.6
		c-1.4-0.9-2.9-1.5-4.5-2.1c-0.3-0.1-0.6-0.2-0.9-0.4c-0.8-1-1.4-2.2-2.2-3.2c-2.1-2.9-5-4.3-8.2-5.5
		C552.3,697.6,551.9,698,551.8,697.6z"/>
	
		<linearGradient id="SVGID_10_" gradientUnits="userSpaceOnUse" x1="347.7904" y1="502.9386" x2="361.7644" y2="502.9386" gradientTransform="matrix(1 0 0 1 204 196)">
		<stop  offset="0" style="stop-color:#282560"/>
		<stop  offset="1" style="stop-color:#2A3B8F"/>
	</linearGradient>
	<path class="st27" d="M562.6,692.2c-5.2-2-8.1,0.8-10.3,4.5c-0.1,0.2-0.2,0.9-0.5,0.9c0.1,0.4,0.6,0,0.8,0.1
		c3.2,1.1,6.2,2.6,8.2,5.5c0.8,1,1.3,2.2,2.2,3.2c0,0,0,0,0,0c0,0,0-0.1,0-0.1C564.1,700.9,568.9,694.6,562.6,692.2z"/>
	<path class="st28" d="M550.2,880.5c0.9,0.1,3.9,1.1,5.3,1.6c1.4,0.8,2.8,1.5,4,2.5c0.6,1.1,0.3,2.2,0,3.3c-0.1,0.4-0.5,0.6-0.9,0.6
		c-5.6,0-11.3,0-16.9,0c-0.5,0-1.4-1.1-1.5-1.9c-0.1-0.8,0-1.6,0.9-2c0.9-0.4,1.9-0.8,2.8-1.1c1.3-0.4,2.5,0,3.5,0.7
		c0.8,0.5,1.3,0.4,2,0c0.9-0.6,1.9-1.1,2.8-1.8c-0.7-0.6-1.5-0.8-2.2-1.1c-0.3-0.1-0.7,0.5-0.5-0.1
		C549.6,881.1,550,880.6,550.2,880.5z"/>
	<path class="st28" d="M573.8,881.5c0.8,0.1,1.4,0.6,2.2,0.7c1.3,0.7,2.6,1.3,3.9,1.9c1.2,0.6,1.8,1.2,1.6,2.5
		c-0.1,1.6-0.3,1.9-1.9,1.9c-5.3,0-10.5,0-15.8,0c-0.7,0-1.7-0.9-1.9-1.8c-0.2-1,0.1-1.8,1-2.2c0.9-0.4,1.7-0.7,2.6-1
		c1.3-0.4,2.5,0.1,3.6,0.7c0.7,0.4,1.2,0.4,1.8,0c0.6-0.5,1.3-0.9,2-1.3c0.9-0.5,0.9-0.5,0.4-1.3
		C573.5,881.4,573.6,881.4,573.8,881.5z"/>
	<path class="st29" d="M574.6,768.1c1,0.2,1.9,0.5,2.7,0.9c0.5,0.2,0.7,0.2,0.9-0.4c0.5-1.8,1.1-4.6,1.5-6.4
		c0.2,0.7-0.1,8.1-0.3,11.2c-0.2,0.5-0.5,0.8-0.9,1.1c-1.2,1-2.4,2.1-3.6,3.1c-0.4,0.3-0.5,0.7-0.3,1.2c0.4,0.8,0.8,1.6,1.3,2.4
		c0.6,0.9,1.2,1,2.2,0.5c0.3-0.2,0.6-0.5,1-0.4c-0.2,2.2-2.5,3.1-4.4,1.7c-1.3-1-2.1-2.3-2.7-3.8c-0.5-1.3-0.8-2.7-1.1-4.1
		C572.4,772.9,573.5,770.5,574.6,768.1z"/>
	<path class="st16" d="M568.5,708.7c-0.2,0.1-0.4,0.2-0.7,0.3c-0.7,0-1.2-0.5-1.9-0.8c-0.4-0.2-0.8-0.4-1.3-0.5
		c-2.7-0.9-5.5-1.8-8.2-2.8c-1.4-0.5-2.6-1.2-3.5-2.4c-0.6-0.9-1.9-0.6-2.3,0.4c-0.2,0.5-0.3,1-0.4,1.4c-0.1,0.3,0.3,0.8-0.1,0.9
		c-0.1,0-0.1,0-0.2,0c-2.7-1-5-3-5.9-5.7c-0.4-1.2-0.3-2.5,0.8-3.5c0.9-0.7,1.9-0.5,2.8-0.1c1.6,0.6,2.8,1.7,3.8,3
		c0.8,1,11.1,6.9,11.3,7.1C564.8,707.1,566.6,707.6,568.5,708.7z"/>
	<path class="st25" d="M559.1,727.5c0,0.5,1.4,1.3,1.7,1.2c1.5-0.5,2.9-1.2,4.2-2.1c0.1-0.1,0.2-0.3,0.4-0.2
		c0.2,0.1,0.2,0.3,0.2,0.5c0,0.7-0.1,1.4-0.1,2.1c-0.1,2-1,0.4-0.6,2.6c0.1,0.4-0.2,0.6-0.5,0.8c-0.9,0.7-1.8,1.3-2.9,1.8
		c-1.4,0.7-2.4,0.3-3.3-0.9c-0.7-1.1-1.3-1.8-0.7-3.2c0,0.1,0.9-0.6,1.3-1C558.8,728.8,559,727.7,559.1,727.5z"/>
	<path class="st24" d="M563.1,706.2c-2.5-0.6-4.8-1.6-7.2-2.5c-0.9-0.4-1.6-1.1-2.3-1.9c-1-1.3-2-2.6-3.1-3.8
		c-1.1-1.2-2.6-2-4.2-2.2c-0.4-0.1-1.2,0.2-1.8,0.9c0.5-1.2,1.8-1.5,2.7-1.2c1.5,0.5,3,1.1,4.6,1.7c2.2,0.6,4.2,1.5,6.1,2.7
		c1.7,1.1,3,2.7,4,4.4C562.3,705,562.8,705.5,563.1,706.2z"/>
	<path class="st30" d="M547.8,786.4c0.1-0.2,0.2-0.5,0.1-0.7c-0.4-1.5,0.4-2.4,1.5-3.2c0.5-0.3,0.6-0.8,0.5-1.4
		c-0.2-1.4-0.4-2.9-0.3-4.3c1.2-0.7,2.3-1.3,3.8-1.3c1.4,0,2.6,0.4,3.7,1.2c0.2,0.2,0.5,0.4,0.7,0.4c-1.1,1.2-2.2,2.5-3.3,3.6
		c-2.3,2.3-4.6,4.5-6.9,6.8C547.7,787.1,547.8,786.7,547.8,786.4z"/>
	<path class="st31" d="M573.8,732.1c-1.5,1.1-2.8,2.4-3.8,3.9c-0.4,0.2-0.7,0.3-1.1,0.2c-2.2-0.2-4.3-0.2-6.5-0.6
		c-0.5-0.2-0.2-0.5,0-0.6c0.4-0.3,0.8-0.5,1.2-0.7c1.9-1.1,3.5-2.7,5.2-4.2c0.2-0.2,0.3-0.4,0.5-0.7c0.1-0.2,0.3-0.4,0.6-0.2
		C571.2,730,572.5,731,573.8,732.1z"/>
	
		<linearGradient id="SVGID_11_" gradientUnits="userSpaceOnUse" x1="370.1878" y1="581.8225" x2="375.4594" y2="581.8225" gradientTransform="matrix(1 0 0 1 204 196)">
		<stop  offset="0" style="stop-color:#F15B2A"/>
		<stop  offset="1" style="stop-color:#F69321"/>
	</linearGradient>
	<path class="st32" d="M579.1,781.2c-0.3,0.2-0.5,0.4-0.8,0.6c-1,0.7-1.9,0.5-2.5-0.5c-0.5-0.8-0.9-1.7-1.4-2.5
		c-0.3-0.6-0.3-1,0.3-1.4c1.6-1.3,3.2-2.7,4.8-4c0,1.7,0,3.4,0,5.2C579.3,779.5,579.4,780.4,579.1,781.2z"/>
	<path class="st33" d="M549.9,881c1,0.3,1.9,0.6,2.7,1.4c-1.4,0.8-2.7,1.7-4.1,2.5c-0.2,0.1-0.4,0.1-0.6,0c-1.2-1.1-2.7-1.2-4.2-1.4
		C545.5,882.3,549.6,880.9,549.9,881z"/>
	<path class="st33" d="M573.4,881.7c0.3,0.2,0.6,0.3,0.9,0.7c-1.3,0.8-2.6,1.6-3.9,2.4c-0.2,0.1-0.4,0.2-0.7,0
		c-1.2-1.1-2.7-1.2-4.2-1.3c0.8-0.6,3.9-2.1,4.2-2.2c1.1-0.3,2.1-0.3,3.1,0.2C573.1,881.3,573.3,881.5,573.4,881.7z"/>
	<path class="st34" d="M552,708c0.5,1.5,0.1,2.9-0.3,4.3c-0.2,0.7-0.3,1.3-0.5,2c-0.2,0.7,0.1,1,0.6,1.1c0.6,0.2,1.2,0.4,1.8,0.5
		c0.2,0,0.6,0,0.6,0.5c0,0.4-0.3,0.5-0.6,0.5c-0.8,0.1-1.5,0-2.2-0.5c-1.2-0.7-1.5-1.7-1-3.1c0.2-0.7,0.8-2.6,0.8-2.8
		c0.2-1.1-0.4-1.6-1.5-1.5c-0.1,0-0.2,0.1-0.3,0c0.1-0.5,0.3-1,0-1.4c-0.1-0.3-0.2-0.5,0-0.6c0.3-0.2,1.1,0,1.5,0.2
		C551.3,707.5,551.6,707.7,552,708z"/>
	<path class="st35" d="M568,718.6c-0.8,0.1-0.9-0.5-0.7-0.9c0.4-1.2,0.7-2.4,1.5-3.3c0.8-1,1.4-2.1,1.2-3.4
		c-0.1-0.2-0.1-0.3,0.1-0.4c0.2,0,0.3,0,0.4,0.2c0.1,0.1,0.7,0.4,0.8,0.5c0,0.2-0.9,3.3-1.7,4.6C568.9,716.7,568.4,717.6,568,718.6z
		"/>
	<path class="st36" d="M556.9,730.9c0.8,0.9,0.1,3.3,0.9,4.1c-0.7,0.4-4.2,0.2-4.9-0.2c0-0.7,0.6-0.8,1-1.2
		C554.5,732.9,556.3,731.3,556.9,730.9z"/>
	<path class="st24" d="M553,734.8c1.6,0.1,3.3,0.2,4.9,0.2c1.3,1.1,2.7,1.2,4.2,0.4c2.6,0.2,5.2,0.5,7.8,0.6
		c-1.4,2.6-2.8,5.2-4.2,7.8c-0.2,0.4-0.4,0.6-0.9,0.7c-2.8,0.4-5.7,0.4-8.5,0.4c-1.8,0-2.4-0.9-2.8-2.4c-0.5-1.8-1.1-3.6-1-5.5
		C552.7,736.2,552.7,735.5,553,734.8z"/>
	<path class="st37" d="M565.4,768.1c-0.4,0.5-0.9,1.1-1.3,1.6C564.2,768.9,564.6,768.4,565.4,768.1z"/>
	<path class="st38" d="M573.4,881.7c-0.2-0.1-0.4-0.1-0.6-0.2c0.3-0.3,0.6-0.2,0.9,0C573.7,881.5,573.5,881.5,573.4,881.7z"/>
	<path class="st34" d="M549.9,705.3c0.2-0.7,0.5-1.6,0.6-2.4c0.2-0.9,1.5-1.9,2.6-0.5c0.8,1.1,1.9,1.8,3.2,2.3
		c2.8,1.1,5.6,2,8.4,2.9c0.5,1,0.5,2.2,0.3,3.2c0,0.1-0.1,0.4-0.2,0.4c0-0.1-0.3-2.7-2.4-3.3c-1.1-0.3-2.2-0.9-3.5-0.9
		c-0.1,0.1-0.3,0.1-0.4,0c-0.7-0.3-1.4-0.4-2.1-0.5C556,706.1,549.7,705.9,549.9,705.3z"/>
	<path class="st34" d="M557.3,710.2c-0.8-0.4-1.5-0.7-1.6-1.8c0-0.4,0-1.2,0.2-1.3c0-0.5,0.5-0.1,0.8-0.1c0.6,0,1.1,0.2,1.6,0.4
		c0.6,0.3,1.3,0.6,2,0.7c-0.3,1-0.5,1.9-1.4,2.5c-0.2-0.3,0.1-0.4,0-0.6c0-0.5-0.2-0.8-0.7-0.9c-0.3-0.1-0.7-0.3-0.5,0.4
		C557.7,709.8,557.6,710.1,557.3,710.2z"/>
	<path class="st39" d="M557.3,710.2c0-0.7,0.4-0.6,0.1-1c-0.3-0.3,0-0.6,0.5-0.5c1.1,0.2,1.5,1.2,1,1.9
		C558.3,711.4,557.3,710.9,557.3,710.2z"/>
	<path class="st39" d="M549.5,710c0-0.7,0.4-0.6,0.1-0.9c-0.3-0.3,0-0.6,0.5-0.5c1.1,0.2,1.5,1.2,1,1.9
		C550.5,711.3,549.4,710.7,549.5,710z"/>
	<path class="st40" d="M571.3,711.2c-0.1,0-0.1,0-0.2-0.1c-0.2-0.1-1.6-0.9-1.7-1.1c-0.2-0.3,0.2-0.4,0.1-0.8c0.4,0.2,1.5,1,1.9,1.3
		c0.2,0.1,0.3,0.2,0.2,0.3C571.6,711,571.5,711.1,571.3,711.2z"/>
	<path class="st41" d="M566.6,714.3c-0.1-0.1-0.2-0.1-0.2-0.1c-0.3-0.5-0.3-1,0-1.4c0.1-0.1,0.3-0.2,0.3,0c0.2,0.4,0.1,0.9,0,1.3
		C566.7,714.1,566.7,714.2,566.6,714.3z"/>
	
		<linearGradient id="SVGID_12_" gradientUnits="userSpaceOnUse" x1="344.0493" y1="558.5673" x2="375.3406" y2="558.5673" gradientTransform="matrix(1 0 0 1 204 196)">
		<stop  offset="0" style="stop-color:#282560"/>
		<stop  offset="1" style="stop-color:#2A3B8F"/>
	</linearGradient>
	<path class="st42" d="M548.4,737.5c1-1.7,2.7-2.6,4.2-3.8c0.4-0.4,0.9-0.9,1.4-0.5c0.3,0.3,0,0.4-0.2,0.4c-0.4,0.3-0.6,0.9-0.7,1.4
		c-0.5,2.1-0.4,4.2,0.3,6.2c0.3,0.7,0.4,1.5,0.7,2.3c0.2,0.6,0.6,0.9,1.3,1c3,0.4,5.9,0.1,8.9-0.2c0.6-0.1,1-0.4,1.3-1
		c1.4-2.4,3-5.9,3.9-7.3c1.4-2,3.6-3.9,4.1-3.9c0.7-0.3,1.3-0.1,1.8,0.3c1.1,0.9,2.3,1.8,3.4,2.7c0.2,0.2,0.3,0.3,0.3,0.6
		c-1.1-0.2-3.2,0-4.2,1c-1.2,1-2,2.3-2.4,3.8c-0.3,0.8-0.5,1.7-0.8,2.5c-0.8,2.6-1.4,5.1-1.9,7.8c-1,4.9-1.9,9.8-3.2,14.6
		c-0.4,0.9-0.6,1.9-1.2,2.8c-0.7,0.4-1.2,0.9-1.4,1.7c-0.9,1.5-2.1,2.8-3.2,4.2c-0.8,0.9-1.6,1.8-2.4,2.7c-0.2,0.2-0.4,0.5-0.7,0.5
		c-0.4,0-0.7-0.3-1.1-0.5c-2-1.3-4.1-1.4-6.2-0.3c-0.4,0.2-0.7,0.6-1.2,0.2c-0.2-0.2-0.2-0.5-0.2-0.8c-0.2-4.3-0.3-8.6-0.1-12.9
		c0.2-4,0.6-8,1-12c0.1-1.1-0.2-2.1-0.5-3c-0.6-2.1-1.2-4.2-1.4-6.4C548,740.2,547.9,738.8,548.4,737.5z"/>
	<path class="st43" d="M570.6,734.8c1.3-1.5,2.8-2.8,3.2-2.8c-1.3-1-2.6-2.1-4-2.9c-0.3-0.2-0.4,0-0.6,0.2c-0.1,0.2-0.2,0.5-0.5,0.7
		c-1,0.8-1.9,1.7-2.9,2.6v0C566.8,733.1,569.3,734,570.6,734.8z"/>
	<path class="st34" d="M569.1,714.3c0.8-1,1.8-3.4,0.4-5.1c-2.2-2.2-3.8,2-4.4,3.4c-0.1,0.3-0.4,0.7-0.2,1.1
		c0.3-0.1,0.4,0.1,0.4,0.3c0,1.3-0.1,5-0.9,5.9c-2.3,2.7-8.5,6.9-12.1,5.6c0.6,0.4,1.3,0.6,2,0.5c0.1,0,0.2,0,0.3,0
		c1.8,0.1,4.4-1.5,4.4-0.8c0,1,0,2.1,0,3.1c-0.2,1.6,5.1-1,5.2-0.8c0.3,1.4-0.1,2.5,0.6,3.8c0.4,0.3,0.6,0,0.9-0.2
		c0.7-0.6,1.3-1.2,2-1.8c0.4-0.4,0.8-0.8,0.4-1.4c-0.6-4,0.1-8.7,0.1-9.4c-0.4-0.3-0.6-0.6-0.4-1.1
		C568,716.4,568.3,715.3,569.1,714.3z"/>
	<path class="st44" d="M565.1,710.9c0.3-1.1,0.2-2.3-0.2-3.3c1.1,0.4,1.5,0.7,2.4,1.3c-1.4,1.2-1.6,2.9-2.1,4.8
		c-0.7,0.2-0.6-0.3-0.5-0.7C564.8,712.3,564.9,711.6,565.1,710.9z"/>
	<path class="st45" d="M560.2,708.2c-0.4,0.3-0.8,0.1-1.2-0.1c-0.7-0.3-1.3-0.8-2-0.9c-0.3-0.1-1.5,0.2-1.6,0c0-0.2,0.9-0.6,1.2-0.7
		c1-0.4,3.1,0.8,3.4,1C560.3,707.7,560.3,707.9,560.2,708.2z"/>
	<path class="st46" d="M552,707.9c-0.2,0-0.5,0-0.6-0.1c-0.7-0.4-1.7-0.7-1.9-0.2C548.5,706.9,549.8,704.6,552,707.9z"/>
	<path class="st47" d="M551.2,718.9c1.8,0.1,3.5,0.2,5.2,0.3C555.2,720.4,552.1,720.3,551.2,718.9z"/>
	<path class="st47" d="M553.6,722.3c-0.6,0.1-0.8,0-1.1-0.2c-0.3-0.2-0.2-0.5-0.2-0.8c0.1-0.3,0.4-0.2,0.6-0.2
		c0.2,0,1.4,0.2,1.3,0.7C554.2,722.3,553.7,722.3,553.6,722.3z"/>
	
		<linearGradient id="SVGID_13_" gradientUnits="userSpaceOnUse" x1="352.0896" y1="535.9814" x2="365.7684" y2="535.9814" gradientTransform="matrix(1 0 0 1 204 196)">
		<stop  offset="0" style="stop-color:#282560"/>
		<stop  offset="1" style="stop-color:#2A3B8F"/>
	</linearGradient>
	<path class="st48" d="M569.8,729.3c-0.7,1-1.6,1.7-2.5,2.5c-1.6,1.5-7,6.5-9.7,3.7c-0.9-0.9-2.9-3.4-0.1-5.6
		c-0.1,1.2,0.1,2.3,0.9,3.3c0.9,1.1,1.7,1.5,3,0.8c1.2-0.6,5.2-3.9,6.1-4.7c0.3-0.3,0.5-0.7,0.4-1.1c0-0.3,0-0.4-0.1-0.5
		c0-0.2,0.5,0.2,0.9,0.5C569.2,728.6,569.4,729,569.8,729.3z"/>
	<path class="st30" d="M569.8,745.7l-4.1-0.8l-0.2,0.9l0.2,0c0,0.9,0.6,1.7,1.5,1.9s1.8-0.4,2.1-1.2l0.2,0L569.8,745.7z"/>
	<path class="st30" d="M554.2,744.8l-4,0.9l0.2,0.9l0.2,0c0.3,0.8,1.2,1.3,2.2,1.1c0.9-0.2,1.5-1,1.5-2l0.2,0L554.2,744.8z"/>
	
		<linearGradient id="SVGID_14_" gradientUnits="userSpaceOnUse" x1="365.3954" y1="556.4278" x2="377.3468" y2="556.4278" gradientTransform="matrix(1 0 0 1 204 196)">
		<stop  offset="0" style="stop-color:#F15B2A"/>
		<stop  offset="1" style="stop-color:#F69321"/>
	</linearGradient>
	<path class="st49" d="M578.5,768.8c-0.1,0.4-0.4,0.8-0.9,0.6c-1-0.4-5.9-2.3-7.3-2.9c-0.3-0.1-0.6-0.3-0.9-0.4
		c0.3-0.3,0.7-0.3,1.1-0.2c0.7,0.1,1.4,0.2,2.1,0.3c1,0.1,1.2,0,1.4-1c1-3.3,1.6-6.6,2.2-10c0.9-4.6,1.3-9.4,2-14c0-0.2,0-0.4,0-0.5
		c-0.1-2-0.8-2.3-2.4-1.3c-1.2,0.8-2.1,1.8-3.1,2.9c-0.3,0.3-1.2,2.7-1.7,2.6c0.6-2.4,1.9-6.7,4-8.4c1.3-1.1,2.7-1.5,4.3-0.7
		c1,0.7,1.6,1.6,1.8,2.8c0.8,5-0.8,20.4-1.1,23.2L578.5,768.8z"/>
	
		<linearGradient id="SVGID_15_" gradientUnits="userSpaceOnUse" x1="362.5334" y1="556.0217" x2="374.4295" y2="556.0217" gradientTransform="matrix(1 0 0 1 204 196)">
		<stop  offset="0" style="stop-color:#F15B2A"/>
		<stop  offset="1" style="stop-color:#F69321"/>
	</linearGradient>
	<path class="st50" d="M571.8,742.9c1.6-3.6,2.9-5.2,4.3-5.3c1.5-0.1,1.8,0.8,2,1.5c0.3,0.7,0.4,2.2,0.2,3.3
		c-0.4,2.9-0.7,5.8-1.1,8.6c-0.5,3.1-1.1,6.2-1.7,9.3c-0.4,1.8-0.9,3.7-1.4,5.5c-0.2,0.6-0.4,0.8-1,0.8c-1.3-0.1-2.4-0.1-3.7-0.2
		c-1.1-0.4-2.8-0.9-3-0.8c1.5-6,2.7-12,3.9-18C570.7,745.9,571.2,744.4,571.8,742.9z"/>
	<path class="st43" d="M569.3,753.1c0.6-2.8,3.2-6.1,3.2-6.1c-0.7,0-2.7,1.9-2.6,2.7L569.3,753.1z"/>
	<g class="st51">
		<path class="st34" d="M534.6,791.4c0.4,0.4,0.8,0.5,1.3,0.5c0.9,0,1.7,0,2.6,0c0.2,0,0.4,0,0.6,0.1c0.1-0.1,0.2-0.1,0.2-0.2
			c0.4-0.3,0.3-0.5-0.1-0.7c-0.4-0.2-0.8-0.3-1.3-0.3c-0.9,0-1.7,0-2.6,0c-0.4,0-0.7-0.1-1-0.2c0,0-0.1,0.1-0.1,0.2
			C534.2,791,534.4,791.2,534.6,791.4z"/>
		<path class="st34" d="M574.6,768c-0.2-0.3-0.4-0.4-0.7-0.4c-1,2.2-3.5,6.3-3.6,6.3c-3.8,4.6-8.6,8-13.5,11.4
			c-2.5,1.7-4.9,3.5-7,5.6c-0.9,0.7-1.8,1.4-2.4,2.4c-0.8,0.8-1.5,1.9-2.1,2.8c-0.6,0.9-1.5,1.1-2.5,1.3c-0.9,0.2-1.6,0.1-2.5,0.4
			c-1,0.3-2.7,0.4-4.1-0.1c-1.2-0.4-2.4-0.7-3.7-0.6c0,0-0.1,0-0.1,0c0,0,0,0.1,0,0.2c0,0.5,0.1,1,0.7,1c1.3-0.1,2.5,0.3,3.7,0.6
			c1.3,0.4,3.1,0.4,4,0.1c1-0.3,1.6-0.2,2.5-0.4c0.9-0.2,1.8-0.4,2.5-1.3c0.6-0.9,1.3-2,2.1-2.8c0.6-1,1.5-1.7,2.4-2.4
			c2.2-2.1,4.6-3.9,7-5.6c4.8-3.4,9.6-6.8,13.5-11.4c0.1-0.1,2.8-4.3,3.7-6.5C574.7,768.4,574.7,768.2,574.6,768z"/>
	</g>
	<path class="st34" d="M574.6,768.6c0.1-0.2,0.1-0.4,0-0.5c-0.2-0.3-0.5-0.4-0.8-0.5c-1.4-0.6-2.9-1.1-4.4-1.6
		c-0.9-0.4-1.9-0.5-2.9-0.5c-0.1,0.2-0.2,0.4-0.3,0.6l6.4,6.3C573.4,771,574.2,769.6,574.6,768.6z"/>
	
		<linearGradient id="SVGID_16_" gradientUnits="userSpaceOnUse" x1="-614.2307" y1="-256.2094" x2="-568.6127" y2="-256.2094" gradientTransform="matrix(-1 0 0 -1 -47.4053 501.0605)">
		<stop  offset="0" style="stop-color:#F15B2B"/>
		<stop  offset="0.4305" style="stop-color:#F1562D"/>
		<stop  offset="1" style="stop-color:#EF4237"/>
	</linearGradient>
	<polygon class="st52" points="566.8,756 547.1,750.7 521.2,757.1 537.5,763.8 	"/>
	
		<linearGradient id="SVGID_17_" gradientUnits="userSpaceOnUse" x1="-585.2936" y1="-274.6923" x2="-568.6097" y2="-274.6923" gradientTransform="matrix(-1 0 0 -1 -47.4053 501.0605)">
		<stop  offset="0" style="stop-color:#F15B2B"/>
		<stop  offset="0.4305" style="stop-color:#F1562D"/>
		<stop  offset="1" style="stop-color:#EF4237"/>
	</linearGradient>
	<polygon class="st53" points="537.7,766.4 537.5,763.8 521.2,757.1 521.2,757.2 521.6,787.5 537.9,794.4 	"/>
	
		<linearGradient id="SVGID_18_" gradientUnits="userSpaceOnUse" x1="-614.4037" y1="-274.1658" x2="-584.9477" y2="-274.1658" gradientTransform="matrix(-1 0 0 -1 -47.4053 501.0605)">
		<stop  offset="0" style="stop-color:#F15B2B"/>
		<stop  offset="0.4305" style="stop-color:#F1562D"/>
		<stop  offset="1" style="stop-color:#EF4237"/>
	</linearGradient>
	<polygon class="st54" points="566.8,756.2 566.8,756 537.5,763.8 537.7,766.4 537.9,794.4 567,785.8 	"/>
	<polygon class="st55" points="529.1,760.3 529.1,760.3 529.1,760.3 526.9,759.5 526.9,759.6 527.2,763.2 527.3,763.1 527.4,763.6 
		527.6,763.3 527.7,763.7 527.9,763.5 528.1,764.4 528.4,763.9 528.6,764.2 528.8,764 529,764.4 529.2,764 529.4,764.5 529.1,760.4 
			"/>
	<polygon class="st55" points="554.4,752.7 526.9,759.5 526.9,759.5 526.9,759.5 526.9,759.5 526.9,759.5 529.1,760.3 529.1,760.3 
		557.1,753.4 	"/>
	<path class="st56" d="M521.2,757.1l16.3,6.7C537.5,763.8,527.6,759.2,521.2,757.1z"/>
	<path class="st56" d="M538,763.7l28.5-7.5C566.5,756.1,546,761.1,538,763.7z"/>
	<path class="st56" d="M537.7,794.1l-0.1-29.5C537.6,764.7,537.3,785.8,537.7,794.1z"/>
	<path class="st25" d="M550.4,792.1c-0.9,0.7-1.8,1.4-2.4,2.4c-0.8,0.8-1.5,1.9-2.1,2.8c-0.6,0.9-1.5,1.1-2.5,1.3
		c-0.9,0.2-1.6,0.1-2.5,0.4c-1,0.3-2.7,0.4-4.1-0.1c-1.2-0.4-2.4-0.7-3.7-0.6c-0.6,0-0.7-0.5-0.7-1c0-0.5,0.4-0.5,0.7-0.4
		c1.9,0.3,3.4-0.3,4.6-1.9c0.6-0.8,1.4-1.4,2.2-2.1c0.4-0.3,0.3-0.5-0.1-0.7c-0.4-0.2-0.8-0.3-1.3-0.3c-0.9,0-1.7,0-2.6,0
		c-0.5,0-1-0.1-1.3-0.5c-0.2-0.2-0.4-0.4-0.3-0.7c0.1-0.3,0.4-0.4,0.6-0.4c2.5-0.5,4.9-0.9,7.4-1.4c0.9-0.2,1.7,0.2,2.5,0.4
		c0.5,0.1,0.8,0.1,1.2-0.3c0.5-0.5,1.1-1,1.7-1.6c0.2-0.4,0.5-0.7,0.8-1c2.4-2.4,11.7-11.7,14.9-15.7c0.3-0.3,1.6-2.3,3.2-5.4
		c1,0,2,0.2,2.9,0.5c1.5,0.5,2.9,1,4.4,1.6c0.3,0.1,0.7,0.2,0.8,0.5c0.1,0.2,0.1,0.4,0,0.5c-0.9,2.2-3.6,6.4-3.7,6.5
		c-3.8,4.6-8.6,8-13.5,11.4C554.9,788.1,552.5,790,550.4,792.1z"/>
	<g>
		
			<linearGradient id="SVGID_19_" gradientUnits="userSpaceOnUse" x1="210.031" y1="-609.1417" x2="251.4223" y2="-608.426" gradientTransform="matrix(0.9974 7.250000e-02 5.310000e-02 -0.7311 353.0839 273.457)">
			<stop  offset="0" style="stop-color:#F15B2B"/>
			<stop  offset="0.4305" style="stop-color:#F1562D"/>
			<stop  offset="1" style="stop-color:#EF4237"/>
		</linearGradient>
		<polygon class="st57" points="563.5,734 549.1,730.1 530,734.8 542,739.8 		"/>
		
			<linearGradient id="SVGID_20_" gradientUnits="userSpaceOnUse" x1="217.3703" y1="-616.6571" x2="216.0202" y2="-658.8354" gradientTransform="matrix(0.9974 7.250000e-02 5.310000e-02 -0.7311 353.0839 273.457)">
			<stop  offset="0" style="stop-color:#F15B2B"/>
			<stop  offset="0.4305" style="stop-color:#F1562D"/>
			<stop  offset="1" style="stop-color:#EF4237"/>
		</linearGradient>
		<polygon class="st58" points="542.2,741.7 542,739.8 530,734.8 530,734.9 530.3,757.2 542.3,762.3 		"/>
		
			<linearGradient id="SVGID_21_" gradientUnits="userSpaceOnUse" x1="222.6261" y1="-610.5349" x2="251.1303" y2="-650.7509" gradientTransform="matrix(0.9974 7.250000e-02 5.310000e-02 -0.7311 353.0839 273.457)">
			<stop  offset="0" style="stop-color:#F15B2B"/>
			<stop  offset="0.4305" style="stop-color:#F1562D"/>
			<stop  offset="1" style="stop-color:#EF4237"/>
		</linearGradient>
		<polygon class="st59" points="563.5,734.1 563.5,734 542,739.8 542.2,741.7 542.3,762.3 563.7,755.9 		"/>
		<polygon class="st55" points="554.4,731.6 534.2,736.6 534.2,736.6 534.2,736.6 534.2,736.6 534.2,736.6 535.8,737.2 535.8,737.2 
			556.4,732.1 		"/>
		<path class="st56" d="M530,734.8l12,4.9C542,739.8,534.7,736.4,530,734.8z"/>
		<path class="st56" d="M542.4,739.7l20.9-5.6C563.3,734.1,548.2,737.8,542.4,739.7z"/>
		<path class="st56" d="M542.2,762.1l-0.1-21.7C542.1,740.4,541.8,756,542.2,762.1z"/>
	</g>
</g>
<g>
	
		<linearGradient id="SVGID_22_" gradientUnits="userSpaceOnUse" x1="977.2316" y1="34.148" x2="1252.4536" y2="34.148" gradientTransform="matrix(1 0 0 1 204 196)">
		<stop  offset="0" style="stop-color:#F15B2B"/>
		<stop  offset="1" style="stop-color:#F89521"/>
	</linearGradient>
	<polygon class="st60" points="1181.2,140.2 1318.8,105.2 1456.5,140.2 1456.5,355.1 1181.2,355.1 	"/>
	
		<linearGradient id="SVGID_23_" gradientUnits="userSpaceOnUse" x1="983.7266" y1="67.125" x2="1245.3265" y2="67.125" gradientTransform="matrix(1 0 0 1 204 196)">
		<stop  offset="0" style="stop-color:#282561"/>
		<stop  offset="1" style="stop-color:#2B3C90"/>
	</linearGradient>
	<rect x="1187.7" y="171.2" class="st61" width="261.6" height="183.9"/>
	
		<linearGradient id="SVGID_24_" gradientUnits="userSpaceOnUse" x1="983.7266" y1="67.125" x2="997.4996" y2="67.125" gradientTransform="matrix(1 0 0 1 204 196)">
		<stop  offset="0" style="stop-color:#282561"/>
		<stop  offset="1" style="stop-color:#2B3C90"/>
	</linearGradient>
	<rect x="1187.7" y="171.2" class="st62" width="13.8" height="183.9"/>
	
		<linearGradient id="SVGID_25_" gradientUnits="userSpaceOnUse" x1="1231.5526" y1="67.125" x2="1245.3256" y2="67.125" gradientTransform="matrix(1 0 0 1 204 196)">
		<stop  offset="0" style="stop-color:#282561"/>
		<stop  offset="1" style="stop-color:#2B3C90"/>
	</linearGradient>
	<rect x="1435.6" y="171.2" class="st63" width="13.8" height="183.9"/>
	
		<linearGradient id="SVGID_26_" gradientUnits="userSpaceOnUse" x1="977.2316" y1="-73.2775" x2="1252.4536" y2="-73.2775" gradientTransform="matrix(1 0 0 1 204 196)">
		<stop  offset="0" style="stop-color:#F15B2B"/>
		<stop  offset="1" style="stop-color:#F89521"/>
	</linearGradient>
	<polygon class="st64" points="1181.2,140.2 1456.5,140.2 1456.5,140.2 1318.8,105.2 	"/>
	
		<linearGradient id="SVGID_27_" gradientUnits="userSpaceOnUse" x1="983.7266" y1="-15.915" x2="1245.3265" y2="-15.915" gradientTransform="matrix(1 0 0 1 204 196)">
		<stop  offset="0" style="stop-color:#282561"/>
		<stop  offset="1" style="stop-color:#2B3C90"/>
	</linearGradient>
	<rect x="1187.7" y="171.2" class="st65" width="261.6" height="17.8"/>
	
		<linearGradient id="SVGID_28_" gradientUnits="userSpaceOnUse" x1="997.4996" y1="76.0265" x2="1020.6686" y2="76.0265" gradientTransform="matrix(1 0 0 1 204 196)">
		<stop  offset="0" style="stop-color:#282561"/>
		<stop  offset="1" style="stop-color:#2B3C90"/>
	</linearGradient>
	<polygon class="st66" points="1201.5,189 1224.7,207.4 1224.7,355.1 1201.5,355.1 	"/>
	<g>
		<rect x="1276.1" y="242.7" class="st67" width="37.9" height="43.9"/>
		<rect x="1275.6" y="242.7" class="st67" width="38.9" height="7.3"/>
		<polygon class="st68" points="1314,286.5 1299.8,286.5 1276.1,250 1314,250 		"/>
		<polygon class="st69" points="1310.7,242.7 1306.6,242.7 1306.6,252.8 1307.5,252.2 1308.3,252.7 1309.4,251.9 1310.7,252.8 		"/>
		<polygon class="st69" points="1283.5,242.7 1279.4,242.7 1279.4,252.8 1280.3,252.2 1281.1,252.7 1282.2,251.9 1283.5,252.8 		"/>
	</g>
	<rect x="1236.8" y="242.7" class="st67" width="37.9" height="43.9"/>
	<rect x="1236.3" y="242.7" class="st67" width="38.8" height="7.3"/>
	<polygon class="st68" points="1274.6,286.5 1260.4,286.5 1236.8,250 1274.6,250 	"/>
	<polygon class="st69" points="1271.4,242.7 1267.2,242.7 1267.2,252.8 1268.1,252.2 1268.9,252.7 1270.1,251.9 1271.4,252.8 	"/>
	<polygon class="st69" points="1244.2,242.7 1240,242.7 1240,252.8 1240.9,252.2 1241.7,252.7 1242.9,251.9 1244.2,252.8 	"/>
	<g>
		<rect x="1209.7" y="288.2" class="st67" width="53.6" height="66.8"/>
		<rect x="1214.2" y="293.9" class="st69" width="6.7" height="55"/>
		<rect x="1221" y="293.9" class="st69" width="6.7" height="55"/>
		<rect x="1227.7" y="293.9" class="st69" width="6.7" height="55"/>
		<rect x="1234.4" y="293.9" class="st69" width="6.7" height="55"/>
		<rect x="1241.2" y="293.9" class="st69" width="6.7" height="55"/>
		<rect x="1247.9" y="293.9" class="st69" width="6.7" height="55"/>
		<rect x="1254.6" y="293.9" class="st69" width="3.9" height="55"/>
		<rect x="1215.5" y="298.2" class="st68" width="2.7" height="49.6"/>
		<rect x="1222.2" y="298.2" class="st68" width="2.7" height="49.6"/>
		<rect x="1228.9" y="298.2" class="st68" width="2.7" height="49.6"/>
		<rect x="1235.6" y="298.2" class="st68" width="2.7" height="49.6"/>
		<rect x="1242.4" y="298.2" class="st68" width="2.7" height="49.6"/>
		<rect x="1249.1" y="298.2" class="st68" width="2.7" height="49.6"/>
		<rect x="1255.8" y="298.2" class="st68" width="2.7" height="49.6"/>
		<rect x="1218.1" y="293.9" class="st67" width="2.8" height="55"/>
		<rect x="1224.9" y="293.9" class="st67" width="2.8" height="55"/>
		<rect x="1231.6" y="293.9" class="st67" width="2.8" height="55"/>
		<rect x="1238.3" y="293.9" class="st67" width="2.8" height="55"/>
		<rect x="1245" y="293.9" class="st67" width="2.8" height="55"/>
		<rect x="1251.8" y="293.9" class="st67" width="2.8" height="55"/>
	</g>
	<g>
		<rect x="1264.6" y="288.2" class="st67" width="53.6" height="66.8"/>
		<rect x="1269.1" y="293.9" class="st69" width="6.7" height="55"/>
		<rect x="1275.9" y="293.9" class="st69" width="6.7" height="55"/>
		<rect x="1282.6" y="293.9" class="st69" width="6.7" height="55"/>
		<rect x="1289.3" y="293.9" class="st69" width="6.7" height="55"/>
		<rect x="1296" y="293.9" class="st69" width="6.7" height="55"/>
		<rect x="1302.8" y="293.9" class="st69" width="6.7" height="55"/>
		<rect x="1309.5" y="293.9" class="st69" width="3.9" height="55"/>
		<rect x="1270.3" y="298.2" class="st68" width="2.7" height="49.6"/>
		<rect x="1277.1" y="298.2" class="st68" width="2.7" height="49.6"/>
		<rect x="1283.8" y="298.2" class="st68" width="2.7" height="49.6"/>
		<rect x="1290.5" y="298.2" class="st68" width="2.7" height="49.6"/>
		<rect x="1297.2" y="298.2" class="st68" width="2.7" height="49.6"/>
		<rect x="1304" y="298.2" class="st68" width="2.7" height="49.6"/>
		<rect x="1310.7" y="298.2" class="st68" width="2.7" height="49.6"/>
		<rect x="1273" y="293.9" class="st67" width="2.8" height="55"/>
		<rect x="1279.7" y="293.9" class="st67" width="2.8" height="55"/>
		<rect x="1286.5" y="293.9" class="st67" width="2.8" height="55"/>
		<rect x="1293.2" y="293.9" class="st67" width="2.8" height="55"/>
		<rect x="1299.9" y="293.9" class="st67" width="2.8" height="55"/>
		<rect x="1306.7" y="293.9" class="st67" width="2.8" height="55"/>
	</g>
	<rect x="1236.8" y="286.5" class="st69" width="77.1" height="1.7"/>
	<rect x="1263.3" y="288.2" class="st69" width="1.3" height="66.8"/>
	<g>
		<rect x="1319.3" y="311.2" class="st67" width="37.9" height="43.9"/>
		<rect x="1318.8" y="311.2" class="st67" width="38.8" height="7.3"/>
		<polygon class="st68" points="1357.2,355.1 1343,355.1 1319.3,318.5 1357.2,318.5 		"/>
		<polygon class="st69" points="1353.9,311.2 1349.8,311.2 1349.8,321.3 1350.7,320.8 1351.5,321.3 1352.6,320.4 1353.9,321.3 		"/>
		<polygon class="st69" points="1326.7,311.2 1322.6,311.2 1322.6,321.3 1323.5,320.8 1324.3,321.3 1325.4,320.4 1326.7,321.3 		"/>
	</g>
	
		<linearGradient id="SVGID_29_" gradientUnits="userSpaceOnUse" x1="997.4996" y1="2.1885" x2="1231.5526" y2="2.1885" gradientTransform="matrix(1 0 0 1 204 196)">
		<stop  offset="0" style="stop-color:#282561"/>
		<stop  offset="1" style="stop-color:#2B3C90"/>
	</linearGradient>
	<polygon class="st70" points="1201.5,189 1224.7,207.4 1412.4,207.4 1435.6,189 	"/>
	
		<linearGradient id="SVGID_30_" gradientUnits="userSpaceOnUse" x1="1208.3795" y1="76.0265" x2="1231.5526" y2="76.0265" gradientTransform="matrix(1 0 0 1 204 196)">
		<stop  offset="0" style="stop-color:#282561"/>
		<stop  offset="1" style="stop-color:#2B3C90"/>
	</linearGradient>
	<polygon class="st71" points="1435.6,189 1412.4,207.4 1412.4,355.1 1435.6,355.1 	"/>
	<g>
		<rect x="1358.7" y="306.6" class="st68" width="32.2" height="48.4"/>
		<rect x="1358.7" y="306.6" class="st67" width="16.1" height="48.4"/>
		<g>
			<polygon class="st72" points="1364.1,344.9 1364.1,351.1 1362.4,351.1 1362.4,344.9 1361.1,344.9 1362.2,342.4 1363.2,339.9 
				1364.3,342.4 1365.3,344.9 			"/>
			<polygon class="st72" points="1368.8,344.9 1368.8,351.1 1367.1,351.1 1367.1,344.9 1365.9,344.9 1366.9,342.4 1367.9,339.9 
				1369,342.4 1370,344.9 			"/>
			<rect x="1361.7" y="351.1" class="st72" width="7.7" height="0.9"/>
		</g>
		<g>
			<polygon class="st69" points="1361.5,306.6 1365.3,306.6 1365.3,315.8 1364.4,315.3 1363.7,315.8 1362.7,315 1361.5,315.8 			"/>
			<polygon class="st69" points="1384.3,306.6 1388.1,306.6 1388.1,315.8 1387.3,315.3 1386.6,315.8 1385.5,315 1384.3,315.8 			"/>
		</g>
		<g>
			<rect x="1391.6" y="317.7" class="st68" width="32.2" height="37.4"/>
			<rect x="1391.6" y="317.7" class="st67" width="16.1" height="37.4"/>
			<polygon class="st72" points="1397,344.9 1397,351.1 1395.3,351.1 1395.3,344.9 1394.1,344.9 1395.1,342.4 1396.1,339.9 
				1397.2,342.4 1398.2,344.9 			"/>
			<polygon class="st72" points="1401.7,344.9 1401.7,351.1 1400,351.1 1400,344.9 1398.8,344.9 1399.8,342.4 1400.9,339.9 
				1401.9,342.4 1402.9,344.9 			"/>
			<rect x="1394.6" y="351.1" class="st72" width="7.7" height="0.9"/>
			<g>
				<polygon class="st69" points="1394.4,317.7 1398.2,317.7 1398.2,326.9 1397.4,326.4 1396.6,326.9 1395.6,326.1 1394.4,326.9 
									"/>
				<polygon class="st69" points="1417.2,317.7 1421,317.7 1421,326.9 1420.2,326.4 1419.5,326.9 1418.5,326.1 1417.2,326.9 				"/>
			</g>
		</g>
		<rect x="1390.9" y="317.7" class="st69" width="0.7" height="37.4"/>
	</g>
</g>
<g>
	
		<linearGradient id="SVGID_31_" gradientUnits="userSpaceOnUse" x1="384.714" y1="80.9835" x2="621.855" y2="80.9835" gradientTransform="matrix(1 0 0 1 204 196)">
		<stop  offset="0" style="stop-color:#F15C2C"/>
		<stop  offset="1" style="stop-color:#F69323"/>
	</linearGradient>
	<rect x="588.7" y="195.5" class="st73" width="237.1" height="163.1"/>
	
		<linearGradient id="SVGID_32_" gradientUnits="userSpaceOnUse" x1="379.648" y1="88.898" x2="384.713" y2="88.898" gradientTransform="matrix(1 0 0 1 204 196)">
		<stop  offset="0" style="stop-color:#F15C2C"/>
		<stop  offset="1" style="stop-color:#F69323"/>
	</linearGradient>
	<rect x="583.6" y="210.3" class="st74" width="5.1" height="149.2"/>
	
		<linearGradient id="SVGID_33_" gradientUnits="userSpaceOnUse" x1="502.475" y1="0.155" x2="502.475" y2="-79.195" gradientTransform="matrix(1 0 0 1 204 196)">
		<stop  offset="0" style="stop-color:#272660"/>
		<stop  offset="1" style="stop-color:#2A3D8F"/>
	</linearGradient>
	<polygon class="st75" points="838.6,196.2 574.4,196.2 592.9,116.8 820.9,116.8 	"/>
	
		<linearGradient id="SVGID_34_" gradientUnits="userSpaceOnUse" x1="619.318" y1="86.2475" x2="624.385" y2="86.2475" gradientTransform="matrix(1 0 0 1 204 196)">
		<stop  offset="0" style="stop-color:#F15C2C"/>
		<stop  offset="1" style="stop-color:#F69323"/>
	</linearGradient>
	<rect x="823.3" y="205" class="st76" width="5.1" height="154.5"/>
	<g>
		<g>
			
				<linearGradient id="SVGID_35_" gradientUnits="userSpaceOnUse" x1="370.697" y1="8.986" x2="404.021" y2="8.986" gradientTransform="matrix(1 0 0 1 204 196)">
				<stop  offset="0" style="stop-color:#272660"/>
				<stop  offset="1" style="stop-color:#2A3D8F"/>
			</linearGradient>
			<path class="st77" d="M608,195.7c0,10.3-7.5,18.6-16.7,18.6s-16.7-8.3-16.7-18.6"/>
			
				<linearGradient id="SVGID_36_" gradientUnits="userSpaceOnUse" x1="404.021" y1="8.9855" x2="437.345" y2="8.9855" gradientTransform="matrix(1 0 0 1 204 196)">
				<stop  offset="0" style="stop-color:#272660"/>
				<stop  offset="1" style="stop-color:#2A3D8F"/>
			</linearGradient>
			<path class="st78" d="M641.3,195.7c0,10.3-7.5,18.6-16.7,18.6c-9.2,0-16.7-8.3-16.7-18.6"/>
			
				<linearGradient id="SVGID_37_" gradientUnits="userSpaceOnUse" x1="437.344" y1="8.9855" x2="470.669" y2="8.9855" gradientTransform="matrix(1 0 0 1 204 196)">
				<stop  offset="0" style="stop-color:#272660"/>
				<stop  offset="1" style="stop-color:#2A3D8F"/>
			</linearGradient>
			<path class="st79" d="M674.7,195.7c0,10.3-7.5,18.6-16.7,18.6c-9.2,0-16.7-8.3-16.7-18.6"/>
			
				<linearGradient id="SVGID_38_" gradientUnits="userSpaceOnUse" x1="470.03" y1="8.986" x2="503.354" y2="8.986" gradientTransform="matrix(1 0 0 1 204 196)">
				<stop  offset="0" style="stop-color:#272660"/>
				<stop  offset="1" style="stop-color:#2A3D8F"/>
			</linearGradient>
			<path class="st80" d="M707.4,195.7c0,10.3-7.5,18.6-16.7,18.6S674,206,674,195.7"/>
		</g>
		<g>
			
				<linearGradient id="SVGID_39_" gradientUnits="userSpaceOnUse" x1="501.598" y1="8.986" x2="534.923" y2="8.986" gradientTransform="matrix(1 0 0 1 204 196)">
				<stop  offset="0" style="stop-color:#272660"/>
				<stop  offset="1" style="stop-color:#2A3D8F"/>
			</linearGradient>
			<path class="st81" d="M738.9,195.7c0,10.3-7.5,18.6-16.7,18.6c-9.2,0-16.7-8.3-16.7-18.6"/>
			
				<linearGradient id="SVGID_40_" gradientUnits="userSpaceOnUse" x1="534.923" y1="8.9855" x2="568.244" y2="8.9855" gradientTransform="matrix(1 0 0 1 204 196)">
				<stop  offset="0" style="stop-color:#272660"/>
				<stop  offset="1" style="stop-color:#2A3D8F"/>
			</linearGradient>
			<path class="st82" d="M772.2,195.7c0,10.3-7.5,18.6-16.7,18.6c-9.2,0-16.7-8.3-16.7-18.6"/>
			
				<linearGradient id="SVGID_41_" gradientUnits="userSpaceOnUse" x1="568.244" y1="8.9855" x2="601.569" y2="8.9855" gradientTransform="matrix(1 0 0 1 204 196)">
				<stop  offset="0" style="stop-color:#272660"/>
				<stop  offset="1" style="stop-color:#2A3D8F"/>
			</linearGradient>
			<path class="st83" d="M805.6,195.7c0,10.3-7.5,18.6-16.7,18.6c-9.2,0-16.7-8.3-16.7-18.6"/>
			
				<linearGradient id="SVGID_42_" gradientUnits="userSpaceOnUse" x1="600.929" y1="8.986" x2="634.254" y2="8.986" gradientTransform="matrix(1 0 0 1 204 196)">
				<stop  offset="0" style="stop-color:#272660"/>
				<stop  offset="1" style="stop-color:#2A3D8F"/>
			</linearGradient>
			<path class="st84" d="M838.3,195.7c0,10.3-7.5,18.6-16.7,18.6c-9.2,0-16.7-8.3-16.7-18.6"/>
		</g>
	</g>
	
		<linearGradient id="SVGID_43_" gradientUnits="userSpaceOnUse" x1="652.1889" y1="424.3481" x2="666.2399" y2="424.3481" gradientTransform="matrix(0 -1 1 0 282.7559 771.9189)">
		<stop  offset="0" style="stop-color:#F15C2C"/>
		<stop  offset="1" style="stop-color:#F69323"/>
	</linearGradient>
	<rect x="592.4" y="105.7" class="st85" width="229.5" height="14.1"/>
	
		<linearGradient id="SVGID_44_" gradientUnits="userSpaceOnUse" x1="410.8759" y1="423.6336" x2="415.9399" y2="423.6336" gradientTransform="matrix(0 -1 1 0 282.7559 771.9189)">
		<stop  offset="0" style="stop-color:#F15C2C"/>
		<stop  offset="1" style="stop-color:#F69323"/>
	</linearGradient>
	<rect x="584.4" y="356" class="st86" width="244" height="5.1"/>
	<g>
		
			<linearGradient id="SVGID_45_" gradientUnits="userSpaceOnUse" x1="531.1379" y1="357.5931" x2="536.4569" y2="357.5931" gradientTransform="matrix(0 -1 1 0 282.7559 771.9189)">
			<stop  offset="0" style="stop-color:#272660"/>
			<stop  offset="1" style="stop-color:#2A3D8F"/>
		</linearGradient>
		<rect x="595.3" y="235.5" class="st87" width="90.1" height="5.3"/>
		
			<linearGradient id="SVGID_46_" gradientUnits="userSpaceOnUse" x1="525.8169" y1="357.5931" x2="531.1379" y2="357.5931" gradientTransform="matrix(0 -1 1 0 282.7559 771.9189)">
			<stop  offset="0" style="stop-color:#272660"/>
			<stop  offset="1" style="stop-color:#2A3D8F"/>
		</linearGradient>
		<rect x="595.3" y="240.8" class="st88" width="90.1" height="5.3"/>
		
			<linearGradient id="SVGID_47_" gradientUnits="userSpaceOnUse" x1="520.5859" y1="357.5931" x2="525.9059" y2="357.5931" gradientTransform="matrix(0 -1 1 0 282.7559 771.9189)">
			<stop  offset="0" style="stop-color:#272660"/>
			<stop  offset="1" style="stop-color:#2A3D8F"/>
		</linearGradient>
		<rect x="595.3" y="246" class="st89" width="90.1" height="5.3"/>
		
			<linearGradient id="SVGID_48_" gradientUnits="userSpaceOnUse" x1="515.3529" y1="357.5931" x2="520.6739" y2="357.5931" gradientTransform="matrix(0 -1 1 0 282.7559 771.9189)">
			<stop  offset="0" style="stop-color:#272660"/>
			<stop  offset="1" style="stop-color:#2A3D8F"/>
		</linearGradient>
		<rect x="595.3" y="251.2" class="st90" width="90.1" height="5.3"/>
		
			<linearGradient id="SVGID_49_" gradientUnits="userSpaceOnUse" x1="510.1229" y1="357.5931" x2="515.4429" y2="357.5931" gradientTransform="matrix(0 -1 1 0 282.7559 771.9189)">
			<stop  offset="0" style="stop-color:#272660"/>
			<stop  offset="1" style="stop-color:#2A3D8F"/>
		</linearGradient>
		<rect x="595.3" y="256.5" class="st91" width="90.1" height="5.3"/>
		
			<linearGradient id="SVGID_50_" gradientUnits="userSpaceOnUse" x1="504.8919" y1="357.5931" x2="510.2099" y2="357.5931" gradientTransform="matrix(0 -1 1 0 282.7559 771.9189)">
			<stop  offset="0" style="stop-color:#272660"/>
			<stop  offset="1" style="stop-color:#2A3D8F"/>
		</linearGradient>
		<rect x="595.3" y="261.7" class="st92" width="90.1" height="5.3"/>
		
			<linearGradient id="SVGID_51_" gradientUnits="userSpaceOnUse" x1="500.1409" y1="357.5931" x2="505.4609" y2="357.5931" gradientTransform="matrix(0 -1 1 0 282.7559 771.9189)">
			<stop  offset="0" style="stop-color:#272660"/>
			<stop  offset="1" style="stop-color:#2A3D8F"/>
		</linearGradient>
		<rect x="595.3" y="266.5" class="st93" width="90.1" height="5.3"/>
		
			<linearGradient id="SVGID_52_" gradientUnits="userSpaceOnUse" x1="494.9089" y1="357.5931" x2="500.2269" y2="357.5931" gradientTransform="matrix(0 -1 1 0 282.7559 771.9189)">
			<stop  offset="0" style="stop-color:#272660"/>
			<stop  offset="1" style="stop-color:#2A3D8F"/>
		</linearGradient>
		<rect x="595.3" y="271.7" class="st94" width="90.1" height="5.3"/>
		
			<linearGradient id="SVGID_53_" gradientUnits="userSpaceOnUse" x1="489.6769" y1="357.5931" x2="494.9959" y2="357.5931" gradientTransform="matrix(0 -1 1 0 282.7559 771.9189)">
			<stop  offset="0" style="stop-color:#272660"/>
			<stop  offset="1" style="stop-color:#2A3D8F"/>
		</linearGradient>
		<rect x="595.3" y="276.9" class="st95" width="90.1" height="5.3"/>
		
			<linearGradient id="SVGID_54_" gradientUnits="userSpaceOnUse" x1="484.4459" y1="357.5931" x2="489.7649" y2="357.5931" gradientTransform="matrix(0 -1 1 0 282.7559 771.9189)">
			<stop  offset="0" style="stop-color:#272660"/>
			<stop  offset="1" style="stop-color:#2A3D8F"/>
		</linearGradient>
		<rect x="595.3" y="282.2" class="st96" width="90.1" height="5.3"/>
		
			<linearGradient id="SVGID_55_" gradientUnits="userSpaceOnUse" x1="479.2119" y1="357.5931" x2="484.5339" y2="357.5931" gradientTransform="matrix(0 -1 1 0 282.7559 771.9189)">
			<stop  offset="0" style="stop-color:#272660"/>
			<stop  offset="1" style="stop-color:#2A3D8F"/>
		</linearGradient>
		<rect x="595.3" y="287.4" class="st97" width="90.1" height="5.3"/>
		
			<linearGradient id="SVGID_56_" gradientUnits="userSpaceOnUse" x1="473.9819" y1="357.5931" x2="479.3029" y2="357.5931" gradientTransform="matrix(0 -1 1 0 282.7559 771.9189)">
			<stop  offset="0" style="stop-color:#272660"/>
			<stop  offset="1" style="stop-color:#2A3D8F"/>
		</linearGradient>
		<rect x="595.3" y="292.6" class="st98" width="90.1" height="5.3"/>
		
			<linearGradient id="SVGID_57_" gradientUnits="userSpaceOnUse" x1="468.7499" y1="357.5931" x2="474.0699" y2="357.5931" gradientTransform="matrix(0 -1 1 0 282.7559 771.9189)">
			<stop  offset="0" style="stop-color:#272660"/>
			<stop  offset="1" style="stop-color:#2A3D8F"/>
		</linearGradient>
		<rect x="595.3" y="297.8" class="st99" width="90.1" height="5.3"/>
		
			<linearGradient id="SVGID_58_" gradientUnits="userSpaceOnUse" x1="463.5189" y1="357.5931" x2="468.8389" y2="357.5931" gradientTransform="matrix(0 -1 1 0 282.7559 771.9189)">
			<stop  offset="0" style="stop-color:#272660"/>
			<stop  offset="1" style="stop-color:#2A3D8F"/>
		</linearGradient>
		<rect x="595.3" y="303.1" class="st100" width="90.1" height="5.3"/>
		
			<linearGradient id="SVGID_59_" gradientUnits="userSpaceOnUse" x1="458.2899" y1="357.5931" x2="463.6059" y2="357.5931" gradientTransform="matrix(0 -1 1 0 282.7559 771.9189)">
			<stop  offset="0" style="stop-color:#272660"/>
			<stop  offset="1" style="stop-color:#2A3D8F"/>
		</linearGradient>
		<rect x="595.3" y="308.3" class="st101" width="90.1" height="5.3"/>
		
			<linearGradient id="SVGID_60_" gradientUnits="userSpaceOnUse" x1="453.0579" y1="357.5931" x2="458.3759" y2="357.5931" gradientTransform="matrix(0 -1 1 0 282.7559 771.9189)">
			<stop  offset="0" style="stop-color:#272660"/>
			<stop  offset="1" style="stop-color:#2A3D8F"/>
		</linearGradient>
		<rect x="595.3" y="313.5" class="st102" width="90.1" height="5.3"/>
		
			<linearGradient id="SVGID_61_" gradientUnits="userSpaceOnUse" x1="447.8249" y1="357.5931" x2="453.1459" y2="357.5931" gradientTransform="matrix(0 -1 1 0 282.7559 771.9189)">
			<stop  offset="0" style="stop-color:#272660"/>
			<stop  offset="1" style="stop-color:#2A3D8F"/>
		</linearGradient>
		<rect x="595.3" y="318.8" class="st103" width="90.1" height="5.3"/>
		
			<linearGradient id="SVGID_62_" gradientUnits="userSpaceOnUse" x1="442.5929" y1="357.5931" x2="447.9129" y2="357.5931" gradientTransform="matrix(0 -1 1 0 282.7559 771.9189)">
			<stop  offset="0" style="stop-color:#272660"/>
			<stop  offset="1" style="stop-color:#2A3D8F"/>
		</linearGradient>
		<rect x="595.3" y="324" class="st104" width="90.1" height="5.3"/>
		
			<linearGradient id="SVGID_63_" gradientUnits="userSpaceOnUse" x1="437.3619" y1="357.5931" x2="442.6819" y2="357.5931" gradientTransform="matrix(0 -1 1 0 282.7559 771.9189)">
			<stop  offset="0" style="stop-color:#272660"/>
			<stop  offset="1" style="stop-color:#2A3D8F"/>
		</linearGradient>
		<rect x="595.3" y="329.2" class="st105" width="90.1" height="5.3"/>
		
			<linearGradient id="SVGID_64_" gradientUnits="userSpaceOnUse" x1="432.1299" y1="357.5931" x2="437.4499" y2="357.5931" gradientTransform="matrix(0 -1 1 0 282.7559 771.9189)">
			<stop  offset="0" style="stop-color:#272660"/>
			<stop  offset="1" style="stop-color:#2A3D8F"/>
		</linearGradient>
		<rect x="595.3" y="334.5" class="st106" width="90.1" height="5.3"/>
		
			<linearGradient id="SVGID_65_" gradientUnits="userSpaceOnUse" x1="426.8979" y1="357.5931" x2="432.2189" y2="357.5931" gradientTransform="matrix(0 -1 1 0 282.7559 771.9189)">
			<stop  offset="0" style="stop-color:#272660"/>
			<stop  offset="1" style="stop-color:#2A3D8F"/>
		</linearGradient>
		<rect x="595.3" y="339.7" class="st107" width="90.1" height="5.3"/>
		
			<linearGradient id="SVGID_66_" gradientUnits="userSpaceOnUse" x1="421.6669" y1="357.5931" x2="426.9899" y2="357.5931" gradientTransform="matrix(0 -1 1 0 282.7559 771.9189)">
			<stop  offset="0" style="stop-color:#272660"/>
			<stop  offset="1" style="stop-color:#2A3D8F"/>
		</linearGradient>
		<rect x="595.3" y="344.9" class="st108" width="90.1" height="5.3"/>
		
			<linearGradient id="SVGID_67_" gradientUnits="userSpaceOnUse" x1="417.0789" y1="357.5931" x2="422.3969" y2="357.5931" gradientTransform="matrix(0 -1 1 0 282.7559 771.9189)">
			<stop  offset="0" style="stop-color:#272660"/>
			<stop  offset="1" style="stop-color:#2A3D8F"/>
		</linearGradient>
		<rect x="595.3" y="349.5" class="st109" width="90.1" height="5.3"/>
	</g>
	
		<linearGradient id="SVGID_68_" gradientUnits="userSpaceOnUse" x1="552.882" y1="131.672" x2="552.882" y2="39.229" gradientTransform="matrix(1 0 0 1 204 196)">
		<stop  offset="0" style="stop-color:#272660"/>
		<stop  offset="1" style="stop-color:#2A3D8F"/>
	</linearGradient>
	<rect x="696.2" y="235.2" class="st110" width="121.4" height="92.4"/>
	<g>
		<g>
			
				<linearGradient id="SVGID_69_" gradientUnits="userSpaceOnUse" x1="492.159" y1="43.3325" x2="507.514" y2="43.3325" gradientTransform="matrix(1 0 0 1 204 196)">
				<stop  offset="0" style="stop-color:#F15C2C"/>
				<stop  offset="1" style="stop-color:#F69323"/>
			</linearGradient>
			<path class="st111" d="M711.5,235.5c0,4.3-3.4,7.7-7.7,7.7s-7.7-3.5-7.7-7.7"/>
			
				<linearGradient id="SVGID_70_" gradientUnits="userSpaceOnUse" x1="507.515" y1="43.3325" x2="522.872" y2="43.3325" gradientTransform="matrix(1 0 0 1 204 196)">
				<stop  offset="0" style="stop-color:#F15C2C"/>
				<stop  offset="1" style="stop-color:#F69323"/>
			</linearGradient>
			<path class="st112" d="M726.9,235.5c0,4.3-3.4,7.7-7.7,7.7c-4.2,0-7.7-3.5-7.7-7.7"/>
			
				<linearGradient id="SVGID_71_" gradientUnits="userSpaceOnUse" x1="522.872" y1="43.333" x2="538.227" y2="43.333" gradientTransform="matrix(1 0 0 1 204 196)">
				<stop  offset="0" style="stop-color:#F15C2C"/>
				<stop  offset="1" style="stop-color:#F69323"/>
			</linearGradient>
			<path class="st113" d="M742.2,235.5c0,4.3-3.4,7.7-7.7,7.7c-4.2,0-7.7-3.5-7.7-7.7"/>
			
				<linearGradient id="SVGID_72_" gradientUnits="userSpaceOnUse" x1="537.931" y1="43.3325" x2="553.289" y2="43.3325" gradientTransform="matrix(1 0 0 1 204 196)">
				<stop  offset="0" style="stop-color:#F15C2C"/>
				<stop  offset="1" style="stop-color:#F69323"/>
			</linearGradient>
			<path class="st114" d="M757.3,235.5c0,4.3-3.4,7.7-7.7,7.7c-4.2,0-7.7-3.5-7.7-7.7"/>
		</g>
		<g>
			
				<linearGradient id="SVGID_73_" gradientUnits="userSpaceOnUse" x1="552.4789" y1="43.3325" x2="567.834" y2="43.3325" gradientTransform="matrix(1 0 0 1 204 196)">
				<stop  offset="0" style="stop-color:#F15C2C"/>
				<stop  offset="1" style="stop-color:#F69323"/>
			</linearGradient>
			<path class="st115" d="M771.8,235.5c0,4.3-3.4,7.7-7.7,7.7s-7.7-3.5-7.7-7.7"/>
			
				<linearGradient id="SVGID_74_" gradientUnits="userSpaceOnUse" x1="567.8329" y1="43.3325" x2="583.191" y2="43.3325" gradientTransform="matrix(1 0 0 1 204 196)">
				<stop  offset="0" style="stop-color:#F15C2C"/>
				<stop  offset="1" style="stop-color:#F69323"/>
			</linearGradient>
			<path class="st116" d="M787.2,235.5c0,4.3-3.4,7.7-7.7,7.7c-4.2,0-7.7-3.5-7.7-7.7"/>
			
				<linearGradient id="SVGID_75_" gradientUnits="userSpaceOnUse" x1="583.191" y1="43.333" x2="598.547" y2="43.333" gradientTransform="matrix(1 0 0 1 204 196)">
				<stop  offset="0" style="stop-color:#F15C2C"/>
				<stop  offset="1" style="stop-color:#F69323"/>
			</linearGradient>
			<path class="st117" d="M802.5,235.5c0,4.3-3.4,7.7-7.7,7.7c-4.2,0-7.7-3.5-7.7-7.7"/>
			
				<linearGradient id="SVGID_76_" gradientUnits="userSpaceOnUse" x1="598.249" y1="43.3325" x2="613.605" y2="43.3325" gradientTransform="matrix(1 0 0 1 204 196)">
				<stop  offset="0" style="stop-color:#F15C2C"/>
				<stop  offset="1" style="stop-color:#F69323"/>
			</linearGradient>
			<path class="st118" d="M817.6,235.5c0,4.3-3.4,7.7-7.7,7.7c-4.2,0-7.7-3.5-7.7-7.7"/>
		</g>
	</g>
	
		<linearGradient id="SVGID_77_" gradientUnits="userSpaceOnUse" x1="391.3226" y1="158.615" x2="391.3224" y2="39.229" gradientTransform="matrix(1 0 0 1 204 196)">
		<stop  offset="0" style="stop-color:#272660"/>
		<stop  offset="1" style="stop-color:#2A3D8F"/>
	</linearGradient>
	<rect x="593.6" y="235.2" class="st119" width="3.4" height="119.4"/>
	
		<linearGradient id="SVGID_78_" gradientUnits="userSpaceOnUse" x1="481.3745" y1="158.554" x2="481.3745" y2="39.167" gradientTransform="matrix(1 0 0 1 204 196)">
		<stop  offset="0" style="stop-color:#272660"/>
		<stop  offset="1" style="stop-color:#2A3D8F"/>
	</linearGradient>
	<rect x="683.7" y="235.2" class="st120" width="3.4" height="119.4"/>
</g>
<g>
	<path class="st121" d="M201.3,224c0,0,1.5,103.8,2,107.3c0.4,3.4-6.9,5.8-8.2,0c-1.3-5.8-2.2-107.3-2.2-107.3H201.3L201.3,224z"/>
	<path class="st24" d="M119.2,265.2c0,0-1.7,60.5,0,62.3h7.4v-62.3C126.5,262.2,119.2,262.7,119.2,265.2"/>
	<path class="st24" d="M163.6,264.2c0,0,0.8,62.9,2.4,63.4c1.7,0.4,7.1,0,7.1,0s1.1-56.2,0-61.5C172,260.7,163.6,264.2,163.6,264.2"
		/>
	<path class="st24" d="M179.1,255.4l-2.7,11.4l-59.6-0.8l-0.2-14.7C116.6,251.3,163.9,250.7,179.1,255.4"/>
	<path class="st14" d="M133,185c0,0-5,7.8-5.3,10.2C127.7,195.2,132.3,188.2,133,185"/>
	<path class="st122" d="M173.3,316.1c0,0-5.2,8.4-6,10.9c-0.8,2.5,1.7,9,3,9.3c1.3,0.3,10.6,2.1,11.3,3.8c0.7,1.7,0,4.6,0,4.6
		s-11.2,1.2-17.3,0c-6.1-1.2-10.8-19.4-9.8-26.3c0,0,8.3-6.2,9.8-7.6C165.7,309.5,173.3,316.1,173.3,316.1"/>
	
		<linearGradient id="SVGID_79_" gradientUnits="userSpaceOnUse" x1="-51.7351" y1="79.7378" x2="28.6942" y2="79.7378" gradientTransform="matrix(1 0 0 1 204 196)">
		<stop  offset="0" style="stop-color:#2A3D8F"/>
		<stop  offset="0.6624" style="stop-color:#272660"/>
	</linearGradient>
	<path class="st123" d="M174.4,238.5c0,0,50.8-6.1,54.6-3.3c3.8,2.8,5.2,8.6,1.7,13.4c-3.4,4.8-52.3,64.5-55,67.5
		c-2.8,3-12.8-1.8-14.3-5.9c0,0,45.3-54.7,47-59.2c0,0-42.2-0.1-47-6.2c-4.8-6.1-11.8-7.5-8-9.6
		C157.1,233.1,174.4,238.5,174.4,238.5"/>
	<path class="st122" d="M209.7,335.9c0,0,2.1,8.3,3.8,9.6c1.7,1.4,16.5-2.1,17.9,0c1.4,2.1,1.3,9.3,1.3,9.3s-27.1,3.1-30.9,0
		c0,0-7,1.7-9.4-0.3c0,0,1.4-18.2,3.5-20.6C198.1,331.5,209.7,335.9,209.7,335.9"/>
	
		<linearGradient id="SVGID_80_" gradientUnits="userSpaceOnUse" x1="-47.4411" y1="106.1692" x2="12.482" y2="46.2462" gradientTransform="matrix(1 0 0 1 204 196)">
		<stop  offset="0" style="stop-color:#2A3D8F"/>
		<stop  offset="1" style="stop-color:#272660"/>
	</linearGradient>
	<path class="st124" d="M153.3,235.2c0,0,6,7.6,10.9,7.9c4.9,0.3,53.1-0.7,57.2,4.1c4.1,4.8-10.3,80.4-8.6,90.6c0,0-18.2,0.5-20.6,0
		c0,0,15.1-71.7,13.4-75.1c-1.7-3.4-69.3-6.9-73.1-10.7c-3.8-3.8-4.1-10.7-3.1-14.4C130.5,233.8,153.3,235.2,153.3,235.2"/>
	<path class="st125" d="M174.8,186.6c0,0,6.4,18.9,9.3,24.6c2.9,5.7-7.3,5.3-7.3,5.3s-9.2-20.4-9.7-25.6
		C166.6,185.8,172.4,179.5,174.8,186.6"/>
	<path class="st125" d="M162.8,149.7c0,0-2.1,9.5-4.2,12.3c0,0,8,5.8-3.6,7.4c-11.5,1.5-23.1-8.1-21.3-10.6c0,0,9.8-0.4,12.6-1.3
		c2.8-0.9-5.5-13-5.5-13s17.6-8.6,22.9,2"/>
	<path class="st125" d="M160.2,209.9c0,0,3.5-4.6,4.9-5.8c1.4-1.2,3.5-1.3,3.5-1.3s2.6,1.5,3,2.8c0.4,1.3,2.3,5.2,0,6.1
		c-2.3,0.8-5.2-3.6-5.2-3.6s-2.1,1.2-2.8,2.3C163,211.6,160.2,209.9,160.2,209.9"/>
	<path class="st126" d="M151,214.7c0,0,10.5-4.5,13.4-3.5c2.8,1,6.2,1.5,8,1.7c1.8,0.1,3,2.1,3.4,1.8
		C176,214.5,154.5,218.2,151,214.7"/>
	<path class="st24" d="M265.2,226.8c0,0,1.5,117.4,2,121.3c0.4,3.9-6.9,6.6-8.2,0c-1.3-6.6-2.2-121.3-2.2-121.3L265.2,226.8
		L265.2,226.8z"/>
	<path class="st121" d="M102.9,230.6c0,0-7.4,110.5-7.4,114.3c0,0-6,5.7-7.3,0c-1.3-5.7,6.1-114.3,6.1-114.3L102.9,230.6
		L102.9,230.6z"/>
	<path class="st24" d="M139,233.8c0,0-7.6,116.4-6.8,119c0.8,2.6,6.7,4,7.8,1.4c1.1-2.6,7.9-121.1,7.9-121.1L139,233.8z"/>
	<g>
		<path class="st125" d="M175.6,120.8c0,21.5-8.7,38.9-19.4,38.9c-10.7,0-19.4-17.4-19.4-38.9"/>
		<path class="st125" d="M136.9,120.9c0-7.2,8.7-13,19.4-13c10.7,0,19.4,5.8,19.4,13"/>
	</g>
	<g>
		
			<linearGradient id="XMLID_2_" gradientUnits="userSpaceOnUse" x1="-65.1694" y1="-61.4025" x2="-26.1604" y2="-61.4025" gradientTransform="matrix(1 0 0 1 204 196)">
			<stop  offset="0" style="stop-color:#2A3D8F"/>
			<stop  offset="1" style="stop-color:#272660"/>
		</linearGradient>
		<path id="XMLID_67_" class="st127" d="M153.6,128.1c-1.7-0.8-3.5-1-5.7-1c-0.3,0-1,0.1-1.6,0.1c-1.8,0.2-5.8,0.8-7.3,1.8
			c-0.1,0-0.1,0.2-0.1,0.3c0,0.6,0,1.1,0,1.7c0,0.4,0.2,0.7,0.6,0.9c0.6,0.3,1.1,0.8,1.3,1.6c0.2,0.9,0.5,1.8,0.7,2.6
			c0.4,1.3,0.9,2.6,1.7,3.6c1.1,1.4,2.5,2.1,4,2.3c1.4,0.2,2.8,0,4.2-0.5c0.9-0.3,1.6-0.9,2.2-1.6c0.6-0.7,1-1.5,1.3-2.3
			c0.6-1.4,1-2.8,1.2-4.3c0.1-0.4,0.1-0.7-0.2-1c-0.4-0.5-0.1-1.3,0.4-1.5c1.2-0.4,2.7-0.4,3.8,0c0.6,0.2,0.8,1,0.4,1.5
			c-0.2,0.3-0.3,0.6-0.2,1c0.3,1.5,0.7,2.9,1.2,4.3c0.3,0.9,0.8,1.6,1.3,2.3c0.6,0.8,1.4,1.3,2.2,1.6c1.4,0.5,2.7,0.7,4.2,0.5
			c1.6-0.2,2.9-0.9,4-2.3c0.8-1.1,1.3-2.3,1.7-3.6c0.3-0.9,0.5-1.8,0.7-2.6c0.2-0.8,0.6-1.3,1.3-1.6c0.4-0.2,0.5-0.5,0.6-0.9
			c0-0.6,0-1.1,0-1.7c0-0.1-0.1-0.3-0.1-0.3c-1.5-1-5.5-1.6-7.3-1.8c-0.6-0.1-1.3-0.1-1.6-0.1c-2.1,0-3.9,0.3-5.7,1
			c-0.5,0.2-1,0.5-1.5,0.8c-0.3,0.2-0.6,0.1-0.9,0c-0.2-0.1-0.4-0.2-0.6-0.2c-1.2,0-2.4,0-3.6,0c-0.2,0-0.4,0.1-0.6,0.2
			c-0.3,0.2-0.6,0.2-0.9,0C154.6,128.6,154.1,128.3,153.6,128.1L153.6,128.1z M174.8,132.6L174.8,132.6c0,1-0.1,2.1-0.3,3.1
			c-0.5,2.3-2.1,4.7-4.1,5.3c-1.7,0.5-2.7,0.4-4.4-0.1c-1.4-0.4-2.5-1.4-3.1-2.9c-0.7-1.8-1.1-3.7-1-5.7c0.1-1.2,0.5-2.2,1.3-2.9
			c0.7-0.5,1.4-0.8,2.2-0.9c1.7-0.4,3.4-0.4,5.1-0.2c0.8,0.1,1.6,0.3,2.3,0.6C174.1,129.6,174.8,130.9,174.8,132.6L174.8,132.6z
			 M141.8,132.6L141.8,132.6c0-1.8,0.7-3,2.1-3.7c0.7-0.4,1.5-0.5,2.3-0.6c1.7-0.2,3.4-0.2,5.1,0.2c0.8,0.2,1.5,0.4,2.2,0.9
			c0.9,0.7,1.3,1.7,1.3,2.9c0.1,2-0.3,3.9-1,5.7c-0.6,1.6-1.7,2.5-3.1,2.9c-1.7,0.5-2.7,0.6-4.4,0.1c-2-0.6-3.7-3-4.1-5.3
			C142,134.7,141.8,133.7,141.8,132.6z"/>
		<g>
			
				<linearGradient id="SVGID_81_" gradientUnits="userSpaceOnUse" x1="-62.1618" y1="-64.6375" x2="-56.5254" y2="-64.6375" gradientTransform="matrix(1 0 0 1 204 196)">
				<stop  offset="0" style="stop-color:#2A3D8F"/>
				<stop  offset="1" style="stop-color:#272660"/>
			</linearGradient>
			<path class="st128" d="M146.3,128.3c-0.8,0.1-1.6,0.3-2.3,0.6c-1.4,0.7-2.1,1.9-2.1,3.7c0,0.7,0,1.3,0.1,1.9l5.5-6.4
				C147.1,128.2,146.7,128.2,146.3,128.3z"/>
			
				<linearGradient id="SVGID_82_" gradientUnits="userSpaceOnUse" x1="-60.8794" y1="-61.0944" x2="-49.0873" y2="-61.0944" gradientTransform="matrix(1 0 0 1 204 196)">
				<stop  offset="0" style="stop-color:#2A3D8F"/>
				<stop  offset="1" style="stop-color:#272660"/>
			</linearGradient>
			<path class="st129" d="M154.9,132.3c-0.1-1.2-0.5-2.2-1.3-2.9c-0.6-0.5-1.3-0.7-2-0.9l-8.4,9.8c0.8,1.3,1.9,2.4,3.2,2.8
				c1.7,0.5,2.7,0.4,4.4-0.1c1.4-0.4,2.5-1.4,3.1-2.9C154.6,136.2,155,134.3,154.9,132.3z"/>
			
				<linearGradient id="SVGID_83_" gradientUnits="userSpaceOnUse" x1="-62.0244" y1="-62.8238" x2="-52.5014" y2="-62.8238" gradientTransform="matrix(1 0 0 1 204 196)">
				<stop  offset="0" style="stop-color:#2A3D8F"/>
				<stop  offset="1" style="stop-color:#272660"/>
			</linearGradient>
			<path class="st130" d="M151.4,128.4c-1.3-0.3-2.6-0.4-3.9-0.3l-5.5,6.4c0.1,0.4,0.1,0.8,0.2,1.2c0.2,0.8,0.5,1.7,0.9,2.5l8.4-9.8
				C151.5,128.5,151.4,128.5,151.4,128.4z"/>
		</g>
		<g>
			
				<linearGradient id="SVGID_84_" gradientUnits="userSpaceOnUse" x1="-42.2405" y1="-64.7475" x2="-36.9204" y2="-64.7475" gradientTransform="matrix(1 0 0 1 204 196)">
				<stop  offset="0" style="stop-color:#2A3D8F"/>
				<stop  offset="1" style="stop-color:#272660"/>
			</linearGradient>
			<path class="st131" d="M165.3,128.5c-0.8,0.2-1.5,0.4-2.2,0.9c-0.9,0.7-1.3,1.7-1.3,2.9c0,0.7,0,1.4,0.1,2l5.2-6.1
				C166.5,128.3,165.9,128.3,165.3,128.5z"/>
			
				<linearGradient id="SVGID_85_" gradientUnits="userSpaceOnUse" x1="-41.1044" y1="-61.0893" x2="-29.1671" y2="-61.0893" gradientTransform="matrix(1 0 0 1 204 196)">
				<stop  offset="0" style="stop-color:#2A3D8F"/>
				<stop  offset="1" style="stop-color:#272660"/>
			</linearGradient>
			<path class="st132" d="M172.7,128.9c-0.5-0.2-0.9-0.4-1.4-0.5l-8.4,9.8c0.6,1.4,1.7,2.3,3.1,2.7c1.7,0.5,2.7,0.6,4.4,0.1
				c2-0.6,3.7-3,4.1-5.3c0.2-1,0.3-2,0.3-3.1C174.8,130.9,174.1,129.6,172.7,128.9z"/>
			
				<linearGradient id="SVGID_86_" gradientUnits="userSpaceOnUse" x1="-42.1634" y1="-62.8176" x2="-32.7264" y2="-62.8176" gradientTransform="matrix(1 0 0 1 204 196)">
				<stop  offset="0" style="stop-color:#2A3D8F"/>
				<stop  offset="1" style="stop-color:#272660"/>
			</linearGradient>
			<path class="st133" d="M170.4,128.3c-1.1-0.2-2.2-0.2-3.3-0.1l-5.2,6.1c0.1,1.3,0.5,2.5,1,3.7c0,0.1,0.1,0.1,0.1,0.2l8.4-9.8
				C171,128.4,170.7,128.3,170.4,128.3z"/>
		</g>
	</g>
	
		<linearGradient id="SVGID_87_" gradientUnits="userSpaceOnUse" x1="-73.5134" y1="-81.9924" x2="-22.7881" y2="-81.9924" gradientTransform="matrix(1 0 0 1 204 196)">
		<stop  offset="0" style="stop-color:#2A3D8F"/>
		<stop  offset="1" style="stop-color:#272660"/>
	</linearGradient>
	<path class="st134" d="M181.2,121c-0.5-0.3-0.6-0.6-0.7-0.8c-0.2-0.4,0-1.3-0.1-1.5c-0.2-0.7-0.4-1.4-0.7-2.2
		c-0.4-1.4-0.8-2.8-1.1-4.2c-0.4-1.6-1.1-2.8-2.1-4.1c-0.9-1.2-1.8-2.6-2.8-3.8c-2.1-2.5-4.6-4-7.9-4.5c-1.4-0.2-2.8-0.6-4.2-0.6
		c0.1,0,0.2-0.1,0.2-0.1c0.8-0.4,2-0.7,2.5-1.4c0,0,0.3-0.5,0.3-0.5c0-0.1-3.3,0.6-4.2,0.6c-1.6,0.1-3.2,0.3-4.8,0.3
		c-1.4,0-2.8,0-4.2-0.1c0.1-0.1,0.3-0.2,0.4-0.2c0.8-0.4,1.7-0.5,2.5-0.9c0.1,0,0.1-0.1,0-0.2c-0.1-0.1-0.3-0.1-0.4-0.1
		c-1.5-0.6-3.1-0.4-4.7-0.4c-1.6,0-2.9,0.8-4.3,1.6c-1.3,0.8-2.1,1.9-2.9,3.1c-0.5,0.7-1.2,1.8-1.1,2.8c-0.8-0.8-0.8-2.1-1-3.1
		c0-0.1-0.2-0.1-0.2,0c-0.2,1.2-0.2,2.4,0.5,3.5c0,0,0,0.1,0.1,0.1c-0.5-0.2-1.1-0.5-1.6-0.7c-0.9-0.4-2.8-0.8-3.6-0.1
		c-0.1,0.1,0,0.3,0.2,0.3c1-0.4,2.6,0.5,3.5,0.9c0.2,0.1,0.3,0.1,0.5,0.2c-0.8,0.2-1.6,0.4-2.4,0.8c-0.4,0.2-0.9,0.4-1.3,0.7
		c-0.5,0.5-1.1,0.9-1.7,1.3c-0.5,0.4-0.9,0.8-1.4,1.2c-0.2,0.3-0.4,0.4-0.6,0.7c-0.2,0.4-0.4,1-0.8,1.3c0,0,0,0,0,0
		c-0.5,1-0.7,2.1-0.8,3.2c0.2,0.1,1.3-1.3,1.8-1.6c0,0,0.1,0,0.1,0c-0.3,0.7-0.4,1.4-0.5,2.1c-0.2,1.9-0.2,3.8,0.1,5.7
		c0.3,1.8,1.1,3.8,2.2,5.3c0.3,0.4,0.5,0.9,0.7,1.4c0.3,0.4,0.5,0.9,0.8,1.3c0.2,0.3,0.3,0.5,0.5,0.8c0.1,0.1,0.2,0.2,0.3,0.2
		c0.1,0.1,0.1,0.3,0.2,0.4c0.1,0.2,0.2,0.3,0.3,0.5c0.4,0.5,0.7,1.1,1.1,1.6c0,0,0,0,0-0.1c0.1-1,0-2.1-0.2-3.1
		c-0.1-0.2-0.1-0.5-0.1-0.7c0.1-1.1,0-2.2,0-3.4c0-0.4,0.1-0.7,0.1-0.9c0.1-1,0.2-2,0.5-3c0.1-0.2,0.1-0.4,0.2-0.6
		c0-0.1,0.1-0.2,0.1-0.3c0.6-1.5,1.4-3,2.5-4.2c0,0,0-0.1,0-0.1c0.4-0.4,0.7-0.9,1.1-1.3c0.1-0.1,0.2-0.2,0.3-0.3
		c0,0,0.1,0.1,0.1,0.1c1.2,1.2,2.6,2.2,4,3.2c1.2,0.9,2.7,1.3,4.1,1.8c1.2,0.4,2.1,0.7,3.3,0.5c0,0,0,0,0,0c0,0,0.1,0,0.1,0
		c0.1,0-2.7-0.6-2.9-2.1c0.7,0.3,1.4,0.5,2.1,0.6c1.6,0.3,3.2,0.1,4.8,0.1c1.5,0,3.2-0.2,4.6-0.7c0,0,0-0.1,0-0.1
		c-0.5,0.1-6.3,0.5-8.5-0.1c-0.3-0.1-1.4-0.4-1.7-0.5c0.8,0,2.2,0.3,3,0.2c0.8-0.1,1.9-0.4,2.7-0.4c0.8,0,1.5-0.4,2.4-0.6
		c2.1-0.4,4.2-0.9,6.3-1c2-0.1,3.5,1.3,4.9,2.5c1.4,1.2,2.4,2.6,2.7,4.4c0.4,1.8,0.3,3.6,0.3,5.5c0,0.2,0,0.4-0.1,0.6
		c0.2,1.3,0.4,2.6,0.2,3.8c0.2-0.3,0.6-0.4,0.8-0.7c0.3-0.6,0.9-1.2,1.3-1.7c0.4-0.4,0.7-1,0.9-1.5c0.3-0.6,0.4-1.4,0.7-2
		c0.6-1,0.5-2.3,0.7-3.4c0.1-0.5,0.2-1,0.2-1.6c0.3,0.3,0.7,0.4,1.1,0.5C181,121,181.3,121.1,181.2,121z M139.4,116.5
		c-0.2,0.2-0.3,0.4-0.5,0.6c0.1-0.3,0.4-0.5,0.6-0.7C139.5,116.4,139.5,116.4,139.4,116.5z"/>
	
		<ellipse transform="matrix(0.1852 -0.9827 0.9827 0.1852 -41.4903 284.7451)" class="st125" cx="151" cy="167.4" rx="5.7" ry="16.5"/>
	
		<linearGradient id="SVGID_88_" gradientUnits="userSpaceOnUse" x1="-91.4093" y1="4.664" x2="-28.5694" y2="4.664" gradientTransform="matrix(1 0 0 1 204 196)">
		<stop  offset="0" style="stop-color:#F15C2C"/>
		<stop  offset="1" style="stop-color:#F69323"/>
	</linearGradient>
	<path class="st135" d="M169.4,164.4c-0.8-0.9-5.3-2.5-10.6-3.8c6.3,8.8-0.6,12-5.6,12.7c-5,0.6-13-6.7-14.8-10.1
		c-1.5-3-0.4-4.3-0.1-4.6c-7.6,0.7-13.9,2.5-13.9,2.5c-2.2,1.6-12.7,25.4-11.7,26.6c1.8,2.2,13.6,6.3,13.6,6.3s-4.2,13.6-3,21.3
		c0.5,3.2,3,27.7,3,27.7c13-11,40.8-6.3,40.8-6.3s-5.6-12.2-6.3-16.7c-0.7-4.5,6.4-31.6,6.4-31.6s8.2,0.9,8.2-1.5
		C175.4,184.3,170.4,165.7,169.4,164.4"/>
	<polygon class="st24" points="271.5,219.9 139,219.9 139,233.8 271.5,230.7 	"/>
	<polygon class="st121" points="94,222.5 139,219.9 139,233.8 94,233.8 	"/>
	<path class="st125" d="M126.1,194.6c0,0-4.2,12.9-3.6,14.6c0.6,1.7,25.5,3.7,29.4,3.5c3.9-0.2,3.2,6.3-0.9,7.1
		c-4.1,0.9-37.9,1.7-40.7-0.6c-2.8-2.4,3.8-27.3,4.6-29.5C119.2,191.7,120.5,192.2,126.1,194.6"/>
	<path class="st125" d="M152,212.7c0.6,0,5.5-1.2,7-2.1c1.5-0.9,5.1-4.1,6.1-3.8c1,0.3,1.8,1.9,2.1,4.7c0.2,2.7-1.1,4.3-2.9,3.7
		c-1.8-0.6-1.5-2.8-1.5-2.8s-6.4,3.3-8.6,3C152,215,152,212.7,152,212.7"/>
	
		<linearGradient id="SVGID_89_" gradientUnits="userSpaceOnUse" x1="-58.1579" y1="2.2702" x2="42.2796" y2="2.2702" gradientTransform="matrix(1 0 0 1 204 196)">
		<stop  offset="0" style="stop-color:#D2D3D4"/>
		<stop  offset="1" style="stop-color:#F2F2F2"/>
	</linearGradient>
	<path class="st136" d="M145.9,220.8c0,0-0.2-2.5,0-3.3c0.2-0.8,2.5-2.6,2.5-2.6s29.9-1.2,34.3-1.4c0,0,12.2-36.2,14.2-38.1
		c0,0,41.6,1.6,49.4,3.2l-11.4,36.8v5.4c0,0-50.8,0.9-54.4,0L145.9,220.8L145.9,220.8z"/>
	<path class="st14" d="M195.5,175.4c0,0,3.7,0.2,3.9,1.5c0.2,1.3-12.3,36.3-13.2,36.8c-0.8,0.5-4.9-0.2-4.9-0.2
		S193.7,177.5,195.5,175.4"/>
</g>
<image style="overflow:visible;enable-background:new    ;" width="334" height="359" xlink:href="1FC9A13.png"  transform="matrix(0.6371 0 0 0.6371 1015.4481 674.1695)">
</image>
<linearGradient id="SVGID_90_" gradientUnits="userSpaceOnUse" x1="1015.4481" y1="694.2657" x2="1015.4481" y2="741.4263" gradientTransform="matrix(1 0 0 -1 0 1000)">
	<stop  offset="0" style="stop-color:#F15B2A"/>
	<stop  offset="1" style="stop-color:#F69321"/>
</linearGradient>
<polygon class="st137" points="1112,280 1049.5,258.6 1049.5,276.6 918.9,276.7 918.9,287.3 1049.5,287.7 1049.5,305.7 "/>
<linearGradient id="SVGID_91_" gradientUnits="userSpaceOnUse" x1="788.9065" y1="178.7498" x2="788.9065" y2="225.9105" gradientTransform="matrix(-0.9999 1.241162e-02 1.241162e-02 0.9999 1575.241 585.5637)">
	<stop  offset="0" style="stop-color:#F15B2A"/>
	<stop  offset="1" style="stop-color:#F69321"/>
</linearGradient>
<polygon class="st138" points="692.4,801 755.1,821.7 754.9,803.7 885.5,801.9 885.4,791.4 754.7,792.5 754.5,774.5 "/>
<linearGradient id="SVGID_92_" gradientUnits="userSpaceOnUse" x1="1084.2196" y1="579.9938" x2="1084.2196" y2="627.1544" gradientTransform="matrix(-0.4333 0.9012 0.9012 0.4333 1152.6998 -703.8206)">
	<stop  offset="0" style="stop-color:#F15B2A"/>
	<stop  offset="1" style="stop-color:#F69321"/>
</linearGradient>
<polygon class="st139" points="1187,622.8 1233.3,575.8 1217.1,568 1273.5,450.2 1264.1,445.6 1207,563.2 1190.8,555.4 "/>
<linearGradient id="SVGID_93_" gradientUnits="userSpaceOnUse" x1="420.1334" y1="689.9092" x2="420.1334" y2="737.0699" gradientTransform="matrix(1 0 0 -1 0 1000)">
	<stop  offset="0" style="stop-color:#F15B2A"/>
	<stop  offset="1" style="stop-color:#F69321"/>
</linearGradient>
<polygon class="st140" points="516.7,284.3 454.2,262.9 454.2,280.9 323.6,281.1 323.6,291.6 454.2,292.1 454.2,310.1 "/>
<linearGradient id="SVGID_94_" gradientUnits="userSpaceOnUse" x1="221.5824" y1="453.2207" x2="221.5824" y2="500.3814" gradientTransform="matrix(-0.5244 -0.8514 -0.8514 0.5244 804.1993 470.4675)">
	<stop  offset="0" style="stop-color:#F15B2A"/>
	<stop  offset="1" style="stop-color:#F69321"/>
</linearGradient>
<polygon class="st141" points="229.5,450.8 244.1,515.2 259.4,505.8 328,616.9 337,611.4 268.9,499.9 284.2,490.5 "/>
</svg>
