<?xml version="1.0" encoding="utf-8"?>
<!-- Generator: Adobe Illustrator 21.0.2, SVG Export Plug-In . SVG Version: 6.00 Build 0)  -->
<svg version="1.1" id="Capa_1" xmlns="http://www.w3.org/2000/svg" xmlns:xlink="http://www.w3.org/1999/xlink" x="0px" y="0px"
	 viewBox="0 0 699 220" style="enable-background:new 0 0 699 220;" xml:space="preserve">
<style type="text/css">
	.st0{fill:#FF6600;}
</style>
<g>
	<path class="st0" d="M111.5,87.5c-5.5,5.4-8.6,12.8-8.6,20.5c0,7.7,3,15.1,8.4,20.6l73,73.9c5.7,5.8,13.2,8.6,20.7,8.6
		c7.4,0,14.8-2.8,20.5-8.4c11.4-11.3,11.5-29.7,0.2-41.2l-23.1-23.4h240.2c0.3,0,0.6,0,1.1,0c13.6,0,96.3-3.4,164.1-83.2
		c10.4-12.2,8.9-30.6-3.3-41c-12.2-10.4-30.6-8.9-41,3.3c-23.1,27.1-50.7,46-82.1,55.9c-21.9,7-37.3,6.8-37.5,6.8l-1,0H201.9
		l23.4-23.1c11.4-11.3,11.5-29.7,0.2-41.2c-11.3-11.4-29.7-11.5-41.2-0.2L111.5,87.5z"/>
</g>
</svg>
