<?xml version="1.0" encoding="utf-8"?>
<!-- Generator: Adobe Illustrator 16.0.0, SVG Export Plug-In . SVG Version: 6.00 Build 0)  -->
<!DOCTYPE svg PUBLIC "-//W3C//DTD SVG 1.1//EN" "http://www.w3.org/Graphics/SVG/1.1/DTD/svg11.dtd">
<svg version="1.1" id="Layer_1" xmlns="http://www.w3.org/2000/svg" xmlns:xlink="http://www.w3.org/1999/xlink" x="0px" y="0px"
	 width="494.594px" height="302.061px" viewBox="0 0 494.594 302.061" enable-background="new 0 0 494.594 302.061"
	 xml:space="preserve">
<rect x="195.683" y="219.49" width="227.755" height="30.506"/>
<ellipse fill="#121233" cx="223.946" cy="260.347" rx="34.712" ry="37.043"/>
<linearGradient id="SVGID_1_" gradientUnits="userSpaceOnUse" x1="202.5269" y1="260.3469" x2="258.6577" y2="260.3469">
	<stop  offset="0" style="stop-color:#262261"/>
	<stop  offset="1" style="stop-color:#2B388F"/>
</linearGradient>
<ellipse fill="url(#SVGID_1_)" cx="230.592" cy="260.347" rx="28.065" ry="34.49"/>
<ellipse fill="#BCBEC0" cx="230.592" cy="260.347" rx="14.034" ry="17.246"/>
<path fill="#939598" d="M230.592,260.418L230.592,260.418L230.592,260.418z"/>
<path fill="#939598" d="M230.592,260.418l11.444-6.607c-2.009-5.3-6.371-8.985-11.444-8.985V260.418L230.592,260.418z"/>
<path fill="#BCBCBC" d="M241.99,266.999c0.784-2.018,1.232-4.267,1.232-6.652c0-2.338-0.431-4.547-1.186-6.536l-11.444,6.607
	L241.99,266.999z"/>
<path fill="#939598" d="M230.592,260.418l-11.444-6.607c-0.752,1.989-1.185,4.197-1.185,6.536c0,2.383,0.45,4.635,1.23,6.652
	L230.592,260.418L230.592,260.418z"/>
<path fill="#939598" d="M230.592,260.418L230.592,260.418v15.448c5.036,0,9.368-3.63,11.397-8.867L230.592,260.418z"/>
<path fill="#BCBCBC" d="M230.592,244.825c-5.073,0-9.435,3.686-11.444,8.985l11.444,6.607V244.825z"/>
<path fill="#BCBCBC" d="M219.193,266.999c2.029,5.237,6.364,8.867,11.399,8.867v-15.448L219.193,266.999z"/>
<path fill="#121233" d="M110.29,255.889c0-12.281-5.699-22.921-14.023-28.162c-5.084-3.669-11.213-5.813-17.813-5.813
	c-17.583,0-31.835,15.211-31.835,33.975c0,18.762,14.253,33.972,31.835,33.972c6.599,0,12.729-2.143,17.813-5.813
	C104.59,278.807,110.29,268.17,110.29,255.889z"/>
<ellipse fill="#121233" cx="386.942" cy="255.836" rx="30.486" ry="32.532"/>
<linearGradient id="SVGID_2_" gradientUnits="userSpaceOnUse" x1="368.1333" y1="255.8352" x2="417.4282" y2="255.8352">
	<stop  offset="0" style="stop-color:#262261"/>
	<stop  offset="1" style="stop-color:#2B388F"/>
</linearGradient>
<ellipse fill="url(#SVGID_2_)" cx="392.781" cy="255.836" rx="24.647" ry="30.291"/>
<ellipse fill="#BCBEC0" cx="392.781" cy="255.836" rx="12.324" ry="15.146"/>
<path fill="#939598" d="M392.781,255.9L392.781,255.9L392.781,255.9z"/>
<path fill="#939598" d="M392.781,255.9l10.051-5.803c-1.766-4.656-5.597-7.893-10.051-7.893V255.9L392.781,255.9z"/>
<path fill="#808285" d="M402.789,261.677c0.69-1.771,1.084-3.747,1.084-5.841c0-2.055-0.381-3.993-1.041-5.739l-10.051,5.803
	L402.789,261.677z"/>
<path fill="#939598" d="M392.781,255.9l-10.05-5.803c-0.661,1.746-1.042,3.686-1.042,5.739c0,2.093,0.396,4.069,1.084,5.841
	L392.781,255.9L392.781,255.9z"/>
<path fill="#939598" d="M392.781,255.9L392.781,255.9v13.567c4.42,0,8.228-3.188,10.008-7.789L392.781,255.9z"/>
<path fill="#808285" d="M392.781,242.204c-4.456,0-8.287,3.236-10.05,7.893l10.05,5.803V242.204z"/>
<path fill="#808285" d="M382.771,261.677c1.78,4.602,5.586,7.789,10.008,7.789v-13.567L382.771,261.677z"/>
<linearGradient id="SVGID_3_" gradientUnits="userSpaceOnUse" x1="167.271" y1="137.2029" x2="431.8589" y2="137.2029">
	<stop  offset="0" style="stop-color:#F05A28"/>
	<stop  offset="1" style="stop-color:#F6921E"/>
</linearGradient>
<path fill="url(#SVGID_3_)" d="M419.921,153.055c9.408-122.841-6.538-133.934-6.538-133.934l-162.929-0.128
	c0,0-48.533,12.479-49.918,134.502c0,0-38.825,24.96-32.586,101.919l32.645-0.232c0.944-18.36,14.212-32.918,30.447-32.918
	c16.106,0,29.289,14.33,30.417,32.486l97.287-0.692c1.415-17.828,14.47-31.795,30.372-31.795c15.774,0,28.751,13.741,30.34,31.363
	l12.237-0.086C433.491,173.037,419.921,153.055,419.921,153.055z"/>
<linearGradient id="SVGID_4_" gradientUnits="userSpaceOnUse" x1="255.647" y1="136.9202" x2="431.8589" y2="136.9202">
	<stop  offset="0" style="stop-color:#F05A28"/>
	<stop  offset="1" style="stop-color:#F6921E"/>
</linearGradient>
<path opacity="0.8" fill="url(#SVGID_4_)" d="M358.746,254.057c1.415-17.828,14.47-31.795,30.372-31.795
	c15.774,0,28.751,13.741,30.34,31.363l12.237-0.086c1.796-80.503-11.773-100.485-11.773-100.485
	c9.408-122.841-6.538-133.934-6.538-133.934l-38.723-0.029c-44.821,21.522-57.357,54.137-50.022,113.735
	c5.55,45.064-13.519,86.663-68.991,103.765c3.296,5.16,5.391,11.393,5.813,18.158L358.746,254.057z"/>
<linearGradient id="SVGID_5_" gradientUnits="userSpaceOnUse" x1="23.061" y1="137.2029" x2="250.4546" y2="137.2029">
	<stop  offset="0" style="stop-color:#F05A28"/>
	<stop  offset="1" style="stop-color:#F6921E"/>
</linearGradient>
<path fill="url(#SVGID_5_)" d="M23.74,255.413c-6.24-76.958,32.586-101.919,32.586-101.919
	c1.386-122.023,49.919-134.502,49.919-134.502h144.209c0,0-48.533,12.479-49.918,134.502c0,0-38.825,24.96-32.586,101.919H23.74z"/>
<path fill="#E6E7E8" d="M89.39,42.694C77.65,61.374,66.174,94.372,65.358,152.238h126.877
	c0.817-57.865,12.293-90.863,24.033-109.544H89.39z"/>
<path fill="#D1D3D4" d="M216.267,42.694h-55.014v109.544h30.981C193.051,94.372,204.527,61.374,216.267,42.694z"/>
<path fill="#D1D3D4" d="M261.549,42.694h-25.868c-11.741,18.681-23.216,51.679-24.034,109.544h49.902V42.694z"/>
<g>
	<path d="M34.388,235.064c0.047,3.001,2.542,5.456,5.542,5.456h4.909c3,0,5.417-2.455,5.369-5.456l0.11-8.979
		c0.163-2.997-2.157-5.446-5.159-5.446H40.25c-3.001,0-5.588,2.449-5.752,5.446L34.388,235.064z"/>
	<path d="M36.237,211.28c-0.561,2.947,1.438,5.359,4.439,5.359h4.909c3,0,5.913-2.412,6.473-5.359l3.138-13.333
		c0.923-2.853-0.776-5.189-3.776-5.189h-4.91c-3,0-6.21,2.336-7.135,5.189L36.237,211.28z"/>
	<path fill="#DA1F26" d="M32.077,235.064c0.048,3.001,2.542,5.456,5.542,5.456h4.91c3.001,0,5.417-2.455,5.369-5.456l0.11-8.979
		c0.163-2.997-2.158-5.446-5.157-5.446h-4.91c-3,0-5.587,2.449-5.753,5.446L32.077,235.064z"/>
	<path fill="#FFFFFF" d="M33.926,211.28c-0.559,2.947,1.438,5.359,4.439,5.359h4.909c3.001,0,5.913-2.412,6.473-5.359l3.14-13.333
		c0.924-2.853-0.777-5.189-3.777-5.189H44.2c-3,0-6.209,2.336-7.133,5.189L33.926,211.28z"/>
</g>
<g>
	<path d="M146.011,235.064c0.047,3.001,2.541,5.456,5.542,5.456h4.909c3.001,0,5.417-2.455,5.369-5.456l0.11-8.979
		c0.164-2.997-2.157-5.446-5.159-5.446h-4.908c-3.001,0-5.589,2.449-5.753,5.446L146.011,235.064z"/>
	<path d="M147.862,211.28c-0.56,2.947,1.438,5.359,4.438,5.359h4.91c3,0,5.913-2.412,6.473-5.359l3.139-13.333
		c0.923-2.853-0.776-5.189-3.777-5.189h-4.909c-3.001,0-6.211,2.336-7.135,5.189L147.862,211.28z"/>
	<path fill="#DA1F26" d="M143.7,235.064c0.048,3.001,2.542,5.456,5.542,5.456h4.91c3,0,5.417-2.455,5.369-5.456l0.11-8.979
		c0.163-2.997-2.157-5.446-5.159-5.446h-4.91c-3,0-5.588,2.449-5.752,5.446L143.7,235.064z"/>
	<path fill="#FFFFFF" d="M145.55,211.28c-0.559,2.947,1.438,5.359,4.439,5.359h4.909c3.002,0,5.913-2.412,6.473-5.359l3.14-13.333
		c0.924-2.853-0.777-5.189-3.777-5.189h-4.91c-2.999,0-6.209,2.336-7.132,5.189L145.55,211.28z"/>
</g>
<g>
	<path d="M223.877,169.339c0,2.553-2.069,4.621-4.622,4.621h-9.706c-2.553,0-4.623-2.068-4.623-4.621l0,0
		c0-2.552,2.069-4.622,4.623-4.622h9.706C221.808,164.717,223.877,166.788,223.877,169.339L223.877,169.339z"/>
	<path fill="#FFFFFF" d="M221.334,169.339c0,2.553-2.068,4.621-4.621,4.621h-9.707c-2.553,0-4.624-2.068-4.624-4.621l0,0
		c0-2.552,2.07-4.622,4.624-4.622h9.707C219.266,164.717,221.334,166.788,221.334,169.339L221.334,169.339z"/>
</g>
<g>
	<path fill="#59595B" d="M111.409,152.541c0,0-3.755-28.423,3.441-37.059c0,0,2.159-20.869,5.757-23.027s28.784,0,28.784,0
		s5.036,11.512,0,22.306l2.158,38.141L111.409,152.541z"/>
	<path fill="#939598" d="M98.54,152.132c0,0-1.199-30.343,10.315-40.416c0,0-1.201-17.509,2.399-19.669
		c3.597-2.158,28.784,0,28.784,0s6.715,11.514,1.68,22.308l0.479,38.14L98.54,152.132z"/>
</g>
<path fill="#939598" d="M198.017,92.25c0,0-9.08-0.566-16.344-0.81c-6.297-0.21-12.621-0.14-14.292,0.863
	c-3.599,2.158-2.399,19.668-2.399,19.668c-11.513,10.075-10.314,40.417-10.314,40.417l12.62,0.105h11.854h13.093
	c0.322-22.743,2.289-41.643,5.272-57.343C197.813,93.27,198.017,92.25,198.017,92.25z"/>
<path fill="#181346" d="M90.59,152.541c0.471-9.892,7.782-17.777,16.705-17.777c8.923,0,16.234,7.885,16.706,17.777h7.558
	c-0.478-14.574-11.175-26.267-24.264-26.267s-23.786,11.692-24.264,26.267H90.59z"/>
<g>
	<g>
		<path d="M57.257,223.69c-0.337,7.75,5.734,14.092,13.493,14.092h52.776c7.757,0,14.381-6.342,14.718-14.092
			c0,0,0.229-7.625,0.929-14.863c0.701-7.238-5.073-13.162-12.83-13.162H73.566c-7.758,0-14.679,5.923-15.38,13.162
			S57.257,223.69,57.257,223.69z"/>
	</g>
	<g>
		<path fill="#1E2951" d="M55.624,222.971c-0.337,7.749,5.734,14.091,13.491,14.091h52.778c7.758,0,14.381-6.342,14.718-14.091
			c0,0,0.229-7.625,0.929-14.863c0.701-7.238-5.073-13.162-12.831-13.162H71.934c-7.758,0-14.679,5.923-15.38,13.162
			C55.852,215.346,55.624,222.971,55.624,222.971z"/>
	</g>
	<g>
		<path fill="#939598" d="M128.586,231.966H61.742c-0.113,0-0.203-0.16-0.203-0.36c0-0.198,0.09-0.359,0.203-0.359h66.844
			c0.113,0,0.205,0.161,0.205,0.359C128.791,231.805,128.698,231.966,128.586,231.966z"/>
	</g>
	<g>
		<path fill="#939598" d="M133.76,224.293H58.202c-0.113,0-0.203-0.16-0.203-0.359c0-0.2,0.09-0.359,0.203-0.359h75.559
			c0.113,0,0.204,0.159,0.204,0.359C133.964,224.133,133.873,224.293,133.76,224.293z"/>
	</g>
	<g>
		<path fill="#939598" d="M134.367,216.62H58.343c-0.116,0-0.21-0.16-0.21-0.36c0-0.198,0.094-0.358,0.21-0.358h76.024
			c0.116,0,0.209,0.16,0.209,0.358C134.576,216.46,134.484,216.62,134.367,216.62z"/>
	</g>
	<g>
		<path fill="#939598" d="M134.957,208.948H59.374c-0.121,0-0.218-0.16-0.218-0.359s0.097-0.36,0.218-0.36h75.583
			c0.12,0,0.219,0.161,0.219,0.36S135.077,208.948,134.957,208.948z"/>
	</g>
	<g>
		<path fill="#939598" d="M129.812,201.274H65.281c-0.113,0-0.204-0.159-0.204-0.357c0-0.199,0.09-0.36,0.204-0.36h64.53
			c0.113,0,0.203,0.161,0.203,0.36C130.014,201.115,129.924,201.274,129.812,201.274z"/>
	</g>
</g>
<path fill="#6D6E71" d="M167.609,249.07H20.359c0,0,0.077,17.667,6.247,25.753h141.003V249.07z"/>
<path fill="#424142" d="M196.173,249.07h-2.858h-4.901h-2.859h-7.467h-2.858h-4.902h-2.858v25.753h2.858h4.902h2.242h0.617h2.243
	h4.901h2.858C195.729,267.882,196.208,253.356,196.173,249.07z"/>
<polygon fill="#040404" points="-30.544,1.992 -30.512,1.979 -30.504,1.98 -25.666,0 -25.664,0.246 -26.264,8.546 -26.357,8.423 
	-26.764,9.432 -27.159,8.848 -27.459,9.709 -27.961,9.254 -28.321,11.264 -28.985,10.093 -29.435,10.998 -29.982,10.527 
	-30.426,11.36 -30.899,10.497 -31.269,11.643 -30.542,2.222 "/>
<path fill="#FCE583" d="M424.98,79.73c0.397-0.687,0.327-0.682,0.538-0.952c0.21-0.27,1.477-1.202,1.968-1.307
	c0.488-0.108,0.273,0.807,0,0.961c-0.276,0.154-1.01,0.641-1.01,0.641l-0.777,0.402L424.98,79.73z"/>
<linearGradient id="SVGID_6_" gradientUnits="userSpaceOnUse" x1="412.7612" y1="213.6506" x2="457.855" y2="213.6506">
	<stop  offset="0" style="stop-color:#262261"/>
	<stop  offset="1" style="stop-color:#2B388F"/>
</linearGradient>
<path fill="url(#SVGID_6_)" d="M436.295,207.81c-0.918-5.662-1.573-11.371-2.71-16.996c-0.108,0-0.216,0.002-0.325,0.003
	c-0.216,1.844-0.429,3.686-0.652,5.523c-0.615,5.096-0.537,10.233-0.935,15.342c-0.743,9.494-2.894,68.629-2.953,71.354
	c-0.018,0.864-0.251,1.669-0.546,2.469c-1.955-0.889-3.699-2.125-5.486-3.294c-0.121-0.079-0.134-0.286-0.168-0.444
	c0.136-3.655,0.264-7.315,0.526-10.958c0.162-2.231,0.226-4.473,0.3-6.697c0.108-3.168,0.2-6.345,0.357-9.507
	c0.544-10.773,0.389-21.555,0.482-32.334c0.019-2.147,0.193-4.316,0.539-6.439c0.423-2.602,0.289-5.191,0.126-7.783
	c-0.151-2.353-0.444-4.695-0.477-7.056c-0.011-1.03-0.493-1.779-1.385-2.28c-1.352-0.751-2.72-1.481-4.161-2.047
	c-1.177-0.461-1.683-1.279-1.753-2.512c-0.225-3.981-4.066-21.057-4.307-25.04c-0.217-3.595,3.899-5.469,3.143-6.779
	c-0.251-0.717,0.204-1.154,0.667-1.561c2.882-2.506,5.824-4.916,9.071-6.966c3.884-2.46,7.364-5.476,10.897-8.409
	c0.625-0.52,1.265-1.021,1.894-1.536c1.348-1.106,2.737-2.16,3.681-3.687c0.293-0.478,0.601-1.101,1.341-1.112
	c0.484,0.258,0.395,0.753,0.478,1.177c0.551,2.724,1.335,5.334,3.043,7.616c1.341,1.79,3.051,2.443,5.199,2.188
	c0.62-0.077,1.061-0.382,1.326-0.938c0.266-0.552,0.476-1.12,0.529-1.735c0.181-0.741,0.214-1.49,0.233-2.243
	c0.013-0.479,0.083-0.956,0.491-1.291c0.812,1.167,0.613,2.536,0.747,3.834c0.751,7.347,0.302,14.713,0.357,22.074
	c0.047,5.938-0.401,44.863-0.493,53.575c-0.031,3.206,0.215,6.423,0.266,9.612c0.09,5.752,1.688,36.22,2.049,45.738
	c0.108,2.872,0.28,5.748,0.062,8.621c-0.023,0.318-0.13,0.631-0.2,0.945c-0.138-0.098-0.273-0.229-0.259-0.386
	c0.125-1.563-0.938-2.106-2.11-2.697c-1.408-0.704-2.796-1.442-4.256-2.04c-0.457-0.185-0.875-0.423-1.014-0.958
	c-0.127-0.605-0.108-1.218-0.085-1.825c0.166-4.639-0.112-9.272-0.313-13.898c-0.253-5.801-0.501-11.604-0.846-17.402
	c-0.161-2.71-0.261-5.438-0.342-8.161c-0.177-5.969-0.363-11.943-0.493-17.913c-0.085-3.972-2.518-6.639-5.471-8.917
	c-0.645-0.493-1.322-0.96-2.025-1.357C438.363,211.561,437.243,209.763,436.295,207.81z"/>
<linearGradient id="SVGID_7_" gradientUnits="userSpaceOnUse" x1="412.5854" y1="222.0403" x2="425.5151" y2="222.0403">
	<stop  offset="0" style="stop-color:#262261"/>
	<stop  offset="1" style="stop-color:#2B388F"/>
</linearGradient>
<path fill="url(#SVGID_7_)" d="M415.96,161.837c0.903,1.216-2.172,2.558-2.146,4.091c0.068,3.907,3.664,26.87,3.668,28.782
	c0,0.897,0.652,1.3,1.428,1.592c1.6,0.608,3.092,1.438,4.59,2.256c0.943,0.517,1.988,1.308,2.012,2.308
	c0.077,3.559-0.978,33.599-0.975,39.582c0.002,3.777-0.22,7.548-0.302,11.318c-0.092,4.171-0.307,8.345-0.47,12.518
	c-0.198,5.136-0.602,10.267-0.721,15.409c-0.019,0.803-0.287,1.598-0.219,2.416c-0.351,0.251-0.701,0.096-1.032-0.034
	c-1.59-0.609-3.224-1.039-4.9-1.315c-0.609-0.102-1.196-0.246-1.442-0.92c0.441-0.419,0.365-0.954,0.323-1.48
	c-0.434-5.431-0.846-10.865-1.31-16.299c-0.446-5.234-0.646-10.478-0.837-15.722c-0.323-8.867-0.408-17.742-0.842-26.602
	c-0.573-11.606,0.264-23.19,0.266-34.786c0-1.79,0.408-3.624,0.132-5.362c-0.771-4.841,0.136-9.713-0.421-14.545
	c-0.046-0.069-0.112-0.162-0.08-0.215C413.447,163.474,414.316,162.228,415.96,161.837z"/>
<linearGradient id="SVGID_8_" gradientUnits="userSpaceOnUse" x1="436.2954" y1="245.1086" x2="450.189" y2="245.1086">
	<stop  offset="0" style="stop-color:#262261"/>
	<stop  offset="1" style="stop-color:#2B388F"/>
</linearGradient>
<path fill="url(#SVGID_8_)" d="M436.295,207.81c0.773,0.658,8.528,7.72,10.154,9.791c0.754,0.961,1.02,2.036,1.352,3.179
	c0.783,2.728,0.161,5.486,0.463,8.202c0.323,2.923,0.065,5.847,0.24,8.76c0.223,3.764,0.325,7.529,0.501,11.295
	c0.164,3.438,0.311,6.88,0.495,10.315c0.215,4.011,0.278,8.021,0.506,12.024c0.211,3.656,0.07,7.306,0.183,10.957
	c-1.124,0.343-1.916-0.593-2.911-0.747c-0.469-0.22-0.951-0.1-1.432-0.081c-1.39-0.351-2.779-0.414-4.176-0.004
	c-0.49,0.14-0.958,0.108-1.291-0.363c-1.118-0.804-0.929-1.98-0.885-3.111c0.432-10.817-1.158-57.053-1.766-60.701
	C437.203,214.162,436.769,210.984,436.295,207.81z"/>
<path fill="#F16924" d="M413.326,88.954c0.43,0.671-0.032,1.334-0.053,1.995c-0.119,3.88,0.656,7.626,1.889,11.237
	c0.963,2.82,0.757,5.602,0.491,8.425c-0.345,3.635-0.712,7.266-0.927,10.913c-0.238,4.063-0.247,8.128-0.202,12.194
	c0.025,2.233,0.164,4.465,0.268,6.699c0.018,0.316,0.132,0.633,0.2,0.948c0.658,1.186,0.24,2.541,0.586,3.778
	c0.032,0.113-0.006,0.247,0.02,0.361c0.493,2.053,0.051,3.7-1.842,4.901c-0.725,0.456-0.804,1.354-0.708,2.205
	c0.068,0.606,0.141,1.229-0.495,1.623c-0.353-0.507-0.197-1.103-0.293-1.654c-1.358-7.835-0.871-15.75-0.939-23.635
	c-0.009-1.072-0.351-1.552-1.37-1.714c-1.813-0.292-3.574-0.788-5.24-1.566c-0.448-0.209-0.723-0.138-1.079,0.162
	c-1.277,1.08-2.727,1.303-4.201,0.521c-1.464-0.776-2.093-2.185-1.768-3.716c0.739-3.49,0.578-7.146,1.738-10.523
	c2.318-6.756,5.609-13.07,9.325-19.152C409.811,91.18,411.192,89.597,413.326,88.954z"/>
<path fill="#F4AF6E" d="M415.046,47.257c0.198-0.5,0.226-1.041,0.39-1.569c0.098-0.1-0.032-0.09,0.091-0.028
	c1.165,0.095,1.972,0.693,3.026,0.796c1.557,0.155,3.125,0.188,4.674,0.432c0.396,0.063,0.806,0.087,1.061,0.467
	c0.139,0.619-0.412,0.675-0.752,0.836c-0.417,0.199-0.321,0.362-0.072,0.594c-0.515,1.762,0.342,2.847,1.789,3.647
	c0.684,0.971,1.012,0.866,1.982,0.739c0.877-0.966,1.245-2.167,1.589-3.379c0.026-0.482-0.312-0.682-0.658-0.904
	c-0.276-0.181-0.71-0.288-0.544-0.792c0.385-0.272,0.784-0.117,1.162-0.018c1.809,0.475,3.591,1.019,5.358,1.625
	c0.927,0.32,2.777,0.487,2.685,1.496c-0.052,0.545-0.527,1.363-0.529,1.911c-0.028,0.939-0.68,1.96-0.854,2.876
	c-0.083,0.417-0.718,0.902,0.013,0.89c0.578,0.029,0.614,0.478,0.614,0.876c-0.002,1.917,0.119,3.832-0.103,5.747
	c-0.072,0.652-0.27,1.241-0.698,1.708c-2.217,2.414-4.337,4.967-7.346,6.456c-1.912,0.947-3.897,1.77-6.081,1.884
	c-1.144,0.166-2.136-0.233-3.22-0.459c-0.947-0.566-1.674-1.379-2.008-2.456c-0.323-1.052-0.663-2.107-1.092-3.117
	c-1.466-3.458-2-7.049-1.606-10.774c0.163-1.563,0.438-3.117,0.663-4.677c-0.079-3.401,1.262-2.676,1.519-2.334
	c0.285,0.513,1.237,1.01,1.689,1.24c0.347,0.324-0.701,3.028-0.822,3.37c-0.219,0.625-0.452,1.244-0.687,1.865
	c-0.584,1.559,0.397,1.796,0.574,0.863c0.248-1.305,0.69-2.556,0.976-3.848c0.266-1.198,0.429-2.391,0.004-3.586
	C417.395,48.269,416.219,47.762,415.046,47.257z"/>
<linearGradient id="SVGID_9_" gradientUnits="userSpaceOnUse" x1="417.8599" y1="40.5989" x2="445.6577" y2="40.5989">
	<stop  offset="0" style="stop-color:#F05A28"/>
	<stop  offset="1" style="stop-color:#F6921E"/>
</linearGradient>
<path fill="url(#SVGID_9_)" d="M417.86,35.649c0.425-0.004,0.555-0.874,0.721-1.153c3.403-5.756,7.966-9.761,16.994-4.479
	c14.146,8.269,9.426,22.256,8.945,22.94c-0.421,0.602-0.777,0.804-1.424,0.631c-0.335,0.145-0.318-0.125-0.374-0.313
	c0.224-0.438,0.341-0.817-0.235-1.124c-0.383-0.204-0.721-0.497-1.088-0.735c-0.417-0.295-0.858-0.548-1.326-0.758
	c-1.883-1.185-3.929-2.02-6.002-2.798c-0.415-0.155-0.851-0.254-1.205-0.539c-1.099-1.336-1.872-2.89-2.877-4.292
	c-2.745-3.836-6.723-5.78-10.998-7.292C418.606,35.602,418.037,36.177,417.86,35.649z"/>
<linearGradient id="SVGID_10_" gradientUnits="userSpaceOnUse" x1="417.8618" y1="37.4524" x2="436.5269" y2="37.4524">
	<stop  offset="0" style="stop-color:#262261"/>
	<stop  offset="1" style="stop-color:#2B388F"/>
</linearGradient>
<path fill="url(#SVGID_10_)" d="M432.304,28.425c-6.911-2.626-10.758,1.056-13.724,6.072c-0.166,0.279-0.296,1.149-0.719,1.153
	c0.175,0.528,0.746-0.046,1.131,0.089c4.277,1.512,8.253,3.455,10.998,7.292c1.005,1.403,1.778,2.957,2.877,4.292
	c0.013,0.011,0.025,0.018,0.04,0.029c0.009-0.053,0.018-0.103,0.028-0.156C434.247,40.045,440.67,31.634,432.304,28.425z"/>
<path fill="#090909" d="M415.763,280.022c1.262,0.195,5.261,1.429,7.063,2.087c1.853,1.024,3.723,2.016,5.349,3.396
	c0.866,1.5,0.399,2.989-0.056,4.462c-0.17,0.558-0.612,0.789-1.229,0.789c-7.518-0.011-15.037-0.006-22.557-0.015
	c-0.661,0-1.872-1.512-2.04-2.558c-0.181-1.112-0.04-2.153,1.142-2.673c1.224-0.537,2.479-1.003,3.72-1.502
	c1.738-0.508,3.328,0.043,4.745,0.916c1.003,0.61,1.764,0.586,2.654-0.062c1.173-0.858,2.509-1.474,3.765-2.397
	c-0.896-0.803-1.957-1.068-2.964-1.451c-0.349-0.132-0.99,0.654-0.68-0.168C414.974,280.732,415.461,280.137,415.763,280.022z"/>
<path fill="#090909" d="M447.27,281.339c1.063,0.07,1.899,0.806,2.919,0.994c1.679,0.975,3.477,1.709,5.221,2.533
	c1.564,0.744,2.397,1.626,2.142,3.37c-0.087,2.176-0.436,2.513-2.592,2.513c-7.022-0.002-14.05,0-21.074-0.002
	c-0.973,0-2.207-1.214-2.501-2.448c-0.32-1.345,0.134-2.386,1.341-2.906c1.154-0.498,2.335-0.928,3.506-1.384
	c1.772-0.476,3.385,0.069,4.845,0.973c0.907,0.561,1.606,0.557,2.429-0.03c0.856-0.616,1.776-1.139,2.682-1.679
	c1.164-0.698,1.166-0.698,0.508-1.748C446.806,281.205,447.012,281.184,447.27,281.339z"/>
<path fill="#A84925" d="M448.333,129.881c1.291,0.208,2.498,0.676,3.665,1.24c0.654,0.317,0.976,0.275,1.191-0.541
	c0.652-2.424,1.524-6.085,2.049-8.545c0.253,0.952-0.094,10.781-0.414,14.903c-0.276,0.61-0.731,1.053-1.248,1.466
	c-1.655,1.318-3.145,2.833-4.861,4.08c-0.58,0.423-0.688,0.965-0.361,1.608c0.551,1.089,1.057,2.2,1.758,3.208
	c0.846,1.209,1.594,1.383,2.89,0.639c0.414-0.236,0.754-0.646,1.309-0.556c-0.282,2.97-3.3,4.17-5.888,2.309
	c-1.766-1.272-2.85-3.058-3.612-5.063c-0.676-1.784-1.059-3.637-1.43-5.497C445.387,136.239,446.904,133.083,448.333,129.881z"/>
<path fill="#181346" d="M440.248,50.534c-0.3,0.146-0.596,0.29-0.895,0.433c-0.946-0.053-1.655-0.671-2.472-1.035
	c-0.559-0.25-1.124-0.479-1.695-0.702c-3.67-1.221-7.339-2.435-10.958-3.806c-1.84-0.697-3.459-1.57-4.657-3.178
	c-0.86-1.155-2.488-0.85-3.023,0.522c-0.242,0.617-0.334,1.282-0.521,1.918c-0.112,0.379,0.352,1.063-0.102,1.243
	c-0.078,0.008-0.159,0.017-0.242,0.025c-3.544-1.377-6.663-3.951-7.836-7.637c-0.529-1.664-0.417-3.349,1.077-4.624
	c1.228-0.917,2.479-0.623,3.754-0.105c2.11,0.857,3.744,2.285,5.136,4.058c1.093,1.389,14.816,9.261,15.12,9.544
	C435.302,48.333,437.664,49.016,440.248,50.534z"/>
<path fill="#F4AF6E" d="M427.662,75.619c-0.025,0.662,1.821,1.793,2.242,1.644c1.982-0.702,3.875-1.579,5.566-2.852
	c0.17-0.128,0.314-0.384,0.547-0.307c0.32,0.107,0.214,0.436,0.203,0.671c-0.049,0.914-0.159,1.823-0.187,2.74
	c-0.085,2.68-1.37,0.574-0.739,3.477c0.13,0.561-0.304,0.795-0.64,1.063c-1.173,0.941-2.45,1.728-3.808,2.369
	c-1.827,0.867-3.264,0.442-4.42-1.213c-0.981-1.404-1.774-2.47-0.929-4.231c-0.019,0.2,1.176-0.851,1.719-1.308
	C427.262,77.388,427.454,75.863,427.662,75.619z"/>
<path fill="#F16924" d="M432.936,47.194c-3.305-0.767-6.404-2.125-9.554-3.325c-1.267-0.479-2.194-1.469-3.036-2.498
	c-1.377-1.673-2.637-3.445-4.082-5.05c-1.491-1.653-3.439-2.636-5.639-2.994c-0.534-0.087-1.658,0.293-2.446,1.196
	c0.731-1.548,2.391-2.01,3.646-1.6c2.057,0.67,4.05,1.501,6.09,2.213c2.888,0.791,5.611,2.009,8.114,3.614
	c2.284,1.466,3.978,3.586,5.365,5.911C431.901,45.51,432.593,46.246,432.936,47.194z"/>
<path fill="#2B405A" d="M412.552,154.235c0.072-0.313,0.274-0.659,0.2-0.934c-0.557-1.998,0.467-3.219,1.978-4.238
	c0.685-0.463,0.82-1.104,0.706-1.908c-0.269-1.919-0.504-3.844-0.442-5.789c1.558-0.947,3.124-1.759,5.051-1.756
	c1.865,0.006,3.472,0.593,4.946,1.645c0.321,0.228,0.602,0.491,1.001,0.569c-1.477,1.619-2.906,3.29-4.449,4.849
	c-3.032,3.061-6.128,6.059-9.198,9.085C412.415,155.248,412.484,154.741,412.552,154.235z"/>
<path fill="#F8991D" d="M447.2,81.714c-1.946,1.491-3.681,3.188-5.091,5.204c-0.477,0.252-0.986,0.359-1.518,0.314
	c-2.881-0.249-5.781-0.325-8.638-0.84c-0.678-0.308-0.316-0.607,0.036-0.856c0.5-0.354,1.063-0.601,1.588-0.913
	c2.575-1.529,4.664-3.659,6.927-5.575c0.287-0.243,0.427-0.589,0.611-0.902c0.168-0.287,0.352-0.585,0.759-0.325
	C443.783,78.939,445.485,80.334,447.2,81.714z"/>
<linearGradient id="SVGID_11_" gradientUnits="userSpaceOnUse" x1="447.7788" y1="142.8264" x2="454.8237" y2="142.8264">
	<stop  offset="0" style="stop-color:#F05A28"/>
	<stop  offset="1" style="stop-color:#F6921E"/>
</linearGradient>
<path fill="url(#SVGID_11_)" d="M454.309,147.383c-0.356,0.265-0.701,0.55-1.073,0.794c-1.351,0.898-2.524,0.677-3.359-0.695
	c-0.649-1.069-1.198-2.204-1.831-3.286c-0.444-0.759-0.338-1.306,0.363-1.878c2.161-1.763,4.279-3.583,6.415-5.381
	c-0.021,2.296-0.041,4.594-0.06,6.894C454.547,145.009,454.781,146.241,454.309,147.383z"/>
<path fill="#727274" d="M415.268,280.669c1.276,0.401,2.556,0.795,3.642,1.847c-1.838,1.13-3.627,2.23-5.416,3.332
	c-0.27,0.163-0.521,0.191-0.777-0.036c-1.59-1.406-3.563-1.643-5.562-1.804C409.45,282.406,414.979,280.577,415.268,280.669z"/>
<path fill="#727274" d="M446.779,281.581c0.345,0.327,0.862,0.445,1.147,0.975c-1.766,1.081-3.519,2.156-5.27,3.238
	c-0.302,0.186-0.574,0.279-0.88,0.01c-1.587-1.405-3.557-1.635-5.546-1.796c1.008-0.86,5.166-2.775,5.663-2.909
	c1.413-0.376,2.796-0.365,4.149,0.236C446.39,281.121,446.592,281.331,446.779,281.581z"/>
<path fill="#F09249" d="M418.081,49.52c0.731,1.989,0.117,3.893-0.344,5.794c-0.213,0.884-0.383,1.78-0.612,2.648
	c-0.248,0.927,0.173,1.271,0.793,1.529c0.786,0.325,1.61,0.512,2.441,0.672c0.311,0.062,0.813,0.065,0.808,0.628
	c-0.007,0.585-0.459,0.668-0.86,0.71c-1.044,0.106-2.042-0.046-2.973-0.627c-1.558-0.97-1.973-2.306-1.364-4.12
	c0.322-0.953,1.045-3.464,1.096-3.735c0.279-1.508-0.561-2.188-1.967-2.037c-0.183,0.018-0.296,0.122-0.461-0.006
	c0.076-0.608,0.354-1.275,0.015-1.879c-0.155-0.354-0.229-0.651-0.015-0.771c0.445-0.25,1.475,0.013,2.026,0.327
	C417.146,48.927,417.671,49.115,418.081,49.52z"/>
<path fill="#343028" d="M439.552,63.774c-1.012,0.11-1.151-0.626-0.963-1.26c0.472-1.562,0.934-3.152,1.975-4.467
	c1.07-1.354,1.883-2.788,1.621-4.604c-0.112-0.223-0.1-0.414,0.13-0.555c0.242-0.051,0.425,0.023,0.521,0.264
	c0.087,0.146,0.945,0.535,1.032,0.682c-0.017,0.255-1.228,4.42-2.328,6.153C440.778,61.19,440,62.4,439.552,63.774z"/>
<path fill="#F7991D" d="M424.721,80.142c1.054,1.201,0.094,4.374,1.26,5.501c-0.99,0.485-5.557,0.273-6.531-0.304
	c-0.005-0.901,0.837-1.137,1.307-1.665C421.487,82.865,423.831,80.744,424.721,80.142z"/>
<path fill="#F16924" d="M419.45,85.34c2.178,0.102,4.354,0.203,6.531,0.304c1.776,1.453,3.659,1.67,5.656,0.47
	c3.491,0.263,6.965,0.727,10.472,0.805c-1.859,3.472-3.728,6.938-5.562,10.422c-0.273,0.524-0.597,0.788-1.181,0.875
	c-3.787,0.577-7.592,0.558-11.41,0.584c-2.414,0.016-3.155-1.188-3.702-3.229c-0.652-2.434-1.511-4.8-1.309-7.377
	C419.022,87.224,419.056,86.25,419.45,85.34z"/>
<path fill="#3A4A61" d="M436.027,129.881c-0.588,0.725-1.175,1.449-1.763,2.174C434.398,130.961,434.958,130.215,436.027,129.881z"
	/>
<path fill="#1E2838" d="M446.779,281.581c-0.244-0.08-0.488-0.163-0.735-0.247c0.412-0.385,0.82-0.3,1.227,0.004
	C447.079,281.366,446.887,281.388,446.779,281.581z"/>
<path fill="#F09249" d="M415.382,45.881c0.274-0.993,0.642-2.167,0.863-3.171c0.261-1.189,1.941-2.487,3.524-0.699
	c1.111,1.504,2.573,2.396,4.326,3.063c3.717,1.413,7.501,2.619,11.245,3.942c0.626,1.336,0.601,2.937,0.425,4.31
	c-0.025,0.19-0.103,0.487-0.313,0.496c-0.009-0.073-0.354-3.57-3.206-4.401c-1.521-0.444-2.983-1.183-4.63-1.145
	c-0.157,0.144-0.351,0.14-0.513,0.056c-0.888-0.46-1.874-0.534-2.828-0.731C423.438,46.97,415.109,46.685,415.382,45.881z"/>
<path fill="#F09249" d="M425.167,52.525c-1.014-0.503-2.036-0.926-2.116-2.362c-0.034-0.574-0.02-1.606,0.233-1.796
	c0.068-0.61,0.688-0.074,1.043-0.095c0.759-0.043,1.447,0.24,2.106,0.579c0.85,0.438,1.708,0.847,2.671,0.97
	c-0.413,1.271-0.721,2.591-1.87,3.349c-0.272-0.338,0.076-0.482,0.065-0.836c-0.017-0.625-0.306-1.048-0.884-1.262
	c-0.457-0.167-0.9-0.342-0.703,0.495C425.811,51.986,425.625,52.363,425.167,52.525z"/>
<path fill="#383129" d="M425.167,52.525c0.006-0.917,0.514-0.849,0.108-1.271c-0.406-0.421,0.036-0.78,0.614-0.679
	c1.536,0.269,2.063,1.605,1.343,2.595C426.514,54.157,425.161,53.442,425.167,52.525z"/>
<path fill="#383129" d="M414.741,52.282c0.007-0.918,0.512-0.85,0.108-1.271c-0.405-0.421,0.036-0.78,0.614-0.678
	c1.534,0.268,2.063,1.604,1.343,2.593C416.088,53.915,414.732,53.199,414.741,52.282z"/>
<path fill="#D93F26" d="M443.868,53.833c-0.127-0.066-0.11-0.058-0.238-0.125c-0.248-0.066-2.194-1.253-2.317-1.445
	c-0.231-0.401,0.246-0.6,0.181-1.065c0.467,0.327,2.012,1.373,2.581,1.731c0.26,0.164,0.387,0.288,0.325,0.423
	C444.325,53.519,444.18,53.675,443.868,53.833z"/>
<path fill="#D5A688" d="M437.644,57.989c-0.148-0.079-0.237-0.095-0.266-0.144c-0.346-0.645-0.444-1.293,0.013-1.925
	c0.113-0.152,0.343-0.253,0.451-0.056c0.316,0.586,0.183,1.188-0.036,1.774C437.767,57.738,437.716,57.831,437.644,57.989z"/>
<linearGradient id="SVGID_12_" gradientUnits="userSpaceOnUse" x1="412.8628" y1="111.7639" x2="454.6616" y2="111.7639">
	<stop  offset="0" style="stop-color:#262261"/>
	<stop  offset="1" style="stop-color:#2B388F"/>
</linearGradient>
<path fill="url(#SVGID_12_)" d="M413.326,88.954c1.332-2.27,3.65-3.454,5.578-5.069c0.588-0.496,1.168-1.212,1.853-0.7
	c0.351,0.34-0.038,0.472-0.208,0.597c-0.47,0.348-0.789,1.265-0.893,1.845c-0.695,2.803-0.502,5.56,0.461,8.271
	c0.353,0.994,0.591,2.025,0.945,3.021c0.302,0.852,0.854,1.246,1.794,1.362c3.985,0.487,7.938,0.138,11.893-0.312
	c0.86-0.098,1.343-0.579,1.761-1.307c1.843-3.202,3.999-7.93,5.276-9.739c1.912-2.71,4.78-5.232,5.414-5.209
	c0.916-0.352,1.706-0.151,2.465,0.464c1.511,1.222,3.056,2.399,4.59,3.593c0.273,0.212,0.463,0.451,0.393,0.82
	c-1.43-0.308-4.211,0.051-5.622,1.276c-1.583,1.376-2.618,3.084-3.251,5.06c-0.361,1.12-0.667,2.261-1.014,3.386
	c-1.082,3.41-1.897,6.874-2.599,10.382c-1.303,6.521-2.488,13.074-4.279,19.489c-0.533,1.227-0.755,2.596-1.587,3.696
	c-0.97,0.495-1.626,1.242-1.868,2.325c-1.249,2.004-2.812,3.77-4.332,5.561c-1.024,1.203-2.091,2.375-3.151,3.551
	c-0.274,0.305-0.522,0.625-0.976,0.667c-0.573,0.022-0.979-0.342-1.417-0.633c-2.684-1.774-5.439-1.889-8.276-0.374
	c-0.474,0.251-0.931,0.749-1.536,0.256c-0.251-0.296-0.314-0.66-0.329-1.027c-0.206-5.722-0.394-11.437-0.104-17.17
	c0.27-5.359,0.846-10.686,1.279-16.029c0.112-1.411-0.251-2.744-0.644-4.068c-0.835-2.809-1.604-5.638-1.904-8.561
	C412.85,92.569,412.667,90.731,413.326,88.954z"/>
<path fill="#E26425" d="M442.973,85.397c1.744-2.059,3.714-3.702,4.227-3.684c-1.715-1.381-3.417-2.776-5.325-3.893
	c-0.407-0.26-0.591,0.039-0.759,0.325c-0.185,0.313-0.324,0.659-0.611,0.902c-1.33,1.125-2.601,2.326-3.941,3.431v0.003
	C437.931,83.123,441.199,84.239,442.973,85.397z"/>
<path fill="#F09249" d="M440.936,57.998c1.068-1.309,2.467-4.557,0.559-6.799c-2.975-2.929-5.11,2.606-5.927,4.517
	c-0.19,0.452-0.526,0.901-0.239,1.441c0.445-0.164,0.478,0.092,0.478,0.437c-0.017,1.689-0.076,6.693-1.143,7.919
	c-3.126,3.605-11.343,9.165-16.103,7.541c0.816,0.477,1.686,0.753,2.642,0.696c0.146,0.015,0.291,0.036,0.436,0.042
	c2.35,0.086,5.86-2.03,5.828-1.129c-0.047,1.392-0.036,2.787-0.049,4.181c-0.253,2.161,6.859-1.365,6.936-1.038
	c0.454,1.872-0.076,3.321,0.788,5.133c0.479,0.354,0.863,0.044,1.178-0.23c0.904-0.793,1.799-1.6,2.647-2.45
	c0.484-0.483,1.028-1.09,0.505-1.905c-0.783-5.402,0.088-11.658,0.081-12.577c-0.495-0.386-0.848-0.839-0.599-1.511
	C439.501,60.792,439.905,59.262,440.936,57.998z"/>
<path fill="#352F28" d="M435.591,53.425c0.459-1.453,0.334-3.065-0.25-4.408c1.421,0.479,2.012,0.939,3.264,1.763
	c-1.815,1.641-2.14,3.893-2.833,6.377c-0.911,0.211-0.839-0.371-0.734-0.936C435.209,55.284,435.407,54.356,435.591,53.425z"/>
<path fill="#383229" d="M429.105,49.822c-0.569,0.376-1.086,0.194-1.637-0.093c-0.871-0.455-1.712-1.008-2.702-1.164
	c-0.451-0.071-2.015,0.323-2.083-0.049c-0.049-0.271,1.237-0.75,1.594-0.914c1.271-0.567,4.104,1.12,4.496,1.317
	C429.174,49.123,429.29,49.412,429.105,49.822z"/>
<path fill="#3B352D" d="M418.081,49.42c-0.28-0.057-0.611-0.04-0.837-0.186c-0.875-0.57-2.318-0.883-2.594-0.204
	C413.468,48.057,415.255,44.998,418.081,49.42z"/>
<path fill="#EC7A2B" d="M417.131,64.114c2.403,0.139,4.677,0.271,6.97,0.403C422.473,66.115,418.332,65.934,417.131,64.114z"/>
<path fill="#EC7A2B" d="M420.231,68.694c-0.745,0.067-1.126-0.064-1.44-0.33c-0.353-0.299-0.325-0.727-0.208-1.111
	c0.123-0.428,0.529-0.302,0.835-0.281c0.249,0.015,1.814,0.266,1.738,0.949C421.077,68.6,420.457,68.659,420.231,68.694z"/>
<linearGradient id="SVGID_13_" gradientUnits="userSpaceOnUse" x1="423.605" y1="81.593" x2="441.8745" y2="81.593">
	<stop  offset="0" style="stop-color:#262261"/>
	<stop  offset="1" style="stop-color:#2B388F"/>
</linearGradient>
<path fill="url(#SVGID_13_)" d="M441.875,77.992c-0.929,1.294-2.156,2.287-3.306,3.363c-2.094,1.958-9.288,8.682-12.896,4.94
	c-1.225-1.17-3.885-4.588-0.155-7.517c-0.175,1.625,0.121,3.085,1.153,4.441c1.163,1.523,2.335,1.951,4.063,1.064
	c1.646-0.844,6.972-5.187,8.162-6.239c0.41-0.365,0.607-0.928,0.573-1.522c-0.044-0.408-0.038-0.58-0.07-0.69
	c-0.067-0.238,0.733,0.316,1.144,0.705C441.059,77.026,441.35,77.58,441.875,77.992z"/>
<path fill="#2B405A" d="M441.875,99.878l-5.452-1.022l-0.217,1.16l0.28,0.053c-0.029,1.215,0.822,2.308,2.055,2.539
	c1.235,0.231,2.425-0.477,2.839-1.622l0.278,0.054L441.875,99.878z"/>
<path fill="#2B405A" d="M421.102,98.67l-5.411,1.207l0.257,1.154l0.276-0.062c0.452,1.127,1.666,1.795,2.89,1.521
	c1.226-0.273,2.04-1.394,1.97-2.609l0.276-0.062L421.102,98.67z"/>
<linearGradient id="SVGID_14_" gradientUnits="userSpaceOnUse" x1="441.3794" y1="108.9041" x2="457.3452" y2="108.9041">
	<stop  offset="0" style="stop-color:#F05A28"/>
	<stop  offset="1" style="stop-color:#F6921E"/>
</linearGradient>
<path opacity="0.8" fill="url(#SVGID_14_)" d="M453.491,130.797c-0.163,0.573-0.533,1.049-1.135,0.818
	c-1.349-0.521-7.863-3.077-9.768-3.834c-0.407-0.161-0.807-0.342-1.209-0.515c0.436-0.431,0.979-0.34,1.496-0.259
	c0.927,0.146,1.859,0.239,2.788,0.354c1.307,0.167,1.542-0.006,1.916-1.279c1.29-4.381,2.132-8.868,2.971-13.349
	c1.162-6.204,1.753-12.494,2.631-18.742c0.031-0.242,0.055-0.485,0.04-0.73c-0.155-2.685-1.014-3.13-3.236-1.691
	c-1.596,1.03-2.839,2.43-4.103,3.812c-0.368,0.404-1.57,3.553-2.286,3.419c0.82-3.199,2.586-8.92,5.333-11.18
	c1.787-1.47,3.587-1.976,5.716-0.943c1.35,0.899,2.163,2.117,2.418,3.747c1.03,6.637-1.059,27.286-1.523,30.99L453.491,130.797z"/>
<linearGradient id="SVGID_15_" gradientUnits="userSpaceOnUse" x1="437.5552" y1="108.3635" x2="453.4448" y2="108.3635">
	<stop  offset="0" style="stop-color:#F05A28"/>
	<stop  offset="1" style="stop-color:#F6921E"/>
</linearGradient>
<path fill="url(#SVGID_15_)" d="M444.54,96.155c2.091-4.853,3.808-6.957,5.779-7.106c1.97-0.15,2.373,1.006,2.722,1.975
	c0.349,0.971,0.519,2.906,0.319,4.401c-0.511,3.84-0.895,7.702-1.501,11.526c-0.658,4.148-1.487,8.269-2.281,12.393
	c-0.479,2.465-1.154,4.88-1.805,7.305c-0.208,0.776-0.528,1.114-1.33,1.028c-1.687-0.181-3.189-0.165-4.876-0.332
	c-1.42-0.493-3.685-1.161-4.012-1.086c2.001-7.958,3.551-16.011,5.148-24.056C443.114,100.141,443.772,98.124,444.54,96.155z"/>
<path fill="#E26425" d="M441.193,109.802c0.761-3.734,4.339-8.157,4.339-8.157c-0.899,0-3.657,2.565-3.423,3.564L441.193,109.802z"
	/>
<g opacity="0.3">
	<path fill="#F09249" d="M394.927,160.977c0.501,0.477,1.132,0.618,1.793,0.629c1.141,0.019,2.28,0.049,3.417,0.01
		c0.28-0.012,0.539,0.026,0.79,0.085c0.11-0.093,0.219-0.186,0.325-0.281c0.484-0.436,0.438-0.662-0.157-0.93
		c-0.565-0.252-1.103-0.453-1.744-0.431c-1.14,0.038-2.278,0.009-3.417-0.009c-0.468-0.008-0.918-0.082-1.321-0.294
		c-0.052,0.065-0.09,0.148-0.11,0.256C394.43,160.411,394.655,160.716,394.927,160.977z"/>
	<path fill="#F09249" d="M448.362,129.744c-0.206-0.36-0.559-0.475-0.907-0.594c-1.348,2.964-4.677,8.355-4.866,8.426
		c-5.112,6.111-11.542,10.678-18.006,15.181c-3.31,2.308-6.504,4.73-9.412,7.521c-1.216,0.922-2.448,1.823-3.196,3.207
		c-1.077,1.042-1.938,2.52-2.774,3.714c-0.846,1.205-2.049,1.474-3.3,1.766c-1.196,0.28-2.098,0.166-3.386,0.555
		c-1.287,0.387-3.62,0.477-5.414-0.092c-1.557-0.492-3.185-0.924-4.889-0.838c-0.051,0.002-0.1,0-0.146-0.002
		c-0.018,0.064-0.023,0.145-0.021,0.24c0.025,0.626,0.172,1.354,0.954,1.317c1.704-0.085,3.332,0.344,4.89,0.839
		c1.795,0.568,4.126,0.477,5.414,0.09c1.287-0.386,2.19-0.271,3.385-0.554c1.251-0.293,2.456-0.563,3.3-1.768
		c0.839-1.193,1.697-2.67,2.776-3.712c0.748-1.385,1.979-2.289,3.196-3.204c2.909-2.796,6.101-5.217,9.413-7.524
		c6.461-4.502,12.891-9.07,18.006-15.181c0.193-0.075,3.709-5.776,4.974-8.674C448.451,130.231,448.458,129.985,448.362,129.744z"/>
</g>
<path fill="#F09249" d="M448.353,130.457c0.101-0.227,0.106-0.474,0.011-0.713c-0.248-0.433-0.712-0.513-1.122-0.673
	c-1.931-0.744-3.888-1.416-5.834-2.12c-1.237-0.486-2.531-0.668-3.851-0.69c-0.157,0.286-0.313,0.564-0.463,0.838l8.59,8.384
	C446.685,133.768,447.765,131.805,448.353,130.457z"/>
<linearGradient id="SVGID_16_" gradientUnits="userSpaceOnUse" x1="-1003.3491" y1="191.6887" x2="-942.4116" y2="191.6887" gradientTransform="matrix(-1 0 0 -1 -565.4053 307.061)">
	<stop  offset="0" style="stop-color:#F15A29"/>
	<stop  offset="0.4305" style="stop-color:#F0532D"/>
	<stop  offset="1" style="stop-color:#EF4136"/>
</linearGradient>
<polygon fill="url(#SVGID_16_)" points="437.944,113.743 411.625,106.66 377.006,115.15 398.828,124.085 "/>
<linearGradient id="SVGID_17_" gradientUnits="userSpaceOnUse" x1="-964.6948" y1="166.9973" x2="-942.4077" y2="166.9973" gradientTransform="matrix(-1 0 0 -1 -565.4053 307.061)">
	<stop  offset="0" style="stop-color:#F15A29"/>
	<stop  offset="0.4305" style="stop-color:#F0532D"/>
	<stop  offset="1" style="stop-color:#EF4136"/>
</linearGradient>
<polygon fill="url(#SVGID_17_)" points="399.087,127.578 398.828,124.085 377.006,115.15 377.002,115.297 377.58,155.703 
	399.29,164.978 "/>
<linearGradient id="SVGID_18_" gradientUnits="userSpaceOnUse" x1="-1003.5786" y1="167.7004" x2="-964.2329" y2="167.7004" gradientTransform="matrix(-1 0 0 -1 -565.4053 307.061)">
	<stop  offset="0" style="stop-color:#F15A29"/>
	<stop  offset="0.4305" style="stop-color:#F0532D"/>
	<stop  offset="1" style="stop-color:#EF4136"/>
</linearGradient>
<polygon fill="url(#SVGID_18_)" points="437.944,113.889 437.944,113.743 398.828,124.085 399.087,127.578 399.29,164.978 
	438.173,153.417 "/>
<polygon fill="#040404" points="387.513,119.453 387.495,119.445 387.49,119.447 384.677,118.295 384.674,118.436 385.023,123.262 
	385.079,123.191 385.314,123.778 385.543,123.439 385.718,123.939 386.011,123.675 386.219,124.844 386.606,124.163 
	386.868,124.687 387.186,124.415 387.443,124.899 387.719,124.398 387.934,125.064 387.511,119.586 "/>
<polygon fill="#040404" points="421.398,109.312 384.677,118.293 384.677,118.29 384.677,118.293 384.672,118.294 384.677,118.295 
	387.49,119.447 387.495,119.445 424.951,110.247 "/>
<path opacity="0.7" fill="#FFFFFF" enable-background="new    " d="M377.006,115.15l21.824,8.935
	C398.828,124.085,385.538,117.999,377.006,115.15z"/>
<path opacity="0.7" fill="#FFFFFF" enable-background="new    " d="M399.503,123.925l38.05-10.067
	C437.553,113.857,410.064,120.496,399.503,123.925z"/>
<path opacity="0.7" fill="#FFFFFF" enable-background="new    " d="M399.091,164.606l-0.127-39.358
	C398.964,125.247,398.444,153.518,399.091,164.606z"/>
<path fill="#F4AF6E" d="M415.96,161.837c-1.218,0.916-2.45,1.819-3.198,3.204c-1.077,1.042-1.938,2.519-2.776,3.712
	c-0.844,1.204-2.047,1.475-3.3,1.768c-1.194,0.283-2.098,0.168-3.385,0.554c-1.286,0.386-3.617,0.479-5.414-0.09
	c-1.558-0.495-3.186-0.925-4.89-0.839c-0.78,0.036-0.929-0.691-0.954-1.317c-0.027-0.718,0.561-0.626,0.965-0.565
	c2.561,0.389,4.53-0.439,6.108-2.537c0.795-1.053,1.923-1.859,2.924-2.753c0.484-0.435,0.438-0.66-0.157-0.93
	c-0.564-0.25-1.104-0.451-1.744-0.429c-1.137,0.039-2.278,0.009-3.417-0.01c-0.663-0.012-1.292-0.153-1.795-0.629
	c-0.272-0.262-0.495-0.565-0.421-0.963c0.081-0.46,0.493-0.486,0.848-0.553c3.302-0.626,6.604-1.269,9.914-1.857
	c1.154-0.205,2.24,0.27,3.323,0.571c0.614,0.17,1.08,0.121,1.541-0.344c0.712-0.718,1.473-1.387,2.212-2.075
	c0.231-0.535,0.627-0.937,1.03-1.339c3.183-3.177,15.62-15.595,19.884-21.007c0.345-0.444,2.091-3.119,4.297-7.149
	c1.319,0.021,2.613,0.204,3.85,0.689c1.946,0.705,3.903,1.378,5.835,2.121c0.41,0.16,0.873,0.24,1.122,0.673
	c0.096,0.24,0.089,0.486-0.011,0.713c-1.265,2.897-4.783,8.598-4.974,8.674c-5.115,6.111-11.545,10.679-18.006,15.181
	C422.061,156.62,418.868,159.041,415.96,161.837z"/>
<g>
	
		<linearGradient id="SVGID_19_" gradientUnits="userSpaceOnUse" x1="239.3354" y1="32.2776" x2="294.6293" y2="33.2337" gradientTransform="matrix(0.9974 0.0725 0.0531 -0.7311 148.6227 90.5704)">
		<stop  offset="0" style="stop-color:#F15A29"/>
		<stop  offset="0.4305" style="stop-color:#F0532D"/>
		<stop  offset="1" style="stop-color:#EF4136"/>
	</linearGradient>
	<polygon fill="url(#SVGID_19_)" points="433.569,84.352 414.229,79.135 388.784,85.387 404.822,91.969 	"/>
	
		<linearGradient id="SVGID_20_" gradientUnits="userSpaceOnUse" x1="249.1411" y1="22.2375" x2="247.3377" y2="-34.105" gradientTransform="matrix(0.9974 0.0725 0.0531 -0.7311 148.6227 90.5704)">
		<stop  offset="0" style="stop-color:#F15A29"/>
		<stop  offset="0.4305" style="stop-color:#F0532D"/>
		<stop  offset="1" style="stop-color:#EF4136"/>
	</linearGradient>
	<polygon fill="url(#SVGID_20_)" points="405.013,94.542 404.822,91.969 388.784,85.387 388.782,85.498 389.207,115.256 
		405.16,122.085 	"/>
	
		<linearGradient id="SVGID_21_" gradientUnits="userSpaceOnUse" x1="256.1616" y1="30.4163" x2="294.2374" y2="-23.304" gradientTransform="matrix(0.9974 0.0725 0.0531 -0.7311 148.6227 90.5704)">
		<stop  offset="0" style="stop-color:#F15A29"/>
		<stop  offset="0.4305" style="stop-color:#F0532D"/>
		<stop  offset="1" style="stop-color:#EF4136"/>
	</linearGradient>
	<polygon fill="url(#SVGID_21_)" points="433.569,84.46 433.569,84.352 404.822,91.969 405.013,94.542 405.16,122.085 
		433.739,113.571 	"/>
	<polygon fill="#040404" points="421.409,81.09 394.423,87.702 394.423,87.701 394.423,87.702 394.419,87.704 394.423,87.704 
		396.489,88.552 396.493,88.552 424.02,81.778 	"/>
	<path opacity="0.7" fill="#FFFFFF" enable-background="new    " d="M388.784,85.387l16.038,6.582
		C404.822,91.969,395.054,87.488,388.784,85.387z"/>
	<path opacity="0.7" fill="#FFFFFF" enable-background="new    " d="M405.32,91.851l27.962-7.415
		C433.282,84.436,413.082,89.326,405.32,91.851z"/>
	<path opacity="0.7" fill="#FFFFFF" enable-background="new    " d="M405.015,121.812l-0.093-28.988
		C404.922,92.824,404.54,113.648,405.015,121.812z"/>
</g>
</svg>
