<?xml version="1.0" encoding="utf-8"?>
<!-- Generator: Adobe Illustrator 16.0.0, SVG Export Plug-In . SVG Version: 6.00 Build 0)  -->
<!DOCTYPE svg PUBLIC "-//W3C//DTD SVG 1.1//EN" "http://www.w3.org/Graphics/SVG/1.1/DTD/svg11.dtd">
<svg version="1.1" id="Layer_1" xmlns="http://www.w3.org/2000/svg" xmlns:xlink="http://www.w3.org/1999/xlink" x="0px" y="0px"
	 width="319.484px" height="613.469px" viewBox="0 0 319.484 613.469" enable-background="new 0 0 319.484 613.469"
	 xml:space="preserve">
<g id="Layer_73">
	<polygon fill="#9E694E" points="146.211,311.18 145.032,309.801 139.161,308.65 139.021,304.6 146.532,305.439 148.401,306.359 	
		"/>
</g>
<g id="Layer_72">
	<path fill="#28256B" d="M147.622,314.721l-4.41,5.271h-2c0,0-0.279-0.15-0.21-0.633c0.069-0.479,1.28-0.549,1.28-0.549l2-4.85
		l0.771-4.17c0,0,0-0.641,1.438-1l0.392-3.422c0,0,3-0.209,4.688,0.881L147.622,314.721z"/>
</g>
<g id="Layer_71">
	<path fill="#5655A4" d="M151.441,306.301l-3.38,7.26c-0.36,0.773-0.821,1.496-1.37,2.15l-3.67,4.26h-1.899v0.6h2.409l3.86-4.67
		c0.573-0.686,1.053-1.443,1.42-2.26l3.18-7.051L151.441,306.301z"/>
</g>
<g id="Layer_70">
	
		<rect x="145.551" y="308.848" transform="matrix(0.289 0.9573 -0.9573 0.289 400.58 80.9109)" fill="#4FC4CE" width="0.53" height="2.599"/>
</g>
<g id="Layer_69">
	
		<rect x="144.999" y="310.48" transform="matrix(0.2901 0.957 -0.957 0.2901 401.3366 82.2028)" fill="#4FC4CE" width="0.529" height="2.25"/>
</g>
<g id="Layer_68">
	
		<rect x="144.441" y="312.327" transform="matrix(0.2884 0.9575 -0.9575 0.2884 402.8937 84.3409)" fill="#4FC4CE" width="0.528" height="1.789"/>
</g>
<g id="Layer_67">
	
		<rect x="143.944" y="314.188" transform="matrix(0.2901 0.957 -0.957 0.2901 403.7053 85.5254)" fill="#4FC4CE" width="0.529" height="1.349"/>
</g>
<g id="Layer_66">
	<path fill="#5655A4" d="M121.901,277.07c1.242-0.486,2.114-1.617,2.271-2.939c0.71-4,16.141,2.939,16.141,2.939
		c1.063,0.4,1.863,1.291,2.149,2.391c0.54,3.369,2.83,6.209,3.101,10.26c1.13,16.898-33.471,10.74-33.471,10.74
		c3.58-0.352,11.541,0.068,18.681,1.229c3,0.48,5.61-0.18,7.649-0.238c3.82-0.119,4.141,3,4.141,3v5c0,0-1.63,2.658-5.819,0.75
		c-4.819-2.209-8.12,1.592-11.83,1.199c-4.55-0.479-8.079-4.27-12.3-5.17c-8.59-1.83-14.609-4.641-10.261-8.91l26.49-7.908
		c0,0-11.819,9.721-19.38,3.578c-2.562-2.078-4.32-8.291-8.171-11.068c0,0,3.351,2.16,4,4.121c1.15,3.58,0.341,4.389,0.74,7
		c0.34,2.139,3.649,3.93,4.59,7.559c0.88,3.41-0.5,9.57-0.5,9.57l-4.301,0.18c0,0-4-1.74-5.449-4.209
		c-1.21-2.07,0.271-4.6-1.21-7.59c-0.42-0.84-2.771-2.471-3.58-4.23c-1.561-3.381-0.63-5.311-1.479-8.631
		c-1.159-4.549-1.229-8.6,0.88-10.93c1.987-2.068,4.836-3.072,7.681-2.709c3.58,0.67,4,3,5.601,3.709c2.55,1.109,3.91,0,6.279,1.15
		c1.711,0.85,2.211,3.117,3.511,3.578c2,0.689,3.391,0,3-0.67C119.171,276.891,121.901,277.07,121.901,277.07z"/>
</g>
<g id="Layer_65">
	<polygon fill="#9E694E" points="111.391,312.98 109.851,309.449 106.141,310.131 108.671,314.859 	"/>
</g>
<g id="Layer_64">
	
		<rect x="96.446" y="318.841" transform="matrix(-0.8651 0.5016 -0.5016 -0.8651 356.8613 542.4254)" fill="#5655A4" width="18.099" height="0.711"/>
</g>
<g id="Layer_63">
	<path fill="#28256B" d="M113.161,314.199c-0.546-1.006-1.299-1.885-2.209-2.58l-2.49,1.811c-0.241-0.43-0.743-0.643-1.221-0.52
		c0,0-4.85,4.73-9.739,9.779c-0.109,0.121,0.12,0.641,0.12,0.641L113.161,314.199z"/>
</g>
<g id="Layer_62">
	
		<rect x="107.118" y="312.537" transform="matrix(-0.252 0.9677 -0.9677 -0.252 438.1542 289.0218)" fill="#4FC4CE" width="0.531" height="2.6"/>
</g>
<g id="Layer_61">
	
		<rect x="105.911" y="313.813" transform="matrix(-0.252 0.9677 -0.9677 -0.252 437.709 291.5691)" fill="#4FC4CE" width="0.531" height="2.25"/>
</g>
<g id="Layer_60">
	
		<rect x="104.614" y="315.117" transform="matrix(-0.252 0.9677 -0.9677 -0.252 437.1226 294.1688)" fill="#4FC4CE" width="0.531" height="1.79"/>
</g>
<g id="Layer_59">
	
		<rect x="104.544" y="320.741" transform="matrix(-0.2486 0.9686 -0.9686 -0.2486 442.1911 299.8014)" fill="#4FC4CE" width="0.53" height="1.352"/>
</g>
<g id="Layer_58">
	
		<rect x="105.164" y="309.429" transform="matrix(-0.9637 0.2669 -0.2669 -0.9637 295.0068 580.0809)" fill="#E0E9F6" width="5.84" height="1.318"/>
</g>
<g id="Layer_57">
	
		<rect x="139.875" y="306.532" transform="matrix(-0.1343 0.9909 -0.9909 -0.1343 466.379 206.938)" fill="#E0E9F6" width="5.84" height="1.32"/>
</g>
<g id="Layer_56">
	<path fill="#5655A4" d="M107.161,295.109c0,0-7.199,1.531-6.88,4c0.074,1.627,0.833,3.146,2.091,4.18
		c2.456,1.701,5.273,2.811,8.229,3.24l0.13-0.809c0,0-7.59-2.551-8.71-4.521c-1.42-2.5,0.17-3.41,1.08-3.91
		c0.64-0.35,4.59-1.619,4.59-1.619L107.161,295.109z"/>
</g>
<g id="Layer_55">
	<path fill="#5655A4" d="M111.971,294.5c0,0,14.42-4.801,16.399-7.09c0,0-2.561,0-3.149,0.58c-1.61,1.48-12.08,5-14,5.9
		L111.971,294.5z"/>
</g>
<g id="Layer_54">
	
		<ellipse transform="matrix(-0.5 0.866 -0.866 -0.5 437.8019 297.8005)" fill="#242061" cx="132.935" cy="275.28" rx="6.07" ry="10.51"/>
</g>
<g id="Layer_53">
	<rect x="128.691" y="276.609" fill="#5655A4" width="2.561" height="5.67"/>
</g>
<g id="Layer_52">
	<rect x="136.532" y="278.42" fill="#5655A4" width="1.279" height="5.67"/>
</g>
<g id="Layer_51">
	<path fill="#B7835F" d="M123.511,247.73l-6.24,3.699c-0.38,22.791-21.771,32.5-22.53,32.84c-0.209,0.051-2.608,0.641-3.1,1.26
		c-0.32,0.4-1.181,1.82-1.181,1.82l-0.5,2c0.789-0.18,1.363-0.861,1.41-1.67l1.38-0.709c0,0,2.061,1.67,3.931,0.27l0,0
		C128.05,276.539,123.511,247.73,123.511,247.73z"/>
</g>
<g id="Layer_50">
	<path fill="#4FC4CE" d="M116.441,251.57c0,0-0.811,9.719-3.1,14.35l5.8,3.641c1.608-2.668,3.022-5.449,4.229-8.318L116.441,251.57z
		"/>
</g>
<g id="Layer_49">
	<polygon fill="#E0E9F6" points="113.561,264.49 119.991,268.939 118.601,271.369 112.481,267.32 	"/>
</g>
<g id="Layer_48">
	<path fill="#4FC4CE" d="M120.181,267.76c0,0-2.29-5.641-2.53-8l0.399-2.16c0,0,1.939,7.531,2.609,9.211L120.181,267.76z"/>
</g>
<g id="Layer_47">
	<path fill="#B7835F" d="M151.231,259.381c0,0-5,4.898-4.76,7.148c2.688,22-22.301,25.131-22.301,25.131s0.729,3.41,0.841,3.42
		C164.091,293.76,151.231,259.381,151.231,259.381z"/>
</g>
<g id="Layer_46">
	<path fill="#4FC4CE" d="M144.641,278.59c0,0,1.63-9.32,1.16-13.4l5.17-6.449c0,0,6.561,6.15,1.17,21.539L144.641,278.59z"/>
</g>
<g id="Layer_45">
	<path fill="#B7835F" d="M113.751,291.98c0,0,4.229-0.4,4.5-0.4l6.84-0.15l0.45,3.48c-2.123,0.939-4.431,1.383-6.75,1.299l-2.2,0.49
		c-0.442,0.506-1.078,0.799-1.75,0.811l1.12-1.391l2.721-1l-3.351,0.291c-0.915,0.551-2.048,0.592-3,0.109l2.431-1l2.739-0.52
		l-2.79,0.107c-0.713,0.695-1.735,0.969-2.699,0.721l2.43-1.658l2.9-0.473l-3.671,0.201c-0.67,0.381-1.49,0.381-2.159,0
		L113.751,291.98z"/>
</g>
<g id="Layer_44">
	<rect x="124.901" y="272.949" fill="#5655A4" width="1.28" height="5.67"/>
</g>
<g id="Layer_43">
	<path fill="#4FC4CE" d="M147.971,256.75l-0.08-0.131c0,0-13.359-7.568-17.229-9.949s-6.49-2.07-6.49-2.07
		c-4.303-0.002-7.793,3.482-7.796,7.785c-0.001,0.865,0.145,1.729,0.427,2.545c0,0,3.649,11.66,5,14.791
		c0.67,2.859,3.29,6.08,7.199,8.33c3.721,2.148,7.609,2.859,10.399,2.199c0.813-0.168,1.581-0.51,2.25-1l0.71-0.75
		c3.38-3.66,10.45-11.9,10.45-11.9C154.195,262.543,152.028,258.135,147.971,256.75L147.971,256.75z"/>
</g>
<g id="Layer_42">
	<g>
		<polygon fill="#4FC4CE" points="134.851,262.391 134.851,267.83 135.632,270.24 139.751,272.561 140.761,271.221 140.761,265.891 
					"/>
		<polygon fill="#E0E9F6" points="134.8,261.83 140.8,265.33 140.8,266.51 134.8,263.01 		"/>
	</g>
</g>
<g id="Layer_41">
	<polygon fill="#E0E9F6" points="143.251,280.529 152.082,282.061 153.542,278.9 143.771,277.5 	"/>
</g>
<g id="Layer_40">
	
		<ellipse transform="matrix(-0.8152 0.5791 -0.5791 -0.8152 390.1302 383.0435)" fill="none" stroke="#E0E9F6" stroke-width="1.3109" stroke-linecap="round" stroke-miterlimit="10" cx="133.964" cy="253.753" rx="5.31" ry="3.07"/>
</g>
<g id="Layer_39">
	<circle fill="#15112E" cx="131.471" cy="238.983" r="3.13"/>
</g>
<g id="Layer_38">
	<path fill="#9E694E" d="M138.082,253.15v-8.701h-8.091v11.871C130.05,258.91,136.882,256.59,138.082,253.15z"/>
</g>
<g id="Layer_37">
	<path fill="#B7835F" d="M129.971,250.189v-4.27l8.069-0.131v2.311c-1.16,2-3.16,3-6.761,2.371
		C130.841,250.398,130.403,250.307,129.971,250.189z"/>
</g>
<g id="Layer_36">
	<path fill="#B7835F" d="M139.971,244.711c0.18-0.855-0.365-1.695-1.221-1.881c0,0-0.05,0-0.079,0v-1.869
		c0.065-2.818-2.163-5.154-4.98-5.221c-2.816-0.066-5.153,2.164-5.22,4.98l-0.101,4.25c-0.09,3.799,1.949,4.529,4.479,4.59
		c2.386,0.059,4.541-1.416,5.351-3.66C139.012,246.031,139.787,245.512,139.971,244.711z"/>
</g>
<g id="Layer_35">
	<path fill="#15112E" d="M139.611,240.51c0-0.141,0.311-2.32-0.29-3.26c-0.459-0.557-1.207-0.785-1.899-0.58c0,0-0.8-2-2.521-1.52
		c-0.112-0.373-0.308-0.715-0.569-1c0.478-0.412,0.529-1.131,0.118-1.607c-0.131-0.152-0.299-0.268-0.488-0.332
		c0,0,0.061-0.07,0.069-0.121c0.042-0.336-0.198-0.643-0.534-0.686c-0.337-0.041-0.645,0.199-0.686,0.535l0,0
		c0,0.07,0,0.131,0.05,0.201c-0.278,0.111-0.506,0.32-0.641,0.59c0,0,0,0-0.069,0c-0.532-0.055-1.012,0.32-1.09,0.85
		c0,0,0,0.08,0,0.119c-0.696,0.393-1.17,1.088-1.279,1.881c-0.178,1.428,0.833,2.729,2.26,2.91c0.604,0.068,1.214-0.08,1.72-0.42
		v0.061c0,0,1.091-0.83,1.83-0.262c0.531,0.396,0.642,1.148,0.245,1.68c-0.022,0.031-0.049,0.063-0.075,0.092
		c-0.041,0.131-0.074,0.266-0.1,0.398c-0.124,1.084,0.641,2.066,1.72,2.211h0.091c-0.12,0.17-0.78,1.131-0.41,1.641l0.66,0.182
		c-0.006-0.596,0.416-1.105,1-1.213c0.125-0.021,0.256-0.006,0.369,0.053C139.417,242.15,139.593,241.336,139.611,240.51z"/>
</g>
<g id="Layer_34">
	<path fill="none" stroke="#E0E9F6" stroke-width="1.3109" stroke-linecap="round" stroke-miterlimit="10" d="M129.711,256.721
		c1,1.379,3.71,1.119,6.101-0.57c1.79-1.27,2.88-3,2.899-4.359"/>
</g>
<g id="Layer_33">
</g>
<g id="left_ankle">
	<polygon fill="#F79350" points="161.625,575.074 159.333,562.99 161.979,549.99 173.027,549.99 176.005,561.248 173.086,579.378 	
		"/>
</g>
<g id="left_shoe_sole">
	<polygon fill="#833A1C" points="221.346,585.482 171.965,581.376 171.809,583.191 154.311,581.884 154.311,579.871 
		154.543,576.873 221.622,582.443 	"/>
</g>
<g id="left_shoe_upper">
	<path d="M154.385,576.873c0.316-4.885,1.664-9.654,3.95-13.982l12.916,2.482c0.178-2.15,1.813-3.902,3.95-4.227
		c0,0,17.344,8.494,45.474,19.127c0.632,0.229,0.71,2.686,0.71,2.686L154.385,576.873z"/>
</g>
<g id="right_ankle">
	<polygon fill="#F79350" points="107.814,594.119 106.77,583.32 105.465,564.685 119.449,565.097 126.989,579.05 131.196,596.271 
		183.166,601.052 	"/>
</g>
<g id="right_shoe_sole">
	<polygon fill="#833A1C" points="182.723,606.767 123.593,601.697 123.737,603.365 107.005,601.406 107.061,599.056 
		107.099,597.335 182.813,603.839 	"/>
</g>
<g id="right_shoe_upper">
	<path d="M107.162,597.38c-1.008-3.543-1.345-7.193-1.012-10.777l16.77-0.219c0.036-2.02,1.452-3.676,3.454-4.045
		c0,0,27.288,9.145,55.364,19.424c0.649,0.246,0.84,2.598,0.84,2.598L107.162,597.38z"/>
</g>
<g id="hand_left">
	<path fill="#EDAA7D" d="M240.29,61.399c0,0,23.722-21.588,28.041-23.451c0,0,5.709-1.067-3.806,6.785l-6.723,5.361
		c0,0,2.863-2.973,5.443-3.147c0,0,8.707-0.085,2.434,7.414c0,0-4.761,6.4-11.06,7.963l-6.085,5.906
		C248.535,68.229,237.365,74.469,240.29,61.399z"/>
	<path fill="#FCE4D1" d="M95.145,156.166c0.612-15.941,34.506-31.268,61.368-48.208c39.719-25.048,78.118-49.503,85.191-51.184
		c3.625-1.5,0,0,3.484,1.827c7.51,4.535,7.16,10.103,7.16,10.103s-11.671,11.98-35.835,33.479
		c-13.078,11.635-34.039,27.107-60.434,43.754C156.08,145.937,94.681,168.254,95.145,156.166z"/>
	<path fill="#D6B59F" d="M243.02,56.247l1.14,1.664c0,0,8.799,5.106,8.188,10.793l-7.376,7.256c0,0-3.78-9.208-11.924-15.139
		L243.02,56.247z"/>
</g>
<g id="Layer_25">
	<path fill="#12112B" d="M100.544,564.896l26.921,1.264c0,0-11.503-121.916-7.588-133.141l10.686-96.773l17.591,96.773
		c0,0,6.156,38.775,11.015,119.387l23.998-2.416l-7.16-121.053c5.889-15.801-12.139-108.175-15.537-127.259l-13.07-53.84
		l-69.41,32.592l0,0c-5.879,15.902-8.967,32.697-9.129,49.65"/>
</g>
<g id="left_pant_border">
	<polygon fill="#FCE4D1" points="183.061,556.304 160.936,557.162 160.697,551.521 182.82,550.666 	"/>
</g>
<g id="Layer_22">
	<polygon fill="#FCE4D1" points="101.025,563.519 126.476,563.656 126.773,569.314 101.325,569.183 	"/>
</g>
<g id="body">
	<path fill="#FCE4D1" d="M138.829,120.141c-4.825,1.068-9.526,2.629-14.029,4.668c-16.106,7.805-39.27,23.375-53.632,31.961
		c-10.275,6.053-19.174,14.182-26.12,23.879l0,0l-0.688,1.098l-0.444,0.721c-11.103,18.746,15.428,55.762,15.428,55.762
		l9.403,14.957c2.811,4.406,2.243,6.328,3.121,11.6c0.58,3.52-2.234,13.68,5.858,12.848l1.025-0.102l68.39-49.012l0,0
		c6.175-0.605,3.764-7.395,3.933-10.113c1.091-15.629,9.997-49.079,9.997-64.731c0-16.259-5.236-25.866-18.717-33.88
		C138.907,118.992,142.354,119.795,138.829,120.141z"/>
</g>
<g id="right_hand">
	<path fill="#EDAA7D" d="M44.946,379.566c1.104,1.711,5.145,0.605,6.13-1.438c0.771-1.598-1.579-6.346-0.964-11.016
		c0.833-6.332,3.603-10.188,3.603-10.188c3.344,14.341,9.117,12.897,6.354,6.719c-2.111-4.721-3.013-15.435-3.013-15.435
		l-15.124-0.681l0.405,21.378l0.106,3.659C42.443,372.563,43.964,378.043,44.946,379.566z"/>
	<path fill="#FCE4D1" d="M64.872,195.89c-1.664-18.796-12.878-24.939-19.824-15.242l0,0l-0.688,1.098l-0.444,0.721
		C32.813,201.213,24.939,312.154,42.28,342.58h16.712c0,0,4.169-22.587,5.655-67.299c0.299-8.995,1.361-8.896,1.042-31.208
		C65.384,222.697,65.899,207.497,64.872,195.89z"/>
	<path fill="#D6B59F" d="M59.354,353.426l-17.865,1.316c0,0-3.358-13.106-0.959-15.714c1.402-1.525,18.185,1.463,18.185,1.463
		L59.354,353.426z"/>
</g>
<g id="Layer_16">
	<path fill="#FCE4D1" d="M58.897,238.156c0,0,12.694-18.709,16.327-29.826l1.535,7.16c-4.381,9.32-9.442,18.305-15.146,26.881
		L58.897,238.156z"/>
</g>
<g id="Layer_15">
</g>
<g id="belt">
	<path d="M79.368,283.939c6.204,10.711,26.195,10.748,44.682,0c18.486-10.738,28.443-28.006,22.279-38.709l-68.342,35.037
		C78.266,281.557,78.733,282.791,79.368,283.939z"/>
</g>
<g id="loop_right">
	<polygon fill="#776E69" points="94.658,280.623 87.901,283.9 87.901,293.816 94.658,293.816 	"/>
</g>
<g id="loop_left">
	<polygon fill="#776E69" points="137.601,250.528 134.122,254.803 145.022,270.603 149.377,267.598 	"/>
</g>
<g id="buckle">
	<polygon fill="#776E69" points="123.767,256.496 114.36,268.466 123.17,289.403 135.442,284.239 	"/>
</g>
<g id="tummy_are_shirt">
	<path fill="#FCE4D1" d="M96.915,227.889c20.773-14.865,44.604-17.15,53.226-5.111c8.622,12.047-1.226,33.865-22.004,48.74
		c-20.774,14.865-44.603,17.16-53.226,5.113C66.289,264.582,76.137,242.764,96.915,227.889z"/>
</g>
<g id="neck">
	<path fill="#EDAA7D" d="M114.547,141.287l-2.696-27.521l-27.521,2.697l2.696,27.52c0.636,6.49-3.342,20.174-9.869,20.814
		l28.086,25.352l22.83-30.34C121.735,160.391,115.183,147.777,114.547,141.287z"/>
</g>
<g id="face">
	<path fill="#FCC49A" d="M115.845,81.715l3.748,18.811c3.318,16.888-4.726,21.43-15.394,23.387
		c-10.047,1.82-20.304-3.321-25.478-12.76c-3.298,1.017-6.884-0.783-8.274-4.16c-1.432-3.691,0.235-7.789,3.713-9.164
		c0.121-0.005,0.357-0.016,0.357-0.016l-1.626-8.254c-2.219-12.31,5.431-23.828,17.125-25.792
		C101.634,61.479,113.175,69.498,115.845,81.715z"/>
</g>
<g id="hair">
	<path fill="#545457" d="M109.476,70.137c-0.249,0.202-0.39,0.505-0.381,0.824c-0.001,0.014-0.001,0.02-0.003,0.037
		c-0.116,4.166-3.584,7.449-7.75,7.333c-2.685,0.047-5.21-1.274-6.701-3.506c-0.487-0.547-1.037-1.025-1.638-1.437
		c-4.1-2.778-9.673-1.714-12.456,2.383c-1.638,2.502-1.729,5.71-0.233,8.292c0,0,3.231,5.939-3.021,7.626l2.686,5.726l-4.762,2.237
		l-2.743-5.173l-0.276-2.819l-0.459-4.752C70.8,75.102,79.563,64.759,91.36,63.746C98.062,62.938,104.763,65.301,109.476,70.137z"/>
</g>
<g id="shirt_coller_area">
	<path fill="#FCE4D1" d="M112.925,125.174c0.979,6.221-0.021,12.6-2.859,18.219c0,0-19.907,1.398-22.758-2.57
		c-0.456-0.775-0.716-1.648-0.765-2.545l-0.234,0.023l-5.32,10.521l-7.262,15.441l31.771,26.896l31.74-40.66L112.925,125.174z"/>
</g>
<g id="tie_knot">
	<path fill="#F07523" d="M110.108,155.143l1.72-7.549l7.705,0.826c0,0,5.787,6.023,0.112,10.113
		C113.977,162.623,110.108,155.143,110.108,155.143z"/>
</g>
<g id="tie">
	
		<linearGradient id="SVGID_1_" gradientUnits="userSpaceOnUse" x1="42.7441" y1="553.9136" x2="77.0078" y2="588.1772" gradientTransform="matrix(0.9952 -0.0975 -0.0975 -0.9952 113.2297 771.5324)">
		<stop  offset="0" style="stop-color:#E65525"/>
		<stop  offset="1" style="stop-color:#F07523"/>
	</linearGradient>
	<path fill="url(#SVGID_1_)" d="M112.846,155.943c0,0,2.938,30.002-2.917,45.219c-5.851,15.219-0.024,30.591,10.062,30.238
		l11.261-4.51l-7.881-9.5c-2.757,0.15-6.453,1.059-7.243-1.591c-1.748-6.102,2.981-16.17,3.695-20.209
		c1.038-5.219,2.768-15.117,1.284-40.773L112.846,155.943z"/>
</g>
</svg>
