<?xml version="1.0" encoding="utf-8"?>
<!-- Generator: Adobe Illustrator 16.0.0, SVG Export Plug-In . SVG Version: 6.00 Build 0)  -->
<!DOCTYPE svg PUBLIC "-//W3C//DTD SVG 1.1//EN" "http://www.w3.org/Graphics/SVG/1.1/DTD/svg11.dtd">
<svg version="1.1" id="Layer_1" xmlns="http://www.w3.org/2000/svg" xmlns:xlink="http://www.w3.org/1999/xlink" x="0px" y="0px"
	 width="781.081px" height="551.351px" viewBox="0 0 781.081 551.351" enable-background="new 0 0 781.081 551.351"
	 xml:space="preserve">
<linearGradient id="SVGID_1_" gradientUnits="userSpaceOnUse" x1="11.9321" y1="276.8052" x2="770.6787" y2="276.8052">
	<stop  offset="0" style="stop-color:#F15A29"/>
	<stop  offset="1" style="stop-color:#F7941E"/>
</linearGradient>
<polygon opacity="0.8" fill-rule="evenodd" clip-rule="evenodd" fill="url(#SVGID_1_)" points="11.932,84.992 391.309,10.368 
	770.679,84.987 770.679,543.243 11.932,543.243 "/>
<linearGradient id="SVGID_2_" gradientUnits="userSpaceOnUse" x1="29.8389" y1="347.1421" x2="751.0283" y2="347.1421">
	<stop  offset="0" style="stop-color:#262262"/>
	<stop  offset="1" style="stop-color:#2B3990"/>
</linearGradient>
<rect x="29.839" y="151.042" opacity="0.4" fill-rule="evenodd" clip-rule="evenodd" fill="url(#SVGID_2_)" width="721.189" height="392.201"/>
<linearGradient id="SVGID_3_" gradientUnits="userSpaceOnUse" x1="29.8389" y1="347.1421" x2="67.8062" y2="347.1421">
	<stop  offset="0" style="stop-color:#262262"/>
	<stop  offset="1" style="stop-color:#2B3990"/>
</linearGradient>
<rect x="29.839" y="151.042" fill-rule="evenodd" clip-rule="evenodd" fill="url(#SVGID_3_)" width="37.967" height="392.201"/>
<linearGradient id="SVGID_4_" gradientUnits="userSpaceOnUse" x1="713.0576" y1="347.1421" x2="751.0215" y2="347.1421">
	<stop  offset="0" style="stop-color:#262262"/>
	<stop  offset="1" style="stop-color:#2B3990"/>
</linearGradient>
<rect x="713.058" y="151.042" fill-rule="evenodd" clip-rule="evenodd" fill="url(#SVGID_4_)" width="37.964" height="392.201"/>
<linearGradient id="SVGID_5_" gradientUnits="userSpaceOnUse" x1="11.9321" y1="47.6802" x2="770.6787" y2="47.6802">
	<stop  offset="0" style="stop-color:#F15A29"/>
	<stop  offset="1" style="stop-color:#F7941E"/>
</linearGradient>
<polygon fill-rule="evenodd" clip-rule="evenodd" fill="url(#SVGID_5_)" points="11.932,84.992 770.679,84.992 770.679,84.987 
	391.309,10.368 "/>
<linearGradient id="SVGID_6_" gradientUnits="userSpaceOnUse" x1="29.8389" y1="170.0278" x2="751.0215" y2="170.0278">
	<stop  offset="0" style="stop-color:#262262"/>
	<stop  offset="1" style="stop-color:#2B3990"/>
</linearGradient>
<rect x="29.839" y="151.042" fill-rule="evenodd" clip-rule="evenodd" fill="url(#SVGID_6_)" width="721.183" height="37.973"/>
<linearGradient id="SVGID_7_" gradientUnits="userSpaceOnUse" x1="67.8062" y1="366.1284" x2="131.6885" y2="366.1284">
	<stop  offset="0" style="stop-color:#262262"/>
	<stop  offset="1" style="stop-color:#2B3990"/>
</linearGradient>
<polygon fill-rule="evenodd" clip-rule="evenodd" fill="url(#SVGID_7_)" points="67.806,189.015 131.688,228.271 131.688,543.243 
	67.806,543.243 "/>
<g>
	<rect x="273.546" y="303.509" fill-rule="evenodd" clip-rule="evenodd" fill="#F9A14A" width="104.359" height="93.563"/>
	<rect x="272.173" y="303.509" fill-rule="evenodd" clip-rule="evenodd" fill="#F9A14A" width="107.107" height="15.575"/>
	<polygon fill-rule="evenodd" clip-rule="evenodd" fill="#ED7526" points="377.905,397.072 338.721,397.072 273.546,319.084 
		377.905,319.084 	"/>
	<polygon fill-rule="evenodd" clip-rule="evenodd" fill="#DC4126" points="368.941,303.509 357.472,303.509 357.472,325.042 
		359.948,323.888 362.188,324.956 365.283,323.13 368.941,325.042 	"/>
	<polygon fill-rule="evenodd" clip-rule="evenodd" fill="#DC4126" points="293.982,303.509 282.51,303.509 282.51,325.042 
		284.985,323.888 287.223,324.956 290.321,323.13 293.982,325.042 	"/>
</g>
<rect x="165.073" y="303.509" fill-rule="evenodd" clip-rule="evenodd" fill="#F9A14A" width="104.363" height="93.563"/>
<rect x="163.702" y="303.509" fill-rule="evenodd" clip-rule="evenodd" fill="#F9A14A" width="107.102" height="15.575"/>
<polygon fill-rule="evenodd" clip-rule="evenodd" fill="#ED7526" points="269.431,397.072 230.247,397.072 165.073,319.084 
	269.431,319.084 "/>
<polygon fill-rule="evenodd" clip-rule="evenodd" fill="#DC4126" points="260.466,303.509 248.996,303.509 248.996,325.042 
	251.478,323.888 253.712,324.956 256.812,323.13 260.466,325.042 "/>
<polygon fill-rule="evenodd" clip-rule="evenodd" fill="#DC4126" points="185.506,303.509 174.041,303.509 174.041,325.042 
	176.516,323.888 178.753,324.956 181.847,323.13 185.506,325.042 "/>
<g>
	<rect x="90.37" y="400.678" fill-rule="evenodd" clip-rule="evenodd" fill="#F9A14A" width="147.703" height="142.564"/>
	<rect x="102.95" y="412.757" fill-rule="evenodd" clip-rule="evenodd" fill="#DC4126" width="18.546" height="117.241"/>
	<rect x="121.497" y="412.757" fill-rule="evenodd" clip-rule="evenodd" fill="#DC4126" width="18.542" height="117.241"/>
	<rect x="140.033" y="412.757" fill-rule="evenodd" clip-rule="evenodd" fill="#DC4126" width="18.542" height="117.241"/>
	<rect x="158.576" y="412.757" fill-rule="evenodd" clip-rule="evenodd" fill="#DC4126" width="18.545" height="117.241"/>
	<rect x="177.121" y="412.757" fill-rule="evenodd" clip-rule="evenodd" fill="#DC4126" width="18.544" height="117.241"/>
	<rect x="195.665" y="412.757" fill-rule="evenodd" clip-rule="evenodd" fill="#DC4126" width="18.541" height="117.241"/>
	<rect x="214.203" y="412.757" fill-rule="evenodd" clip-rule="evenodd" fill="#DC4126" width="10.718" height="117.241"/>
	<rect x="106.289" y="421.958" fill-rule="evenodd" clip-rule="evenodd" fill="#ED7526" width="7.383" height="105.74"/>
	<rect x="124.833" y="421.958" fill-rule="evenodd" clip-rule="evenodd" fill="#ED7526" width="7.375" height="105.74"/>
	<rect x="143.382" y="421.958" fill-rule="evenodd" clip-rule="evenodd" fill="#ED7526" width="7.372" height="105.74"/>
	<rect x="161.92" y="421.958" fill-rule="evenodd" clip-rule="evenodd" fill="#ED7526" width="7.375" height="105.74"/>
	<rect x="180.462" y="421.958" fill-rule="evenodd" clip-rule="evenodd" fill="#ED7526" width="7.378" height="105.74"/>
	<rect x="199.005" y="421.958" fill-rule="evenodd" clip-rule="evenodd" fill="#ED7526" width="7.376" height="105.74"/>
	<rect x="217.543" y="421.958" fill-rule="evenodd" clip-rule="evenodd" fill="#ED7526" width="7.378" height="105.74"/>
	<rect x="113.671" y="412.757" fill-rule="evenodd" clip-rule="evenodd" fill="#F9A14A" width="7.825" height="117.241"/>
	<rect x="132.208" y="412.757" fill-rule="evenodd" clip-rule="evenodd" fill="#F9A14A" width="7.825" height="117.241"/>
	<rect x="150.753" y="412.757" fill-rule="evenodd" clip-rule="evenodd" fill="#F9A14A" width="7.822" height="117.241"/>
	<rect x="169.295" y="412.757" fill-rule="evenodd" clip-rule="evenodd" fill="#F9A14A" width="7.825" height="117.241"/>
	<rect x="187.84" y="412.757" fill-rule="evenodd" clip-rule="evenodd" fill="#F9A14A" width="7.824" height="117.241"/>
	<rect x="206.379" y="412.757" fill-rule="evenodd" clip-rule="evenodd" fill="#F9A14A" width="7.824" height="117.241"/>
</g>
<g>
	<rect x="241.682" y="400.678" fill-rule="evenodd" clip-rule="evenodd" fill="#F9A14A" width="147.7" height="142.564"/>
	<rect x="254.261" y="412.757" fill-rule="evenodd" clip-rule="evenodd" fill="#DC4126" width="18.55" height="117.241"/>
	<rect x="272.806" y="412.757" fill-rule="evenodd" clip-rule="evenodd" fill="#DC4126" width="18.543" height="117.241"/>
	<rect x="291.349" y="412.757" fill-rule="evenodd" clip-rule="evenodd" fill="#DC4126" width="18.54" height="117.241"/>
	<rect x="309.891" y="412.757" fill-rule="evenodd" clip-rule="evenodd" fill="#DC4126" width="18.543" height="117.241"/>
	<rect x="328.435" y="412.757" fill-rule="evenodd" clip-rule="evenodd" fill="#DC4126" width="18.544" height="117.241"/>
	<rect x="346.973" y="412.757" fill-rule="evenodd" clip-rule="evenodd" fill="#DC4126" width="18.549" height="117.241"/>
	<rect x="365.517" y="412.757" fill-rule="evenodd" clip-rule="evenodd" fill="#DC4126" width="10.721" height="117.241"/>
	<rect x="257.61" y="421.958" fill-rule="evenodd" clip-rule="evenodd" fill="#ED7526" width="7.376" height="105.74"/>
	<rect x="276.149" y="421.958" fill-rule="evenodd" clip-rule="evenodd" fill="#ED7526" width="7.374" height="105.74"/>
	<rect x="294.69" y="421.958" fill-rule="evenodd" clip-rule="evenodd" fill="#ED7526" width="7.379" height="105.74"/>
	<rect x="313.229" y="421.958" fill-rule="evenodd" clip-rule="evenodd" fill="#ED7526" width="7.382" height="105.74"/>
	<rect x="331.78" y="421.958" fill-rule="evenodd" clip-rule="evenodd" fill="#ED7526" width="7.374" height="105.74"/>
	<rect x="350.317" y="421.958" fill-rule="evenodd" clip-rule="evenodd" fill="#ED7526" width="7.375" height="105.74"/>
	<rect x="368.859" y="421.958" fill-rule="evenodd" clip-rule="evenodd" fill="#ED7526" width="7.378" height="105.74"/>
	<rect x="264.981" y="412.757" fill-rule="evenodd" clip-rule="evenodd" fill="#F9A14A" width="7.824" height="117.241"/>
	<rect x="283.523" y="412.757" fill-rule="evenodd" clip-rule="evenodd" fill="#F9A14A" width="7.825" height="117.241"/>
	<rect x="302.069" y="412.757" fill-rule="evenodd" clip-rule="evenodd" fill="#F9A14A" width="7.819" height="117.241"/>
	<rect x="320.612" y="412.757" fill-rule="evenodd" clip-rule="evenodd" fill="#F9A14A" width="7.823" height="117.241"/>
	<rect x="339.149" y="412.757" fill-rule="evenodd" clip-rule="evenodd" fill="#F9A14A" width="7.824" height="117.241"/>
	<rect x="357.692" y="412.757" fill-rule="evenodd" clip-rule="evenodd" fill="#F9A14A" width="7.824" height="117.241"/>
</g>
<rect x="165.073" y="397.072" fill-rule="evenodd" clip-rule="evenodd" fill="#DC4126" width="212.653" height="3.606"/>
<rect x="238.072" y="400.684" fill-rule="evenodd" clip-rule="evenodd" fill="#DC4126" width="3.609" height="142.559"/>
<g>
	<rect x="392.667" y="449.679" fill-rule="evenodd" clip-rule="evenodd" fill="#F9A14A" width="104.359" height="93.563"/>
	<rect x="391.298" y="449.679" fill-rule="evenodd" clip-rule="evenodd" fill="#F9A14A" width="107.102" height="15.578"/>
	<polygon fill-rule="evenodd" clip-rule="evenodd" fill="#ED7526" points="497.026,543.243 457.841,543.243 392.667,465.264 
		497.026,465.264 	"/>
	<polygon fill-rule="evenodd" clip-rule="evenodd" fill="#DC4126" points="488.064,449.679 476.592,449.679 476.592,471.213 
		479.071,470.066 481.304,471.128 484.401,469.301 488.064,471.213 	"/>
	<polygon fill-rule="evenodd" clip-rule="evenodd" fill="#DC4126" points="413.101,449.679 401.63,449.679 401.63,471.213 
		404.106,470.066 406.341,471.128 409.448,469.301 413.101,471.213 	"/>
</g>
<linearGradient id="SVGID_8_" gradientUnits="userSpaceOnUse" x1="67.8062" y1="208.6431" x2="713.0576" y2="208.6431">
	<stop  offset="0" style="stop-color:#262262"/>
	<stop  offset="1" style="stop-color:#2B3990"/>
</linearGradient>
<polygon opacity="0.5" fill-rule="evenodd" clip-rule="evenodd" fill="url(#SVGID_8_)" points="67.806,189.015 131.688,228.271 
	649.18,228.271 713.058,189.015 "/>
<linearGradient id="SVGID_9_" gradientUnits="userSpaceOnUse" x1="649.1797" y1="366.1284" x2="713.0576" y2="366.1284">
	<stop  offset="0" style="stop-color:#262262"/>
	<stop  offset="1" style="stop-color:#2B3990"/>
</linearGradient>
<polygon fill-rule="evenodd" clip-rule="evenodd" fill="url(#SVGID_9_)" points="713.058,189.015 649.18,228.271 649.18,543.243 
	713.058,543.243 "/>
<g>
	<rect x="501.143" y="439.921" fill-rule="evenodd" clip-rule="evenodd" fill="#ED7526" width="88.865" height="103.321"/>
	<rect x="501.143" y="439.921" fill-rule="evenodd" clip-rule="evenodd" fill="#F9A14A" width="44.438" height="103.321"/>
	<g>
		<polygon fill-rule="evenodd" clip-rule="evenodd" fill="#455E77" points="516.07,521.456 516.07,534.683 511.26,534.683 
			511.26,521.456 507.927,521.456 510.794,516.201 513.666,510.939 516.531,516.201 519.404,521.456 		"/>
		<polygon fill-rule="evenodd" clip-rule="evenodd" fill="#455E77" points="529.077,521.456 529.077,534.683 524.264,534.683 
			524.264,521.456 520.934,521.456 523.804,516.201 526.671,510.939 529.537,516.201 532.405,521.456 		"/>
		<rect x="509.54" y="534.683" fill-rule="evenodd" clip-rule="evenodd" fill="#455E77" width="21.258" height="1.896"/>
	</g>
	<g>
		<polygon fill-rule="evenodd" clip-rule="evenodd" fill="#DC4126" points="508.829,439.921 519.287,439.921 519.287,459.542 
			517.026,458.492 514.988,459.462 512.16,457.795 508.829,459.542 		"/>
		<polygon fill-rule="evenodd" clip-rule="evenodd" fill="#DC4126" points="571.872,439.921 582.323,439.921 582.323,459.542 
			580.071,458.492 578.032,459.462 575.206,457.795 571.872,459.542 		"/>
	</g>
	<g>
		<rect x="591.873" y="463.568" fill-rule="evenodd" clip-rule="evenodd" fill="#ED7526" width="88.866" height="79.675"/>
		<rect x="591.873" y="463.568" fill-rule="evenodd" clip-rule="evenodd" fill="#F9A14A" width="44.432" height="79.675"/>
		<polygon fill-rule="evenodd" clip-rule="evenodd" fill="#455E77" points="606.798,521.456 606.798,534.683 601.991,534.683 
			601.991,521.456 598.658,521.456 601.525,516.201 604.395,510.939 607.262,516.201 610.129,521.456 		"/>
		<polygon fill-rule="evenodd" clip-rule="evenodd" fill="#455E77" points="619.803,521.456 619.803,534.683 614.995,534.683 
			614.995,521.456 611.661,521.456 614.528,516.201 617.396,510.939 620.269,516.201 623.134,521.456 		"/>
		<rect x="600.261" y="534.683" fill-rule="evenodd" clip-rule="evenodd" fill="#455E77" width="21.265" height="1.896"/>
		<g>
			<polygon fill-rule="evenodd" clip-rule="evenodd" fill="#DC4126" points="599.558,463.568 610.009,463.568 610.009,483.196 
				607.751,482.144 605.718,483.115 602.892,481.45 599.558,483.196 			"/>
			<polygon fill-rule="evenodd" clip-rule="evenodd" fill="#DC4126" points="662.595,463.568 673.055,463.568 673.055,483.196 
				670.791,482.144 668.758,483.115 665.931,481.45 662.595,483.196 			"/>
		</g>
	</g>
	<rect x="590.008" y="463.568" fill-rule="evenodd" clip-rule="evenodd" fill="#DC4126" width="1.862" height="79.675"/>
</g>
</svg>
