<?xml version="1.0" encoding="utf-8"?>
<!-- Generator: Adobe Illustrator 16.0.0, SVG Export Plug-In . SVG Version: 6.00 Build 0)  -->
<!DOCTYPE svg PUBLIC "-//W3C//DTD SVG 1.1//EN" "http://www.w3.org/Graphics/SVG/1.1/DTD/svg11.dtd">
<svg version="1.1" id="Layer_2" xmlns="http://www.w3.org/2000/svg" xmlns:xlink="http://www.w3.org/1999/xlink" x="0px" y="0px"
	 width="328px" height="324px" viewBox="257.445 129.14 328 324" enable-background="new 257.445 129.14 328 324"
	 xml:space="preserve">
<polygon fill="#FF6600" points="302.111,429.473 302.111,256.806 535.257,256.806 535.257,311.142 469.112,314.14 468.112,373.474 
	412.112,373.14 412.111,429.473 "/>
<g>
	<g>
		<path d="M561.484,229.181l-138.129-80.972c-1.453-0.848-3.239-0.877-4.71-0.063l-138.128,76.209
			c-1.519,0.834-2.462,2.434-2.462,4.168V428.57c0,2.635,2.134,4.764,4.763,4.764h23.815c2.629,0,4.763-2.129,4.763-4.764V261.865
			h219.1v166.707c0,2.633,2.128,4.762,4.763,4.762h23.815c2.634,0,4.763-2.129,4.763-4.762V233.286
			C563.835,231.596,562.941,230.033,561.484,229.181z M554.31,423.808h-14.289V257.101c0-2.628-2.129-4.763-4.764-4.763H306.632
			c-2.629,0-4.763,2.135-4.763,4.763v166.708H287.58V231.333l133.293-73.541l133.436,78.224V423.808L554.31,423.808z"/>
	</g>
</g>
<path d="M526.349,366.652h-57.156c-2.634,0-4.763,2.129-4.763,4.762v57.156c0,2.635,2.129,4.764,4.763,4.764h57.156
	c2.635,0,4.763-2.129,4.763-4.764v-57.156C531.113,368.781,528.984,366.652,526.349,366.652z M493.008,376.177h9.525v9.525h-9.525
	V376.177z M521.586,423.808h-47.631v-47.631h9.525v14.289c0,2.633,2.129,4.764,4.764,4.764h19.052c2.634,0,4.763-2.131,4.763-4.764
	v-14.289h9.527V423.808z"/>
<path d="M469.193,366.652h-57.156c-2.629,0-4.763,2.129-4.763,4.762v57.156c0,2.635,2.134,4.764,4.763,4.764h57.156
	c2.634,0,4.763-2.129,4.763-4.764v-57.156C473.955,368.781,471.826,366.652,469.193,366.652z M435.852,376.177h9.525v9.525h-9.525
	V376.177z M464.43,423.808H416.8v-47.631h9.526v14.289c0,2.633,2.133,4.764,4.763,4.764h19.052c2.634,0,4.763-2.131,4.763-4.764
	v-14.289h9.527V423.808z"/>
<path d="M526.349,309.496h-57.156c-2.634,0-4.763,2.129-4.763,4.762v57.156c0,2.635,2.129,4.764,4.763,4.764h57.156
	c2.635,0,4.763-2.129,4.763-4.764v-57.156C531.113,311.625,528.984,309.496,526.349,309.496z M493.008,319.021h9.525v9.525h-9.525
	V319.021z M521.586,366.652h-47.631v-47.631h9.525v14.289c0,2.633,2.129,4.762,4.764,4.762h19.052c2.634,0,4.763-2.129,4.763-4.762
	v-14.289h9.527V366.652z"/>
<g>
	<g>
		<path d="M444.761,214.234H397.13c-2.629,0-4.763,2.135-4.763,4.763v19.053c0,2.629,2.134,4.763,4.763,4.763h47.631
			c2.633,0,4.762-2.134,4.762-4.763v-19.053C449.523,216.368,447.394,214.234,444.761,214.234z M439.996,233.286h-38.104v-9.525
			h38.104V233.286z"/>
	</g>
</g>
<g>
	<g>
		<g>
			<rect x="306.633" y="290.445" width="25.257" height="9.524"/>
			<rect x="355.894" y="290.445" width="179.363" height="9.524"/>
		</g>
	</g>
	<g>
		<g>
			<rect x="306.633" y="271.39" width="25.257" height="9.524"/>
			<rect x="355.894" y="271.39" width="179.363" height="9.524"/>
		</g>
	</g>
	<circle cx="331.211" cy="276.153" r="4.762"/>
	<circle cx="331.211" cy="295.206" r="4.762"/>
	<circle cx="355.894" cy="276.153" r="4.762"/>
	<circle cx="355.894" cy="295.206" r="4.762"/>
</g>
</svg>
