<?xml version="1.0" encoding="utf-8"?>
<!-- Generator: Adobe Illustrator 16.0.0, SVG Export Plug-In . SVG Version: 6.00 Build 0)  -->
<!DOCTYPE svg PUBLIC "-//W3C//DTD SVG 1.1//EN" "http://www.w3.org/Graphics/SVG/1.1/DTD/svg11.dtd">
<svg version="1.1" id="Layer_1" xmlns="http://www.w3.org/2000/svg" xmlns:xlink="http://www.w3.org/1999/xlink" x="0px" y="0px"
	 width="800px" height="722.595px" viewBox="0 0 800 722.595" enable-background="new 0 0 800 722.595" xml:space="preserve">
<linearGradient id="SVGID_1_" gradientUnits="userSpaceOnUse" x1="11.7813" y1="362.6558" x2="787.1777" y2="362.6558">
	<stop  offset="0" style="stop-color:#F15A29"/>
	<stop  offset="1" style="stop-color:#F7941E"/>
</linearGradient>
<polygon opacity="0.8" fill-rule="evenodd" clip-rule="evenodd" fill="url(#SVGID_1_)" points="11.781,109.287 399.482,10.716 
	787.178,109.281 787.178,714.596 11.781,714.596 "/>
<linearGradient id="SVGID_2_" gradientUnits="userSpaceOnUse" x1="30.0806" y1="455.5645" x2="767.0977" y2="455.5645">
	<stop  offset="0" style="stop-color:#262262"/>
	<stop  offset="1" style="stop-color:#2B3990"/>
</linearGradient>
<rect x="30.081" y="196.532" opacity="0.4" fill-rule="evenodd" clip-rule="evenodd" fill="url(#SVGID_2_)" width="737.017" height="518.063"/>
<linearGradient id="SVGID_3_" gradientUnits="userSpaceOnUse" x1="30.0806" y1="455.5645" x2="68.8813" y2="455.5645">
	<stop  offset="0" style="stop-color:#262262"/>
	<stop  offset="1" style="stop-color:#2B3990"/>
</linearGradient>
<rect x="30.081" y="196.532" fill-rule="evenodd" clip-rule="evenodd" fill="url(#SVGID_3_)" width="38.801" height="518.063"/>
<linearGradient id="SVGID_4_" gradientUnits="userSpaceOnUse" x1="728.293" y1="455.5645" x2="767.0918" y2="455.5645">
	<stop  offset="0" style="stop-color:#262262"/>
	<stop  offset="1" style="stop-color:#2B3990"/>
</linearGradient>
<rect x="728.293" y="196.532" fill-rule="evenodd" clip-rule="evenodd" fill="url(#SVGID_4_)" width="38.799" height="518.063"/>
<linearGradient id="SVGID_5_" gradientUnits="userSpaceOnUse" x1="11.7813" y1="60.001" x2="787.1777" y2="60.001">
	<stop  offset="0" style="stop-color:#F15A29"/>
	<stop  offset="1" style="stop-color:#F7941E"/>
</linearGradient>
<polygon fill-rule="evenodd" clip-rule="evenodd" fill="url(#SVGID_5_)" points="11.781,109.287 787.178,109.287 787.178,109.281 
	399.482,10.716 "/>
<linearGradient id="SVGID_6_" gradientUnits="userSpaceOnUse" x1="30.0806" y1="221.6118" x2="767.0918" y2="221.6118">
	<stop  offset="0" style="stop-color:#262262"/>
	<stop  offset="1" style="stop-color:#2B3990"/>
</linearGradient>
<rect x="30.081" y="196.532" fill-rule="evenodd" clip-rule="evenodd" fill="url(#SVGID_6_)" width="737.011" height="50.159"/>
<linearGradient id="SVGID_7_" gradientUnits="userSpaceOnUse" x1="68.8813" y1="480.6436" x2="134.166" y2="480.6436">
	<stop  offset="0" style="stop-color:#262262"/>
	<stop  offset="1" style="stop-color:#2B3990"/>
</linearGradient>
<polygon fill-rule="evenodd" clip-rule="evenodd" fill="url(#SVGID_7_)" points="68.881,246.691 134.166,298.543 134.166,714.596 
	68.881,714.596 "/>
<g>
	<rect x="279.136" y="397.927" fill-rule="evenodd" clip-rule="evenodd" fill="#F9A14A" width="106.648" height="123.588"/>
	<rect x="277.731" y="397.927" fill-rule="evenodd" clip-rule="evenodd" fill="#F9A14A" width="109.458" height="20.578"/>
	<polygon fill-rule="evenodd" clip-rule="evenodd" fill="#ED7526" points="385.784,521.515 345.741,521.515 279.136,418.505 
		385.784,418.505 	"/>
	<polygon fill-rule="evenodd" clip-rule="evenodd" fill="#DC4126" points="376.624,397.927 364.904,397.927 364.904,426.373 
		367.431,424.847 369.723,426.258 372.886,423.846 376.624,426.373 	"/>
	<polygon fill-rule="evenodd" clip-rule="evenodd" fill="#DC4126" points="300.021,397.927 288.296,397.927 288.296,426.373 
		290.827,424.847 293.113,426.258 296.279,423.846 300.021,426.373 	"/>
</g>
<rect x="168.282" y="397.927" fill-rule="evenodd" clip-rule="evenodd" fill="#F9A14A" width="106.652" height="123.588"/>
<rect x="166.882" y="397.927" fill-rule="evenodd" clip-rule="evenodd" fill="#F9A14A" width="109.451" height="20.578"/>
<polygon fill-rule="evenodd" clip-rule="evenodd" fill="#ED7526" points="274.93,521.515 234.887,521.515 168.282,418.505 
	274.93,418.505 "/>
<polygon fill-rule="evenodd" clip-rule="evenodd" fill="#DC4126" points="265.768,397.927 254.048,397.927 254.048,426.373 
	256.584,424.847 258.867,426.258 262.034,423.846 265.768,426.373 "/>
<polygon fill-rule="evenodd" clip-rule="evenodd" fill="#DC4126" points="189.165,397.927 177.448,397.927 177.448,426.373 
	179.977,424.847 182.263,426.258 185.424,423.846 189.165,426.373 "/>
<g>
	<rect x="91.94" y="526.281" fill-rule="evenodd" clip-rule="evenodd" fill="#F9A14A" width="150.944" height="188.314"/>
	<rect x="104.797" y="542.236" fill-rule="evenodd" clip-rule="evenodd" fill="#DC4126" width="18.953" height="154.864"/>
	<rect x="123.75" y="542.236" fill-rule="evenodd" clip-rule="evenodd" fill="#DC4126" width="18.948" height="154.864"/>
	<rect x="142.693" y="542.236" fill-rule="evenodd" clip-rule="evenodd" fill="#DC4126" width="18.949" height="154.864"/>
	<rect x="161.643" y="542.236" fill-rule="evenodd" clip-rule="evenodd" fill="#DC4126" width="18.952" height="154.864"/>
	<rect x="180.595" y="542.236" fill-rule="evenodd" clip-rule="evenodd" fill="#DC4126" width="18.951" height="154.864"/>
	<rect x="199.545" y="542.236" fill-rule="evenodd" clip-rule="evenodd" fill="#DC4126" width="18.949" height="154.864"/>
	<rect x="218.491" y="542.236" fill-rule="evenodd" clip-rule="evenodd" fill="#DC4126" width="10.952" height="154.864"/>
	<rect x="108.208" y="554.393" fill-rule="evenodd" clip-rule="evenodd" fill="#ED7526" width="7.544" height="139.672"/>
	<rect x="127.16" y="554.393" fill-rule="evenodd" clip-rule="evenodd" fill="#ED7526" width="7.537" height="139.672"/>
	<rect x="146.116" y="554.393" fill-rule="evenodd" clip-rule="evenodd" fill="#ED7526" width="7.532" height="139.672"/>
	<rect x="165.061" y="554.393" fill-rule="evenodd" clip-rule="evenodd" fill="#ED7526" width="7.537" height="139.672"/>
	<rect x="184.01" y="554.393" fill-rule="evenodd" clip-rule="evenodd" fill="#ED7526" width="7.539" height="139.672"/>
	<rect x="202.959" y="554.393" fill-rule="evenodd" clip-rule="evenodd" fill="#ED7526" width="7.538" height="139.672"/>
	<rect x="221.904" y="554.393" fill-rule="evenodd" clip-rule="evenodd" fill="#ED7526" width="7.539" height="139.672"/>
	<rect x="115.753" y="542.236" fill-rule="evenodd" clip-rule="evenodd" fill="#F9A14A" width="7.997" height="154.864"/>
	<rect x="134.697" y="542.236" fill-rule="evenodd" clip-rule="evenodd" fill="#F9A14A" width="7.997" height="154.864"/>
	<rect x="153.648" y="542.236" fill-rule="evenodd" clip-rule="evenodd" fill="#F9A14A" width="7.995" height="154.864"/>
	<rect x="172.598" y="542.236" fill-rule="evenodd" clip-rule="evenodd" fill="#F9A14A" width="7.997" height="154.864"/>
	<rect x="191.549" y="542.236" fill-rule="evenodd" clip-rule="evenodd" fill="#F9A14A" width="7.997" height="154.864"/>
	<rect x="210.494" y="542.236" fill-rule="evenodd" clip-rule="evenodd" fill="#F9A14A" width="7.998" height="154.864"/>
</g>
<g>
	<rect x="246.571" y="526.281" fill-rule="evenodd" clip-rule="evenodd" fill="#F9A14A" width="150.941" height="188.314"/>
	<rect x="259.428" y="542.236" fill-rule="evenodd" clip-rule="evenodd" fill="#DC4126" width="18.956" height="154.864"/>
	<rect x="278.379" y="542.236" fill-rule="evenodd" clip-rule="evenodd" fill="#DC4126" width="18.949" height="154.864"/>
	<rect x="297.329" y="542.236" fill-rule="evenodd" clip-rule="evenodd" fill="#DC4126" width="18.947" height="154.864"/>
	<rect x="316.278" y="542.236" fill-rule="evenodd" clip-rule="evenodd" fill="#DC4126" width="18.949" height="154.864"/>
	<rect x="335.228" y="542.236" fill-rule="evenodd" clip-rule="evenodd" fill="#DC4126" width="18.953" height="154.864"/>
	<rect x="354.174" y="542.236" fill-rule="evenodd" clip-rule="evenodd" fill="#DC4126" width="18.958" height="154.864"/>
	<rect x="373.125" y="542.236" fill-rule="evenodd" clip-rule="evenodd" fill="#DC4126" width="10.956" height="154.864"/>
	<rect x="262.85" y="554.393" fill-rule="evenodd" clip-rule="evenodd" fill="#ED7526" width="7.538" height="139.672"/>
	<rect x="281.795" y="554.393" fill-rule="evenodd" clip-rule="evenodd" fill="#ED7526" width="7.538" height="139.672"/>
	<rect x="300.743" y="554.393" fill-rule="evenodd" clip-rule="evenodd" fill="#ED7526" width="7.542" height="139.672"/>
	<rect x="319.689" y="554.393" fill-rule="evenodd" clip-rule="evenodd" fill="#ED7526" width="7.544" height="139.672"/>
	<rect x="338.646" y="554.393" fill-rule="evenodd" clip-rule="evenodd" fill="#ED7526" width="7.537" height="139.672"/>
	<rect x="357.591" y="554.393" fill-rule="evenodd" clip-rule="evenodd" fill="#ED7526" width="7.537" height="139.672"/>
	<rect x="376.541" y="554.393" fill-rule="evenodd" clip-rule="evenodd" fill="#ED7526" width="7.54" height="139.672"/>
	<rect x="270.382" y="542.236" fill-rule="evenodd" clip-rule="evenodd" fill="#F9A14A" width="7.998" height="154.864"/>
	<rect x="289.333" y="542.236" fill-rule="evenodd" clip-rule="evenodd" fill="#F9A14A" width="7.996" height="154.864"/>
	<rect x="308.285" y="542.236" fill-rule="evenodd" clip-rule="evenodd" fill="#F9A14A" width="7.99" height="154.864"/>
	<rect x="327.233" y="542.236" fill-rule="evenodd" clip-rule="evenodd" fill="#F9A14A" width="7.994" height="154.864"/>
	<rect x="346.179" y="542.236" fill-rule="evenodd" clip-rule="evenodd" fill="#F9A14A" width="7.995" height="154.864"/>
	<rect x="365.127" y="542.236" fill-rule="evenodd" clip-rule="evenodd" fill="#F9A14A" width="7.997" height="154.864"/>
</g>
<rect x="168.282" y="521.515" fill-rule="evenodd" clip-rule="evenodd" fill="#DC4126" width="217.319" height="4.767"/>
<rect x="242.884" y="526.289" fill-rule="evenodd" clip-rule="evenodd" fill="#DC4126" width="3.688" height="188.307"/>
<g>
	<rect x="400.87" y="591.008" fill-rule="evenodd" clip-rule="evenodd" fill="#F9A14A" width="106.649" height="123.588"/>
	<rect x="399.471" y="591.008" fill-rule="evenodd" clip-rule="evenodd" fill="#F9A14A" width="109.451" height="20.577"/>
	<polygon fill-rule="evenodd" clip-rule="evenodd" fill="#ED7526" points="507.52,714.596 467.478,714.596 400.87,611.593 
		507.52,611.593 	"/>
	<polygon fill-rule="evenodd" clip-rule="evenodd" fill="#DC4126" points="498.359,591.008 486.636,591.008 486.636,619.453 
		489.173,617.934 491.45,619.339 494.621,616.927 498.359,619.453 	"/>
	<polygon fill-rule="evenodd" clip-rule="evenodd" fill="#DC4126" points="421.752,591.008 410.028,591.008 410.028,619.453 
		412.563,617.934 414.846,619.339 418.017,616.927 421.752,619.453 	"/>
</g>
<linearGradient id="SVGID_8_" gradientUnits="userSpaceOnUse" x1="68.8813" y1="272.6172" x2="728.293" y2="272.6172">
	<stop  offset="0" style="stop-color:#262262"/>
	<stop  offset="1" style="stop-color:#2B3990"/>
</linearGradient>
<polygon opacity="0.5" fill-rule="evenodd" clip-rule="evenodd" fill="url(#SVGID_8_)" points="68.881,246.691 134.166,298.543 
	663.012,298.543 728.293,246.691 "/>
<linearGradient id="SVGID_9_" gradientUnits="userSpaceOnUse" x1="663.0117" y1="480.6436" x2="728.293" y2="480.6436">
	<stop  offset="0" style="stop-color:#262262"/>
	<stop  offset="1" style="stop-color:#2B3990"/>
</linearGradient>
<polygon fill-rule="evenodd" clip-rule="evenodd" fill="url(#SVGID_9_)" points="728.293,246.691 663.012,298.543 663.012,714.596 
	728.293,714.596 "/>
<g>
	<rect x="511.728" y="578.116" fill-rule="evenodd" clip-rule="evenodd" fill="#ED7526" width="90.813" height="136.479"/>
	<rect x="511.728" y="578.116" fill-rule="evenodd" clip-rule="evenodd" fill="#F9A14A" width="45.41" height="136.479"/>
	<g>
		<polygon fill-rule="evenodd" clip-rule="evenodd" fill="#455E77" points="526.98,685.816 526.98,703.292 522.062,703.292 
			522.062,685.816 518.663,685.816 521.592,678.876 524.525,671.924 527.456,678.876 530.391,685.816 		"/>
		<polygon fill-rule="evenodd" clip-rule="evenodd" fill="#455E77" points="540.273,685.816 540.273,703.292 535.354,703.292 
			535.354,685.816 531.947,685.816 534.881,678.876 537.814,671.924 540.745,678.876 543.675,685.816 		"/>
		<rect x="520.307" y="703.292" fill-rule="evenodd" clip-rule="evenodd" fill="#455E77" width="21.725" height="2.504"/>
	</g>
	<g>
		<polygon fill-rule="evenodd" clip-rule="evenodd" fill="#DC4126" points="519.582,578.116 530.268,578.116 530.268,604.035 
			527.958,602.646 525.878,603.929 522.986,601.729 519.582,604.035 		"/>
		<polygon fill-rule="evenodd" clip-rule="evenodd" fill="#DC4126" points="584.007,578.116 594.691,578.116 594.691,604.035 
			592.384,602.646 590.304,603.929 587.411,601.729 584.007,604.035 		"/>
	</g>
	<g>
		<rect x="604.446" y="609.354" fill-rule="evenodd" clip-rule="evenodd" fill="#ED7526" width="90.815" height="105.241"/>
		<rect x="604.446" y="609.354" fill-rule="evenodd" clip-rule="evenodd" fill="#F9A14A" width="45.404" height="105.241"/>
		<polygon fill-rule="evenodd" clip-rule="evenodd" fill="#455E77" points="619.697,685.816 619.697,703.292 614.784,703.292 
			614.784,685.816 611.382,685.816 614.314,678.876 617.243,671.924 620.174,678.876 623.104,685.816 		"/>
		<polygon fill-rule="evenodd" clip-rule="evenodd" fill="#455E77" points="632.988,685.816 632.988,703.292 628.074,703.292 
			628.074,685.816 624.668,685.816 627.598,678.876 630.53,671.924 633.465,678.876 636.397,685.816 		"/>
		<rect x="613.023" y="703.292" fill-rule="evenodd" clip-rule="evenodd" fill="#455E77" width="21.729" height="2.504"/>
		<g>
			<polygon fill-rule="evenodd" clip-rule="evenodd" fill="#DC4126" points="612.3,609.354 622.981,609.354 622.981,635.28 
				620.675,633.892 618.596,635.172 615.705,632.974 612.3,635.28 			"/>
			<polygon fill-rule="evenodd" clip-rule="evenodd" fill="#DC4126" points="676.723,609.354 687.407,609.354 687.407,635.28 
				685.101,633.892 683.016,635.172 680.134,632.974 676.723,635.28 			"/>
		</g>
	</g>
	<rect x="602.541" y="609.354" fill-rule="evenodd" clip-rule="evenodd" fill="#DC4126" width="1.899" height="105.241"/>
</g>
</svg>
