<?xml version="1.0" encoding="utf-8"?>
<!-- Generator: Adobe Illustrator 16.0.0, SVG Export Plug-In . SVG Version: 6.00 Build 0)  -->
<!DOCTYPE svg PUBLIC "-//W3C//DTD SVG 1.1//EN" "http://www.w3.org/Graphics/SVG/1.1/DTD/svg11.dtd">
<svg version="1.1" id="Layer_1" xmlns="http://www.w3.org/2000/svg" xmlns:xlink="http://www.w3.org/1999/xlink" x="0px" y="0px"
	 width="1504px" height="1198px" viewBox="0 0 1504 1198" enable-background="new 0 0 1504 1198" xml:space="preserve">
<linearGradient id="SVGID_1_" gradientUnits="userSpaceOnUse" x1="23.2407" y1="598.3262" x2="1495.8652" y2="598.3262">
	<stop  offset="0" style="stop-color:#F7C58C"/>
	<stop  offset="1" style="stop-color:#F89F57"/>
</linearGradient>
<path fill="url(#SVGID_1_)" d="M181.983,587.42c0,0-94.085-290.671,115.669-413.122S663.475,29.813,873.576,19.644
	s96.542-1.218,289.763,126.51s516.95,266.886,198.306,431.206s391.524,282.964-177.967,391.438s-465.271,310.17-886.025,154.237
	S71.814,843.75,48.085,713.054S171.813,585.703,181.983,587.42z"/>
<g>
	<path fill="#CCD8DE" d="M689.951,293.008H388.797c-5.221,0-9.453-4.231-9.453-9.452V172.977c0-5.221,4.232-9.453,9.453-9.453
		h301.154c5.22,0,9.452,4.232,9.452,9.453v110.579C699.403,288.777,695.171,293.008,689.951,293.008z"/>
	<linearGradient id="SVGID_2_" gradientUnits="userSpaceOnUse" x1="281.5815" y1="228.2661" x2="699.4033" y2="228.2661">
		<stop  offset="0" style="stop-color:#F26825"/>
		<stop  offset="1" style="stop-color:#F05123"/>
	</linearGradient>
	<path opacity="0.7" fill="url(#SVGID_2_)" d="M689.951,163.524H360.156c-32.436,35.844-59.112,76.996-78.574,121.996
		c0.904,4.277,4.698,7.488,9.245,7.488h399.125c5.22,0,9.452-4.231,9.452-9.452V172.977
		C699.403,167.756,695.171,163.524,689.951,163.524z"/>
	<linearGradient id="SVGID_3_" gradientUnits="userSpaceOnUse" x1="386.374" y1="231.4902" x2="539.374" y2="231.4902">
		<stop  offset="0" style="stop-color:#F26825"/>
		<stop  offset="1" style="stop-color:#F05123"/>
	</linearGradient>
	<path opacity="0.6" fill="url(#SVGID_3_)" d="M527.507,288.647H398.241c-6.554,0-11.867-5.313-11.867-11.866V186.2
		c0-6.554,5.313-11.866,11.867-11.866h129.267c6.554,0,11.867,5.313,11.867,11.866v90.581
		C539.374,283.334,534.061,288.647,527.507,288.647z"/>
	<linearGradient id="SVGID_4_" gradientUnits="userSpaceOnUse" x1="281.5815" y1="231.4902" x2="374.374" y2="231.4902">
		<stop  offset="0" style="stop-color:#F26825"/>
		<stop  offset="1" style="stop-color:#F05123"/>
	</linearGradient>
	<path opacity="0.6" fill="url(#SVGID_4_)" d="M362.507,174.333h-11.792c-28.187,33.23-51.597,70.64-69.133,111.187
		c0.239,1.132,0.685,2.186,1.289,3.127h79.637c6.554,0,11.867-5.313,11.867-11.866V186.2
		C374.374,179.646,369.061,174.333,362.507,174.333z"/>
	<linearGradient id="SVGID_5_" gradientUnits="userSpaceOnUse" x1="557.7075" y1="232.4834" x2="686.707" y2="232.4834">
		<stop  offset="0" style="stop-color:#F26825"/>
		<stop  offset="1" style="stop-color:#F05123"/>
	</linearGradient>
	<path opacity="0.6" fill="url(#SVGID_5_)" d="M681.707,284.9h-119c-2.762,0-5-2.239-5-5v-94.833c0-2.762,2.238-5,5-5h119
		c2.762,0,5,2.238,5,5V279.9C686.707,282.661,684.469,284.9,681.707,284.9z"/>
	<g>
		<g>
			<linearGradient id="SVGID_6_" gradientUnits="userSpaceOnUse" x1="396.374" y1="254.8999" x2="449.624" y2="254.8999">
				<stop  offset="0" style="stop-color:#F26825"/>
				<stop  offset="1" style="stop-color:#F05123"/>
			</linearGradient>
			<path fill="url(#SVGID_6_)" d="M440.249,284.9h-34.5c-5.178,0-9.375-4.197-9.375-9.375V224.9h53.25v50.625
				C449.624,280.703,445.427,284.9,440.249,284.9z"/>
			<linearGradient id="SVGID_7_" gradientUnits="userSpaceOnUse" x1="392.874" y1="222.8164" x2="453.5405" y2="222.8164">
				<stop  offset="0" style="stop-color:#F26825"/>
				<stop  offset="1" style="stop-color:#F05123"/>
			</linearGradient>
			<path fill="url(#SVGID_7_)" d="M451.458,220.733h-56.5c-1.151,0-2.083,0.934-2.083,2.084l0,0c0,1.15,0.933,2.083,2.083,2.083
				h56.5c1.15,0,2.083-0.933,2.083-2.083l0,0C453.541,221.667,452.608,220.733,451.458,220.733z"/>
		</g>
	</g>
	<g>
		<g>
			<linearGradient id="SVGID_8_" gradientUnits="userSpaceOnUse" x1="458.874" y1="279.1499" x2="485.2075" y2="279.1499">
				<stop  offset="0" style="stop-color:#F26825"/>
				<stop  offset="1" style="stop-color:#F05123"/>
			</linearGradient>
			<path fill="url(#SVGID_8_)" d="M485.208,271.733h-26.333v1.667c0,7.272,5.895,13.167,13.167,13.167l0,0
				c7.272,0,13.167-5.895,13.167-13.167V271.733z"/>
			<linearGradient id="SVGID_9_" gradientUnits="userSpaceOnUse" x1="464.5405" y1="285.9399" x2="479.5405" y2="285.9399">
				<stop  offset="0" style="stop-color:#F26825"/>
				<stop  offset="1" style="stop-color:#F05123"/>
			</linearGradient>
			<polygon fill="url(#SVGID_9_)" points="477.541,283.233 466.541,283.233 464.541,288.647 479.541,288.647 			"/>
		</g>
	</g>
	<linearGradient id="SVGID_10_" gradientUnits="userSpaceOnUse" x1="490.749" y1="267.7271" x2="517.5151" y2="267.7271">
		<stop  offset="0" style="stop-color:#F26825"/>
		<stop  offset="1" style="stop-color:#F05123"/>
	</linearGradient>
	<path fill="url(#SVGID_10_)" d="M516.957,248.403l-0.479-1.596l-25.222,7.57l0.479,1.596c0.666,2.219,1.867,4.126,3.416,5.635
		h-4.402v1.667c0,3.222,1.161,6.17,3.082,8.458h-3.082v1.667c0,5.044,2.838,9.42,7.002,11.632l-1.336,3.615h15l-1.335-3.615
		c4.164-2.212,7.002-6.588,7.002-11.632v-1.667H514c1.921-2.288,3.083-5.236,3.083-8.458v-1.667h-3.545
		C516.928,258.293,518.415,253.26,516.957,248.403z"/>
	<linearGradient id="SVGID_11_" gradientUnits="userSpaceOnUse" x1="667.4883" y1="229.3999" x2="680.4033" y2="229.3999">
		<stop  offset="0" style="stop-color:#F26825"/>
		<stop  offset="1" style="stop-color:#F05123"/>
	</linearGradient>
	<circle fill="url(#SVGID_11_)" cx="673.946" cy="229.4" r="6.458"/>
	<linearGradient id="SVGID_12_" gradientUnits="userSpaceOnUse" x1="343.624" y1="266.6069" x2="362.624" y2="266.6069">
		<stop  offset="0" style="stop-color:#F26825"/>
		<stop  offset="1" style="stop-color:#F05123"/>
	</linearGradient>
	<rect x="343.624" y="244.567" fill="url(#SVGID_12_)" width="19" height="44.08"/>
	<linearGradient id="SVGID_13_" gradientUnits="userSpaceOnUse" x1="327.9775" y1="270.3984" x2="343.6084" y2="270.3984">
		<stop  offset="0" style="stop-color:#F26825"/>
		<stop  offset="1" style="stop-color:#F05123"/>
	</linearGradient>
	<path fill="url(#SVGID_13_)" d="M341.509,253.055l-1.281-0.371c-1.542-0.445-3.154,0.441-3.6,1.984l-8.535,29.473
		c-0.447,1.542,0.441,3.154,1.983,3.601l1.281,0.37c1.542,0.447,3.154-0.441,3.601-1.982l8.535-29.474
		C343.939,255.114,343.051,253.502,341.509,253.055z"/>
	<linearGradient id="SVGID_14_" gradientUnits="userSpaceOnUse" x1="297.6523" y1="380.52" x2="361.8931" y2="380.52">
		<stop  offset="0" style="stop-color:#F26825"/>
		<stop  offset="1" style="stop-color:#F05123"/>
	</linearGradient>
	<path fill="url(#SVGID_14_)" d="M353.35,396.28h-47.155c-4.718,0-8.543-3.824-8.543-8.543v-14.434c0-4.719,3.825-8.543,8.543-8.543
		h47.155c4.718,0,8.543,3.824,8.543,8.543v14.434C361.893,392.456,358.068,396.28,353.35,396.28z"/>
	<linearGradient id="SVGID_15_" gradientUnits="userSpaceOnUse" x1="485.395" y1="448.1431" x2="549.6353" y2="448.1431">
		<stop  offset="0" style="stop-color:#F26825"/>
		<stop  offset="1" style="stop-color:#F05123"/>
	</linearGradient>
	<path fill="url(#SVGID_15_)" d="M541.092,463.903h-47.155c-4.718,0-8.542-3.825-8.542-8.543v-14.434
		c0-4.719,3.825-8.543,8.542-8.543h47.155c4.718,0,8.543,3.824,8.543,8.543v14.434C549.635,460.078,545.811,463.903,541.092,463.903
		z"/>
	<linearGradient id="SVGID_16_" gradientUnits="userSpaceOnUse" x1="627.4673" y1="76.6953" x2="688.9268" y2="76.6953">
		<stop  offset="0" style="stop-color:#F26825"/>
		<stop  offset="1" style="stop-color:#F05123"/>
	</linearGradient>
	<path fill="url(#SVGID_16_)" d="M680.384,91.773H636.01c-4.718,0-8.542-3.825-8.542-8.543V70.161c0-4.718,3.825-8.543,8.542-8.543
		h44.374c4.718,0,8.543,3.825,8.543,8.543V83.23C688.927,87.949,685.102,91.773,680.384,91.773z"/>
	<linearGradient id="SVGID_17_" gradientUnits="userSpaceOnUse" x1="1062.6377" y1="427.8027" x2="1124.0967" y2="427.8027">
		<stop  offset="0" style="stop-color:#F26825"/>
		<stop  offset="1" style="stop-color:#F05123"/>
	</linearGradient>
	<path fill="url(#SVGID_17_)" d="M1115.554,442.88h-44.373c-4.718,0-8.543-3.825-8.543-8.543v-13.069
		c0-4.719,3.825-8.543,8.543-8.543h44.373c4.719,0,8.543,3.824,8.543,8.543v13.069
		C1124.097,439.055,1120.272,442.88,1115.554,442.88z"/>
	<linearGradient id="SVGID_18_" gradientUnits="userSpaceOnUse" x1="1031.9082" y1="534.1211" x2="1093.3672" y2="534.1211">
		<stop  offset="0" style="stop-color:#F26825"/>
		<stop  offset="1" style="stop-color:#F05123"/>
	</linearGradient>
	<path fill="url(#SVGID_18_)" d="M1084.824,549.199h-44.373c-4.718,0-8.543-3.826-8.543-8.543v-13.07
		c0-4.719,3.825-8.543,8.543-8.543h44.373c4.719,0,8.543,3.824,8.543,8.543v13.07
		C1093.367,545.373,1089.543,549.199,1084.824,549.199z"/>
	<linearGradient id="SVGID_19_" gradientUnits="userSpaceOnUse" x1="564.9775" y1="356.3145" x2="626.437" y2="356.3145">
		<stop  offset="0" style="stop-color:#F26825"/>
		<stop  offset="1" style="stop-color:#F05123"/>
	</linearGradient>
	<path fill="url(#SVGID_19_)" d="M617.894,371.392h-44.374c-4.718,0-8.543-3.825-8.543-8.542v-13.07
		c0-4.719,3.825-8.543,8.543-8.543h44.374c4.718,0,8.543,3.824,8.543,8.543v13.07C626.437,367.567,622.612,371.392,617.894,371.392z
		"/>
	<linearGradient id="SVGID_20_" gradientUnits="userSpaceOnUse" x1="288.311" y1="533.6465" x2="352.5518" y2="533.6465">
		<stop  offset="0" style="stop-color:#F26825"/>
		<stop  offset="1" style="stop-color:#F05123"/>
	</linearGradient>
	<path fill="url(#SVGID_20_)" d="M344.009,549.406h-47.155c-4.718,0-8.543-3.824-8.543-8.543V526.43
		c0-4.719,3.825-8.543,8.543-8.543h47.155c4.718,0,8.543,3.824,8.543,8.543v14.434C352.552,545.582,348.727,549.406,344.009,549.406
		z"/>
</g>
<path fill="#BB3F26" d="M743.818,328.867c0,57.215-21.271,135.017-31.422,228.863c-11.336,104.811-12.42,201.014-41.997,249.621
	c0,0,57.426,15.697,129.833,15.697c72.404,0,164.051-15.697,164.051-15.697c-38.229-38.229-53.473-144.811-64.811-249.621
	c-10.15-93.846-8.607-171.648-8.607-228.863H743.818z"/>
<path fill="#CB5F28" d="M914.168,821.162c-23.391-94.744-52.615-413.308-40.484-495.333
	c-35.465,207.089-14.602,422.575,0.99,499.751L914.168,821.162z"/>
<path fill="#CB5F28" d="M695.031,818.881c23.393-94.744,64.023-411.026,51.893-493.052c35.465,207.089,3.193,422.575-12.398,499.751
	L695.031,818.881z"/>
<path fill="#FCC7A3" d="M799.467,249.065c2.951,12.101,9.971,44.208-19.838,53.358c-29.811,9.15-44.506,15.706-48.932,41.975
	l23.906,11.216l5.904-7.083c4.426,10.625-4.133,25.384-2.658,41.912c1.477,16.528,23.604,48.995,19.443,77.33
	c-4.158,28.334-25.514,42.797-32.006,86.184c69.949,22.727,151.379,18.891,132.49-38.369c-5.904-16.824-23.389-33.942-20.438-70.246
	c3.109-38.243,24.18-97.99,24.18-97.99l26.857-7.379c-8.264-42.797-18.889-41.617-43.387-44.568s-29.787-32.466-29.787-46.338
	H799.467z"/>
<path opacity="0.05" d="M808.885,367.605c10.938,0,17.881-30.272,58.113-18.169c40.23,12.102-35.111,51.72-70.393,48.384
	c-35.279-3.336-35.574-42.991-24.23-47.712C796.605,340.022,796.605,367.605,808.885,367.605z"/>
<ellipse fill="#FDD1B0" cx="817.342" cy="249.065" rx="17.869" ry="4.534"/>
<path opacity="0.05" d="M788.145,298.625c11.938,7.655,24.66,3.211,12.492-16.432C798.723,288.561,794.941,294.441,788.145,298.625z
	 M749.357,353.152l5.246,2.461l5.904-7.083c4.426,10.625-4.133,25.384-2.658,41.912c0.545,6.091,2.5,14.352,4.543,23.768
	c9.588-8.58,11.623-21.189,7.516-52.684C765.955,331.222,757.414,341.778,749.357,353.152z M864.99,295.403
	c-24.498-2.951-29.787-32.466-29.787-46.338h-3.943c-6.375,27.421-6.91,63.631,42.424,47.363
	C870.992,296.087,868.105,295.778,864.99,295.403z"/>
<path opacity="0.05" d="M848.422,674.494c-23.627,7.666-61.137,20.303-58.855,22.586c1.969,1.969,4.803,30.672,6.064,60.057
	c20.264-0.844,40.102-0.691,52.201,26.559c0.289-23.816,12.053-39.945,17.975-101.104
	C859.574,680.074,853.789,677.354,848.422,674.494z"/>
<path opacity="0.05" d="M733.609,668.566c2.887,39.359,8.154,62.33,12.438,79.158c24.703-7.041,39.953-5.18,59.672-4.973
	c1.432-23.752,3.68-44.029,5.322-45.672C814.357,693.762,733.609,668.566,733.609,668.566z"/>
<path fill="#CB5F28" d="M782.781,301.313c6.031-3.123,16.621,8.839,36.756,3.919c20.135-4.921,27.461-15.637,40.668-10.806
	c2.664-7.471-2.961-12.919-8.408-12.919c0-5.448-6.15-16.519-24.955-6.678c-18.805,9.841-24.779-2.812-30.402,2.812
	c-5.623,0.879-8.963,8.436-7.205,13.884C784.842,291.525,780.721,295.637,782.781,301.313z"/>
<path fill="#A154A1" d="M787.84,715.693c-40.135-2.912-68.746-10.73-77.816-13.475c-1.674,11.1-3.074,17.129-3.074,17.129
	s31.854,10.887,80.891,14.445c55.756,4.045,106.332-6.115,106.332-6.115s-1.199-5.709-2.445-17.643
	C880.998,711.969,836.387,719.215,787.84,715.693z"/>
<g opacity="0.05">
	<path d="M861.623,429.656c0,0,0.018,0,0.041,0.002C861.65,429.658,861.637,429.656,861.623,429.656z"/>
	<path d="M808.885,448.946c20.436,0,36.391,11.18,50.699,14.524c-1.891-13.635,0.139-24.313,2.039-33.814
		c-29.74,0-25.666-8.07-50.102-8.07c-18.387,0-26.664,4.824-45.35,4.824c1.084,8.676-0.742,22.754-5.34,38.488
		C775.188,460.901,791.859,448.946,808.885,448.946z"/>
</g>
<path opacity="0.05" d="M873.576,502.721c-0.68-1.377-1.383-2.77-2.113-4.188c-14.191-27.519-13.771-45.978-11.322-60.929
	C820.844,447.317,829.941,482.035,873.576,502.721z"/>
<path opacity="0.05" d="M768.473,731.934c-11.74-56.635-26.043-159.275,85.746-186.709
	c-93.387,11.955-108.357,59.709-108.357,129.635c0,20.783-2.861,38.248-6.867,52.467
	C747.43,728.975,757.334,730.605,768.473,731.934z"/>
<path opacity="0.05" d="M721.635,557.307c-3.934,16.74-6.02,37.037-6.02,64.684c0,60.09-8.666,97.357-8.666,97.357
	s3.727,1.273,10.584,3.09c17.596-37.797,18.395-70.156,11.451-110.684C725.443,591.076,722.879,573.305,721.635,557.307z
	 M888.969,649.426c-26.574,25.074-46.059,56.779-30.133,83.135c21.355-2.076,35.336-4.883,35.336-4.883
	S889.029,703.273,888.969,649.426z"/>
<path opacity="0.05" d="M736.76,349.842l18.955,8.037l4.15-6.551C759.865,351.329,747.611,336.391,736.76,349.842z M882.738,348.683
	l11.037-2.739C882.965,321.301,882.738,348.683,882.738,348.683z"/>
<linearGradient id="SVGID_21_" gradientUnits="userSpaceOnUse" x1="851.2559" y1="725.2568" x2="851.2559" y2="495.5981">
	<stop  offset="0" style="stop-color:#FFFFFF;stop-opacity:0"/>
	<stop  offset="0.0732" style="stop-color:#FFFFFF;stop-opacity:0.1463"/>
	<stop  offset="0.5" style="stop-color:#FFFFFF"/>
	<stop  offset="0.9268" style="stop-color:#FFFFFF;stop-opacity:0.1463"/>
	<stop  offset="1" style="stop-color:#FFFFFF;stop-opacity:0"/>
</linearGradient>
<path opacity="0.2" fill="url(#SVGID_21_)" d="M860.641,725.227c-11.416-50.189,36.199-179.273-14.154-229.629
	c23.615,85.176-25.264,144.494-11.633,212.549C838.578,726.748,860.641,725.227,860.641,725.227z"/>
<linearGradient id="SVGID_22_" gradientUnits="userSpaceOnUse" x1="763.9395" y1="603.5547" x2="763.9395" y2="436.2432">
	<stop  offset="0" style="stop-color:#FFFFFF;stop-opacity:0"/>
	<stop  offset="0.0732" style="stop-color:#FFFFFF;stop-opacity:0.1463"/>
	<stop  offset="0.5" style="stop-color:#FFFFFF"/>
	<stop  offset="0.9268" style="stop-color:#FFFFFF;stop-opacity:0.1463"/>
	<stop  offset="1" style="stop-color:#FFFFFF;stop-opacity:0"/>
</linearGradient>
<path opacity="0.2" fill="url(#SVGID_22_)" d="M789.467,436.243c0,40.318-46.725,107.238-46.725,167.312
	C723.9,548.703,771.555,479.572,789.467,436.243z"/>
<g>
	<polygon fill="#B76028" points="491.466,607.71 411.713,607.71 405.066,624.98 499.442,624.98 	"/>
	<linearGradient id="SVGID_23_" gradientUnits="userSpaceOnUse" x1="384.7959" y1="593.2461" x2="518.3833" y2="593.2461">
		<stop  offset="0" style="stop-color:#F26825"/>
		<stop  offset="1" style="stop-color:#F05123"/>
	</linearGradient>
	<path fill="url(#SVGID_23_)" d="M515.042,568.538H388.138c-1.846,0-3.342,1.496-3.342,3.342l0,0
		c0,25.446,20.628,46.075,46.075,46.075h41.437c25.447,0,46.075-20.629,46.075-46.075l0,0
		C518.383,570.034,516.887,568.538,515.042,568.538z"/>
	<path fill="#B76028" d="M413.576,563.767l-6.608,2.568l-26.109-67.177c-0.709-1.825,0.195-3.879,2.02-4.588l0,0
		c1.824-0.71,3.878,0.194,4.588,2.02L413.576,563.767z"/>
	<path fill="#B76028" d="M414.369,610.146c-0.374,0-0.754-0.078-1.116-0.246c-7.256-3.363-13.22-9.108-17.723-17.075
		c-0.723-1.278-0.272-2.899,1.006-3.623c1.279-0.724,2.901-0.271,3.623,1.007c3.945,6.979,9.103,11.98,15.33,14.868
		c1.332,0.617,1.912,2.197,1.293,3.529C416.333,609.577,415.373,610.146,414.369,610.146z"/>
	<path fill="#B76028" d="M394.438,586.878c-1.073,0-2.084-0.654-2.487-1.718c-1.727-4.556-2.326-7.861-2.351-8
		c-0.258-1.444,0.705-2.826,2.15-3.083c1.439-0.264,2.824,0.702,3.083,2.147l0,0c0.005,0.029,0.55,2.992,2.088,7.051
		c0.521,1.373-0.17,2.908-1.543,3.429C395.069,586.822,394.751,586.878,394.438,586.878z"/>
	<path fill="#F37B82" d="M392.217,569.021c0,0,7.532-28.755,22.154-18.517c14.622,10.239,24.369,8.156,24.369,8.156
		s23.926-9.295,27.914-2.498s23.04-1.138,30.129,2.829c7.089,3.968,9.305,9.547,9.305,9.547L392.217,569.021z"/>
	<circle fill="#F4898C" cx="407.476" cy="555.095" r="3.905"/>
	<circle fill="#F4898C" cx="458.07" cy="561.699" r="2.7"/>
	<circle fill="#F4898C" cx="421.35" cy="562.571" r="2.7"/>
	<circle fill="#F4898C" cx="490.137" cy="565.271" r="2.7"/>
</g>
<g>
	<path fill="#FDCCAA" d="M728.418,346.306c0,0-33.92,46.97-45.384,57.814c-18.462,17.465-37.429,92.819-37.429,92.819l14.979,17.956
		c0,0,16.659-64.995,38.214-90.175c23.779-27.779,50.56-71.568,50.56-71.568L728.418,346.306z"/>
</g>
<linearGradient id="SVGID_24_" gradientUnits="userSpaceOnUse" x1="706.9492" y1="513.6982" x2="910.8223" y2="513.6982">
	<stop  offset="0" style="stop-color:#F28332"/>
	<stop  offset="1" style="stop-color:#FBB36B"/>
</linearGradient>
<path fill="url(#SVGID_24_)" d="M894.172,727.678c0,0-6.771-32.107-4.869-103.971c1.9-71.861-1.031-92.58-17.84-125.174
	s-13.119-52.478-9.84-68.877c0,0,7.332,0.483,15.17-11.274c13.119-19.68,1.436-47.559,5.945-69.698l28.084-6.97
	c-5.945-39.563-24.395-50.019-45.939-48.994c-2.424,39.78-29.105,78.597-56.758,86.359c-27.652-11.643-31.533-67.432-31.533-78.59
	c-23.496,5.854-57.915,34.212-61.628,64.349l18.593,15.078l26.309-28.586c-2.938,21.347-23.16,56.881,6.307,75.081
	c2.023,16.178-6.066,51.133-23.4,80.6c-17.332,29.469-27.156,54.891-27.156,114.98s-8.666,97.357-8.666,97.357
	s31.854,10.887,80.891,14.445C843.596,737.838,894.172,727.678,894.172,727.678z"/>
<path fill="#F4863A" d="M960.03,640.832H819.132c-2.569,0-4.652-2.083-4.652-4.652l0,0c0-2.569,2.083-4.652,4.652-4.652H960.03
	c2.569,0,4.652,2.083,4.652,4.652l0,0C964.683,638.749,962.6,640.832,960.03,640.832z"/>
<path fill="#F4863A" d="M1002.398,640.832h-16.438c-2.569,0-4.652-2.083-4.652-4.652l0,0c0-2.569,2.083-4.652,4.652-4.652h16.438
	c2.569,0,4.652,2.083,4.652,4.652l0,0C1007.051,638.749,1004.968,640.832,1002.398,640.832z"/>
<linearGradient id="SVGID_25_" gradientUnits="userSpaceOnUse" x1="364.7573" y1="819.6973" x2="1027.3271" y2="819.6973">
	<stop  offset="0" style="stop-color:#F28332"/>
	<stop  offset="1" style="stop-color:#FBB36B"/>
</linearGradient>
<path fill="url(#SVGID_25_)" d="M366.79,800.889c-5.352,32.031-2.505,142.267,38.024,165.111
	c58.547,33,193.936,11.583,270.54,11.583c141.398,0,285.294,11.334,341.574-24.583c28.479-18.174-17.028-91.542,10.398-124.385
	l-4.784-173.637H366.79V800.889z"/>
<rect x="366.79" y="654.979" fill="#E27339" width="655.753" height="11.314"/>
<path fill="#F4863A" d="M796.233,828.615H423.832c-4.448,0-8.054-4.166-8.054-9.305l0,0c0-5.139,3.606-9.305,8.054-9.305h372.401
	c4.448,0,8.054,4.166,8.054,9.305l0,0C804.287,824.449,800.682,828.615,796.233,828.615z"/>
<path fill="#F4863A" d="M902.076,856.529h-75.431c-5.139,0-9.304-4.166-9.304-9.305l0,0c0-5.139,4.165-9.305,9.304-9.305h75.431
	c5.139,0,9.305,4.166,9.305,9.305l0,0C911.381,852.363,907.215,856.529,902.076,856.529z"/>
<path fill="#F4863A" d="M460.271,713.054h-21.543c-5.139,0-9.305-4.166-9.305-9.305l0,0c0-5.139,4.166-9.305,9.305-9.305h21.543
	c5.139,0,9.305,4.166,9.305,9.305l0,0C469.576,708.888,465.41,713.054,460.271,713.054z"/>
<path fill="#F4863A" d="M577.029,886.305h-21.543c-5.139,0-9.305-4.166-9.305-9.305l0,0c0-5.139,4.166-9.305,9.305-9.305h21.543
	c5.139,0,9.305,4.166,9.305,9.305l0,0C586.333,882.139,582.167,886.305,577.029,886.305z"/>
<path fill="#F4863A" d="M932.771,807.991h-21.543c-5.139,0-9.305-4.165-9.305-9.305l0,0c0-5.139,4.166-9.305,9.305-9.305h21.543
	c5.139,0,9.305,4.166,9.305,9.305l0,0C942.076,803.826,937.91,807.991,932.771,807.991z"/>
<path fill="#F4863A" d="M661.907,713.054H536.183c-5.139,0-9.304-4.166-9.304-9.305l0,0c0-5.139,4.166-9.305,9.304-9.305h125.724
	c5.139,0,9.305,4.166,9.305,9.305l0,0C671.212,708.888,667.046,713.054,661.907,713.054z"/>
<path fill="#F4863A" d="M759.234,910.358H633.51c-5.139,0-9.304-4.166-9.304-9.305l0,0c0-5.139,4.166-9.305,9.304-9.305h125.724
	c5.139,0,9.305,4.166,9.305,9.305l0,0C768.539,906.192,764.373,910.358,759.234,910.358z"/>
<path fill="#F4863A" d="M927.297,722.358h-75.431c-5.14,0-9.305-4.166-9.305-9.305l0,0c0-5.139,4.165-9.305,9.305-9.305h75.431
	c5.139,0,9.305,4.166,9.305,9.305l0,0C936.602,718.192,932.436,722.358,927.297,722.358z"/>
<path fill="#F4863A" d="M862.639,768.162H441.186c-5.139,0-9.304-4.166-9.304-9.305l0,0c0-5.139,4.166-9.305,9.304-9.305h421.453
	c5.139,0,9.305,4.166,9.305,9.305l0,0C871.943,763.996,867.777,768.162,862.639,768.162z"/>
<g>
	<path fill="#FDCCAA" d="M907.336,325.829c0,0,31.48,64.6,45.276,67.057c13.793,2.457,67.846-26.443,67.846-26.443l3.3,15.25
		c0,0-45.186,41.137-77.066,34.946c-31.882-6.189-58.874-69.65-58.874-69.65L907.336,325.829z"/>
</g>
<linearGradient id="SVGID_26_" gradientUnits="userSpaceOnUse" x1="740.8438" y1="251.1592" x2="892.127" y2="251.1592">
	<stop  offset="0" style="stop-color:#000000"/>
	<stop  offset="1" style="stop-color:#6D665E"/>
</linearGradient>
<path fill-rule="evenodd" clip-rule="evenodd" fill="url(#SVGID_26_)" d="M816.785,113.047c-62.779,0-100.669,94.144-55.724,134.201
	c-11.962,5.146-20.218,15.775-20.218,28.039c0,6.723,2.521,12.963,6.782,18.073c-3.126,3.311-4.997,7.533-4.997,12.151
	c0,5.038,2.272,9.645,5.995,13.094c-1.472,2.273-2.314,4.881-2.314,7.651c0,4.482,2.201,8.511,5.729,11.373
	c-2.115,2.35-3.387,5.292-3.387,8.479c0,5.944,4.522,11.1,10.804,12.965c-0.693,0.881-1.101,1.947-1.101,3.095
	c0,1.896,1.196,3.597,2.988,4.55c-4.112,6.372-6.148,22.552,3.257,22.552c9.49,0,7.479-16.162,3.317-22.541
	c1.835-0.951,3.04-2.657,3.04-4.561c0-1.154-0.412-2.224-1.118-3.108c6.317-1.875,10.821-7.021,10.821-12.953
	c0-3.136-1.234-6.033-3.296-8.364c3.597-2.868,5.861-6.944,5.861-11.487c0-2.598-0.749-5.051-2.052-7.222
	c4.02-3.491,6.514-8.274,6.514-13.523c0-0.096-0.007-0.189-0.009-0.285c15.114-3.836,26.106-15.831,26.106-29.94
	c0-3.658-0.736-7.168-2.077-10.435c1.66,0.063,3.351,0.098,5.077,0.098C936.121,264.951,896.418,113.047,816.785,113.047z"/>
<path fill-rule="evenodd" clip-rule="evenodd" fill="#EAB67C" d="M799.592,249.86c0.669-8.477,0.111-14.833,0.111-14.833
	c24.76-6.692,14.945-6.692,39.593,0c0,0-0.446,6.356,0.111,14.833c-6.915,5.911-14.164,9.257-19.853,9.257
	C813.756,259.117,806.617,255.771,799.592,249.86L799.592,249.86z"/>
<path fill-rule="evenodd" clip-rule="evenodd" fill="#FCD09E" d="M774.721,185.619c3.457,0,6.914,6.692,7.695,14.834
	c0.78,8.142-1.45,14.833-4.907,14.833C765.352,215.286,762.563,185.619,774.721,185.619L774.721,185.619z"/>
<path fill-rule="evenodd" clip-rule="evenodd" fill="#FCD09E" d="M864.391,185.619c-3.569,0-7.027,6.692-7.696,14.834
	c-0.78,8.142,1.339,14.833,4.907,14.833C873.759,215.286,876.547,185.619,864.391,185.619L864.391,185.619z"/>
<path fill-rule="evenodd" clip-rule="evenodd" fill="#FCD09E" d="M819.555,134.873c24.426,0,44.166,27.103,44.166,60.561
	c0,33.348-28.105,60.449-44.166,60.449c-16.172,0-44.277-27.102-44.277-60.449C775.277,161.975,795.13,134.873,819.555,134.873
	L819.555,134.873z"/>
<path fill-rule="evenodd" clip-rule="evenodd" d="M794.238,169.559c0,0-16.618,12.156-15.057,36.916
	C766.467,195.099,774.051,169.113,794.238,169.559L794.238,169.559z"/>
<path fill-rule="evenodd" clip-rule="evenodd" d="M844.761,169.559c0,0,16.729,12.156,15.057,36.916
	C872.644,195.099,864.947,169.113,844.761,169.559L844.761,169.559z"/>
<path fill-rule="evenodd" clip-rule="evenodd" fill="#FFFFFF" d="M789.219,191.083c0,0-0.892,2.008,1.115,3.569
	c2.008,1.673,5.131,3.123,10.149,2.788c5.019-0.223,7.25-1.45,7.361-2.119C807.956,194.542,799.814,184.838,789.219,191.083
	L789.219,191.083z"/>
<path fill-rule="evenodd" clip-rule="evenodd" fill="#010101" d="M788.996,193.203c0.223,0,2.677,3.346,8.477,3.792
	c5.799,0.335,9.703-0.78,9.703-0.78C804.498,198.445,790.334,200.118,788.996,193.203L788.996,193.203z"/>
<path fill-rule="evenodd" clip-rule="evenodd" fill="#010101" d="M799.703,188.63c2.564,0,4.684,2.119,4.684,4.685
	c0,2.564-2.119,4.684-4.684,4.684c-2.565,0-4.685-2.119-4.685-4.684C795.019,190.75,797.138,188.63,799.703,188.63L799.703,188.63z"
	/>
<path fill-rule="evenodd" clip-rule="evenodd" fill="#BD7631" d="M799.703,189.299c2.23,0,4.015,1.784,4.015,4.016
	c0,2.23-1.784,4.015-4.015,4.015s-3.904-1.784-3.904-4.015C795.799,191.083,797.473,189.299,799.703,189.299L799.703,189.299z"/>
<path fill-rule="evenodd" clip-rule="evenodd" fill="#010101" d="M799.703,190.526c1.562,0,2.788,1.228,2.788,2.789
	c0,1.561-1.227,2.788-2.788,2.788s-2.789-1.228-2.789-2.788C796.914,191.753,798.142,190.526,799.703,190.526L799.703,190.526z"/>
<path fill-rule="evenodd" clip-rule="evenodd" fill="#FFFFFF" d="M800.93,190.081c0.781,0,1.338,0.558,1.338,1.227
	c0,0.78-0.557,1.338-1.338,1.338c-0.669,0-1.227-0.558-1.227-1.338C799.703,190.638,800.261,190.081,800.93,190.081L800.93,190.081z
	"/>
<path fill-rule="evenodd" clip-rule="evenodd" fill="#FFFFFF" d="M798.922,194.43c0.224,0,0.446,0.111,0.446,0.334
	s-0.223,0.446-0.446,0.446c-0.223,0-0.445-0.224-0.445-0.446S798.699,194.43,798.922,194.43L798.922,194.43z"/>
<path fill-rule="evenodd" clip-rule="evenodd" fill="#010101" d="M788.215,191.976c0,0,11.153-6.691,20.076,3.346
	C803.16,184.838,790.445,187.069,788.215,191.976L788.215,191.976z"/>
<path fill-rule="evenodd" clip-rule="evenodd" fill="#010101" d="M788.996,186.623c0.111,0.111,1.338,2.119,3.457,2.008
	l-0.892,1.338C791.562,189.968,789.33,189.188,788.996,186.623L788.996,186.623z"/>
<path fill-rule="evenodd" clip-rule="evenodd" fill="#010101" d="M787.547,188.184c0,0,1.227,1.45,3.122,1.227l-0.335,1.004
	C790.334,190.415,788.327,190.192,787.547,188.184L787.547,188.184z"/>
<path fill-rule="evenodd" clip-rule="evenodd" fill="#010101" d="M786.988,189.857c0,0,1.562,0.781,3.012,0.224
	C789.554,191.307,787.658,190.972,786.988,189.857L786.988,189.857z"/>
<path fill-rule="evenodd" clip-rule="evenodd" fill="#FFFFFF" d="M849.779,191.083c0,0,1.004,2.008-1.115,3.569
	c-2.008,1.673-5.019,3.123-10.037,2.788c-5.02-0.223-7.25-1.45-7.361-2.119C831.154,194.542,839.185,184.838,849.779,191.083
	L849.779,191.083z"/>
<path fill-rule="evenodd" clip-rule="evenodd" fill="#010101" d="M850.114,193.203c-0.224,0-2.677,3.346-8.477,3.792
	c-5.8,0.335-9.702-0.78-9.702-0.78C834.5,198.445,848.775,200.118,850.114,193.203L850.114,193.203z"/>
<path fill-rule="evenodd" clip-rule="evenodd" fill="#010101" d="M839.407,188.63c2.565,0,4.685,2.119,4.685,4.685
	c0,2.564-2.119,4.684-4.685,4.684c-2.677,0-4.796-2.119-4.796-4.684C834.611,190.75,836.73,188.63,839.407,188.63L839.407,188.63z"
	/>
<path fill-rule="evenodd" clip-rule="evenodd" fill="#BD7631" d="M839.407,189.299c2.119,0,3.903,1.784,3.903,4.016
	c0,2.23-1.784,4.015-3.903,4.015c-2.23,0-4.015-1.784-4.015-4.015C835.393,191.083,837.177,189.299,839.407,189.299L839.407,189.299
	z"/>
<path fill-rule="evenodd" clip-rule="evenodd" fill="#010101" d="M839.407,190.526c1.45,0,2.788,1.228,2.788,2.789
	c0,1.561-1.338,2.788-2.788,2.788c-1.562,0-2.899-1.228-2.899-2.788C836.508,191.753,837.846,190.526,839.407,190.526
	L839.407,190.526z"/>
<path fill-rule="evenodd" clip-rule="evenodd" fill="#FFFFFF" d="M840.635,190.081c0.669,0,1.227,0.558,1.227,1.227
	c0,0.78-0.558,1.338-1.227,1.338c-0.781,0-1.339-0.558-1.339-1.338C839.296,190.638,839.854,190.081,840.635,190.081
	L840.635,190.081z"/>
<path fill-rule="evenodd" clip-rule="evenodd" fill="#FFFFFF" d="M838.627,194.43c0.223,0,0.334,0.111,0.334,0.334
	s-0.111,0.446-0.334,0.446s-0.446-0.224-0.446-0.446S838.404,194.43,838.627,194.43L838.627,194.43z"/>
<path fill-rule="evenodd" clip-rule="evenodd" fill="#010101" d="M850.783,191.976c0,0-11.041-6.691-20.075,3.346
	C835.95,184.838,848.553,187.069,850.783,191.976L850.783,191.976z"/>
<path fill-rule="evenodd" clip-rule="evenodd" fill="#010101" d="M850.114,186.623c-0.111,0.111-1.45,2.119-3.569,2.008l0.893,1.338
	C847.438,189.968,849.668,189.188,850.114,186.623L850.114,186.623z"/>
<path fill-rule="evenodd" clip-rule="evenodd" fill="#010101" d="M851.564,188.184c0,0-1.339,1.45-3.234,1.227l0.334,1.004
	C848.664,190.415,850.783,190.192,851.564,188.184L851.564,188.184z"/>
<path fill-rule="evenodd" clip-rule="evenodd" fill="#010101" d="M852.01,189.857c0,0-1.449,0.781-3.011,0.224
	C849.557,191.307,851.342,190.972,852.01,189.857L852.01,189.857z"/>
<path fill-rule="evenodd" clip-rule="evenodd" fill="#FFFFFF" d="M808.402,230.565c0,0,1.784,3.681,6.134,5.02
	c3.234,0.892,4.462,1.115,4.907,1.115l0,0l0,0c0,0,0,0,0.111,0l0,0l0,0l0,0h0.111l0,0l0,0c0.447,0,1.674-0.224,4.797-1.115
	c4.461-1.339,6.245-5.02,6.245-5.02l-11.153,1.896L808.402,230.565z"/>
<path fill-rule="evenodd" clip-rule="evenodd" fill="#EF3740" d="M807.845,230.007c0.446,0.558,1.227,1.004,1.673,1.45
	c5.911,5.13,14.164,5.13,19.964,0c0.558-0.446,1.339-0.893,1.784-1.45C828.589,243.28,810.41,243.28,807.845,230.007
	L807.845,230.007z"/>
<path fill-rule="evenodd" clip-rule="evenodd" fill="#D3232A" d="M804.833,228.781c0,0,1.784,2.119,6.246,3.123
	c1.673,0.446,7.919,1.45,8.476,1.45c0.559,0,6.804-1.004,8.477-1.45c4.35-1.004,6.135-3.123,6.135-3.123
	c-4.797,2.565-8.365,0.893-11.711,0.893c-1.45,0-2.454,0.78-2.9,1.562c-0.557-0.781-1.449-1.562-3.011-1.562
	C813.198,229.673,809.629,231.346,804.833,228.781L804.833,228.781z"/>
<path fill-rule="evenodd" clip-rule="evenodd" fill="#F6C58E" d="M819.555,217.962c2.789,0,5.131,1.45,5.131,2.454
	c0,0.892-2.342,1.673-5.131,1.673c-2.899,0-5.13-0.781-5.13-1.673C814.425,219.413,816.655,217.962,819.555,217.962L819.555,217.962
	z"/>
<path fill-rule="evenodd" clip-rule="evenodd" fill="#F6C58E" d="M790.558,179.931c24.871-0.224,30.56,19.518,27.437,34.128
	c-0.446,1.673-1.004,2.677-2.008,3.123C815.986,217.182,822.678,183.166,790.558,179.931L790.558,179.931z"/>
<path fill-rule="evenodd" clip-rule="evenodd" d="M825.243,190.972c0,0,9.814-14.275,30.001-7.026
	C846.991,177.031,828.143,179.708,825.243,190.972L825.243,190.972z"/>
<path fill-rule="evenodd" clip-rule="evenodd" d="M813.867,190.972c0,0-9.926-14.275-30.002-7.026
	C792.119,177.031,810.855,179.708,813.867,190.972L813.867,190.972z"/>
<path fill-rule="evenodd" clip-rule="evenodd" fill="#EF4323" d="M819.443,177.031c1.562,0,2.789-1.227,2.789-2.788
	c0-1.45-1.228-2.677-2.789-2.677c-1.449,0-2.676,1.227-2.676,2.677C816.768,175.804,817.994,177.031,819.443,177.031
	L819.443,177.031z"/>
<linearGradient id="SVGID_27_" gradientUnits="userSpaceOnUse" x1="754.5137" y1="166.9375" x2="884.5596" y2="166.9375">
	<stop  offset="0" style="stop-color:#000000"/>
	<stop  offset="1" style="stop-color:#6D665E"/>
</linearGradient>
<path fill-rule="evenodd" clip-rule="evenodd" fill="url(#SVGID_27_)" d="M819.555,115.132c-56.434,0-85.543,68.925-48.515,103.61
	c-13.05-28.551,42.938-54.761,48.515-72.717c5.465,17.956,61.564,44.166,48.404,72.717
	C905.099,184.057,875.989,115.132,819.555,115.132L819.555,115.132z"/>
<linearGradient id="SVGID_28_" gradientUnits="userSpaceOnUse" x1="988.7715" y1="361.7925" x2="1023.1113" y2="361.7925">
	<stop  offset="0" style="stop-color:#F26825"/>
	<stop  offset="1" style="stop-color:#F05123"/>
</linearGradient>
<path fill="url(#SVGID_28_)" d="M988.771,336.546v50.491c0,2.174,1.76,3.938,3.935,3.938h26.47c2.173,0,3.936-1.765,3.936-3.938
	v-50.491c0-2.175-1.763-3.937-3.936-3.937h-26.469C990.532,332.608,988.771,334.372,988.771,336.546z M1005.885,353.259
	c-0.429,0-0.774-0.346-0.774-0.774s0.346-0.774,0.774-0.774c0.427,0,0.772,0.346,0.772,0.774S1006.312,353.259,1005.885,353.259z
	 M1005.885,348.694c-1.299,0-2.353-1.054-2.353-2.353c0-1.298,1.052-2.352,2.353-2.352c1.299,0,2.352,1.054,2.352,2.352
	C1008.234,347.641,1007.184,348.694,1005.885,348.694z M997.313,338.532h17.141c0.541,0,0.98,0.437,0.98,0.978
	c0,0.543-0.439,0.981-0.98,0.981h-17.141c-0.541,0-0.978-0.438-0.978-0.981C996.336,338.968,996.772,338.532,997.313,338.532z"/>
<g>
	<path fill="#FDCCAA" d="M1028.273,365.307c-0.593-3.751-3.999-5.764-7.571-4.474l-8.702,3.145c-3.572,1.291-7.06,4.764-7.751,7.718
		c-0.691,2.955,0.861,5.868,3.449,6.473s2.215,2.958-0.831,5.227l-0.949,0.708c-3.046,2.269-3.867,6.533-1.826,9.476
		c2.042,2.942,6.277,3.934,9.413,2.202c3.136-1.731,8.204-4.988,11.264-7.238l0.865-0.637c3.06-2.25,5.078-7.16,4.485-10.911
		L1028.273,365.307z"/>
</g>
<g>
	<path fill="#91311F" d="M637.716,590.684l-4.142,34.791c-0.402,3.378,1.82,6.512,5.141,7.25l0,0c1.73,0.385,3.514-0.348,4.47-1.841
		c5.377-8.399,22.51-35.198,21.691-34.38C663.906,597.474,637.716,590.684,637.716,590.684z"/>
	<path fill="#91311F" d="M726.678,590.684l4.141,34.791c0.402,3.378-1.818,6.512-5.141,7.25l0,0
		c-1.73,0.385-3.514-0.348-4.469-1.841c-5.378-8.399-22.51-35.198-21.691-34.38C700.487,597.474,726.678,590.684,726.678,590.684z"
		/>
	<linearGradient id="SVGID_29_" gradientUnits="userSpaceOnUse" x1="618.3154" y1="573.2861" x2="746.3574" y2="573.2861">
		<stop  offset="0" style="stop-color:#F26825"/>
		<stop  offset="1" style="stop-color:#F05123"/>
	</linearGradient>
	<path fill="url(#SVGID_29_)" d="M694.947,608.395h-25.221c-28.394,0-51.411-23.018-51.411-51.411v-12.016
		c0-3.751,3.04-6.79,6.79-6.79h114.463c3.75,0,6.789,3.039,6.789,6.79v12.016C746.357,585.377,723.341,608.395,694.947,608.395z"/>
	<path fill="#B94826" d="M739.568,538.178v14.926c0,28.394-23.018,51.411-51.411,51.411h-25.221c-7.883,0-15.348-1.78-22.025-4.951
		c8.219,5.573,18.136,8.831,28.815,8.831h25.221c28.394,0,51.41-23.018,51.41-51.411v-12.016
		C746.357,541.217,743.318,538.178,739.568,538.178L739.568,538.178z"/>
	<g>
		<circle fill="#B94826" cx="644.183" cy="555.521" r="3.638"/>
		<circle fill="#B94826" cx="705.618" cy="551.479" r="2.83"/>
		<circle fill="#B94826" cx="671.667" cy="575.729" r="2.829"/>
		<circle fill="#B94826" cx="715.318" cy="566.837" r="2.829"/>
		<circle fill="#B94826" cx="661.158" cy="549.861" r="2.829"/>
		<circle fill="#B94826" cx="650.65" cy="579.771" r="3.637"/>
		<circle fill="#B94826" cx="691.472" cy="571.283" r="2.425"/>
		<circle fill="#B94826" cx="724.614" cy="553.499" r="2.425"/>
		<circle fill="#B94826" cx="682.58" cy="555.925" r="2.425"/>
		<circle fill="#B94826" cx="685.005" cy="593.109" r="2.425"/>
		<circle fill="#B94826" cx="706.022" cy="584.217" r="2.425"/>
	</g>
	<path fill="#B94826" d="M639.655,594.079c-0.804,0-1.611-0.284-2.258-0.861c-7.78-6.938-12.963-17.181-14.989-29.622
		c-0.301-1.85,0.955-3.595,2.806-3.896c1.847-0.304,3.595,0.953,3.896,2.806c1.798,11.042,6.107,19.67,12.807,25.645
		c1.399,1.249,1.521,3.395,0.274,4.795C641.52,593.695,640.589,594.079,639.655,594.079z"/>
	<path fill="#B94826" d="M624.868,556.745c-1.839,0-3.35-1.468-3.393-3.315c-0.107-4.61,0.244-7.64,0.259-7.767
		c0.221-1.862,1.905-3.193,3.771-2.972c1.861,0.221,3.191,1.907,2.972,3.769c-0.009,0.082-0.309,2.763-0.214,6.811
		c0.043,1.875-1.44,3.43-3.315,3.474C624.922,556.745,624.895,556.745,624.868,556.745z"/>
	<path fill="#91311F" d="M639.656,538.178l-10.645-29.158c-0.555-1.52,0.198-3.205,1.7-3.807l0,0
		c1.268-0.507,2.718-0.092,3.526,1.01l23.525,32.08L639.656,538.178z"/>
	<path fill="#FEBE40" d="M739.568,538.178c0.885,0,1.729,0.174,2.506,0.482c12.326-6.16-1.229-13.718-12.207-10.058
		c-11.64,3.88-18.43,2.909-11.64-6.79c6.79-9.701-13.58-10.671-15.52,0c-1.778,9.777-20.651,15.479-24.729,16.365H739.568z"/>
	<path fill="#E97424" d="M729.303,538.178c1.385-2.997-4.9-5.532-10.205-3.764c-7.085,2.361-11.219,1.771-7.085-4.134
		c4.133-5.904-8.267-6.495-9.447,0c-0.645,3.544-4.977,6.207-8.901,7.897H729.303z"/>
	<path fill="#C8DA52" d="M668.757,534.422c0,0,1.94-6.79,5.82-6.79s1.939,5.82-0.971,6.79
		C670.697,535.393,668.757,534.422,668.757,534.422z"/>
	<path fill="#FEBE40" d="M686.092,526.371c-0.183-1.991-0.573-3.953-1.26-5.831c-0.732-2.004-1.186-4.111,0.415-3.578
		c2.91,0.97,5.82,8.73,2.91,10.67C686.683,528.615,686.204,527.605,686.092,526.371z"/>
	<path fill="#E97424" d="M733.748,520.842c0.971,0,4.85-7.76,6.791-4.85c1.939,2.91-4.852,7.76-6.791,6.79
		S733.748,520.842,733.748,520.842z"/>
	<path fill="#C8DA52" d="M720.444,524.179c0,0,3.911-5.214,5.214-2.606C726.961,524.179,721.748,524.179,720.444,524.179z"/>
</g>
<g>
	<path fill="#FDCCAA" d="M655.937,494.205c-1.432-3.518-5.208-4.702-8.392-2.631l-7.756,5.045c-3.184,2.07-5.789,6.247-5.789,9.281
		s2.175,5.517,4.833,5.517c2.659,0,2.831,2.375,0.382,5.278l-0.764,0.906c-2.448,2.903-2.276,7.242,0.382,9.642
		c2.659,2.4,7.009,2.4,9.667,0s6.852-6.727,9.318-9.614l0.698-0.817c2.466-2.888,3.313-8.128,1.882-11.646L655.937,494.205z"/>
</g>
<path fill="#EF9646" d="M1029.885,654.979h-668.48c-9.162,0-15.539-9.104-12.407-17.714l0,0
	c3.121-8.583,11.278-14.297,20.412-14.297h652.471c9.134,0,17.291,5.714,20.412,14.297l0,0
	C1045.423,645.875,1039.047,654.979,1029.885,654.979z"/>
<path fill="#E27339" d="M980.847,647.885h-21.543c-5.139,0-9.305-4.165-9.305-9.305l0,0c0-5.139,4.166-9.305,9.305-9.305h21.543
	c5.139,0,9.305,4.166,9.305,9.305l0,0C990.151,643.72,985.985,647.885,980.847,647.885z"/>
<path fill="#E27339" d="M869.802,650.137h-52.982c-12.638,0-22.884-4.165-22.884-9.305l0,0c0-5.139,10.246-9.305,22.884-9.305
	h52.982c12.638,0,22.884,4.166,22.884,9.305l0,0C892.686,645.972,882.439,650.137,869.802,650.137z"/>
<g>
	<path fill="#91311F" d="M988.007,603.977H815.343c-4.019,0-7.275,3.258-7.275,7.275v11.155h187.215v-11.155
		C995.282,607.234,992.024,603.977,988.007,603.977z"/>
	<path fill="#5A6570" d="M1005.339,516.532l-25.575-17.591l-65.967,95.906l4.892,0.441c18.889,1.707,37.229-6.907,47.978-22.533
		L1005.339,516.532z"/>
	<path fill="#ABBFCF" d="M918.688,595.289l-4.892-0.441l6.652-9.672c16.533-0.543,32.005-8.875,41.522-22.712l35.374-51.429
		l7.993,5.497l-38.673,56.224C955.918,588.382,937.577,596.996,918.688,595.289z"/>
	<circle fill="#ABBFCF" cx="978.96" cy="517.226" r="3.881"/>
	
		<rect x="985.524" y="499.131" transform="matrix(0.824 0.5666 -0.5666 0.824 458.6405 -472.2571)" fill="#404952" width="7.761" height="5.82"/>
	<linearGradient id="SVGID_30_" gradientUnits="userSpaceOnUse" x1="986.2588" y1="474.9639" x2="1035.9336" y2="474.9639">
		<stop  offset="0" style="stop-color:#F26825"/>
		<stop  offset="1" style="stop-color:#F05123"/>
	</linearGradient>
	<path fill="url(#SVGID_30_)" d="M998.158,504.529l-11.899-8.185l32.577-47.363c1.528-2.223,4.05-3.553,6.747-3.562l7.116-0.021
		c2.597-0.008,4.134,2.903,2.662,5.043L998.158,504.529z"/>
	<path fill="#72808F" d="M962.42,535.282L962.42,535.282c-1.104-0.759-2.614-0.479-3.373,0.624l-24.737,35.965
		c-0.759,1.104-0.479,2.613,0.624,3.372l0,0c1.104,0.759,2.613,0.479,3.372-0.624l24.737-35.965
		C963.803,537.551,963.523,536.041,962.42,535.282z"/>
	<path fill="#72808F" d="M969.565,524.893L969.565,524.893c-1.103-0.76-2.613-0.48-3.372,0.623l-2.748,3.996
		c-0.76,1.104-0.48,2.613,0.623,3.373l0,0c1.104,0.759,2.613,0.479,3.373-0.624l2.748-3.996
		C970.948,527.161,970.669,525.651,969.565,524.893z"/>
	<path fill="#E9686A" d="M858.832,603.977c0,0-11.964-17.46,1.616-17.46c13.581,0,28.131,16.49,58.202,6.79
		c30.07-9.7,67.901-12.61,68.871-1.94c0.971,10.671-5.375,12.86-5.375,12.86L858.832,603.977z"/>
	<path fill="#F4898C" d="M977.821,595.247c-0.305,0-0.614-0.048-0.92-0.15c-1.944-0.647-4.382-1.091-7.242-1.317
		c-1.603-0.126-2.799-1.528-2.672-3.13c0.126-1.602,1.534-2.804,3.13-2.672c3.331,0.263,6.233,0.801,8.624,1.599
		c1.525,0.508,2.35,2.156,1.841,3.68C980.176,594.477,979.041,595.247,977.821,595.247z"/>
	<path fill="#F4898C" d="M932.552,597.834c-1.313,0-2.504-0.894-2.827-2.227c-0.378-1.562,0.582-3.135,2.144-3.513
		c0.637-0.153,15.756-3.78,30.009-4.259c1.615-0.054,2.95,1.204,3.006,2.811c0.054,1.605-1.204,2.952-2.811,3.006
		c-13.645,0.458-28.685,4.063-28.834,4.1C933.009,597.808,932.778,597.834,932.552,597.834z"/>
</g>
</svg>
