<?xml version="1.0" encoding="utf-8"?>
<!-- Generator: Adobe Illustrator 21.0.2, SVG Export Plug-In . SVG Version: 6.00 Build 0)  -->
<svg version="1.1" id="Layer_1" xmlns="http://www.w3.org/2000/svg" xmlns:xlink="http://www.w3.org/1999/xlink" x="0px" y="0px"
	 viewBox="0 0 994 1080" style="enable-background:new 0 0 994 1080;" xml:space="preserve">
<style type="text/css">
	.st0{fill:#DD9E73;}
	.st1{fill:url(#SVGID_1_);}
	.st2{fill:#1E5177;}
	.st3{fill:url(#SVGID_2_);}
	.st4{fill:#594A42;}
	.st5{fill:url(#SVGID_3_);}
	.st6{fill:url(#arm_2_);}
	.st7{fill:url(#SVGID_4_);}
	.st8{fill:url(#SVGID_5_);}
</style>
<g>
	<g id="left_hand_1_">
		<path class="st0" d="M373.7,648.2c-0.1,10.1-2.5,15.6-6.4,22.9c-2.1,2.9-9.4,25.1-11.1,25.3c-2.3,1.2-14.3,15.8-22-5.7
			c-1.2-2.3-0.2-21.9,4.4-40.3C345.9,622.4,372.7,631.5,373.7,648.2z"/>
		
			<linearGradient id="SVGID_1_" gradientUnits="userSpaceOnUse" x1="375.8786" y1="499.2663" x2="407.8786" y2="716.8693" gradientTransform="matrix(0.7073 0.7069 0.7069 -0.7073 -308.2431 667.9238)">
			<stop  offset="0" style="stop-color:#FFFFFF"/>
			<stop  offset="1" style="stop-color:#F7CE84"/>
		</linearGradient>
		<path class="st1" d="M416.8,550.4C416.8,550.4,416.1,551.3,416.8,550.4c-1.9,24.7-2.5,41.6-31,95c-1-0.7-3,2.2-3.7,3.1
			c-8.8-7.8-22.6-14.9-35.7-12.8c0.4-2.6,0.7-11.1,0.7-11.1c2.8-13.9,7.3-28.1,12.4-43.2c-4.8-19.4,1.9-50.8,1-77.6
			c-0.3-43.7,2.8-108.2,46.7-106.8c36.5,1.7,34,59.3,24.2,103C424.6,515.4,421,534.6,416.8,550.4L416.8,550.4L416.8,550.4z"/>
	</g>
	<path class="st2" d="M450,971.1c10.6-3.5,38.8-10.6,48.2-2.3c9.4,8.2,7,32.9-21.1,44.6c-28.2,11.7-51.7,7-51.7,14.1
		c0,7-21.1,12.9-38.8,8.2c-17.6-4.7-18.8-31.7-8.2-45.8C387.7,976.9,424.1,981.6,450,971.1z"/>
	<path class="st2" d="M524,1013.4c10.6-3.5,38.8-10.6,48.2-2.3c9.4,8.2,7,32.9-21.1,44.6s-51.7,7-51.7,14.1c0,7-21.1,12.9-38.8,8.2
		c-17.6-4.7-18.8-31.7-8.2-45.8C462.9,1019.2,498.2,1022.8,524,1013.4z"/>
	
		<linearGradient id="SVGID_2_" gradientUnits="userSpaceOnUse" x1="359.0409" y1="938.0908" x2="527.7668" y2="938.0908" gradientTransform="matrix(1 0 0 1 0 -80)">
		<stop  offset="0" style="stop-color:#1E5177"/>
		<stop  offset="0.462" style="stop-color:#84A0B5"/>
		<stop  offset="1" style="stop-color:#FFFFFF"/>
	</linearGradient>
	<path class="st3" d="M527.5,706.7c-16.4-9.4-49.3-12.9-74-8.2c0-12.9,0-23.5,0-32.9c-22.3-14.1-74-14.1-94,4.7
		c-2.3,75.2,15.3,138.6,10.6,185.6c-4.7,47-1.2,133.9,1.2,145.7c9.4,16.4,37.6,27,69.3,5.9c1.2,4.7,2.3,9.4,3.5,12.9
		c1.2,11.7,1.2,20,2.3,22.3c10.6,17.6,42.3,29.4,76.4,0c0,0,1.2-29.4,3.5-74C528.7,927.6,527.5,771.3,527.5,706.7z"/>
	<path class="st0" d="M471.1,282.6c-31.7,0-55.2,29.4-51.7,65.8c1.2,11.7,5.9,22.3,11.7,31.7v64.6h54v-30.5c2.3,0,4.7,0,7,0
		c31.7,0,43.5-29.4,41.1-65.8C529.9,312,502.9,282.6,471.1,282.6z"/>
	<path class="st4" d="M453.5,257.9c28.2-7,71.7,8.2,82.2,36.4c7,22.3,3.5,32.9-8.2,49.3c-3.5,4.7-9.4,11.7-12.9,21.1
		c-4.7,14.1-8.2,12.9-16.4,2.3c-7-10.6-11.7-21.1-22.3-1.2c-10.6,18.8-27,30.5-35.2,27c-11.7-5.9-15.3-14.1-25.8-41.1
		C410,336.6,399.5,270.8,453.5,257.9z"/>
	
		<linearGradient id="SVGID_3_" gradientUnits="userSpaceOnUse" x1="318.6731" y1="692.4378" x2="539.4435" y2="692.4378" gradientTransform="matrix(0.9862 -0.1658 0.1658 0.9862 -86.9257 -51.9922)">
		<stop  offset="0" style="stop-color:#FFFFFF"/>
		<stop  offset="1" style="stop-color:#F7CE84"/>
	</linearGradient>
	<path class="st5" d="M534.6,619.8c8.2-32.9,24.7-95.2,18.8-114c-4.7-18.8-35.2-50.5-50.5-59.9c-1.2-1.2-3.5-2.3-4.7-3.5l0,0l0,0
		c-2.3-1.2-4.7-3.5-7-4.7c0,0-1.2,0-1.2-1.2c-1.2-1.2-2.3-1.2-2.3-2.3l0,0c-1.2-1.2-2.3-1.2-3.5-2.3l-1.2-1.2
		c-22.3,2.3-44.6-3.5-52.9-27c-2.3-1.2-3.5-1.2-5.9-2.3l0,0l0,0c-1.2,0-2.3-1.2-3.5-1.2l0,0l0,0c-9.4-3.5-17.6-5.9-23.5-4.7
		c-22.3,1.2-29.4,45.8-29.4,82.2c1.2,37.6,1.2,75.2-5.9,102.2c-5.9,28.2-8.2,101,2.3,111.6c10.6,9.4,45.8,38.8,95.2,37.6
		c48.2-1.2,96.3-15.3,91.6-30.5C546.3,684.4,526.4,652.7,534.6,619.8z"/>
	
		<linearGradient id="arm_2_" gradientUnits="userSpaceOnUse" x1="506.4468" y1="348.4679" x2="538.6337" y2="567.34" gradientTransform="matrix(0.7814 0.6241 -0.6241 0.7814 466.6293 -217.5538)">
		<stop  offset="0" style="stop-color:#FFFFFF"/>
		<stop  offset="1" style="stop-color:#F7CE84"/>
	</linearGradient>
	<path id="arm_1_" class="st6" d="M646.8,434.3c-9.5-12.6-32.8,6.8-48.6,9.1c-43.1,4.1-107.7,15.2-101.2,57.5
		c4.8,35.6,63.6,27.1,104.9,13.1c16.3-6.9,32.7-12.1,49-19C651,495,678.4,475.9,646.8,434.3z"/>
	<g id="finger_1_">
		<path class="st0" d="M689.2,392.8c6.9-8.4,7.9-13.1,10-22.6c-0.1-3.5,8.8-24.9,6.4-27.2c-1.2-2.3-0.6-23.5-20.2-8.9
			c-2.3,1.2-13.7,16.8-21.5,33.4c-3.8,7.7-4.3,14.1-2.9,19c6,5.7,14.7,8.8,23.2,10C686,395.7,687.7,394.4,689.2,392.8z"/>
		
			<linearGradient id="SVGID_4_" gradientUnits="userSpaceOnUse" x1="655.0095" y1="494.7524" x2="687.0096" y2="712.3543" gradientTransform="matrix(0.9931 -0.1175 0.1175 0.9931 -63.4394 -35.3714)">
			<stop  offset="0" style="stop-color:#FFFFFF"/>
			<stop  offset="1" style="stop-color:#F7CE84"/>
		</linearGradient>
		<path class="st7" d="M662,480.8c0,0,0-0.7,0-0.5C662,480.1,662,480.8,662,480.8c13.6-20.3,23.8-34.7,34.2-93.7
			c-1.2,0-1.3-3.5-1.3-4.7c-3.4,0.1-7.1-0.2-10.9-0.7c-8.6,4.3-20.2,0.4-23.2-10c-0.5-0.4-1-0.8-1.4-1.3c-1.1,2.4-5.6,9.5-6.9,8.4
			c-5.6,11.9-12.3,27.3-17.8,41.6c-6.5,4.9-12.8,12.5-19.1,21.3c-0.1,1.2-2,20.6,13.5,33c14.2,11.3,30.9,7.1,32.6,6.7
			c0-0.1,0.1-0.2,0.1-0.2C662,480.9,662,480.9,662,480.8z"/>
		
			<linearGradient id="SVGID_5_" gradientUnits="userSpaceOnUse" x1="678.5261" y1="488.1107" x2="710.5262" y2="705.7125" gradientTransform="matrix(0.9956 -9.367012e-02 9.367012e-02 0.9956 -50.6548 -47.1639)">
			<stop  offset="0" style="stop-color:#FFFFFF"/>
			<stop  offset="1" style="stop-color:#F7CE84"/>
		</linearGradient>
		<path class="st8" d="M683.3,385.3c-8.5-1.5-17.1-4.8-23-10.6C663,385.2,674.5,389.4,683.3,385.3z"/>
	</g>
</g>
</svg>
