<?xml version="1.0" encoding="utf-8"?>
<!-- Generator: Adobe Illustrator 21.0.2, SVG Export Plug-In . SVG Version: 6.00 Build 0)  -->
<svg version="1.1" id="Layer_1" xmlns="http://www.w3.org/2000/svg" xmlns:xlink="http://www.w3.org/1999/xlink" x="0px" y="0px"
	 viewBox="0 0 208.6 217.2" style="enable-background:new 0 0 208.6 217.2;" xml:space="preserve">
<style type="text/css">
	.st0{fill-rule:evenodd;clip-rule:evenodd;fill:#004794;}
	.st1{fill:url(#SVGID_1_);}
	.st2{opacity:0.6;fill:#FFFFFF;}
	.st3{fill:#CA4431;}
	.st4{fill:url(#SVGID_2_);}
	.st5{fill:url(#SVGID_3_);}
	.st6{fill:url(#SVGID_4_);}
	.st7{fill:url(#SVGID_5_);}
	.st8{fill:url(#SVGID_6_);}
	.st9{fill:url(#SVGID_7_);}
	.st10{fill:url(#SVGID_8_);}
	.st11{opacity:0.6;fill:#001355;}
	.st12{opacity:0.6;fill-rule:evenodd;clip-rule:evenodd;fill:#001355;}
	.st13{opacity:0.6;}
	.st14{fill-rule:evenodd;clip-rule:evenodd;fill:#001355;}
	.st15{fill:#001355;}
	.st16{fill-rule:evenodd;clip-rule:evenodd;fill:url(#SVGID_9_);}
	.st17{fill:url(#SVGID_10_);}
	.st18{fill:url(#SVGID_11_);}
	.st19{fill:url(#SVGID_12_);}
	.st20{fill:url(#SVGID_13_);}
	.st21{fill:none;stroke:url(#SVGID_14_);stroke-width:0.5;stroke-miterlimit:10;}
	.st22{fill:none;stroke:url(#SVGID_15_);stroke-width:0.5;stroke-miterlimit:10;}
	.st23{fill:url(#SVGID_16_);}
	.st24{fill:none;}
	.st25{fill:url(#SVGID_17_);}
	.st26{fill:url(#SVGID_18_);}
	.st27{fill:url(#SVGID_19_);}
	.st28{fill:url(#SVGID_20_);}
	.st29{fill:url(#SVGID_21_);}
	.st30{fill-rule:evenodd;clip-rule:evenodd;fill:#DD9E73;}
	.st31{fill:url(#SVGID_22_);}
	.st32{fill-rule:evenodd;clip-rule:evenodd;fill:#1E5177;}
	.st33{fill-rule:evenodd;clip-rule:evenodd;fill:url(#SVGID_23_);}
	.st34{fill-rule:evenodd;clip-rule:evenodd;fill:#594A42;}
	.st35{fill-rule:evenodd;clip-rule:evenodd;fill:url(#SVGID_24_);}
	.st36{fill:url(#SVGID_25_);}
</style>
<g>
	<path class="st0" d="M153.4,189.9c1.5-1.6,2.5-3.5,4.2-5c7.8-7,18.3-9.6,25.4-17.9c7.4-8.7,9.9-20.3,10.6-31.5
		c2.7-44.8,40.2-78.6-14.3-81.6s-53.2-11.5-75.8-25S62.2-15.5,38.9,9.4S-6.3,39.8,3.2,74.8s25,28.9,14.5,58.9s-33.5,32.6-1,60.1
		c24.6,20.8,65.6,26.9,96.7,21.6c10.6-1.8,19.2-8.6,27.2-15.3c4-3.3,8.9-6.3,12.5-9.9C153.2,190.1,153.3,190,153.4,189.9z"/>
	
		<linearGradient id="SVGID_1_" gradientUnits="userSpaceOnUse" x1="329.7434" y1="311.6167" x2="406.8606" y2="311.6167" gradientTransform="matrix(-0.9751 -1.2044 0 1 456.8427 234.8855)">
		<stop  offset="0" style="stop-color:#FFD297"/>
		<stop  offset="1" style="stop-color:#F89D89"/>
	</linearGradient>
	<path class="st1" d="M60.1,54.1v56.4c0,2.2,1.3,4.6,2.9,5.5l69.4,38.1c1.6,0.9,2.9-0.2,2.9-2.3V95.4c0-2.2-1.3-4.6-2.9-5.5L63,51.8
		C61.4,50.9,60.1,51.9,60.1,54.1z M62.8,55.1l69.8,38.3v57.1l-69.8-38.3V55.1z"/>
	<polygon class="st2" points="130.9,95 130.9,147.3 64.6,110.9 64.6,58.6 	"/>
	<g>
		<g>
			<g>
				<polygon class="st3" points="127.3,98.3 67.5,64.5 67.5,63.8 127.3,97.5 				"/>
			</g>
			<g>
				<polygon class="st3" points="127.3,102.4 67.5,68.6 67.5,67.9 127.3,101.7 				"/>
			</g>
			<g>
				<polygon class="st3" points="127.3,106.6 67.5,72.8 67.5,72.1 127.3,105.9 				"/>
			</g>
		</g>
		
			<linearGradient id="SVGID_2_" gradientUnits="userSpaceOnUse" x1="66.4643" y1="110.3459" x2="82.1873" y2="110.3459" gradientTransform="matrix(0.8644 0.4879 0 1 12.0441 -52.375)">
			<stop  offset="0" style="stop-color:#FFD297"/>
			<stop  offset="1" style="stop-color:#F89D89"/>
		</linearGradient>
		<polygon class="st4" points="83.1,107 69.5,99.4 69.5,81.4 83.1,89.1 		"/>
		
			<linearGradient id="SVGID_3_" gradientUnits="userSpaceOnUse" x1="90.6863" y1="110.3459" x2="106.4094" y2="110.3459" gradientTransform="matrix(0.8644 0.4879 0 1 12.0441 -52.375)">
			<stop  offset="0" style="stop-color:#FFD297"/>
			<stop  offset="1" style="stop-color:#F89D89"/>
		</linearGradient>
		<polygon class="st5" points="104,118.8 90.4,111.2 90.4,93.3 104,100.9 		"/>
		
			<linearGradient id="SVGID_4_" gradientUnits="userSpaceOnUse" x1="114.271" y1="110.3459" x2="129.994" y2="110.3459" gradientTransform="matrix(0.8644 0.4879 0 1 12.0441 -52.375)">
			<stop  offset="0" style="stop-color:#FFD297"/>
			<stop  offset="1" style="stop-color:#F89D89"/>
		</linearGradient>
		<polygon class="st6" points="124.4,130.3 110.8,122.7 110.8,104.8 124.4,112.4 		"/>
		<g>
			<g>
				<polygon class="st3" points="85.2,113.4 69.4,104.5 69.4,104.3 85.2,113.2 				"/>
			</g>
			<g>
				<polygon class="st3" points="82.1,113.7 69.4,106.6 69.4,106.4 82.1,113.5 				"/>
			</g>
			<g>
				<polygon class="st3" points="78.9,114 69.4,108.7 69.4,108.5 78.9,113.8 				"/>
			</g>
			<g>
				<polygon class="st3" points="75,113.9 69.4,110.8 69.4,110.6 75,113.7 				"/>
			</g>
		</g>
		<g>
			<g>
				<polygon class="st3" points="105.5,125 89.7,116.1 89.7,115.9 105.5,124.8 				"/>
			</g>
			<g>
				<polygon class="st3" points="102.3,125.3 89.7,118.1 89.7,117.9 102.3,125.1 				"/>
			</g>
			<g>
				<polygon class="st3" points="99.2,125.6 89.7,120.2 89.7,120 99.2,125.4 				"/>
			</g>
			<g>
				<polygon class="st3" points="95.3,125.5 89.7,122.3 89.7,122.1 95.3,125.3 				"/>
			</g>
		</g>
		<g>
			<g>
				<polygon class="st3" points="126.1,136.6 110.3,127.7 110.3,127.5 126.1,136.4 				"/>
			</g>
			<g>
				<polygon class="st3" points="123,136.9 110.3,129.8 110.3,129.5 123,136.7 				"/>
			</g>
			<g>
				<polygon class="st3" points="119.8,137.2 110.3,131.9 110.3,131.6 119.8,137 				"/>
			</g>
			<g>
				<polygon class="st3" points="115.9,137.1 110.3,134 110.3,133.8 115.9,136.9 				"/>
			</g>
		</g>
	</g>
	<g>
		
			<linearGradient id="SVGID_5_" gradientUnits="userSpaceOnUse" x1="397.7985" y1="247.8386" x2="410.8073" y2="247.8386" gradientTransform="matrix(-0.5425 -0.7632 -0.3773 0.7979 373.5442 141.8492)">
			<stop  offset="0" style="stop-color:#FFD297"/>
			<stop  offset="1" style="stop-color:#F89D89"/>
		</linearGradient>
		<path class="st7" d="M64.4,30.9c0-0.5-0.1-1-0.2-1.4l0.4-0.7c-0.2-0.7-0.5-1.4-0.8-2L63.1,27c-0.2-0.3-0.4-0.6-0.6-0.8l0-1.1
			c-0.4-0.4-0.9-0.8-1.4-1l-0.4,0.9c-0.1,0-0.2-0.1-0.3-0.1c-0.1,0-0.2,0-0.3,0l-0.4-1c-0.5,0.1-0.9,0.2-1.3,0.5l0.1,1.1
			c-0.2,0.2-0.4,0.4-0.5,0.6l-0.7-0.4c-0.3,0.5-0.5,1.1-0.7,1.8l0.5,0.9c-0.1,0.4-0.1,0.9-0.1,1.4l-0.6,0.4c0,0.1,0,0.1,0,0.2
			c0,0.7,0.1,1.3,0.2,2l0.7,0.2c0.1,0.6,0.3,1.1,0.5,1.6l-0.2,1c0.3,0.6,0.6,1.1,1,1.5l0.5-0.5c0.3,0.4,0.7,0.7,1.1,0.9l0.2,1.1
			c0.2,0.1,0.4,0.1,0.6,0.2c0.2,0,0.4,0,0.6,0l0.1-1c0.4-0.1,0.7-0.2,1-0.5l0.6,0.7c0.3-0.3,0.6-0.7,0.9-1.2l-0.3-1.1
			c0.2-0.4,0.3-0.9,0.4-1.4l0.6,0C65,33,65,32.4,65,31.7c0-0.1,0-0.1,0-0.2L64.4,30.9z M63.3,31.4c0.1,2.4-1,4.1-2.4,3.9
			c-1.4-0.2-2.6-2.3-2.7-4.7c-0.1-2.4,1-4.1,2.4-3.9C62,26.9,63.2,29.1,63.3,31.4z"/>
		<g>
			
				<linearGradient id="SVGID_6_" gradientUnits="userSpaceOnUse" x1="384.4853" y1="250.5306" x2="397.4941" y2="250.5306" gradientTransform="matrix(-0.5425 -0.7632 -0.3773 0.7979 373.5442 141.8492)">
				<stop  offset="0" style="stop-color:#FFD297"/>
				<stop  offset="1" style="stop-color:#F89D89"/>
			</linearGradient>
			<path class="st8" d="M70.6,43.2c0-0.5-0.1-1-0.2-1.4l0.4-0.7c-0.2-0.7-0.5-1.4-0.8-2l-0.7,0.2c-0.2-0.3-0.4-0.6-0.6-0.8l0-1.1
				c-0.4-0.4-0.9-0.8-1.4-1L67,37.2c-0.1,0-0.2-0.1-0.3-0.1c-0.1,0-0.2,0-0.3,0l-0.4-1c-0.5,0.1-0.9,0.2-1.3,0.5l0.1,1.1
				c-0.2,0.2-0.4,0.4-0.5,0.6L63.6,38c-0.3,0.5-0.5,1.1-0.7,1.8l0.5,0.9c-0.1,0.4-0.1,0.9-0.1,1.4l-0.6,0.4c0,0.1,0,0.1,0,0.2
				c0,0.7,0.1,1.3,0.2,2l0.7,0.2c0.1,0.6,0.3,1.1,0.5,1.6l-0.2,1c0.3,0.6,0.6,1.1,1,1.5l0.5-0.5c0.3,0.4,0.7,0.7,1.1,0.9l0.2,1.1
				c0.2,0.1,0.4,0.1,0.6,0.2c0.2,0,0.4,0,0.6,0l0.1-1c0.4-0.1,0.7-0.2,1-0.5l0.6,0.7c0.3-0.3,0.6-0.7,0.9-1.2l-0.3-1.1
				c0.2-0.4,0.3-0.9,0.4-1.4l0.6,0c0.1-0.6,0.1-1.2,0.1-1.9c0-0.1,0-0.1,0-0.2L70.6,43.2z M69.5,43.7c0.1,2.4-1,4.1-2.4,3.9
				c-1.4-0.2-2.6-2.3-2.7-4.7c-0.1-2.4,1-4.1,2.4-3.9C68.2,39.3,69.4,41.4,69.5,43.7z"/>
			
				<linearGradient id="SVGID_7_" gradientUnits="userSpaceOnUse" x1="398.417" y1="261.4072" x2="411.4258" y2="261.4072" gradientTransform="matrix(-0.5425 -0.7632 -0.3773 0.7979 373.5442 141.8492)">
				<stop  offset="0" style="stop-color:#FFD297"/>
				<stop  offset="1" style="stop-color:#F89D89"/>
			</linearGradient>
			<path class="st9" d="M58.9,41.3c0-0.5-0.1-1-0.2-1.4l0.4-0.7c-0.2-0.7-0.5-1.4-0.8-2l-0.7,0.2c-0.2-0.3-0.4-0.6-0.6-0.8l0-1.1
				c-0.4-0.4-0.9-0.8-1.4-1l-0.4,0.9c-0.1,0-0.2-0.1-0.3-0.1c-0.1,0-0.2,0-0.3,0l-0.4-1c-0.5,0.1-0.9,0.2-1.3,0.5l0.1,1.1
				c-0.2,0.2-0.4,0.4-0.5,0.6l-0.7-0.4c-0.3,0.5-0.5,1.1-0.7,1.8l0.5,0.9c-0.1,0.4-0.1,0.9-0.1,1.4L51,40.5c0,0.1,0,0.1,0,0.2
				c0,0.7,0.1,1.3,0.2,2l0.7,0.2c0.1,0.6,0.3,1.1,0.5,1.6l-0.2,1c0.3,0.6,0.6,1.1,1,1.5l0.5-0.5c0.3,0.4,0.7,0.7,1.1,0.9l0.2,1.1
				c0.2,0.1,0.4,0.1,0.6,0.2c0.2,0,0.4,0,0.6,0l0.1-1c0.4-0.1,0.7-0.2,1-0.5l0.6,0.7c0.3-0.3,0.6-0.7,0.9-1.2l-0.3-1.1
				c0.2-0.4,0.3-0.9,0.4-1.4l0.6,0c0.1-0.6,0.1-1.2,0.1-1.9c0-0.1,0-0.1,0-0.2L58.9,41.3z M57.8,41.8c0.1,2.4-1,4.1-2.4,3.9
				c-1.4-0.2-2.6-2.3-2.7-4.7c-0.1-2.4,1-4.1,2.4-3.9C56.5,37.3,57.8,39.4,57.8,41.8z"/>
		</g>
	</g>
	
		<linearGradient id="SVGID_8_" gradientUnits="userSpaceOnUse" x1="300.2044" y1="202.7314" x2="315.0776" y2="202.7314" gradientTransform="matrix(-0.6799 -0.6048 -0.3091 0.8641 416.1518 97.4855)">
		<stop  offset="0" style="stop-color:#FFD297"/>
		<stop  offset="1" style="stop-color:#F89D89"/>
	</linearGradient>
	<path class="st10" d="M148.8,85.5c-0.1-0.5-0.3-1-0.5-1.5l0.4-0.9c-0.4-0.8-0.8-1.4-1.3-2l-0.8,0.4c-0.3-0.3-0.5-0.5-0.8-0.7
		l-0.1-1.2c-0.6-0.4-1.2-0.6-1.8-0.7l-0.3,1.1c-0.1,0-0.3,0-0.4,0c-0.1,0-0.3,0-0.4,0.1l-0.7-1c-0.6,0.2-1.1,0.5-1.5,1l0.3,1.2
		c-0.2,0.2-0.4,0.5-0.6,0.8l-0.9-0.3c-0.3,0.6-0.5,1.4-0.6,2.2l0.7,0.8c0,0.5,0,1,0,1.5l-0.7,0.6c0,0.1,0,0.1,0,0.2
		c0.1,0.7,0.3,1.5,0.6,2.1l0.8,0.1c0.2,0.6,0.5,1.1,0.9,1.6l-0.2,1.2c0.4,0.5,0.9,1,1.4,1.4l0.6-0.7c0.5,0.3,1,0.5,1.5,0.6l0.4,1.2
		c0.3,0,0.5,0,0.8,0c0.3,0,0.5-0.1,0.7-0.1l0-1.2c0.5-0.2,0.9-0.5,1.2-0.8l0.8,0.6c0.4-0.4,0.7-1,0.9-1.6l-0.5-1.1
		c0.2-0.5,0.3-1.1,0.3-1.7l0.8-0.2c0-0.7,0-1.4-0.2-2.2c0-0.1,0-0.1,0-0.2L148.8,85.5z M147.6,86.3c0.4,2.6-0.7,4.8-2.5,4.9
		c-1.8,0.1-3.6-1.9-4-4.4c-0.4-2.6,0.7-4.8,2.5-4.9C145.3,81.7,147.1,83.7,147.6,86.3z"/>
	<path class="st11" d="M139.2,171.3c-0.5,1.3-20.8-8.3-45.2-21.5c-24.5-13.2-43.9-25-43.4-26.3c0.5-1.3,20.8,8.3,45.2,21.5
		S139.7,169.9,139.2,171.3z"/>
	<ellipse class="st12" cx="65" cy="163.5" rx="18.4" ry="5.4"/>
	<path class="st11" d="M90,183.6c0-0.1,0-0.2,0-0.3L91,183c0-0.1,0-0.1,0-0.3c-0.2-0.4-0.5-0.8-1-1.1l-1.3,0
		c-0.1-0.1-0.2-0.2-0.4-0.2c-0.1-0.1-0.3-0.1-0.4-0.2l0.3-0.6c-0.7-0.3-1.5-0.5-2.3-0.7l-0.9,0.4c-0.4-0.1-0.8-0.1-1.3-0.2l-0.6-0.5
		c-0.8,0-1.7,0-2.5,0.1l-0.1,0.6c-0.5,0.1-1,0.2-1.4,0.3l-1.2-0.3c0,0-0.1,0-0.1,0.1c-0.6,0.2-1.1,0.4-1.5,0.7l0.7,0.5
		c-0.3,0.2-0.6,0.5-0.7,0.8l-1.2,0.1c-0.1,0.2-0.1,0.5-0.1,0.7c0,0.2,0,0.4,0,0.6l1.2,0.2c0.1,0.2,0.3,0.5,0.5,0.8l0,0l-0.5,0.3
		l0,0.3c0.2,0.1,0.4,0.3,0.7,0.4s0.5,0.3,0.8,0.4l1.1-0.2c0.6,0.2,1.2,0.4,1.9,0.5l0.1,0.6c0.7,0.1,1.5,0.2,2.3,0.2l0.5-0.5
		c0.6,0,1.3,0,1.9-0.1l0.9,0.4c0.7-0.1,1.3-0.3,1.9-0.5c0,0,0.1,0,0.1-0.1l0-0.3l-0.2-0.3c0.3-0.1,0.6-0.3,0.8-0.5l1.2,0.1
		c0.4-0.3,0.6-0.7,0.7-1.1l0-0.3L90,183.6z M86.3,185c-2,0.7-5,0.5-6.8-0.5c-0.7-0.4-1.1-0.9-1.1-1.4c0.1,0.4,0.4,0.9,1.1,1.3
		C81.2,185.4,84.3,185.6,86.3,185c1-0.4,1.5-0.9,1.6-1.5c-0.1-0.4-0.4-0.9-1.1-1.3c0.7,0.4,1.1,0.8,1.2,1.3
		C87.9,184.1,87.3,184.6,86.3,185z M78.4,183.1c0-0.1,0.1-0.2,0.1-0.3C78.5,182.9,78.4,183,78.4,183.1
		C78.4,183.1,78.4,183.1,78.4,183.1z"/>
	<g class="st13">
		<polygon class="st14" points="34.3,153.7 23.8,150.1 38.1,144.6 48.7,148.2 		"/>
		<polygon class="st15" points="34.3,153.7 23.8,150.1 23.8,150.5 34.3,154.1 48.7,148.6 48.7,148.2 		"/>
	</g>
	<g>
		
			<linearGradient id="SVGID_9_" gradientUnits="userSpaceOnUse" x1="48.0481" y1="144.3044" x2="69.2489" y2="144.3044" gradientTransform="matrix(0.9375 0.1806 -1.2771 0.2808 165.5504 97.4611)">
			<stop  offset="0" style="stop-color:#FFD297"/>
			<stop  offset="1" style="stop-color:#F89D89"/>
		</linearGradient>
		<polygon class="st16" points="34.3,153.1 23.8,149.6 38.1,144.1 48.7,147.6 		"/>
		<linearGradient id="SVGID_10_" gradientUnits="userSpaceOnUse" x1="37.9637" y1="152.461" x2="37.7712" y2="152.0519">
			<stop  offset="0" style="stop-color:#FFD297"/>
			<stop  offset="1" style="stop-color:#F89D89"/>
		</linearGradient>
		<polygon class="st17" points="34.3,153.1 23.8,149.6 23.8,150 34.3,153.5 48.7,148 48.7,147.6 		"/>
	</g>
	<g>
		<g>
			<linearGradient id="SVGID_11_" gradientUnits="userSpaceOnUse" x1="107.788" y1="173.4464" x2="126.4745" y2="173.4464">
				<stop  offset="0" style="stop-color:#FFD297"/>
				<stop  offset="1" style="stop-color:#F89D89"/>
			</linearGradient>
			<polygon class="st18" points="126,178.8 107.8,169 108.3,168.1 126.5,177.9 			"/>
		</g>
		<g>
			<linearGradient id="SVGID_12_" gradientUnits="userSpaceOnUse" x1="105.8085" y1="175.2047" x2="119.4452" y2="175.2047">
				<stop  offset="0" style="stop-color:#FFD297"/>
				<stop  offset="1" style="stop-color:#F89D89"/>
			</linearGradient>
			<polygon class="st19" points="119,179.2 105.8,172.1 106.3,171.2 119.4,178.3 			"/>
		</g>
		<g>
			<linearGradient id="SVGID_13_" gradientUnits="userSpaceOnUse" x1="103.3959" y1="177.1998" x2="110.7787" y2="177.1998">
				<stop  offset="0" style="stop-color:#FFD297"/>
				<stop  offset="1" style="stop-color:#F89D89"/>
			</linearGradient>
			<polygon class="st20" points="110.3,179.5 103.4,175.8 103.9,174.9 110.8,178.6 			"/>
		</g>
	</g>
	<linearGradient id="SVGID_14_" gradientUnits="userSpaceOnUse" x1="32.6233" y1="177.5099" x2="52.346" y2="177.5099">
		<stop  offset="0" style="stop-color:#FFD297"/>
		<stop  offset="1" style="stop-color:#F89D89"/>
	</linearGradient>
	<line class="st21" x1="32.8" y1="170.9" x2="52.2" y2="184.1"/>
	<linearGradient id="SVGID_15_" gradientUnits="userSpaceOnUse" x1="34.9392" y1="176.0661" x2="54.6618" y2="176.0661">
		<stop  offset="0" style="stop-color:#FFD297"/>
		<stop  offset="1" style="stop-color:#F89D89"/>
	</linearGradient>
	<line class="st22" x1="35.1" y1="169.5" x2="54.5" y2="182.7"/>
	<g>
		
			<linearGradient id="SVGID_16_" gradientUnits="userSpaceOnUse" x1="325.5879" y1="326.8937" x2="345.7892" y2="326.8937" gradientTransform="matrix(-5.430897e-02 -0.3614 -1.0759 -1.165945e-02 453.0362 307.4898)">
			<stop  offset="0" style="stop-color:#FFD297"/>
			<stop  offset="1" style="stop-color:#F89D89"/>
		</linearGradient>
		<path class="st23" d="M88.2,184.7c0.4-0.2,0.7-0.3,0.9-0.5l1.2,0.1c0.4-0.3,0.6-0.7,0.7-1.1l-1.1-0.4c0-0.2,0-0.4-0.1-0.6l1-0.3
			c-0.2-0.4-0.5-0.8-1-1.1l-1.3,0c-0.1-0.1-0.2-0.2-0.4-0.2c-0.1-0.1-0.3-0.1-0.4-0.2l0.3-0.6c-0.7-0.3-1.5-0.5-2.3-0.7l-0.9,0.4
			c-0.4-0.1-0.8-0.1-1.3-0.2l-0.6-0.5c-0.8,0-1.7,0-2.5,0.1l-0.1,0.6c-0.5,0.1-1,0.2-1.4,0.3l-1.2-0.3c0,0-0.1,0-0.1,0.1
			c-0.6,0.2-1.1,0.4-1.5,0.7l0.7,0.5c-0.3,0.2-0.6,0.5-0.7,0.8l-1.2,0.1c-0.1,0.3-0.1,0.7,0,1l1.2,0.2c0.1,0.3,0.4,0.6,0.7,0.9
			l-0.7,0.4c0.2,0.1,0.4,0.3,0.7,0.4c0.2,0.1,0.5,0.3,0.8,0.4l1.1-0.2c0.6,0.2,1.2,0.4,1.9,0.5l0.1,0.6c0.7,0.1,1.5,0.2,2.3,0.2
			l0.5-0.5c0.6,0,1.3,0,1.9-0.1l0.9,0.4c0.7-0.1,1.3-0.3,1.9-0.5c0,0,0.1,0,0.1-0.1L88.2,184.7z M86.3,184.1c-2,0.7-5,0.5-6.8-0.5
			c-1.7-1-1.5-2.3,0.5-3.1c2-0.7,5-0.5,6.8,0.5C88.5,182.1,88.3,183.4,86.3,184.1z"/>
		<g>
			<path class="st24" d="M86.8,181.4c-1.7-1-4.8-1.2-6.8-0.5c-1,0.3-1.5,0.8-1.6,1.4c0.1,0.4,0.4,0.9,1.1,1.3c1.7,1,4.8,1.2,6.8,0.5
				c1-0.3,1.5-0.8,1.6-1.4C87.8,182.2,87.5,181.8,86.8,181.4z"/>
			
				<linearGradient id="SVGID_17_" gradientUnits="userSpaceOnUse" x1="324.636" y1="326.857" x2="344.9868" y2="326.857" gradientTransform="matrix(-5.430897e-02 -0.3614 -1.0759 -1.165945e-02 453.0362 307.4898)">
				<stop  offset="0" style="stop-color:#F89D89"/>
				<stop  offset="1" style="stop-color:#FFD297"/>
			</linearGradient>
			<path class="st25" d="M86.8,181c-1.7-1-4.8-1.2-6.8-0.5c-1.2,0.4-1.8,1.2-1.7,1.9c0.1-0.5,0.7-1.1,1.7-1.5c2-0.7,5-0.5,6.8,0.5
				c0.7,0.4,1.1,0.8,1.2,1.3C88.1,182.1,87.7,181.5,86.8,181z"/>
			<g>
				<linearGradient id="SVGID_18_" gradientUnits="userSpaceOnUse" x1="36.18" y1="185.2052" x2="216.0336" y2="185.2052">
					<stop  offset="0" style="stop-color:#F89D89"/>
					<stop  offset="1" style="stop-color:#FFD297"/>
				</linearGradient>
				<path class="st26" d="M86.5,185.7l-0.9-0.4c-0.6,0.1-1.2,0.1-1.9,0.1l-0.5,0.5c-0.8,0-1.5-0.1-2.3-0.2l-0.1-0.6
					c-0.7-0.1-1.3-0.3-1.9-0.5l-1.1,0.2c-0.3-0.1-0.5-0.2-0.8-0.4c-0.1-0.1-0.5-0.3-0.7-0.3l0,0.3c0.2,0.1,0.4,0.3,0.7,0.4
					s0.5,0.3,0.8,0.4L79,185c0.6,0.2,1.2,0.4,1.9,0.5l0.1,0.6c0.7,0.1,1.5,0.2,2.3,0.2l0.5-0.5c0.6,0,1.3,0,1.9-0.1l0.9,0.4
					c0.7-0.1,1.3-0.3,1.9-0.5c0,0,0.1,0,0.1-0.1l0-0.3C88,185.5,87.2,185.6,86.5,185.7z"/>
				<linearGradient id="SVGID_19_" gradientUnits="userSpaceOnUse" x1="68.4378" y1="182.9693" x2="98.4097" y2="182.9693">
					<stop  offset="0" style="stop-color:#F89D89"/>
					<stop  offset="1" style="stop-color:#FFD297"/>
				</linearGradient>
				<path class="st27" d="M76.4,182.6l-1.2-0.2c0-0.1,0-0.2,0-0.3c0,0.2,0,0.4,0,0.7l1.2,0.2c0.1,0.2,0.3,0.5,0.5,0.8l0.2-0.1
					C76.8,183.3,76.5,182.9,76.4,182.6z"/>
				<linearGradient id="SVGID_20_" gradientUnits="userSpaceOnUse" x1="86.627" y1="182.1749" x2="101.58" y2="182.1749">
					<stop  offset="0" style="stop-color:#F89D89"/>
					<stop  offset="1" style="stop-color:#FFD297"/>
				</linearGradient>
				<path class="st28" d="M91,181.9l-1,0.3c0,0.1,0,0.2,0.1,0.3l0.9-0.3C91,182.1,91,182,91,181.9z"/>
				<linearGradient id="SVGID_21_" gradientUnits="userSpaceOnUse" x1="78.5773" y1="184.0522" x2="121.5753" y2="184.0522">
					<stop  offset="0" style="stop-color:#F89D89"/>
					<stop  offset="1" style="stop-color:#FFD297"/>
				</linearGradient>
				<path class="st29" d="M90.4,184.1l-1.2-0.1c-0.3,0.2-0.6,0.5-0.9,0.6l0.2,0.3c0.3-0.1,0.6-0.3,0.8-0.5l1.2,0.1
					c0.4-0.3,0.6-0.7,0.7-1.1l0-0.3C91,183.4,90.6,183.9,90.4,184.1z"/>
			</g>
		</g>
	</g>
	<g>
		<g>
			<path class="st30" d="M69.1,95.6c0.5-0.7,0.6-1.2,0.7-1.9c0-0.3,0.6-2.2,0.5-2.3c-0.1-0.2-0.2-1.8-1.8-0.7
				c-0.2,0.1-1.1,1.5-1.7,3C65.9,96,68.2,96.7,69.1,95.6z"/>
			
				<linearGradient id="SVGID_22_" gradientUnits="userSpaceOnUse" x1="62.3096" y1="96.5127" x2="65.0333" y2="115.0341" gradientTransform="matrix(0.9873 -0.1589 0.1589 0.9873 -15.5913 11.7758)">
				<stop  offset="0" style="stop-color:#FFFFFF"/>
				<stop  offset="1" style="stop-color:#F7CE84"/>
			</linearGradient>
			<path class="st31" d="M67.2,104.5c0,0,0-0.1,0.1-0.1c1-1.7,1.8-2.9,2.5-8c-0.1,0-0.1-0.3-0.1-0.4c-1,0.1-2.3-0.1-3.1-0.9
				c-0.1,0.2-0.5,0.8-0.5,0.8c-0.5,1.1-0.9,2.3-1.3,3.6c-1.3,1.1-2.4,3.6-3.8,5.4c-2.2,3-5.2,7.6-2.1,9.7c2.6,1.7,5.3-2.4,6.8-5.9
				C66,107.3,66.7,105.8,67.2,104.5C67.2,104.5,67.2,104.5,67.2,104.5C67.2,104.5,67.2,104.5,67.2,104.5z"/>
		</g>
		<path class="st32" d="M63.7,157.7c0.9-0.3,3.3-0.9,4.1-0.2c0.8,0.7,0.6,2.8-1.8,3.8c-2.4,1-4.4,0.6-4.4,1.2c0,0.6-1.8,1.1-3.3,0.7
			c-1.5-0.4-1.6-2.7-0.7-3.9C58.4,158.2,61.5,158.6,63.7,157.7z"/>
		<path class="st32" d="M70,161.3c0.9-0.3,3.3-0.9,4.1-0.2c0.8,0.7,0.6,2.8-1.8,3.8c-2.4,1-4.4,0.6-4.4,1.2c0,0.6-1.8,1.1-3.3,0.7
			c-1.5-0.4-1.6-2.7-0.7-3.9C64.8,161.8,67.8,162.1,70,161.3z"/>
		<linearGradient id="SVGID_23_" gradientUnits="userSpaceOnUse" x1="55.959" y1="147.9966" x2="70.3202" y2="147.9966">
			<stop  offset="0" style="stop-color:#1E5177"/>
			<stop  offset="0.462" style="stop-color:#84A0B5"/>
			<stop  offset="1" style="stop-color:#FFFFFF"/>
		</linearGradient>
		<path class="st33" d="M70.3,135.2c-1.4-0.8-4.2-1.1-6.3-0.7c0-1.1,0-2,0-2.8c-1.9-1.2-6.3-1.2-8,0.4c-0.2,6.4,1.3,11.8,0.9,15.8
			c-0.4,4-0.1,11.4,0.1,12.4c0.8,1.4,3.2,2.3,5.9,0.5c0.1,0.4,0.2,0.8,0.3,1.1c0.1,1,0.1,1.7,0.2,1.9c0.9,1.5,3.6,2.5,6.5,0
			c0,0,0.1-2.5,0.3-6.3C70.4,154,70.3,140.7,70.3,135.2z"/>
		<path class="st30" d="M65.5,99.1c-2.7,0-4.7,2.5-4.4,5.6c0.1,1,0.5,1.9,1,2.7l0,5.5l4.6,0l0-2.6c0.2,0,0.4,0,0.6,0
			c2.7,0,3.7-2.5,3.5-5.6C70.5,101.6,68.2,99.1,65.5,99.1z"/>
		<path class="st34" d="M64,97c2.4-0.6,6.1,0.7,7,3.1c0.6,1.9,0.3,2.8-0.7,4.2c-0.3,0.4-0.8,1-1.1,1.8c-0.4,1.2-0.7,1.1-1.4,0.2
			c-0.6-0.9-1-1.8-1.9-0.1c-0.9,1.6-2.3,2.6-3,2.3c-1-0.5-1.3-1.2-2.2-3.5C60.3,103.7,59.4,98.1,64,97z"/>
		
			<linearGradient id="SVGID_24_" gradientUnits="userSpaceOnUse" x1="50.687" y1="129.0705" x2="69.478" y2="129.0705" gradientTransform="matrix(0.9862 -0.1658 0.1658 0.9862 -16.8459 5.48)">
			<stop  offset="0" style="stop-color:#FFFFFF"/>
			<stop  offset="1" style="stop-color:#F7CE84"/>
		</linearGradient>
		<path class="st35" d="M70.9,127.8c0.7-2.8,2.1-8.1,1.6-9.7c-0.4-1.6-3-4.3-4.3-5.1c-0.1-0.1-0.3-0.2-0.4-0.3h0c0,0,0,0,0,0
			c-0.2-0.1-0.4-0.3-0.6-0.4c0,0-0.1,0-0.1-0.1c-0.1-0.1-0.2-0.1-0.2-0.2l0,0c-0.1-0.1-0.2-0.1-0.3-0.2c0,0-0.1-0.1-0.1-0.1
			c-1.9,0.2-3.8-0.3-4.5-2.3c-0.2-0.1-0.3-0.1-0.5-0.2c0,0,0,0,0,0l0,0c-0.1,0-0.2-0.1-0.3-0.1c0,0,0,0,0,0l0,0
			c-0.8-0.3-1.5-0.5-2-0.4c-1.9,0.1-2.5,3.9-2.5,7c0.1,3.2,0.1,6.4-0.5,8.7c-0.5,2.4-0.7,8.6,0.2,9.5c0.9,0.8,3.9,3.3,8.1,3.2
			c4.1-0.1,8.2-1.3,7.8-2.6C71.9,133.3,70.2,130.6,70.9,127.8z"/>
		<g>
			<path class="st30" d="M82.1,102.6c0.6-0.7,0.7-1.1,0.9-1.9c0-0.3,0.8-2.1,0.6-2.3c-0.1-0.2,0-2-1.7-0.8c-0.2,0.1-1.2,1.4-1.9,2.8
				C78.8,102.7,81.1,103.7,82.1,102.6z"/>
			
				<linearGradient id="SVGID_25_" gradientUnits="userSpaceOnUse" x1="76.8191" y1="89.6538" x2="79.5428" y2="108.1751" gradientTransform="matrix(0.9956 -9.367012e-02 9.367012e-02 0.9956 -10.7229 21.5727)">
				<stop  offset="0" style="stop-color:#FFFFFF"/>
				<stop  offset="1" style="stop-color:#F7CE84"/>
			</linearGradient>
			<path class="st36" d="M79.6,111.3c0,0,0-0.1,0.1-0.1c1.1-1.6,2-2.8,3-7.8c-0.1,0-0.1-0.3-0.1-0.4c-1,0-2.3-0.3-3-1.1
				c-0.1,0.2-0.5,0.8-0.6,0.7c-0.5,1-1.1,2.3-1.6,3.5c-1.4,1-2.7,3.4-4.1,5.2c-2.4,2.8-5.7,7.3-2.8,9.5c2.4,1.9,5.5-2.1,7.2-5.4
				C78.3,114,79,112.7,79.6,111.3C79.6,111.3,79.6,111.3,79.6,111.3C79.6,111.3,79.6,111.3,79.6,111.3z"/>
		</g>
	</g>
</g>
</svg>
