<?xml version="1.0" encoding="utf-8"?>
<!-- Generator: Adobe Illustrator 21.0.2, SVG Export Plug-In . SVG Version: 6.00 Build 0)  -->
<svg version="1.1" id="Layer_1" xmlns="http://www.w3.org/2000/svg" xmlns:xlink="http://www.w3.org/1999/xlink" x="0px" y="0px"
	 viewBox="0 0 267.8 285.3" style="enable-background:new 0 0 267.8 285.3;" xml:space="preserve">
<style type="text/css">
	.st0{fill:#004794;}
	.st1{opacity:0.6;fill:#001355;enable-background:new    ;}
	.st2{fill:#1E5177;}
	.st3{fill:#FFD4B8;}
	.st4{fill:url(#SVGID_1_);}
	.st5{fill:url(#SVGID_2_);}
	.st6{fill:#BE9B53;}
	.st7{fill:#594A42;}
	.st8{fill:url(#SVGID_3_);}
	.st9{fill:#F79B6A;}
	.st10{fill:url(#SVGID_4_);}
	.st11{fill:url(#SVGID_5_);}
	.st12{fill:url(#SVGID_6_);}
	.st13{fill:url(#SVGID_7_);}
	.st14{fill:url(#SVGID_8_);}
	.st15{fill:#FF6600;}
	.st16{fill:#DD6310;}
	.st17{fill:url(#SVGID_9_);}
	.st18{fill:url(#SVGID_10_);}
	.st19{fill:url(#SVGID_11_);}
	.st20{opacity:0.6;fill:#FFFFFF;}
	.st21{font-family:'Arial-BoldMT';}
	.st22{font-size:5.336px;}
	.st23{fill:#DD9E73;}
	.st24{fill:url(#SVGID_12_);}
	.st25{fill:url(#SVGID_13_);}
	.st26{fill:url(#SVGID_14_);}
	.st27{fill:url(#SVGID_15_);}
</style>
<g>
	<path class="st0" d="M199.4,236.8c5.7-5.7,12.4-10.4,20.2-12.4c9.4-2.6,18.5-8.4,25.3-16.5c10-11.8,21.2-21.7,17.8-36.6
		c-12.7-55.2,31.2-76.4-21.9-104c-65.7-34.2-65.6-24.8-96.3-43.1c-7.3-4.3-14.8-8.4-22.9-10.9c-18.2-5.6-40.3,0.3-55.9,10.6
		C57.8,29,49.9,34.6,42.2,40.1c-7.6,5.4-15,11.9-18.5,20.9c-3.9,10.2-7.4,22.8-4.6,33.4c3.7,13.9,11.2,27.3,12.3,41.8
		c0.8,11.1-3.8,22.5-7.4,32.9c-14.2,40.7-45.4,44.2-1.3,81.6c33.4,28.2,89,36.5,131.1,29.3c8.8-1.5,14.8-8.8,20.9-15
		C183.3,255.8,190.6,245.5,199.4,236.8z"/>
	<ellipse class="st1" cx="167.5" cy="198.4" rx="33.5" ry="13.6"/>
	<ellipse class="st1" cx="83.1" cy="228.5" rx="38.4" ry="14.5"/>
	<g>
		<g>
			<path class="st2" d="M161.1,190.8c-0.1-0.3-0.2-0.6-0.2-0.9c-0.8-0.7-2.7-0.5-4.1-0.7c-0.6-0.1-1.1,0.2-1.6,0c0,0,0.1,0,0,0
				c-0.8-0.3-2.3-1-3.2-1.6c-0.1,0.1-0.3,0.9-0.4,1c-1.1,1.6-4,4.6-3.9,4.7c-2.3,0.8-3,1.5-3.3,2.5c-0.2,0.5-0.2,1.1-0.4,1.7
				c1.3,0.7,2.4,1.5,3.6,2.1c2.3-0.3,5.6-1.9,8.6-3.8c1.9-1.2,3.6-2.5,4.9-3.7C161.2,191.7,161.1,191.3,161.1,190.8z"/>
			<path class="st2" d="M183.3,198.5c-0.1-0.4-0.3-0.8-0.7-1.6c-0.9,0.3-1.4,0.1-2.5,0.3c-1.3,0.3-3.5,0.2-4.8,0
				c-1.1-0.2-1.6-0.3-2.4-0.8c0-0.8-0.3,1-0.4,1.2c-0.7,1.8-1.4,4.4-2.6,6.3c-0.4,0.7-0.9,1.2-1.5,1.7c0,0-0.1,0-0.1,0.1
				c-1.3,0.9-1.6,1.7-1.6,2.6c0,0.4,0,0.9-0.1,1.4c1.4,0.5,2.6,1.1,3.9,1.5c3.8-1.2,9.8-6.6,12.4-10.3
				C183.3,199.6,183.4,199.1,183.3,198.5z"/>
			<path class="st3" d="M141.1,122.6c-1.4-0.3-2.8-0.9-3.5-1.7c0,0-0.1,0-0.1,0c-0.8,0-2-0.2-2.9-0.3c-0.4,0-0.8,0-1,0
				c-0.2,0-0.3,0.1-0.3,0.1c-0.1,0.3,0.1,0.8,0.5,1.2c0.3,0.3,0.6,0.6,1,0.9c0.6,0.5,1.2,0.8,1.5,1c-0.6,1.5-0.4,1.9-0.9,3.3
				l-0.3,0.2l-0.5,0.4l-1.2,0.9c0.5,0.2,1.1,0.4,1.8,0.6c1,0.3,2,0.6,3,0.7c0.7,0.1,1.4,0.1,2,0.1c0.1,0,0.3,0,0.4-0.1
				c0.6-1.4,1-2.3,1.4-3.4c0.3-0.9-0.2-2,0.2-3.7c0,0,0,0,0.1,0C141.7,122.9,141.8,122.8,141.1,122.6z"/>
			<linearGradient id="SVGID_1_" gradientUnits="userSpaceOnUse" x1="149.8913" y1="159.1091" x2="182.6058" y2="159.1091">
				<stop  offset="0" style="stop-color:#FFFFFF"/>
				<stop  offset="1" style="stop-color:#FF6347"/>
			</linearGradient>
			<path class="st4" d="M182.5,196.8c0-0.5-0.2-3.8-0.2-4c0-10.9-1.7-21.3-3-32.2c-0.6-6-1.9-11.7-3.2-17.5
				c-1.2-4.9-2.5-13.2-3.3-19.1c-0.1,0.1-0.7,0.8-0.8,0.8c-1.9,0.6-3.6,0.6-5.8,0.6l-0.3-0.6L153,120l-0.9-0.2l0,0.1l0,0
				c-0.1,2.6-0.2,5.2-0.4,7.7c0,0,0.1,0,0.1,0l-0.3,2.1l-0.3,4.3c0,0.1,0,0.2,0,0.4l-0.2,2.1c-0.5,6.5-1,12.9-1.2,19.3
				c-0.4,10,1.1,22.1,1.6,32.3c0.1,0,0.1,0.1,0.2,0.1c0.9,0.7,2.4,1,3.2,1.3c0.1,0,0.1,0,0.2,0.1c0.5,0.2,1.1,0.3,1.7,0.4
				c1.3,0.2,2.8,0.3,4-0.2c0-0.1,0-0.1-0.1-0.2c0.1-2.2,0.6-6.7,0.7-8.7c0.4-7.5,2.1-16.6,1.7-24.5c1.3,5.6,2.6,11.2,4.1,16.4
				c2.4,8.2,3.2,15.9,5.1,24.1c0.1,0.1,0.2,0.1,0.3,0.2c0.9,0.5,1.9,0.8,3,1c1.4,0.2,2.8,0.2,4.1,0c1.1-0.2,2.1-0.6,2.9-1.3
				C182.6,196.9,182.5,196.8,182.5,196.8z"/>
			<linearGradient id="SVGID_2_" gradientUnits="userSpaceOnUse" x1="152.1362" y1="120.4706" x2="173.4426" y2="120.4706">
				<stop  offset="0" style="stop-color:#FFED94"/>
				<stop  offset="1" style="stop-color:#F89D89"/>
			</linearGradient>
			<path class="st5" d="M173.4,120.9c-0.3,0.1-0.6,0.2-0.8,0.2c-1.6,0.3-3.2,0-5.1,0.1l-8.4-1.9c-0.4-0.1-0.8-0.2-1.2-0.4
				c-2.1-0.8-4.1-2.1-5.8-3.6c0,0.1,0,0.1,0,0.2c0,1.4,0,2.9-0.1,4.3c0.4,0.4,0.9,0.8,1.3,1.1c1.2,0.9,3.8,2.3,3.9,2.2
				c1.3,0.5,6,2.1,8,2.1l0.2,0.3c2.4,0,5-0.1,7.1-0.7c0.1,0,0,0,0.2-0.1c0-0.4,0.1-0.9,0.1-1.2C173.1,122.7,173.3,121.8,173.4,120.9
				z"/>
			<path class="st6" d="M118.1,95.1L118.1,95.1L118.1,95.1C118.1,95.1,118.1,95.1,118.1,95.1z"/>
			<path class="st7" d="M167.4,78c1.6-0.7,2.4-3.4,2.8-4.9c0.3-1.3,0.3-2.6,0.3-3.9c-1.7,0.6-5.2,0.1-6.6,0.3c0,0-0.1,0-0.1,0l0,0.3
				c0.1,1.7-0.2,3.6-0.7,5.1c0.7-0.2,1.5-0.1,2.1-0.1c0.1-0.7,0.3-1.5,0.5-2.2l0.1,0c0.2-0.4,0.6-0.5,1-0.2c0.8,0.5,0.9,2.1,0.8,2.8
				c-0.1,0.5-0.5,1.1-1,1.4l0.2,0.1c0.1,0.4,0.1,0.8,0.1,1.3L167.4,78z"/>
			<linearGradient id="SVGID_3_" gradientUnits="userSpaceOnUse" x1="183.7382" y1="118.6223" x2="166.1664" y2="109.3344">
				<stop  offset="0" style="stop-color:#1E5177"/>
				<stop  offset="0.462" style="stop-color:#84A0B5"/>
				<stop  offset="1" style="stop-color:#FFFFFF"/>
			</linearGradient>
			<path class="st8" d="M176.7,89.4c-2.6,0.2-6.3,5.6-7.5,7.5c-1.5,2.6-2.8,5.8-4.1,8.5c-2.2,4.6-4,9.2-6,13.9
				c-0.4,0.8-0.8,1.7-1.1,2.5c-0.2,0.5-0.5,1-0.7,1.5c-0.3,0.7-0.7,1.4-1,2c-0.5,0.9-1,1.9-1.5,2.8c0,0,0,0,0,0.1
				c0.6,0.8,2,1.6,3.3,2.1c0.7,0.3,1.4,0.5,1.9,0.5c0.6-0.4,1.1-0.7,1.6-1.2c0.3-0.2,0.5-0.4,0.7-0.7c1.2-1.2,2.1-2.5,3-3.9
				c0.8-1.3,1.5-2.6,2.3-4c0.3-0.6,0.7-1.1,1.1-1.7c2.8-4.3,6.6-11.3,8.6-16.2c0.7-4,1.2-7.7,1.3-10.9
				C178.2,91.4,177.5,90.4,176.7,89.4z"/>
			<path class="st9" d="M158,130.4c-1.3-0.5-2.7-1.3-3.3-2.1c0,0-0.1,0-0.1,0c-0.7-0.1-2-0.4-2.9-0.6c-0.4-0.1-0.7-0.1-1-0.1
				c-0.2,0-0.3,0-0.3,0.1c-0.2,0.3,0,0.8,0.3,1.3c0.2,0.4,0.5,0.7,0.8,1.1c0.5,0.5,1,1,1.4,1.1c-0.8,1.4-0.7,1.9-1.3,3.2l-0.3,0.2
				l-0.5,0.3l-1.3,0.7c0.5,0.3,1.1,0.5,1.7,0.8c0.9,0.4,1.9,0.8,2.9,1.1c0.7,0.2,1.4,0.3,2,0.3c0.1,0,0.3,0,0.4,0
				c0.8-1.3,1.3-2.1,1.8-3.2c0.4-0.9,0.9-1.9,1.5-3.5c0,0,0,0,0.1,0C159.4,130.9,158.7,130.7,158,130.4z"/>
			
				<linearGradient id="SVGID_4_" gradientUnits="userSpaceOnUse" x1="160.8588" y1="134.7319" x2="144.3781" y2="126.0207" gradientTransform="matrix(0.9918 -0.1278 0.1278 0.9918 -13.9358 -6.1361)">
				<stop  offset="0" style="stop-color:#1E5177"/>
				<stop  offset="0.462" style="stop-color:#84A0B5"/>
				<stop  offset="1" style="stop-color:#FFFFFF"/>
			</linearGradient>
			<path class="st10" d="M154,79.6c-2.5,0.5-5.6,6.3-6.5,8.4c-1.2,2.7-2,6.1-2.9,9c-1.6,4.9-2.8,9.7-4.2,14.5
				c-0.3,0.9-0.5,1.8-0.8,2.6c-0.2,0.5-0.3,1-0.5,1.6c-0.2,0.7-0.5,1.4-0.8,2.2c-0.4,1-0.8,2-1.2,3c0,0,0,0,0.1,0.1
				c0.7,0.7,2.2,1.3,3.5,1.7c0.7,0.2,1,0.6,1.6,0.6c0.5-0.4,1.4-1.1,1.8-1.6c0.2-0.2,0.4-0.5,0.6-0.7c1-1.3,1.8-2.8,2.5-4.3
				c0.6-1.4,1.2-2.8,1.8-4.2c0.3-0.6,0.5-1.2,0.9-1.8c2.2-4.6,5.1-12.1,6.4-17.2c0.2-4,0.2-7.8-0.1-11C155.7,81.4,155,80.5,154,79.6
				z"/>
			<linearGradient id="SVGID_5_" gradientUnits="userSpaceOnUse" x1="165.3509" y1="71.0086" x2="162.6579" y2="89.2613">
				<stop  offset="0" style="stop-color:#1E5177"/>
				<stop  offset="0.462" style="stop-color:#84A0B5"/>
				<stop  offset="1" style="stop-color:#FFFFFF"/>
			</linearGradient>
			<path class="st11" d="M168.9,83.1c-0.7-0.4-1.3-0.8-1.9-1.1c0,0,0,0,0,0c-0.3,0.8-3.4,1.7-6,1.4c-0.2,0-0.4,0-0.6-0.1
				c-0.2,0-0.4-0.1-0.6-0.1c-1-0.3-1.8-0.8-2.2-1.6c-0.1-0.3-0.2-0.6-0.2-1c-0.2-0.1-0.4-0.2-0.5-0.3c-0.1-0.1-0.2-0.1-0.3-0.2
				c-3,3.7-3.4,9.6-3.4,14.4c1.2,0.5,2.4,1,3.6,1.5c2.1,0.9,4.1,1.8,6.1,2.8c0.1-0.5,0.2-1,0.3-1.5c2.6-3.2,3.8-11.4,9.2-11.6
				C171.3,84.6,170,83.8,168.9,83.1z"/>
			<path class="st9" d="M167,72.4c-0.4-0.3-0.8-0.2-1,0.2l-0.1,0c-0.2,0.7-0.5,1.5-0.5,2.2c-0.7,0-1.5-0.1-2.1,0.1
				c0.5-1.5,0.7-3.5,0.7-5.1l0-0.3c0,0,0.1,0,0.1,0c0,0,0,0-0.1,0c-0.5,0.2-1,0.3-1.5,0.5c-2.9,0.8-6,1.4-8.9,1.4
				c-0.2,2.7-0.1,5.3,1.9,7.5c0.2,0.2,0.4,0.4,0.6,0.6c0.2,0.2,0.5,0.4,0.7,0.6c0.1,0.1,0.2,0.1,0.3,0.2c0.2,0.1,0.4,0.2,0.5,0.3
				c0,0.4,0.1,0.7,0.2,1c0.3,0.9,1.2,1.4,2.2,1.6c0.2,0,0.4,0.1,0.6,0.1c0.2,0,0.4,0.1,0.6,0.1c2.6,0.3,5.7-0.6,6-1.4c0,0,0,0,0,0
				c0-1.1,0-2.3,0-3.4c0-0.2,0-0.3,0-0.5c0-0.4,0-0.9-0.1-1.3l-0.2-0.1c0.5-0.4,0.9-0.9,1-1.4C167.9,74.5,167.7,72.9,167,72.4z"/>
			<g>
				<linearGradient id="SVGID_6_" gradientUnits="userSpaceOnUse" x1="212.5286" y1="120.1227" x2="147.3473" y2="95.4848">
					<stop  offset="0" style="stop-color:#1E5177"/>
					<stop  offset="0.462" style="stop-color:#84A0B5"/>
					<stop  offset="1" style="stop-color:#FFFFFF"/>
				</linearGradient>
				<path class="st12" d="M176.7,89.4c-1.1-1.4-2.7-2.7-4.3-3.9c-5.4,0.2-6.6,8.5-9.2,11.6c-0.1,0.5-0.2,1-0.3,1.5
					c-2-1-4-1.9-6.1-2.8c-1.2-0.5-2.4-1-3.6-1.5c0-4.7,0.4-10.6,3.4-14.4c-0.2-0.2-0.5-0.4-0.7-0.6c-4.1,0-5.5,1.5-5.9,4.4
					c-0.1,0.1-0.2,0.3-0.4,0.4c0.1,3.8-0.1,7.5-0.2,11.2c-0.1,3.4,0.1,6.9,0.7,10.4c0,0.3,0.1,0.6,0.1,0.9c0.4,2.6,1,5.3,1.6,7.8
					c0.1,0.3,0.1,0.5,0.2,0.7c0,0,0,0,0.1,0c1.7,1.5,3.7,2.8,5.8,3.6c0.4,0.1,0.8,0.3,1.2,0.4c2.1-4.6,3.9-9.2,6-13.9
					c1.3-2.8,2.6-6,4.1-8.5C170.4,95,174.1,89.7,176.7,89.4z"/>
				<linearGradient id="SVGID_7_" gradientUnits="userSpaceOnUse" x1="192.3251" y1="119.8392" x2="166.4584" y2="110.0618">
					<stop  offset="0" style="stop-color:#1E5177"/>
					<stop  offset="0.462" style="stop-color:#84A0B5"/>
					<stop  offset="1" style="stop-color:#FFFFFF"/>
				</linearGradient>
				<path class="st13" d="M168.6,119.6c-0.4,0.6-0.7,1.1-1.1,1.7c1.9-0.1,3.5,0.2,5.1-0.1c0.3-0.1,0.6-0.1,0.8-0.2
					c1.1-5.3,2.6-11.7,3.7-17.6C175.2,108.2,171.4,115.3,168.6,119.6z"/>
			</g>
			<linearGradient id="SVGID_8_" gradientUnits="userSpaceOnUse" x1="148.5515" y1="65.2355" x2="170.9245" y2="65.2355">
				<stop  offset="0" style="stop-color:#F37201"/>
				<stop  offset="0.16" style="stop-color:#F37201;stop-opacity:0.8"/>
				<stop  offset="0.34" style="stop-color:#F37201;stop-opacity:0.62"/>
				<stop  offset="0.52" style="stop-color:#F37201;stop-opacity:0.48"/>
				<stop  offset="0.69" style="stop-color:#F37201;stop-opacity:0.38"/>
				<stop  offset="0.85" style="stop-color:#F37201;stop-opacity:0.32"/>
				<stop  offset="1" style="stop-color:#F37201;stop-opacity:0.3"/>
			</linearGradient>
			<path class="st14" d="M170.8,65.6c-0.5-2.5-2.6-5.1-4.8-5.9c-1.9-0.7-3.3-0.5-5.4-0.3c-2.7,0.3-6.1,3-6.9,5.7c0,0,0,0,0,0
				c0,0,0,0,0,0c-5.4,0.3-7.5,5.5-1.7,6.1c0.5,0,1,0.1,1.5,0.1c2.9,0,6-0.5,8.9-1.4c0.5-0.2,1-0.3,1.5-0.5c0,0,0,0,0.1,0
				c1.4-0.1,4.9,0.3,6.6-0.3c0.1,0,0.3-0.1,0.4-0.1C170.9,69.1,171,67.2,170.8,65.6z"/>
		</g>
		<g>
			<path class="st15" d="M144.6,125l-0.4,16.1l-12.8-7.4c-0.6-0.4-1-1-1-1.7v-14.8L144.6,125z"/>
			<path class="st15" d="M144.3,125.1l13.8-8v14.9c0,0.6-0.3,1.2-0.9,1.6l-12.9,7.4V125.1z"/>
			<path class="st15" d="M130.4,117.2l13-7.5c0.5-0.3,1.2-0.3,1.7,0l13,7.5l-13.8,8L130.4,117.2z"/>
			<g>
				<polygon class="st16" points="150.4,128.5 152.2,127.5 152.1,120.6 150.4,121.6 				"/>
				<polygon class="st16" points="136.6,113.6 150.4,121.6 152.1,120.6 138.3,112.6 				"/>
			</g>
			<g>
				<polygon class="st16" points="136.5,127.6 138.3,128.6 138.3,121.8 136.5,120.7 				"/>
				<polygon class="st16" points="150.4,112.7 136.5,120.7 138.3,121.7 152.1,113.8 				"/>
			</g>
		</g>
	</g>
	<g>
		<g>
			
				<linearGradient id="SVGID_9_" gradientUnits="userSpaceOnUse" x1="111.7628" y1="106.0567" x2="119.137" y2="106.0567" gradientTransform="matrix(0.9805 -0.1965 0.1965 0.9805 -23.9784 23.6216)">
				<stop  offset="0" style="stop-color:#FFD297"/>
				<stop  offset="1" style="stop-color:#F89D89"/>
			</linearGradient>
			<path class="st17" d="M112.5,105.8l1-1.7c0.4-1-0.7-1.5-0.7-1.5l-1.3,1.7l-1.7-1.1l-1.1,1.7l-1.9-1.1c0,0-0.9,0.9-0.1,1.7
				l1.5,1.2c0,0,0.1,0.1,0.2,0.3l4.2-0.8C112.5,106,112.5,105.8,112.5,105.8z"/>
			
				<linearGradient id="SVGID_10_" gradientUnits="userSpaceOnUse" x1="110.3181" y1="108.4712" x2="116.6908" y2="108.4712" gradientTransform="matrix(0.9805 -0.1965 0.1965 0.9805 -23.9784 23.6216)">
				<stop  offset="0" style="stop-color:#1E5177"/>
				<stop  offset="0.462" style="stop-color:#84A0B5"/>
				<stop  offset="1" style="stop-color:#FFFFFF"/>
			</linearGradient>
			<path class="st18" d="M112.9,106.1l-0.4,0.1l-4.2,0.8l-0.4,0.1c-0.4,0.1-0.6,0.4-0.5,0.8c0.1,0.4,0.4,0.6,0.8,0.5l0.3-0.1
				l4.3-0.9l0.3-0.1c0.4-0.1,0.6-0.4,0.5-0.8C113.6,106.3,113.2,106.1,112.9,106.1z"/>
			
				<linearGradient id="SVGID_11_" gradientUnits="userSpaceOnUse" x1="106.745" y1="116.0964" x2="124.1544" y2="116.0964" gradientTransform="matrix(0.9805 -0.1965 0.1965 0.9805 -23.9784 23.6216)">
				<stop  offset="0" style="stop-color:#FFD297"/>
				<stop  offset="1" style="stop-color:#F89D89"/>
			</linearGradient>
			<path class="st19" d="M121.2,116.5c-1.9-4.8-5-8.3-8.3-9l-4.4,0.9c-2.8,1.9-4.4,6.3-4.2,11.5c0.1,1.1,0.6,3.5,3.7,2.8l11-2.2
				C122,119.9,121.6,117.5,121.2,116.5z"/>
			
				<ellipse transform="matrix(0.9805 -0.1965 0.1965 0.9805 -20.4288 24.2764)" class="st20" cx="112.1" cy="115.1" rx="4.4" ry="4.4"/>
			<text transform="matrix(0.9805 -0.1965 0.1965 0.9805 111.1749 117.515)" class="st15 st21 st22">₹</text>
		</g>
		<g>
			<path class="st23" d="M106.5,107.3c1.7-0.5,2.5-1.2,3.6-2.2c0.4-0.5,3.8-2.8,3.8-3.1c0.1-0.5,2-3.2-2-3.5c-0.5-0.1-3.7,1-6.7,2.6
				C100.8,103.8,103.6,108,106.5,107.3z"/>
			
				<linearGradient id="SVGID_12_" gradientUnits="userSpaceOnUse" x1="73.1365" y1="172.5392" x2="78.7958" y2="134.0561" gradientTransform="matrix(0.8687 0.4954 0.4954 -0.8687 -57.589 213.1592)">
				<stop  offset="0" style="stop-color:#FFFFFF"/>
				<stop  offset="1" style="stop-color:#F7CE84"/>
			</linearGradient>
			<path class="st24" d="M91.9,119.3c0,0,0.1-0.2,0.3,0c3.8-1.4,5.7-3.4,13.5-10.8c-0.2-0.1,0.2-0.6,0.4-0.8
				c-1.7-1.1-2.6-2.1-2.8-4.4c-0.4,0.2-1.9,0.6-1.9,0.6c-2.2,1.1-4.5,2.5-6.8,4.1c-3.5,0.1-8.6,2.7-13.2,3.8c-7.5,2-18.3,5.5-16,13
				c2,6.1,11.7,3,18.7-0.7C86.3,122.2,89.4,120.7,91.9,119.3L91.9,119.3L91.9,119.3z"/>
		</g>
		<path class="st2" d="M78.9,217.6c1.9-0.6,6.9-1.9,8.5-0.4c1.7,1.5,1.2,5.8-3.7,7.9c-5,2.1-9.1,1.2-9.1,2.5c0,1.2-3.7,2.3-6.9,1.5
			c-3.1-0.8-3.3-5.6-1.5-8.1C67.9,218.7,74.3,219.5,78.9,217.6z"/>
		<path class="st2" d="M92,225.1c1.9-0.6,6.9-1.9,8.5-0.4c1.7,1.5,1.2,5.8-3.7,7.9c-5,2.1-9.1,1.2-9.1,2.5c0,1.2-3.7,2.3-6.9,1.5
			c-3.1-0.8-3.3-5.6-1.5-8.1C81.2,226.2,87.4,226.8,92,225.1z"/>
		
			<linearGradient id="SVGID_13_" gradientUnits="userSpaceOnUse" x1="62.831" y1="90.3457" x2="92.6702" y2="90.3457" gradientTransform="matrix(1 0 0 -1 0 288)">
			<stop  offset="0" style="stop-color:#1E5177"/>
			<stop  offset="0.462" style="stop-color:#84A0B5"/>
			<stop  offset="1" style="stop-color:#FFFFFF"/>
		</linearGradient>
		<path class="st25" d="M92.6,170.9c-2.9-1.7-8.7-2.3-13.1-1.5c0-2.3,0-4.2,0-5.8c-3.9-2.5-13.1-2.5-16.6,0.8
			c-0.4,13.3,2.7,24.5,1.9,32.8C64,205.6,64.6,221,65,223c1.7,2.9,6.6,4.8,12.3,1c0.2,0.8,0.4,1.7,0.6,2.3c0.2,2.1,0.2,3.5,0.4,3.9
			c1.9,3.1,7.5,5.2,13.5,0c0,0,0.2-5.2,0.6-13.1C92.8,209.9,92.6,182.3,92.6,170.9z"/>
		<path class="st23" d="M82.7,95.9c-5.6,0-9.8,5.2-9.1,11.6c0.2,2.1,1,3.9,2.1,5.6v11.4h9.6v-5.4c0.4,0,0.8,0,1.2,0
			c5.6,0,7.7-5.2,7.3-11.6C93,101.1,88.3,95.9,82.7,95.9z"/>
		<path class="st7" d="M79.5,91.5c5-1.2,12.7,1.5,14.5,6.4c1.2,3.9,0.6,5.8-1.5,8.7c-0.6,0.8-1.7,2.1-2.3,3.7
			c-0.8,2.5-1.5,2.3-2.9,0.4c-1.2-1.9-2.1-3.7-3.9-0.2c-1.9,3.3-4.8,5.4-6.2,4.8c-2.1-1-2.7-2.5-4.6-7.3
			C71.9,105.4,70,93.8,79.5,91.5z"/>
		
			<linearGradient id="SVGID_14_" gradientUnits="userSpaceOnUse" x1="49.4173" y1="116.0068" x2="88.4606" y2="116.0068" gradientTransform="matrix(0.9862 -0.1658 -0.1658 -0.9862 30.3434 270.729)">
			<stop  offset="0" style="stop-color:#FFFFFF"/>
			<stop  offset="1" style="stop-color:#F7CE84"/>
		</linearGradient>
		<path class="st26" d="M93.9,155.5c1.5-5.8,4.4-16.8,3.3-20.2c-0.8-3.3-6.2-8.9-8.9-10.6c-0.2-0.2-0.6-0.4-0.8-0.6l0,0l0,0
			c-0.4-0.2-0.8-0.6-1.2-0.8c0,0-0.2,0-0.2-0.2c-0.2-0.2-0.4-0.2-0.4-0.4l0,0c-0.2-0.2-0.4-0.2-0.6-0.4l-0.2-0.2
			c-3.9,0.4-7.9-0.6-9.3-4.8c-0.4-0.2-0.6-0.2-1-0.4l0,0l0,0c-0.2,0-0.4-0.2-0.6-0.2l0,0l0,0c-1.7-0.6-3.1-1-4.2-0.8
			c-3.9,0.2-5.2,8.1-5.2,14.5c0.2,6.6,0.2,13.3-1,18.1c-1,5-1.5,17.9,0.4,19.7c1.9,1.7,8.1,6.9,16.8,6.6c8.5-0.2,17-2.7,16.2-5.4
			C96,166.9,92.4,161.3,93.9,155.5z"/>
		<g>
			<path class="st23" d="M95.7,174.5c0,1.9,0.3,2.7,1.1,4.2c0.4,0.5,1.5,4.4,2.1,4.5c0.4,0.2,2.7,3.2,3.8-1c0.2-0.4,0.1-3.8-0.7-7
				C100.9,170,95.9,171.4,95.7,174.5z"/>
			
				<linearGradient id="SVGID_15_" gradientUnits="userSpaceOnUse" x1="128.4556" y1="151.4593" x2="134.1148" y2="112.9764" gradientTransform="matrix(-0.7052 0.709 0.709 0.7052 90.1652 -35.5191)">
				<stop  offset="0" style="stop-color:#FFFFFF"/>
				<stop  offset="1" style="stop-color:#F7CE84"/>
			</linearGradient>
			<path class="st27" d="M88.1,157.3c0,0,0.1,0.2,0,0.3c0.4,4,0.5,7.1,5.6,16.4c0.2-0.1,0.6,0.3,0.7,0.5c1.6-1.3,4.1-2.6,6.3-2.2
				c-0.1-0.5-0.3-1.9,0-1.9c-0.5-2.3-1.3-5.1-2.1-7.7c0.9-3.5-0.2-9-0.4-13.8c0.1-7.7-0.6-19.2-8.2-18.9c-6.4,0.2-6,10.7-4.3,18.2
				C86.6,151.3,87.2,154.3,88.1,157.3L88.1,157.3L88.1,157.3z"/>
		</g>
	</g>
</g>
</svg>
