<?xml version="1.0" encoding="utf-8"?>
<!-- Generator: Adobe Illustrator 21.0.2, SVG Export Plug-In . SVG Version: 6.00 Build 0)  -->
<svg version="1.1" id="Layer_1" xmlns="http://www.w3.org/2000/svg" xmlns:xlink="http://www.w3.org/1999/xlink" x="0px" y="0px"
	 viewBox="0 0 267.8 285.3" style="enable-background:new 0 0 267.8 285.3;" xml:space="preserve">
<style type="text/css">
	.st0{fill:#004794;}
	.st1{opacity:0.6;fill:#001355;enable-background:new    ;}
	.st2{fill:url(#SVGID_1_);}
	.st3{fill:url(#SVGID_2_);}
	.st4{fill:url(#SVGID_3_);}
	.st5{fill:#8B5E3C;}
	.st6{fill:url(#SVGID_4_);}
	.st7{fill:url(#SVGID_5_);}
	.st8{fill:url(#SVGID_6_);}
	.st9{fill:url(#SVGID_7_);}
	.st10{fill:url(#SVGID_8_);}
	.st11{fill:url(#SVGID_9_);}
	.st12{opacity:0.2;}
	.st13{filter:url(#Adobe_OpacityMaskFilter);}
	.st14{filter:url(#Adobe_OpacityMaskFilter_1_);}
	.st15{mask:url(#SVGID_10_);fill:url(#SVGID_11_);}
	.st16{fill:#A6A6A6;}
	.st17{fill:url(#SVGID_12_);}
	.st18{fill:url(#SVGID_13_);}
	.st19{fill:url(#SVGID_14_);}
	.st20{fill:url(#SVGID_15_);}
	.st21{fill:url(#SVGID_16_);}
	.st22{fill:url(#SVGID_17_);}
	.st23{fill:url(#SVGID_18_);}
	.st24{fill:url(#SVGID_19_);}
	.st25{fill:url(#SVGID_20_);}
	.st26{fill:url(#SVGID_21_);}
	.st27{fill:url(#SVGID_22_);}
	.st28{fill:url(#SVGID_23_);}
	.st29{fill:url(#SVGID_24_);}
	.st30{fill:#F79B6A;}
	.st31{fill:#1E5177;}
	.st32{fill:#594A42;}
	.st33{fill:#BE9B53;}
	.st34{fill:#D9B15E;}
	.st35{fill:url(#SVGID_25_);}
	.st36{fill:url(#SVGID_26_);}
	.st37{fill:url(#SVGID_27_);}
	.st38{fill:url(#SVGID_28_);}
	.st39{fill:#FFD4B8;}
	.st40{fill:url(#SVGID_29_);}
	.st41{fill:url(#SVGID_30_);}
	.st42{fill:url(#SVGID_31_);}
	.st43{fill:url(#SVGID_32_);}
	.st44{fill:url(#SVGID_33_);}
	.st45{fill:url(#SVGID_34_);}
	.st46{fill:url(#SVGID_35_);}
	.st47{fill:url(#SVGID_36_);}
	.st48{fill:#FF6600;}
	.st49{fill:#DD6310;}
</style>
<g>
	<path class="st0" d="M199.4,239.9c5.7-5.7,12.4-10.4,20.2-12.4c9.4-2.6,18.5-8.4,25.3-16.5c10-11.8,21.2-21.7,17.8-36.6
		c-12.7-55.2,31.2-76.4-21.9-104c-65.7-34.2-65.6-24.8-96.3-43.1S90.8-17.5,59.3,16.3C47,29.5,30.4,46.6,23.7,64
		c-3.9,10.2-7.4,22.8-4.6,33.4c3.7,13.9,11.2,27.3,12.3,41.8c0.8,11.1-3.8,22.5-7.4,32.9c-14.2,40.7-45.4,44.2-1.3,81.6
		c33.4,28.2,89,36.5,131.1,29.3c8.8-1.5,14.8-8.8,20.9-15C183.3,258.9,190.6,248.6,199.4,239.9z"/>
	<ellipse class="st1" cx="176.9" cy="198.4" rx="33.5" ry="13.6"/>
	<ellipse class="st1" cx="116" cy="164.1" rx="37.4" ry="5.4"/>
	<ellipse class="st1" cx="80" cy="228.5" rx="38.4" ry="14.5"/>
	<g>
		<path class="st1" d="M176.3,105.1"/>
		<linearGradient id="SVGID_1_" gradientUnits="userSpaceOnUse" x1="89.2192" y1="108.9158" x2="93.6598" y2="108.9158">
			<stop  offset="0" style="stop-color:#FFD297"/>
			<stop  offset="1" style="stop-color:#F89D89"/>
		</linearGradient>
		<path class="st2" d="M89.3,50.9c0,0-0.1,116,0,116c0,0,0.8,0,1.2,0c0.3,0.1,0.5-0.1,0.8,0c0.4,0.1,0.7,0,0.9,0c0.2,0,0,0,0.5,0
			c0.5,0,1,0,1,0V55.3L89.3,50.9z"/>
		<linearGradient id="SVGID_2_" gradientUnits="userSpaceOnUse" x1="135.2629" y1="108.9592" x2="139.6679" y2="108.9592">
			<stop  offset="0" style="stop-color:#F89D89"/>
			<stop  offset="1" style="stop-color:#FFD297"/>
		</linearGradient>
		<path class="st3" d="M135.3,166.9c1.4,0,2.7,0.1,4.2,0.1c0,0,0.1,0,0.1,0c0.1-8.3,0.1-116,0.1-116l-4.4,4.4V166.9
			C135.3,166.9,135.3,166.9,135.3,166.9z"/>
		<linearGradient id="SVGID_3_" gradientUnits="userSpaceOnUse" x1="114.4685" y1="50.9052" x2="114.4685" y2="55.3545">
			<stop  offset="0" style="stop-color:#FFD297"/>
			<stop  offset="1" style="stop-color:#F89D89"/>
		</linearGradient>
		<path class="st4" d="M139.7,51l-4.4,4.4l-41.6-0.1l-4.4-4.4C89.3,50.9,113.9,50.9,139.7,51z"/>
		<polygon class="st5" points="118.7,159.6 133.8,166.9 133.8,55.4 118.8,61.6 		"/>
		<linearGradient id="SVGID_4_" gradientUnits="userSpaceOnUse" x1="118.7463" y1="111.1238" x2="133.8059" y2="111.1238">
			<stop  offset="0" style="stop-color:#FFD297"/>
			<stop  offset="1" style="stop-color:#F89D89"/>
		</linearGradient>
		<polygon class="st6" points="118.7,159.7 133.8,166.9 133.8,55.4 118.8,61.7 		"/>
		<g>
			<linearGradient id="SVGID_5_" gradientUnits="userSpaceOnUse" x1="124.1602" y1="68.4064" x2="128.9753" y2="60.0664">
				<stop  offset="5.618000e-03" style="stop-color:#541513"/>
				<stop  offset="8.427000e-02" style="stop-color:#8D5027"/>
				<stop  offset="0.382" style="stop-color:#CB9552"/>
				<stop  offset="0.5618" style="stop-color:#FFF2DB"/>
				<stop  offset="0.8034" style="stop-color:#D7B189"/>
				<stop  offset="0.9163" style="stop-color:#AB6C2E"/>
				<stop  offset="0.9551" style="stop-color:#9C530D"/>
			</linearGradient>
			<path class="st7" d="M121.3,66l0.6,1.1l9.4-3.7l0.6-1.7C131.8,61.7,124.7,64.6,121.3,66z"/>
		</g>
		<g>
			
				<linearGradient id="SVGID_6_" gradientUnits="userSpaceOnUse" x1="885.9506" y1="62.5587" x2="886.6635" y2="62.5587" gradientTransform="matrix(-1 0 0 -1 1007.8296 159.7617)">
				<stop  offset="0" style="stop-color:#F89D89"/>
				<stop  offset="0.5198" style="stop-color:#FFD096"/>
				<stop  offset="1" style="stop-color:#F89D89"/>
			</linearGradient>
			<path class="st8" d="M121.9,67.1l-0.6-1.1l0,27.1c0,0-0.1,35.2-0.1,35.2l0.6-1.2"/>
		</g>
		<g>
			<linearGradient id="SVGID_7_" gradientUnits="userSpaceOnUse" x1="121.1656" y1="128.6138" x2="131.9484" y2="128.6138">
				<stop  offset="0" style="stop-color:#FFD297"/>
				<stop  offset="1" style="stop-color:#F89D89"/>
			</linearGradient>
			<path class="st9" d="M131.9,130.1l-0.7-1.5l-9.5-1.5l-0.6,1.2C121.2,128.4,128.7,129.6,131.9,130.1z"/>
		</g>
		<g>
			
				<linearGradient id="SVGID_8_" gradientUnits="userSpaceOnUse" x1="886.2002" y1="16.9294" x2="886.7603" y2="16.9294" gradientTransform="matrix(-1 0 0 -1 1007.8296 159.7617)">
				<stop  offset="0" style="stop-color:#F89D89"/>
				<stop  offset="0.5198" style="stop-color:#FFD096"/>
				<stop  offset="1" style="stop-color:#F89D89"/>
			</linearGradient>
			<path class="st10" d="M121.6,150.5l0-14.8l-0.5-1.6l0,9.9c0,0,0,7.6,0,7.6L121.6,150.5z"/>
		</g>
		<g>
			<linearGradient id="SVGID_9_" gradientUnits="userSpaceOnUse" x1="121.0693" y1="153.0829" x2="131.7167" y2="153.0829">
				<stop  offset="0" style="stop-color:#FFD297"/>
				<stop  offset="1" style="stop-color:#F89D89"/>
			</linearGradient>
			<path class="st11" d="M131.7,155.7l-0.5-1.6l-9.6-3.6l-0.5,1.1C121.1,151.6,128.6,154.5,131.7,155.7z"/>
		</g>
		<g class="st12">
			<defs>
				<filter id="Adobe_OpacityMaskFilter" filterUnits="userSpaceOnUse" x="121.8" y="63.2" width="9.5" height="3.9">
					<feFlood  style="flood-color:white;flood-opacity:1" result="back"/>
					<feBlend  in="SourceGraphic" in2="back" mode="normal"/>
				</filter>
			</defs>
			<mask maskUnits="userSpaceOnUse" x="121.8" y="63.2" width="9.5" height="3.9" id="SVGID_10_">
				<g class="st13">
					<defs>
						<filter id="Adobe_OpacityMaskFilter_1_" filterUnits="userSpaceOnUse" x="121.8" y="63" width="10.2" height="4.2">
							<feFlood  style="flood-color:white;flood-opacity:1" result="back"/>
							<feBlend  in="SourceGraphic" in2="back" mode="normal"/>
						</filter>
					</defs>
					<mask maskUnits="userSpaceOnUse" x="121.8" y="63" width="10.2" height="4.2" id="SVGID_10_">
						<g class="st14">
						</g>
					</mask>
					<linearGradient id="SVGID_11_" gradientUnits="userSpaceOnUse" x1="127.7748" y1="66.1688" x2="126.1139" y2="63.8828">
						<stop  offset="0" style="stop-color:#000000"/>
						<stop  offset="0.3006" style="stop-color:#EAEAEA"/>
						<stop  offset="0.5521" style="stop-color:#FFFFFF"/>
						<stop  offset="0.6016" style="stop-color:#FBFBFB"/>
						<stop  offset="0.638" style="stop-color:#F3F3F3"/>
						<stop  offset="0.8098" style="stop-color:#000000"/>
					</linearGradient>
					<polygon class="st15" points="132,63 132,63.1 121.9,67.1 121.8,67 					"/>
				</g>
			</mask>
			<polygon class="st16" points="131.3,63.2 131.2,63.4 121.9,67.1 121.8,67 			"/>
		</g>
		<g>
			<linearGradient id="SVGID_12_" gradientUnits="userSpaceOnUse" x1="131.1908" y1="145.9954" x2="131.9057" y2="145.9954">
				<stop  offset="0" style="stop-color:#FFD096"/>
				<stop  offset="0.505" style="stop-color:#F89D89"/>
				<stop  offset="1" style="stop-color:#FFD096"/>
			</linearGradient>
			<polygon class="st17" points="131.3,137.7 131.2,154.1 131.7,155.7 131.8,147.7 131.9,136.3 			"/>
		</g>
		<g>
			
				<linearGradient id="SVGID_13_" gradientUnits="userSpaceOnUse" x1="201.7381" y1="-231.5626" x2="200.4585" y2="-236.7812" gradientTransform="matrix(0.9712 -0.2381 -0.2381 -0.9712 -124.4969 -115.1432)">
				<stop  offset="0" style="stop-color:#FFD297"/>
				<stop  offset="1" style="stop-color:#F89D89"/>
			</linearGradient>
			<path class="st18" d="M131.8,61.7l-0.6,1.7l-9.4,3.7l-0.6-1.1C121.3,66,128.8,63,131.8,61.7z"/>
		</g>
		<g>
			<linearGradient id="SVGID_14_" gradientUnits="userSpaceOnUse" x1="121.2984" y1="64.0593" x2="131.8338" y2="64.0593">
				<stop  offset="0" style="stop-color:#FFD297"/>
				<stop  offset="1" style="stop-color:#F89D89"/>
			</linearGradient>
			<path class="st19" d="M131.8,61.7l-0.2,0.6l-10.1,4.1l-0.2-0.4C121.3,66,128.8,63,131.8,61.7z"/>
		</g>
		<linearGradient id="SVGID_15_" gradientUnits="userSpaceOnUse" x1="131.9484" y1="95.9089" x2="131.2499" y2="95.9089">
			<stop  offset="0" style="stop-color:#FFD096"/>
			<stop  offset="0.505" style="stop-color:#F89D89"/>
			<stop  offset="1" style="stop-color:#FFD096"/>
		</linearGradient>
		<polygon class="st20" points="131.8,61.7 131.2,63.4 131.2,128.6 131.9,130.1 		"/>
		<g>
			
				<linearGradient id="SVGID_16_" gradientUnits="userSpaceOnUse" x1="582.7695" y1="107.8726" x2="582.7695" y2="109.4883" gradientTransform="matrix(-1 0 0 1 702.605 0)">
				<stop  offset="0" style="stop-color:#EFBF70"/>
				<stop  offset="1" style="stop-color:#8F6010"/>
			</linearGradient>
			<path class="st21" d="M119.4,108.1l0.6-0.2c0,0,0,0,0,0c0.2,0,0.3,0.4,0.3,0.8c0,0.4-0.1,0.8-0.3,0.8c0,0,0,0,0,0l-0.6-0.2
				c-0.1,0-0.2-0.3-0.2-0.6C119.2,108.4,119.3,108.1,119.4,108.1z"/>
			<g>
				
					<linearGradient id="SVGID_17_" gradientUnits="userSpaceOnUse" x1="583.5005" y1="107.5178" x2="583.5005" y2="109.8427" gradientTransform="matrix(-1 0 0 1 702.605 0)">
					<stop  offset="0" style="stop-color:#BF8F40"/>
					<stop  offset="1" style="stop-color:#603000"/>
				</linearGradient>
				<path class="st22" d="M118.5,108.7c0-0.6,0.2-1.2,0.5-1.2c0.1,0,0.1,0,0.2,0.1c0.1,0.1,0.4,0.5,0.4,0.5c0.1,0.1,0.1,0.3,0.1,0.6
					c0,0.3-0.1,0.5-0.1,0.6c0,0-0.3,0.4-0.4,0.5c-0.1,0.1-0.1,0.1-0.2,0.1C118.7,109.8,118.5,109.3,118.5,108.7L118.5,108.7
					L118.5,108.7z"/>
				<g>
					
						<linearGradient id="SVGID_18_" gradientUnits="userSpaceOnUse" x1="583.7169" y1="107.5178" x2="583.7169" y2="109.8434" gradientTransform="matrix(-1 0 0 1 702.605 0)">
						<stop  offset="0" style="stop-color:#EFBF70"/>
						<stop  offset="1" style="stop-color:#8F6010"/>
					</linearGradient>
					<path class="st23" d="M118.8,107.5c0,0,0.1,0,0.2,0c0.3,0,0.5,0.5,0.5,1.2c0,0.6-0.2,1.2-0.5,1.2c0,0-0.1,0-0.2,0
						c-0.3,0-0.5-0.5-0.5-1.2C118.3,108,118.6,107.5,118.8,107.5z"/>
					
						<linearGradient id="SVGID_19_" gradientUnits="userSpaceOnUse" x1="583.1666" y1="108.0545" x2="584.4189" y2="109.3068" gradientTransform="matrix(-1 0 0 1 702.605 0)">
						<stop  offset="0" style="stop-color:#FFEF9F"/>
						<stop  offset="1" style="stop-color:#EFBF70"/>
					</linearGradient>
					<ellipse class="st24" cx="118.8" cy="108.7" rx="0.5" ry="1.2"/>
				</g>
			</g>
		</g>
		<linearGradient id="SVGID_20_" gradientUnits="userSpaceOnUse" x1="132.9358" y1="111.0705" x2="136.3261" y2="111.1835">
			<stop  offset="0" style="stop-color:#FFD297"/>
			<stop  offset="1" style="stop-color:#F89D89"/>
		</linearGradient>
		<rect x="133.8" y="55.4" class="st25" width="1.5" height="111.5"/>
		<g>
			
				<linearGradient id="SVGID_21_" gradientUnits="userSpaceOnUse" x1="755.6035" y1="483.653" x2="766.3795" y2="483.653" gradientTransform="matrix(-1 0 0 -1 887.5093 619.5781)">
				<stop  offset="0" style="stop-color:#FFD297"/>
				<stop  offset="1" style="stop-color:#F89D89"/>
			</linearGradient>
			<path class="st26" d="M121.1,134.1l0.5,1.6l9.7,2l0.6-1.4C131.9,136.3,124.3,134.8,121.1,134.1z"/>
		</g>
		<linearGradient id="SVGID_22_" gradientUnits="userSpaceOnUse" x1="121.1298" y1="135.5631" x2="131.9057" y2="135.5631">
			<stop  offset="0" style="stop-color:#FFD297"/>
			<stop  offset="1" style="stop-color:#F89D89"/>
		</linearGradient>
		<polygon class="st27" points="121.1,134.1 131.9,136.3 131.6,137 121.4,134.9 		"/>
		<linearGradient id="SVGID_23_" gradientUnits="userSpaceOnUse" x1="121.1656" y1="128.9567" x2="131.9484" y2="128.9567">
			<stop  offset="0" style="stop-color:#FFD297"/>
			<stop  offset="1" style="stop-color:#F89D89"/>
		</linearGradient>
		<polygon class="st28" points="121.2,128.4 121.4,127.8 131.7,129.5 131.9,130.1 		"/>
		<linearGradient id="SVGID_24_" gradientUnits="userSpaceOnUse" x1="121.0693" y1="153.3153" x2="131.7167" y2="153.3153">
			<stop  offset="0" style="stop-color:#FFD297"/>
			<stop  offset="1" style="stop-color:#F89D89"/>
		</linearGradient>
		<polygon class="st29" points="121.4,151 121.1,151.6 131.7,155.7 131.4,154.8 		"/>
	</g>
	<g>
		<path class="st30" d="M129.6,139.2l-0.3-0.2l-0.8-0.4c-0.8-1.7-1.5-3.8-1.8-5.6l0-0.2c2.1,0,2.6-4,0.5-3.5
			c-0.2,0.2-0.9,1.5-1.2,1.7c-0.6,0.3-1.4,0.2-1.8,0.3c-0.4,0.2-0.9,0.5-1.3,0.6c-0.4-0.2-0.7-0.3-1-0.5l0,2.5
			c-0.4,0.9-0.7,2-0.7,2.9c0,0.1,0,0.3,0,0.3c1.9,6,5.9,3.7,10.1,3L129.6,139.2z"/>
		<path class="st31" d="M98.9,224.3c-0.3-0.8-0.7-1.5-2.2-2.2c0,0-0.1,0-0.1-0.1c-0.3-0.1-0.6-0.3-1-0.4c0.1,0-3.2-3.3-4.6-5.2
			c-0.1-0.1-0.1-0.2-0.2-0.3c-0.4,0.3-1,0.6-1.6,0.8c-0.8,0.3-1.6,0.5-2,0.7c-0.8,0.3-1.9,0.5-2.9,0.6c-1.2,0.1-2.4,0-3.3-0.4
			c-0.1,0.3-0.2,0.7-0.3,1c-0.1,0.5-0.2,0.9-0.1,1.4c3.7,3.3,10.7,7.6,14.7,8.1c1.3-0.7,2.6-1.6,3.9-2.3
			C99.2,225.4,99.1,224.8,98.9,224.3z"/>
		<path class="st31" d="M74.5,237.9c-0.1-1-0.3-1.8-1.8-2.8c0,0-0.1,0-0.1-0.1c-0.3-0.2-0.6-0.5-0.9-0.8c-1.7-2-2.6-5.5-3.5-7.8
			c-0.1-0.1-0.1-0.3-0.2-0.4c-0.5,0.3-1,0.5-1.5,0.6c-2.1,0.7-4.6,0.8-6.7,0.3c-1-0.3-2-0.7-2.7-1.3c-0.4,0.8-0.6,1.3-0.7,1.7
			c-0.2,0.6-0.1,1.2,0.2,2.6c2.9,4,9.4,9.9,13.5,11.2c1.4-0.4,2.8-1.1,4.3-1.6C74.6,238.9,74.6,238.4,74.5,237.9z"/>
		<path class="st32" d="M81.3,77.2c-2.2-0.3-3.8-0.5-5.8,0.3c-2.4,0.9-4.7,3.8-5.2,6.5c-0.3,1.7,0.2,3.9,0.2,3.9
			c0,1.4,0,2.8,0.3,4.2c0.4,1.7,1.3,4.6,3,5.4l0.4,0.1c0-0.3,0-0.6,0-0.9c0-0.2,0-0.4,0-0.5l0.4-0.5c-0.6-0.4-1-0.6-1.1-1.2
			c-0.1-0.8-0.2-2.4,0.7-2.9c0.5-0.3,1-0.2,1.1,0.4l0.1,0c0.2,0.7,0.5,1.5,0.5,2.2c0.7,0,1.8-0.1,2.6,0.1c-0.5-1.7-1-3.7-0.9-5.5
			l0-0.3c0.1,0-0.1-0.1,0-0.2c3.5-1.8,7.1-3,10.7-4.6c0-0.1,0-0.1,0-0.2c0-0.1,0-0.2,0-0.3l0,0C87.7,80.1,84.2,77.6,81.3,77.2z"/>
		<path class="st33" d="M109.7,127.6L109.7,127.6C109.7,127.6,109.7,127.6,109.7,127.6L109.7,127.6z"/>
		<path class="st33" d="M105.2,125L105.2,125C105.2,125.1,105.2,125.1,105.2,125L105.2,125z"/>
		<path class="st34" d="M105.2,146L105.2,146l-0.3-0.1C105,146,105.1,146,105.2,146z"/>
		<path class="st30" d="M105.5,145.8l-0.3-0.2l-0.8-0.5c-0.7-1.8-1.5-3.9-1.8-5.8v-0.2c2.2,0,2.8-4,0.6-3.6
			c-0.2,0.2-0.9,1.5-1.2,1.7c-0.6,0.3-1.4,0.2-1.9,0.3c-0.5,0.2-0.9,0.5-1.4,0.6c-0.4-0.2-0.7-0.3-1.1-0.5l0,2.5c-0.4,1-0.7,2-0.8,3
			c0,0.1,0,0.2,0,0.3h0c1.8,6.2,6,3.9,10.3,3.2L105.5,145.8z"/>
		<linearGradient id="SVGID_25_" gradientUnits="userSpaceOnUse" x1="109.2002" y1="113.0367" x2="90.768" y2="142.0016">
			<stop  offset="0" style="stop-color:#FFFFFF"/>
			<stop  offset="1" style="stop-color:#FF6347"/>
		</linearGradient>
		<path class="st35" d="M117.8,129.7c1.4,0.5,2.9,1.1,4.3,1.8l0,2.5c-0.4,1-0.7,2-0.8,3c-1.3,0-2.7,0-4.2-0.1
			c-1.7-0.1-3.5-0.4-5.3-0.7c-0.3,0-0.5-0.1-0.8-0.2c-3.9-0.8-7.7-2.1-10.9-4c-4.2-5.3-11.3-13-12.8-19.7l-0.3,0
			c-0.3-2.2-0.5-4.3-0.5-6.2c0.4-1.6,1.7-3.2,3.3-4.8c1.9-0.7,3.7,1.5,4.3,3.3c2.1,3,4.3,6.3,6.1,9.4c1.9,3.4,3.1,7.7,5.6,10.9
			c1.4,0.8,3.8,1.7,5.4,2.3c0.4,0.1,0.7,0.3,0.9,0.4c0,0,0.1,0,0.1,0C114.2,128.5,116,129.1,117.8,129.7z"/>
		<path class="st30" d="M86.2,98.6C86.3,98.6,86.3,98.6,86.2,98.6c0.2-0.2,0.4-0.3,0.5-0.5c0.1-0.1,0.1-0.2,0.2-0.2
			c2.2-2.4,2.3-5.3,2.1-8.2c-0.2-2.2-0.6-4.5-0.5-6.6c-2.1,1.1-3.8,1.8-5,2.3c-1.2,0.5-2.3,1-3.6,1.4c-0.2,0.1-1.1,0.4-2.2,0.9
			c-0.1,0-0.1,0.1-0.2,0.1l0.2,0.3c-0.1,1.8,0.2,3.9,0.7,5.6c-0.7-0.2-1.6-0.1-2.3-0.1c-0.1-0.7-0.6-2.2-0.6-2.2
			c-0.1-0.6-0.6-0.7-1.1-0.4c-0.9,0.5-1,2.2-0.9,3c0.1,0.6,0.5,1.2,1.1,1.5l-0.3,0.6c0,0.9,0,1.8,0,2.7c0,0.3,0,0.6,0,0.9
			c-0.1,0.2-0.2,0.4-0.2,0.5c0,0.3,1.1,4.4,1.1,4.4l5.5,2.1l2.9,2.5l2.4,1.7l0.6-3.3c0,0,0.4-4.6,0.5-5c0.1-0.4-0.6-3.4-0.6-3.4
			L86.2,98.6z"/>
		<linearGradient id="SVGID_26_" gradientUnits="userSpaceOnUse" x1="57.3259" y1="189.6565" x2="92.9366" y2="189.6565">
			<stop  offset="0" style="stop-color:#FFED94"/>
			<stop  offset="1" style="stop-color:#F89D89"/>
		</linearGradient>
		<path class="st36" d="M92.9,181.9c-0.4-9.5-1.2-19-1.8-28.6l-0.1-2.1l-10.4,2.2l-1,0.1h-0.3H66.6l-0.4,4.8
			c-0.6,3.5-1.2,6.9-1.8,9.6c-1.4,6.3-2.8,12.5-3.5,19.1c-1.4,11.9-3.3,23.2-3.3,35.1c0,0.3-0.2,2.9-0.2,3.5c0,0.1-0.1,0.2-0.1,0.2
			c0.7,0.6,1.6,1.9,2.7,2.2c2.1,0.5,4.6,0.4,6.7-0.3c0.5-0.2,1-0.4,1.5-0.6c0.1,0,0.2-0.1,0.3-0.2c2.1-9,3-17.4,5.6-26.3
			c1.7-5.7,3.1-11.7,4.5-17.9c-0.3,8.6,1.5,18.5,1.9,26.7c0.1,2.2,0.6,6.2,0.7,8.6c0,0.1,0,0.1-0.1,0.2c1,0.4,2.2,1.4,3.3,1.2
			c1-0.1,2.1-0.3,2.9-0.6c0.5-0.2,1.2-0.4,2-0.7c0.6-0.2,1.2-0.5,1.6-0.8c0.1,0,0.1-0.1,0.2-0.2C91.7,205.9,93.3,192.7,92.9,181.9z"
			/>
		<linearGradient id="SVGID_27_" gradientUnits="userSpaceOnUse" x1="91.0351" y1="98.103" x2="73.9195" y2="139.356">
			<stop  offset="0" style="stop-color:#FFFFFF"/>
			<stop  offset="1" style="stop-color:#FF6347"/>
		</linearGradient>
		<path class="st37" d="M91.9,130.8c0.2-1.2,0.4-2.3,0.6-3.5c0.7-3.5,0.8-6.9,0.8-10.3c0-1.2,0-2.4-0.1-3.6c0-1.5-0.1-3.1-0.1-4.6
			c0-1.5,0-3,0-4.5c-0.1-0.2-0.3-0.4-0.4-0.6c0,0,0,0,0,0c-0.4-3.1-1.7-4.9-5.8-5c-0.2,0-0.5,0-0.7,0c-0.2,0.2-0.4,0.4-0.6,0.5
			c0.6,1.8-0.9,5.3-0.9,5.3c0,0,0,0.1,0,0.1c0.2,1.7,0.9,3.3,0.9,5.1l-0.1,0c0,0,0,0,0-0.1c-1-1.1-3.3-2.4-3.7-3.3h-0.1
			c-2.4-0.5-5.5-2.4-7.1-4.6c0-0.1-0.1-0.3-0.1-0.4c0-0.2-0.1-0.4-0.1-0.5c-0.1-0.5-0.1-1-0.2-1.5l-0.1,0c-1.1,0.9-1.5,1.9-1.3,2.9
			c0,0,0,0,0,0c-0.1,0.1-0.2,0.1-0.4,0.2c-2.4,1.5-5.2,3.5-7.4,5.6c-0.7,0.9-1.4,2.1-1.9,3.6c-1.2,3.1-1.1,5.9-0.9,7.5
			c0.5,3.1,1,6.3,1.7,9.6c0.7,3.3,1.4,6.6,2.1,9.8c-0.1,4.1-3,8.8,0.7,10.6c-0.3,1.4-0.4,3.8-0.1,5.3c0,0,0.1,0,0.1,0
			c4.2,0.7,8.4,0.8,12.6,0.1c0.4-0.1,0.8-0.1,1.2-0.2c1.2-0.2,2.4-0.3,3.7-0.5c0,0,0.1,0,0.1,0c0.7-0.1,1.3-0.1,2-0.2
			c0.7-0.1,1.4-0.2,2-0.4c0.9-0.2,1.7-0.6,2.5-1c-0.1-1.4-0.2-2.8-0.2-4.2c0.4-0.2,0.8-0.5,1.1-0.8c0.9-0.7,0.7-2.3,0.6-3.5l0.6-7.1
			C92.8,134.5,92.4,132.6,91.9,130.8z"/>
		<linearGradient id="SVGID_28_" gradientUnits="userSpaceOnUse" x1="84.1614" y1="118.1106" x2="66.8264" y2="154.3167">
			<stop  offset="0" style="stop-color:#FFFFFF"/>
			<stop  offset="1" style="stop-color:#FF6347"/>
		</linearGradient>
		<path class="st38" d="M93.4,136c1.4,0.5,2.9,1.1,4.3,1.8l0,2.5c-0.4,1-0.7,2-0.8,3c-1.3,0-2.7,0-4.2-0.1c-1.7-0.1-3.5-0.4-5.3-0.7
			c-0.3,0-0.5-0.1-0.8-0.2c-3.9-0.8-7.7-2.1-10.9-4c-4.2-5.3-11.3-13-12.8-19.7c0,0-0.8-4.3-0.8-6.2c0.4-1.6,1.7-3.2,3.3-4.8
			c1.9-0.7,3.7,1.5,4.3,3.3c2.1,3,4.3,6.3,6.1,9.4c1.9,3.4,3.1,7.7,5.6,10.9c1.4,0.8,3.8,1.7,5.4,2.3c0.4,0.1,0.7,0.3,0.9,0.4
			c0,0,0.1,0,0.1,0C89.8,134.7,91.6,135.4,93.4,136z"/>
	</g>
	<g>
		<g>
			<path class="st31" d="M170.4,190.8c-0.1-0.3-0.2-0.6-0.2-0.9c-0.8-0.7-2.7-0.5-4.1-0.7c-0.6-0.1-1.1,0.2-1.6,0c0,0,0.1,0,0,0
				c-0.8-0.3-2.3-1-3.2-1.6c-0.1,0.1-0.3,0.9-0.4,1c-1.1,1.6-4,4.6-3.9,4.7c-2.3,0.8-3,1.5-3.3,2.5c-0.2,0.5-0.2,1.1-0.4,1.7
				c1.3,0.7,2.4,1.5,3.6,2.1c2.3-0.3,5.6-1.9,8.6-3.8c1.9-1.2,3.6-2.5,4.9-3.7C170.5,191.7,170.5,191.3,170.4,190.8z"/>
			<path class="st31" d="M192.6,198.5c-0.1-0.4-0.3-0.8-0.7-1.6c-0.9,0.3-1.4,0.1-2.5,0.3c-1.3,0.3-3.5,0.2-4.8,0
				c-1.1-0.2-1.6-0.3-2.4-0.8c0-0.8-0.3,1-0.4,1.2c-0.7,1.8-1.4,4.4-2.6,6.3c-0.4,0.7-0.9,1.2-1.5,1.7c0,0-0.1,0-0.1,0.1
				c-1.3,0.9-1.6,1.7-1.6,2.6c0,0.4,0,0.9-0.1,1.4c1.4,0.5,2.6,1.1,3.9,1.5c3.8-1.2,9.8-6.6,12.4-10.3
				C192.7,199.6,192.8,199.1,192.6,198.5z"/>
			<path class="st39" d="M150.5,122.6c-1.4-0.3-2.8-0.9-3.5-1.7c0,0-0.1,0-0.1,0c-0.8,0-2-0.2-2.9-0.3c-0.4,0-0.8,0-1,0
				c-0.2,0-0.3,0.1-0.3,0.1c-0.1,0.3,0.1,0.8,0.5,1.2c0.3,0.3,0.6,0.6,1,0.9c0.6,0.5,1.2,0.8,1.5,1c-0.6,1.5-0.4,1.9-0.9,3.3
				l-0.3,0.2l-0.5,0.4l-1.2,0.9c0.5,0.2,1.1,0.4,1.8,0.6c1,0.3,2,0.6,3,0.7c0.7,0.1,1.4,0.1,2,0.1c0.1,0,0.3,0,0.4-0.1
				c0.6-1.4,1-2.3,1.4-3.4c0.3-0.9-0.2-2,0.2-3.7c0,0,0,0,0.1,0C151.1,122.9,151.2,122.8,150.5,122.6z"/>
			<linearGradient id="SVGID_29_" gradientUnits="userSpaceOnUse" x1="159.2456" y1="159.1091" x2="191.9601" y2="159.1091">
				<stop  offset="0" style="stop-color:#FFFFFF"/>
				<stop  offset="1" style="stop-color:#FF6347"/>
			</linearGradient>
			<path class="st40" d="M191.9,196.8c0-0.5-0.2-3.8-0.2-4c0-10.9-1.7-21.3-3-32.2c-0.6-6-1.9-11.7-3.2-17.5
				c-1.2-4.9-2.5-13.2-3.3-19.1c-0.1,0.1-0.7,0.8-0.8,0.8c-1.9,0.6-3.6,0.6-5.8,0.6l-0.3-0.6l-12.9-4.7l-0.9-0.2l0,0.1l0,0
				c-0.1,2.6-0.2,5.2-0.4,7.7c0,0,0.1,0,0.1,0l-0.3,2.1l-0.3,4.3c0,0.1,0,0.2,0,0.4l-0.2,2.1c-0.5,6.5-1,12.9-1.2,19.3
				c-0.4,10,1.1,22.1,1.6,32.3c0.1,0,0.1,0.1,0.2,0.1c0.9,0.7,2.4,1,3.2,1.3c0.1,0,0.1,0,0.2,0.1c0.5,0.2,1.1,0.3,1.7,0.4
				c1.3,0.2,2.8,0.3,4-0.2c0-0.1,0-0.1-0.1-0.2c0.1-2.2,0.6-6.7,0.7-8.7c0.4-7.5,2.1-16.6,1.7-24.5c1.3,5.6,2.6,11.2,4.1,16.4
				c2.4,8.2,3.2,15.9,5.1,24.1c0.1,0.1,0.2,0.1,0.3,0.2c0.9,0.5,1.9,0.8,3,1c1.4,0.2,2.8,0.2,4.1,0c1.1-0.2,2.1-0.6,2.9-1.3
				C191.9,196.9,191.9,196.8,191.9,196.8z"/>
			<linearGradient id="SVGID_30_" gradientUnits="userSpaceOnUse" x1="161.4905" y1="120.4706" x2="182.7969" y2="120.4706">
				<stop  offset="0" style="stop-color:#FFED94"/>
				<stop  offset="1" style="stop-color:#F89D89"/>
			</linearGradient>
			<path class="st41" d="M182.8,120.9c-0.3,0.1-0.6,0.2-0.8,0.2c-1.6,0.3-3.2,0-5.1,0.1l-8.4-1.9c-0.4-0.1-0.8-0.2-1.2-0.4
				c-2.1-0.8-4.1-2.1-5.8-3.6c0,0.1,0,0.1,0,0.2c0,1.4,0,2.9-0.1,4.3c0.4,0.4,0.9,0.8,1.3,1.1c1.2,0.9,3.8,2.3,3.9,2.2
				c1.3,0.5,6,2.1,8,2.1l0.2,0.3c2.4,0,5-0.1,7.1-0.7c0.1,0,0,0,0.2-0.1c0-0.4,0.1-0.9,0.1-1.2C182.4,122.7,182.6,121.8,182.8,120.9
				z"/>
			<path class="st33" d="M127.4,95.1L127.4,95.1L127.4,95.1C127.4,95.1,127.4,95.1,127.4,95.1z"/>
			<path class="st32" d="M176.8,78c1.6-0.7,2.4-3.4,2.8-4.9c0.3-1.3,0.3-2.6,0.3-3.9c-1.7,0.6-5.2,0.1-6.6,0.3c0,0-0.1,0-0.1,0
				l0,0.3c0.1,1.7-0.2,3.6-0.7,5.1c0.7-0.2,1.5-0.1,2.1-0.1c0.1-0.7,0.3-1.5,0.5-2.2l0.1,0c0.2-0.4,0.6-0.5,1-0.2
				c0.8,0.5,0.9,2.1,0.8,2.8c-0.1,0.5-0.5,1.1-1,1.4l0.2,0.1c0.1,0.4,0.1,0.8,0.1,1.3L176.8,78z"/>
			<linearGradient id="SVGID_31_" gradientUnits="userSpaceOnUse" x1="193.0925" y1="118.6223" x2="175.5207" y2="109.3344">
				<stop  offset="0" style="stop-color:#1E5177"/>
				<stop  offset="0.462" style="stop-color:#84A0B5"/>
				<stop  offset="1" style="stop-color:#FFFFFF"/>
			</linearGradient>
			<path class="st42" d="M186.1,89.4c-2.6,0.2-6.3,5.6-7.5,7.5c-1.5,2.6-2.8,5.8-4.1,8.5c-2.2,4.6-4,9.2-6,13.9
				c-0.4,0.8-0.8,1.7-1.1,2.5c-0.2,0.5-0.5,1-0.7,1.5c-0.3,0.7-0.7,1.4-1,2c-0.5,0.9-1,1.9-1.5,2.8c0,0,0,0,0,0.1
				c0.6,0.8,2,1.6,3.3,2.1c0.7,0.3,1.4,0.5,1.9,0.5c0.6-0.4,1.1-0.7,1.6-1.2c0.3-0.2,0.5-0.4,0.7-0.7c1.2-1.2,2.1-2.5,3-3.9
				c0.8-1.3,1.5-2.6,2.3-4c0.3-0.6,0.7-1.1,1.1-1.7c2.8-4.3,6.6-11.3,8.6-16.2c0.7-4,1.2-7.7,1.3-10.9
				C187.5,91.4,186.9,90.4,186.1,89.4z"/>
			<path class="st30" d="M167.4,130.4c-1.3-0.5-2.7-1.3-3.3-2.1c0,0-0.1,0-0.1,0c-0.7-0.1-2-0.4-2.9-0.6c-0.4-0.1-0.7-0.1-1-0.1
				c-0.2,0-0.3,0-0.3,0.1c-0.2,0.3,0,0.8,0.3,1.3c0.2,0.4,0.5,0.7,0.8,1.1c0.5,0.5,1,1,1.4,1.1c-0.8,1.4-0.7,1.9-1.3,3.2l-0.3,0.2
				l-0.5,0.3l-1.3,0.7c0.5,0.3,1.1,0.5,1.7,0.8c0.9,0.4,1.9,0.8,2.9,1.1c0.7,0.2,1.4,0.3,2,0.3c0.1,0,0.3,0,0.4,0
				c0.8-1.3,1.3-2.1,1.8-3.2c0.4-0.9,0.9-1.9,1.5-3.5c0,0,0,0,0.1,0C168.8,130.9,168.1,130.7,167.4,130.4z"/>
			
				<linearGradient id="SVGID_32_" gradientUnits="userSpaceOnUse" x1="170.1365" y1="135.9275" x2="153.6557" y2="127.2162" gradientTransform="matrix(0.9918 -0.1278 0.1278 0.9918 -13.9358 -6.1361)">
				<stop  offset="0" style="stop-color:#1E5177"/>
				<stop  offset="0.462" style="stop-color:#84A0B5"/>
				<stop  offset="1" style="stop-color:#FFFFFF"/>
			</linearGradient>
			<path class="st43" d="M163.4,79.6c-2.5,0.5-5.6,6.3-6.5,8.4c-1.2,2.7-2,6.1-2.9,9c-1.6,4.9-2.8,9.7-4.2,14.5
				c-0.3,0.9-0.5,1.8-0.8,2.6c-0.2,0.5-0.3,1-0.5,1.6c-0.2,0.7-0.5,1.4-0.8,2.2c-0.4,1-0.8,2-1.2,3c0,0,0,0,0.1,0.1
				c0.7,0.7,2.2,1.3,3.5,1.7c0.7,0.2,1,0.6,1.6,0.6c0.5-0.4,1.4-1.1,1.8-1.6c0.2-0.2,0.4-0.5,0.6-0.7c1-1.3,1.8-2.8,2.5-4.3
				c0.6-1.4,1.2-2.8,1.8-4.2c0.3-0.6,0.5-1.2,0.9-1.8c2.2-4.6,5.1-12.1,6.4-17.2c0.2-4,0.2-7.8-0.1-11
				C165,81.4,164.3,80.5,163.4,79.6z"/>
			<linearGradient id="SVGID_33_" gradientUnits="userSpaceOnUse" x1="174.7053" y1="71.0086" x2="172.0122" y2="89.2613">
				<stop  offset="0" style="stop-color:#1E5177"/>
				<stop  offset="0.462" style="stop-color:#84A0B5"/>
				<stop  offset="1" style="stop-color:#FFFFFF"/>
			</linearGradient>
			<path class="st44" d="M178.3,83.1c-0.7-0.4-1.3-0.8-1.9-1.1c0,0,0,0,0,0c-0.3,0.8-3.4,1.7-6,1.4c-0.2,0-0.4,0-0.6-0.1
				c-0.2,0-0.4-0.1-0.6-0.1c-1-0.3-1.8-0.8-2.2-1.6c-0.1-0.3-0.2-0.6-0.2-1c-0.2-0.1-0.4-0.2-0.5-0.3c-0.1-0.1-0.2-0.1-0.3-0.2
				c-3,3.7-3.4,9.6-3.4,14.4c1.2,0.5,2.4,1,3.6,1.5c2.1,0.9,4.1,1.8,6.1,2.8c0.1-0.5,0.2-1,0.3-1.5c2.6-3.2,3.8-11.4,9.2-11.6
				C180.6,84.6,179.4,83.8,178.3,83.1z"/>
			<path class="st30" d="M176.3,72.4c-0.4-0.3-0.8-0.2-1,0.2l-0.1,0c-0.2,0.7-0.5,1.5-0.5,2.2c-0.7,0-1.5-0.1-2.1,0.1
				c0.5-1.5,0.7-3.5,0.7-5.1l0-0.3c0,0,0.1,0,0.1,0c0,0,0,0-0.1,0c-0.5,0.2-1,0.3-1.5,0.5c-2.9,0.8-6,1.4-8.9,1.4
				c-0.2,2.7-0.1,5.3,1.9,7.5c0.2,0.2,0.4,0.4,0.6,0.6c0.2,0.2,0.5,0.4,0.7,0.6c0.1,0.1,0.2,0.1,0.3,0.2c0.2,0.1,0.4,0.2,0.5,0.3
				c0,0.4,0.1,0.7,0.2,1c0.3,0.9,1.2,1.4,2.2,1.6c0.2,0,0.4,0.1,0.6,0.1c0.2,0,0.4,0.1,0.6,0.1c2.6,0.3,5.7-0.6,6-1.4c0,0,0,0,0,0
				c0-1.1,0-2.3,0-3.4c0-0.2,0-0.3,0-0.5c0-0.4,0-0.9-0.1-1.3l-0.2-0.1c0.5-0.4,0.9-0.9,1-1.4C177.2,74.5,177.1,72.9,176.3,72.4z"/>
			<g>
				<linearGradient id="SVGID_34_" gradientUnits="userSpaceOnUse" x1="221.8829" y1="120.1227" x2="156.7016" y2="95.4848">
					<stop  offset="0" style="stop-color:#1E5177"/>
					<stop  offset="0.462" style="stop-color:#84A0B5"/>
					<stop  offset="1" style="stop-color:#FFFFFF"/>
				</linearGradient>
				<path class="st45" d="M186.1,89.4c-1.1-1.4-2.7-2.7-4.3-3.9c-5.4,0.2-6.6,8.5-9.2,11.6c-0.1,0.5-0.2,1-0.3,1.5
					c-2-1-4-1.9-6.1-2.8c-1.2-0.5-2.4-1-3.6-1.5c0-4.7,0.4-10.6,3.4-14.4c-0.2-0.2-0.5-0.4-0.7-0.6c-4.1,0-5.5,1.5-5.9,4.4
					c-0.1,0.1-0.2,0.3-0.4,0.4c0.1,3.8-0.1,7.5-0.2,11.2c-0.1,3.4,0.1,6.9,0.7,10.4c0,0.3,0.1,0.6,0.1,0.9c0.4,2.6,1,5.3,1.6,7.8
					c0.1,0.3,0.1,0.5,0.2,0.7c0,0,0,0,0.1,0c1.7,1.5,3.7,2.8,5.8,3.6c0.4,0.1,0.8,0.3,1.2,0.4c2.1-4.6,3.9-9.2,6-13.9
					c1.3-2.8,2.6-6,4.1-8.5C179.8,95,183.5,89.7,186.1,89.4z"/>
				<linearGradient id="SVGID_35_" gradientUnits="userSpaceOnUse" x1="201.6794" y1="119.8392" x2="175.8127" y2="110.0618">
					<stop  offset="0" style="stop-color:#1E5177"/>
					<stop  offset="0.462" style="stop-color:#84A0B5"/>
					<stop  offset="1" style="stop-color:#FFFFFF"/>
				</linearGradient>
				<path class="st46" d="M178,119.6c-0.4,0.6-0.7,1.1-1.1,1.7c1.9-0.1,3.5,0.2,5.1-0.1c0.3-0.1,0.6-0.1,0.8-0.2
					c1.1-5.3,2.6-11.7,3.7-17.6C184.6,108.2,180.7,115.3,178,119.6z"/>
			</g>
			<linearGradient id="SVGID_36_" gradientUnits="userSpaceOnUse" x1="157.9059" y1="65.2355" x2="180.2789" y2="65.2355">
				<stop  offset="0" style="stop-color:#F37201"/>
				<stop  offset="0.16" style="stop-color:#F37201;stop-opacity:0.8"/>
				<stop  offset="0.34" style="stop-color:#F37201;stop-opacity:0.62"/>
				<stop  offset="0.52" style="stop-color:#F37201;stop-opacity:0.48"/>
				<stop  offset="0.69" style="stop-color:#F37201;stop-opacity:0.38"/>
				<stop  offset="0.85" style="stop-color:#F37201;stop-opacity:0.32"/>
				<stop  offset="1" style="stop-color:#F37201;stop-opacity:0.3"/>
			</linearGradient>
			<path class="st47" d="M180.1,65.6c-0.5-2.5-2.6-5.1-4.8-5.9c-1.9-0.7-3.3-0.5-5.4-0.3c-2.7,0.3-6.1,3-6.9,5.7c0,0,0,0,0,0
				c0,0,0,0,0,0c-5.4,0.3-7.5,5.5-1.7,6.1c0.5,0,1,0.1,1.5,0.1c2.9,0,6-0.5,8.9-1.4c0.5-0.2,1-0.3,1.5-0.5c0,0,0,0,0.1,0
				c1.4-0.1,4.9,0.3,6.6-0.3c0.1,0,0.3-0.1,0.4-0.1C180.3,69.1,180.4,67.2,180.1,65.6z"/>
		</g>
		<g>
			<path class="st48" d="M154,125l-0.4,16.1l-12.8-7.4c-0.6-0.4-1-1-1-1.7v-14.8L154,125z"/>
			<path class="st48" d="M153.6,125.1l13.8-8v14.9c0,0.6-0.3,1.2-0.9,1.6l-12.9,7.4V125.1z"/>
			<path class="st48" d="M139.8,117.2l13-7.5c0.5-0.3,1.2-0.3,1.7,0l13,7.5l-13.8,8L139.8,117.2z"/>
			<g>
				<polygon class="st49" points="159.7,128.5 161.5,127.5 161.5,120.6 159.8,121.6 				"/>
				<polygon class="st49" points="145.9,113.6 159.8,121.6 161.5,120.6 147.7,112.6 				"/>
			</g>
			<g>
				<polygon class="st49" points="145.9,127.6 147.7,128.6 147.7,121.8 145.9,120.7 				"/>
				<polygon class="st49" points="159.7,112.7 145.9,120.7 147.7,121.7 161.5,113.8 				"/>
			</g>
		</g>
	</g>
</g>
</svg>
