<?xml version="1.0" encoding="utf-8"?>
<!-- Generator: Adobe Illustrator 21.0.2, SVG Export Plug-In . SVG Version: 6.00 Build 0)  -->
<svg version="1.1" id="Layer_1" xmlns="http://www.w3.org/2000/svg" xmlns:xlink="http://www.w3.org/1999/xlink" x="0px" y="0px"
	 viewBox="0 0 267.8 285.3" style="enable-background:new 0 0 267.8 285.3;" xml:space="preserve">
<style type="text/css">
	.st0{fill:#004794;}
	.st1{opacity:0.6;fill:#001355;enable-background:new    ;}
	.st2{fill:url(#SVGID_1_);}
	.st3{fill:#A81C00;}
	.st4{fill:#FFFFFF;}
	.st5{fill:#DD9E73;}
	.st6{fill:url(#SVGID_2_);}
	.st7{fill:#1E5177;}
	.st8{fill:url(#SVGID_3_);}
	.st9{fill:#594A42;}
	.st10{fill:url(#SVGID_4_);}
	.st11{fill:#BA3A20;}
	.st12{fill:url(#SVGID_5_);}
</style>
<g>
	<path class="st0" d="M199.4,239.9c5.7-5.7,12.4-10.4,20.2-12.4c9.4-2.6,18.5-8.4,25.3-16.5c10-11.8,21.2-21.7,17.8-36.6
		c-12.7-55.2,31.2-76.4-21.9-104c-65.7-34.2-65.6-24.8-96.3-43.1S90.8-17.5,59.3,16.3C47,29.5,30.4,46.6,23.7,64
		c-3.9,10.2-7.4,22.8-4.6,33.4c3.7,13.9,11.2,27.3,12.3,41.8c0.8,11.1-3.8,22.5-7.4,32.9c-14.2,40.7-45.4,44.2-1.3,81.6
		c33.4,28.2,89,36.5,131.1,29.3c8.8-1.5,14.8-8.8,20.9-15C183.3,258.9,190.6,248.6,199.4,239.9z"/>
	<g>
		<ellipse class="st1" cx="132.6" cy="240.1" rx="29.3" ry="8.6"/>
		<g>
			<linearGradient id="SVGID_1_" gradientUnits="userSpaceOnUse" x1="59.5102" y1="123.6708" x2="194.5102" y2="123.6708">
				<stop  offset="0" style="stop-color:#FFD297"/>
				<stop  offset="1" style="stop-color:#F89D89"/>
			</linearGradient>
			<path class="st2" d="M191.4,189.2H62.6c-1.7,0-3.1-1.4-3.1-3.1V61.3c0-1.7,1.4-3.1,3.1-3.1h128.8c1.7,0,3.1,1.4,3.1,3.1V186
				C194.5,187.8,193.1,189.2,191.4,189.2z"/>
			<g>
				<path class="st3" d="M190.2,150.8H65.8V95h124.4V150.8z M67.3,149.4h121.4V96.5H67.3V149.4z"/>
			</g>
			<rect x="65.4" y="67.8" class="st3" width="58" height="1.1"/>
			<rect x="65.4" y="71.9" class="st3" width="58" height="1.1"/>
			<rect x="65.4" y="76" class="st3" width="58" height="1.1"/>
			<rect x="65.4" y="80.2" class="st3" width="58" height="1.1"/>
			<rect x="155.4" y="68.6" class="st3" width="34" height="1.1"/>
			<rect x="155.4" y="72.8" class="st3" width="34" height="1.1"/>
			<rect x="155.4" y="76.9" class="st3" width="34" height="1.1"/>
			<rect x="155.4" y="81" class="st3" width="34" height="1.1"/>
			<rect x="65.4" y="156.9" class="st3" width="58" height="1.1"/>
			<rect x="65.4" y="161.1" class="st3" width="58" height="1.1"/>
			<rect x="65.4" y="165.2" class="st3" width="58" height="1.1"/>
			<rect x="65.4" y="169.3" class="st3" width="58" height="1.1"/>
			<rect x="150.4" y="155" class="st3" width="34" height="1.1"/>
			<rect x="150.4" y="159.1" class="st3" width="34" height="1.1"/>
			<g>
				<path class="st4" d="M110.3,93v-8h1.6v8H110.3z"/>
				<path class="st4" d="M113.4,93v-8h1.6l3.3,5.4V85h1.5v8h-1.6l-3.2-5.2V93H113.4z"/>
				<path class="st4" d="M123.6,93l-2.9-8h1.8l2,5.9l2-5.9h1.7l-2.9,8H123.6z"/>
				<path class="st4" d="M128.7,89c0-0.8,0.1-1.5,0.4-2.1c0.2-0.4,0.4-0.8,0.7-1.1c0.3-0.3,0.7-0.6,1-0.7c0.5-0.2,1.1-0.3,1.7-0.3
					c1.2,0,2.1,0.4,2.8,1.1c0.7,0.7,1.1,1.8,1.1,3.1c0,1.3-0.4,2.3-1.1,3c-0.7,0.7-1.6,1.1-2.8,1.1c-1.2,0-2.1-0.4-2.8-1.1
					C129,91.3,128.7,90.3,128.7,89z M130.3,89c0,0.9,0.2,1.6,0.6,2.1s1,0.7,1.6,0.7c0.6,0,1.2-0.2,1.6-0.7s0.6-1.2,0.6-2.1
					c0-0.9-0.2-1.6-0.6-2.1c-0.4-0.5-0.9-0.7-1.6-0.7c-0.7,0-1.2,0.2-1.6,0.7S130.3,88.1,130.3,89z"/>
				<path class="st4" d="M137.7,93v-8h1.6v8H137.7z"/>
				<path class="st4" d="M146,90.1l1.6,0.5c-0.2,0.9-0.6,1.5-1.2,2c-0.6,0.4-1.3,0.6-2.1,0.6c-1.1,0-1.9-0.4-2.6-1.1s-1-1.7-1-3
					c0-1.3,0.3-2.4,1-3.1s1.6-1.1,2.7-1.1c1,0,1.8,0.3,2.4,0.9c0.4,0.3,0.6,0.8,0.8,1.5l-1.6,0.4c-0.1-0.4-0.3-0.7-0.6-1
					c-0.3-0.2-0.7-0.4-1.1-0.4c-0.6,0-1.1,0.2-1.4,0.6c-0.4,0.4-0.6,1.1-0.6,2.1c0,1,0.2,1.7,0.5,2.2s0.8,0.6,1.4,0.6
					c0.4,0,0.8-0.1,1.1-0.4S145.8,90.6,146,90.1z"/>
				<path class="st4" d="M148.9,93v-8h5.9v1.4h-4.3v1.8h4v1.4h-4v2.2h4.5V93H148.9z"/>
			</g>
		</g>
		<g>
			<path class="st5" d="M135.9,198.4c0.1,1.1,0.5,1.6,1,2.3c0.3,0.3,1.3,2.5,1.5,2.5c0.3,0.1,1.7,1.5,2.2-0.9c0.1-0.3-0.3-2.3-1-4.1
				C138.5,195.4,135.8,196.7,135.9,198.4z"/>
			
				<linearGradient id="SVGID_2_" gradientUnits="userSpaceOnUse" x1="519.6015" y1="141.691" x2="522.9594" y2="118.857" gradientTransform="matrix(-0.6131 0.79 0.79 0.6131 348.4701 -307.1411)">
				<stop  offset="0" style="stop-color:#FFFFFF"/>
				<stop  offset="1" style="stop-color:#F7CE84"/>
			</linearGradient>
			<path class="st6" d="M130.2,188.8c0,0,0.1,0.1,0,0.2c0.5,2.4,1.5,3.6,5.2,8.8c0.1-0.1,0.3,0.2,0.4,0.3c0.8-0.9,1.4-1.3,2.8-1.3
				c-0.1-0.3-0.2-1.1-0.2-1.1c-0.5-1.4-1.1-2.8-1.9-4.3c0.2-2.1-0.9-5.3-1.1-8.1c-0.5-4.6-1.7-11.2-6.3-10.5
				c-3.8,0.7-2.8,6.6-1.2,11C128.9,185.3,129.5,187.2,130.2,188.8L130.2,188.8L130.2,188.8z"/>
		</g>
		<path class="st7" d="M134.3,233.1c1.1-0.4,4.1-1.1,5.1-0.2c1,0.9,0.7,3.5-2.2,4.7c-3,1.2-5.4,0.7-5.4,1.5c0,0.7-2.2,1.4-4.1,0.9
			c-1.8-0.5-2-3.3-0.9-4.8C127.7,233.7,131.6,234.2,134.3,233.1z"/>
		<path class="st7" d="M142,237.6c1.1-0.4,4.1-1.1,5.1-0.2c1,0.9,0.7,3.5-2.2,4.7c-3,1.2-5.4,0.7-5.4,1.5s-2.2,1.4-4.1,0.9
			c-1.8-0.5-2-3.3-0.9-4.8C135.6,238.2,139.3,238.5,142,237.6z"/>
		
			<linearGradient id="SVGID_3_" gradientUnits="userSpaceOnUse" x1="124.7191" y1="66.7309" x2="142.4242" y2="66.7309" gradientTransform="matrix(1 0 0 -1 0 288)">
			<stop  offset="0" style="stop-color:#1E5177"/>
			<stop  offset="0.462" style="stop-color:#84A0B5"/>
			<stop  offset="1" style="stop-color:#FFFFFF"/>
		</linearGradient>
		<path class="st8" d="M142.4,205.4c-1.7-1-5.2-1.4-7.8-0.9c0-1.4,0-2.5,0-3.5c-2.3-1.5-7.8-1.5-9.9,0.5c-0.2,7.9,1.6,14.5,1.1,19.5
			c-0.5,4.9-0.1,14.1,0.1,15.3c1,1.7,3.9,2.8,7.3,0.6c0.1,0.5,0.2,1,0.4,1.4c0.1,1.2,0.1,2.1,0.2,2.3c1.1,1.8,4.4,3.1,8,0
			c0,0,0.1-3.1,0.4-7.8C142.5,228.6,142.4,212.2,142.4,205.4z"/>
		<path class="st5" d="M133.6,161c-3.3,0.6-5.1,4.1-4.1,7.8c0.3,1.2,1,2.2,1.8,3.1l1.2,6.7l5.6-1l-0.6-3.2c0.2,0,0.5-0.1,0.7-0.1
			c3.3-0.6,3.9-3.9,3-7.6C140.2,162.9,136.9,160.4,133.6,161z"/>
		<path class="st9" d="M131.3,158.8c2.8-1.3,7.6-0.5,9.2,2.2c1.1,2.2,1,3.3,0.1,5.2c-0.3,0.6-0.7,1.4-0.9,2.4
			c-0.2,1.5-0.6,1.5-1.7,0.6c-0.9-1-1.6-2-2.3,0.3c-0.7,2.1-2.2,3.7-3.1,3.5c-1.3-0.4-1.8-1.2-3.4-3.8
			C128.3,167.7,126,161.1,131.3,158.8z"/>
		
			<linearGradient id="SVGID_4_" gradientUnits="userSpaceOnUse" x1="104.3902" y1="62.3985" x2="127.5565" y2="62.3985" gradientTransform="matrix(0.9862 -0.1658 -0.1658 -0.9862 30.3434 270.729)">
			<stop  offset="0" style="stop-color:#FFFFFF"/>
			<stop  offset="1" style="stop-color:#FF6347"/>
		</linearGradient>
		<path class="st10" d="M143.1,196.3c0.9-3.5,2.6-10,2-12c-0.5-2-3.7-5.3-5.3-6.3c-0.1-0.1-0.4-0.2-0.5-0.4l0,0l0,0
			c-0.2-0.1-0.5-0.4-0.7-0.5c0,0-0.1,0-0.1-0.1c-0.1-0.1-0.2-0.1-0.2-0.2l0,0c-0.1-0.1-0.2-0.1-0.4-0.2l-0.1-0.1
			c-2.3,0.2-4.7-0.4-5.5-2.8c-0.2-0.1-0.4-0.1-0.6-0.2l0,0l0,0c-0.1,0-0.2-0.1-0.4-0.1l0,0l0,0c-1-0.4-1.8-0.6-2.5-0.5
			c-2.3,0.1-3.1,4.8-3.1,8.6c0.1,3.9,0.1,7.9-0.6,10.7c-0.6,3-0.9,10.6,0.2,11.7c1.1,1,4.8,4.1,10,3.9c5.1-0.1,10.1-1.6,9.6-3.2
			C144.4,203,142.3,199.7,143.1,196.3z"/>
		<path class="st11" d="M162.2,167.8l-1.2-7.4c0-0.1-0.1-0.2-0.2-0.2l-0.1-0.4l-0.3-0.3l-0.1,0.4l0.1,0.4c-0.1,0.1-0.2,0.1-0.1,0.3
			l1.2,7.4c0,0.1,0.2,0.2,0.3,0.2l0.3,0C162.1,168,162.2,167.9,162.2,167.8z"/>
		<g>
			<path class="st5" d="M160.1,167.5c0.9-0.7,1.1-1.2,1.4-2.2c0.1-0.4,1.4-2.4,1.1-2.7c-0.1-0.3,0.4-2.4-1.9-1.3
				c-0.3,0.1-1.7,1.5-2.8,3.1C156.1,167.1,158.7,168.7,160.1,167.5z"/>
			
				<linearGradient id="SVGID_5_" gradientUnits="userSpaceOnUse" x1="131.0225" y1="231.977" x2="134.3804" y2="209.1431" gradientTransform="matrix(0.9986 5.265831e-02 5.265831e-02 -0.9986 7.2511 392.1124)">
				<stop  offset="0" style="stop-color:#FFFFFF"/>
				<stop  offset="1" style="stop-color:#FF6347"/>
			</linearGradient>
			<path class="st12" d="M155.5,177.7c0,0,0-0.1,0.1-0.1c1.6-1.8,2.9-3.1,5.1-9c-0.1,0-0.1-0.4,0-0.5c-1.2-0.2-2.8-0.8-3.5-1.9
				c-0.2,0.2-0.8,0.9-0.9,0.7c-0.8,1.1-1.8,2.6-2.6,4c-1.9,1-3.9,3.7-5.9,5.6c-3.4,3-8.3,7.9-5.1,11.1c2.6,2.7,7.1-1.6,9.8-5.3
				C153.4,180.7,154.5,179.3,155.5,177.7L155.5,177.7L155.5,177.7z"/>
		</g>
	</g>
</g>
</svg>
