<?xml version="1.0" encoding="utf-8"?>
<!-- Generator: Adobe Illustrator 21.0.2, SVG Export Plug-In . SVG Version: 6.00 Build 0)  -->
<svg version="1.1" id="Layer_1" xmlns="http://www.w3.org/2000/svg" xmlns:xlink="http://www.w3.org/1999/xlink" x="0px" y="0px"
	 viewBox="0 0 245.2 261.2" style="enable-background:new 0 0 245.2 261.2;" xml:space="preserve">
<style type="text/css">
	.st0{fill:#284191;}
	.st1{fill:#242D6B;}
	.st2{fill:url(#SVGID_1_);}
	.st3{fill:url(#SVGID_2_);}
	.st4{fill:url(#SVGID_3_);}
	.st5{opacity:0.5;fill:#FF6347;}
	.st6{fill:url(#SVGID_4_);}
	.st7{opacity:0.25;fill:#FFFFFF;}
	.st8{fill:url(#SVGID_5_);}
	.st9{opacity:0.5;fill:#FFFFFF;}
	.st10{fill:#F7B541;}
	.st11{fill:#FF6347;}
	.st12{fill:#FFFFFF;}
</style>
<path class="st0" d="M182.6,219.7c5.2-5.2,11.4-9.5,18.5-11.4c8.6-2.4,16.9-7.7,23.2-15.1c9.2-10.8,19.4-19.9,16.3-33.5
	c-11.6-50.6,28.6-70-20.1-95.3c-60.2-31.3-60.1-22.7-88.2-39.5s-49.1-40.9-78-10C43,27,27.8,42.7,21.7,58.6
	c-3.6,9.3-6.8,20.9-4.2,30.6c3.4,12.7,10.3,25,11.3,38.3c0.7,10.2-3.5,20.6-6.8,30.1c-13,37.3-41.6,40.5-1.2,74.7
	c30.6,25.8,81.5,33.4,120.1,26.8c8.1-1.4,13.6-8.1,19.1-13.7C167.9,237.1,174.6,227.7,182.6,219.7z"/>
<ellipse class="st1" cx="113.6" cy="190.6" rx="59" ry="12.2"/>
<g>
	<g>
		<linearGradient id="SVGID_1_" gradientUnits="userSpaceOnUse" x1="161.8855" y1="190.4981" x2="161.7822" y2="196.179">
			<stop  offset="0" style="stop-color:#FFFFFF"/>
			<stop  offset="1" style="stop-color:#F7CE84"/>
		</linearGradient>
		<path class="st2" d="M158.2,193.9h7.5c1.3,0,2.4-1.1,2.4-2.4v-6h-12.2v6C155.8,192.9,156.9,193.9,158.2,193.9z"/>
		<linearGradient id="SVGID_2_" gradientUnits="userSpaceOnUse" x1="70.7064" y1="188.8434" x2="70.6031" y2="194.5244">
			<stop  offset="0" style="stop-color:#FFFFFF"/>
			<stop  offset="1" style="stop-color:#F7CE84"/>
		</linearGradient>
		<path class="st3" d="M67,193.9h7.5c1.3,0,2.4-1.1,2.4-2.4v-6H64.6v6C64.6,192.9,65.7,193.9,67,193.9z"/>
		<linearGradient id="SVGID_3_" gradientUnits="userSpaceOnUse" x1="57.1782" y1="127.1255" x2="175.4527" y2="127.1255">
			<stop  offset="0" style="stop-color:#F7CE84"/>
			<stop  offset="1" style="stop-color:#FFFFFF"/>
		</linearGradient>
		<path class="st4" d="M65.1,189.2h102.5c4.4,0,7.9-3.5,7.9-7.9V72.9c0-4.4-3.5-7.9-7.9-7.9H65.1c-4.4,0-7.9,3.5-7.9,7.9v108.4
			C57.2,185.7,60.7,189.2,65.1,189.2z"/>
		<path class="st5" d="M74.5,177.7h83.5c3.5,0,6.4-2.9,6.4-6.4V82.9c0-3.5-2.9-6.4-6.4-6.4H74.5c-3.5,0-6.4,2.9-6.4,6.4v88.4
			C68.1,174.9,71,177.7,74.5,177.7z"/>
		<linearGradient id="SVGID_4_" gradientUnits="userSpaceOnUse" x1="69.9769" y1="127.1254" x2="162.654" y2="127.1254">
			<stop  offset="0" style="stop-color:#FFFFFF"/>
			<stop  offset="1" style="stop-color:#F7CE84"/>
		</linearGradient>
		<path class="st6" d="M162.7,173.4V80.9c0-1.4-1.1-2.5-2.5-2.5H72.5c-1.4,0-2.5,1.1-2.5,2.5v92.5c0,1.4,1.1,2.5,2.5,2.5h87.7
			C161.5,175.9,162.7,174.8,162.7,173.4z"/>
		<path class="st7" d="M70,79.5c0-0.4,0.2-0.7,0.4-0.9l92.3,92.3v3.8c0,0.6-0.5,1.2-1.2,1.2H146l-76-76V79.5z"/>
		<polygon class="st7" points="162.7,119.2 121.8,78.4 145.4,78.4 162.7,95.6 		"/>
		<radialGradient id="SVGID_5_" cx="92.5671" cy="127.1255" r="8.0873" gradientUnits="userSpaceOnUse">
			<stop  offset="0" style="stop-color:#FFFFFF"/>
			<stop  offset="1" style="stop-color:#F7CE84"/>
		</radialGradient>
		<circle class="st8" cx="92.6" cy="127.1" r="8.1"/>
		<circle class="st9" cx="92.6" cy="127.5" r="4.9"/>
		<path class="st5" d="M92.6,146.7L92.6,146.7c1.8,0,3.2-1.4,3.2-3.2v-15.4c0-1.8-1.4-3.2-3.2-3.2l0,0c-1.8,0-3.2,1.4-3.2,3.2v15.4
			C89.4,145.3,90.8,146.7,92.6,146.7z"/>
		<g>
			<circle class="st5" cx="77.7" cy="127.2" r="2.4"/>
			<path class="st5" d="M79,129.3c0,1.3,0,2.6,0,3.8c0,0.7-0.6,1.2-1.2,1.2s-1.2-0.6-1.2-1.2c0-1.3,0-2.6,0-3.8
				c0.1,0.1,0.3,0.2,0.5,0.2c0.4,0.1,0.7,0.1,0.8,0.1c0.4,0,0.7-0.1,0.9-0.2C78.8,129.4,78.9,129.3,79,129.3z"/>
		</g>
	</g>
	<g>
		<g>
			<path class="st10" d="M178.7,137.9h-16h0h-16c0,0-2.4,4.3-5.8,4.7c-11.9,41,21.8,51.1,21.8,51.1h0c0,0,33.8-10.1,21.8-51.1
				C181.2,142.1,178.7,137.9,178.7,137.9z"/>
			<path class="st11" d="M190.1,139.1l-0.3-1.1l-1.3-0.1c-2.4-0.3-4.7-3.4-5.4-4.5l-0.5-0.9h-40l-0.5,0.9c-0.6,1.1-3,4.2-5.4,4.5
				l-1.3,0.1l-0.3,1.1c-14.4,48.8,26.5,60.9,26.9,61l0.5,0.1l0.5-0.1C163.6,199.9,204.5,187.5,190.1,139.1z M162.7,196.7
				c-4.9-1.7-35.9-14-24.1-55.8c3.1-0.9,5.3-3.6,6.4-5.1h35.5c1,1.5,3.3,4.2,6.4,5.1C198.6,182.7,167.6,195,162.7,196.7z"/>
		</g>
		<path class="st12" d="M171.7,157h-1.2c0-5.5-3.3-8.6-7.8-8.6c-4.5,0-7.8,3.2-7.8,8.6h-1.2c-1.8,0-2.4,0.7-2.4,2.5V171
			c0,1.8,0.6,3.5,2.4,3.5h18.1c1.8,0,2.9-1.7,2.9-3.5v-11.5C174.6,157.7,173.5,157,171.7,157z M164.7,171h-4.1l0.8-5.7
			c-0.8-0.5-1.4-1.4-1.4-2.4c0-1.5,1.2-2.7,2.6-2.7c1.5,0,2.6,1.2,2.6,2.6c0,1-0.6,2.1-1.4,2.5L164.7,171z M157.3,157
			c0-5,2.7-6.2,5.3-6.2c2.7,0,5.3,1.1,5.3,6.2H157.3z"/>
	</g>
</g>
</svg>
