<?xml version="1.0" encoding="utf-8"?>
<!-- Generator: Adobe Illustrator 21.0.2, SVG Export Plug-In . SVG Version: 6.00 Build 0)  -->
<svg version="1.1" id="Layer_1" xmlns="http://www.w3.org/2000/svg" xmlns:xlink="http://www.w3.org/1999/xlink" x="0px" y="0px"
	 viewBox="0 0 155.3 146.3" style="enable-background:new 0 0 155.3 146.3;" xml:space="preserve">
<style type="text/css">
	.st0{fill:#EB6930;}
	.st1{fill:#C64A1E;}
	.st2{fill:url(#SVGID_1_);}
	.st3{fill:#F89D89;}
	.st4{fill:#FFFFFF;}
	.st5{font-family:'Arial-BoldMT';}
	.st6{font-size:4.2379px;}
	.st7{fill:#DD9E73;}
	.st8{fill:url(#SVGID_2_);}
	.st9{fill:#1E5177;}
	.st10{fill:url(#SVGID_3_);}
	.st11{fill:#594A42;}
	.st12{fill:url(#SVGID_4_);}
	.st13{fill:url(#SVGID_5_);}
</style>
<g>
	<path class="st0" d="M103,108.7c4.7-4.5,9.9-8.6,15.9-11.2c7.1-3,10-3.9,13.7-7.9c22.1-23.8,38.1-51.6-1.4-53.7
		c-39.4-2.2-38.5-8.3-54.9-18.1C59.9,8,47.8-7,29.6,3.7C21.2,8.6,11.9,13.8,6.3,22C1.6,29,1,37.5,2.4,45.6
		c1.2,6.8,2.2,13.9,4.2,20.5c1,3.3,2.6,6.5,2.8,10c0.3,5-1.8,10.3-3.4,14.9c-7.6,21.7-10.5,23.8,7.6,46.2c8.9,11,25,9.8,38.4,7.8
		c6.4-0.9,12.9-1.3,19-3.7c5.3-2.1,9.2-6.2,13-10.3c6.6-7,12.4-14.8,18.9-22C102.8,108.9,102.9,108.8,103,108.7z"/>
	<g>
		<ellipse class="st1" cx="43.5" cy="112.3" rx="21.7" ry="6.4"/>
		<g>
			
				<linearGradient id="SVGID_1_" gradientUnits="userSpaceOnUse" x1="148.1756" y1="81.0334" x2="148.1756" y2="76.198" gradientTransform="matrix(0.915 0.2852 0 1 -50.5394 -78.7464)">
				<stop  offset="0.4802" style="stop-color:#F89D89"/>
				<stop  offset="0.5" style="stop-color:#FFD297"/>
			</linearGradient>
			<polygon class="st2" points="135.7,60.3 34.4,28.7 34.4,23.9 135.7,55.5 			"/>
			<polygon class="st3" points="64,45.1 61.9,46.3 59.9,43.8 59.9,36.5 64,37.8 			"/>
			<text transform="matrix(0.915 0.2852 0 1 27.3445 19.3551)" class="st4 st5 st6">Minimum</text>
			<text transform="matrix(0.915 0.2852 0 1 126.6453 50.308)" class="st4 st5 st6">Maximum</text>
		</g>
		<path class="st7" d="M64.7,49.2c0-1.2,0-1.8-0.7-2.6c-0.7-0.7-1.3-0.7-1.3-0.7c-0.4-0.9-1.4-0.8-1.3,0.3c0,0-0.1-2.1-1-2
			c-0.3,0.1-0.1,2.4,0.4,4.4C61.5,52,64.6,51.1,64.7,49.2z"/>
		<g>
			
				<linearGradient id="SVGID_2_" gradientUnits="userSpaceOnUse" x1="11.4637" y1="368.4301" x2="19.6595" y2="368.4301" gradientTransform="matrix(0.9981 -6.208917e-02 6.208917e-02 0.9981 -4.1376 -308.1181)">
				<stop  offset="0" style="stop-color:#FFFFFF"/>
				<stop  offset="1" style="stop-color:#F7CE84"/>
			</linearGradient>
			<path class="st8" d="M37.1,48.3c4.3,0.8,3.3,7.2,2.2,11.4c-0.9,4-0.6,9.4-3.7,9.1c-3.5-0.3-3.1-6.5-3.2-11
				C32.5,53.5,33.5,47.7,37.1,48.3z"/>
			<path class="st9" d="M41.7,106c1.1-0.4,3.9-1,4.8-0.2c0.9,0.9,0.7,3.3-2.2,4.5c-2.8,1.2-5.1,0.8-5.1,1.4c0,0.7-2.1,1.3-3.8,0.8
				c-1.8-0.5-1.9-3.2-0.9-4.6C35.5,106.6,39.1,106.9,41.7,106z"/>
			<path class="st9" d="M49.2,110.1c1.1-0.4,3.9-1,4.8-0.2c0.9,0.9,0.7,3.3-2.2,4.5c-2.8,1.2-5.1,0.8-5.1,1.4c0,0.7-2.1,1.3-3.8,0.8
				c-1.8-0.5-1.9-3.2-0.9-4.6C42.9,110.7,46.6,111.1,49.2,110.1z"/>
			
				<linearGradient id="SVGID_3_" gradientUnits="userSpaceOnUse" x1="32.5445" y1="365.1603" x2="49.4842" y2="365.1603" gradientTransform="matrix(1 0 0 1 0 -270.6449)">
				<stop  offset="0" style="stop-color:#1E5177"/>
				<stop  offset="0.462" style="stop-color:#84A0B5"/>
				<stop  offset="1" style="stop-color:#FFFFFF"/>
			</linearGradient>
			<path class="st10" d="M49.4,79.4c-1.6-0.9-4.9-1.4-7.5-0.8c0-1.2,0-2.4,0-3.3c-2.2-1.4-7.5-1.4-9.4,0.4
				c-0.3,7.6,1.6,13.9,1.1,18.7c-0.4,4.7-0.1,13.4,0.1,14.5c1,1.6,3.8,2.8,6.9,0.5c0.1,0.4,0.2,0.9,0.4,1.3c0.1,1.2,0.1,2,0.2,2.3
				c1.1,1.7,4.2,2.9,7.7,0c0,0,0.1-2.9,0.4-7.4C49.6,101.7,49.5,85.8,49.4,79.4z"/>
			<path class="st7" d="M43.8,36.9c-3.2,0-5.5,3-5.2,6.7c0.1,1.2,0.6,2.2,1.2,3.2v6.4h5.4v-3c0.2,0,0.4,0.1,0.7,0.1
				c3.2,0,4.4-3,4.1-6.7C49.8,39.8,47,36.8,43.8,36.9z"/>
			<path class="st11" d="M42.1,34.4c2.8-0.7,7.2,0.8,8.3,3.7c0.7,2.2,0.4,3.3-0.9,4.9c-0.4,0.5-1,1.2-1.3,2.1
				c-0.4,1.4-0.9,1.3-1.6,0.2s-1.2-2.1-2.2-0.1c-1,1.8-2.8,3-3.5,2.7c-1.2-0.6-1.6-1.4-2.6-4.2C37.6,42.2,36.6,35.7,42.1,34.4z"/>
			
				<linearGradient id="SVGID_4_" gradientUnits="userSpaceOnUse" x1="-24.1662" y1="437.0464" x2="-2.0012" y2="437.0464" gradientTransform="matrix(0.9862 -0.1658 0.1658 0.9862 -17.7769 -368.4532)">
				<stop  offset="0" style="stop-color:#FFFFFF"/>
				<stop  offset="1" style="stop-color:#F7CE84"/>
			</linearGradient>
			<path class="st12" d="M50.2,70.7c0.9-3.3,2.5-9.6,2-11.5c-0.5-2-3.6-5.1-5.1-6c-0.1-0.1-0.3-0.2-0.5-0.4l0,0l0,0
				c-0.2-0.1-0.4-0.3-0.7-0.4c-0.1,0-0.1-0.1-0.1-0.1c-0.1-0.1-0.2-0.1-0.3-0.2l0,0c-0.1-0.1-0.2-0.1-0.4-0.2
				c-0.1,0-0.1-0.1-0.1-0.1c-2.3,0.3-4.5-0.3-5.3-2.8c-0.2-0.1-0.4-0.1-0.6-0.2c0,0,0,0-0.1,0l0,0c-0.1-0.1-0.2-0.1-0.4-0.1l0,0l0,0
				c-0.9-0.4-1.8-0.5-2.4-0.5c-2.2,0.1-3,4.6-2.9,8.3c0.1,3.8,0.1,7.5-0.6,10.3C32.2,69.6,31.9,77,33,78c1.1,1,4.6,3.8,9.5,3.8
				c4.8-0.1,9.6-1.4,9.2-3C51.3,77.1,49.3,73.9,50.2,70.7z"/>
			
				<linearGradient id="SVGID_5_" gradientUnits="userSpaceOnUse" x1="-101.0288" y1="623.5671" x2="-99.236" y2="635.7583" gradientTransform="matrix(0.9001 -0.4357 0.4357 0.9001 -123.0439 -549.9193)">
				<stop  offset="0" style="stop-color:#FFFFFF"/>
				<stop  offset="1" style="stop-color:#F7CE84"/>
			</linearGradient>
			<path class="st13" d="M64.8,48.3c-0.9,0.8-2.5,1.6-4,1.3c0.1,0.2,0.1,1.2,0,1.2c0.4,1.9,1,4.1,1.7,6.2c-0.8,0-1.6,0-2.3-0.1
				C56.1,56.3,50,56,49.6,60c-0.3,3.4,5.2,3.8,9.4,3.5c3.3-0.4,7.7-0.5,9.3-2.2c0.4-0.4,0.7-0.9,0.7-1.6v-0.1l0,0c0-0.1,0-0.1,0-0.1
				c-0.2-2.8-0.4-4.5-3.8-10.7C65.2,48.8,64.9,48.5,64.8,48.3z"/>
		</g>
	</g>
</g>
</svg>
