<?xml version="1.0" encoding="utf-8"?>
<!-- Generator: Adobe Illustrator 21.0.2, SVG Export Plug-In . SVG Version: 6.00 Build 0)  -->
<svg version="1.1" id="Layer_1" xmlns="http://www.w3.org/2000/svg" xmlns:xlink="http://www.w3.org/1999/xlink" x="0px" y="0px"
	 viewBox="0 0 146.5 138" style="enable-background:new 0 0 146.5 138;" xml:space="preserve">
<style type="text/css">
	.st0{fill:#004794;}
	.st1{opacity:0.6;fill:#001355;enable-background:new    ;}
	.st2{fill:url(#SVGID_1_);}
	.st3{fill:#F89D89;}
	.st4{fill:#FFFFFF;}
	.st5{font-family:'Arial-BoldMT';}
	.st6{font-size:3.9976px;}
	.st7{fill:#DD9E73;}
	.st8{fill:url(#SVGID_2_);}
	.st9{fill:#1E5177;}
	.st10{fill:url(#SVGID_3_);}
	.st11{fill:#594A42;}
	.st12{fill:url(#SVGID_4_);}
	.st13{fill:url(#SVGID_5_);}
</style>
<g>
	<path class="st0" d="M97.2,102.5c4.4-4.2,9.3-8.1,15-10.6c6.7-2.8,9.4-3.7,12.9-7.5c20.8-22.5,35.9-48.7-1.3-50.7
		C86.6,31.8,87.4,26,72,16.8C56.5,7.5,45.1-6.6,27.9,3.5C20,8.1,11.3,13,6,20.8C1.5,27.3,1,35.4,2.3,43c1.1,6.4,2.1,13.1,4,19.4
		c0.9,3.1,2.4,6.1,2.6,9.4c0.3,4.8-1.7,9.7-3.2,14.1c-7.2,20.5-10,22.5,7.1,43.6c8.4,10.4,23.6,9.2,36.2,7.4
		c6-0.8,12.2-1.2,17.9-3.5c5-2,8.7-5.8,12.3-9.7c6.2-6.6,11.7-14,17.8-20.8C97,102.7,97.1,102.6,97.2,102.5z"/>
	<g>
		<ellipse class="st1" cx="41" cy="105.9" rx="20.5" ry="6"/>
		<g>
			
				<linearGradient id="SVGID_1_" gradientUnits="userSpaceOnUse" x1="143.4064" y1="78.3306" x2="143.4064" y2="73.7694" gradientTransform="matrix(0.915 0.2852 0 1 -50.9976 -77.2093)">
				<stop  offset="0.4802" style="stop-color:#F89D89"/>
				<stop  offset="0.5" style="stop-color:#FFD297"/>
			</linearGradient>
			<polygon class="st2" points="128,56.9 32.4,27.1 32.4,22.5 128,52.3 			"/>
			<polygon class="st3" points="60.4,42.5 58.4,43.7 56.5,41.3 56.5,34.4 60.4,35.6 			"/>
			<text transform="matrix(0.915 0.2852 0 1 25.7943 18.2577)" class="st4 st5 st6">Minimum</text>
			<text transform="matrix(0.915 0.2852 0 1 119.4648 47.4557)" class="st4 st5 st6">Maximum</text>
		</g>
		<path class="st7" d="M61,46.4c0-1.1,0-1.7-0.7-2.5c-0.7-0.7-1.2-0.7-1.2-0.7c-0.4-0.8-1.3-0.8-1.2,0.3c0,0-0.1-2-0.9-1.9
			c-0.3,0.1-0.1,2.3,0.4,4.2C58,49,60.9,48.2,61,46.4z"/>
		<g>
			
				<linearGradient id="SVGID_2_" gradientUnits="userSpaceOnUse" x1="9.6783" y1="365.3167" x2="17.4094" y2="365.3167" gradientTransform="matrix(0.9981 -6.208917e-02 6.208917e-02 0.9981 -3.8735 -308.4612)">
				<stop  offset="0" style="stop-color:#FFFFFF"/>
				<stop  offset="1" style="stop-color:#F7CE84"/>
			</linearGradient>
			<path class="st8" d="M35,45.6c4.1,0.8,3.1,6.8,2.1,10.8c-0.8,3.8-0.6,8.9-3.5,8.6c-3.3-0.3-2.9-6.1-3-10.4
				C30.6,50.5,31.6,45,35,45.6z"/>
			<path class="st9" d="M39.3,100c1-0.4,3.7-0.9,4.5-0.2c0.8,0.8,0.7,3.1-2.1,4.2c-2.6,1.1-4.8,0.8-4.8,1.3c0,0.7-2,1.2-3.6,0.8
				c-1.7-0.5-1.8-3-0.8-4.3C33.5,100.5,36.9,100.8,39.3,100z"/>
			<path class="st9" d="M46.4,103.8c1-0.4,3.7-0.9,4.5-0.2c0.8,0.8,0.7,3.1-2.1,4.2c-2.6,1.1-4.8,0.8-4.8,1.3c0,0.7-2,1.2-3.6,0.8
				c-1.7-0.5-1.8-3-0.8-4.3C40.5,104.4,43.9,104.8,46.4,103.8z"/>
			
				<linearGradient id="SVGID_3_" gradientUnits="userSpaceOnUse" x1="30.6992" y1="359.8012" x2="46.6784" y2="359.8012" gradientTransform="matrix(1 0 0 1 0 -270.6449)">
				<stop  offset="0" style="stop-color:#1E5177"/>
				<stop  offset="0.462" style="stop-color:#84A0B5"/>
				<stop  offset="1" style="stop-color:#FFFFFF"/>
			</linearGradient>
			<path class="st10" d="M46.6,74.9c-1.5-0.8-4.6-1.3-7.1-0.8c0-1.1,0-2.3,0-3.1c-2.1-1.3-7.1-1.3-8.9,0.4c-0.3,7.2,1.5,13.1,1,17.6
				c-0.4,4.4-0.1,12.6,0.1,13.7c0.9,1.5,3.6,2.6,6.5,0.5c0.1,0.4,0.2,0.8,0.4,1.2c0.1,1.1,0.1,1.9,0.2,2.2c1,1.6,4,2.7,7.3,0
				c0,0,0.1-2.7,0.4-7C46.8,95.9,46.7,80.9,46.6,74.9z"/>
			<path class="st7" d="M41.3,34.8c-3,0-5.2,2.8-4.9,6.3c0.1,1.1,0.6,2.1,1.1,3v6h5.1v-2.8c0.2,0,0.4,0.1,0.7,0.1
				c3,0,4.2-2.8,3.9-6.3C47,37.5,44.3,34.7,41.3,34.8z"/>
			<path class="st11" d="M39.7,32.4c2.6-0.7,6.8,0.8,7.8,3.5c0.7,2.1,0.4,3.1-0.8,4.6c-0.4,0.5-0.9,1.1-1.2,2
				c-0.4,1.3-0.8,1.2-1.5,0.2c-0.7-1-1.1-2-2.1-0.1c-0.9,1.7-2.6,2.8-3.3,2.5c-1.1-0.6-1.5-1.3-2.5-4C35.5,39.8,34.5,33.7,39.7,32.4
				z"/>
			
				<linearGradient id="SVGID_4_" gradientUnits="userSpaceOnUse" x1="-26.0729" y1="433.8665" x2="-5.1646" y2="433.8665" gradientTransform="matrix(0.9862 -0.1658 0.1658 0.9862 -17.1187 -369.4078)">
				<stop  offset="0" style="stop-color:#FFFFFF"/>
				<stop  offset="1" style="stop-color:#F7CE84"/>
			</linearGradient>
			<path class="st12" d="M47.3,66.7c0.8-3.1,2.4-9.1,1.9-10.8c-0.5-1.9-3.4-4.8-4.8-5.7c-0.1-0.1-0.3-0.2-0.5-0.4l0,0l0,0
				c-0.2-0.1-0.4-0.3-0.7-0.4c-0.1,0-0.1-0.1-0.1-0.1c-0.1-0.1-0.2-0.1-0.3-0.2l0,0c-0.1-0.1-0.2-0.1-0.4-0.2
				c-0.1,0-0.1-0.1-0.1-0.1c-2.2,0.3-4.2-0.3-5-2.6c-0.2-0.1-0.4-0.1-0.6-0.2c0,0,0,0-0.1,0l0,0c-0.1-0.1-0.2-0.1-0.4-0.1l0,0l0,0
				c-0.8-0.4-1.7-0.5-2.3-0.5c-2.1,0.1-2.8,4.3-2.7,7.8c0.1,3.6,0.1,7.1-0.6,9.7c-0.5,2.6-0.8,9.6,0.3,10.6s4.3,3.6,9,3.6
				c4.5-0.1,9.1-1.3,8.7-2.8C48.4,72.7,46.5,69.7,47.3,66.7z"/>
			
				<linearGradient id="SVGID_5_" gradientUnits="userSpaceOnUse" x1="-105.0696" y1="621.2223" x2="-103.3784" y2="632.7222" gradientTransform="matrix(0.9001 -0.4357 0.4357 0.9001 -121.6574 -552.709)">
				<stop  offset="0" style="stop-color:#FFFFFF"/>
				<stop  offset="1" style="stop-color:#F7CE84"/>
			</linearGradient>
			<path class="st13" d="M61.1,45.6c-0.8,0.8-2.4,1.5-3.8,1.2c0.1,0.2,0.1,1.1,0,1.1c0.4,1.8,0.9,3.9,1.6,5.8c-0.8,0-1.5,0-2.2-0.1
				c-3.9-0.6-9.6-0.8-10,2.9c-0.3,3.2,4.9,3.6,8.9,3.3c3.1-0.4,7.3-0.5,8.8-2.1c0.4-0.4,0.7-0.8,0.7-1.5v-0.1l0,0c0-0.1,0-0.1,0-0.1
				c-0.2-2.6-0.4-4.2-3.6-10.1C61.5,46,61.2,45.7,61.1,45.6z"/>
		</g>
	</g>
</g>
</svg>
