<?xml version="1.0" encoding="utf-8"?>
<!-- Generator: Adobe Illustrator 21.0.2, SVG Export Plug-In . SVG Version: 6.00 Build 0)  -->
<svg version="1.1" id="Layer_1" xmlns="http://www.w3.org/2000/svg" xmlns:xlink="http://www.w3.org/1999/xlink" x="0px" y="0px"
	 viewBox="0 0 267.8 274.2" style="enable-background:new 0 0 267.8 274.2;" xml:space="preserve">
<style type="text/css">
	.st0{fill:#E05530;}
	.st1{opacity:0.5;fill:#BA3A20;enable-background:new    ;}
	.st2{fill:#FFFFFF;}
	.st3{fill:#DD9E73;}
	.st4{fill:none;stroke:url(#XMLID_4_);stroke-miterlimit:10;}
	.st5{fill:url(#XMLID_5_);}
	.st6{fill:none;stroke:url(#XMLID_6_);stroke-miterlimit:10;}
	.st7{fill:url(#XMLID_7_);}
	.st8{fill:none;stroke:url(#SVGID_1_);stroke-miterlimit:10;}
	.st9{fill:url(#SVGID_2_);}
	.st10{fill:#9D5E91;}
	.st11{fill:#FEFEFE;}
	.st12{fill:#1E5177;}
	.st13{fill:url(#SVGID_3_);}
	.st14{fill:#594A42;}
	.st15{fill:none;}
	.st16{fill:url(#SVGID_4_);}
</style>
<g>
	<path class="st0" d="M195.1,226.9c6-6,13.2-11,21.5-13.3c10-2.8,19.6-9,26.9-17.6c10.7-12.6,22.5-23.1,18.9-39
		c-13.5-58.9,33.2-81.4-23.3-110.8c-69.9-36.4-65-39.1-102.4-45.9c-20.3-3.7-53.2,27.2-72.9,30c-14.2,2.1-29.3,2.3-42.6,8.2
		C8.6,44.1-0.2,61.3,3.5,75.1c3.9,14.8,12,29.1,13.1,44.5c0.8,11.9-4.1,24-7.9,35c-15.1,43.4-14.2,34,32.7,73.8
		c35.5,30,60.5,51.9,105.3,44.2c9.4-1.6,15.8-9.4,22.2-15.9C178,247.1,185.8,236.2,195.1,226.9z"/>
	<ellipse class="st1" cx="133.6" cy="226.4" rx="25.8" ry="7.9"/>
	<g>
		<path class="st2" d="M122.6,172.6C122.6,172.6,122.5,172.6,122.6,172.6c-3.3-0.3-6.6-0.8-9.7-1.6c-0.3-0.1-0.4-0.3-0.4-0.6
			c0.1-0.3,0.3-0.4,0.6-0.4c3.1,0.8,6.3,1.3,9.5,1.6c0.3,0,0.5,0.3,0.5,0.5C123,172.4,122.8,172.6,122.6,172.6z M132.3,172.6
			c-0.3,0-0.5-0.2-0.5-0.5s0.2-0.5,0.5-0.5c3.2-0.3,6.4-0.8,9.5-1.6c0.3-0.1,0.5,0.1,0.6,0.4c0.1,0.3-0.1,0.5-0.4,0.6
			C138.8,171.8,135.6,172.4,132.3,172.6L132.3,172.6z M103.8,167.9c-0.1,0-0.1,0-0.2,0c-3-1.3-5.9-2.9-8.6-4.7
			c-0.2-0.2-0.3-0.5-0.1-0.7c0.2-0.2,0.5-0.3,0.7-0.1c2.7,1.8,5.5,3.3,8.5,4.6c0.3,0.1,0.4,0.4,0.3,0.7
			C104.1,167.8,104,167.9,103.8,167.9z M151.1,167.9c-0.2,0-0.4-0.1-0.5-0.3c-0.1-0.3,0-0.5,0.3-0.7c2.9-1.3,5.8-2.8,8.5-4.6
			c0.2-0.2,0.5-0.1,0.7,0.1c0.2,0.2,0.1,0.5-0.1,0.7c-2.7,1.8-5.6,3.4-8.6,4.7C151.2,167.9,151.1,167.9,151.1,167.9z M87.5,157.3
			c-0.1,0-0.2,0-0.3-0.1c-2.4-2.2-4.6-4.6-6.7-7.2c-0.2-0.2-0.1-0.5,0.1-0.7s0.5-0.1,0.7,0.1c2,2.5,4.2,4.9,6.5,7.1
			c0.2,0.2,0.2,0.5,0,0.7C87.8,157.3,87.7,157.3,87.5,157.3z M167.3,157.3c-0.1,0-0.3-0.1-0.4-0.2c-0.2-0.2-0.2-0.5,0-0.7
			c2.4-2.2,4.6-4.6,6.5-7.1c0.2-0.2,0.5-0.3,0.7-0.1s0.3,0.5,0.1,0.7c-2,2.6-4.2,5-6.6,7.2C167.5,157.2,167.4,157.3,167.3,157.3z
			 M75.6,142.1c-0.2,0-0.3-0.1-0.4-0.3c-1.6-2.9-2.9-5.9-4-9c-0.1-0.3,0-0.5,0.3-0.6s0.5,0,0.6,0.3c1,3,2.4,6,3.9,8.8
			c0.1,0.2,0,0.5-0.2,0.7C75.8,142,75.7,142.1,75.6,142.1z M179.2,142c-0.1,0-0.2,0-0.2-0.1c-0.2-0.1-0.3-0.4-0.2-0.7
			c1.5-2.8,2.8-5.8,3.9-8.8c0.1-0.3,0.4-0.4,0.6-0.3c0.3,0.1,0.4,0.4,0.3,0.6c-1.1,3.1-2.4,6.1-3.9,9
			C179.5,141.9,179.4,142,179.2,142z M69.3,123.7c-0.2,0-0.5-0.2-0.5-0.4c-0.5-3.2-0.8-6.5-0.8-9.8c0-0.3,0.2-0.5,0.5-0.5
			s0.5,0.2,0.5,0.5c0,3.2,0.3,6.5,0.8,9.6C69.8,123.4,69.6,123.7,69.3,123.7L69.3,123.7z M185.5,123.6
			C185.4,123.6,185.4,123.6,185.5,123.6c-0.4-0.1-0.5-0.3-0.5-0.6c0.5-3.2,0.8-6.4,0.8-9.6v-0.2c0-0.3,0.2-0.5,0.5-0.5
			s0.5,0.2,0.5,0.5v0.2c0,3.3-0.3,6.6-0.8,9.8C185.9,123.5,185.7,123.6,185.5,123.6z M69.2,104.4L69.2,104.4
			c-0.4-0.1-0.5-0.3-0.5-0.6c0.5-3.2,1.3-6.4,2.4-9.5c0.1-0.3,0.4-0.4,0.6-0.3c0.3,0.1,0.4,0.4,0.3,0.6c-1,3-1.8,6.2-2.3,9.4
			C69.7,104.2,69.5,104.4,69.2,104.4z M185.4,104c-0.2,0-0.5-0.2-0.5-0.4c-0.5-3.2-1.3-6.3-2.4-9.3c-0.1-0.3,0-0.5,0.3-0.6
			s0.5,0,0.6,0.3c1.1,3.1,1.9,6.3,2.4,9.5C186,103.7,185.8,104,185.4,104C185.5,104,185.5,104,185.4,104z M75.5,86
			c-0.1,0-0.2,0-0.2-0.1c-0.2-0.1-0.3-0.4-0.2-0.7c1.5-2.9,3.3-5.6,5.4-8.2c0.2-0.2,0.5-0.3,0.7-0.1c0.2,0.2,0.3,0.5,0.1,0.7
			c-2,2.5-3.7,5.3-5.3,8.1C75.8,85.9,75.7,86,75.5,86z M179.1,85.7c-0.2,0-0.3-0.1-0.4-0.3c-1.5-2.8-3.3-5.5-5.3-8
			c-0.2-0.2-0.1-0.5,0.1-0.7c0.2-0.2,0.5-0.1,0.7,0.1c2,2.6,3.8,5.3,5.4,8.2c0.1,0.2,0,0.5-0.2,0.7
			C179.2,85.7,179.2,85.7,179.1,85.7z M87.4,70.7c-0.1,0-0.3-0.1-0.4-0.2c-0.2-0.2-0.2-0.5,0-0.7c2.4-2.2,5-4.3,7.7-6
			c0.2-0.2,0.5-0.1,0.7,0.1s0.1,0.5-0.1,0.7c-2.7,1.8-5.2,3.8-7.6,5.9C87.6,70.7,87.5,70.7,87.4,70.7z M167.1,70.5
			c-0.1,0-0.2,0-0.3-0.1c-2.4-2.2-4.9-4.2-7.6-5.9c-0.2-0.2-0.3-0.5-0.1-0.7s0.5-0.3,0.7-0.1c2.7,1.8,5.3,3.8,7.8,6
			c0.2,0.2,0.2,0.5,0,0.7C167.4,70.4,167.3,70.5,167.1,70.5z M103.6,60c-0.2,0-0.4-0.1-0.5-0.3c-0.1-0.3,0-0.5,0.3-0.7
			c3-1.3,6.1-2.4,9.3-3.2c0.3-0.1,0.5,0.1,0.6,0.4c0.1,0.3-0.1,0.5-0.4,0.6c-3.1,0.8-6.2,1.9-9.1,3.2C103.7,60,103.6,60,103.6,60z
			 M150.9,59.9c-0.1,0-0.1,0-0.2,0c-2.9-1.3-6-2.3-9.1-3.1c-0.3-0.1-0.4-0.3-0.4-0.6c0.1-0.3,0.3-0.4,0.6-0.4
			c3.2,0.8,6.3,1.9,9.3,3.2c0.3,0.1,0.4,0.4,0.3,0.7C151.2,59.8,151.1,59.9,150.9,59.9z M122.3,55.2c-0.3,0-0.5-0.2-0.5-0.5
			s0.2-0.5,0.5-0.5c3.2-0.3,6.6-0.3,9.8,0c0.3,0,0.5,0.3,0.5,0.5s-0.3,0.5-0.5,0.5C128.8,55,125.6,55,122.3,55.2
			C122.4,55.2,122.3,55.2,122.3,55.2z"/>
	</g>
	<path class="st3" d="M114.7,175.2C114.7,175.2,114.6,175.2,114.7,175.2C114.6,175.2,114.7,175.2,114.7,175.2
		c-0.1-0.6-0.3-1.3-0.3-2c-0.3,0-0.4,0-0.8,0c-1.4-0.1-2.8-0.2-3.6-0.2c0,0.8-0.2,1.6-0.1,2.4c0,0.1,0,0.3,0,0.4l0,0
		c-0.3,0.3-0.5,0.8-0.7,1.1c-0.3,0.6-0.8,1.2-1.1,1.9c-0.3,0.6,0.1,3,0.1,3.3c0.1,0.9,1.3,1.9,1.8,1.9c0.8,0.4,2.4,0.1,2.5-0.4
		c0,0,0.2-4.8,0.9-6.6l0,0c-0.4,1.2,1.2,5.1,2.7,3.1C116.2,180.2,114.7,176.6,114.7,175.2z"/>
	<g>
		
			<linearGradient id="XMLID_4_" gradientUnits="userSpaceOnUse" x1="46.8324" y1="162" x2="93.4972" y2="162" gradientTransform="matrix(1 0 0 -1 0 276)">
			<stop  offset="0" style="stop-color:#FFFFFF"/>
			<stop  offset="1" style="stop-color:#6081C4"/>
		</linearGradient>
		<circle id="XMLID_1_" class="st4" cx="70.2" cy="114" r="22.8"/>
		<g>
			
				<linearGradient id="XMLID_5_" gradientUnits="userSpaceOnUse" x1="49.3282" y1="162" x2="91.0014" y2="162" gradientTransform="matrix(1 0 0 -1 0 276)">
				<stop  offset="0" style="stop-color:#FFFFFF"/>
				<stop  offset="1" style="stop-color:#6081C4"/>
			</linearGradient>
			<circle id="XMLID_21_" class="st5" cx="70.2" cy="114" r="20.8"/>
			<path id="XMLID_19_" class="st2" d="M72,109.1v-2c0-1,0.6-1.2,1.1-1.2c0.4,0,2.8,0,2.8,0v-4.2h-3.8c-4.2,0-5.2,3.2-5.2,5.2v2.2
				h-2.4v3v2H67c0,5.6,0,12.3,0,12.3h4.9c0,0,0-6.8,0-12.3h3.7l0.2-1.9l0.3-3L72,109.1L72,109.1z"/>
		</g>
	</g>
	<g>
		
			<linearGradient id="XMLID_6_" gradientUnits="userSpaceOnUse" x1="160.0339" y1="161.7" x2="206.6975" y2="161.7" gradientTransform="matrix(1 0 0 -1 0 276)">
			<stop  offset="0" style="stop-color:#FFFFFF"/>
			<stop  offset="1" style="stop-color:#23B180"/>
		</linearGradient>
		<circle id="XMLID_2_" class="st6" cx="183.4" cy="114.3" r="22.8"/>
		<g>
			
				<linearGradient id="XMLID_7_" gradientUnits="userSpaceOnUse" x1="162.7433" y1="161.7" x2="203.9881" y2="161.7" gradientTransform="matrix(1 0 0 -1 0 276)">
				<stop  offset="0" style="stop-color:#FFFFFF"/>
				<stop  offset="1" style="stop-color:#23B180"/>
			</linearGradient>
			<circle id="XMLID_36_" class="st7" cx="183.4" cy="114.3" r="20.6"/>
			<g>
				<path class="st2" d="M195.6,112.8c-0.2-6.4-5.5-11.6-12-11.6c-6.4,0-11.7,5-12,11.4c0,0.2,0,0.3,0,0.5c0,2.2,0.6,4.3,1.7,6.1
					l-2.2,6.4l6.6-2.1c1.7,0.9,3.7,1.5,5.8,1.5c6.6,0,12-5.3,12-11.9C195.6,113,195.6,112.9,195.6,112.8z M183.6,123.1
					c-2,0-4-0.6-5.5-1.7l-3.9,1.2l1.3-3.7c-1.2-1.6-1.9-3.7-1.9-5.9c0-0.3,0-0.7,0-1c0.5-5.1,4.8-9,10-9c5.3,0,9.6,4.1,10,9.2
					c0,0.3,0,0.5,0,0.8C193.7,118.6,189.1,123.1,183.6,123.1z"/>
				<path id="XMLID_32_" class="st2" d="M189.1,115.5c-0.3-0.1-1.7-0.9-2-0.9c-0.3-0.1-0.5-0.1-0.7,0.1c-0.2,0.3-0.8,0.9-0.9,1.1
					c-0.2,0.2-0.3,0.2-0.6,0.1s-1.2-0.5-2.4-1.4c-0.9-0.8-1.5-1.7-1.6-2c-0.2-0.3,0-0.4,0.1-0.6c0.1-0.1,0.3-0.3,0.4-0.5l0.1-0.1
					c0.1-0.1,0.1-0.2,0.2-0.3c0.1-0.2,0-0.4,0-0.5c-0.1-0.1-0.7-1.6-0.9-2.2s-0.5-0.5-0.7-0.5s-0.4,0-0.6,0c-0.2,0-0.5,0.1-0.8,0.4
					s-1,1-1,2.4c0,0.3,0.1,0.7,0.2,1c0.3,1,0.9,1.9,1,2c0.1,0.2,2,3.2,5,4.4c3,1.2,3,0.8,3.5,0.7c0.5,0,1.7-0.7,2-1.4
					c0.2-0.7,0.2-1.3,0.2-1.4C189.6,115.7,189.4,115.6,189.1,115.5z"/>
			</g>
		</g>
	</g>
	<g>
		
			<linearGradient id="SVGID_1_" gradientUnits="userSpaceOnUse" x1="105.7" y1="217.3" x2="152.364" y2="217.3" gradientTransform="matrix(1 0 0 -1 0 276)">
			<stop  offset="0" style="stop-color:#FFFFFF"/>
			<stop  offset="1" style="stop-color:#F7CE84"/>
		</linearGradient>
		<circle class="st8" cx="129" cy="58.7" r="22.8"/>
		
			<linearGradient id="SVGID_2_" gradientUnits="userSpaceOnUse" x1="107.862" y1="217.3" x2="150.1767" y2="217.3" gradientTransform="matrix(1 0 0 -1 0 276)">
			<stop  offset="0" style="stop-color:#FFFFFF"/>
			<stop  offset="1" style="stop-color:#F7CE84"/>
		</linearGradient>
		<circle class="st9" cx="129" cy="58.7" r="21.2"/>
		<g>
			<g>
				<path class="st10" d="M126.2,68.2C126.1,68.2,126.1,68.2,126.2,68.2c-0.5,0-0.9,0-1.2,0c-0.1,0-0.1,0-0.1-0.1
					c0-0.4-0.1-0.9-0.1-1.3c-0.1-0.5-0.1-1-0.2-1.5c0-0.2,0-0.3-0.1-0.5c0,0.1,0,0.1-0.1,0.2c-0.3,1-0.5,2.1-0.8,3.1c0,0,0,0,0,0.1
					c0,0,0,0.1-0.1,0.1h-0.1c-0.2,0-0.4,0-0.6,0c-0.1,0-0.1,0-0.1-0.1c-0.2-0.6-0.3-1.2-0.5-1.8c-0.1-0.5-0.2-1-0.4-1.4v-0.1
					c-0.1,1.1-0.2,2.3-0.3,3.4c-0.4,0-0.8,0-1.3,0c0-0.1,0-0.3,0-0.4c0.1-0.5,0.1-1,0.2-1.5s0.1-1.1,0.2-1.6s0.1-0.9,0.2-1.4
					c0-0.2,0-0.2,0.2-0.2c0.5,0,1,0,1.4,0c0.1,0,0.1,0,0.1,0.1c0.2,0.8,0.4,1.7,0.5,2.5v0.1c0.1-0.3,0.1-0.7,0.2-1
					c0.1-0.6,0.2-1.1,0.4-1.6c0-0.1,0-0.1,0.1-0.1c0.5,0,1.1,0,1.6,0c0.1,0,0.1,0,0.1,0.1c0,0.3,0.1,0.7,0.1,1
					c0.1,0.5,0.1,0.9,0.2,1.4c0.1,0.4,0.1,0.9,0.2,1.3c0,0.4,0.1,0.7,0.1,1.1C126.1,68.1,126.2,68.2,126.2,68.2z"/>
				<path class="st10" d="M128,64.8c-0.1,0.6-0.1,1.1-0.2,1.7s-0.1,1.1-0.2,1.7c-0.4,0-0.8,0-1.3,0c0-0.1,0-0.2,0-0.2
					c0.1-0.7,0.2-1.3,0.3-2c0.1-0.7,0.2-1.4,0.3-2.1c0-0.2,0.1-0.4,0.1-0.6c0-0.1,0-0.1,0.1-0.1c0.5,0,1,0,1.5,0
					c0.1,0,0.1,0,0.1,0.1c0.2,0.9,0.4,1.7,0.5,2.6c0,0,0,0,0,0.1c0-0.1,0-0.3,0.1-0.4c0.1-0.8,0.3-1.5,0.5-2.3c0-0.1,0-0.1,0.1-0.1
					c0.5,0,1.1,0,1.6,0c0.1,0,0.1,0,0.1,0.1c0.1,0.8,0.2,1.6,0.3,2.3c0.1,0.8,0.2,1.5,0.3,2.3c0,0.1,0,0.2,0,0.3c0,0,0,0-0.1,0
					c-0.4,0-0.8,0-1.2,0c-0.1,0-0.1,0-0.1-0.1c-0.1-0.6-0.1-1.3-0.2-1.9c0-0.4-0.1-0.9-0.1-1.3l0,0c0,0,0,0,0,0.1
					c-0.2,1-0.5,2-0.7,3c0,0.1,0,0.2-0.1,0.3c0,0,0,0.1-0.1,0.1c-0.3,0-0.5,0-0.8,0c-0.1,0-0.1,0-0.1-0.1c-0.1-0.4-0.2-0.8-0.3-1.2
					C128.3,66.3,128.2,65.6,128,64.8C128,64.9,128,64.9,128,64.8z"/>
				<path class="st10" d="M120.1,65.6c0,0.5-0.1,1-0.2,1.4c-0.1,0.3-0.3,0.5-0.5,0.7c-0.3,0.3-0.6,0.4-0.9,0.5
					c-0.5,0.1-0.9,0.1-1.4-0.1s-0.9-0.6-1.1-1.1c-0.1-0.3-0.2-0.7-0.2-1.1s0-0.7,0-1.1c0.1-0.4,0.2-0.7,0.4-1
					c0.3-0.5,0.8-0.8,1.4-0.9c0.4,0,0.8,0,1.1,0.1c0.6,0.2,1,0.6,1.2,1.1c0.1,0.3,0.2,0.6,0.2,0.9C120.1,65.4,120.1,65.6,120.1,65.6
					z M117.1,65.8c0,0.1,0,0.3,0,0.4c0,0.2,0,0.4,0.1,0.6s0.3,0.4,0.5,0.4c0.3,0,0.5-0.1,0.6-0.3c0.1-0.1,0.1-0.2,0.2-0.4
					c0.1-0.4,0.1-0.8,0.1-1.2c0-0.2,0-0.5-0.1-0.7c0-0.1-0.1-0.2-0.2-0.3c-0.2-0.2-0.7-0.3-0.9,0.1c-0.1,0.1-0.1,0.2-0.2,0.4
					C117.2,65.1,117.1,65.5,117.1,65.8z"/>
				<path class="st10" d="M139.7,68.2c-0.5,0-0.9,0-1.4,0c-0.1,0-0.1,0-0.1-0.1c-0.2-0.3-0.3-0.7-0.5-1c-0.2-0.4-0.4-0.7-0.5-1.1
					c0,0,0-0.1-0.1-0.1c0,0.1,0,0.1,0,0.1c0,0.7,0,1.3,0,2c0,0.1,0,0.1-0.1,0.1c-0.4,0-0.8,0-1.1,0c-0.1,0-0.1,0-0.1-0.1
					c0-0.6,0-1.2,0-1.8c0-1,0-2,0-3c0-0.1,0-0.1,0.1-0.1c0.5,0,1,0,1.6,0c0.4,0,0.8,0.1,1.1,0.2c0.2,0.1,0.3,0.2,0.4,0.3
					c0.6,0.5,0.6,1.4,0.1,1.9c-0.1,0.1-0.2,0.2-0.4,0.3c-0.1,0-0.1,0,0,0.1c0.2,0.5,0.4,0.9,0.7,1.4
					C139.4,67.6,139.5,67.9,139.7,68.2C139.7,68.1,139.7,68.2,139.7,68.2z M137.1,64.8c0,0.1,0,0.2,0,0.4c0,0.1,0,0.1,0,0.2v0.1
					c0.2,0,0.3,0,0.5-0.1c0.3-0.1,0.4-0.3,0.3-0.6c0-0.2-0.2-0.4-0.4-0.5c-0.1,0-0.3-0.1-0.4-0.1c-0.1,0-0.1,0-0.1,0.1
					C137.1,64.4,137.1,64.6,137.1,64.8z"/>
				<path class="st10" d="M132.7,65.7c0-0.8,0-1.6,0-2.4c0-0.1,0-0.1,0.1-0.1c0.8,0,1.7,0,2.5,0c0.1,0,0.1,0,0.1,0.1
					c0,0.3,0,0.6,0,0.9c0,0.1,0,0.1-0.1,0.1c-0.4,0-0.8,0-1.2,0c-0.1,0-0.1,0-0.1,0.1c0,0.2,0,0.5,0,0.7c0,0.1,0,0.1,0.1,0.1
					c0.3,0,0.7,0,1,0c0.1,0,0.1,0,0.1,0.1c0,0.3,0,0.6,0,0.9c0,0.1,0,0.1-0.1,0.1c-0.3,0-0.7,0-1,0c-0.1,0-0.1,0-0.1,0.1
					c0,0.2,0,0.5,0,0.7c0,0.1,0,0.1,0.1,0.1c0.4,0,0.8,0,1.2,0c0,0,0,0,0.1,0c0,0,0.1,0,0.1,0.1s0,0.2,0,0.2c0,0.2,0,0.5,0,0.7
					c0,0.1,0,0.1-0.1,0.1c-0.9,0-1.7,0-2.6,0c-0.1,0-0.1,0-0.1-0.1C132.7,67.3,132.7,66.5,132.7,65.7L132.7,65.7z"/>
				<path class="st10" d="M143.3,65.7c0-0.8,0-1.6,0-2.4c0,0,0,0,0-0.1l0,0c0,0,0,0,0.1,0c0.8,0,1.7,0,2.5,0l0,0
					c0.1,0,0.1,0,0.1,0.1c0,0.2,0,0.5,0,0.7c0,0.1,0,0.1,0,0.2s0,0.1-0.1,0.1c-0.4,0-0.8,0-1.2,0c-0.2,0-0.1,0-0.1,0.1
					c0,0.2,0,0.5,0,0.7c0,0.1,0,0.1,0.1,0.1c0.3,0,0.7,0,1,0c0.1,0,0.1,0,0.1,0.1c0,0.3,0,0.5,0,0.8c0,0.1,0,0.1-0.1,0.1
					c-0.3,0-0.7,0-1,0c-0.1,0-0.1,0-0.1,0.1c0,0.2,0,0.5,0,0.7c0,0.1,0,0.1,0.1,0.1c0.4,0,0.8,0,1.2,0c0,0,0,0,0.1,0l0,0
					c0,0,0,0,0,0.1c0,0.3,0,0.6,0,0.9c0,0.1,0,0.1-0.1,0.1c-0.9,0-1.7,0-2.6,0c-0.1,0-0.1,0-0.1-0.1
					C143.3,67.3,143.3,66.5,143.3,65.7L143.3,65.7z"/>
				<path class="st10" d="M142.9,64.4c-0.2,0-0.3-0.1-0.5-0.1s-0.3,0-0.5,0c-0.4,0.1-0.7,0.3-0.9,0.6c-0.2,0.3-0.2,0.7-0.2,1
					s0.1,0.5,0.2,0.7c0.2,0.3,0.5,0.5,0.9,0.5c0.2,0,0.5,0,0.7-0.1h0.1l0,0c0,0.4,0,0.7,0,1.1c0,0.1,0,0.1-0.1,0.1
					c-0.6,0.1-1.2,0.1-1.8-0.1c-0.7-0.3-1.2-0.9-1.4-1.6c-0.1-0.4-0.1-0.8-0.1-1.2c0.1-1.2,1-2,2-2.2c0.4-0.1,0.8-0.1,1.3,0
					c0,0,0.1,0,0.1,0.1C142.9,63.6,142.9,64,142.9,64.4z"/>
				<path class="st10" d="M115.4,64.4c-0.2,0-0.3-0.1-0.4-0.1c-0.2,0-0.3,0-0.5,0c-0.4,0.1-0.6,0.3-0.8,0.6
					c-0.2,0.3-0.3,0.7-0.2,1.1c0,0.2,0.1,0.4,0.2,0.6c0.2,0.4,0.5,0.6,1,0.6c0.2,0,0.5,0,0.7-0.1h0.1c0,0,0,0,0,0.1c0,0.3,0,0.7,0,1
					c0,0,0,0.1-0.1,0.1c-0.8,0.2-1.5,0.1-2.2-0.3c-0.6-0.4-0.9-0.9-1.1-1.6c-0.1-0.5-0.1-1,0-1.5c0.2-0.6,0.5-1.1,1.1-1.4
					c0.4-0.2,0.7-0.3,1.2-0.4c0.3,0,0.7,0,1,0.1c0,0,0.1,0,0.1,0.1C115.4,63.6,115.4,64,115.4,64.4
					C115.4,64.3,115.4,64.3,115.4,64.4z"/>
			</g>
			<g>
				<path class="st10" d="M130.2,60c0.3,0.7,0.6,1.4,0.9,2.1c-0.1,0-0.1,0-0.1,0c-0.9-0.5-1.8-1-2.7-1.5c-0.3-0.2-0.7-0.4-1-0.5
					c-0.1,0-0.2-0.1-0.2-0.1c-2.1,0-4.2,0-6.3,0c-0.7,0-1.4,0-2.1,0c-0.8,0-1.4-0.4-1.8-1.1c-0.2-0.3-0.2-0.6-0.2-1
					c0-2.2,0-4.5,0-6.7c0-0.4,0.1-0.8,0.3-1.1c0.4-0.6,0.9-0.9,1.6-1c0.2,0,0.3,0,0.5,0c5.8,0,11.7,0,17.5,0c0.3,0,0.7,0,1,0.2
					c0.6,0.3,1,0.8,1.2,1.5c0,0.2,0,0.3,0,0.5c0,2.1,0,4.1,0,6.2c0,0.2,0,0.4,0,0.6c0,0.7-0.3,1.3-0.9,1.7c-0.3,0.2-0.7,0.4-1.2,0.4
					c-2.1,0-4.2,0-6.2,0C130.3,60,130.3,60,130.2,60z M120,56L120,56c-0.1-0.2-0.1-0.3-0.2-0.5c-0.2-0.8-0.3-1.5-0.5-2.3
					c-0.1-0.6-0.2-1.1-0.3-1.7c0-0.2,0-0.3-0.1-0.5s-0.2-0.4-0.5-0.4c-0.1,0-0.2,0-0.3,0c-0.6,0-0.8,0.5-0.7,0.9
					c0.1,0.7,0.2,1.4,0.3,2c0.2,1.1,0.4,2.1,0.7,3.2c0.1,0.5,0.3,1.1,0.5,1.6c0.1,0.2,0.2,0.4,0.3,0.6c0.1,0.1,0.3,0.2,0.4,0.1
					c0.1,0,0.2-0.1,0.3-0.2c0.1-0.1,0.2-0.3,0.4-0.4c0.3-0.4,0.5-0.8,0.7-1.2c0.4-0.7,0.7-1.4,1.1-2.2c0,0,0-0.1,0.1-0.1
					c0,0.1,0.1,0.2,0.1,0.3c0.2,0.8,0.5,1.5,1,2.2c0.3,0.4,0.6,0.9,0.9,1.2c0.1,0.1,0.3,0.2,0.4,0.3c0.3,0.1,0.7,0,0.8-0.3
					c0.1-0.2,0.1-0.3,0.1-0.5c0-0.5,0-0.9,0-1.4s0.1-1,0.1-1.5c0.1-0.6,0.2-1.2,0.3-1.8c0.1-0.7,0.3-1.4,0.7-2.1
					c0.1-0.1,0.1-0.2,0.1-0.3c0-0.4-0.3-0.7-0.7-0.8c-0.3,0-0.6,0.1-0.7,0.4c-0.1,0.1-0.1,0.2-0.1,0.3c-0.3,0.7-0.5,1.4-0.7,2.2
					c-0.1,0.7-0.2,1.4-0.3,2.1c0,0.1,0,0.3-0.1,0.4c-0.1-0.3-0.2-0.5-0.3-0.7c-0.2-0.8-0.4-1.5-0.6-2.3c0-0.2-0.1-0.3-0.2-0.5
					c-0.1-0.1-0.2-0.2-0.4-0.3c-0.2,0-0.4,0-0.6,0.2c-0.1,0.1-0.2,0.2-0.3,0.4c-0.4,0.8-0.9,1.6-1.3,2.4
					C120.5,55.1,120.2,55.6,120,56z M137.5,54.2c0-0.7-0.1-1.1-0.2-1.6c-0.2-0.4-0.4-0.8-0.8-1c-0.3-0.2-0.7-0.4-1.1-0.4
					c-0.5-0.1-1,0.1-1.4,0.3c-0.3,0.2-0.6,0.5-0.8,0.9c-0.7,1.1-1,2.4-0.7,3.7c0.1,0.4,0.3,0.9,0.6,1.2c0.7,0.7,1.5,0.8,2.4,0.6
					c0.5-0.2,0.9-0.5,1.2-1C137.3,56,137.5,55.1,137.5,54.2z M126.7,55.1c0,0.4,0,0.8,0.2,1.2c0.1,0.4,0.3,0.7,0.6,1
					c0.6,0.6,1.3,0.8,2.2,0.6c0.5-0.1,0.9-0.4,1.2-0.8c0.7-0.8,1-1.8,1-2.9c0-0.5,0-1-0.2-1.5c-0.2-0.4-0.4-0.8-0.8-1.1
					c-0.3-0.2-0.7-0.4-1.1-0.4c-0.6-0.1-1.1,0.1-1.6,0.5c-0.4,0.3-0.7,0.8-1,1.2C126.9,53.6,126.7,54.3,126.7,55.1z"/>
				<path class="st11" d="M120,56c0.2-0.4,0.4-0.8,0.6-1.2c0.4-0.8,0.9-1.6,1.3-2.4c0.1-0.1,0.2-0.3,0.3-0.4
					c0.2-0.2,0.4-0.2,0.6-0.2s0.3,0.1,0.4,0.3c0.1,0.1,0.1,0.3,0.2,0.5c0.2,0.8,0.3,1.5,0.6,2.3c0.1,0.2,0.2,0.5,0.3,0.7
					c0-0.1,0-0.3,0.1-0.4c0.1-0.7,0.2-1.4,0.3-2.1c0.2-0.8,0.4-1.5,0.7-2.2c0-0.1,0.1-0.2,0.1-0.3c0.2-0.3,0.4-0.4,0.7-0.4
					c0.4,0.1,0.7,0.4,0.7,0.8c0,0.1,0,0.2-0.1,0.3c-0.3,0.7-0.5,1.4-0.7,2.1c-0.1,0.6-0.2,1.2-0.3,1.8c-0.1,0.5-0.1,1-0.1,1.5
					s0,0.9,0,1.4c0,0.2,0,0.3-0.1,0.5c-0.2,0.3-0.5,0.5-0.8,0.3c-0.2-0.1-0.3-0.2-0.4-0.3c-0.4-0.4-0.7-0.8-0.9-1.2
					c-0.4-0.7-0.7-1.5-1-2.2c0-0.1-0.1-0.2-0.1-0.3l-0.1,0.1c-0.4,0.7-0.7,1.4-1.1,2.2c-0.2,0.4-0.4,0.8-0.7,1.2
					c-0.1,0.1-0.2,0.3-0.4,0.4c-0.1,0.1-0.2,0.2-0.3,0.2c-0.2,0-0.3,0-0.4-0.1c-0.2-0.2-0.3-0.3-0.3-0.6c-0.2-0.5-0.3-1-0.5-1.6
					c-0.3-1.1-0.5-2.1-0.7-3.2c-0.1-0.7-0.2-1.4-0.3-2c-0.1-0.4,0.1-0.8,0.7-0.9c0.1,0,0.2,0,0.3,0c0.2,0.1,0.4,0.2,0.5,0.4
					s0.1,0.3,0.1,0.5c0.1,0.6,0.2,1.1,0.3,1.7c0.1,0.8,0.3,1.6,0.5,2.3C119.9,55.6,120,55.8,120,56L120,56z"/>
				<path class="st11" d="M137.5,54.2c0,0.9-0.3,1.8-0.9,2.6c-0.3,0.4-0.7,0.8-1.2,1c-0.9,0.3-1.7,0.1-2.4-0.6
					c-0.3-0.3-0.5-0.7-0.6-1.2c-0.3-1.3-0.1-2.6,0.7-3.7c0.2-0.3,0.5-0.6,0.8-0.9c0.4-0.3,0.9-0.4,1.4-0.3c0.4,0,0.8,0.2,1.1,0.4
					c0.4,0.3,0.6,0.6,0.8,1C137.5,53.1,137.6,53.6,137.5,54.2z M136,54.1c0-0.1,0-0.3,0-0.4c0-0.3-0.1-0.6-0.3-0.8s-0.4-0.3-0.7-0.2
					c-0.2,0.1-0.3,0.2-0.4,0.3c-0.1,0.1-0.2,0.3-0.3,0.4c-0.4,0.7-0.5,1.4-0.3,2.2c0.1,0.2,0.1,0.4,0.3,0.5c0.1,0.1,0.3,0.2,0.4,0.2
					c0.1,0,0.2,0,0.3-0.1c0.3-0.2,0.5-0.4,0.6-0.6C135.9,55.2,136,54.7,136,54.1z"/>
				<path class="st11" d="M126.7,55.1c0-0.8,0.2-1.5,0.5-2.2c0.2-0.5,0.5-0.9,1-1.2c0.5-0.4,1-0.5,1.6-0.5c0.4,0,0.8,0.2,1.1,0.4
					c0.4,0.3,0.6,0.6,0.8,1.1s0.3,1,0.2,1.5c0,1.1-0.4,2.1-1,2.9c-0.3,0.4-0.7,0.7-1.2,0.8c-0.8,0.2-1.6,0-2.2-0.6
					c-0.3-0.3-0.4-0.6-0.6-1C126.8,55.9,126.7,55.5,126.7,55.1z M130.4,54.2c0-0.3,0-0.6-0.2-0.9c-0.1-0.1-0.1-0.3-0.2-0.4
					c-0.2-0.2-0.4-0.3-0.7-0.2c-0.2,0.1-0.3,0.2-0.4,0.3c-0.2,0.3-0.4,0.5-0.5,0.8c-0.2,0.6-0.3,1.3-0.1,1.9
					c0.1,0.2,0.1,0.4,0.3,0.5c0.1,0.1,0.3,0.2,0.4,0.1c0.1,0,0.2-0.1,0.3-0.1c0.3-0.2,0.5-0.4,0.6-0.6
					C130.3,55.2,130.4,54.7,130.4,54.2z"/>
				<path class="st10" d="M136,54.1c0,0.5-0.1,1.1-0.4,1.5c-0.2,0.3-0.4,0.5-0.6,0.6c-0.1,0.1-0.2,0.1-0.3,0.1
					c-0.2,0-0.3-0.1-0.4-0.2c-0.1-0.2-0.2-0.4-0.3-0.5c-0.2-0.8-0.1-1.5,0.3-2.2c0.1-0.1,0.2-0.3,0.3-0.4c0.1-0.1,0.3-0.3,0.4-0.3
					c0.3-0.1,0.5,0,0.7,0.2s0.3,0.5,0.3,0.8C136,53.9,136,54,136,54.1z"/>
				<path class="st10" d="M130.4,54.2c0,0.5-0.1,1-0.4,1.5c-0.1,0.3-0.3,0.5-0.6,0.6c-0.1,0.1-0.2,0.1-0.3,0.1c-0.2,0-0.3,0-0.4-0.1
					c-0.1-0.1-0.2-0.3-0.3-0.5c-0.2-0.6-0.2-1.3,0.1-1.9c0.1-0.3,0.3-0.6,0.5-0.8c0.1-0.1,0.2-0.2,0.4-0.3s0.5,0,0.7,0.2
					c0.1,0.1,0.2,0.3,0.2,0.4C130.3,53.6,130.4,53.9,130.4,54.2z"/>
			</g>
		</g>
	</g>
	<g>
		<path class="st12" d="M127.3,221.8c-1.2,0.5-2.5,1-3.6,1.2c-0.5,0.1-0.9,0.1-1.3,0.1l0,0.1c-0.4,0.2-3.5,3.9-3.6,4.2
			c-0.1,0.6-0.1,1.1,0,1.5c0.4,1.3,1.9,1.5,3.4,0.8c2.2-1.2,3.2-2.6,4.9-4.2C127.9,224.7,127.7,222.2,127.3,221.8z"/>
		<path class="st12" d="M136.5,219.9c0.8,0.7,1.8,1.2,2.7,1.4c0.4,0.1,0.8,0.2,1.1,0.2l0,0.1c0.2,0.2,1.4,4.8,1.3,5.3
			c-0.1,0.7-0.4,1.4-0.7,1.9c-0.9,1.6-2.4,1.9-3.3,1c-1.4-1.5-1.3-3.1-2.1-5.2C135.1,223.6,136.2,220.5,136.5,219.9z"/>
		<linearGradient id="SVGID_3_" gradientUnits="userSpaceOnUse" x1="116.9218" y1="196.3685" x2="149.9393" y2="196.3685">
			<stop  offset="0" style="stop-color:#1E5177"/>
			<stop  offset="0.462" style="stop-color:#84A0B5"/>
			<stop  offset="1" style="stop-color:#FFFFFF"/>
		</linearGradient>
		<path class="st13" d="M137.3,170.9c-0.1-0.6-0.2-1.3-0.3-1.9c0,0-2.9,0-2.9,0h-0.5H132c0,0-1,0-1,0h-2.2h-4.3H123c0,0-6.1,0-6.1,0
			c0,0.6,0,1.3,0,1.9c0,1.5,0.2,3,0.3,4.5c0.3,3.1,0.6,6.2,0.9,9.3c0.4,3.9,0.8,7.8,1.2,11.7c0.4,3.9,0.8,7.9,1.2,11.8
			c0.3,3.2,0.7,6.4,1.1,9.6c0.1,1.2,0.3,2.4,0.4,3.6c0,0.4,0,1.4,0.2,1.6c0.2,0.2,1,0.3,1.3,0.3c1.3,0.2,2.8,0.4,4.1,0.3
			c0.3-1.2,0-2.5-0.1-3.7c0-0.7,0-1.3,0-2c0-1.6,0-3.3-0.1-4.9c0-4-0.1-8-0.1-12c0-4-0.1-7.9-0.1-11.9c0-2.8,0-5.5,0-8.3
			c0-0.1-0.1-1.7,0-1.8c1-0.4,1.7,2.9,1.9,3.4c0.9,3,1.4,6.1,2,9.2c0.7,3.9,1.3,7.9,1.8,11.9c0.5,3.7,1,7.5,1.4,11.3
			c0.3,2.3,0.5,4.5,0.8,6.8c0.1,0.5,0,1.2,0.2,1.6c0.1,0.3,0,0.2,0.3,0.3c0.2,0,0.5-0.1,0.7-0.1c1-0.2,2-0.5,3-0.9
			c0.3-0.1,0.6-0.2,0.8-0.4c0.2-0.4,0.1-1.1,0.1-1.6c0-0.4,0-0.8,0.1-1.2c0-0.9,0-1.8,0.1-2.6c0-2,0-4-0.1-6
			c-0.1-4.4-0.4-8.9-0.7-13.3c-0.3-4.3-0.6-8.6-1-12.9c-0.3-3.3-0.6-6.5-1-9.8C137.6,173.4,137.4,172.2,137.3,170.9z"/>
		<g>
			<path class="st3" d="M118.5,120.3c-0.1-0.6-0.2-1.2-0.3-1.8l-0.2,0c-1.5,2-1.2,5.4,2.2,5.4c-0.4-0.4-0.7-0.9-1-1.4
				C119,121.7,118.7,121,118.5,120.3z"/>
			<path class="st3" d="M135.1,119.3c-0.2,0.5-0.4,1-0.6,1.4c-0.3,0.6-0.6,1.3-1,1.9c-0.2,0.3-0.3,0.6-0.5,0.9
				c0.1-0.3,0.2-0.6,0.3-1c0.8-2.6,1.3-5.5,1.2-8c-0.1,0-0.1,0-0.2,0c-0.9-0.1-1.8-0.2-2.8-0.3c-0.1-1.2-0.3-2.3-0.8-2.4
				c-0.8-0.2-3.5-0.5-5.3-0.5s-4.3-0.7-4.8-0.3c-0.5,0.5-1.1,1.6-1.1,1.6c0,0.5-0.1,1.1-0.1,1.6c-0.2,3.2-0.1,6.5,0.6,9.5
				c-0.1,0.9,0,2.5,1,3.9c0.8,1.2,2.1,2,2.9,2.5c0.3,0.2,0.4,1.7,0.4,2.3c0.4,0.2,1.1,0.3,1.6,0.3c0.2,0,0.3,0,0.5,0
				c0.5,0,1.4,0,1.9-0.1c0.1,0,0.1,0,0.2,0c0-0.5,0-0.9,0-1.4c0-0.2-0.1-0.5,0-0.7c0.1-0.2,0.6-0.3,0.8-0.4c0.3-0.2,0.5-0.4,0.8-0.6
				c0.7-0.6,1.2-1.2,1.7-2c1-1.6,1.1-3.2,1.1-3.8c1.7,0.1,2.7-0.4,3.1-2.1C136.2,121.1,136.1,119.7,135.1,119.3z"/>
		</g>
		<path class="st14" d="M136.5,110.9c-0.4-1.5-1.3-2.8-3-3.7c-3.4-1.7-7.7-1.4-11.4-0.2c0,0-0.1,0-0.1,0c-2.4,0.7-3.4,1.1-4.3,3.7
			c-0.3,0.8-0.1,4,0.6,6.5c0,0.4,0,0.8,0,1.2c0,0.6,0.1,1.2,0.3,1.8c0.2,0.7,0.4,1.5,0.8,2.1c0.3,0.5,0.6,1,1,1.4c0,0,0,0,0,0
			c-0.7-3-0.8-6.4-0.7-9.5c0-0.5,0.1-1.1,0.1-1.6l0,0c0.3,0.2,0.6,0.4,0.9,0.6c2.3,1.5,6.1,0.4,4.6-0.2c2.7,1.2,6.2,0.9,9.1,1.3
			c0.1,0,0.1,0,0.2,0c0.1,2.5-0.4,5.4-1.2,8c-0.1,0.3-0.2,0.6-0.3,1c0.2-0.3,0.4-0.6,0.5-0.9c0.4-0.6,0.7-1.2,1-1.9
			c0.2-0.5,0.4-0.9,0.6-1.4c0.2-0.5,0.4-1,0.6-1.5l-0.1,0c0.4-1,0.7-2.1,0.9-3.2C136.8,113.3,136.8,112.1,136.5,110.9z"/>
		<path class="st3" d="M114.2,172.8c0.1,0,0.3-13.5,2.2-20.1l-4.9-0.3c-1.8,6.6-1.9,20.2-1.8,20.1c0,0.7-0.2,1.4-0.1,2.1
			c0,0.1-0.5,1.2-0.7,1.5c-0.3,0.6-1,4.9-0.9,5.1c0.1,0.9,1.3,1.9,1.8,1.9c0.8,0.4,2.4,0.1,2.5-0.4c0,0,0.2-4.8,0.9-6.6l0,0
			c-0.4,1.2,1.2,5.1,2.7,3.1c0,0-1.5-3.6-1.5-5C114.4,173.9,114.2,173.3,114.2,172.8z"/>
		<path class="st15" d="M126,139.5C126,139.5,126,139.5,126,139.5C126,139.4,126,139.4,126,139.5C126,139.4,126,139.4,126,139.5z"/>
		<path class="st15" d="M126,139.5C126,139.5,126,139.5,126,139.5C126,139.4,126,139.4,126,139.5C126,139.4,126,139.4,126,139.5z"/>
		<path class="st3" d="M146.3,175.5c-0.2-0.3-0.8-1.3-0.8-1.5c0-0.8-0.3-1.5-0.4-2.3c0.1,0-0.9-13-3-19.3l-4.9,0.2
			c2.3,6.4,3.5,19.6,3.6,19.6c0,0.6-0.1,1.3-0.1,1.9c0,0,0,0,0,0c0,1.4-1.3,4.9-1.3,4.9c1.7,2.2,3.1-2,2.6-3.1l0,0
			c0.9,1.7,1.4,4.5,1.5,6.5l0,0c0.2,0.5,1.8,0.6,2.5,0.2C146.5,182.6,146.7,176.1,146.3,175.5z"/>
		<linearGradient id="SVGID_4_" gradientUnits="userSpaceOnUse" x1="108.9331" y1="150.8525" x2="145.8051" y2="150.8525">
			<stop  offset="0" style="stop-color:#FFFFFF"/>
			<stop  offset="1" style="stop-color:#FF6347"/>
		</linearGradient>
		<path class="st16" d="M131,134.8L131,134.8c-0.2-0.2-0.3-0.4-0.5-0.5c-0.7-0.8-1-1.3-1.9-1.5c-0.1,0-3.7,0.1-4.1-0.2
			c-1.1,0.3-1.8,0.8-2.6,1.5c-0.3,0.2-0.8,0.7-0.8,0.7c-4.7,4.4-8.2,10.7-10,17.6l5.6,0.4c0.4-1.2,0.4-2.5,0.9-3.7
			c0-0.1,0.1-0.2,0.1-0.4c0-0.1,0.1-0.1,0.1-0.2c-0.1,0.7-0.1,1.3-0.2,2c0,0,0,0,0,0c-0.4,5.3-1.3,11.7-1.4,18.5h8.4h4.3h4.7h4
			c-0.1-1-1.4-14.4-2.5-21.5c0-0.1,0-0.2,0-0.3c0.1,0.1,0.1,0.3,0.2,0.4c0.8,1.6,1.3,3.4,1.9,5.1l5.3-0.3
			C140.1,145.5,136.2,139.1,131,134.8z M126,139.5C126,139.4,126,139.4,126,139.5C126,139.4,126,139.4,126,139.5
			C126,139.5,126,139.5,126,139.5z"/>
	</g>
</g>
</svg>
