<?xml version="1.0" encoding="utf-8"?>
<!-- Generator: Adobe Illustrator 21.0.2, SVG Export Plug-In . SVG Version: 6.00 Build 0)  -->
<svg version="1.1" id="Layer_1" xmlns="http://www.w3.org/2000/svg" xmlns:xlink="http://www.w3.org/1999/xlink" x="0px" y="0px"
	 viewBox="0 0 618 315.3" style="enable-background:new 0 0 618 315.3;" xml:space="preserve">
<style type="text/css">
	.st0{fill:#E05530;}
	.st1{fill:#BA3A20;}
	.st2{fill:#FFFFFF;}
	.st3{fill:url(#SVGID_1_);}
	.st4{fill:#004794;}
	.st5{fill:url(#SVGID_2_);}
	.st6{fill:#0F222C;}
	.st7{fill:url(#SVGID_3_);}
	.st8{opacity:0.6;fill:#F2F2F2;}
	.st9{fill:url(#SVGID_4_);}
	.st10{fill:url(#SVGID_5_);}
	.st11{fill:url(#SVGID_6_);}
	.st12{fill:#F2F2F2;}
	.st13{fill:url(#SVGID_7_);}
	.st14{fill:url(#SVGID_8_);}
	.st15{fill:#D14028;}
	.st16{fill:url(#SVGID_9_);}
	.st17{fill:url(#SVGID_10_);}
	.st18{fill:url(#SVGID_11_);}
</style>
<g>
	<path class="st0" d="M33.2,251.8c-25.5-27-44.1-71.1-25.9-102.6c22.5-39.4-9-68,59.1-92.5S147,6.9,194.9,6.9s65.3-15.5,122.2,0
		S424.9-10,478.6,26.6s72,37.4,93.1,87.9s83.2,53.9,15.5,121.4s-29.5,83-136.9,78.8s-166.7-24.1-247.9-8.5
		c-52.2,10.1-106-10.6-149.8-37.9C46.1,264.1,39.4,258.3,33.2,251.8z"/>
	<path class="st1" d="M416,212.1c1.3,5.8-55.3,11.1-126.6,11.8c-71.3,0.6-130.3-3.3-131.6-9.1c-1.3-5.8,55.3-11.1,126.6-11.8
		C355.7,202.2,414.7,206.3,416,212.1z"/>
	<g>
		<g>
			<rect x="93.8" y="208" class="st2" width="7.7" height="6.5"/>
		</g>
		<g>
			<path class="st2" d="M475.3,214.5h-15.6V208h15.6V214.5z M444.2,214.5h-15.6V208h15.6V214.5z M413,214.5h-15.6V208H413V214.5z
				 M381.9,214.5h-15.6V208h15.6V214.5z M350.7,214.5h-15.6V208h15.6V214.5z M319.6,214.5H304V208h15.6V214.5z M288.4,214.5h-15.6
				V208h15.6V214.5z M257.3,214.5h-15.6V208h15.6V214.5z M226.1,214.5h-15.6V208h15.6V214.5z M195,214.5h-15.6V208H195V214.5z
				 M163.8,214.5h-15.6V208h15.6V214.5z M132.7,214.5h-15.6V208h15.6V214.5z"/>
		</g>
		<g>
			<rect x="490.9" y="208" class="st2" width="7.7" height="6.5"/>
		</g>
	</g>
	<g>
		<linearGradient id="SVGID_1_" gradientUnits="userSpaceOnUse" x1="460.2387" y1="157.0325" x2="536.7864" y2="157.0325">
			<stop  offset="0" style="stop-color:#F89D89"/>
			<stop  offset="1" style="stop-color:#FFED94"/>
		</linearGradient>
		<path class="st3" d="M536.8,134.8c0,21.1-38.3,82.7-38.3,82.7s-38.3-61.6-38.3-82.7c0-21.1,17.1-38.3,38.3-38.3
			C519.7,96.5,536.8,113.7,536.8,134.8z"/>
		<circle class="st2" cx="498.5" cy="135" r="29.1"/>
		<g>
			<path class="st4" d="M488.9,122.6h10.4c2.1,0,3.6,0.1,4.6,0.3c1,0.2,1.9,0.5,2.7,1.1c0.8,0.5,1.5,1.3,2,2.2
				c0.5,0.9,0.8,1.9,0.8,3c0,1.2-0.3,2.3-1,3.4c-0.7,1-1.5,1.8-2.7,2.3c1.6,0.5,2.8,1.2,3.7,2.4s1.3,2.4,1.3,3.9
				c0,1.2-0.3,2.3-0.8,3.5c-0.6,1.1-1.3,2-2.3,2.7c-1,0.7-2.1,1.1-3.5,1.2c-0.9,0.1-3,0.2-6.3,0.2h-8.9V122.6z M494.2,126.9v6h3.4
				c2,0,3.3,0,3.8-0.1c0.9-0.1,1.6-0.4,2.1-0.9c0.5-0.5,0.8-1.2,0.8-2c0-0.8-0.2-1.5-0.7-2c-0.4-0.5-1.1-0.8-2-0.9
				c-0.5-0.1-2-0.1-4.5-0.1H494.2z M494.2,137.3v7h4.9c1.9,0,3.1-0.1,3.6-0.2c0.8-0.1,1.4-0.5,1.9-1s0.7-1.3,0.7-2.2
				c0-0.8-0.2-1.4-0.6-2c-0.4-0.5-0.9-0.9-1.6-1.2c-0.7-0.2-2.3-0.4-4.7-0.4H494.2z"/>
		</g>
	</g>
	<g>
		<linearGradient id="SVGID_2_" gradientUnits="userSpaceOnUse" x1="55.8947" y1="156.3301" x2="132.4424" y2="156.3301">
			<stop  offset="0" style="stop-color:#F89D89"/>
			<stop  offset="1" style="stop-color:#FFED94"/>
		</linearGradient>
		<path class="st5" d="M132.4,134.1c0,21.1-38.3,82.7-38.3,82.7s-38.3-61.6-38.3-82.7c0-21.1,17.1-38.3,38.3-38.3
			C115.3,95.8,132.4,113,132.4,134.1z"/>
		<circle class="st2" cx="94.2" cy="134.3" r="29.1"/>
		<g>
			<path class="st4" d="M108,147.9h-5.7L100,142H89.6l-2.1,5.9h-5.6l10.1-26h5.6L108,147.9z M98.4,137.6l-3.6-9.7l-3.5,9.7H98.4z"/>
		</g>
	</g>
	<g>
		<g>
			<circle class="st6" cx="248.3" cy="199.6" r="14"/>
		</g>
		<linearGradient id="SVGID_3_" gradientUnits="userSpaceOnUse" x1="309.0512" y1="164.1503" x2="379.3471" y2="164.1503">
			<stop  offset="0" style="stop-color:#F89D89"/>
			<stop  offset="1" style="stop-color:#FFED94"/>
		</linearGradient>
		<path class="st7" d="M379.3,192.9h-70.3v-57.5h35.2c6.9,0,13.3,3.4,17.2,9.1l14.4,21.3c2.3,3.4,3.5,7.5,3.5,11.6V192.9z"/>
		<path class="st8" d="M325.9,169.4v-27.5h18.4c4.7,0,9.1,2.3,11.8,6.3l14.4,21.3H325.9z"/>
		<linearGradient id="SVGID_4_" gradientUnits="userSpaceOnUse" x1="309.0512" y1="164.1503" x2="317.5163" y2="164.1503">
			<stop  offset="0" style="stop-color:#F89D89"/>
			<stop  offset="1" style="stop-color:#FFED94"/>
		</linearGradient>
		<rect x="309.1" y="135.4" class="st9" width="8.5" height="57.5"/>
		<g>
			<path class="st0" d="M333.2,174h-5.5c-1,0-1.8-0.8-1.8-1.8v-0.5h9v0.5C335,173.2,334.2,174,333.2,174z"/>
		</g>
		<linearGradient id="SVGID_5_" gradientUnits="userSpaceOnUse" x1="205.7388" y1="197.5316" x2="382.1105" y2="197.5316">
			<stop  offset="0" style="stop-color:#FFED94"/>
			<stop  offset="1" style="stop-color:#F89D89"/>
		</linearGradient>
		<path class="st10" d="M378.4,192.9H251.6h-43.1c-1.5,0-2.8,1.2-2.8,2.8v3.8c0,1.5,1.2,2.8,2.8,2.8h43.1h126.8c2,0,3.7-1.7,3.7-3.7
			v-1.9C382.1,194.5,380.5,192.9,378.4,192.9z"/>
		<g>
			<radialGradient id="SVGID_6_" cx="326.5056" cy="202.1846" r="14.0035" gradientUnits="userSpaceOnUse">
				<stop  offset="0" style="stop-color:#FFED94"/>
				<stop  offset="1" style="stop-color:#F89D89"/>
			</radialGradient>
			<circle class="st11" cx="326.5" cy="202.2" r="14"/>
			<circle class="st12" cx="326.5" cy="202.2" r="6.9"/>
		</g>
		<g>
			<g>
				<linearGradient id="SVGID_7_" gradientUnits="userSpaceOnUse" x1="266.2987" y1="177.7403" x2="303.6899" y2="177.7403">
					<stop  offset="0" style="stop-color:#FFFFFF"/>
					<stop  offset="1" style="stop-color:#FFD297"/>
				</linearGradient>
				<polygon class="st13" points="266.3,162.4 266.3,172.9 266.3,193 293.3,193 303.7,193 303.7,162.4 				"/>
				<linearGradient id="SVGID_8_" gradientUnits="userSpaceOnUse" x1="265.4737" y1="166.8345" x2="304.5149" y2="166.8345">
					<stop  offset="0" style="stop-color:#FFD297"/>
					<stop  offset="1" style="stop-color:#FFFFFF"/>
				</linearGradient>
				<rect x="265.5" y="161.3" class="st14" width="39" height="11"/>
				<g>
					<g>
						<g>
							<polygon class="st15" points="268.2,192.3 270.4,192.3 270.6,192.3 271,192.3 271,191.3 270.4,191.3 270.4,191.7 
								268.2,191.7 268.2,191.3 267.6,191.3 267.6,192.3 268,192.3 							"/>
						</g>
						<g>
							<polygon class="st15" points="268.7,191.3 269.9,191.3 269.9,189.5 270.5,189.5 269.3,188.2 268.1,189.5 268.7,189.5 							
								"/>
						</g>
					</g>
				</g>
				<path class="st15" d="M275.2,189.4v-1h-0.6l-0.2,0.6l0.2,0.1l-0.3,1l0.2-0.9l-0.3,0l0.1-0.7h-1.1v1c0,0.6,0.3,1.1,0.8,1.1v1.5
					h-0.5c-0.1,0-0.1,0-0.1,0.1c0,0.1,0,0.1,0.1,0.1h1.2c0.1,0,0.1,0,0.1-0.1c0-0.1,0-0.1-0.1-0.1h-0.5v-1.5
					C274.8,190.5,275.2,190,275.2,189.4z"/>
				<path class="st15" d="M279.6,188.7C279.6,188.7,279.6,188.7,279.6,188.7c-0.1,0-0.2,0-0.3,0v0v-0.1c0-0.1-0.1-0.2-0.2-0.2
					c-0.1,0-0.2,0.1-0.2,0.2v0.1v0c-1.5,0.1-1.6,1.8-1.6,1.8h1h0.6v1.4c0,0,0,0,0,0c0,0,0,0.1-0.2,0.1c0,0-0.1,0-0.1,0
					c-0.1-0.1-0.1-0.2-0.1-0.2c0-0.1-0.1-0.2-0.2-0.2c-0.1,0-0.2,0.1-0.2,0.2c0,0.1,0,0.3,0.2,0.4c0.1,0.1,0.2,0.1,0.3,0.1
					c0.3,0,0.5-0.3,0.5-0.4c0,0,0,0,0,0c0,0,0,0,0,0v-1.4h1.6C281,190.4,280.9,189,279.6,188.7z M278.5,189.1c0,0-0.1,0.1-0.1,0.1
					c0,0-0.1,0.1-0.1,0.1c0,0,0,0-0.1,0.1c0,0,0,0-0.1,0.1c0,0-0.1,0.1-0.1,0.1c0,0,0,0,0,0.1c0,0,0,0,0,0.1c0,0,0,0,0,0.1
					c0,0,0,0,0,0.1c0,0,0,0.1,0,0.1c0,0,0,0.1,0,0.1c0,0,0,0.1,0,0.1c0,0.1,0,0.1,0,0.1s0,0,0-0.1c0,0,0-0.1,0-0.1c0,0,0-0.1,0-0.1
					c0,0,0-0.1,0-0.1c0,0,0-0.1,0-0.1c0,0,0-0.1,0-0.1c0,0,0-0.1,0-0.1c0,0,0,0,0,0l0,0c0-0.1,0.1-0.1,0.1-0.1c0,0,0,0,0.1-0.1
					c0,0,0,0,0.1-0.1c0,0,0.1-0.1,0.1-0.1c0.1-0.1,0.2-0.1,0.3-0.2c0.1,0,0.2-0.1,0.2-0.1c0,0,0.1,0,0.1,0s-0.1,0-0.3,0.1
					C278.6,189,278.5,189,278.5,189.1z M279,188.9C279,188.9,279,189,279,188.9c0,0.1-0.1,0.1-0.1,0.2c0,0,0,0.1,0,0.1
					c0,0,0,0.1,0,0.1c0,0,0,0.1,0,0.1c0,0,0,0.1,0,0.1c0,0,0,0.1,0,0.1c0,0,0,0.1,0,0.1c0,0,0,0.1,0,0.1c0,0,0,0.1,0,0.1
					c0,0,0,0.1,0,0.1c0,0,0,0.1,0,0.1c0,0,0,0.1,0,0.1s0,0,0-0.1c0,0,0,0,0-0.1c0,0,0-0.1,0-0.1c0,0,0-0.1,0-0.1c0,0,0-0.1,0-0.1
					c0,0,0-0.1,0-0.1c0,0,0-0.1,0-0.1c0,0,0-0.1,0-0.1c0,0,0-0.1,0-0.1c0,0,0,0,0-0.1c0,0,0,0,0-0.1c0,0,0-0.1,0.1-0.1
					C278.9,189,279,188.9,279,188.9C279,188.9,279,188.9,279,188.9C279,188.9,279,188.9,279,188.9z M279.7,190.2
					C279.7,190.2,279.7,190.2,279.7,190.2c0,0.1,0,0.1,0,0.1S279.6,190.3,279.7,190.2C279.6,190.2,279.6,190.2,279.7,190.2
					C279.6,190.1,279.6,190.1,279.7,190.2c0-0.1-0.1-0.2-0.1-0.2c0,0,0-0.1,0-0.1c0,0,0-0.1,0-0.1c0,0,0-0.1,0-0.1c0,0,0-0.1,0-0.1
					c0,0,0-0.1,0-0.1c0,0,0-0.1,0-0.1c0,0,0-0.1,0-0.1c0,0,0-0.1,0-0.1c0,0,0,0,0-0.1c0,0,0-0.1,0-0.1s0,0,0,0c0,0,0.1,0.1,0.1,0.1
					c0,0,0,0.1,0.1,0.1c0,0,0,0,0,0.1c0,0,0,0,0,0.1c0,0,0,0.1,0,0.1c0,0,0,0.1,0,0.1c0,0,0,0.1,0,0.1c0,0,0,0.1,0,0.1
					c0,0,0,0.1,0,0.1C279.7,190,279.7,190,279.7,190.2C279.7,190.1,279.7,190.1,279.7,190.2z M280.5,190.1c0,0,0-0.1,0-0.1
					c0,0,0-0.1,0-0.1c0,0,0,0,0-0.1c0,0,0,0,0-0.1c0,0,0,0,0-0.1c0,0,0,0,0-0.1c0,0-0.1-0.1-0.1-0.1c0,0,0,0-0.1-0.1
					c0,0,0,0-0.1-0.1c0,0-0.1-0.1-0.1-0.1c0,0-0.1-0.1-0.1-0.1c0,0-0.1-0.1-0.1-0.1c-0.1-0.1-0.3-0.1-0.3-0.1s0,0,0.1,0
					c0.1,0,0.1,0,0.2,0.1c0.1,0,0.2,0.1,0.3,0.2c0,0,0.1,0.1,0.1,0.1c0,0,0,0,0.1,0.1c0,0,0,0,0.1,0.1c0,0,0.1,0.1,0.1,0.1l0,0
					c0,0,0,0,0,0c0,0,0,0.1,0,0.1c0,0,0,0.1,0,0.1c0,0,0,0.1,0,0.1c0,0,0,0.1,0,0.1C280.5,190,280.5,190.1,280.5,190.1
					C280.5,190.1,280.6,190.2,280.5,190.1c0,0.1,0,0.2,0,0.2S280.6,190.2,280.5,190.1C280.5,190.2,280.5,190.1,280.5,190.1z"/>
			</g>
			<rect x="270" y="161.3" class="st15" width="6.2" height="11"/>
			<rect x="293.8" y="161.3" class="st15" width="6.2" height="11"/>
			<g>
				<g>
					<g>
						<polygon class="st15" points="294,175.2 294,179.4 294.4,179.4 294.4,175.2 294.4,173.9 294,173.9 						"/>
					</g>
					<g>
						<rect x="296.7" y="173.9" class="st15" width="0.3" height="5.5"/>
					</g>
					<g>
						<rect x="297.4" y="173.9" class="st15" width="1.1" height="5.5"/>
					</g>
					<g>
						<rect x="300.3" y="173.9" class="st15" width="0.4" height="5.5"/>
					</g>
					<g>
						<rect x="299.5" y="173.9" class="st15" width="0.2" height="5.5"/>
					</g>
					<g>
						<rect x="301" y="173.9" class="st15" width="0.5" height="5.5"/>
					</g>
					<g>
						<rect x="295.7" y="173.9" class="st15" width="0.5" height="5.5"/>
					</g>
					<g>
						<rect x="294.7" y="173.9" class="st15" width="0.3" height="5.5"/>
					</g>
					<g>
						<rect x="295.1" y="173.9" class="st15" width="0.2" height="5.5"/>
					</g>
					<g>
						<rect x="298.9" y="173.9" class="st15" width="0.2" height="5.5"/>
					</g>
				</g>
			</g>
		</g>
		<g>
			<g>
				<linearGradient id="SVGID_9_" gradientUnits="userSpaceOnUse" x1="224.947" y1="177.7403" x2="262.3382" y2="177.7403">
					<stop  offset="0" style="stop-color:#FFFFFF"/>
					<stop  offset="1" style="stop-color:#FFD297"/>
				</linearGradient>
				<polygon class="st16" points="224.9,162.4 224.9,172.9 224.9,193 251.9,193 262.3,193 262.3,162.4 				"/>
				<linearGradient id="SVGID_10_" gradientUnits="userSpaceOnUse" x1="224.122" y1="166.8345" x2="263.1631" y2="166.8345">
					<stop  offset="0" style="stop-color:#FFD297"/>
					<stop  offset="1" style="stop-color:#FFFFFF"/>
				</linearGradient>
				<rect x="224.1" y="161.3" class="st17" width="39" height="11"/>
				<g>
					<g>
						<g>
							<polygon class="st15" points="226.8,192.3 229.1,192.3 229.3,192.3 229.6,192.3 229.6,191.3 229.1,191.3 229.1,191.7 
								226.8,191.7 226.8,191.3 226.3,191.3 226.3,192.3 226.6,192.3 							"/>
						</g>
						<g>
							<polygon class="st15" points="227.3,191.3 228.6,191.3 228.6,189.5 229.1,189.5 227.9,188.2 226.8,189.5 227.3,189.5 							
								"/>
						</g>
					</g>
				</g>
				<path class="st15" d="M233.8,189.4v-1h-0.6l-0.2,0.6l0.2,0.1l-0.3,1l0.2-0.9l-0.3,0l0.1-0.7h-1.1v1c0,0.6,0.3,1.1,0.8,1.1v1.5
					h-0.5c-0.1,0-0.1,0-0.1,0.1c0,0.1,0,0.1,0.1,0.1h1.2c0.1,0,0.1,0,0.1-0.1c0-0.1,0-0.1-0.1-0.1H233v-1.5
					C233.5,190.5,233.8,190,233.8,189.4z"/>
				<path class="st15" d="M238.2,188.7C238.2,188.7,238.2,188.7,238.2,188.7c-0.1,0-0.2,0-0.3,0v0v-0.1c0-0.1-0.1-0.2-0.2-0.2
					c-0.1,0-0.2,0.1-0.2,0.2v0.1v0c-1.5,0.1-1.6,1.8-1.6,1.8h1h0.6v1.4c0,0,0,0,0,0c0,0,0,0.1-0.2,0.1c0,0-0.1,0-0.1,0
					c-0.1-0.1-0.1-0.2-0.1-0.2c0-0.1-0.1-0.2-0.2-0.2c-0.1,0-0.2,0.1-0.2,0.2c0,0.1,0,0.3,0.2,0.4c0.1,0.1,0.2,0.1,0.3,0.1
					c0.3,0,0.5-0.3,0.5-0.4c0,0,0,0,0,0c0,0,0,0,0,0v-1.4h1.6C239.6,190.4,239.5,189,238.2,188.7z M237.1,189.1c0,0-0.1,0.1-0.1,0.1
					c0,0-0.1,0.1-0.1,0.1c0,0,0,0-0.1,0.1c0,0,0,0-0.1,0.1c0,0-0.1,0.1-0.1,0.1c0,0,0,0,0,0.1c0,0,0,0,0,0.1c0,0,0,0,0,0.1
					c0,0,0,0,0,0.1c0,0,0,0.1,0,0.1c0,0,0,0.1,0,0.1c0,0,0,0.1,0,0.1c0,0.1,0,0.1,0,0.1s0,0,0-0.1c0,0,0-0.1,0-0.1c0,0,0-0.1,0-0.1
					c0,0,0-0.1,0-0.1c0,0,0-0.1,0-0.1c0,0,0-0.1,0-0.1c0,0,0-0.1,0-0.1c0,0,0,0,0,0l0,0c0-0.1,0.1-0.1,0.1-0.1c0,0,0,0,0.1-0.1
					c0,0,0,0,0.1-0.1c0,0,0.1-0.1,0.1-0.1c0.1-0.1,0.2-0.1,0.3-0.2c0.1,0,0.2-0.1,0.2-0.1c0,0,0.1,0,0.1,0s-0.1,0-0.3,0.1
					C237.2,189,237.2,189,237.1,189.1z M237.6,188.9C237.6,188.9,237.6,189,237.6,188.9c0,0.1-0.1,0.1-0.1,0.2c0,0,0,0.1,0,0.1
					c0,0,0,0.1,0,0.1c0,0,0,0.1,0,0.1c0,0,0,0.1,0,0.1c0,0,0,0.1,0,0.1c0,0,0,0.1,0,0.1c0,0,0,0.1,0,0.1c0,0,0,0.1,0,0.1
					c0,0,0,0.1,0,0.1c0,0,0,0.1,0,0.1c0,0,0,0.1,0,0.1s0,0,0-0.1c0,0,0,0,0-0.1c0,0,0-0.1,0-0.1c0,0,0-0.1,0-0.1c0,0,0-0.1,0-0.1
					c0,0,0-0.1,0-0.1c0,0,0-0.1,0-0.1c0,0,0-0.1,0-0.1c0,0,0-0.1,0-0.1c0,0,0,0,0-0.1c0,0,0,0,0-0.1c0,0,0-0.1,0.1-0.1
					C237.6,189,237.6,188.9,237.6,188.9C237.7,188.9,237.7,188.9,237.6,188.9C237.7,188.9,237.7,188.9,237.6,188.9z M238.3,190.2
					C238.3,190.2,238.3,190.2,238.3,190.2c0,0.1,0,0.1,0,0.1S238.3,190.3,238.3,190.2C238.3,190.2,238.3,190.2,238.3,190.2
					C238.3,190.1,238.3,190.1,238.3,190.2c0-0.1-0.1-0.2-0.1-0.2c0,0,0-0.1,0-0.1c0,0,0-0.1,0-0.1c0,0,0-0.1,0-0.1c0,0,0-0.1,0-0.1
					c0,0,0-0.1,0-0.1c0,0,0-0.1,0-0.1c0,0,0-0.1,0-0.1c0,0,0-0.1,0-0.1c0,0,0,0,0-0.1c0,0,0-0.1,0-0.1s0,0,0,0c0,0,0.1,0.1,0.1,0.1
					c0,0,0,0.1,0.1,0.1c0,0,0,0,0,0.1c0,0,0,0,0,0.1c0,0,0,0.1,0,0.1c0,0,0,0.1,0,0.1c0,0,0,0.1,0,0.1c0,0,0,0.1,0,0.1
					c0,0,0,0.1,0,0.1C238.3,190,238.3,190,238.3,190.2C238.3,190.1,238.3,190.1,238.3,190.2z M239.2,190.1c0,0,0-0.1,0-0.1
					c0,0,0-0.1,0-0.1c0,0,0,0,0-0.1c0,0,0,0,0-0.1c0,0,0,0,0-0.1c0,0,0,0,0-0.1c0,0-0.1-0.1-0.1-0.1c0,0,0,0-0.1-0.1
					c0,0,0,0-0.1-0.1c0,0-0.1-0.1-0.1-0.1c0,0-0.1-0.1-0.1-0.1c0,0-0.1-0.1-0.1-0.1c-0.1-0.1-0.3-0.1-0.3-0.1s0,0,0.1,0
					c0.1,0,0.1,0,0.2,0.1c0.1,0,0.2,0.1,0.3,0.2c0,0,0.1,0.1,0.1,0.1c0,0,0,0,0.1,0.1c0,0,0,0,0.1,0.1c0,0,0.1,0.1,0.1,0.1l0,0
					c0,0,0,0,0,0c0,0,0,0.1,0,0.1c0,0,0,0.1,0,0.1c0,0,0,0.1,0,0.1c0,0,0,0.1,0,0.1C239.2,190,239.2,190.1,239.2,190.1
					C239.2,190.1,239.2,190.2,239.2,190.1c0,0.1,0,0.2,0,0.2S239.2,190.2,239.2,190.1C239.2,190.2,239.2,190.1,239.2,190.1z"/>
			</g>
			<rect x="228.7" y="161.3" class="st15" width="6.2" height="11"/>
			<rect x="252.4" y="161.3" class="st15" width="6.2" height="11"/>
			<g>
				<g>
					<g>
						<polygon class="st15" points="252.6,175.2 252.6,179.4 253.1,179.4 253.1,175.2 253.1,173.9 252.6,173.9 						"/>
					</g>
					<g>
						<rect x="255.3" y="173.9" class="st15" width="0.3" height="5.5"/>
					</g>
					<g>
						<rect x="256" y="173.9" class="st15" width="1.1" height="5.5"/>
					</g>
					<g>
						<rect x="259" y="173.9" class="st15" width="0.4" height="5.5"/>
					</g>
					<g>
						<rect x="258.2" y="173.9" class="st15" width="0.2" height="5.5"/>
					</g>
					<g>
						<rect x="259.7" y="173.9" class="st15" width="0.5" height="5.5"/>
					</g>
					<g>
						<rect x="254.3" y="173.9" class="st15" width="0.5" height="5.5"/>
					</g>
					<g>
						<rect x="253.3" y="173.9" class="st15" width="0.3" height="5.5"/>
					</g>
					<g>
						<rect x="253.8" y="173.9" class="st15" width="0.2" height="5.5"/>
					</g>
					<g>
						<rect x="257.6" y="173.9" class="st15" width="0.2" height="5.5"/>
					</g>
				</g>
			</g>
		</g>
		<g>
			<radialGradient id="SVGID_11_" cx="248.295" cy="199.5711" r="14.0036" gradientUnits="userSpaceOnUse">
				<stop  offset="0" style="stop-color:#FFED94"/>
				<stop  offset="1" style="stop-color:#F89D89"/>
			</radialGradient>
			<circle class="st18" cx="248.3" cy="199.6" r="14"/>
			<circle class="st12" cx="248.3" cy="199.6" r="6.9"/>
		</g>
	</g>
</g>
</svg>
