<?xml version="1.0" encoding="utf-8"?>
<!-- Generator: Adobe Illustrator 21.0.2, SVG Export Plug-In . SVG Version: 6.00 Build 0)  -->
<svg version="1.1" id="Layer_1" xmlns="http://www.w3.org/2000/svg" xmlns:xlink="http://www.w3.org/1999/xlink" x="0px" y="0px"
	 viewBox="0 0 673.1 343.4" style="enable-background:new 0 0 673.1 343.4;" xml:space="preserve">
<style type="text/css">
	.st0{fill:#004794;}
	.st1{opacity:0.6;fill:#001355;enable-background:new    ;}
	.st2{fill:#FFFFFF;}
	.st3{opacity:0.8;}
	.st4{fill:url(#SVGID_1_);}
	.st5{fill:#0F222C;}
	.st6{fill:url(#SVGID_2_);}
	.st7{opacity:0.6;fill:#F2F2F2;}
	.st8{fill:url(#SVGID_3_);}
	.st9{fill:url(#SVGID_4_);}
	.st10{fill:url(#SVGID_5_);}
	.st11{fill:#F2F2F2;}
	.st12{fill:url(#SVGID_6_);}
	.st13{fill:url(#SVGID_7_);}
	.st14{fill:#D14028;}
	.st15{fill:url(#SVGID_8_);}
	.st16{fill:url(#SVGID_9_);}
	.st17{fill:url(#SVGID_10_);}
	.st18{fill:url(#SVGID_11_);}
</style>
<g>
	<path class="st0" d="M36.1,274.3c-27.7-29.4-48-77.4-28.2-111.7c24.5-42.9-9.8-74,64.4-100.8s87.7-54.3,140-54.3s71.2-16.9,133,0
		s117.5-18.4,176,21.5s78.4,40.7,101.4,95.7c23,54.9,90.6,58.7,16.9,132.2s-32.1,90.4-149.1,85.9s-181.6-26.2-270-9.3
		c-56.8,11-115.5-11.5-163.1-41.2C50.2,287.6,42.9,281.4,36.1,274.3z"/>
	<ellipse class="st1" cx="317" cy="233" rx="94" ry="7.8"/>
	<ellipse class="st1" cx="544.3" cy="236.4" rx="28.9" ry="2.4"/>
	<ellipse class="st1" cx="102.2" cy="235.5" rx="28.9" ry="2.4"/>
	<g>
		<g>
			<rect x="102.2" y="229.4" class="st2" width="8.4" height="7"/>
		</g>
		<g class="st3">
			<path class="st2" d="M517.7,236.4h-17v-7h17V236.4z M483.8,236.4h-17v-7h17V236.4z M449.9,236.4h-17v-7h17V236.4z M415.9,236.4
				h-17v-7h17V236.4z M382,236.4h-17v-7h17V236.4z M348.1,236.4h-17v-7h17V236.4z M314.2,236.4h-17v-7h17V236.4z M280.2,236.4h-17
				v-7h17V236.4z M246.3,236.4h-17v-7h17V236.4z M212.4,236.4h-17v-7h17V236.4z M178.5,236.4h-17v-7h17V236.4z M144.5,236.4h-17v-7
				h17V236.4z"/>
		</g>
		<g>
			<rect x="534.7" y="229.4" class="st2" width="8.4" height="7"/>
		</g>
	</g>
	<g>
		<linearGradient id="SVGID_1_" gradientUnits="userSpaceOnUse" x1="501.2633" y1="171.03" x2="584.6343" y2="171.03">
			<stop  offset="0" style="stop-color:#F89D89"/>
			<stop  offset="1" style="stop-color:#FFED94"/>
		</linearGradient>
		<path class="st4" d="M584.6,146.8c0,23-41.7,90.1-41.7,90.1s-41.7-67-41.7-90.1c0-23,18.7-41.7,41.7-41.7
			C566,105.2,584.6,123.8,584.6,146.8z"/>
		<circle class="st2" cx="542.9" cy="147" r="31.7"/>
		<g>
			<path class="st0" d="M532.5,133.5h11.3c2.2,0,3.9,0.1,5,0.3c1.1,0.2,2.1,0.6,3,1.2c0.9,0.6,1.6,1.4,2.2,2.4
				c0.6,1,0.9,2.1,0.9,3.3c0,1.3-0.4,2.5-1.1,3.7c-0.7,1.1-1.7,1.9-2.9,2.5c1.7,0.5,3.1,1.4,4,2.6c0.9,1.2,1.4,2.6,1.4,4.3
				c0,1.3-0.3,2.5-0.9,3.8c-0.6,1.2-1.4,2.2-2.5,2.9c-1,0.7-2.3,1.2-3.8,1.3c-1,0.1-3.3,0.2-6.9,0.2h-9.6V133.5z M538.2,138.3v6.6
				h3.8c2.2,0,3.6,0,4.2-0.1c1-0.1,1.7-0.5,2.3-1c0.6-0.6,0.8-1.3,0.8-2.2c0-0.9-0.2-1.6-0.7-2.1c-0.5-0.5-1.2-0.9-2.2-1
				c-0.6-0.1-2.2-0.1-4.9-0.1H538.2z M538.2,149.5v7.6h5.3c2.1,0,3.4-0.1,3.9-0.2c0.9-0.2,1.5-0.5,2.1-1.1c0.5-0.6,0.8-1.4,0.8-2.4
				c0-0.9-0.2-1.6-0.6-2.2c-0.4-0.6-1-1-1.8-1.3c-0.8-0.3-2.5-0.4-5.1-0.4H538.2z"/>
		</g>
	</g>
	<g>
		<g>
			<circle class="st5" cx="270.4" cy="220.1" r="15.3"/>
		</g>
		<linearGradient id="SVGID_2_" gradientUnits="userSpaceOnUse" x1="336.5994" y1="181.5597" x2="413.1613" y2="181.5597">
			<stop  offset="0" style="stop-color:#F89D89"/>
			<stop  offset="1" style="stop-color:#FFED94"/>
		</linearGradient>
		<path class="st6" d="M413.2,212.8h-76.6v-62.6H375c7.5,0,14.5,3.7,18.7,9.9l15.7,23.2c2.5,3.7,3.9,8.1,3.9,12.6V212.8z"/>
		<path class="st7" d="M355,187.3v-30h20c5.2,0,10,2.6,12.8,6.8l15.6,23.2H355z"/>
		<linearGradient id="SVGID_3_" gradientUnits="userSpaceOnUse" x1="336.5994" y1="181.5597" x2="345.819" y2="181.5597">
			<stop  offset="0" style="stop-color:#F89D89"/>
			<stop  offset="1" style="stop-color:#FFED94"/>
		</linearGradient>
		<rect x="336.6" y="150.3" class="st8" width="9.2" height="62.6"/>
		<g>
			<path class="st0" d="M363.1,192.3h-6.3c-1,0-1.8-0.8-1.8-1.8v-0.7h9.8v0.7C364.8,191.5,364,192.3,363.1,192.3z"/>
		</g>
		<linearGradient id="SVGID_4_" gradientUnits="userSpaceOnUse" x1="224.0779" y1="217.9165" x2="416.171" y2="217.9165">
			<stop  offset="0" style="stop-color:#FFED94"/>
			<stop  offset="1" style="stop-color:#F89D89"/>
		</linearGradient>
		<path class="st9" d="M412.2,212.8H274h-46.9c-1.7,0-3,1.3-3,3v4.1c0,1.7,1.3,3,3,3H274h138.1c2.2,0,4-1.8,4-4v-2.1
			C416.2,214.6,414.4,212.8,412.2,212.8z"/>
		<g>
			<radialGradient id="SVGID_5_" cx="355.6096" cy="222.9843" r="15.2517" gradientUnits="userSpaceOnUse">
				<stop  offset="0" style="stop-color:#FFED94"/>
				<stop  offset="1" style="stop-color:#F89D89"/>
			</radialGradient>
			<circle class="st10" cx="355.6" cy="223" r="15.3"/>
			<circle class="st11" cx="355.6" cy="223" r="7.5"/>
		</g>
		<g>
			<g>
				<linearGradient id="SVGID_6_" gradientUnits="userSpaceOnUse" x1="290.036" y1="196.361" x2="330.7601" y2="196.361">
					<stop  offset="0" style="stop-color:#DD594B"/>
					<stop  offset="1" style="stop-color:#FFD297"/>
				</linearGradient>
				<polygon class="st12" points="290,179.7 290,191.1 290,213 319.4,213 330.8,213 330.8,179.7 				"/>
				<linearGradient id="SVGID_7_" gradientUnits="userSpaceOnUse" x1="289.1374" y1="184.4832" x2="331.6586" y2="184.4832">
					<stop  offset="0" style="stop-color:#FFD297"/>
					<stop  offset="1" style="stop-color:#DD594B"/>
				</linearGradient>
				<rect x="289.1" y="178.5" class="st13" width="42.5" height="12"/>
				<g>
					<g>
						<g>
							<polygon class="st14" points="292.1,212.2 294.5,212.2 294.8,212.2 295.1,212.2 295.1,211.2 294.5,211.2 294.5,211.6 
								292.1,211.6 292.1,211.2 291.5,211.2 291.5,212.2 291.9,212.2 							"/>
						</g>
						<g>
							<polygon class="st14" points="292.6,211.2 294,211.2 294,209.1 294.6,209.1 293.3,207.8 292,209.1 292.6,209.1 							"/>
						</g>
					</g>
				</g>
				<path class="st14" d="M299.7,209.1V208h-0.6l-0.2,0.6l0.3,0.1l-0.4,1.1l0.2-1l-0.3,0l0.2-0.7h-1.2v1.1c0,0.6,0.4,1.1,0.9,1.2
					v1.7H298c-0.1,0-0.1,0-0.1,0.1c0,0.1,0,0.1,0.1,0.1h1.3c0.1,0,0.1,0,0.1-0.1c0-0.1,0-0.1-0.1-0.1h-0.5v-1.7
					C299.3,210.2,299.7,209.7,299.7,209.1z"/>
				<path class="st14" d="M304.5,208.3C304.5,208.3,304.5,208.3,304.5,208.3c-0.1,0-0.2,0-0.3,0v0v-0.1c0-0.1-0.1-0.2-0.2-0.2
					c-0.1,0-0.2,0.1-0.2,0.2v0.1v0c-1.7,0.1-1.8,1.9-1.8,1.9h1.1h0.6v1.5c0,0,0,0,0,0c0,0,0,0.1-0.2,0.1c0,0-0.1,0-0.1,0
					c-0.1-0.1-0.1-0.2-0.1-0.2c0-0.1-0.1-0.2-0.2-0.2c-0.1,0-0.2,0.1-0.2,0.2c0,0.1,0,0.3,0.2,0.5c0.1,0.1,0.2,0.1,0.4,0.1
					c0.4,0,0.5-0.3,0.5-0.5c0,0,0,0,0,0c0,0,0,0,0,0v-1.5h1.8C306,210.2,305.9,208.6,304.5,208.3z M303.3,208.7c0,0-0.1,0.1-0.1,0.1
					c0,0-0.1,0.1-0.1,0.1c0,0,0,0-0.1,0.1c0,0,0,0-0.1,0.1c0,0-0.1,0.1-0.1,0.2c0,0,0,0.1,0,0.1c0,0,0,0.1,0,0.1c0,0,0,0.1,0,0.1
					c0,0,0,0.1,0,0.1c0,0.1,0,0.1-0.1,0.1c0,0,0,0.1,0,0.1c0,0,0,0.1,0,0.1c0,0.1,0,0.1,0,0.1s0,0,0-0.1c0,0,0-0.1,0-0.1
					c0,0,0-0.1,0-0.1c0,0,0-0.1,0-0.2c0,0,0-0.1,0-0.1c0,0,0-0.1,0-0.1c0,0,0-0.1,0-0.1c0,0,0,0,0,0l0,0c0-0.1,0.1-0.1,0.1-0.2
					c0,0,0-0.1,0.1-0.1c0,0,0,0,0.1-0.1c0,0,0.1-0.1,0.1-0.1c0.1-0.1,0.2-0.1,0.3-0.2c0.1,0,0.2-0.1,0.2-0.1c0.1,0,0.1,0,0.1,0
					s-0.1,0-0.3,0.1C303.4,208.6,303.4,208.7,303.3,208.7z M303.9,208.5C303.9,208.6,303.8,208.6,303.9,208.5c0,0.1-0.1,0.1-0.1,0.2
					c0,0,0,0.1,0,0.1c0,0,0,0.1,0,0.1c0,0,0,0.1,0,0.1c0,0,0,0.1,0,0.1c0,0,0,0.1,0,0.1c0,0,0,0.1,0,0.1c0,0,0,0.1,0,0.1
					c0,0,0,0.1,0,0.1c0,0,0,0.1,0,0.1c0,0,0,0.1,0,0.1c0,0,0,0.1,0,0.1s0,0,0-0.1c0,0,0,0,0-0.1c0,0,0-0.1,0-0.1c0,0,0-0.1,0-0.1
					c0,0,0-0.1,0-0.1c0,0,0-0.1,0-0.1c0-0.1,0-0.1,0-0.2c0-0.1,0-0.1,0-0.1c0,0,0-0.1,0.1-0.1c0,0,0,0,0-0.1c0,0,0,0,0-0.1
					c0,0,0-0.1,0.1-0.1C303.8,208.6,303.8,208.6,303.9,208.5C303.9,208.5,303.9,208.5,303.9,208.5
					C303.9,208.5,303.9,208.5,303.9,208.5z M304.6,209.9C304.6,209.9,304.6,209.9,304.6,209.9c0,0.1,0,0.2,0,0.2
					S304.6,210,304.6,209.9C304.6,209.9,304.6,209.9,304.6,209.9c0,0,0-0.1,0-0.1c0,0,0-0.1,0-0.1c0,0,0-0.1,0-0.1c0,0,0-0.1,0-0.1
					c0,0,0-0.1,0-0.1c0,0,0-0.1,0-0.1c0,0,0-0.1,0-0.1c0,0,0-0.1,0-0.1c0,0,0-0.1,0-0.1c0,0,0-0.1,0-0.1c0,0,0-0.1,0-0.1
					c0,0,0-0.1,0-0.1s0,0,0,0.1c0,0,0.1,0.1,0.1,0.2c0,0,0,0.1,0.1,0.1c0,0,0,0,0,0.1c0,0,0,0,0,0.1c0,0,0,0.1,0.1,0.1
					c0,0,0,0.1,0,0.1c0,0.1,0,0.1,0,0.2c0,0.1,0,0.1,0,0.1c0,0,0,0.1,0,0.1c0,0,0,0.1,0,0.1C304.6,209.8,304.6,209.8,304.6,209.9z
					 M305.5,209.8c0,0,0-0.1,0-0.1c0,0,0-0.1-0.1-0.1c0,0,0-0.1,0-0.1c0,0,0-0.1,0-0.1c0,0,0-0.1,0-0.1c0,0,0-0.1,0-0.1
					c0-0.1-0.1-0.1-0.1-0.2c0,0,0,0-0.1-0.1c0,0,0,0-0.1-0.1c0,0-0.1-0.1-0.1-0.1c0,0-0.1-0.1-0.1-0.1c0,0-0.1-0.1-0.1-0.1
					c-0.2-0.1-0.3-0.1-0.3-0.1s0,0,0.1,0c0.1,0,0.1,0,0.2,0.1c0.1,0,0.2,0.1,0.3,0.2c0,0,0.1,0.1,0.1,0.1c0,0,0,0,0.1,0.1
					c0,0,0,0,0.1,0.1c0,0.1,0.1,0.1,0.1,0.2l0,0c0,0,0,0,0,0c0,0,0,0.1,0,0.1c0,0,0,0.1,0,0.1c0,0,0,0.1,0,0.1c0,0.1,0,0.1,0,0.2
					C305.5,209.7,305.5,209.8,305.5,209.8C305.6,209.9,305.6,209.9,305.5,209.8c0,0.2,0,0.2,0,0.2S305.6,210,305.5,209.8
					C305.5,209.9,305.5,209.9,305.5,209.8z"/>
			</g>
			<rect x="294.1" y="178.5" class="st14" width="6.7" height="12"/>
			<rect x="320" y="178.5" class="st14" width="6.7" height="12"/>
			<g>
				<g>
					<g>
						<polygon class="st14" points="320.2,193.6 320.2,198.1 320.6,198.1 320.6,193.6 320.6,192.1 320.2,192.1 						"/>
					</g>
					<g>
						<rect x="323.1" y="192.1" class="st14" width="0.3" height="6"/>
					</g>
					<g>
						<rect x="323.9" y="192.1" class="st14" width="1.2" height="6"/>
					</g>
					<g>
						<rect x="327.1" y="192.1" class="st14" width="0.4" height="6"/>
					</g>
					<g>
						<rect x="326.2" y="192.1" class="st14" width="0.3" height="6"/>
					</g>
					<g>
						<rect x="327.8" y="192.1" class="st14" width="0.6" height="6"/>
					</g>
					<g>
						<rect x="322" y="192.1" class="st14" width="0.6" height="6"/>
					</g>
					<g>
						<rect x="320.9" y="192.1" class="st14" width="0.3" height="6"/>
					</g>
					<g>
						<rect x="321.4" y="192.1" class="st14" width="0.3" height="6"/>
					</g>
					<g>
						<rect x="325.6" y="192.1" class="st14" width="0.3" height="6"/>
					</g>
				</g>
			</g>
		</g>
		<g>
			<g>
				<linearGradient id="SVGID_8_" gradientUnits="userSpaceOnUse" x1="244.9983" y1="196.361" x2="285.7224" y2="196.361">
					<stop  offset="0" style="stop-color:#DD594B"/>
					<stop  offset="1" style="stop-color:#FFD297"/>
				</linearGradient>
				<polygon class="st15" points="245,179.7 245,191.1 245,213 274.4,213 285.7,213 285.7,179.7 				"/>
				<linearGradient id="SVGID_9_" gradientUnits="userSpaceOnUse" x1="244.0997" y1="184.4832" x2="286.6209" y2="184.4832">
					<stop  offset="0" style="stop-color:#FFD297"/>
					<stop  offset="1" style="stop-color:#DD594B"/>
				</linearGradient>
				<rect x="244.1" y="178.5" class="st16" width="42.5" height="12"/>
				<g>
					<g>
						<g>
							<polygon class="st14" points="247.1,212.2 249.5,212.2 249.7,212.2 250.1,212.2 250.1,211.2 249.5,211.2 249.5,211.6 
								247.1,211.6 247.1,211.2 246.5,211.2 246.5,212.2 246.8,212.2 							"/>
						</g>
						<g>
							<polygon class="st14" points="247.6,211.2 248.9,211.2 248.9,209.1 249.5,209.1 248.3,207.8 247,209.1 247.6,209.1 							
								"/>
						</g>
					</g>
				</g>
				<path class="st14" d="M254.7,209.1V208H254l-0.2,0.6l0.3,0.1l-0.4,1.1l0.2-1l-0.3,0l0.2-0.7h-1.2v1.1c0,0.6,0.4,1.1,0.9,1.2v1.7
					H253c-0.1,0-0.1,0-0.1,0.1c0,0.1,0,0.1,0.1,0.1h1.3c0.1,0,0.1,0,0.1-0.1c0-0.1,0-0.1-0.1-0.1h-0.5v-1.7
					C254.3,210.2,254.7,209.7,254.7,209.1z"/>
				<path class="st14" d="M259.5,208.3C259.5,208.3,259.5,208.3,259.5,208.3c-0.1,0-0.2,0-0.3,0v0v-0.1c0-0.1-0.1-0.2-0.2-0.2
					c-0.1,0-0.2,0.1-0.2,0.2v0.1v0c-1.7,0.1-1.8,1.9-1.8,1.9h1.1h0.6v1.5c0,0,0,0,0,0c0,0,0,0.1-0.2,0.1c0,0-0.1,0-0.1,0
					c-0.1-0.1-0.1-0.2-0.1-0.2c0-0.1-0.1-0.2-0.2-0.2c-0.1,0-0.2,0.1-0.2,0.2c0,0.1,0,0.3,0.2,0.5c0.1,0.1,0.2,0.1,0.4,0.1
					c0.4,0,0.5-0.3,0.5-0.5c0,0,0,0,0,0c0,0,0,0,0,0v-1.5h1.8C261,210.2,260.9,208.6,259.5,208.3z M258.3,208.7c0,0-0.1,0.1-0.1,0.1
					c0,0-0.1,0.1-0.1,0.1c0,0,0,0-0.1,0.1c0,0,0,0-0.1,0.1c0,0-0.1,0.1-0.1,0.2c0,0,0,0.1,0,0.1c0,0,0,0.1,0,0.1c0,0,0,0.1,0,0.1
					c0,0,0,0.1,0,0.1c0,0.1,0,0.1-0.1,0.1c0,0,0,0.1,0,0.1c0,0,0,0.1,0,0.1c0,0.1,0,0.1,0,0.1s0,0,0-0.1c0,0,0-0.1,0-0.1
					c0,0,0-0.1,0-0.1c0,0,0-0.1,0-0.2c0,0,0-0.1,0-0.1c0,0,0-0.1,0-0.1c0,0,0-0.1,0-0.1c0,0,0,0,0,0l0,0c0-0.1,0.1-0.1,0.1-0.2
					c0,0,0-0.1,0.1-0.1c0,0,0,0,0.1-0.1c0,0,0.1-0.1,0.1-0.1c0.1-0.1,0.2-0.1,0.3-0.2c0.1,0,0.2-0.1,0.2-0.1c0.1,0,0.1,0,0.1,0
					s-0.1,0-0.3,0.1C258.4,208.6,258.3,208.7,258.3,208.7z M258.8,208.5C258.8,208.6,258.8,208.6,258.8,208.5c0,0.1-0.1,0.1-0.1,0.2
					c0,0,0,0.1,0,0.1c0,0,0,0.1,0,0.1c0,0,0,0.1,0,0.1c0,0,0,0.1,0,0.1c0,0,0,0.1,0,0.1c0,0,0,0.1,0,0.1c0,0,0,0.1,0,0.1
					c0,0,0,0.1,0,0.1c0,0,0,0.1,0,0.1c0,0,0,0.1,0,0.1c0,0,0,0.1,0,0.1s0,0,0-0.1c0,0,0,0,0-0.1c0,0,0-0.1,0-0.1c0,0,0-0.1,0-0.1
					c0,0,0-0.1,0-0.1c0,0,0-0.1,0-0.1c0-0.1,0-0.1,0-0.2c0-0.1,0-0.1,0-0.1c0,0,0-0.1,0.1-0.1c0,0,0,0,0-0.1c0,0,0,0,0-0.1
					c0,0,0-0.1,0.1-0.1C258.8,208.6,258.8,208.6,258.8,208.5C258.8,208.5,258.9,208.5,258.8,208.5
					C258.9,208.5,258.8,208.5,258.8,208.5z M259.5,209.9C259.5,209.9,259.5,209.9,259.5,209.9c0,0.1,0,0.2,0,0.2
					S259.5,210,259.5,209.9C259.5,209.9,259.5,209.9,259.5,209.9c0,0,0-0.1,0-0.1s0-0.1,0-0.1c0,0,0-0.1,0-0.1c0,0,0-0.1,0-0.1
					c0,0,0-0.1,0-0.1c0,0,0-0.1,0-0.1c0,0,0-0.1,0-0.1c0,0,0-0.1,0-0.1c0,0,0-0.1,0-0.1c0,0,0-0.1,0-0.1c0,0,0-0.1,0-0.1
					c0,0,0-0.1,0-0.1s0,0,0,0.1c0,0,0.1,0.1,0.1,0.2c0,0,0,0.1,0.1,0.1c0,0,0,0,0,0.1c0,0,0,0,0,0.1c0,0,0,0.1,0.1,0.1
					c0,0,0,0.1,0,0.1c0,0.1,0,0.1,0,0.2c0,0.1,0,0.1,0,0.1c0,0,0,0.1,0,0.1c0,0,0,0.1,0,0.1C259.5,209.8,259.5,209.8,259.5,209.9z
					 M260.5,209.8c0,0,0-0.1,0-0.1c0,0,0-0.1-0.1-0.1c0,0,0-0.1,0-0.1c0,0,0-0.1,0-0.1c0,0,0-0.1,0-0.1c0,0,0-0.1,0-0.1
					c0-0.1-0.1-0.1-0.1-0.2c0,0,0,0-0.1-0.1c0,0,0,0-0.1-0.1c0,0-0.1-0.1-0.1-0.1c0,0-0.1-0.1-0.1-0.1c0,0-0.1-0.1-0.1-0.1
					c-0.2-0.1-0.3-0.1-0.3-0.1s0,0,0.1,0c0.1,0,0.1,0,0.2,0.1c0.1,0,0.2,0.1,0.3,0.2c0,0,0.1,0.1,0.1,0.1c0,0,0,0,0.1,0.1
					c0,0,0,0,0.1,0.1c0,0.1,0.1,0.1,0.1,0.2l0,0c0,0,0,0,0,0c0,0,0,0.1,0,0.1c0,0,0,0.1,0,0.1c0,0,0,0.1,0,0.1c0,0.1,0,0.1,0,0.2
					C260.5,209.7,260.5,209.8,260.5,209.8C260.5,209.9,260.5,209.9,260.5,209.8c0,0.2,0,0.2,0,0.2S260.5,210,260.5,209.8
					C260.5,209.9,260.5,209.9,260.5,209.8z"/>
			</g>
			<rect x="249" y="178.5" class="st14" width="6.7" height="12"/>
			<rect x="274.9" y="178.5" class="st14" width="6.7" height="12"/>
			<g>
				<g>
					<g>
						<polygon class="st14" points="275.1,193.6 275.1,198.1 275.6,198.1 275.6,193.6 275.6,192.1 275.1,192.1 						"/>
					</g>
					<g>
						<rect x="278.1" y="192.1" class="st14" width="0.3" height="6"/>
					</g>
					<g>
						<rect x="278.8" y="192.1" class="st14" width="1.2" height="6"/>
					</g>
					<g>
						<rect x="282" y="192.1" class="st14" width="0.4" height="6"/>
					</g>
					<g>
						<rect x="281.2" y="192.1" class="st14" width="0.3" height="6"/>
					</g>
					<g>
						<rect x="282.8" y="192.1" class="st14" width="0.6" height="6"/>
					</g>
					<g>
						<rect x="277" y="192.1" class="st14" width="0.6" height="6"/>
					</g>
					<g>
						<rect x="275.9" y="192.1" class="st14" width="0.3" height="6"/>
					</g>
					<g>
						<rect x="276.4" y="192.1" class="st14" width="0.3" height="6"/>
					</g>
					<g>
						<rect x="280.6" y="192.1" class="st14" width="0.3" height="6"/>
					</g>
				</g>
			</g>
		</g>
		<g>
			<radialGradient id="SVGID_10_" cx="270.4275" cy="220.1378" r="15.2518" gradientUnits="userSpaceOnUse">
				<stop  offset="0" style="stop-color:#FFED94"/>
				<stop  offset="1" style="stop-color:#F89D89"/>
			</radialGradient>
			<circle class="st17" cx="270.4" cy="220.1" r="15.3"/>
			<circle class="st11" cx="270.4" cy="220.1" r="7.5"/>
		</g>
	</g>
	<g>
		<linearGradient id="SVGID_11_" gradientUnits="userSpaceOnUse" x1="60.877" y1="170.265" x2="144.248" y2="170.265">
			<stop  offset="0" style="stop-color:#F89D89"/>
			<stop  offset="1" style="stop-color:#FFED94"/>
		</linearGradient>
		<path class="st18" d="M144.2,146.1c0,23-41.7,90.1-41.7,90.1s-41.7-67-41.7-90.1c0-23,18.7-41.7,41.7-41.7
			C125.6,104.4,144.2,123.1,144.2,146.1z"/>
		<circle class="st2" cx="102.6" cy="146.2" r="31.7"/>
		<g>
			<path class="st0" d="M117.7,161.1h-6.2l-2.5-6.4H97.6l-2.3,6.4h-6.1l11-28.3h6.1L117.7,161.1z M107.1,149.9l-3.9-10.5l-3.8,10.5
				H107.1z"/>
		</g>
	</g>
</g>
</svg>
