<?xml version="1.0" encoding="utf-8"?>
<!-- Generator: Adobe Illustrator 21.0.2, SVG Export Plug-In . SVG Version: 6.00 Build 0)  -->
<svg version="1.1" id="Layer_1" xmlns="http://www.w3.org/2000/svg" xmlns:xlink="http://www.w3.org/1999/xlink" x="0px" y="0px"
	 viewBox="0 0 245.2 261.2" style="enable-background:new 0 0 245.2 261.2;" xml:space="preserve">
<style type="text/css">
	.st0{fill:#004794;}
	.st1{opacity:0.6;fill:#001355;enable-background:new    ;}
	.st2{fill:url(#SVGID_1_);}
	.st3{opacity:0.6;fill:#FFFFFF;enable-background:new    ;}
	.st4{fill:#FF7F50;}
	.st5{fill:url(#SVGID_2_);}
	.st6{fill:none;stroke:#CA4431;stroke-width:0.5;stroke-miterlimit:10;}
	.st7{fill:#DD9E73;}
	.st8{fill:url(#SVGID_3_);}
	.st9{fill:#1E5177;}
	.st10{fill:#001355;}
	.st11{fill:#594A42;}
	.st12{fill:url(#SVGID_4_);}
	.st13{fill:url(#SVGID_5_);}
</style>
<g>
	<path class="st0" d="M182.6,219.7c5.2-5.2,11.4-9.5,18.5-11.4c8.6-2.4,16.9-7.7,23.2-15.1c9.2-10.8,19.4-19.9,16.3-33.5
		c-11.6-50.6,28.6-70-20.1-95.3c-60.2-31.3-60.1-22.7-88.2-39.5c-28.1-16.8-49.1-40.9-78-10C43,27,27.8,42.7,21.7,58.6
		c-3.6,9.3-6.8,20.9-4.2,30.6c3.4,12.7,10.3,25,11.3,38.3c0.7,10.2-3.5,20.6-6.8,30.1c-13,37.3-41.6,40.5-1.2,74.7
		c30.6,25.8,81.5,33.4,120.1,26.8c8.1-1.4,13.6-8.1,19.1-13.7C167.9,237.1,174.6,227.7,182.6,219.7z"/>
	<path class="st1" d="M189.8,199.2c-0.7,1.5-23.5-12.2-50.9-30.6s-49-34.5-48.3-36s23.5,12.2,50.9,30.6S190.5,197.7,189.8,199.2z"/>
	<g>
		
			<linearGradient id="SVGID_1_" gradientUnits="userSpaceOnUse" x1="92.7354" y1="98.1289" x2="196.9775" y2="98.1289" gradientTransform="matrix(1 0 0 -1 0 201.8879)">
			<stop  offset="0" style="stop-color:#FFD297"/>
			<stop  offset="1" style="stop-color:#F89D89"/>
		</linearGradient>
		<path class="st2" d="M192.8,92.5L96.7,28.2c-2.2-1.5-4-0.3-4,2.6V107c0,2.9,1.8,6.5,4,8l96.1,64.3c2.2,1.5,4,0.3,4-2.6v-76.2
			C196.9,97.6,195.1,94,192.8,92.5z M193.1,174.5l-96.7-64.7V32.6l96.7,64.7V174.5z"/>
		<polygon class="st3" points="98.7,37.6 98.7,108.3 190.6,169.8 190.6,99.1 		"/>
		<g>
			<g>
				<path class="st4" d="M112.6,110.3c-2.9-1.9-5.3-6.6-5.3-10.5c0-3.8,2.4-5.3,5.3-3.4s5.3,6.6,5.3,10.5S115.5,112.2,112.6,110.3z
					 M112.6,97c-2.7-1.8-4.8-0.4-4.8,3.1s2.2,7.8,4.8,9.5s4.8,0.4,4.8-3.1C117.4,103.1,115.3,98.8,112.6,97z"/>
			</g>
			<path class="st4" d="M116.5,106c0,2.9-1.8,4-3.9,2.5s-3.9-4.9-3.9-7.8s1.8-4,3.9-2.5S116.5,103.2,116.5,106z"/>
		</g>
		
			<linearGradient id="SVGID_2_" gradientUnits="userSpaceOnUse" x1="75.4649" y1="368.3952" x2="100.196" y2="368.3952" gradientTransform="matrix(1.0877 0.7631 0 -1 20.6523 376.4084)">
			<stop  offset="0" style="stop-color:#DD594B"/>
			<stop  offset="5.000000e-02" style="stop-color:#DD594B;stop-opacity:0.91"/>
			<stop  offset="0.19" style="stop-color:#DD594B;stop-opacity:0.67"/>
			<stop  offset="0.34" style="stop-color:#DD594B;stop-opacity:0.46"/>
			<stop  offset="0.48" style="stop-color:#DD594B;stop-opacity:0.3"/>
			<stop  offset="0.62" style="stop-color:#DD594B;stop-opacity:0.17"/>
			<stop  offset="0.75" style="stop-color:#DD594B;stop-opacity:7.000000e-02"/>
			<stop  offset="0.88" style="stop-color:#DD594B;stop-opacity:2.000000e-02"/>
			<stop  offset="1" style="stop-color:#DD594B;stop-opacity:0"/>
		</linearGradient>
		<path class="st5" d="M125.3,78.6l4.3-0.4l-2.5-5.3c-2.7-5.1-5.7-8-6.9-8.9l0,0l0,0c-0.3-0.2-0.5-0.4-0.5-0.4s0,0-0.1,0l-7.1-4.9
			c-0.1-0.1-0.1-0.2-0.1-0.2c-5-1.8-5.9-0.8-5.9-0.8l-3.8,2c0,0,1.4,2,2.1,3.1s2.3,3.5,2.3,3.5l1.2-0.5c1.4,4.1,0.5,7.6,0.5,7.6
			c-1,1.2-1,8.5-1,8.5c2.3,2.1,5.3,4.9,8,6.8c4.7,3.2,8.8,5,8.8,5c0.1-1.1-0.4-7-1-9.9s0.2-7.5,0.2-7.5L125.3,78.6z"/>
		<g>
			<line class="st6" x1="136.1" y1="83.2" x2="174.1" y2="108"/>
			<line class="st6" x1="136.1" y1="77" x2="186.6" y2="110.1"/>
			<line class="st6" x1="136.1" y1="88.1" x2="166.3" y2="107.9"/>
			<line class="st6" x1="136.1" y1="94.1" x2="157.1" y2="107.8"/>
			<line class="st6" x1="136.1" y1="100.1" x2="146.6" y2="107"/>
		</g>
		<line class="st6" x1="135.4" y1="115.9" x2="186" y2="149"/>
		<line class="st6" x1="134" y1="119.6" x2="184.5" y2="152.7"/>
	</g>
	<ellipse class="st1" cx="72.2" cy="219.5" rx="41.5" ry="12.2"/>
	<g>
		<path class="st7" d="M114.4,112c1-2,1.5-3.2,1-5c-0.5-1.9-1.8-2.2-1.8-2.2c0.1-1.8-1.7-2.5-2.5-0.6c0,0,1.5-3.8-0.1-4.1
			c-0.5-0.1-2.1,4.1-3,8C106.6,114.2,112.5,115.1,114.4,112z"/>
		
			<linearGradient id="SVGID_3_" gradientUnits="userSpaceOnUse" x1="52.3208" y1="86.6393" x2="68.0199" y2="86.6393" gradientTransform="matrix(1 0 0 -1 0 201.8879)">
			<stop  offset="0" style="stop-color:#FFFFFF"/>
			<stop  offset="1" style="stop-color:#FF6347"/>
		</linearGradient>
		<path class="st8" d="M62.6,95.7c8.1,2,5.3,14.1,3,22.2c-2.2,7.5-2.2,17.9-8.1,17c-6.6-1-5.2-12.9-4.7-21.3
			C53.2,105,55.8,94,62.6,95.7z"/>
		<path class="st9" d="M66.2,207.3c2.1-0.7,7.4-2,9.2-0.4c1.7,1.6,1.3,6.2-4.1,8.6c-5.5,2.4-9.9,1.5-9.9,2.8c0,1.4-4,2.5-7.4,1.5
			s-3.6-6.1-1.7-8.8C54.3,208.4,61.2,209.1,66.2,207.3z"/>
		<path class="st9" d="M80.5,215.2c2.1-0.7,7.4-2,9.2-0.4c1.7,1.6,1.3,6.2-4.1,8.6c-5.5,2.4-9.9,1.5-9.9,2.8c0,1.4-4,2.5-7.4,1.5
			s-3.6-6.1-1.7-8.8C68.6,216.3,75.5,217.1,80.5,215.2z"/>
		<path class="st10" d="M81,156.3c-3.1-1.8-9.4-2.6-14.2-1.6c0-2.4,0-4.6-0.1-6.4c-4.3-2.6-14.2-2.8-18,0.8
			c-0.5,14.5,3,26.7,2.1,35.7c-0.9,9.1-0.2,25.7,0.3,27.9c1.9,3.1,7.3,5.2,13.3,1c0.2,0.9,0.4,1.7,0.6,2.5c0.1,2.2,0.3,3.8,0.4,4.4
			c2,3.3,8.1,5.5,14.6,0c0,0,0.3-5.6,0.8-14.1C81.3,198.9,81.2,168.7,81,156.3z"/>
		<path class="st7" d="M81.5,76.6c-5.9-1.4-11.6,3.1-12.7,10c-0.3,2.2,0,4.4,0.8,6.5l-2.9,12l10.2,2.4l1.4-5.7
			c0.4,0.2,0.8,0.3,1.3,0.4c5.9,1.4,9.5-3.6,10.6-10.5S87.4,78,81.5,76.6z"/>
		<path class="st11" d="M79.5,71.2c5.5,0,13.1,4.8,13.7,10.6c0.4,4.4-0.7,6.4-3.8,8.8c-0.9,0.7-2.4,1.8-3.3,3.4
			c-1.5,2.5-2.2,2.1-3.1-0.3s-1.2-4.4-4.1-1.3c-2.7,2.9-6.5,4.5-7.8,3.4c-1.9-1.6-2.3-3.2-3-8.9C67.7,83.8,68.7,71.2,79.5,71.2z"/>
		
			<linearGradient id="SVGID_4_" gradientUnits="userSpaceOnUse" x1="46.2702" y1="73.5094" x2="88.758" y2="73.5094" gradientTransform="matrix(1 0 0 -1 0 201.8879)">
			<stop  offset="0" style="stop-color:#FFFFFF"/>
			<stop  offset="1" style="stop-color:#FF6347"/>
		</linearGradient>
		<path class="st12" d="M81.4,142.2c2.7-5.9,7.7-17.3,7.3-21.1c-0.3-3.8-5.2-10.7-7.7-13c-0.3-0.3-0.5-0.5-0.8-0.8l0,0l0,0
			c-0.4-0.3-0.7-0.7-1.1-1.1c-0.1-0.1-0.1-0.1-0.2-0.2c-0.2-0.1-0.3-0.3-0.5-0.4l0,0c-0.2-0.2-0.4-0.3-0.6-0.5
			c-0.1-0.1-0.2-0.1-0.2-0.2c-4.3-0.2-8.4-2-9.1-6.8c-0.3-0.2-0.7-0.4-1-0.6c0,0,0,0-0.1,0l0,0c-0.2-0.1-0.4-0.3-0.7-0.4l0,0l0,0
			c-1.7-1-3.3-1.6-4.4-1.7c-4.2-0.4-7.1,7.6-8.1,14.8c-1,7.1-2.3,14.2-4.3,19.3s-4.9,19-3.1,21.2s7.6,8.8,16.8,10.1
			s18.7,0.3,18.3-2.9C81.6,154.7,78.8,148.1,81.4,142.2z"/>
		
			<linearGradient id="SVGID_5_" gradientUnits="userSpaceOnUse" x1="95.9114" y1="94.5826" x2="101.557" y2="56.1923" gradientTransform="matrix(1 0 0 -1 0 201.8879)">
			<stop  offset="0" style="stop-color:#FFFFFF"/>
			<stop  offset="1" style="stop-color:#FF6347"/>
		</linearGradient>
		<path class="st13" d="M115.2,110.6c-2.3,0.6-5.7,0.6-7.9-1.1c-0.1,0.5-0.8,2.2-1,2.1c-0.9,3.6-1.7,8-2.2,12.2
			c-1.4-0.8-2.8-1.5-4-2.4c-6.6-4.4-16.8-10.1-20.8-3.4c-3.4,5.7,5.8,11,13.3,13.8c6,2.2,13.7,5.5,18,3.9c1-0.3,1.9-1,2.5-2.2
			c0,0,0-0.1,0.1-0.1l0,0c0-0.1,0.1-0.1,0.1-0.2c1.9-5.1,3.1-8.1,2.5-21.6C115.6,111.7,115.3,111,115.2,110.6z"/>
	</g>
</g>
</svg>
