<?xml version="1.0" encoding="utf-8"?>
<!-- Generator: Adobe Illustrator 21.0.2, SVG Export Plug-In . SVG Version: 6.00 Build 0)  -->
<svg version="1.1" id="Layer_1" xmlns="http://www.w3.org/2000/svg" xmlns:xlink="http://www.w3.org/1999/xlink" x="0px" y="0px"
	 viewBox="0 0 245.2 261.2" style="enable-background:new 0 0 245.2 261.2;" xml:space="preserve">
<style type="text/css">
	.st0{fill:#004794;}
	.st1{opacity:0.6;fill:#001355;enable-background:new    ;}
	.st2{fill:url(#SVGID_1_);}
	.st3{opacity:0.6;fill:#FFFFFF;enable-background:new    ;}
	.st4{fill:url(#SVGID_2_);}
	.st5{fill:#FF7F50;}
	.st6{fill:url(#SVGID_3_);}
	.st7{fill:url(#SVGID_4_);}
	.st8{fill:url(#SVGID_5_);}
	.st9{fill:url(#path3536_1_);}
	.st10{fill:url(#SVGID_6_);}
	.st11{fill:url(#SVGID_7_);}
	.st12{fill:url(#SVGID_8_);}
	.st13{fill:url(#SVGID_9_);}
	.st14{fill:url(#SVGID_10_);}
	.st15{fill:url(#SVGID_11_);}
	.st16{fill:url(#SVGID_12_);}
	.st17{fill:url(#SVGID_13_);}
	.st18{fill:url(#SVGID_14_);}
	.st19{fill:url(#SVGID_15_);}
	.st20{fill:url(#SVGID_16_);}
	.st21{fill:url(#SVGID_17_);}
	.st22{fill:url(#SVGID_18_);}
	.st23{fill:url(#SVGID_19_);}
	.st24{fill:#BE9B53;}
	.st25{fill:#DD9E73;}
	.st26{fill:url(#SVGID_20_);}
	.st27{fill:#1E5177;}
	.st28{fill:url(#SVGID_21_);}
	.st29{fill:#594A42;}
	.st30{fill:url(#SVGID_22_);}
	.st31{fill:url(#SVGID_23_);}
</style>
<path class="st0" d="M182.6,219.7c5.2-5.2,11.4-9.5,18.5-11.4c8.6-2.4,16.9-7.7,23.2-15.1c9.2-10.8,19.4-19.9,16.3-33.5
	c-11.6-50.6,28.6-70-20.1-95.3c-60.2-31.3-60.1-22.7-88.2-39.5s-49.1-40.9-78-10C43,27,27.8,42.7,21.7,58.6
	c-3.6,9.3-6.8,20.9-4.2,30.6c3.4,12.7,10.3,25,11.3,38.3c0.7,10.2-3.5,20.6-6.8,30.1c-13,37.3-41.6,40.5-1.2,74.7
	c30.6,25.8,81.5,33.4,120.1,26.8c8.1-1.4,13.6-8.1,19.1-13.7C167.9,237.1,174.6,227.7,182.6,219.7z"/>
<path class="st1" d="M180.8,188.6c-0.7,1.5-23.5-12.2-50.9-30.6s-49-34.5-48.3-36s23.5,12.2,50.9,30.6S181.5,187.1,180.8,188.6z"/>
<ellipse class="st1" cx="72.2" cy="219.5" rx="41.5" ry="12.2"/>
<g>
	
		<linearGradient id="SVGID_1_" gradientUnits="userSpaceOnUse" x1="84.1813" y1="125.136" x2="188.0647" y2="125.136" gradientTransform="matrix(0.9195 -1.852308e-02 0 1 18.0168 -14.2554)">
		<stop  offset="0" style="stop-color:#FFD297"/>
		<stop  offset="1" style="stop-color:#F89D89"/>
	</linearGradient>
	<path class="st2" d="M187.1,108.5L99.1,45.9c-2-1.5-3.7-0.9-3.7,1.2v54.7c0,2.1,1.6,5,3.7,6.4l88.1,62.6c2,1.5,3.7,0.9,3.7-1.2
		v-54.7C190.9,112.9,189.2,110,187.1,108.5z M187.4,167.4l-88.6-63V49l88.6,63V167.4z"/>
	<polygon class="st3" points="100.9,53 100.9,103.8 185.1,163.6 185.1,112.9 	"/>
	<g>
		
			<linearGradient id="SVGID_2_" gradientUnits="userSpaceOnUse" x1="58.944" y1="-133.0083" x2="69.7468" y2="-133.0083" gradientTransform="matrix(1.0001 0.743 0 1 47.1663 157.7163)">
			<stop  offset="0" style="stop-color:#DD594B"/>
			<stop  offset="5.000000e-02" style="stop-color:#DD594B;stop-opacity:0.91"/>
			<stop  offset="0.19" style="stop-color:#DD594B;stop-opacity:0.67"/>
			<stop  offset="0.34" style="stop-color:#DD594B;stop-opacity:0.46"/>
			<stop  offset="0.48" style="stop-color:#DD594B;stop-opacity:0.3"/>
			<stop  offset="0.62" style="stop-color:#DD594B;stop-opacity:0.17"/>
			<stop  offset="0.75" style="stop-color:#DD594B;stop-opacity:7.000000e-02"/>
			<stop  offset="0.88" style="stop-color:#DD594B;stop-opacity:2.000000e-02"/>
			<stop  offset="1" style="stop-color:#DD594B;stop-opacity:0"/>
		</linearGradient>
		<path class="st4" d="M115.2,74.3l1.7,0.2l-1-1.9c-1.1-1.8-2.3-2.9-2.8-3.3l0,0l0,0c-0.1-0.1-0.2-0.2-0.2-0.2s0,0,0,0l-2.9-2.1
			c0,0,0-0.1,0-0.1c-2-0.9-2.4-0.7-2.4-0.7l-1.5,0.3c0,0,0.6,0.7,0.8,1.1c0.3,0.4,0.9,1.3,0.9,1.3l0.5-0.1c0.6,1.4,0.2,2.4,0.2,2.4
			c-0.4,0.3-0.4,2.6-0.4,2.6c0.9,0.8,2.1,1.9,3.2,2.7c1.9,1.4,3.5,2.2,3.5,2.2c0-0.3-0.2-2.2-0.4-3.2c-0.2-1,0.1-2.3,0.1-2.3
			L115.2,74.3z"/>
		<g>
			<g>
				<polygon class="st5" points="181,123.9 151.7,102.9 151.7,102.1 181,123.1 				"/>
			</g>
			<g>
				<polygon class="st5" points="177.5,125.7 151.7,107.2 151.7,106.5 177.5,125 				"/>
			</g>
			<g>
				<polygon class="st5" points="172.2,126.2 151.7,111.4 151.7,110.7 172.2,125.5 				"/>
			</g>
			<g>
				<polygon class="st5" points="165.2,125.4 151.7,115.7 151.7,115 165.2,124.7 				"/>
			</g>
		</g>
		<g>
			
				<linearGradient id="SVGID_3_" gradientUnits="userSpaceOnUse" x1="108.8084" y1="275.6325" x2="110.9091" y2="275.6325" gradientTransform="matrix(0.8906 0.6396 0 1 28.7804 -259.9025)">
				<stop  offset="0" style="stop-color:#DD594B"/>
				<stop  offset="5.000000e-02" style="stop-color:#DD594B;stop-opacity:0.91"/>
				<stop  offset="0.19" style="stop-color:#DD594B;stop-opacity:0.67"/>
				<stop  offset="0.34" style="stop-color:#DD594B;stop-opacity:0.46"/>
				<stop  offset="0.48" style="stop-color:#DD594B;stop-opacity:0.3"/>
				<stop  offset="0.62" style="stop-color:#DD594B;stop-opacity:0.17"/>
				<stop  offset="0.75" style="stop-color:#DD594B;stop-opacity:7.000000e-02"/>
				<stop  offset="0.88" style="stop-color:#DD594B;stop-opacity:2.000000e-02"/>
				<stop  offset="1" style="stop-color:#DD594B;stop-opacity:0"/>
			</linearGradient>
			<path class="st6" d="M127.5,86.6c-0.2-0.2-0.5-0.4-0.7-0.6c-0.2-0.5-0.1-0.5-0.1-0.5c-0.1-0.2,0.2-0.3,0-0.4
				c-0.2-0.1-0.3-0.4-0.4,0c-0.1,0.1-0.2,0.1-0.4,0.1c0,0.1,0,0.3,0,0.6c0,0,0,0,0,0.1c0,0,0,0,0,0.1c0,0.1,0,0.2,0,0.3c0,0,0,0,0,0
				c0,0,0,0,0,0.1c0,0,0,0,0,0.1c0.8,0.5,1.5,0.9,1.6,0.9c0.1,0,0.3-0.3,0.2-0.5C127.5,86.7,127.5,86.6,127.5,86.6z M126.8,86.2
				c0.1,0.1,0.3,0.2,0.4,0.4c-0.1,0-0.2-0.1-0.3-0.1C126.9,86.3,126.8,86.3,126.8,86.2z"/>
			
				<linearGradient id="SVGID_4_" gradientUnits="userSpaceOnUse" x1="103.0488" y1="272.9933" x2="109.2749" y2="272.9933" gradientTransform="matrix(0.8906 0.6396 0 1 28.7804 -259.9025)">
				<stop  offset="0" style="stop-color:#DD594B"/>
				<stop  offset="5.000000e-02" style="stop-color:#DD594B;stop-opacity:0.91"/>
				<stop  offset="0.19" style="stop-color:#DD594B;stop-opacity:0.67"/>
				<stop  offset="0.34" style="stop-color:#DD594B;stop-opacity:0.46"/>
				<stop  offset="0.48" style="stop-color:#DD594B;stop-opacity:0.3"/>
				<stop  offset="0.62" style="stop-color:#DD594B;stop-opacity:0.17"/>
				<stop  offset="0.75" style="stop-color:#DD594B;stop-opacity:7.000000e-02"/>
				<stop  offset="0.88" style="stop-color:#DD594B;stop-opacity:2.000000e-02"/>
				<stop  offset="1" style="stop-color:#DD594B;stop-opacity:0"/>
			</linearGradient>
			<path class="st7" d="M121.2,82.8L121.2,82.8l0.4,0.4l0-0.1c0,0,0-1.9-0.1-2.5c0-0.1,0-0.2,0-0.3c0-0.2-0.1-0.5,0-0.5
				c0.1-0.1,0.4,0.2,0.8,0.6c0.6,0.6,0.9,1.6,1.1,2.6c0,0.1,0.1,0.3,0.1,0.4c0,0,0,0,0.1,0c0,0,0,0,0.1,0c0.1,0,0.2,0.1,0.3,0.1
				c0,0,0,0,0.1,0c0,0,0,0,0.1,0c0-0.1-0.1-0.2-0.1-0.2c-0.6-2-1.3-3-1.6-3.4c-0.3-0.9-0.6-2.1-0.6-2.1l0.3-0.2c0,0,0.1,0.1,0.1,0.1
				c-0.3,0.5,0.1,1.5,0.5,2.4c0.3,0.6,0.6,1.1,0.8,1.7c0.3,0.6,0.4,1.2,0.7,1.8c0,0,0,0.1,0,0.1c0,0,0,0.1,0,0.1
				c-0.1,0-0.2-0.1-0.2-0.1c0,0,0,0-0.1,0c0,0,0,0-0.1,0c-0.1,0-0.2-0.1-0.3-0.1c0,0,0,0-0.1,0c0,0,0,0-0.1,0c-0.1,0-0.1,0-0.1,0
				c0.3,1,0.4,1.1,0.7,1.6c0.2,0.3,0.7,0.6,1,0.9c0.3,0.2,0.4,0.3,0.4,0.3c0,0,0,0,0,0c0,0,0,0,0-0.1c0,0,0,0,0-0.1c0,0,0,0,0,0
				c0-0.1,0-0.2,0-0.3c0,0,0,0,0-0.1c0,0,0,0,0-0.1c0-0.2,0-0.4,0-0.5c0-0.4,0.1-0.4,0.1-0.4c0.1-0.2,0.5,0.1,0.4-0.2
				c-0.1-0.2-0.1-0.3-0.1-0.3c-0.1,0-0.2-0.1-0.5-0.1c-0.3,0-0.7-0.1-1-0.3c0,0,0,0,0,0c0,0,0,0,0-0.1c0,0,0-0.1,0-0.1
				c-0.3-0.6-0.5-1.1-0.7-1.7c-0.2-0.4-0.4-0.9-0.6-1.3c-0.5-1-1.1-2.2-0.8-2.8c1,1.1,2.5,2.3,2.5,2.2c0-0.1,0-0.2,0-0.2
				c-1.6-1.3-3-2.9-3-2.9c-0.1,0.3-0.6,0.4-0.5,0.5c0,0.2,0,0,0.1,0.9c0,0.1,0,0.1,0,0.2l-0.1-0.1c0-0.1,0-0.1,0-0.1
				c0-0.3-0.1-0.5-0.1-0.7c0-0.2,0-0.3,0.1-0.3c0.2-0.1,0.5-0.3,0.6-0.5c0.3,0.4,1.6,2,2.9,2.9l0.1,0v-0.4l0,0
				c-1.1-1-2.7-2.6-2.9-2.9c0-0.1-0.1-0.2-0.1-0.2c-0.4-0.3-1.1,0.5-1.2,1.1c-0.1,0.3-0.1,0.5,0,0.7c0,0.1,0,0.1,0,0.2
				c0,0.2,0.1,0.5,0.2,0.9C121,80.3,121.2,82.8,121.2,82.8z"/>
		</g>
		
			<linearGradient id="SVGID_5_" gradientUnits="userSpaceOnUse" x1="115.0322" y1="272.9933" x2="120.2449" y2="272.9933" gradientTransform="matrix(0.8906 0.6396 0 1 28.7804 -259.9025)">
			<stop  offset="0" style="stop-color:#DD594B"/>
			<stop  offset="5.000000e-02" style="stop-color:#DD594B;stop-opacity:0.91"/>
			<stop  offset="0.19" style="stop-color:#DD594B;stop-opacity:0.67"/>
			<stop  offset="0.34" style="stop-color:#DD594B;stop-opacity:0.46"/>
			<stop  offset="0.48" style="stop-color:#DD594B;stop-opacity:0.3"/>
			<stop  offset="0.62" style="stop-color:#DD594B;stop-opacity:0.17"/>
			<stop  offset="0.75" style="stop-color:#DD594B;stop-opacity:7.000000e-02"/>
			<stop  offset="0.88" style="stop-color:#DD594B;stop-opacity:2.000000e-02"/>
			<stop  offset="1" style="stop-color:#DD594B;stop-opacity:0"/>
		</linearGradient>
		<path class="st8" d="M135.9,90.7c0-1.1-0.2-1.8-0.2-1.8c-0.1-0.4-0.2-0.8-0.5-1l-0.4-0.3c-0.1-0.8-0.2-1.8-0.6-2.6
			c-0.2-0.3-0.4-0.6-0.6-0.7s-0.4-0.2-0.6-0.1c-0.4,0.2-0.5,1-0.6,1.7l-0.4-0.3c-0.3-0.2-0.5-0.1-0.5,0.2c0,0-0.2,0.5-0.2,1.5
			c0,1,0.2,2.8,0.2,2.8c0.1,0.4,0.2,0.8,0.5,1l3.2,2.3c0.3,0.2,0.5,0.1,0.5-0.2C135.7,93.2,135.9,91.7,135.9,90.7z M133.2,84.7
			c0.1,0,0.2,0,0.3,0.1c0.1,0.1,0.2,0.2,0.3,0.4c0.3,0.6,0.4,1.5,0.5,2.2l-1.6-1.1C132.8,85.6,132.9,84.9,133.2,84.7z M132.5,87.4
			c-0.2-0.1-0.3-0.4-0.3-0.6c0-0.1,0-0.2,0.1-0.2c0,0.1,0,0.2,0,0.2c0,0.1,0.1,0.3,0.2,0.4c0,0,0,0,0,0c0.1,0.1,0.2,0,0.2-0.1
			c0-0.1,0-0.1,0-0.2c0.1,0.1,0.1,0.2,0.1,0.3C132.8,87.5,132.7,87.5,132.5,87.4z M134.6,88.9c-0.2-0.1-0.3-0.4-0.3-0.6
			c0-0.1,0-0.2,0.1-0.2c0,0.1,0,0.2,0,0.2c0,0.1,0.1,0.3,0.2,0.4c0.1,0.1,0.2,0.1,0.2-0.1c0,0,0-0.1,0-0.2c0.1,0.1,0.1,0.2,0.1,0.3
			C134.9,89,134.8,89,134.6,88.9z"/>
		<g>
			
				<linearGradient id="path3536_1_" gradientUnits="userSpaceOnUse" x1="86.5091" y1="283.8735" x2="98.9474" y2="283.8735" gradientTransform="matrix(0.8906 0.6396 0 1 28.7804 -259.9025)">
				<stop  offset="0" style="stop-color:#DD594B"/>
				<stop  offset="5.000000e-02" style="stop-color:#DD594B;stop-opacity:0.91"/>
				<stop  offset="0.19" style="stop-color:#DD594B;stop-opacity:0.67"/>
				<stop  offset="0.34" style="stop-color:#DD594B;stop-opacity:0.46"/>
				<stop  offset="0.48" style="stop-color:#DD594B;stop-opacity:0.3"/>
				<stop  offset="0.62" style="stop-color:#DD594B;stop-opacity:0.17"/>
				<stop  offset="0.75" style="stop-color:#DD594B;stop-opacity:7.000000e-02"/>
				<stop  offset="0.88" style="stop-color:#DD594B;stop-opacity:2.000000e-02"/>
				<stop  offset="1" style="stop-color:#DD594B;stop-opacity:0"/>
			</linearGradient>
			<path id="path3536" class="st9" d="M106.3,80.1l0.3,0.2c0.1,0.1,0.2,0.1,0.2,0.2c0,0.1-0.1,0.1-0.2,0l-0.3-0.2
				c-0.1-0.1-0.2-0.1-0.2-0.2C106.2,80,106.2,80.1,106.3,80.1z M107.1,81.6c0.1,0,0.1-0.1,0.2-0.2c0-0.4,0.1-0.7,0.6-0.4
				c0.4,0.3,2.1,1.4,2.6,2.6c0.1,0.3,0.1,0.8,0.1,1c-0.2,0.4-0.6,0.9-1.6,0.4c-0.2-0.1-0.6-0.4-0.9-0.6c-0.9-0.8-1.2-1.6-1.3-2.2
				C106.8,81.9,107,81.7,107.1,81.6z M112.3,84.9c0.6-0.4,2.2,0.8,2.6,1.2c0.5,0.4,0.6,0.9,0.6,1.3c0,0.2,0.1,0.3,0.2,0.5
				c0.1,0.3,0.3,0.7,0.2,0.9c-0.1,0.4-0.5,0.9-1.7,0.1c-1.3-0.9-1.8-2.2-2-3C112.1,85.5,112.1,85,112.3,84.9L112.3,84.9z M116,87.1
				l0.3,0.2c0.1,0.1,0.2,0.1,0.2,0.2c0,0.1-0.1,0.1-0.2,0l-0.3-0.2c-0.1-0.1-0.2-0.1-0.2-0.2C115.9,87,115.9,87,116,87.1z
				 M106.3,81.6c0.1,0.7,0.5,2,1.7,3.2c0.2,0.2,0.6,0.5,0.9,0.7c0.6,0.4,1.7,0.9,2-0.1c0.1-0.2,0.1-0.5,0.2-0.5c0.1,0,0.1,0,0.2,0.1
				c0.1,0.1,0.2,0.1,0.2,0.2c0.1,0.2,0.2,0.5,0.3,0.9c0.3,0.8,1,2.3,2.1,3.1c0,0,2.2,1.8,2.5-0.3c0-0.2,0.2-0.5,0.3-0.7
				c0.1-0.1,0.1-0.3,0.1-0.5c0-0.2,0-0.3,0-0.5c-0.1-0.3-0.3-0.7-0.4-1c-0.1-0.7-0.3-1.6-0.5-2.3c-0.1-0.3-0.3-0.8-0.5-1.1
				c-0.2-0.3-0.5-0.5-0.8-0.4c-0.1,0-0.1,0.1-0.1,0.1c-0.1,0.1,0,0.3,0.1,0.4c0.1,0.1,0.2,0,0.3-0.1c0.1,0,0.1,0,0.2,0
				c0.4,0.3,0.6,2,0.6,2l0.1,0.8c0,0.3-0.1,0.4-0.4,0.2c-0.9-0.6-2.2-1.5-2.9-1.6c-0.2,0-0.5,0-0.7,0c-0.2,0-0.4-0.1-0.5-0.2
				c-0.2-0.1-0.3-0.3-0.4-0.5c-0.2-0.3-0.5-0.8-0.8-1c-0.8-0.9-2.1-2-3-2.7c-0.2-0.2-0.4-0.5-0.4-0.7l0.2-1c0,0,0.2-1.4,0.6-1.1
				c0.1,0.1,0.2,0.2,0.2,0.3c0.1,0.2,0.2,0.4,0.3,0.5c0.1,0.1,0.2,0,0.1-0.2c0-0.1-0.1-0.2-0.1-0.3c-0.3-0.6-0.5-0.7-0.8-0.7
				c-0.2,0-0.4,0.2-0.5,0.3c-0.2,0.5-0.5,1.4-0.6,1.9c-0.1,0.2-0.1,0.4,0,0.5c0,0-0.1,0-0.2,0.1c-0.1,0-0.1,0.1-0.1,0.3
				c0,0,0,0.4,0.1,0.8C106,80.8,106.2,81.3,106.3,81.6"/>
		</g>
		<g>
			
				<linearGradient id="SVGID_6_" gradientUnits="userSpaceOnUse" x1="101.651" y1="284.7745" x2="112.1299" y2="284.7745" gradientTransform="matrix(0.8906 0.6396 0 1 28.7804 -259.9025)">
				<stop  offset="0" style="stop-color:#DD594B"/>
				<stop  offset="5.000000e-02" style="stop-color:#DD594B;stop-opacity:0.91"/>
				<stop  offset="0.19" style="stop-color:#DD594B;stop-opacity:0.67"/>
				<stop  offset="0.34" style="stop-color:#DD594B;stop-opacity:0.46"/>
				<stop  offset="0.48" style="stop-color:#DD594B;stop-opacity:0.3"/>
				<stop  offset="0.62" style="stop-color:#DD594B;stop-opacity:0.17"/>
				<stop  offset="0.75" style="stop-color:#DD594B;stop-opacity:7.000000e-02"/>
				<stop  offset="0.88" style="stop-color:#DD594B;stop-opacity:2.000000e-02"/>
				<stop  offset="1" style="stop-color:#DD594B;stop-opacity:0"/>
			</linearGradient>
			<path class="st10" d="M126.6,95.5v-2c0-0.7-0.5-1.6-1.1-2l-3-2.2c-0.6-0.4-1.1-0.2-1.1,0.4v1.8c-0.7-0.3-2.1-0.6-2.1,0
				c0,0.4,0.6,1.3,1.7,2.3l0.1,0.1l0,0c0.4-0.2,1.6,0.3,3,1.3c1.3,1,2.5,2.2,2.9,2.9l0,0.1l0,0c1,0.4,1.5,0.5,1.5,0
				C128.6,97.9,127.6,96.5,126.6,95.5z M121.4,91.9L121.4,91.9C121.4,92,121.4,91.9,121.4,91.9z"/>
		</g>
		<g>
			
				<linearGradient id="SVGID_7_" gradientUnits="userSpaceOnUse" x1="115.3492" y1="284.963" x2="120.5498" y2="284.963" gradientTransform="matrix(0.8906 0.6396 0 1 28.7804 -259.9025)">
				<stop  offset="0" style="stop-color:#DD594B"/>
				<stop  offset="5.000000e-02" style="stop-color:#DD594B;stop-opacity:0.91"/>
				<stop  offset="0.19" style="stop-color:#DD594B;stop-opacity:0.67"/>
				<stop  offset="0.34" style="stop-color:#DD594B;stop-opacity:0.46"/>
				<stop  offset="0.48" style="stop-color:#DD594B;stop-opacity:0.3"/>
				<stop  offset="0.62" style="stop-color:#DD594B;stop-opacity:0.17"/>
				<stop  offset="0.75" style="stop-color:#DD594B;stop-opacity:7.000000e-02"/>
				<stop  offset="0.88" style="stop-color:#DD594B;stop-opacity:2.000000e-02"/>
				<stop  offset="1" style="stop-color:#DD594B;stop-opacity:0"/>
			</linearGradient>
			<path class="st11" d="M135.7,105c0.1,0,0.2,0,0.2,0.1c0.1,0.1,0.1,0,0.1-0.1c0-0.1,0.2,0.1,0.1-0.1c-0.1-0.2-0.2-0.7-0.3-1.1
				c-0.1-0.4-0.3-1.2-0.4-1.6c-0.1-0.4-0.8-2.3-0.9-2.7c-0.1-0.4,0.1-0.8,0.1-0.8s0.1-0.5,0.1-0.5c0,0,0-0.1,0-0.1
				c0,0,0.1,0,0.1-0.1c0,0,0,0,0-0.1c0,0,0,0,0-0.1l0,0c0.1,0.1,0.1,0,0.2,0c0.1,0,0-0.1,0-0.1c0-0.1,0-0.1-0.1-0.2
				c0-0.1-0.1,0-0.1,0c-0.2-0.2,0,0.1-0.1,0.1c0,0-0.1,0,0,0.1c0,0-0.1,0-0.1,0.1c0,0,0,0,0,0.1c0,0,0,0,0,0.1c0,0,0,0,0,0
				c0,0-0.1,0-0.1,0c0,0-0.1-0.1-0.1,0c0,0-0.1-0.1-0.1,0c0,0-0.3-0.2-0.4-0.2c-0.1-0.1-0.4-0.4-0.4-0.4c0-0.1-0.1-0.2-0.1-0.2
				c0-0.1-0.1-0.1-0.1-0.1c0-0.1,0-0.1-0.1-0.1c0,0,0,0,0,0c0,0,0-0.1,0-0.1c0,0,0,0,0,0c0-0.1,0-0.1-0.1-0.2c0,0,0-0.1,0-0.1
				c-0.1-0.1,0.1-0.1-0.1-0.3c0,0,0-0.1-0.1-0.1c0,0-0.1,0-0.1,0.1c0,0.1-0.1,0,0,0.2c0.1,0.2,0.1,0.2,0.2,0.2l0,0c0,0,0,0.1,0,0.1
				c0,0,0,0,0,0c0,0,0,0.1,0.1,0.1c0,0,0,0,0,0c0,0.1,0.1,0.7,0.1,0.7s0.2,0.7,0.1,1c-0.1,0.2-0.8,1.1-0.9,1.3
				c-0.1,0.2-0.3,0.8-0.4,1.1c-0.1,0.3-0.3,0.5-0.3,0.6c-0.1,0.1,0.1,0.1,0.1,0.2c0,0.1,0,0.2,0.1,0.3c0.1,0.1,0.2,0.1,0.2,0.3
				c0.1,0.1,0.2,0.3,0.3,0.3c0.1,0.1,0.5,0.5,0.5,0.6c0,0.1,0.4,0.6,0.5,0.5c0.1,0,0.4,0.1,0.5,0.2c0.1,0.1,0.4,0.3,0.5,0.5
				c0.2,0.2,0.5,0.3,0.5,0.2c0-0.1,0.4,0.1,0.5,0.2C135.5,105,135.6,105,135.7,105z M134.6,97.7c0,0.1,0.1,0.1,0.1,0.2c0,0,0,0,0,0
				c0,0,0,0,0,0C134.7,97.9,134.6,97.8,134.6,97.7C134.6,97.8,134.6,97.8,134.6,97.7C134.6,97.8,134.5,97.8,134.6,97.7
				C134.5,97.7,134.6,97.7,134.6,97.7z M134.7,97.9C134.7,97.9,134.6,97.9,134.7,97.9c-0.1,0-0.1-0.1-0.1-0.1
				C134.6,97.8,134.6,97.8,134.7,97.9C134.6,97.9,134.7,97.9,134.7,97.9z M134.5,97.8c0,0,0.1,0.1,0.1,0.1c0,0,0,0,0.1,0
				c0,0,0,0,0,0c0,0,0,0.1,0,0C134.6,98,134.6,97.9,134.5,97.8C134.6,97.9,134.6,97.9,134.5,97.8C134.5,97.9,134.5,97.9,134.5,97.8
				C134.5,97.9,134.5,97.8,134.5,97.8z M133,96.6C133,96.6,133,96.6,133,96.6C133,96.6,133,96.6,133,96.6c0.1,0,0.2,0.1,0.2,0.1
				c0,0,0,0,0,0C133.1,96.7,133.1,96.7,133,96.6C133,96.7,133,96.6,133,96.6C133,96.6,133,96.6,133,96.6z M133.1,96.8
				C133.1,96.8,133.1,96.8,133.1,96.8c-0.1,0-0.1,0-0.1-0.1C133,96.7,133,96.7,133.1,96.8C133.1,96.7,133.1,96.7,133.1,96.8z
				 M133.1,96.9C133.1,96.9,133.1,96.9,133.1,96.9c0,0-0.1,0-0.1,0c0,0,0-0.1,0-0.1c0,0,0,0,0,0C133,96.8,133,96.8,133.1,96.9
				C133.1,96.8,133.1,96.8,133.1,96.9C133.1,96.8,133.1,96.8,133.1,96.9C133.1,96.9,133.1,96.9,133.1,96.9z"/>
		</g>
		<g>
			
				<linearGradient id="SVGID_8_" gradientUnits="userSpaceOnUse" x1="90.632" y1="300.8491" x2="94.8238" y2="300.8491" gradientTransform="matrix(0.8906 0.6396 0 1 28.7804 -259.9025)">
				<stop  offset="0" style="stop-color:#DD594B"/>
				<stop  offset="5.000000e-02" style="stop-color:#DD594B;stop-opacity:0.91"/>
				<stop  offset="0.19" style="stop-color:#DD594B;stop-opacity:0.67"/>
				<stop  offset="0.34" style="stop-color:#DD594B;stop-opacity:0.46"/>
				<stop  offset="0.48" style="stop-color:#DD594B;stop-opacity:0.3"/>
				<stop  offset="0.62" style="stop-color:#DD594B;stop-opacity:0.17"/>
				<stop  offset="0.75" style="stop-color:#DD594B;stop-opacity:7.000000e-02"/>
				<stop  offset="0.88" style="stop-color:#DD594B;stop-opacity:2.000000e-02"/>
				<stop  offset="1" style="stop-color:#DD594B;stop-opacity:0"/>
			</linearGradient>
			<path class="st12" d="M113.2,101.4C113.2,101.4,113.2,101.4,113.2,101.4c-0.2-0.1-0.4-0.3-0.7-0.5c-0.6-0.4-1-0.9-1.2-1.4
				c-0.2,0.2-0.6,0.1-1.2-0.3l0,0c-0.3-0.2-0.5-0.4-0.7-0.6c0,0,0,0.1,0,0.1c0,0,0,0,0,0.1c0,0.2,0.1,0.3,0,0.4c0,0.1,0,0.1,0,0.1
				c0,0.2,1.1,1.1,1.4,1.2c0.2,0.2,0.4,0.3,1.1,0.8c0.6,0.5,1.2,0.8,1.3,0.5c0,0,0,0,0,0c-0.1-0.1-0.1-0.3,0-0.4
				C113.2,101.5,113.2,101.5,113.2,101.4z"/>
			
				<linearGradient id="SVGID_9_" gradientUnits="userSpaceOnUse" x1="92.7937" y1="293.9532" x2="94.0371" y2="293.9532" gradientTransform="matrix(0.8906 0.6396 0 1 28.7804 -259.9025)">
				<stop  offset="0" style="stop-color:#DD594B"/>
				<stop  offset="5.000000e-02" style="stop-color:#DD594B;stop-opacity:0.91"/>
				<stop  offset="0.19" style="stop-color:#DD594B;stop-opacity:0.67"/>
				<stop  offset="0.34" style="stop-color:#DD594B;stop-opacity:0.46"/>
				<stop  offset="0.48" style="stop-color:#DD594B;stop-opacity:0.3"/>
				<stop  offset="0.62" style="stop-color:#DD594B;stop-opacity:0.17"/>
				<stop  offset="0.75" style="stop-color:#DD594B;stop-opacity:7.000000e-02"/>
				<stop  offset="0.88" style="stop-color:#DD594B;stop-opacity:2.000000e-02"/>
				<stop  offset="1" style="stop-color:#DD594B;stop-opacity:0"/>
			</linearGradient>
			<path class="st13" d="M111.5,94.8c0,0.1-0.1,0.3-0.1,0.4c0,0.1,0,0.1,0,0.2c0.2-0.2,0.7-1,0.7-1.1c0-0.1,0.2-0.5,0.3-0.6
				c0-0.1,0.1-0.1,0.1-0.1l-0.3-0.5l0.2,0.1c0.1-0.1-0.1-0.4-0.1-0.5c-0.1-0.1-0.2-0.3-0.2-0.4c0-0.1-0.1-0.2-0.1-0.2
				C112.1,92.4,111.9,93.3,111.5,94.8L111.5,94.8z"/>
			
				<linearGradient id="SVGID_10_" gradientUnits="userSpaceOnUse" x1="92.8003" y1="296.8987" x2="95.8208" y2="296.8987" gradientTransform="matrix(0.8906 0.6396 0 1 28.7804 -259.9025)">
				<stop  offset="0" style="stop-color:#DD594B"/>
				<stop  offset="5.000000e-02" style="stop-color:#DD594B;stop-opacity:0.91"/>
				<stop  offset="0.19" style="stop-color:#DD594B;stop-opacity:0.67"/>
				<stop  offset="0.34" style="stop-color:#DD594B;stop-opacity:0.46"/>
				<stop  offset="0.48" style="stop-color:#DD594B;stop-opacity:0.3"/>
				<stop  offset="0.62" style="stop-color:#DD594B;stop-opacity:0.17"/>
				<stop  offset="0.75" style="stop-color:#DD594B;stop-opacity:7.000000e-02"/>
				<stop  offset="0.88" style="stop-color:#DD594B;stop-opacity:2.000000e-02"/>
				<stop  offset="1" style="stop-color:#DD594B;stop-opacity:0"/>
			</linearGradient>
			<path class="st14" d="M113.5,93.8c-0.1-0.1-0.1-0.1-0.2-0.2c-0.1-0.2-0.4-0.5-0.5-0.6l0,0c0,0-0.1-0.1-0.2-0.2
				c0,0.1,0.1,0.3,0,0.4l0,0l-0.1,0l0.1,0.3c0,0.1,0,0.2-0.1,0.3c-0.1,0.1-0.3,0.5-0.3,0.6c0,0.1-0.6,1-0.7,1.2c0,0,0,0-0.1,0.1
				c0,0.1,0,0.3,0,0.4c0,0,0,0.1,0,0.2l0,0c0.1,1.1,0.1,2.1,0,3c0,0.1,0,0.2-0.1,0.3c0,0,0,0.1,0,0.1c0.2,0.5,0.5,0.9,1.1,1.3
				c0.3,0.2,0.6,0.3,0.7,0.4c0,0,0,0,0,0c0-0.1,0-0.2,0-0.4c0-0.2-0.1-0.5-0.1-0.7c0-0.2-0.1-0.3-0.1-0.5c0-0.1,0-0.3-0.1-0.6
				c-0.1-0.5-0.1-0.8-0.1-1.1c0-0.1,0-0.3,0-0.4c0-0.2,0-0.3,0-0.4c0-0.1,0-0.3,0-0.4l0-0.1c0-0.1,0-0.2,0.1-0.3
				c0-0.1,0-0.1,0.1-0.2l0-0.1c0-0.2,0.1-0.3,0.2-0.3c0.1,0,0.1,0.1,0.1,0.1c0.1,0.3,0.2,1.6,0.1,2c0,0.5,0,1.9,0,2c0,0,0,0.5,0,0.9
				c0,0.2,0,0.4,0,0.5l0,0l0,0c0,0,0,0.1,0,0.1c0,0,0,0.1,0,0.1c-0.1,0.2-0.1,0.2,0.2,0.5c0.1,0.1,0.2,0.2,0.2,0.2
				c0.2,0.1,0.3,0.2,0.4,0.2c0.1-5.9-0.4-8.2-0.4-8.4C113.6,94,113.6,93.9,113.5,93.8z"/>
			
				<linearGradient id="SVGID_11_" gradientUnits="userSpaceOnUse" x1="89.6357" y1="296.8961" x2="92.8732" y2="296.8961" gradientTransform="matrix(0.8906 0.6396 0 1 28.7804 -259.9025)">
				<stop  offset="0" style="stop-color:#DD594B"/>
				<stop  offset="5.000000e-02" style="stop-color:#DD594B;stop-opacity:0.91"/>
				<stop  offset="0.19" style="stop-color:#DD594B;stop-opacity:0.67"/>
				<stop  offset="0.34" style="stop-color:#DD594B;stop-opacity:0.46"/>
				<stop  offset="0.48" style="stop-color:#DD594B;stop-opacity:0.3"/>
				<stop  offset="0.62" style="stop-color:#DD594B;stop-opacity:0.17"/>
				<stop  offset="0.75" style="stop-color:#DD594B;stop-opacity:7.000000e-02"/>
				<stop  offset="0.88" style="stop-color:#DD594B;stop-opacity:2.000000e-02"/>
				<stop  offset="1" style="stop-color:#DD594B;stop-opacity:0"/>
			</linearGradient>
			<path class="st15" d="M109.4,98.8c0-0.1,0-0.1,0-0.2c0,0,0-0.1,0-0.1l0,0l0,0l0,0c0-0.1,0-0.3,0-0.5c0-0.4,0-0.8,0-0.8
				c0-0.1,0.1-1.4,0-1.9c0-0.5,0-1.7,0.1-1.8c0,0,0,0,0.1,0c0.1,0.1,0.1,0.2,0.2,0.5l0,0.1c0,0.1,0,0.2,0.1,0.3
				c0,0.2,0.1,0.3,0.1,0.4l0,0.1c0,0.1,0,0.3,0,0.4c0,0.1,0,0.2,0,0.4c0,0.1,0,0.2,0,0.3c0,0.3-0.1,0.5-0.1,0.9
				c0,0.2-0.1,0.3-0.1,0.4c0,0.2,0,0.3-0.1,0.4c0,0.1-0.1,0.4-0.1,0.6c0,0.2,0,0.3,0,0.4c0,0,0,0,0.1,0.1c0.1,0.1,0.4,0.4,0.7,0.6
				l0,0c0.6,0.4,0.9,0.5,1.1,0.2c0,0,0,0,0-0.1c0,0,0,0,0,0c0,0,0,0,0,0c0-0.1,0-0.1,0.1-0.2c0.1-0.9,0.1-2.1,0-3.2
				c0-0.1,0-0.1,0-0.2c0,0,0,0,0-0.1c0,0,0-0.1,0-0.1c0,0,0,0,0,0c0,0,0,0,0,0c0,0,0,0,0-0.1c0,0,0-0.1,0-0.1
				c-0.1-0.4-0.7-2-0.7-2.2c-0.1-0.2-0.2-0.9-0.3-1.1c-0.1-0.2-0.1-0.3-0.1-0.3l0.1-0.1l-0.1-0.1l0,0c-0.1-0.2,0-0.3,0-0.4
				c-0.1,0-0.1-0.1-0.2-0.1l0,0c-0.1,0-0.4-0.2-0.5-0.2c-0.1,0-0.1,0-0.2-0.1c-0.1,0-0.1-0.1-0.2,0c-0.1,0.2-0.5,1.7-0.4,7.8
				c0.1,0.1,0.2,0.2,0.4,0.4c0.1,0.1,0.2,0.1,0.2,0.1C109.5,99.2,109.5,99.1,109.4,98.8z M111.1,95.9
				C111.1,95.9,111.2,95.9,111.1,95.9c0.1,0.1,0.1,0.1,0.1,0.2c0,0,0,0.1,0,0.1c0,0.1,0,0.1,0,0.1c0,0,0,0-0.1,0c0,0,0,0,0,0
				c-0.1-0.1-0.2-0.2-0.2-0.3C111,95.9,111,95.8,111.1,95.9z M111.1,96.9C111.1,96.9,111.1,96.9,111.1,96.9
				C111.2,96.9,111.2,96.9,111.1,96.9c0.1,0.1,0.1,0.1,0.1,0.2c0,0,0,0.1,0,0.1c0,0,0,0.1,0,0.1c0,0,0,0-0.1,0c0,0,0,0-0.1,0
				c0,0,0,0,0,0c-0.1-0.1-0.2-0.2-0.2-0.3C111,96.8,111,96.8,111.1,96.9z M111.1,97.9C111.1,97.9,111.1,97.9,111.1,97.9
				C111.2,97.9,111.2,97.9,111.1,97.9c0.1,0.1,0.1,0.2,0.1,0.2c0,0,0,0.1,0,0.1c0,0,0,0,0,0.1c0,0,0,0-0.1,0c0,0,0,0-0.1,0
				c0,0,0,0,0,0c-0.1-0.1-0.2-0.2-0.2-0.3C111,97.8,111,97.8,111.1,97.9z"/>
			
				<linearGradient id="SVGID_12_" gradientUnits="userSpaceOnUse" x1="91.4362" y1="293.9949" x2="92.7038" y2="293.9949" gradientTransform="matrix(0.8906 0.6396 0 1 28.7804 -259.9025)">
				<stop  offset="0" style="stop-color:#DD594B"/>
				<stop  offset="5.000000e-02" style="stop-color:#DD594B;stop-opacity:0.91"/>
				<stop  offset="0.19" style="stop-color:#DD594B;stop-opacity:0.67"/>
				<stop  offset="0.34" style="stop-color:#DD594B;stop-opacity:0.46"/>
				<stop  offset="0.48" style="stop-color:#DD594B;stop-opacity:0.3"/>
				<stop  offset="0.62" style="stop-color:#DD594B;stop-opacity:0.17"/>
				<stop  offset="0.75" style="stop-color:#DD594B;stop-opacity:7.000000e-02"/>
				<stop  offset="0.88" style="stop-color:#DD594B;stop-opacity:2.000000e-02"/>
				<stop  offset="1" style="stop-color:#DD594B;stop-opacity:0"/>
			</linearGradient>
			<path class="st16" d="M110.5,91c0,0.1-0.1,0.1-0.2,0.1c0,0-0.2,0.1-0.1,0.3l0.2,0.3l-0.3,0.1c0,0,0,0.1,0.1,0.2
				c0.1,0.3,0.3,0.9,0.3,1.1c0,0.1,0.5,1.6,0.7,2.1c0,0,0,0.1,0,0.1c0,0,0,0,0,0c0,0,0,0,0,0c0,0,0,0,0-0.1c0-0.1,0-0.1,0-0.2
				c0-0.2-0.1-0.4-0.1-0.6l0-0.1C110.8,92.5,110.6,91.3,110.5,91C110.6,90.9,110.6,91,110.5,91z"/>
		</g>
		<g>
			
				<linearGradient id="SVGID_13_" gradientUnits="userSpaceOnUse" x1="101.023" y1="294.5669" x2="102.6266" y2="294.5669" gradientTransform="matrix(0.8906 0.6396 0 1 28.7804 -259.9025)">
				<stop  offset="0" style="stop-color:#DD594B"/>
				<stop  offset="5.000000e-02" style="stop-color:#DD594B;stop-opacity:0.91"/>
				<stop  offset="0.19" style="stop-color:#DD594B;stop-opacity:0.67"/>
				<stop  offset="0.34" style="stop-color:#DD594B;stop-opacity:0.46"/>
				<stop  offset="0.48" style="stop-color:#DD594B;stop-opacity:0.3"/>
				<stop  offset="0.62" style="stop-color:#DD594B;stop-opacity:0.17"/>
				<stop  offset="0.75" style="stop-color:#DD594B;stop-opacity:7.000000e-02"/>
				<stop  offset="0.88" style="stop-color:#DD594B;stop-opacity:2.000000e-02"/>
				<stop  offset="1" style="stop-color:#DD594B;stop-opacity:0"/>
			</linearGradient>
			<path class="st17" d="M118.8,99.1c0.2,0.4,0.5,0.8,0.8,1c0.1,0,0.1,0.1,0.2,0.1c0.2,0.1,0.4,0.1,0.5,0
				C119.7,99.9,119.2,99.4,118.8,99.1z"/>
			
				<linearGradient id="SVGID_14_" gradientUnits="userSpaceOnUse" x1="100.0275" y1="296.4612" x2="112.2961" y2="296.4612" gradientTransform="matrix(0.8906 0.6396 0 1 28.7804 -259.9025)">
				<stop  offset="0" style="stop-color:#DD594B"/>
				<stop  offset="5.000000e-02" style="stop-color:#DD594B;stop-opacity:0.91"/>
				<stop  offset="0.19" style="stop-color:#DD594B;stop-opacity:0.67"/>
				<stop  offset="0.34" style="stop-color:#DD594B;stop-opacity:0.46"/>
				<stop  offset="0.48" style="stop-color:#DD594B;stop-opacity:0.3"/>
				<stop  offset="0.62" style="stop-color:#DD594B;stop-opacity:0.17"/>
				<stop  offset="0.75" style="stop-color:#DD594B;stop-opacity:7.000000e-02"/>
				<stop  offset="0.88" style="stop-color:#DD594B;stop-opacity:2.000000e-02"/>
				<stop  offset="1" style="stop-color:#DD594B;stop-opacity:0"/>
			</linearGradient>
			<path class="st18" d="M128.6,107.4C128.6,107.4,128.6,107.4,128.6,107.4c0.2,1.3-1,0.5-2.1,0c-0.5-0.2-1.1-0.6-1.7-1.1
				c-1-0.7-2-1.5-2.6-2c0,0-0.1-0.1-0.1-0.1c-0.8-0.6-2.3-1.5-3.1-2.1c-0.2-0.1-0.4-0.3-0.5-0.4c-0.4-0.4-0.5-0.7-0.4-1
				c0,0-0.1-0.1-0.1-0.1c0,0-0.1-0.1-0.1-0.1c0,0.2,0,0.4,0.1,0.7c0.1,0.2,0.2,0.5,0.5,0.7c0.1,0.1,0.3,0.2,0.5,0.4
				c0.4,0.3,1,0.7,1.6,1.1c0.6,0.4,1.1,0.7,1.5,1c0,0,0.1,0.1,0.1,0.1c0.2,0.2,0.5,0.4,0.8,0.6c0.5,0.4,1.1,0.9,1.7,1.3
				c0.8,0.5,1.3,0.9,1.8,1.1c0.2,0.1,0.4,0.2,0.6,0.3c0.7,0.3,1.4,0.7,1.6,0.3C128.8,108,128.8,107.7,128.6,107.4
				C128.7,107.3,128.7,107.3,128.6,107.4z"/>
			
				<linearGradient id="SVGID_15_" gradientUnits="userSpaceOnUse" x1="100.0518" y1="294.6524" x2="110.6032" y2="294.6524" gradientTransform="matrix(0.8906 0.6396 0 1 28.7804 -259.9025)">
				<stop  offset="0" style="stop-color:#DD594B"/>
				<stop  offset="5.000000e-02" style="stop-color:#DD594B;stop-opacity:0.91"/>
				<stop  offset="0.19" style="stop-color:#DD594B;stop-opacity:0.67"/>
				<stop  offset="0.34" style="stop-color:#DD594B;stop-opacity:0.46"/>
				<stop  offset="0.48" style="stop-color:#DD594B;stop-opacity:0.3"/>
				<stop  offset="0.62" style="stop-color:#DD594B;stop-opacity:0.17"/>
				<stop  offset="0.75" style="stop-color:#DD594B;stop-opacity:7.000000e-02"/>
				<stop  offset="0.88" style="stop-color:#DD594B;stop-opacity:2.000000e-02"/>
				<stop  offset="1" style="stop-color:#DD594B;stop-opacity:0"/>
			</linearGradient>
			<path class="st19" d="M118,100.5C118,100.5,118,100.6,118,100.5c0.4,0.4,1.1,0.9,2.7,2c2.4,1.7,5,3.4,6.6,4.2c0,0,0,0,0,0
				c-0.1-0.2-0.2-0.5-0.3-0.7c0,0,0-0.1-0.1-0.1c0,0,0-0.1-0.1-0.1c-0.2-0.3-0.4-0.6-0.6-0.9c0,0,0,0,0,0c-0.2-0.1-0.4-0.2-0.6-0.4
				c-0.2-0.2-0.4-0.3-0.6-0.5c-0.1-0.2-0.3-0.4-0.6-0.7c-0.2,0-0.4,0-0.6,0c-0.1,0-0.2-0.3-0.1-0.3c0.1,0,0.3,0,0.4,0
				c-0.1-0.1-0.2-0.2-0.3-0.3c-0.2,0-0.4,0-0.6,0.1c-0.1,0-0.3-0.3-0.2-0.3c0.2,0,0.3-0.1,0.5-0.1c-0.1-0.1-0.2-0.2-0.3-0.3
				c-0.2,0-0.5,0-0.7,0c-0.1,0-0.3-0.3-0.2-0.3c0.2,0,0.4,0,0.6,0c-0.1-0.1-0.1-0.2-0.2-0.2c-0.3-0.1-0.5-0.1-0.8,0
				c-0.1,0-0.3-0.3-0.2-0.3c0.2,0,0.4-0.1,0.6,0c-0.1-0.1-0.1-0.1-0.1-0.1s-1.2-1.6-1.7-1.9c-0.2-0.1-0.3-0.1-0.3,0
				c0,0.4,0,0.9-0.1,1.2c-0.1,0.2-0.3,0.2-0.7,0.1c-0.1,0-0.2-0.1-0.2-0.1c-0.5-0.3-0.8-1-1.1-1.4c-0.1-0.3-0.2-0.5-0.2-0.5
				c-0.3,0.2-0.2,0.7-0.2,1.6c0,0.4-0.3,0.4-0.2,0.6C117.9,100.4,117.9,100.5,118,100.5z"/>
			
				<linearGradient id="SVGID_16_" gradientUnits="userSpaceOnUse" x1="109.9488" y1="295.2662" x2="112.0392" y2="295.2662" gradientTransform="matrix(0.8906 0.6396 0 1 28.7804 -259.9025)">
				<stop  offset="0" style="stop-color:#DD594B"/>
				<stop  offset="5.000000e-02" style="stop-color:#DD594B;stop-opacity:0.91"/>
				<stop  offset="0.19" style="stop-color:#DD594B;stop-opacity:0.67"/>
				<stop  offset="0.34" style="stop-color:#DD594B;stop-opacity:0.46"/>
				<stop  offset="0.48" style="stop-color:#DD594B;stop-opacity:0.3"/>
				<stop  offset="0.62" style="stop-color:#DD594B;stop-opacity:0.17"/>
				<stop  offset="0.75" style="stop-color:#DD594B;stop-opacity:7.000000e-02"/>
				<stop  offset="0.88" style="stop-color:#DD594B;stop-opacity:2.000000e-02"/>
				<stop  offset="1" style="stop-color:#DD594B;stop-opacity:0"/>
			</linearGradient>
			<path class="st20" d="M128.5,106.7c-0.3-0.5-0.7-0.9-1.1-1.2c-0.2-0.1-0.4-0.3-0.6-0.4c0.2,0.2,0.3,0.5,0.4,0.8
				c0,0,0,0.1,0.1,0.1c0,0,0,0.1,0.1,0.1c0.1,0.2,0.2,0.4,0.2,0.6c0,0,0,0,0,0c0.5,0.2,0.9,0.3,1,0.3c0,0,0,0,0.1-0.1
				C128.6,107,128.6,106.9,128.5,106.7C128.5,106.8,128.5,106.8,128.5,106.7z"/>
		</g>
		<g>
			
				<linearGradient id="SVGID_17_" gradientUnits="userSpaceOnUse" x1="114.9624" y1="296.5692" x2="123.4931" y2="296.5692" gradientTransform="matrix(0.8906 0.6396 0 1 28.7804 -259.9025)">
				<stop  offset="0" style="stop-color:#DD594B"/>
				<stop  offset="5.000000e-02" style="stop-color:#DD594B;stop-opacity:0.91"/>
				<stop  offset="0.19" style="stop-color:#DD594B;stop-opacity:0.67"/>
				<stop  offset="0.34" style="stop-color:#DD594B;stop-opacity:0.46"/>
				<stop  offset="0.48" style="stop-color:#DD594B;stop-opacity:0.3"/>
				<stop  offset="0.62" style="stop-color:#DD594B;stop-opacity:0.17"/>
				<stop  offset="0.75" style="stop-color:#DD594B;stop-opacity:7.000000e-02"/>
				<stop  offset="0.88" style="stop-color:#DD594B;stop-opacity:2.000000e-02"/>
				<stop  offset="1" style="stop-color:#DD594B;stop-opacity:0"/>
			</linearGradient>
			<path class="st21" d="M131.6,110.3c0,0.1,0,0.1,0,0.2c0,0.1,0,0.1,0,0.2c-0.3-0.1-0.5,0.2-0.4,0.7c0.1,0.4,0.4,0.9,0.7,1.1
				c0,0,0.1,0.1,0.1,0.1c0.1,0.2,0.1,0.3,0.2,0.5c-0.2,0.2-0.2,0.7,0.1,1.2c0.1,0.2,0.3,0.4,0.5,0.6c0.2,0.1,0.4,0.2,0.5,0.1
				c0.1,0.1,0.2,0.3,0.3,0.4c0,0.4,0.3,1,0.7,1.3c0,0,0.1,0.1,0.1,0.1c0.3,0.2,0.6,0.2,0.7-0.1c0.1,0.1,0.2,0.1,0.4,0.2
				c0.1,0.4,0.4,0.7,0.6,0.9c0.1,0.1,0.2,0.1,0.3,0.2c0.3,0.1,0.5-0.2,0.4-0.7c0.1,0,0.2,0,0.3-0.1c0.1,0.1,0.2,0.2,0.3,0.3
				c0.3,0.2,0.5,0.2,0.6,0.1c0.2-0.2,0.1-0.7-0.1-1.2c0-0.1,0.1-0.2,0.1-0.3c0.4,0.2,0.7,0.1,0.7-0.4c0,0,0,0,0,0c0,0,0,0,0,0
				c0-0.4-0.3-1-0.7-1.3c0-0.2-0.1-0.3-0.1-0.5c0.3-0.1,0.4-0.5,0.1-1c-0.2-0.5-0.6-0.9-1-1c-0.1-0.2-0.2-0.3-0.3-0.5
				c0.1-0.3-0.1-0.9-0.4-1.3c-0.3-0.4-0.8-0.6-1-0.4c-0.1-0.1-0.2-0.2-0.4-0.3c-0.1-0.5-0.5-1-0.8-1.2c-0.4-0.2-0.7,0-0.6,0.4
				c-0.1,0-0.2-0.1-0.3-0.1c-0.3-0.5-0.7-0.8-1-0.7c-0.3,0.1-0.3,0.5-0.1,1c-0.1,0.1-0.1,0.1-0.2,0.2c-0.4-0.3-0.7-0.3-0.8,0
				C131.1,109.3,131.3,109.9,131.6,110.3z M132,110.7c0.3,0.2,0.6,0.1,0.7-0.1c0.1-0.3,0-0.7-0.3-1.1c0,0,0.1-0.1,0.1-0.1
				c0.1,0.1,0.2,0.3,0.3,0.3c0.2,0.1,0.4,0.2,0.5,0.1c0.2-0.1,0.3-0.4,0.2-0.8c0.1,0,0.1,0,0.2,0c0.1,0.4,0.4,0.7,0.7,0.9
				c0,0,0.1,0,0.1,0.1c0.3,0.2,0.6,0.1,0.6-0.2c0.1,0.1,0.2,0.1,0.2,0.2c0,0.3,0.2,0.8,0.4,1.1c0.1,0.1,0.2,0.2,0.3,0.3
				c0.2,0.1,0.4,0.2,0.5,0.1c0.1,0.1,0.1,0.2,0.2,0.3c-0.2,0.2-0.2,0.5,0,0.9l0,0c0.1,0.4,0.4,0.7,0.6,0.8c0.1,0,0.1,0.1,0.2,0.1
				c0,0.1,0,0.2,0.1,0.3c-0.3-0.1-0.5,0.1-0.5,0.5c0,0,0,0,0,0c0,0,0,0,0,0c0,0.4,0.2,0.8,0.5,1.1c0,0.1,0,0.1-0.1,0.2
				c-0.3-0.3-0.6-0.4-0.8-0.2c-0.2,0.2-0.2,0.6,0,1c-0.1,0-0.1,0-0.2,0c-0.2-0.4-0.5-0.7-0.8-0.8c-0.3-0.1-0.5,0.2-0.4,0.5
				c-0.1,0-0.2-0.1-0.2-0.1c-0.1-0.4-0.3-0.8-0.6-1.1c-0.3-0.3-0.6-0.3-0.8-0.1c-0.1-0.1-0.1-0.2-0.2-0.3c0.1-0.2,0-0.7-0.2-1.1
				c-0.2-0.4-0.6-0.7-0.8-0.7c0-0.1-0.1-0.2-0.1-0.3c0.2,0,0.4-0.3,0.3-0.7c-0.1-0.4-0.4-0.8-0.7-1.1c0,0,0-0.1,0-0.1
				C132,110.7,132,110.7,132,110.7z"/>
		</g>
		<g>
			
				<linearGradient id="SVGID_18_" gradientUnits="userSpaceOnUse" x1="101.2516" y1="305.3199" x2="106.2069" y2="305.3199" gradientTransform="matrix(0.8906 0.6396 0 1 28.7804 -259.9025)">
				<stop  offset="0" style="stop-color:#DD594B"/>
				<stop  offset="5.000000e-02" style="stop-color:#DD594B;stop-opacity:0.91"/>
				<stop  offset="0.19" style="stop-color:#DD594B;stop-opacity:0.67"/>
				<stop  offset="0.34" style="stop-color:#DD594B;stop-opacity:0.46"/>
				<stop  offset="0.48" style="stop-color:#DD594B;stop-opacity:0.3"/>
				<stop  offset="0.62" style="stop-color:#DD594B;stop-opacity:0.17"/>
				<stop  offset="0.75" style="stop-color:#DD594B;stop-opacity:7.000000e-02"/>
				<stop  offset="0.88" style="stop-color:#DD594B;stop-opacity:2.000000e-02"/>
				<stop  offset="1" style="stop-color:#DD594B;stop-opacity:0"/>
			</linearGradient>
			<path class="st22" d="M121.2,110.5c0-0.1,0-0.3,0-0.4c0.4,0.2,0.7,0.1,0.7-0.4c0-0.5-0.4-1.2-0.8-1.5c-0.5-0.3-0.8-0.2-0.8,0.3
				c0,0.5,0.3,1.1,0.7,1.5c0,0.1,0,0.3,0,0.5c-1.2-0.8-2.1-0.4-2.1,0.9c0,1.4,1,3.2,2.2,4.1c1.2,0.9,2.2,0.5,2.2-0.9
				C123.4,113.2,122.4,111.4,121.2,110.5z M120.9,108.5c-0.2-0.1-0.3,0.3-0.4,0.1c-0.1-0.3,0-0.4,0.3-0.4c0.2,0.1,0.5,0.3,0.6,0.6
				C121.5,109,121.2,108.5,120.9,108.5z M121.2,113.4c-0.7-0.5-1.2-1.4-1.2-2.2c0-0.7,0.5-0.9,1.2-0.5c0.7,0.5,1.2,1.4,1.2,2.2
				C122.3,113.7,121.8,113.9,121.2,113.4z"/>
			
				<linearGradient id="SVGID_19_" gradientUnits="userSpaceOnUse" x1="106.4954" y1="303.5614" x2="111.4504" y2="303.5614" gradientTransform="matrix(0.8906 0.6396 0 1 28.7804 -259.9025)">
				<stop  offset="0" style="stop-color:#DD594B"/>
				<stop  offset="5.000000e-02" style="stop-color:#DD594B;stop-opacity:0.91"/>
				<stop  offset="0.19" style="stop-color:#DD594B;stop-opacity:0.67"/>
				<stop  offset="0.34" style="stop-color:#DD594B;stop-opacity:0.46"/>
				<stop  offset="0.48" style="stop-color:#DD594B;stop-opacity:0.3"/>
				<stop  offset="0.62" style="stop-color:#DD594B;stop-opacity:0.17"/>
				<stop  offset="0.75" style="stop-color:#DD594B;stop-opacity:7.000000e-02"/>
				<stop  offset="0.88" style="stop-color:#DD594B;stop-opacity:2.000000e-02"/>
				<stop  offset="1" style="stop-color:#DD594B;stop-opacity:0"/>
			</linearGradient>
			<path class="st23" d="M125.9,112.1c0-0.1,0-0.3,0-0.4c0.4,0.2,0.7,0.1,0.7-0.4c0-0.5-0.4-1.2-0.8-1.5c-0.5-0.3-0.8-0.2-0.8,0.3
				c0,0.5,0.3,1.1,0.7,1.5c0,0.1,0,0.3,0,0.5c-1.2-0.8-2.1-0.4-2.1,0.9c0,1.4,1,3.2,2.2,4.1c1.2,0.9,2.2,0.5,2.2-0.9
				C128,114.7,127.1,113,125.9,112.1z M125.6,110.1c-0.2-0.1-0.3,0.3-0.4,0.1c-0.1-0.3,0-0.4,0.3-0.4c0.2,0.1,0.5,0.3,0.6,0.6
				C126.2,110.6,125.8,110.1,125.6,110.1z M125.8,115c-0.7-0.5-1.2-1.4-1.2-2.2c0-0.7,0.5-0.9,1.2-0.5c0.7,0.5,1.2,1.4,1.2,2.2
				C127,115.3,126.5,115.5,125.8,115z"/>
		</g>
	</g>
</g>
<g>
	<path class="st24" d="M101.1,125.5L101.1,125.5C101.1,125.5,101.1,125.5,101.1,125.5L101.1,125.5z"/>
	<g>
		<path class="st25" d="M77.4,151.8c0.3,1.8,0.8,2.7,1.7,3.8c0.4,0.4,2.3,4.2,2.6,4.2c0.4,0.2,2.9,2.4,3.7-1.6
			c0.2-0.4-0.5-3.8-1.8-6.9C81.6,146.6,77.1,148.9,77.4,151.8z"/>
		
			<linearGradient id="SVGID_20_" gradientUnits="userSpaceOnUse" x1="429.0697" y1="78.3842" x2="434.7289" y2="39.9011" gradientTransform="matrix(-0.5996 0.8003 0.8003 0.5996 281.5857 -252.5572)">
			<stop  offset="0" style="stop-color:#FFFFFF"/>
			<stop  offset="1" style="stop-color:#F7CE84"/>
		</linearGradient>
		<path class="st26" d="M67.4,135.8c0,0,0.1,0.1,0,0.3c1,4,2.7,6.1,9,14.7c0.1-0.1,0.6,0.3,0.7,0.5c1.3-1.6,2.4-2.3,4.7-2.3
			c-0.1-0.4-0.4-1.9-0.4-1.9c-0.8-2.4-2-4.7-3.3-7.3c0.4-3.5-1.6-8.8-2.1-13.6c-1-7.7-3.2-18.9-10.9-17.5
			c-6.3,1.2-4.5,11.2-1.6,18.6C65.1,129.9,66.2,133.1,67.4,135.8L67.4,135.8L67.4,135.8z"/>
	</g>
	<path class="st27" d="M72.5,208.9c1.9-0.6,6.9-1.9,8.5-0.4c1.7,1.5,1.2,5.8-3.7,7.9c-5,2.1-9.1,1.2-9.1,2.5c0,1.2-3.7,2.3-6.9,1.5
		c-3.1-0.8-3.3-5.6-1.5-8.1C61.5,209.9,67.9,210.8,72.5,208.9z"/>
	<path class="st27" d="M85.6,216.4c1.9-0.6,6.9-1.9,8.5-0.4c1.7,1.5,1.2,5.8-3.7,7.9c-5,2.1-9.1,1.2-9.1,2.5c0,1.2-3.7,2.3-6.9,1.5
		c-3.1-0.8-3.3-5.6-1.5-8.1C74.8,217.4,81,218,85.6,216.4z"/>
	
		<linearGradient id="SVGID_21_" gradientUnits="userSpaceOnUse" x1="56.3885" y1="75.0978" x2="86.2277" y2="75.0978" gradientTransform="matrix(1 0 0 -1 0 264)">
		<stop  offset="0" style="stop-color:#004794"/>
		<stop  offset="1" style="stop-color:#001355"/>
	</linearGradient>
	<path class="st28" d="M86.2,162.1c-2.9-1.7-8.7-2.3-13.1-1.5c0-2.3,0-4.2,0-5.8c-3.9-2.5-13.1-2.5-16.6,0.8
		c-0.4,13.3,2.7,24.5,1.9,32.8c-0.8,8.3-0.2,23.7,0.2,25.8c1.7,2.9,6.6,4.8,12.3,1c0.2,0.8,0.4,1.7,0.6,2.3c0.2,2.1,0.2,3.5,0.4,3.9
		c1.9,3.1,7.5,5.2,13.5,0c0,0,0.2-5.2,0.6-13.1C86.4,201.2,86.2,173.6,86.2,162.1z"/>
	<path class="st25" d="M76.2,87.1c-5.6,0-9.8,5.2-9.1,11.6c0.2,2.1,1,3.9,2.1,5.6v11.4h9.6v-5.4c0.4,0,0.8,0,1.2,0
		c5.6,0,7.7-5.2,7.3-11.6C86.6,92.3,81.8,87.1,76.2,87.1z"/>
	<path class="st29" d="M73.1,82.8c5-1.2,12.7,1.5,14.5,6.4c1.2,3.9,0.6,5.8-1.5,8.7c-0.6,0.8-1.7,2.1-2.3,3.7
		c-0.8,2.5-1.5,2.3-2.9,0.4c-1.2-1.9-2.1-3.7-3.9-0.2c-1.9,3.3-4.8,5.4-6.2,4.8c-2.1-1-2.7-2.5-4.6-7.3C65.4,96.7,63.5,85,73.1,82.8
		z"/>
	
		<linearGradient id="SVGID_22_" gradientUnits="userSpaceOnUse" x1="30.9886" y1="99.6752" x2="70.0319" y2="99.6752" gradientTransform="matrix(0.9862 -0.1658 -0.1658 -0.9862 28.1709 244.6976)">
		<stop  offset="0" style="stop-color:#1E5177"/>
		<stop  offset="0.462" style="stop-color:#84A0B5"/>
		<stop  offset="1" style="stop-color:#FFFFFF"/>
	</linearGradient>
	<path class="st30" d="M87.4,146.8c1.5-5.8,4.4-16.8,3.3-20.2c-0.8-3.3-6.2-8.9-8.9-10.6c-0.2-0.2-0.6-0.4-0.8-0.6l0,0l0,0
		c-0.4-0.2-0.8-0.6-1.2-0.8c0,0-0.2,0-0.2-0.2c-0.2-0.2-0.4-0.2-0.4-0.4l0,0c-0.2-0.2-0.4-0.2-0.6-0.4l-0.2-0.2
		c-3.9,0.4-7.9-0.6-9.3-4.8c-0.4-0.2-0.6-0.2-1-0.4l0,0l0,0c-0.2,0-0.4-0.2-0.6-0.2l0,0l0,0c-1.7-0.6-3.1-1-4.2-0.8
		c-3.9,0.2-5.2,8.1-5.2,14.5c0.2,6.6,0.2,13.3-1,18.1c-1,5-1.5,17.9,0.4,19.7c1.9,1.7,8.1,6.9,16.8,6.6c8.5-0.2,17-2.7,16.2-5.4
		C89.5,158.2,86,152.6,87.4,146.8z"/>
	<g>
		<path class="st25" d="M124.3,129.7c1.9,0.3,2.7,0,4.3-0.6c0.5-0.3,4.6-1,4.7-1.5c0.2-0.4,3.5-2.2-0.5-3.9c-0.4-0.2-3.8-0.5-7-0.2
			C120.5,124.1,121.3,129.2,124.3,129.7z"/>
		
			<linearGradient id="SVGID_23_" gradientUnits="userSpaceOnUse" x1="-192.2688" y1="173.0367" x2="-186.6096" y2="134.5537" gradientTransform="matrix(0.6154 0.7882 0.7882 -0.6154 100.7291 369.6871)">
			<stop  offset="0" style="stop-color:#1E5177"/>
			<stop  offset="0.462" style="stop-color:#84A0B5"/>
			<stop  offset="1" style="stop-color:#FFFFFF"/>
		</linearGradient>
		<path class="st31" d="M106.3,135.1c0,0,0.2-0.1,0.3,0.1c4,0.1,7.1,0.4,17-3.5c-0.1-0.2,0.4-0.5,0.6-0.6c-1.1-1.8-2-4.4-1.4-6.5
			c-0.5,0-2,0-1.9-0.3c-2.3,0.2-5.3,0.6-7.9,1.1c-3.3-1.3-9-0.9-13.7-1.4c-7.6-1.1-19.2-1.8-19.8,5.7c-0.6,6.3,9.8,7.3,17.5,6.6
			C100.1,135.8,103.2,135.6,106.3,135.1L106.3,135.1L106.3,135.1z"/>
	</g>
</g>
</svg>
