<?xml version="1.0" encoding="utf-8"?>
<!-- Generator: Adobe Illustrator 21.0.2, SVG Export Plug-In . SVG Version: 6.00 Build 0)  -->
<svg version="1.1" id="Layer_1" xmlns="http://www.w3.org/2000/svg" xmlns:xlink="http://www.w3.org/1999/xlink" x="0px" y="0px"
	 viewBox="0 0 180.1 131.9" style="enable-background:new 0 0 180.1 131.9;" xml:space="preserve">
<style type="text/css">
	.st0{fill:#004794;}
	.st1{opacity:0.6;fill:#001355;enable-background:new    ;}
	.st2{fill:url(#SVGID_1_);}
	.st3{fill:url(#SVGID_2_);}
	.st4{fill:url(#SVGID_3_);}
	.st5{fill:none;stroke:#F89D89;stroke-width:0.5;stroke-miterlimit:10;}
	.st6{fill:none;stroke:#F89D89;stroke-width:0.25;stroke-miterlimit:10;}
	.st7{opacity:0.75;fill:#FFFFFF;enable-background:new    ;}
	.st8{fill:none;}
	.st9{fill:url(#SVGID_4_);}
	.st10{fill:url(#SVGID_5_);}
	.st11{fill:url(#SVGID_6_);}
	.st12{fill:url(#SVGID_7_);}
	.st13{opacity:0.75;}
	.st14{fill:#FFFFFF;}
	.st15{opacity:0.75;fill:none;stroke:#FFFFFF;stroke-width:0.5;stroke-miterlimit:10;enable-background:new    ;}
	.st16{fill:#DD9E73;}
	.st17{fill:#1E5177;}
	.st18{fill:#594A42;}
	.st19{fill:url(#SVGID_8_);}
	.st20{fill:#001355;}
</style>
<g>
	<path class="st0" d="M2.8,72C6.2,61.2,5,45.9,11,33.6S42.5,3,54.9,3.3s10.4,3,32.6,4.3S111.1-4,135.7,1.3s39.3-1.7,38.6,18
		c-0.7,19.7-6.3,12.3,1,39.3s5.6,18.3-1,44.4c-6,23.7-12.2,30.6-42.5,24.6c-30.3-6-42.2-2.8-63.9,1.8c-21.7,4.6-27.6,3.2-40.5-6.8
		S0.5,109.9,0,98.3C-0.3,89.6,2.7,78.5,2.8,72z"/>
	<path class="st1" d="M95,96.5l-47.5,2.8l-0.4,2.6c0,0,4.3,3,18,3.8l0,0c10.4,0.5,21.2,0.8,32.4,0.7c17.7-0.1,34.4-0.9,49.9-2.3
		c9.8-4.8,10.4-8.7,10.4-8.7L95,96.5z"/>
	<ellipse class="st1" cx="31.4" cy="105.6" rx="18.6" ry="5.4"/>
	<g>
		<g>
			
				<linearGradient id="SVGID_1_" gradientUnits="userSpaceOnUse" x1="47.1211" y1="221.1022" x2="147.5211" y2="221.1022" gradientTransform="matrix(1 0 0 1 0 -153.4178)">
				<stop  offset="0" style="stop-color:#F89D89"/>
				<stop  offset="1" style="stop-color:#FFD297"/>
			</linearGradient>
			<polygon class="st2" points="127.1,33.6 114.8,33.6 113.6,33.6 94.3,33.6 81.1,33.6 80.8,33.6 60.6,33.6 47.1,33.6 47.1,101.8 
				60.6,101.8 80.8,101.8 81.1,101.8 94.3,101.8 113.6,101.8 114.8,101.8 127.1,101.8 147.5,101.8 147.5,33.6 			"/>
			
				<linearGradient id="SVGID_2_" gradientUnits="userSpaceOnUse" x1="47.1211" y1="184.0022" x2="158.0211" y2="184.0022" gradientTransform="matrix(1 0 0 1 0 -153.4178)">
				<stop  offset="0" style="stop-color:#FFD297"/>
				<stop  offset="1" style="stop-color:#F89D89"/>
			</linearGradient>
			<polygon class="st3" points="47.1,33.7 62.6,27.5 158,27.5 147.5,33.7 			"/>
			
				<linearGradient id="SVGID_3_" gradientUnits="userSpaceOnUse" x1="147.5805" y1="218.0522" x2="158.0247" y2="218.0522" gradientTransform="matrix(1 0 0 1 0 -153.4178)">
				<stop  offset="0" style="stop-color:#F89D89"/>
				<stop  offset="1" style="stop-color:#FFD297"/>
			</linearGradient>
			<polygon class="st4" points="147.5,33.7 158,27.5 158,95.3 147.5,101.8 			"/>
		</g>
		<g>
			<line class="st5" x1="121.3" y1="85" x2="121.3" y2="96.5"/>
			<line class="st5" x1="122" y1="85" x2="122" y2="96.5"/>
			<line class="st6" x1="122.8" y1="85" x2="122.8" y2="96.5"/>
			<line class="st5" x1="123.5" y1="85" x2="123.5" y2="96.5"/>
			<line class="st5" x1="124.3" y1="85" x2="124.3" y2="96.5"/>
			<line class="st6" x1="125.1" y1="85" x2="125.1" y2="96.5"/>
			<line class="st6" x1="125.8" y1="85" x2="125.8" y2="96.5"/>
			<line class="st5" x1="126.6" y1="85" x2="126.6" y2="96.5"/>
			<line class="st5" x1="127.3" y1="85" x2="127.3" y2="96.5"/>
			<line class="st6" x1="128.2" y1="85" x2="128.2" y2="96.5"/>
			<line class="st5" x1="128.9" y1="85" x2="128.9" y2="96.5"/>
			<line class="st5" x1="129.6" y1="85" x2="129.6" y2="96.5"/>
			<line class="st5" x1="130.3" y1="85" x2="130.3" y2="96.5"/>
			<line class="st6" x1="131.1" y1="85" x2="131.1" y2="96.5"/>
			<line class="st6" x1="131.9" y1="85" x2="131.9" y2="96.5"/>
			<line class="st5" x1="132.7" y1="85" x2="132.7" y2="96.5"/>
			<line class="st5" x1="133.4" y1="85" x2="133.4" y2="96.5"/>
			<line class="st6" x1="134.1" y1="85" x2="134.1" y2="96.5"/>
			<line class="st5" x1="134.9" y1="85" x2="134.9" y2="96.5"/>
			<line class="st5" x1="135.7" y1="85" x2="135.7" y2="96.5"/>
		</g>
		<rect x="61.9" y="85.6" class="st7" width="16.4" height="10.3"/>
		<g>
			<line class="st8" x1="99.9" y1="33.7" x2="99.9" y2="101.8"/>
			
				<radialGradient id="SVGID_4_" cx="99.9938" cy="221.1522" r="24.0981" gradientTransform="matrix(1 0 0 1 0 -153.4178)" gradientUnits="userSpaceOnUse">
				<stop  offset="0" style="stop-color:#F89D89"/>
				<stop  offset="1" style="stop-color:#FFD297"/>
			</radialGradient>
			<rect x="98.6" y="33.7" class="st9" width="2.8" height="68.1"/>
		</g>
		
			<radialGradient id="SVGID_5_" cx="103.4211" cy="183.9591" r="4.0434" gradientTransform="matrix(1 0 0 1 0 -153.4178)" gradientUnits="userSpaceOnUse">
			<stop  offset="0" style="stop-color:#F89D89"/>
			<stop  offset="1" style="stop-color:#FFD297"/>
		</radialGradient>
		<polygon class="st10" points="98.6,33.7 106.5,27.5 108.2,27.5 101.3,33.7 		"/>
		<g>
			
				<radialGradient id="SVGID_6_" cx="104.3711" cy="183.701" r="34.9676" gradientTransform="matrix(1 0 0 1 0 -153.4178)" gradientUnits="userSpaceOnUse">
				<stop  offset="0" style="stop-color:#F89D89"/>
				<stop  offset="1" style="stop-color:#FFD297"/>
			</radialGradient>
			<polygon class="st11" points="152.5,30.7 54.9,30.6 56.6,29.9 153.8,30 			"/>
		</g>
		<g>
			
				<radialGradient id="SVGID_7_" cx="153.509" cy="217.5522" r="24.1862" gradientTransform="matrix(1 0 0 1 0 -153.4178)" gradientUnits="userSpaceOnUse">
				<stop  offset="0" style="stop-color:#F89D89"/>
				<stop  offset="1" style="stop-color:#FFD297"/>
			</radialGradient>
			<polygon class="st12" points="154.5,97.5 153.1,98.3 152.5,30.7 153.8,30 			"/>
		</g>
		<g class="st13">
			<rect x="79.4" y="52.9" class="st14" width="39.1" height="1.4"/>
		</g>
		<g class="st13">
			<rect x="87.5" y="58.6" class="st14" width="20.6" height="1.4"/>
		</g>
		<line class="st15" x1="128.2" y1="39.3" x2="143.8" y2="39.3"/>
		<line class="st15" x1="128.2" y1="41.3" x2="143.8" y2="41.3"/>
		<line class="st15" x1="128.3" y1="43.4" x2="143.9" y2="43.4"/>
	</g>
	<g>
		<path class="st16" d="M48.7,41.7c-0.2,0-0.4-0.1-0.5-0.2c-0.2,0-0.4-0.1-0.5-0.3c-0.1-0.1-0.1-0.2-0.2-0.3c-0.1-0.3,0-0.7,0.3-1
			c0-0.1-0.1-0.1-0.1-0.2c-0.1-0.1-0.2-0.3-0.3-0.4c0,0,0,0-0.1,0c-0.6-0.6-0.3-1.4,0-2c0-0.1,0-0.2,0-0.2c0-0.4,0.1-0.7,0.2-1.1
			v-0.1l0,0c0-0.2,0-0.4,0-0.5s0-0.2,0-0.2c0-0.3,0.3-0.6,0.6-0.6c0.1,0,0.1,0,0.2,0c0.2,0,0.4,0.1,0.5,0.2c0.3,0.3,0.5,0.7,0.5,1.1
			c0.1,0.3,0.1,0.6,0.2,0.8c0.1,0,0.2,0.1,0.3,0.1c0.3-0.2,0.7-0.4,1-0.7c0.1-0.1,0.1-0.1,0.2-0.2c0.1-0.1,0.3-0.2,0.5-0.4
			c0.1-0.1,0.2-0.2,0.3-0.3C52,35,52.2,35,52.3,35s0.4,0,0.6,0.4s0.2,0.8,0,1.2C53,36.8,53,37,53,37.3c0,0.1,0,0.2,0,0.3
			s0,0.3,0,0.4v0.1c-0.1,0.2-0.1,0.4-0.3,0.6c0,0.1-0.1,0.1-0.1,0.1c-0.3,0.4-0.7,0.8-1.2,1.2c-0.2,0.2-0.5,0.4-0.7,0.6
			c-0.2,0.2-0.6,0.4-0.9,0.6c-0.1,0.1-0.3,0.2-0.4,0.2C49.1,41.7,48.9,41.7,48.7,41.7L48.7,41.7z"/>
		<path class="st17" d="M32.2,103c-0.8,0.1-0.3,3.7-0.3,3.7h11.7c0,0,0.8-0.9,0.1-1.8c-0.4-0.5-3.6-1.8-4.6-1.9s-2.7,0.6-4,0.6
			S33,102.9,32.2,103z"/>
		<path class="st17" d="M22,103.3c-0.8,0.1-0.3,3.7-0.3,3.7h11.7c0,0,0.8-0.9,0.1-1.8c-0.4-0.5-3.6-1.8-4.6-1.9s-2.7,0.6-4,0.6
			C23.4,103.8,22.7,103.2,22,103.3z"/>
		<path class="st18" d="M31.4,25.1c0,0,1-1.2,1.3-2.1c0,0-6.8-2.9-9.4,3.1c0,0-1.8,1.8-0.5,5.3c1,2.5,3.1,2.8,3.1,2.8l3.2-4.5
			L31.4,25.1z"/>
		<path class="st16" d="M30.7,38.7l-5.1-0.5c-0.2,0-0.3-0.2-0.3-0.3c0-0.6,0.1-1,0.2-1.7c0.1-0.8,0.3-1.8,0.5-3.7
			c-0.5-0.3-0.7-0.9-0.7-1.5c0-1,0.8-1.8,1.8-1.8c0.6,0,1.1,0.3,1.4,0.7l0.6-0.3c-0.3-0.7-0.9-2.1-0.9-2.1c0-0.1,0-0.2,0-0.3
			c1.1-1.5,3-2,3-2.1h0.1c0.1,0,0.2,0,0.2,0.1c0.8,0.7,1.3,1.9,1.5,2.7c0.1,0.2,0.1,0.4,0.2,0.5c0,0.1,0.3,0.2,0.5,0.4
			c0.5,0.3,1.1,0.6,1.1,1.3c0,0.5-0.6,0.9-1,1.1c0.4,1.5,0.3,3.5-0.5,4.7c-0.6,0.9-1.6,1.1-2.4,1.1c-0.1,0-0.2,0-0.2,0l0.2,1.7
			c0,0.1,0,0.2-0.1,0.3C30.9,38.7,30.8,38.7,30.7,38.7L30.7,38.7z"/>
		
			<linearGradient id="SVGID_8_" gradientUnits="userSpaceOnUse" x1="26.6998" y1="186.9197" x2="39.1709" y2="214.1714" gradientTransform="matrix(1 0 0 1 0 -153.4178)">
			<stop  offset="0" style="stop-color:#1E5177"/>
			<stop  offset="0.462" style="stop-color:#84A0B5"/>
			<stop  offset="1" style="stop-color:#FFFFFF"/>
		</linearGradient>
		<path class="st19" d="M47.3,38.8c-0.8,0.5-7.7,3.6-12.3,3.4c-0.8,0-1.5-0.2-2.2-0.3c-0.4-1.6-0.8-2.7-1.5-3.3c0,0-2-0.6-3.4-1
			c-2.8-0.9-4,0.5-4.6,1.9c0,0.1,0,0.1-0.1,0.2C23,40.6,23,41.5,23,41.5c-0.1,0.3,0.1,8.8,0.3,15.1v0.3c0,0,0,0,0,0.1
			c0.1,2.3,0.2,5.9,0.3,7.8c0.7,11.5,10,9.3,10.3,4.5c0.1-1.9,0.4-5.9,0.3-11.9c0.1-1.1,0.1-2.1,0.1-3.1c-0.1-2.7-0.3-5-0.6-6.6
			c1.3,0.3,2.8,0.4,4.6,0.1c6.3-0.9,10.3-6.5,10.3-6.5C48.5,40,47.3,38.8,47.3,38.8z"/>
		<path class="st20" d="M34.3,69c0.1-2.2-0.2-3-0.1-5.7H23.4c0,0.5,0,1,0,1.5c0.8,11.6-0.9,26.3-1.5,32.4s-0.3,6.8-0.3,6.8l7.2-0.3
			c0.2-0.8,0.5-3.9,1.3-9.3l1.7,9.6l6.2-0.7C36.7,89.1,34.1,73.8,34.3,69z"/>
	</g>
</g>
</svg>
